<svg xmlns="http://www.w3.org/2000/svg" viewBox="0 0 804.14 721.78"><defs><style>.cls-1{fill:#5cd6ea;}.cls-2{fill:#160e08;}.cls-3{fill:#64db58;}.cls-4{fill:#34992e;}.cls-5{fill:#46c13d;}.cls-6{fill:#996930;}.cls-7{fill:#634221;}.cls-8{fill:#895c2c;}.cls-9{fill:#281a0e;}.cls-10{fill:#51351c;}.cls-11{fill:#70ef62;}.cls-12,.cls-27{fill:#50ffe6;}.cls-12,.cls-13,.cls-14{opacity:0.69;}.cls-13,.cls-28{fill:#3d9599;}.cls-14{fill:#4bb2bc;}.cls-15{fill:#bf813d;}.cls-16{fill:#7c5428;}.cls-17{fill:#ff5050;}.cls-18{fill:#ff0d0d;}.cls-19{fill:#ff3939;}.cls-20{fill:#ccc;}.cls-21{fill:#e5e5e5;}.cls-22{fill:#fff;}.cls-23{fill:#ffde55;}.cls-24{fill:#b7a03e;}.cls-25{fill:#d6bb49;}.cls-26{fill:red;}</style></defs><title>floating</title><g id="Calque_2" data-name="Calque 2"><g id="Calque_1-2" data-name="Calque 1"><rect class="cls-1" width="804.14" height="721.78"/><polygon points="419.29 578.61 407.65 585.34 419.29 592.06 430.94 585.34 419.29 578.61"/><path d="M430.94,592.06v-6.72l-11.65,6.72-11.64-6.72v13.24c0,.2,5.83,3.58,5.83,3.58v-6.74l5.82,3.36Z"/><polygon points="419.29 598.78 413.48 602.15 413.47 595.42 419.29 598.78"/><polygon points="425.12 595.42 425.1 602.15 419.29 605.51 413.48 602.15 425.12 595.42"/><polygon points="419.29 588.7 419.29 598.78 430.94 592.06 430.94 581.97 419.29 588.7"/><polygon points="419.29 605.51 419.29 612.23 413.48 615.59 407.65 612.23 407.65 605.31 407.65 598.59 419.29 605.51"/><polygon class="cls-2" points="407.65 518.37 430.94 531.82 407.65 545.27 384.35 531.82 407.65 518.37"/><path class="cls-2" d="M384.35,545.27V531.82l23.3,13.45,23.29-13.45v26.5c0,.4-11.68,7.14-11.68,7.14l0-13.46-11.64,6.72Z"/><polygon class="cls-2" points="407.65 558.72 419.26 565.46 419.29 552 407.65 558.72"/><polygon class="cls-2" points="396 552 396.03 565.46 407.65 572.17 419.26 565.46 396 552"/><polygon class="cls-2" points="407.65 545.27 407.65 558.72 384.35 545.27 384.35 531.82 407.65 545.27"/><polygon class="cls-2" points="407.65 572.17 407.65 585.62 419.26 592.33 419.26 592.33 430.94 585.48 430.94 571.77 430.94 558.32 407.65 572.17"/><polygon class="cls-3" points="309.74 282.86 286.44 269.4 309.74 255.94 286.44 242.49 263.13 229.03 286.44 215.57 263.13 202.11 286.44 188.66 263.13 175.2 309.74 148.28 286.44 134.83 309.74 121.37 286.44 107.91 333.05 81 379.67 107.91 402.97 94.45 426.28 107.91 449.59 94.45 496.2 121.37 472.89 134.83 542.82 175.2 519.51 188.66 542.82 202.11 496.2 229.03 519.51 242.49 426.28 296.32 402.97 282.86 379.67 296.32 333.05 269.4 309.74 282.86"/><polygon class="cls-4" points="263.13 229.02 263.13 255.94 286.43 269.39 309.74 255.94 263.13 229.02"/><polygon class="cls-4" points="263.13 202.11 263.13 229.02 286.43 215.56 263.13 202.11"/><polygon class="cls-4" points="263.13 175.19 263.13 202.11 286.43 188.65 263.13 175.19"/><polygon class="cls-4" points="286.43 134.82 286.43 161.73 309.74 148.28 286.43 134.82"/><polygon class="cls-4" points="286.43 107.9 286.43 134.82 309.74 121.36 286.43 107.9"/><polygon class="cls-5" points="309.74 309.77 333.05 296.31 333.05 269.39 309.74 282.85 309.74 309.77"/><polygon class="cls-4" points="379.66 296.31 379.66 323.23 333.05 296.31 333.05 269.39 379.66 296.31"/><polygon class="cls-4" points="426.28 296.31 426.28 323.23 402.97 309.77 402.97 282.85 426.28 296.31"/><polygon class="cls-5" points="519.51 269.39 426.28 323.23 426.28 296.31 519.51 242.48 519.51 269.39"/><polygon class="cls-5" points="542.81 202.11 542.81 229.02 519.51 242.48 496.2 229.02 542.81 202.11"/><polygon class="cls-5" points="542.81 175.19 542.81 202.11 519.51 188.65 542.81 175.19"/><polygon class="cls-5" points="496.2 121.36 496.2 148.28 472.89 134.82 496.2 121.36"/><polygon class="cls-5" points="379.66 296.31 379.66 323.23 402.97 309.77 402.97 282.85 379.66 296.31"/><polygon class="cls-6" points="263.13 255.94 263.13 309.77 286.43 323.23 286.43 269.39 263.13 255.94"/><polygon class="cls-7" points="309.74 417.43 309.74 417.43 333.05 430.89 356.36 417.43 379.66 430.89 402.97 444.34 472.89 403.97 472.89 350.14 426.28 377.06 402.97 363.6 379.66 377.06 333.05 350.14 309.74 363.6 309.74 417.43"/><polygon class="cls-8" points="333.05 430.89 333.05 350.14 356.36 363.6 356.36 417.43 333.05 430.89"/><polygon class="cls-6" points="356.36 444.34 356.36 498.17 379.66 511.63 379.66 538.55 402.97 552 426.28 538.55 449.58 525.09 449.58 471.26 472.89 457.8 472.89 430.89 449.58 444.34 426.28 430.89 379.66 457.8 356.36 444.34"/><polygon class="cls-9" points="379.66 430.89 356.36 417.43 356.36 498.17 379.66 511.63 379.66 538.55 402.97 552 402.97 444.34 379.66 430.89"/><polygon class="cls-10" points="449.58 525.09 449.58 471.26 472.89 457.8 472.89 430.89 449.58 444.34 426.28 430.89 402.97 444.34 402.97 552 449.58 525.09"/><polygon class="cls-8" points="426.28 377.06 426.28 430.89 449.58 444.34 496.2 417.43 496.2 336.68 426.28 377.06"/><polygon class="cls-8" points="402.97 363.6 402.97 444.34 426.28 430.89 426.28 377.06 402.97 363.6"/><polygon class="cls-7" points="449.58 444.34 449.58 363.6 426.28 377.06 426.28 430.89 449.58 444.34"/><polygon class="cls-11" points="356.36 175.19 333.05 161.73 356.36 148.28 333.05 134.82 356.36 121.36 379.66 134.82 402.97 121.36 449.58 148.28 426.28 161.73 449.58 175.19 426.28 188.65 426.28 215.56 402.97 229.02 402.97 202.11 379.68 188.66 402.97 175.19 379.66 161.73 356.36 175.19"/><polygon class="cls-4" points="356.36 175.19 333.05 161.73 333.05 188.65 356.36 202.11 356.36 175.19"/><polygon class="cls-4" points="402.97 202.11 379.66 188.65 379.66 215.56 402.97 229.02 402.97 202.11"/><polygon class="cls-5" points="402.97 229.02 449.58 202.11 449.58 175.19 402.97 202.11 402.97 229.02"/><polygon class="cls-5" points="449.58 148.28 449.58 175.19 426.28 161.73 449.58 148.28"/><polygon class="cls-5" points="333.05 134.82 333.05 161.73 356.36 148.28 333.05 134.82"/><polygon class="cls-5" points="379.66 161.73 379.66 188.65 356.36 202.11 356.36 175.19 379.66 161.73"/><polygon class="cls-4" points="402.97 175.19 379.66 161.73 379.66 188.65 402.97 175.19"/><polygon class="cls-12" points="274.78 235.75 356.36 188.66 379.66 175.2 391.32 181.93 379.68 188.66 379.66 202.11 298.09 249.21 274.78 235.75"/><polygon class="cls-13" points="274.78 235.76 274.78 619.29 274.78 646.21 286.43 652.94 286.43 626.02 298.09 632.75 298.09 249.22 274.78 235.76"/><polygon class="cls-14" points="298.09 262.66 379.66 215.56 379.66 202.11 298.09 249.21 298.09 262.66"/><polygon class="cls-14" points="298.09 632.75 309.74 625.97 309.74 363.6 298.09 356.87 298.09 632.75"/><polygon class="cls-4" points="286.43 296.31 286.43 269.39 309.74 282.85 309.74 309.77 286.43 296.31"/><polygon class="cls-6" points="286.43 296.31 286.43 350.14 309.74 363.6 333.05 350.14 379.66 377.06 402.97 363.6 426.28 377.06 519.51 323.23 519.51 269.39 426.28 323.23 402.97 309.77 379.66 323.23 333.05 296.31 309.74 309.77 286.43 296.31"/><polygon class="cls-15" points="309.74 363.6 309.74 309.77 333.05 296.31 333.05 350.14 309.74 363.6"/><polygon class="cls-15" points="379.66 323.23 379.66 377.06 402.97 363.6 402.97 309.77 379.66 323.23"/><polygon class="cls-15" points="426.28 323.23 426.28 377.06 519.51 323.23 519.51 269.39 426.28 323.23"/><polygon class="cls-15" points="542.81 229.02 542.81 282.85 519.51 296.31 519.51 242.48 542.81 229.02"/><polygon class="cls-14" points="298.09 632.75 286.43 626.02 286.43 652.94 298.09 646.21 298.09 632.75"/><polygon class="cls-16" points="402.91 498.21 426.28 484.72 402.91 471.22 379.66 484.72 402.91 498.21"/><polygon class="cls-10" points="379.66 457.8 379.66 484.72 402.91 471.22 379.66 457.8"/><polygon class="cls-9" points="426.28 483.92 402.91 471.22 426.28 457.8 426.28 483.92"/><polygon class="cls-17" points="423.49 238.08 433.12 232.52 442.76 238.08 433.12 243.65 423.49 238.08"/><polygon class="cls-18" points="423.49 249.21 423.49 238.08 433.12 243.65 433.12 254.77 423.49 249.21"/><polygon class="cls-19" points="442.76 238.08 442.76 249.21 433.12 254.77 433.12 243.65 442.76 238.08"/><polygon class="cls-20" points="428.83 238.76 427.78 238.15 427.78 236.94 428.83 237.55 428.83 238.76"/><polygon class="cls-21" points="429.89 238.15 428.84 238.76 428.84 237.55 429.88 236.95 429.89 238.15"/><polygon class="cls-22" points="428.83 237.56 427.78 236.94 428.83 236.34 429.88 236.95 428.83 237.56"/><polygon class="cls-20" points="433.12 234.95 432.07 234.34 432.07 233.13 433.12 233.74 433.12 234.95"/><polygon class="cls-21" points="434.18 234.34 433.12 234.95 433.12 233.74 434.17 233.13 434.18 234.34"/><polygon class="cls-22" points="433.12 233.74 432.06 233.13 433.11 232.52 434.17 233.13 433.12 233.74"/><polygon class="cls-20" points="437.94 239.68 436.88 239.06 436.88 237.85 437.94 238.46 437.94 239.68"/><polygon class="cls-21" points="439 239.06 437.94 239.68 437.94 238.46 438.99 237.86 439 239.06"/><polygon class="cls-22" points="437.94 238.47 436.88 237.85 437.93 237.25 438.99 237.86 437.94 238.47"/><polygon class="cls-20" points="434.71 242.1 433.65 241.49 433.65 240.28 434.71 240.89 434.71 242.1"/><polygon class="cls-21" points="435.77 241.49 434.71 242.1 434.71 240.89 435.76 240.29 435.77 241.49"/><polygon class="cls-22" points="434.71 240.89 433.65 240.28 434.7 239.68 435.76 240.29 434.71 240.89"/><polygon class="cls-20" points="424.55 241.49 423.49 240.88 423.49 239.67 424.55 240.28 424.55 241.49"/><polygon class="cls-21" points="425.61 240.88 424.55 241.49 424.55 240.28 425.6 239.68 425.61 240.88"/><polygon class="cls-22" points="424.55 240.28 423.49 239.67 424.54 239.07 425.6 239.68 424.55 240.28"/><polygon class="cls-20" points="430.36 247.25 429.31 246.64 429.31 245.43 430.36 246.04 430.36 247.25"/><polygon class="cls-21" points="431.42 246.64 430.37 247.25 430.37 246.04 431.41 245.43 431.42 246.64"/><polygon class="cls-22" points="430.36 246.04 429.31 245.43 430.36 244.82 431.41 245.43 430.36 246.04"/><polygon class="cls-20" points="425.61 246.85 424.55 246.24 424.55 245.03 425.61 245.64 425.61 246.85"/><polygon class="cls-21" points="426.66 246.24 425.61 246.85 425.61 245.64 426.65 245.03 426.66 246.24"/><polygon class="cls-22" points="425.6 245.64 424.55 245.03 425.6 244.42 426.65 245.03 425.6 245.64"/><polygon class="cls-20" points="428.31 251.19 427.25 250.58 427.25 249.37 428.31 249.98 428.31 251.19"/><polygon class="cls-21" points="429.36 250.58 428.31 251.19 428.31 249.98 429.36 249.38 429.36 250.58"/><polygon class="cls-22" points="428.31 249.98 427.25 249.37 428.3 248.76 429.36 249.38 428.31 249.98"/><polygon class="cls-20" points="436.14 252.1 435.08 251.49 435.08 250.28 436.14 250.89 436.14 252.1"/><polygon class="cls-21" points="437.2 251.49 436.14 252.1 436.14 250.89 437.19 250.28 437.2 251.49"/><polygon class="cls-22" points="436.14 250.89 435.08 250.28 436.13 249.68 437.19 250.28 436.14 250.89"/><polygon class="cls-20" points="441.25 244.42 440.2 243.81 440.2 242.6 441.25 243.21 441.25 244.42"/><polygon class="cls-21" points="442.31 243.81 441.25 244.42 441.25 243.21 442.3 242.61 442.31 243.81"/><polygon class="cls-22" points="441.25 243.22 440.2 242.6 441.25 242 442.3 242.61 441.25 243.22"/><polygon class="cls-20" points="435.61 246.25 434.56 245.64 434.56 244.43 435.61 245.04 435.61 246.25"/><polygon class="cls-21" points="436.67 245.64 435.61 246.25 435.61 245.04 436.66 244.43 436.67 245.64"/><polygon class="cls-22" points="435.61 245.04 434.56 244.43 435.61 243.82 436.66 244.43 435.61 245.04"/><polygon class="cls-20" points="440.73 249.68 439.67 249.07 439.67 247.86 440.73 248.47 440.73 249.68"/><polygon class="cls-21" points="441.78 249.07 440.73 249.68 440.73 248.47 441.77 247.86 441.78 249.07"/><polygon class="cls-22" points="440.72 248.47 439.67 247.86 440.72 247.25 441.77 247.86 440.72 248.47"/><polygon class="cls-21" points="438.47 251.68 433.12 254.77 427.78 251.68 427.78 262.81 433.12 265.89 438.47 262.81 438.47 251.68"/><polygon class="cls-20" points="433.12 265.89 433.12 254.77 427.78 251.68 427.78 262.81 433.12 265.89"/><polygon class="cls-17" points="381.68 107.01 391.32 101.45 400.95 107.01 391.32 112.57 381.68 107.01"/><polygon class="cls-18" points="381.68 118.13 381.68 107.01 391.32 112.57 391.32 123.69 381.68 118.13"/><polygon class="cls-19" points="400.95 107.01 400.95 118.13 391.32 123.69 391.32 112.57 400.95 107.01"/><polygon class="cls-20" points="387.03 107.69 385.97 107.08 385.97 105.87 387.03 106.48 387.03 107.69"/><polygon class="cls-21" points="388.09 107.08 387.03 107.69 387.03 106.48 388.08 105.87 388.09 107.08"/><polygon class="cls-22" points="387.03 106.48 385.97 105.87 387.02 105.26 388.08 105.87 387.03 106.48"/><polygon class="cls-20" points="391.32 103.87 390.26 103.26 390.26 102.05 391.32 102.66 391.32 103.87"/><polygon class="cls-21" points="392.37 103.26 391.32 103.87 391.32 102.66 392.37 102.06 392.37 103.26"/><polygon class="cls-22" points="391.31 102.66 390.26 102.05 391.31 101.45 392.37 102.06 391.31 102.66"/><polygon class="cls-20" points="396.13 108.6 395.07 107.99 395.07 106.78 396.13 107.39 396.13 108.6"/><polygon class="cls-21" points="397.19 107.99 396.13 108.6 396.13 107.39 397.18 106.78 397.19 107.99"/><polygon class="cls-22" points="396.13 107.39 395.07 106.78 396.12 106.17 397.18 106.78 396.13 107.39"/><polygon class="cls-20" points="392.9 111.03 391.85 110.42 391.85 109.2 392.9 109.81 392.9 111.03"/><polygon class="cls-21" points="393.96 110.42 392.9 111.03 392.9 109.81 393.95 109.21 393.96 110.42"/><polygon class="cls-22" points="392.9 109.81 391.85 109.2 392.89 108.6 393.95 109.21 392.9 109.81"/><polygon class="cls-20" points="382.74 110.42 381.68 109.81 381.68 108.59 382.74 109.2 382.74 110.42"/><polygon class="cls-21" points="383.8 109.81 382.74 110.42 382.74 109.2 383.79 108.6 383.8 109.81"/><polygon class="cls-22" points="382.74 109.21 381.68 108.6 382.73 107.99 383.79 108.6 382.74 109.21"/><polygon class="cls-20" points="388.56 116.17 387.5 115.56 387.5 114.35 388.56 114.96 388.56 116.17"/><polygon class="cls-21" points="389.62 115.56 388.56 116.17 388.56 114.96 389.61 114.36 389.62 115.56"/><polygon class="cls-22" points="388.56 114.96 387.5 114.35 388.55 113.75 389.61 114.36 388.56 114.96"/><polygon class="cls-20" points="383.8 115.77 382.74 115.16 382.74 113.95 383.8 114.56 383.8 115.77"/><polygon class="cls-21" points="384.86 115.16 383.8 115.77 383.8 114.56 384.85 113.96 384.86 115.16"/><polygon class="cls-22" points="383.8 114.56 382.74 113.95 383.79 113.35 384.85 113.96 383.8 114.56"/><polygon class="cls-20" points="386.5 120.11 385.44 119.5 385.44 118.29 386.5 118.9 386.5 120.11"/><polygon class="cls-21" points="387.56 119.5 386.5 120.11 386.5 118.9 387.55 118.3 387.56 119.5"/><polygon class="cls-22" points="386.5 118.9 385.44 118.29 386.49 117.69 387.55 118.3 386.5 118.9"/><polygon class="cls-20" points="394.33 121.03 393.28 120.42 393.28 119.2 394.33 119.81 394.33 121.03"/><polygon class="cls-21" points="395.39 120.42 394.34 121.03 394.34 119.81 395.38 119.21 395.39 120.42"/><polygon class="cls-22" points="394.33 119.81 393.28 119.2 394.33 118.6 395.38 119.21 394.33 119.81"/><polygon class="cls-20" points="399.45 113.35 398.39 112.74 398.39 111.53 399.45 112.14 399.45 113.35"/><polygon class="cls-21" points="400.5 112.74 399.45 113.35 399.45 112.14 400.5 111.53 400.5 112.74"/><polygon class="cls-22" points="399.45 112.14 398.39 111.53 399.44 110.92 400.5 111.53 399.45 112.14"/><polygon class="cls-20" points="393.81 115.17 392.75 114.56 392.75 113.35 393.81 113.96 393.81 115.17"/><polygon class="cls-21" points="394.86 114.56 393.81 115.17 393.81 113.96 394.86 113.36 394.86 114.56"/><polygon class="cls-22" points="393.81 113.96 392.75 113.35 393.8 112.75 394.86 113.36 393.81 113.96"/><polygon class="cls-20" points="398.92 118.6 397.86 117.99 397.86 116.78 398.92 117.39 398.92 118.6"/><polygon class="cls-21" points="399.98 117.99 398.92 118.6 398.92 117.39 399.97 116.79 399.98 117.99"/><polygon class="cls-22" points="398.92 117.39 397.86 116.78 398.91 116.18 399.97 116.79 398.92 117.39"/><polygon class="cls-21" points="396.66 120.61 391.32 123.69 385.97 120.61 385.97 131.73 391.32 134.82 396.66 131.73 396.66 120.61"/><polygon class="cls-20" points="391.32 134.82 391.32 123.69 385.97 120.61 385.97 131.73 391.32 134.82"/><polygon class="cls-17" points="474.91 157.19 484.55 151.63 494.18 157.19 484.55 162.75 474.91 157.19"/><polygon class="cls-18" points="474.91 168.31 474.91 157.19 484.55 162.75 484.55 173.87 474.91 168.31"/><polygon class="cls-19" points="494.18 157.19 494.18 168.31 484.55 173.87 484.55 162.75 494.18 157.19"/><polygon class="cls-20" points="480.26 157.87 479.2 157.26 479.2 156.05 480.26 156.66 480.26 157.87"/><polygon class="cls-21" points="481.32 157.26 480.26 157.87 480.26 156.66 481.31 156.05 481.32 157.26"/><polygon class="cls-22" points="480.26 156.66 479.2 156.05 480.25 155.44 481.31 156.05 480.26 156.66"/><polygon class="cls-20" points="484.55 154.05 483.49 153.44 483.49 152.23 484.55 152.84 484.55 154.05"/><polygon class="cls-21" points="485.6 153.44 484.55 154.05 484.55 152.84 485.59 152.24 485.6 153.44"/><polygon class="cls-22" points="484.54 152.84 483.49 152.23 484.54 151.63 485.59 152.24 484.54 152.84"/><polygon class="cls-20" points="489.36 158.78 488.31 158.17 488.31 156.96 489.36 157.57 489.36 158.78"/><polygon class="cls-21" points="490.42 158.17 489.36 158.78 489.36 157.57 490.41 156.96 490.42 158.17"/><polygon class="cls-22" points="489.36 157.57 488.3 156.96 489.35 156.35 490.41 156.96 489.36 157.57"/><polygon class="cls-20" points="486.13 161.21 485.07 160.59 485.07 159.38 486.13 159.99 486.13 161.21"/><polygon class="cls-21" points="487.19 160.59 486.13 161.21 486.13 159.99 487.18 159.39 487.19 160.59"/><polygon class="cls-22" points="486.13 160 485.07 159.38 486.12 158.78 487.18 159.39 486.13 160"/><polygon class="cls-20" points="475.97 160.6 474.91 159.99 474.91 158.78 475.97 159.38 475.97 160.6"/><polygon class="cls-21" points="477.03 159.99 475.97 160.6 475.97 159.38 477.02 158.78 477.03 159.99"/><polygon class="cls-22" points="475.97 159.39 474.91 158.78 475.96 158.17 477.02 158.78 475.97 159.39"/><polygon class="cls-20" points="481.79 166.35 480.73 165.74 480.73 164.53 481.79 165.14 481.79 166.35"/><polygon class="cls-21" points="482.84 165.74 481.79 166.35 481.79 165.14 482.83 164.54 482.84 165.74"/><polygon class="cls-22" points="481.79 165.14 480.73 164.53 481.78 163.93 482.83 164.54 481.79 165.14"/><polygon class="cls-20" points="477.03 165.95 475.97 165.34 475.97 164.13 477.03 164.74 477.03 165.95"/><polygon class="cls-21" points="478.08 165.34 477.03 165.95 477.03 164.74 478.08 164.14 478.08 165.34"/><polygon class="cls-22" points="477.03 164.74 475.97 164.13 477.02 163.53 478.08 164.14 477.03 164.74"/><polygon class="cls-20" points="479.73 170.29 478.67 169.68 478.67 168.47 479.73 169.08 479.73 170.29"/><polygon class="cls-21" points="480.79 169.68 479.73 170.29 479.73 169.08 480.78 168.48 480.79 169.68"/><polygon class="cls-22" points="479.73 169.08 478.67 168.47 479.72 167.87 480.78 168.48 479.73 169.08"/><polygon class="cls-20" points="487.56 171.21 486.51 170.59 486.51 169.38 487.56 169.99 487.56 171.21"/><polygon class="cls-21" points="488.62 170.59 487.56 171.21 487.56 169.99 488.61 169.39 488.62 170.59"/><polygon class="cls-22" points="487.56 170 486.51 169.38 487.56 168.78 488.61 169.39 487.56 170"/><polygon class="cls-20" points="492.68 163.53 491.62 162.92 491.62 161.71 492.68 162.32 492.68 163.53"/><polygon class="cls-21" points="493.73 162.92 492.68 163.53 492.68 162.32 493.73 161.71 493.73 162.92"/><polygon class="cls-22" points="492.68 162.32 491.62 161.71 492.67 161.1 493.73 161.71 492.68 162.32"/><polygon class="cls-20" points="487.04 165.35 485.98 164.74 485.98 163.53 487.04 164.14 487.04 165.35"/><polygon class="cls-21" points="488.09 164.74 487.04 165.35 487.04 164.14 488.08 163.54 488.09 164.74"/><polygon class="cls-22" points="487.04 164.14 485.98 163.53 487.03 162.93 488.08 163.54 487.04 164.14"/><polygon class="cls-20" points="492.15 168.78 491.09 168.17 491.09 166.96 492.15 167.57 492.15 168.78"/><polygon class="cls-21" points="493.2 168.17 492.15 168.78 492.15 167.57 493.2 166.97 493.2 168.17"/><polygon class="cls-22" points="492.15 167.57 491.09 166.96 492.14 166.36 493.2 166.97 492.15 167.57"/><polygon class="cls-21" points="489.89 170.79 484.55 173.87 479.2 170.79 479.2 181.91 484.55 185 489.89 181.91 489.89 170.79"/><polygon class="cls-20" points="484.55 185 484.55 173.87 479.2 170.79 479.2 181.91 484.55 185"/><polygon class="cls-17" points="294.28 154.23 303.91 148.66 313.55 154.23 303.91 159.79 294.28 154.23"/><polygon class="cls-18" points="294.28 165.35 294.28 154.23 303.91 159.79 303.91 170.91 294.28 165.35"/><polygon class="cls-19" points="313.55 154.23 313.55 165.35 303.91 170.91 303.91 159.79 313.55 154.23"/><polygon class="cls-20" points="299.63 154.91 298.57 154.3 298.57 153.09 299.63 153.7 299.63 154.91"/><polygon class="cls-21" points="300.68 154.3 299.63 154.91 299.63 153.7 300.68 153.09 300.68 154.3"/><polygon class="cls-22" points="299.63 153.7 298.57 153.09 299.62 152.48 300.68 153.09 299.63 153.7"/><polygon class="cls-20" points="303.91 151.09 302.86 150.48 302.86 149.27 303.91 149.88 303.91 151.09"/><polygon class="cls-21" points="304.97 150.48 303.92 151.09 303.92 149.88 304.96 149.28 304.97 150.48"/><polygon class="cls-22" points="303.91 149.88 302.86 149.27 303.9 148.66 304.96 149.28 303.91 149.88"/><polygon class="cls-20" points="308.73 155.82 307.67 155.21 307.67 154 308.73 154.61 308.73 155.82"/><polygon class="cls-21" points="309.79 155.21 308.73 155.82 308.73 154.61 309.78 154 309.79 155.21"/><polygon class="cls-22" points="308.73 154.61 307.67 154 308.72 153.39 309.78 154 308.73 154.61"/><polygon class="cls-20" points="305.5 158.25 304.44 157.63 304.44 156.42 305.5 157.03 305.5 158.25"/><polygon class="cls-21" points="306.56 157.63 305.5 158.25 305.5 157.03 306.55 156.43 306.56 157.63"/><polygon class="cls-22" points="305.5 157.03 304.44 156.43 305.49 155.82 306.55 156.43 305.5 157.03"/><polygon class="cls-20" points="295.34 157.64 294.28 157.03 294.28 155.81 295.34 156.43 295.34 157.64"/><polygon class="cls-21" points="296.4 157.03 295.34 157.64 295.34 156.43 296.39 155.82 296.4 157.03"/><polygon class="cls-22" points="295.34 156.43 294.28 155.82 295.33 155.21 296.39 155.82 295.34 156.43"/><polygon class="cls-20" points="301.15 163.39 300.1 162.78 300.1 161.57 301.15 162.18 301.15 163.39"/><polygon class="cls-21" points="302.21 162.78 301.16 163.39 301.16 162.18 302.2 161.58 302.21 162.78"/><polygon class="cls-22" points="301.15 162.18 300.1 161.57 301.15 160.97 302.2 161.58 301.15 162.18"/><polygon class="cls-20" points="296.4 162.99 295.34 162.38 295.34 161.17 296.4 161.78 296.4 162.99"/><polygon class="cls-21" points="297.45 162.38 296.4 162.99 296.4 161.78 297.44 161.18 297.45 162.38"/><polygon class="cls-22" points="296.39 161.78 295.34 161.17 296.39 160.57 297.44 161.18 296.39 161.78"/><polygon class="cls-20" points="299.1 167.33 298.04 166.72 298.04 165.51 299.1 166.12 299.1 167.33"/><polygon class="cls-21" points="300.15 166.72 299.1 167.33 299.1 166.12 300.15 165.52 300.15 166.72"/><polygon class="cls-22" points="299.1 166.12 298.04 165.51 299.09 164.91 300.15 165.52 299.1 166.12"/><polygon class="cls-20" points="306.93 168.25 305.88 167.63 305.88 166.42 306.93 167.03 306.93 168.25"/><polygon class="cls-21" points="307.99 167.63 306.93 168.25 306.93 167.03 307.98 166.43 307.99 167.63"/><polygon class="cls-22" points="306.93 167.03 305.88 166.43 306.92 165.82 307.98 166.43 306.93 167.03"/><polygon class="cls-20" points="312.04 160.57 310.99 159.96 310.99 158.75 312.04 159.36 312.04 160.57"/><polygon class="cls-21" points="313.1 159.96 312.05 160.57 312.05 159.36 313.09 158.75 313.1 159.96"/><polygon class="cls-22" points="312.04 159.36 310.99 158.75 312.04 158.14 313.09 158.75 312.04 159.36"/><polygon class="cls-20" points="306.4 162.39 305.35 161.78 305.35 160.57 306.4 161.18 306.4 162.39"/><polygon class="cls-21" points="307.46 161.78 306.4 162.39 306.4 161.18 307.45 160.58 307.46 161.78"/><polygon class="cls-22" points="306.4 161.18 305.35 160.57 306.4 159.97 307.45 160.58 306.4 161.18"/><polygon class="cls-20" points="311.52 165.82 310.46 165.21 310.46 164 311.52 164.61 311.52 165.82"/><polygon class="cls-21" points="312.57 165.21 311.52 165.82 311.52 164.61 312.56 164.01 312.57 165.21"/><polygon class="cls-22" points="311.51 164.61 310.46 164 311.51 163.4 312.56 164.01 311.51 164.61"/><polygon class="cls-21" points="309.26 167.83 303.91 170.91 298.57 167.83 298.57 178.95 303.91 182.04 309.26 178.95 309.26 167.83"/><polygon class="cls-20" points="303.91 182.04 303.91 170.91 298.57 167.83 298.57 178.95 303.91 182.04"/><polygon class="cls-11" points="402.97 148.27 402.97 121.36 379.66 134.82 402.97 148.27"/><polygon class="cls-11" points="495.61 206.35 499.26 208.46 495.61 210.57 499.26 212.68 495.61 214.79 499.26 216.9 495.61 219.01 491.96 216.9 488.3 219.01 484.65 216.9 481 219.01 477.34 216.9 481 214.79 477.34 212.68 481 210.57 477.34 208.46 481 206.35 484.65 208.46 488.3 206.35 491.96 208.46 495.61 206.35"/><polygon class="cls-4" points="477.34 216.9 477.34 221.12 481 223.23 484.65 221.12 488.3 223.23 491.96 221.12 495.61 223.23 499.26 221.12 499.26 216.9 495.61 219.01 491.96 216.9 488.3 219.01 484.65 216.9 481 219.01 477.34 216.9"/><polygon class="cls-4" points="477.34 212.68 481 214.79 477.34 216.9 477.34 212.68"/><polygon class="cls-4" points="477.34 208.46 481 210.57 477.34 212.68 477.34 208.46"/><polygon class="cls-5" points="499.26 212.68 499.26 216.9 495.61 214.79 499.26 212.68"/><polygon class="cls-5" points="499.26 208.46 499.26 212.68 495.61 210.57 499.26 208.46"/><polygon class="cls-5" points="481 219.01 481 223.23 484.65 221.12 484.65 216.9 481 219.01"/><polygon class="cls-5" points="488.3 219.01 488.3 223.23 491.96 221.12 491.96 216.9 488.3 219.01"/><polygon class="cls-5" points="495.61 219.01 495.61 223.23 499.26 221.12 499.26 216.9 495.61 219.01"/><polygon class="cls-23" points="484.65 212.68 488.3 210.57 491.96 212.68 495.61 210.57 491.96 208.46 495.61 206.35 491.96 204.25 488.3 206.35 484.65 204.25 481 206.35 484.65 208.46 481 210.57 484.65 212.68"/><polygon class="cls-24" points="481 214.79 481 210.57 484.65 212.68 484.65 216.9 481 214.79"/><polygon class="cls-24" points="488.3 210.57 488.3 214.79 491.96 216.9 491.96 212.68 488.3 210.57"/><polygon class="cls-24" points="481 206.35 481 210.57 484.65 208.46 481 206.35"/><polygon class="cls-25" points="488.3 210.57 488.3 214.79 484.65 216.9 484.65 212.68 488.3 210.57"/><polygon class="cls-25" points="491.96 212.68 495.61 210.57 495.61 214.79 491.96 216.9 491.96 212.68"/><polygon class="cls-25" points="495.61 206.35 495.61 210.57 491.96 208.46 495.61 206.35"/><polygon class="cls-11" points="363.66 242.29 367.32 244.4 363.66 246.51 367.32 248.62 363.66 250.73 367.32 252.84 363.66 254.95 360.01 252.84 356.36 254.95 352.7 252.84 349.05 254.95 345.39 252.84 349.05 250.73 345.39 248.62 349.05 246.51 345.39 244.4 349.05 242.29 352.7 244.4 356.35 242.29 360.01 244.4 363.66 242.29"/><polygon class="cls-4" points="345.39 252.84 345.39 257.06 349.05 259.17 352.7 257.06 356.35 259.17 360.01 257.06 363.66 259.17 367.32 257.06 367.32 252.84 363.66 254.95 360.01 252.84 356.36 254.95 352.7 252.84 349.05 254.95 345.39 252.84"/><polygon class="cls-4" points="345.39 248.62 349.05 250.73 345.39 252.84 345.39 248.62"/><polygon class="cls-4" points="345.39 244.4 349.05 246.51 345.39 248.62 345.39 244.4"/><polygon class="cls-5" points="367.32 248.62 367.32 252.84 363.66 250.73 367.32 248.62"/><polygon class="cls-5" points="367.32 244.4 367.32 248.62 363.66 246.51 367.32 244.4"/><polygon class="cls-5" points="349.05 254.95 349.05 259.17 352.7 257.06 352.7 252.84 349.05 254.95"/><polygon class="cls-5" points="356.36 254.95 356.35 259.17 360.01 257.06 360.01 252.84 356.36 254.95"/><polygon class="cls-5" points="363.66 254.95 363.66 259.17 367.32 257.06 367.32 252.84 363.66 254.95"/><polygon class="cls-23" points="352.7 248.62 356.35 246.51 360.01 248.62 363.66 246.51 360.01 244.4 363.66 242.29 360.01 240.18 356.36 242.29 352.7 240.18 349.05 242.29 352.7 244.4 349.05 246.51 352.7 248.62"/><polygon class="cls-24" points="349.05 250.73 349.05 246.51 352.7 248.62 352.7 252.84 349.05 250.73"/><polygon class="cls-24" points="356.35 246.51 356.35 250.73 360.01 252.84 360.01 248.62 356.35 246.51"/><polygon class="cls-24" points="349.05 242.29 349.05 246.51 352.7 244.4 349.05 242.29"/><polygon class="cls-25" points="356.35 246.51 356.35 250.73 352.7 252.84 352.7 248.62 356.35 246.51"/><polygon class="cls-25" points="360.01 248.62 363.66 246.51 363.66 250.73 360.01 252.84 360.01 248.62"/><polygon class="cls-25" points="363.66 242.29 363.66 246.51 360.01 244.4 363.66 242.29"/><polygon class="cls-11" points="408.26 147.52 411.91 149.63 408.26 151.74 411.91 153.85 408.26 155.96 411.91 158.07 408.26 160.18 404.6 158.07 400.95 160.18 397.3 158.07 393.64 160.18 389.99 158.07 393.64 155.96 389.99 153.85 393.64 151.74 389.99 149.63 393.64 147.53 397.3 149.63 400.95 147.53 404.6 149.63 408.26 147.52"/><polygon class="cls-4" points="389.99 158.07 389.99 162.29 393.64 164.4 397.3 162.29 400.95 164.4 404.6 162.29 408.26 164.4 411.91 162.29 411.91 158.07 408.26 160.18 404.6 158.07 400.95 160.18 397.3 158.07 393.64 160.18 389.99 158.07"/><polygon class="cls-4" points="389.99 153.85 393.64 155.96 389.99 158.07 389.99 153.85"/><polygon class="cls-4" points="389.99 149.63 393.64 151.74 389.99 153.85 389.99 149.63"/><polygon class="cls-5" points="411.91 153.85 411.91 158.07 408.26 155.96 411.91 153.85"/><polygon class="cls-5" points="411.91 149.63 411.91 153.85 408.26 151.74 411.91 149.63"/><polygon class="cls-5" points="393.64 160.18 393.64 164.4 397.3 162.29 397.3 158.07 393.64 160.18"/><polygon class="cls-5" points="400.95 160.18 400.95 164.4 404.6 162.29 404.6 158.07 400.95 160.18"/><polygon class="cls-5" points="408.26 160.18 408.26 164.4 411.91 162.29 411.91 158.07 408.26 160.18"/><polygon class="cls-23" points="397.3 153.85 400.95 151.74 404.6 153.85 408.26 151.74 404.6 149.63 408.26 147.52 404.6 145.41 400.95 147.52 397.3 145.41 393.64 147.52 397.3 149.63 393.64 151.74 397.3 153.85"/><polygon class="cls-24" points="393.64 155.96 393.64 151.74 397.3 153.85 397.3 158.07 393.64 155.96"/><polygon class="cls-24" points="400.95 151.74 400.95 155.96 404.6 158.07 404.6 153.85 400.95 151.74"/><polygon class="cls-24" points="393.64 147.52 393.64 151.74 397.3 149.63 393.64 147.52"/><polygon class="cls-25" points="400.95 151.74 400.95 155.96 397.3 158.07 397.3 153.85 400.95 151.74"/><polygon class="cls-25" points="404.6 153.85 408.26 151.74 408.26 155.96 404.6 158.07 404.6 153.85"/><polygon class="cls-25" points="408.26 147.52 408.26 151.74 404.6 149.63 408.26 147.52"/><polygon class="cls-11" points="467.85 113.64 471.51 115.75 467.85 117.86 471.51 119.97 467.85 122.08 471.51 124.19 467.85 126.3 464.2 124.19 460.55 126.3 456.89 124.19 453.24 126.3 449.58 124.19 453.24 122.08 449.58 119.97 453.24 117.86 449.58 115.75 453.24 113.64 456.89 115.75 460.54 113.64 464.2 115.75 467.85 113.64"/><polygon class="cls-4" points="449.58 124.19 449.58 128.41 453.24 130.52 456.89 128.41 460.54 130.52 464.2 128.41 467.85 130.52 471.51 128.41 471.51 124.19 467.85 126.3 464.2 124.19 460.55 126.3 456.89 124.19 453.24 126.3 449.58 124.19"/><polygon class="cls-4" points="449.58 119.97 453.24 122.08 449.58 124.19 449.58 119.97"/><polygon class="cls-4" points="449.58 115.75 453.24 117.86 449.58 119.97 449.58 115.75"/><polygon class="cls-5" points="471.51 119.97 471.51 124.19 467.85 122.08 471.51 119.97"/><polygon class="cls-5" points="471.51 115.75 471.51 119.97 467.85 117.86 471.51 115.75"/><polygon class="cls-5" points="453.24 126.3 453.24 130.52 456.89 128.41 456.89 124.19 453.24 126.3"/><polygon class="cls-5" points="460.55 126.3 460.54 130.52 464.2 128.41 464.2 124.19 460.55 126.3"/><polygon class="cls-5" points="467.85 126.3 467.85 130.52 471.51 128.41 471.51 124.19 467.85 126.3"/><polygon class="cls-23" points="456.89 119.97 460.54 117.86 464.2 119.97 467.85 117.86 464.2 115.75 467.85 113.64 464.2 111.53 460.55 113.64 456.89 111.53 453.24 113.64 456.89 115.75 453.24 117.86 456.89 119.97"/><polygon class="cls-24" points="453.24 122.08 453.24 117.86 456.89 119.97 456.89 124.19 453.24 122.08"/><polygon class="cls-24" points="460.54 117.86 460.54 122.08 464.2 124.19 464.2 119.97 460.54 117.86"/><polygon class="cls-24" points="453.24 113.64 453.24 117.86 456.89 115.75 453.24 113.64"/><polygon class="cls-25" points="460.54 117.86 460.54 122.08 456.89 124.19 456.89 119.97 460.54 117.86"/><polygon class="cls-25" points="464.2 119.97 467.85 117.86 467.85 122.08 464.2 124.19 464.2 119.97"/><polygon class="cls-25" points="467.85 113.64 467.85 117.86 464.2 115.75 467.85 113.64"/><polygon class="cls-11" points="327.53 101.82 331.18 103.93 327.53 106.04 331.18 108.15 327.53 110.26 331.18 112.37 327.53 114.48 323.87 112.37 320.22 114.48 316.57 112.37 312.91 114.48 309.26 112.37 312.91 110.26 309.26 108.15 312.91 106.04 309.26 103.93 312.92 101.82 316.57 103.93 320.22 101.82 323.87 103.93 327.53 101.82"/><polygon class="cls-4" points="309.26 112.37 309.26 116.59 312.92 118.7 316.57 116.59 320.22 118.7 323.87 116.59 327.53 118.7 331.18 116.59 331.18 112.37 327.53 114.48 323.87 112.37 320.22 114.48 316.57 112.37 312.91 114.48 309.26 112.37"/><polygon class="cls-4" points="309.26 108.15 312.91 110.26 309.26 112.37 309.26 108.15"/><polygon class="cls-4" points="309.26 103.93 312.91 106.04 309.26 108.15 309.26 103.93"/><polygon class="cls-5" points="331.18 108.15 331.18 112.37 327.53 110.26 331.18 108.15"/><polygon class="cls-5" points="331.18 103.93 331.18 108.15 327.53 106.04 331.18 103.93"/><polygon class="cls-5" points="312.91 114.48 312.92 118.7 316.57 116.59 316.57 112.37 312.91 114.48"/><polygon class="cls-5" points="320.22 114.48 320.22 118.7 323.87 116.59 323.87 112.37 320.22 114.48"/><polygon class="cls-5" points="327.53 114.48 327.53 118.7 331.18 116.59 331.18 112.37 327.53 114.48"/><polygon class="cls-23" points="316.57 108.15 320.22 106.04 323.87 108.15 327.53 106.04 323.87 103.93 327.53 101.82 323.87 99.71 320.22 101.82 316.57 99.71 312.91 101.82 316.57 103.93 312.91 106.04 316.57 108.15"/><polygon class="cls-24" points="312.91 110.26 312.91 106.04 316.57 108.15 316.57 112.37 312.91 110.26"/><polygon class="cls-24" points="320.22 106.04 320.22 110.26 323.87 112.37 323.87 108.15 320.22 106.04"/><polygon class="cls-24" points="312.91 101.82 312.91 106.04 316.57 103.93 312.91 101.82"/><polygon class="cls-25" points="320.22 106.04 320.22 110.26 316.57 112.37 316.57 108.15 320.22 106.04"/><polygon class="cls-25" points="323.87 108.15 327.53 106.04 327.53 110.26 323.87 112.37 323.87 108.15"/><polygon class="cls-25" points="327.53 101.82 327.53 106.04 323.87 103.93 327.53 101.82"/><polygon class="cls-4" points="382.31 264.78 382.28 260.53 389.64 260.55 389.67 264.8 382.31 264.78"/><polygon class="cls-4" points="320.21 203.87 320.18 199.62 327.54 199.63 327.57 203.88 320.21 203.87"/><polygon class="cls-4" points="449.57 234.5 449.55 230.26 456.9 230.27 456.93 234.52 449.57 234.5"/><polygon class="cls-4" points="424.64 147.53 424.61 143.28 431.97 143.3 432 147.55 424.64 147.53"/><polygon class="cls-4" points="436 113.73 435.97 109.48 443.33 109.5 443.36 113.75 436 113.73"/><polygon class="cls-4" points="314.73 163.22 314.7 158.97 322.06 158.99 322.09 163.24 314.73 163.22"/><polygon class="cls-4" points="349.04 165.65 349.01 161.4 356.37 161.42 356.39 165.67 349.04 165.65"/><polygon class="cls-4" points="356.34 113.73 356.32 109.48 363.68 109.5 363.7 113.75 356.34 113.73"/><polygon class="cls-4" points="399.62 239.86 394.4 236.84 399.58 233.85 404.81 236.87 399.62 239.86"/><polygon class="cls-4" points="322.11 261.79 316.88 258.78 322.07 255.78 327.29 258.8 322.11 261.79"/><polygon class="cls-4" points="300.18 201.75 294.95 198.74 300.14 195.74 305.36 198.76 300.18 201.75"/><polygon class="cls-4" points="475.46 237.04 470.24 234.03 475.42 231.03 480.64 234.05 475.46 237.04"/><polygon class="cls-4" points="444.22 275.4 439 272.39 444.18 269.39 449.4 272.41 444.22 275.4"/><polygon class="cls-4" points="516.45 173.92 511.23 170.9 516.41 167.91 521.64 170.93 516.45 173.92"/><polygon class="cls-4" points="459.45 211.84 454.23 208.82 459.41 205.83 464.63 208.85 459.45 211.84"/><polygon class="cls-4" points="338.89 102.71 333.67 99.7 338.86 96.7 344.08 99.72 338.89 102.71"/><polygon class="cls-4" points="314.76 137.82 309.54 134.81 314.72 131.81 319.94 134.83 314.76 137.82"/><polygon class="cls-4" points="462.39 151.28 457.17 148.26 462.35 145.27 467.57 148.29 462.39 151.28"/><polygon class="cls-4" points="411.93 118.75 406.71 115.74 411.89 112.75 417.11 115.76 411.93 118.75"/><polygon class="cls-4" points="379.68 150.53 374.46 147.51 379.64 144.52 384.87 147.53 379.68 150.53"/><polygon class="cls-15" points="519.51 287.65 519.51 269.14 506.38 276.97 519.51 296.31 519.51 287.65"/><path class="cls-15" d="M478.92,365.41c2.33,1.43,3.77,4.36,3.77,8.52,0,8.52-6,18.91-13.46,23.2a12.22,12.22,0,0,1-6,1.83c2.45,1.5,5.88,1.34,9.69-.86,7.44-4.29,13.46-14.68,13.46-23.2C486.35,368.86,483.32,365.4,478.92,365.41Z"/><path class="cls-9" d="M482.69,373.93c0-4.16-1.44-7.09-3.77-8.52a12.22,12.22,0,0,0-6,1.83c-7.43,4.29-13.46,14.68-13.46,23.2,0,4.16,1.44,7.09,3.77,8.52a12.22,12.22,0,0,0,6-1.83C476.66,392.84,482.69,382.45,482.69,373.93Z"/><path class="cls-26" d="M476.93,379.29a8.86,8.86,0,0,1-2.54,3.06,2.3,2.3,0,0,1-2.55-.12,8.72,8.72,0,0,1,2.55-3.06A2.27,2.27,0,0,1,476.93,379.29Z"/><path class="cls-26" d="M470.28,383.13a8.86,8.86,0,0,1-2.54,3.06,2.3,2.3,0,0,1-2.55-.12,8.72,8.72,0,0,1,2.55-3.06A2.27,2.27,0,0,1,470.28,383.13Z"/><polygon class="cls-9" points="466.48 399.94 464.72 398.83 466.93 398.23 469.27 399.62 466.48 399.94"/><polygon class="cls-9" points="466.48 399.94 466.48 424.64 469.27 423.02 469.27 399.62 466.48 399.94"/><polygon class="cls-9" points="478.58 393.37 475.67 391.53 476.69 390.23 479.71 392.03 478.58 393.37"/><polygon class="cls-9" points="472.97 398.05 470.38 396.41 471.81 395.36 474.58 397.01 472.97 398.05"/><polygon class="cls-9" points="479.71 392.03 479.71 425.57 478.65 426.2 478.58 393.37 479.71 392.03"/><polygon class="cls-9" points="474.56 397.01 474.56 409.78 472.88 410.72 472.88 398.1 474.56 397.01"/><ellipse class="cls-9" cx="479.18" cy="425.9" rx="0.74" ry="0.43" transform="translate(-130.51 624.1) rotate(-59.64)"/><path class="cls-9" d="M474.56,409.78a1.85,1.85,0,0,1-.83,1.46c-.47.26-.85.05-.85-.48a1.86,1.86,0,0,1,.85-1.46C474.2,409,474.56,409.25,474.56,409.78Z"/><path class="cls-9" d="M469.26,423a3.07,3.07,0,0,1-1.39,2.42c-.77.44-1.4.09-1.4-.8a3.07,3.07,0,0,1,1.4-2.41C468.65,421.78,469.26,422.14,469.26,423Z"/><path class="cls-10" d="M461.05,368.42s0-.05,0-.05v-.56s0-.05,0-.08v-.05s0-.07,0-.09,0-.27,0-.41v-.1a.11.11,0,0,1,0-.05,2,2,0,0,1,0-.48h0v-.3l0-.05v-.27l0-.19c0-.12,0-.25,0-.39l0,0c0-.1,0-.23,0-.35s0-.2-.06-.18h0a.26.26,0,0,0,0,.08s0-.08,0-.12a2.57,2.57,0,0,1,.74-1.26,2.22,2.22,0,0,1,.81-.53l.16-.05.15,0h0c.28-.05.22.18.3.38l0,0v.42c-.06.18-.07.37-.14.55s-.09.29-.12.35-.11.36-.18.54c-.15.33-.32.65-.49,1h0c0,.12.06.08.12.1l0,0s.13,0,.15.06l0,0v0l.06,0h0a.41.41,0,0,0,.17.12.11.11,0,0,0,.06,0s0,.1.07.1h0s.09.08.11.08h.05l.07.11v0s.14.07.1.14.23.18.24.31a.42.42,0,0,1-.07.24l-.1,0s0,.1-.16.15h0s-.06,0-.08,0h0a.23.23,0,0,1-.07.07h0c-.15.07-.14,0-.23,0l-.06,0a1,1,0,0,1-.5-.18.38.38,0,0,1-.12-.1c-.08-.05-.05-.1-.15-.07s-.12-.17-.15-.17-.11-.23-.19-.2a5.36,5.36,0,0,1-.26,1.64l0,0h0a2,2,0,0,1-.14.25s-.15.12-.16.12l0,0c-.06,0-.09-.31-.13-.36Zm.85-2.29s0,0,0,0a2.52,2.52,0,0,0,.27-.57l.2-.42a.64.64,0,0,1,0-.07l.12-.24s0,0,0,0,.09-.3.15-.43h0a2,2,0,0,0,.13-.72c0-.28-.26-.24-.41-.17a1,1,0,0,0-.47.4l0,0v0s0,.05,0,.09a5.17,5.17,0,0,0,.09.74v0s0,0,0,.07,0,.13,0,.15v.31l0,.08a.59.59,0,0,1,0,.13h0l0,0s0,0,0,0l0,.08v0a0,0,0,0,1,0,0l0,0,0,0V366l0,.05S461.88,366.12,461.9,366.13Zm.25.62s0,0,0,0,0,0,0,0h0c0-.08-.09-.16-.14-.14h0s0,0,0,0h0S462.12,366.76,462.15,366.75Z"/><path class="cls-10" d="M465.46,365.5l0,0h0c.06,0,.11-.13.15-.17h0a.1.1,0,0,1,.09,0,3.46,3.46,0,0,1-.76,1.26l-.55.44-.13.1c-.42.2-.51-.36-.62-.57V366l0,0v-.56s0-.08,0-.1l0-.09v0a12.54,12.54,0,0,0,.19-1.45,1.67,1.67,0,0,1,.06-.26,1.83,1.83,0,0,0,0-.45l-.11.05a2,2,0,0,1,.07-.23s-.15,0-.15,0,.32-.38.4-.53v-.09l.05-.1v.17a.32.32,0,0,0,.09-.08c0-.1,0-.28.13-.35v.26c.07-.06.07-.27.08-.3l.06,0h0a.43.43,0,0,0,0,.07s.07,0,.08,0,0,.05,0,.06h0a3.36,3.36,0,0,1,1.09-.7c.05,0,.18,0,.19.07s0,.09,0,.09v0l0,.06a.42.42,0,0,1,0,.1,6.17,6.17,0,0,0-1.24,1,11.74,11.74,0,0,1-.1,1.18s0,.06,0,.06a2.71,2.71,0,0,1,.79-.5c.14-.06.19,0,.18.09a.24.24,0,0,1-.05.16,5.47,5.47,0,0,1-1,.71l0,.06-.05.4s0,0,.07,0,0,.11,0,.12,0,0,0,.09a.61.61,0,0,1,0,.11s0,.06,0,.05l0,0v.8a1.59,1.59,0,0,0,0,.27s.06.24.11.21Zm-1.23-2.57,0,.25,0,0s0-.07,0-.09a1,1,0,0,0,0-.15l0,0h0l0,0,0,0S464.23,362.91,464.23,362.93Z"/><path class="cls-10" d="M466,364.57l0-.08v0h0s0-.6.07-.76,0-.57.05-.87a2,2,0,0,0,.08-.4s0,0,0,0,0,0,0,0v-.13l-.14.08s0-.05,0-.11a2.13,2.13,0,0,1,.3-.84c.06-.15.05-.17.16-.25a2.27,2.27,0,0,0,.26-.27l.06-.05a4,4,0,0,1,.87-.62c.27-.12.47-.15.65,0,0,0,.07,0,.05,0a1.41,1.41,0,0,1,.26,1s0,0,0,.05a6.89,6.89,0,0,1-.1.76,7.19,7.19,0,0,1-.54,1.79,5.77,5.77,0,0,1-1,1.64l0,.05-.41.3h0a.18.18,0,0,1-.1,0h0l-.2.13c-.16,0-.19-.72-.19-.91S466,364.74,466,364.57Zm.24-1.56s0,.15,0,.21,0,.07,0,.1a.15.15,0,0,0,0-.06h0a4.1,4.1,0,0,0,0-.49h0s0,.11,0,.12l0,0a.1.1,0,0,0,0,0l0,0V363Zm.24,1.91v.61c.06,0,.07-.08.06-.14a2.52,2.52,0,0,0-.06-.41l0,0v0Zm.22.31h0l.09-.16.09-.14a3.76,3.76,0,0,0,.25-.54,10.79,10.79,0,0,0,.56-1.38.57.57,0,0,1,0-.15,4.59,4.59,0,0,0,.23-1.46c0-.53-.23-.82-.69-.61a1.3,1.3,0,0,0-.55.5c0,.19,0,.28,0,.44h0a2.58,2.58,0,0,0,0,.49v1.32s0,.14,0,.17v0a.06.06,0,0,1,0,.05v.15a0,0,0,0,1,0,0v0l0,0v0s0,0,0,0a0,0,0,0,0,0,0h0s0,.06,0,.09,0,.08,0,.13,0,.06,0,.11a.22.22,0,0,1,0,.1s0,.05,0,.07v0s0,.05,0,.06h0l0,0A1.17,1.17,0,0,1,466.7,365.23Z"/><path class="cls-10" d="M470.49,361.82s0-.05-.05,0v.05l0-.07a.25.25,0,0,1,0-.07h0v0h0a.49.49,0,0,1,0-.14c0-.14,0-.29,0-.45l0-.08v0a5.73,5.73,0,0,1,.1-.67c0-.1,0-.15,0-.25a.44.44,0,0,1,.06-.1s0,0,0,0a2.75,2.75,0,0,1,.11-.41.25.25,0,0,0,0-.07c0-.12.09-.18.09-.3h0a1.78,1.78,0,0,0,.17-.41,2.54,2.54,0,0,1,1-1.12c.21-.12.39-.08.43.12l0,.19c0,.06-.43,1.15-.52.5v0c0-.11,0-.23-.13-.26h0c-.05,0-.17.39-.21.41l-.17.65s-.14.95-.16,1c0,.32-.06.67,0,1a2.11,2.11,0,0,0,0,.25v0s0,0,0,0l0,0v.24c0,.06.14.56.35.51s.26,0,.53-.34a.84.84,0,0,0,.06-.14,3.61,3.61,0,0,1,.45-.42c.05,0,.06.06.06.09s-.32.61-.42.76a2,2,0,0,1-.71.65.7.7,0,0,1-.68.06h-.06c-.15,0-.26-.23-.29-.35l-.1-.79S470.49,361.85,470.49,361.82Z"/><path class="cls-10" d="M473.13,360.63s0,0,0,0a30,30,0,0,1,.81-4,1.3,1.3,0,0,1,.08-.17l0,0c.06-.05,0-.1.05-.12l.06.05h0l0,.05a.39.39,0,0,1,.26-.36h0l.11.08a.15.15,0,0,1,0,.08c0,.16.12.25.14.41a1.87,1.87,0,0,0,.09.41v.05c0,.08,0,.22.05.31l0,.1v0a6.73,6.73,0,0,1,.18,1.18,2,2,0,0,1,.08.4l.19,1.48s0,.21-.11.23-.07,0-.06-.05l-.13-.26h0c0,.15.06.24.06.38s-.08.09-.13.1-.08-.05-.17-.11h-.09c-.12-.19-.09-.42-.24-.54s-.07,0-.09,0h0l-.81.53,0,0a3.26,3.26,0,0,1-.16.79l-.07.1s0,.08,0,.1-.11.06-.17.11l-.13,0v-.32c-.05,0,0-.08,0-.08s0-.36,0-.38h0s-.26,0-.22-.16h0l.06-.1.2-.2a.3.3,0,0,1,.05-.07Zm.88-2.47h0l-.26,1.41c0,.25-.06.52-.05.77l0,0,.64-.38,0-.08s0,0,0,0Z"/><path class="cls-10" d="M477.48,359.44l0,0s-.09-.23-.13-.25-.1,0-.1,0,0,0,0,0-.08-.12-.11-.18l0,0s0,0,0-.06h0c0-.08-.14-.16-.15-.31-.06,0,0,0-.06-.08a1.54,1.54,0,0,1-.27-.41v0c-.05-.15-.2-.65-.29-.65s0,.09,0,.15v.17a8.67,8.67,0,0,1-.26,2.49,1.06,1.06,0,0,1-.33.27c-.09.05-.1,0-.1-.11v0a1.64,1.64,0,0,1,0-.44v-.06a13.13,13.13,0,0,1,0-1.41c0-.15,0-.49,0-.63v-.34a13.87,13.87,0,0,1,.3-2,1,1,0,0,1,.27-.21h0l.11-.06c.08.07,0,.48.12.42l.07-.06a3.73,3.73,0,0,0,.2.4c.06.08.06.25.12.34a3.81,3.81,0,0,1,.36.73,1.71,1.71,0,0,0,.13.23h.05v.05s0,.1,0,.11h0a.2.2,0,0,0,0-.08l0,0s0,0,0,0h0s0-.09,0-.13h0s0,.05,0,.06v-.16c-.05,0,0,.08-.05.16l0,0c0-.08,0-.19,0-.23h0s0,0,0,0h0V357l-.08,0v0a2.73,2.73,0,0,1,0-.32,2.45,2.45,0,0,1,.05-.55l0-.45a1.93,1.93,0,0,0,.08-.46c0-.26.15-.92.41-1.07a.37.37,0,0,0,0,.09.2.2,0,0,0,0,.07h0a.39.39,0,0,1,.13-.28c.11-.06.06.09.17,0a2.94,2.94,0,0,1,0,.45l0,.18c-.06.59-.13,1.18-.13,1.73,0,.12-.05.27,0,.4s0,.06,0,.07-.05.2,0,.26,0,0,0,.06,0,.06,0,.11h0v.08l0,0c0,.09-.05.2,0,.31h0s0,.08,0,.1v0h0v0a0,0,0,0,1,0,0h0a1.09,1.09,0,0,0-.05.59,1.32,1.32,0,0,0,0,.16s0,.07,0,.08a.47.47,0,0,1-.2.43c-.08.06-.16.18-.24.23s-.09-.07-.09-.11S477.47,359.41,477.48,359.44Zm-.67-1.4s0,0,0-.06,0,0,0-.08l-.15-.38c0-.06-.19-.43-.25-.43h0a.22.22,0,0,0,0,.08l.37.85Zm.73-1.19s0-.08,0-.1,0-.53,0-.62V356l-.06.85Z"/><path class="cls-10" d="M478.54,357.33s0-.08,0-.08v0h0s0-.6.07-.76,0-.57.05-.87a2,2,0,0,0,.08-.4s0,0,0,0h0V355l-.14.08c-.05,0-.05-.05-.05-.11a2.13,2.13,0,0,1,.3-.84c.06-.15.06-.17.16-.25a2.27,2.27,0,0,0,.26-.27l.06,0a3.82,3.82,0,0,1,.88-.62c.26-.12.46-.15.64,0,0,0,.07,0,.05,0a1.41,1.41,0,0,1,.26,1s0,0,0,0a6.89,6.89,0,0,1-.1.76,7.19,7.19,0,0,1-.54,1.79,6,6,0,0,1-1,1.64l-.06.05-.41.3h0a.23.23,0,0,1-.11,0h0l-.2.13c-.16,0-.19-.72-.19-.91S478.54,357.5,478.54,357.33Zm.24-1.56s0,.15,0,.21,0,.07,0,.1a.15.15,0,0,0,0-.06h0a4.1,4.1,0,0,0,0-.49h0s0,.11,0,.12l0,0a.1.1,0,0,0,0,0l0,0v.05Zm.24,1.91v.61c.06,0,.07-.08.06-.14a2.52,2.52,0,0,0-.06-.41l0,0v0Zm.22.31h0l.09-.16.09-.14a3.76,3.76,0,0,0,.25-.54,10.79,10.79,0,0,0,.56-1.38.57.57,0,0,1,0-.15,4.59,4.59,0,0,0,.23-1.46c0-.53-.23-.82-.69-.61a1.35,1.35,0,0,0-.55.5c0,.19,0,.28,0,.44h0a2.58,2.58,0,0,0,0,.49v1.32s0,.14,0,.17v0a.06.06,0,0,1,0,.05v.15a0,0,0,0,1,0,0v0l0,0v0s0,0,0,0a0,0,0,0,0,0,0h0s0,.06,0,.09,0,.08,0,.13,0,.06,0,.11a.22.22,0,0,1,0,.1s0,.05,0,.07v0s0,.05,0,.06h0l0,0A1.17,1.17,0,0,1,479.24,358Z"/><path class="cls-10" d="M482.16,354.19h0a.13.13,0,0,0,0,.06h0v.06h0c0,.06,0,.16,0,.23l0,0c0,.09,0,.21,0,.3h0s0,.05,0,.05v0s0,0,0,0a2.15,2.15,0,0,1,0,.44v0a.56.56,0,0,0,0,.12h0l0,0,0,.05v.1c0,.13,0,.28,0,.58v.06h0s-.05.28-.07.34a3.47,3.47,0,0,1-.41.45c-.15.09-.21-.35-.22-.48v-.15l0-.17s0,0,0,0v-.22l0-.06a5.43,5.43,0,0,1,0-1c0-.05,0-.17,0-.23s0,0,0,0,0-.09,0-.15,0,0,0-.06a8.27,8.27,0,0,1,.08-1l0-.09v0a.16.16,0,0,0,0,.07h0s0,0,0,0a1.25,1.25,0,0,1,0-.19l0,0,0-.09h0s0,0,0-.07,0,0-.05.06v0a.12.12,0,0,1,0-.08h0a.24.24,0,0,0,0-.09v0a1.63,1.63,0,0,1,.07-.6v.08c.06,0,.08-.33.12-.41a1.6,1.6,0,0,1,.26-.26c.06-.05,0,.09.1,0l0,0h0v.26l0,0h0s0,.07,0,.11,0,0,0,.07h0s0,.06,0,0v.13h0a.11.11,0,0,1,0,.05s0,0,0,0,0,.05,0,.1,0,.06,0,.11,0,.14,0,.15h0a5.66,5.66,0,0,0,0,.73V354l0,0v0c0,.05,0,0,0,.07v0l0,0S482.15,354.2,482.16,354.19Z"/><path class="cls-10" d="M484.24,354.65l0,0h0s.1-.14.15-.18h0a.07.07,0,0,1,.09,0,3.29,3.29,0,0,1-.76,1.25l-.55.44-.12.1c-.43.2-.52-.35-.62-.56v-.37l0,0v-.73s0-.09,0-.1,0-.09,0-.09v0c.11-.49.12-1,.18-1.46a1.67,1.67,0,0,1,.06-.26,1.41,1.41,0,0,0,0-.44l-.11,0a1.87,1.87,0,0,1,.07-.22s-.15.05-.15,0,.32-.38.4-.53a.51.51,0,0,1,0-.09l0-.1v.17a.15.15,0,0,0,.09-.07c0-.1,0-.29.13-.35v.25c.07-.05.07-.26.09-.29l.05-.05h0s0,.07,0,.07.07,0,.07,0,0,.05,0,.06h0a3.1,3.1,0,0,1,1.09-.71s.17,0,.19.07l0,.09v0s0,.05,0,.06a.63.63,0,0,1,0,.09,6.13,6.13,0,0,0-1.24,1c0,.38-.08.79-.09,1.17v.06a2.94,2.94,0,0,1,.79-.5c.15-.06.19,0,.19.1a.22.22,0,0,1-.06.16,5.94,5.94,0,0,1-1,.71l0,.05-.05.4s0,0,.07,0,0,.11,0,.12,0,0,0,.08a.56.56,0,0,1,0,.12s0,.05,0,.05l0,0v.8a1.63,1.63,0,0,0,0,.28s.06.23.12.21ZM483,352.08v.25h0s0-.08,0-.1a.39.39,0,0,0,0-.14s0,0,0,0l0,0,0,0h0S483,352.06,483,352.08Z"/><path class="cls-10" d="M484.78,354.83l.3-.26c.09-.16.49-.51.51-.7,0,0-.12-.15-.13-.16s-.09-.14-.15-.17-.07,0-.08,0,0-.08,0-.09a.93.93,0,0,0-.22-.14,1.5,1.5,0,0,1-.28-1.36,5.25,5.25,0,0,1,.67-1.55,3.42,3.42,0,0,1,.72-.9c.32-.26.44-.3.44-.22s-.34.42-.65,1c0,.07-.1.19-.11.24h0c0,.12-.13.19-.17.26v0a.85.85,0,0,1-.07.15l0,0a3.57,3.57,0,0,0-.16.6,1,1,0,0,0,0,.34l0,0h0v0l0,.05s0,.06,0,.07h0a2.33,2.33,0,0,0,.11.31s.05,0,.06,0,0,0,0,0l.07,0,0,.08.11,0c.08,0,.12.14.21.16s.2.21.35.28c0,.14.16.21.1.51a2.25,2.25,0,0,1-.19.57l0,0s-.08.15-.12.2a2.85,2.85,0,0,1-1,.69l-.11,0h0a.33.33,0,0,1-.16.05h0c0-.06,0-.11,0-.17s0-.06,0-.07v0S484.76,354.84,484.78,354.83Zm.85-4s0-.06,0-.06S485.62,350.83,485.63,350.84Zm.12-.27s0,0,0,0S485.75,350.57,485.75,350.57Zm0,0s0,0,0,0S485.78,350.54,485.79,350.54Zm.17-.24-.09.14h0l0,0a.47.47,0,0,1,.08-.14Z"/><path class="cls-10" d="M488.47,350.08s0-.21,0-.23v-.14a1.22,1.22,0,0,1,0-.46,5.48,5.48,0,0,1,.22-1.44c.06-.15.3-.28.42-.35h0c.17-.1.18.2.18.34a.06.06,0,0,1,0,0c0,.36,0,.71-.06,1.06l-.06,1.1c0,.07-.05.17-.06.23s0,.34,0,.41-.05.32-.1.44h0a1,1,0,0,0,0,.29h0a.23.23,0,0,0,0,.15c-.14.08-.27.19-.4.26,0-.34,0-.68,0-1,0-.16,0-.35,0-.51S488.47,350.1,488.47,350.08Zm.49,2h0a.14.14,0,0,1,.08-.1s.05,0,.05,0,0,0,0,0,0,0,0,.05l0,.09v.62a1.62,1.62,0,0,1-.19.17h0s-.05,0-.06,0,0,.11-.12.16-.17-.11-.17-.19v-.51c0-.07.1-.17.14-.19l.19-.11A.17.17,0,0,1,489,352.07Z"/><polygon class="cls-7" points="349.75 376.04 345.12 379.86 341.94 377.67 343.4 371.67 348.02 367.85 351.2 370.04 349.75 376.04"/><polygon class="cls-9" points="445.61 458.96 437.98 465.25 432.75 461.63 435.14 451.73 442.77 445.45 448.01 449.06 445.61 458.96"/><polygon class="cls-9" points="416.15 526.26 403.11 537 394.16 530.83 398.25 513.92 411.29 503.18 420.24 509.35 416.15 526.26"/><polygon class="cls-9" points="433.93 493.05 430.11 496.2 427.5 494.39 428.69 489.44 432.51 486.3 435.13 488.11 433.93 493.05"/><polygon class="cls-7" points="475.77 418.51 473.08 420.73 471.23 419.46 472.07 415.96 474.77 413.74 476.62 415.02 475.77 418.51"/><polygon class="cls-6" points="536.75 278.84 535.68 279.73 534.94 279.22 535.27 277.82 536.35 276.93 537.09 277.44 536.75 278.84"/><polygon class="cls-6" points="483.96 324.73 480.82 328.85 477.51 328.8 477.33 324.63 480.47 320.52 483.78 320.56 483.96 324.73"/><polygon class="cls-6" points="539.33 242.66 536.19 246.78 532.88 246.73 532.7 242.56 535.84 238.44 539.15 238.49 539.33 242.66"/><polygon class="cls-6" points="528.79 285.83 525.66 289.95 522.35 289.9 522.17 285.73 525.3 281.61 528.62 281.66 528.79 285.83"/><polygon class="cls-6" points="448.53 347.48 445.39 351.6 442.08 351.55 441.9 347.38 445.04 343.26 448.35 343.31 448.53 347.48"/><polygon class="cls-6" points="502.58 305.94 499.44 310.06 496.13 310.01 495.95 305.84 499.09 301.72 502.4 301.77 502.58 305.94"/><polygon class="cls-7" points="414.44 386.56 411.31 390.68 408 390.64 407.82 386.47 410.95 382.35 414.27 382.4 414.44 386.56"/><polygon class="cls-7" points="345.12 410.76 341.99 414.88 338.67 414.84 338.5 410.67 341.63 406.55 344.94 406.6 345.12 410.76"/><polygon class="cls-7" points="493.81 369.09 491.69 371.88 489.45 371.84 489.33 369.03 491.45 366.24 493.69 366.28 493.81 369.09"/><polygon class="cls-7" points="344.05 391.83 341.93 394.62 339.69 394.59 339.57 391.77 341.69 388.99 343.93 389.02 344.05 391.83"/><polygon class="cls-7" points="421.34 407.87 419.22 410.65 416.98 410.62 416.87 407.8 418.99 405.02 421.22 405.05 421.34 407.87"/><polygon class="cls-9" points="422.45 444.38 420.33 447.16 418.1 447.13 417.98 444.31 420.1 441.53 422.33 441.56 422.45 444.38"/><polygon class="cls-9" points="442.15 517.64 438.15 522.88 433.94 522.82 433.71 517.51 437.71 512.27 441.93 512.33 442.15 517.64"/><polygon class="cls-9" points="461.99 459.09 459.87 461.88 457.63 461.85 457.51 459.03 459.63 456.25 461.87 456.28 461.99 459.09"/><polygon class="cls-7" points="456.72 402.62 454.6 405.4 452.36 405.37 452.24 402.56 454.36 399.77 456.6 399.8 456.72 402.62"/><polygon class="cls-6" points="392.98 359.83 389.84 363.95 386.53 363.91 386.35 359.74 389.49 355.62 392.8 355.67 392.98 359.83"/><polygon class="cls-6" points="396.15 326.41 394.9 328.06 393.57 328.04 393.5 326.38 394.76 324.73 396.08 324.75 396.15 326.41"/><polygon class="cls-6" points="511.88 319.6 510.17 321.85 508.36 321.82 508.26 319.55 509.98 317.3 511.78 317.32 511.88 319.6"/><polygon class="cls-6" points="447.02 323.25 445.31 325.5 443.5 325.48 443.41 323.2 445.12 320.96 446.93 320.98 447.02 323.25"/><polygon class="cls-27" points="324.69 215.56 319.7 212.69 340.41 200.73 345.39 203.61 324.69 215.56"/><polygon class="cls-27" points="299.26 233.85 294.28 230.97 314.99 219.02 319.97 221.9 299.26 233.85"/><polygon class="cls-27" points="323.33 226.44 318.35 223.56 339.06 211.6 344.04 214.48 323.33 226.44"/><polygon class="cls-27" points="367.75 193.82 362.76 190.94 383.47 178.99 388.45 181.87 367.75 193.82"/><polygon class="cls-27" points="357.63 211.3 352.64 208.42 373.35 196.47 378.33 199.34 357.63 211.3"/><polygon class="cls-28" points="292.13 298.58 284.37 294.11 284.37 252.22 292.13 256.7 292.13 298.58"/><polygon class="cls-28" points="284.14 360.11 276.38 355.63 276.38 313.75 284.14 318.23 284.14 360.11"/><polygon class="cls-28" points="294.99 403.29 287.24 398.82 287.24 356.93 294.99 361.41 294.99 403.29"/><polygon class="cls-28" points="288.01 483.91 280.26 479.43 280.26 437.55 288.01 442.02 288.01 483.91"/><polygon class="cls-28" points="284.14 561.53 276.38 557.05 276.38 515.17 284.14 519.65 284.14 561.53"/><polygon class="cls-28" points="295.77 548.04 288.01 543.57 288.01 501.68 295.77 506.16 295.77 548.04"/><polygon class="cls-28" points="285.44 630.27 277.69 625.79 277.69 583.9 285.44 588.38 285.44 630.27"/><polygon class="cls-4" points="300.28 277.44 286.43 269.39 286.43 296.31 298.5 303.27 300.28 277.44"/><polygon class="cls-6" points="307.08 309.77 286.43 296.31 286.43 350.14 309.74 363.6 309.74 309.77 307.08 309.77"/><polygon class="cls-3" points="286.43 269.39 309.74 255.94 333.05 269.39 309.74 282.85 286.43 269.39"/></g></g></svg>