<svg xmlns="http://www.w3.org/2000/svg" xmlns:xlink="http://www.w3.org/1999/xlink" viewBox="0 0 1920 1080"><defs><style>.cls-1{isolation:isolate;}.cls-2{fill:url(#Dégradé_sans_nom_19);}.cls-10,.cls-3{mix-blend-mode:luminosity;}.cls-4{fill:#868ba5;}.cls-10,.cls-5{fill:#ccd3ff;}.cls-6{fill:#696d7f;}.cls-7{fill:#3d4677;}.cls-8{fill:#1b1e35;}.cls-9{fill:#262e47;}.cls-11{fill:#101121;}</style><radialGradient id="Dégradé_sans_nom_19" cx="1378.41" cy="293" r="1619.8" gradientUnits="userSpaceOnUse"><stop offset="0" stop-color="#404682"/><stop offset="1" stop-color="#101121"/></radialGradient></defs><title>fond01</title><g class="cls-1"><g id="Calque_5" data-name="Calque 5"><rect class="cls-2" x="-618.14" y="-830.06" width="3993.11" height="2246.12"/></g><g id="étoiles"><g class="cls-3"><path class="cls-4" d="M676.6,477.59c6.44,0,6.45-10,0-10s-6.44,10,0,10Z"/></g><g class="cls-3"><path class="cls-5" d="M430.62,198.61c6.43,0,6.44-10,0-10s-6.45,10,0,10Z"/></g><g class="cls-3"><path class="cls-4" d="M696.1,78.61c6.44,0,6.45-10,0-10s-6.44,10,0,10Z"/></g><g class="cls-3"><path class="cls-4" d="M640.61,356.1c6.43,0,6.44-10,0-10s-6.45,10,0,10Z"/></g><g class="cls-3"><path class="cls-5" d="M277,228c6.43,0,6.45-10,0-10s-6.45,10,0,10Z"/></g><g class="cls-3"><path class="cls-5" d="M51,84c6.43,0,6.45-10,0-10s-6.45,10,0,10Z"/></g><g class="cls-3"><path class="cls-5" d="M187,24c6.43,0,6.45-10,0-10s-6.45,10,0,10Z"/></g><g class="cls-3"><path class="cls-5" d="M261,270c6.43,0,6.45-10,0-10s-6.45,10,0,10Z"/></g><g class="cls-3"><path class="cls-4" d="M523,84c6.43,0,6.45-10,0-10s-6.45,10,0,10Z"/></g><g class="cls-3"><path class="cls-5" d="M231,78c6.43,0,6.45-10,0-10s-6.45,10,0,10Z"/></g><g class="cls-3"><path class="cls-5" d="M645,616c6.43,0,6.45-10,0-10s-6.45,10,0,10Z"/></g><g class="cls-3"><path class="cls-5" d="M471,386c6.43,0,6.45-10,0-10s-6.45,10,0,10Z"/></g><g class="cls-3"><path class="cls-6" d="M971,156c6.43,0,6.45-10,0-10s-6.45,10,0,10Z"/></g><g class="cls-3"><path class="cls-4" d="M615,224h2a5.21,5.21,0,0,0,3.54-1.46,5,5,0,0,0,0-7.08A5.25,5.25,0,0,0,617,214h-2a5.21,5.21,0,0,0-3.54,1.46,5,5,0,0,0,0,7.08A5.25,5.25,0,0,0,615,224Z"/></g><g class="cls-3"><path class="cls-6" d="M1061,474c6.43,0,6.45-10,0-10s-6.45,10,0,10Z"/></g><g class="cls-3"><path class="cls-4" d="M825,586c6.43,0,6.45-10,0-10s-6.45,10,0,10Z"/></g><g class="cls-3"><path class="cls-4" d="M847,340c6.43,0,6.45-10,0-10s-6.45,10,0,10Z"/></g><g class="cls-3"><path class="cls-6" d="M957,26c6.43,0,6.45-10,0-10s-6.45,10,0,10Z"/></g><g class="cls-3"><path class="cls-4" d="M861,234c6.43,0,6.45-10,0-10s-6.45,10,0,10Z"/></g><path class="cls-7" d="M1221,486c6.43,0,6.45-10,0-10s-6.45,10,0,10Z"/><path class="cls-7" d="M1765,542c6.43,0,6.45-10,0-10s-6.45,10,0,10Z"/><path class="cls-7" d="M1901,392c6.43,0,6.45-10,0-10s-6.45,10,0,10Z"/><g class="cls-3"><path class="cls-6" d="M1855,588c6.43,0,6.45-10,0-10s-6.45,10,0,10Z"/></g><g class="cls-3"><path class="cls-6" d="M1615,636c6.43,0,6.45-10,0-10s-6.45,10,0,10Z"/></g><path class="cls-7" d="M1557,560c6.43,0,6.45-10,0-10s-6.45,10,0,10Z"/><g class="cls-3"><path class="cls-6" d="M1125,616c6.43,0,6.45-10,0-10s-6.45,10,0,10Z"/></g><g class="cls-3"><path class="cls-4" d="M857,474c6.43,0,6.45-10,0-10s-6.45,10,0,10Z"/></g><path class="cls-7" d="M1103,346c6.43,0,6.45-10,0-10s-6.45,10,0,10Z"/><path class="cls-7" d="M1095,72c6.43,0,6.45-10,0-10s-6.45,10,0,10Z"/><g class="cls-3"><path class="cls-6" d="M991,316c6.43,0,6.45-10,0-10s-6.45,10,0,10Z"/></g><g class="cls-3"><path class="cls-4" d="M837,142c6.43,0,6.45-10,0-10s-6.45,10,0,10Z"/></g><g class="cls-3"><path class="cls-4" d="M779,10c6.43,0,6.45-10,0-10s-6.45,10,0,10Z"/></g><g class="cls-3"><path class="cls-5" d="M329,102c6.43,0,6.45-10,0-10s-6.45,10,0,10Z"/></g><g class="cls-3"><path class="cls-5" d="M429,298c6.43,0,6.45-10,0-10s-6.45,10,0,10Z"/></g><g class="cls-3"><path class="cls-5" d="M539,594c6.43,0,6.45-10,0-10s-6.45,10,0,10Z"/></g><g class="cls-3"><path class="cls-4" d="M949,606c6.43,0,6.45-10,0-10s-6.45,10,0,10Z"/></g><g class="cls-3"><path class="cls-5" d="M523,440c6.43,0,6.45-10,0-10s-6.45,10,0,10Z"/></g><g class="cls-3"><path class="cls-5" d="M243,344c6.43,0,6.45-10,0-10s-6.45,10,0,10Z"/></g><g class="cls-3"><path class="cls-5" d="M121,132c6.43,0,6.45-10,0-10s-6.45,10,0,10Z"/></g><g class="cls-3"><path class="cls-5" d="M111,6c6.43,0,6.45-10,0-10s-6.45,10,0,10Z"/></g><g class="cls-3"><path class="cls-5" d="M435,12c6.43,0,6.45-10,0-10s-6.45,10,0,10Z"/></g><g class="cls-3"><path class="cls-6" d="M1341,620c6.43,0,6.45-10,0-10s-6.45,10,0,10Z"/></g><g class="cls-3"><path class="cls-6" d="M1503,644c6.43,0,6.45-10,0-10s-6.45,10,0,10Z"/></g><path class="cls-7" d="M1387,518c6.43,0,6.45-10,0-10s-6.45,10,0,10Z"/><path class="cls-7" d="M1257,588c6.43,0,6.45-10,0-10s-6.45,10,0,10Z"/><path class="cls-7" d="M1227,348c6.43,0,6.45-10,0-10s-6.45,10,0,10Z"/><path class="cls-7" d="M1095,172c6.43,0,6.45-10,0-10s-6.45,10,0,10Z"/><path class="cls-7" d="M1671,476c6.43,0,6.45-10,0-10s-6.45,10,0,10Z"/><path class="cls-7" d="M1851,384c6.43,0,6.45-10,0-10s-6.45,10,0,10Z"/></g><g id="soleil"><circle class="cls-5" cx="1550" cy="78" r="388.96"/></g><g id="eau"><rect class="cls-8" x="477" y="719" width="1116" height="361"/></g><g id="Calque_7" data-name="Calque 7"><path class="cls-9" d="M1176.55,1004.28a20.44,20.44,0,0,1,12.68-4.11H1480a47.44,47.44,0,0,0,12.49-1.64l1.52-.42c29.94-8.27,21.49-39.54-10.69-39.54H1368.65c-4.69,0-9.3-1.26-12.42-3.72-21-16.52-4.26-35.87,18.59-35.87h302.73a48.45,48.45,0,0,0,24.79-6.47l.65-.39c19.19-11.62,7.5-33.74-17.83-33.74H1537c-4.69,0-9.3-1.26-12.42-3.72-21-16.52-4.26-35.87,18.59-35.87h234.14c10.66,0,20.55-4,25.76-10.54l.77-1c10.32-13-2.95-29.09-24.2-29.09h-141c-4.69,0-9.3-1.26-12.42-3.72-21-16.52-4.26-35.87,18.59-35.87h173.86c12.55,0,23.12-6.61,24.58-15.37h0c2.15-12.9-12.2-24.23-30.68-24.23H647.19c-14.82,0-26,8.62-26.15,19-.08,5.07-2.92,10.57-9.51,15.79-3.14,2.49-7.8,3.77-12.53,3.77H388.26c-20.78,0-35.18,14.31-28.69,28.17l.19.4c3.41,7.22,13.16,12,24,12H708.62c4.69,0,9.3,1.26,12.43,3.72,21,16.52,4.25,35.87-18.59,35.87H446.78c-22.79,0-35.23,18.6-20.81,31l.47.4c6.83,5.85,17.1,9.21,27.88,9.21H848.14c4.69,0,9.3,1.26,12.42,3.72,21,16.52,4.26,35.88-18.59,35.88H584.62c-28.5,0-38.86,26.25-14.54,36.7l.89.38A46.46,46.46,0,0,0,589,958.57H981c4.69,0,9.3,1.27,12.42,3.72,21,16.53,4.26,35.88-18.58,35.88h-105c-30,0-34.45,30.48-5.06,34.63a1648.71,1648.71,0,0,0,229.92,15.77C1153.77,1048.57,1156,1020.85,1176.55,1004.28Z"/><path class="cls-7" d="M1176.12,852.27a13.43,13.43,0,0,1,7.24-1.92h166a32.82,32.82,0,0,0,7.14-.77l.86-.19c17.1-3.87,12.27-18.47-6.1-18.47h-65.47a13.58,13.58,0,0,1-7.1-1.74c-12-7.72-2.43-16.76,10.62-16.76h172.87a32.51,32.51,0,0,0,14.15-3l.37-.18c11-5.43,4.29-15.76-10.18-15.76H1382a13.58,13.58,0,0,1-7.1-1.74c-12-7.72-2.43-16.76,10.62-16.76h133.7c6.09,0,11.74-1.87,14.71-4.92l.44-.45c5.9-6.1-1.68-13.6-13.81-13.6H1440a13.68,13.68,0,0,1-7.1-1.73c-12-7.72-2.43-16.76,10.62-16.76h99.28c7.17,0,13.2-3.09,14-7.18h0c1.22-6-7-11.32-17.52-11.32H873.83c-8.46,0-14.83,4-14.93,8.89,0,2.37-1.67,4.94-5.44,7.38a13.65,13.65,0,0,1-7.15,1.76H726c-11.87,0-20.09,6.68-16.38,13.16l.11.19c1.94,3.37,7.51,5.61,13.69,5.61H908.91a13.54,13.54,0,0,1,7.09,1.74c12,7.72,2.43,16.76-10.61,16.76h-146c-13,0-20.11,8.69-11.87,14.48l.26.18c3.9,2.74,9.77,4.31,15.92,4.31H988.58a13.64,13.64,0,0,1,7.09,1.73c12,7.72,2.43,16.76-10.61,16.76h-147c-16.28,0-22.19,12.27-8.3,17.15l.51.18a31.79,31.79,0,0,0,10.31,1.64h223.85a13.61,13.61,0,0,1,7.1,1.74c12,7.71,2.43,16.76-10.62,16.76h-60c-17.12,0-19.67,14.24-2.89,16.18A1148.53,1148.53,0,0,0,1129.4,873C1163.11,873,1164.4,860,1176.12,852.27Z"/><path class="cls-10" d="M1192.76,799.14a7.19,7.19,0,0,1,4.08-1.16h93.69a17.21,17.21,0,0,0,4-.46l.49-.12c9.65-2.32,6.92-11.1-3.45-11.1h-36.94a7.3,7.3,0,0,1-4-1c-6.76-4.64-1.37-10.07,6-10.07h97.54a17.46,17.46,0,0,0,8-1.82l.21-.11c6.18-3.26,2.41-9.48-5.75-9.48h-47.72a7.31,7.31,0,0,1-4-1c-6.76-4.65-1.37-10.08,6-10.08h75.44c3.44,0,6.62-1.13,8.3-3l.25-.27c3.33-3.67-1-8.18-7.8-8.18h-45.41a7.28,7.28,0,0,1-4-1c-6.76-4.64-1.37-10.08,6-10.08h56c4,0,7.45-1.85,7.93-4.31h0c.69-3.63-3.94-6.81-9.89-6.81H1022.2c-4.78,0-8.37,2.42-8.43,5.35,0,1.42-.94,3-3.06,4.43a7.34,7.34,0,0,1-4,1.06h-67.9c-6.7,0-11.34,4-9.24,7.91l.06.12c1.09,2,4.24,3.37,7.72,3.37H1042a7.28,7.28,0,0,1,4,1c6.76,4.64,1.37,10.08-6,10.08H957.62c-7.34,0-11.35,5.22-6.7,8.7l.15.11a15.34,15.34,0,0,0,9,2.59h126.89a7.34,7.34,0,0,1,4,1.05c6.75,4.64,1.37,10.07-6,10.07H1002c-9.19,0-12.52,7.38-4.69,10.31l.29.11a16.93,16.93,0,0,0,5.82,1h126.3a7.34,7.34,0,0,1,4,1c6.76,4.64,1.37,10.08-6,10.08h-33.84c-9.66,0-11.1,8.56-1.63,9.73a609.47,609.47,0,0,0,74.09,4.43C1185.42,811.58,1186.15,803.79,1192.76,799.14Z"/></g><g id="Calque_2" data-name="Calque 2"><path class="cls-11" d="M307.62,306.1c-33,.18-75,78-75,78s-103.5-243-153-243S0,262.6,0,262.6V1080H532.61S515,305,307.62,306.1Z"/></g><g id="Calque_3" data-name="Calque 3"><path class="cls-11" d="M1366.53,882,1347,759l-16.5,37.49L1317,759s-21-25.5-33-52.5,84-42,118.49-40.5,82.5,12,196.5,13.5,186-13.7,247.48-13.6,73.5,0,73.5,0V1080H1482s-15-195-57-232.49S1366.53,882,1366.53,882Z"/></g><g id="pont"><path class="cls-11" d="M1372.28,460.42v211.5h41.51V460.42Zm35.38,211.5h-29.25V642.67h29.25Zm0-35.25h-29.25V607.42h29.25Zm0-35.25h-29.25V572.17h29.25Zm0-35.25h-29.25V536.92h29.25Zm0-35.25h-29.25V501.67h29.25Zm.13-35.25h-29.51V466.42h29.51Z"/><rect class="cls-11" x="465" y="665.92" width="928.04" height="34.08"/><rect class="cls-11" x="541.61" y="669.62" width="12.39" height="121" transform="translate(676.72 -173.51) rotate(45)"/><rect class="cls-11" x="1279.93" y="673.17" width="12.39" height="129.83" transform="translate(-145.2 1125.6) rotate(-45)"/></g></g></svg>