<svg xmlns="http://www.w3.org/2000/svg" viewBox="0 0 1920 1080"><defs><style>.cls-1{fill:#0c0c0c;}.cls-2{fill:#111016;}.cls-3{fill:#17161e;}.cls-4{fill:#ad4d2b;}.cls-5{fill:#893c24;}.cls-6{fill:#dd5e3c;}.cls-7{fill:#3c3caa;}.cls-8{fill:#363696;}.cls-9{fill:#2e2e7c;}.cls-10{fill:#252566;}.cls-11{fill:#5252e2;}.cls-12{fill:#ea7e34;}.cls-13{fill:#f43434;}.cls-14{fill:#fff;}.cls-15{fill:#e8442e;}.cls-16{fill:#e29e30;}.cls-17{fill:#282222;}.cls-18{fill:#ff3636;}.cls-19{fill:#c12b2b;}.cls-20{fill:#d7fffc;}.cls-21{fill:#a8c6c3;}.cls-22{fill:#423211;}.cls-23{fill:#2b210b;}.cls-24{fill:#81e3ea;}.cls-25{fill:#b5e5e5;}.cls-26{fill:#2ee3e8;}.cls-27,.cls-28,.cls-29,.cls-30{fill:#9494af;}.cls-27{opacity:0.06;}.cls-28{opacity:0.14;}.cls-29{opacity:0.18;}.cls-31{fill:#595968;}.cls-32{fill:#7b7b91;}.cls-33{fill:#676777;}</style></defs><title>fond03</title><g id="fond"><rect class="cls-1" width="1920" height="1080"/><rect class="cls-2" width="1920" height="1080"/><path class="cls-3" d="M1754,795.18H1475.59a84.61,84.61,0,0,1-84.36-84.36h0a84.61,84.61,0,0,1,84.36-84.36h122.29v-.1h80.36A84.61,84.61,0,0,0,1762.61,542h0a84.61,84.61,0,0,0-84.37-84.36H1365a84.62,84.62,0,0,1-84.37-84.36h0A84.62,84.62,0,0,1,1365,288.91h187.59A84.61,84.61,0,0,0,1637,204.55h0a84.61,84.61,0,0,0-84.36-84.36H373.2a84.61,84.61,0,0,0-84.37,84.36h0a84.61,84.61,0,0,0,84.37,84.36H527.94a84.62,84.62,0,0,1,84.37,84.36h0a84.62,84.62,0,0,1-84.37,84.36H169.74A84.61,84.61,0,0,0,85.38,542h0a84.61,84.61,0,0,0,84.36,84.36h372v.1h48.16a84.61,84.61,0,0,1,84.36,84.36h0a84.61,84.61,0,0,1-84.36,84.36H242.46c-44.69,2-80.66,39.11-80.66,84.27h0a84.61,84.61,0,0,0,84.36,84.36H1750.25a84.61,84.61,0,0,0,84.37-84.36h0C1834.62,834.29,1798.65,797.14,1754,795.18Z"/></g><g id="planètes"><g id="Calque_16" data-name="Calque 16"><circle class="cls-4" cx="1333.54" cy="821.49" r="73.96"/><path class="cls-5" d="M1347.8,873.05A68,68,0,0,1,1280,804.9c0-13.16,4.55-25.44,11-35.86-17.82,14.71-25.2,31.3-25.2,52.33a68,68,0,0,0,67.79,68.15c24.35,0,46.7-13.11,58.08-32.91C1379.9,866.49,1364.32,873.05,1347.8,873.05Z"/><ellipse class="cls-6" cx="1367.25" cy="783.62" rx="12.75" ry="21.5" transform="translate(-127.36 1283.18) rotate(-48.3)"/></g><g id="Calque_17" data-name="Calque 17"><circle class="cls-7" cx="1553.28" cy="364.9" r="136.77"/><path class="cls-8" d="M1576.46,244.77c0-1.91,0-3.8.13-5.68a128.22,128.22,0,1,0,104.84,131.78A128.25,128.25,0,0,1,1576.46,244.77Z"/><path class="cls-9" d="M1517.39,248.58c0-1.42,0-2.83,0-4.25-53.18,14.58-92.31,63.82-92.31,122.34,0,70,56,126.73,125,126.73,47.19,0,88.26-26.5,109.54-65.63C1578.32,409.84,1517.39,336.43,1517.39,248.58Z"/><path class="cls-10" d="M1553.66,471.08a116.75,116.75,0,0,1,18.86-232.67c-1.91-.29-3.87-.52-5.81-.73a128.22,128.22,0,1,0,114.08,140.94c.2-1.95.42-3.87.54-5.8A116.8,116.8,0,0,1,1553.66,471.08Z"/><ellipse class="cls-11" cx="1635.33" cy="297.15" rx="17.65" ry="30.43" transform="translate(164.9 1072.03) rotate(-38.09)"/></g></g><g id="meteor"><path class="cls-12" d="M1203.07,364.05l-25.28-23-9.84-9-7.72-7a3.25,3.25,0,1,1,4.38-4.8l4.56,4.16,13,11.83,22.13,20.16a3.25,3.25,0,0,0,4.38-4.81l-22.13-20.15-20.32-18.51a3.25,3.25,0,0,1,4.38-4.81l2.25,2.06h0l23.39,21.3a3.25,3.25,0,0,0,4.38-4.81l-5.32-4.84-10.4-9.47a3.28,3.28,0,0,1-.22-4.6h0a3.27,3.27,0,0,1,4.6-.21l10.39,9.47,14.23,13a3.25,3.25,0,0,0,4.38-4.8l-14.23-13-16.26-14.82a3.26,3.26,0,0,1-.22-4.59h0a3.27,3.27,0,0,1,4.6-.21l16.26,14.81,6.73,6.13a3.25,3.25,0,0,0,4.38-4.8l-28.92-26.34h0l-28.39-25.87h0l-.18-.18a29.25,29.25,0,1,0-39.4,43.25l50.77,46.24,25.28,23a3.25,3.25,0,1,0,4.38-4.8Z"/><circle class="cls-13" cx="1142.34" cy="277.95" r="22.03"/><circle class="cls-14" cx="1142.34" cy="277.95" r="13.94"/></g><g id="fusée"><path class="cls-15" d="M1445.45,956.18l8.69-8.64,3.37-3.37,2.66-2.64a1.15,1.15,0,1,0-1.63-1.63l-1.57,1.56-4.46,4.45-7.6,7.56a1.15,1.15,0,0,1-1.63,0,1.16,1.16,0,0,1,0-1.64l7.6-7.57,7-6.94a1.16,1.16,0,1,0-1.63-1.64l-.77.78h0l-8,8a1.15,1.15,0,1,1-1.63-1.63l1.83-1.82,3.57-3.55a1.16,1.16,0,0,0,0-1.64h0a1.14,1.14,0,0,0-1.63,0l-3.57,3.55-4.89,4.87a1.16,1.16,0,0,1-1.64,0,1.15,1.15,0,0,1,0-1.63l4.89-4.87,5.59-5.56a1.16,1.16,0,0,0,0-1.64h0a1.16,1.16,0,0,0-1.64,0l-5.58,5.56-2.31,2.3a1.15,1.15,0,1,1-1.63-1.63l9.93-9.89h0l9.75-9.71h0l.07-.06a10.36,10.36,0,1,1,14.62,14.68l-17.44,17.36-8.68,8.64a1.15,1.15,0,1,1-1.63-1.63Z"/><path class="cls-12" d="M1453,925.92l6.82-6.79,2.65-2.64,2.08-2.07a1.17,1.17,0,0,1,1.61,1.62l-1.23,1.23-3.5,3.48-6,5.94a1.18,1.18,0,0,0,1.61,1.63l6-5.94,5.47-5.46a1.18,1.18,0,0,1,1.62,1.63l-.61.6h0l-6.3,6.28a1.17,1.17,0,0,0,1.61,1.62l1.44-1.43,2.8-2.79a1.06,1.06,0,0,1,1.46.17h0a1.05,1.05,0,0,1,.16,1.45l-2.81,2.8-3.83,3.82a1,1,0,0,0,.16,1.45,1,1,0,0,0,1.45.17l3.84-3.82,4.38-4.37a1.06,1.06,0,0,1,1.46.17h0a1.06,1.06,0,0,1,.16,1.46l-4.38,4.36-1.82,1.81a1,1,0,0,0,.16,1.45,1.06,1.06,0,0,0,1.46.17l7.79-7.76h0l7.66-7.62h0l.06,0c3.22-3.21,2.57-9.08-1.44-13.11s-9.89-4.7-13.1-1.5l-13.69,13.63-6.82,6.79a1.18,1.18,0,0,0,1.62,1.62Z"/><path class="cls-16" d="M1477.55,924.09l5.94-5.92,2.3-2.3,1.82-1.8c.31-.31.2-.93-.24-1.38s-1.07-.56-1.38-.25l-1.07,1.07-3.05,3-5.2,5.17a1,1,0,0,1-1.37-.24c-.44-.45-.55-1.07-.24-1.38l5.19-5.17,4.78-4.76c.31-.3.2-.92-.25-1.37s-1.06-.56-1.37-.25l-.53.53h0l-5.49,5.47c-.31.31-.93.2-1.37-.25s-.56-1.06-.25-1.37l1.25-1.25,2.44-2.43c.32-.31.21-.93-.24-1.37h0c-.44-.45-1.06-.56-1.37-.25l-2.44,2.43-3.35,3.33c-.31.31-.92.2-1.37-.25s-.55-1.07-.24-1.37l3.34-3.33,3.82-3.81c.31-.31.2-.92-.24-1.37h0c-.45-.45-1.06-.56-1.38-.25l-3.81,3.8-1.59,1.58c-.31.31-.92.2-1.37-.25s-.55-1.06-.24-1.37l6.79-6.77h0l6.67-6.64h0l0,0c2.81-2.8,8.34-1.79,12.35,2.24s5,9.57,2.2,12.36L1485.1,919.8l-5.94,5.91c-.31.31-.93.2-1.37-.25S1477.24,924.4,1477.55,924.09Z"/><path class="cls-17" d="M1490.44,890.31a11.59,11.59,0,0,0-.76,3l7.29,7.29a11.59,11.59,0,0,0,3-.76Z"/><path class="cls-18" d="M1509.21,912.3c-6.35,6.35-21.08,10.26-21.08,10.26s3.91-14.73,10.26-21.08,13.93-9.08,16.91-6.09S1515.56,906,1509.21,912.3Z"/><path class="cls-19" d="M1488.49,891.58c-6.35,6.35-21.08,10.26-21.08,10.26s3.91-14.73,10.26-21.08,13.92-9.08,16.91-6.09S1494.84,885.22,1488.49,891.58Z"/><path class="cls-20" d="M1535,878.08c7.16-7.15,13.12-21,17.5-31.86a6.43,6.43,0,0,0-8.37-8.37c-10.87,4.39-24.71,10.34-31.86,17.5l-8.1,8.1c-10.34,10.34-14.93,18.65-15.54,25l13.27,13.27c6.35-.61,14.66-5.2,25-15.54Z"/><path class="cls-21" d="M1544.09,837.85a6.35,6.35,0,0,1,7,1.41l-55.83,55.83-6.63-6.64c.61-6.35,5.2-14.66,15.54-25l8.1-8.1C1519.38,848.19,1533.22,842.24,1544.09,837.85Z"/><circle class="cls-22" cx="1525.58" cy="864.73" r="6.76"/><path class="cls-23" d="M1530.36,860a6.76,6.76,0,0,0-9.56,9.56Z"/><circle class="cls-24" cx="1525.58" cy="864.73" r="5.56"/><circle class="cls-25" cx="1525.93" cy="862.85" r="2.57"/><path class="cls-26" d="M1531.12,864.26a5.56,5.56,0,0,1-11.08,0,5.56,5.56,0,1,0,11.08,0Z"/><path class="cls-18" d="M1552.46,846.22a6.43,6.43,0,0,0-8.37-8.37c-1.49.6-3,1.23-4.62,1.89a10.32,10.32,0,0,0,11.1,11.1C1551.23,849.26,1551.86,847.71,1552.46,846.22Z"/><path class="cls-19" d="M1544.09,837.85a6.33,6.33,0,0,1,7,1.41l-8.59,8.59a10.62,10.62,0,0,1-3-8.11C1541.05,839.08,1542.6,838.45,1544.09,837.85Z"/></g><g id="lune"><g id="atmosphère"><circle class="cls-27" cx="681.94" cy="528.1" r="369.31"/><circle class="cls-28" cx="681.07" cy="528.38" r="361.19"/><circle class="cls-29" cx="681.07" cy="528.95" r="336.05"/></g><g id="lune-2" data-name="lune"><circle class="cls-30" cx="681.07" cy="528.1" r="291.42"/><path class="cls-30" d="M397.84,528.1c0-156.42,126.8-283.23,283.23-283.23S964.3,371.68,964.3,528.1,837.49,811.33,681.07,811.33a282.1,282.1,0,0,1-119.93-26.57C464.67,739.61,397.84,641.66,397.84,528.1Z"/><path class="cls-31" d="M561.14,784.76a283.47,283.47,0,0,0,323-59.26,283.7,283.7,0,0,1-272.66,18.11C515,698.45,448.2,600.5,448.2,486.94a282.29,282.29,0,0,1,80.13-197.4A283,283,0,0,0,397.84,528.1C397.84,641.66,464.67,739.61,561.14,784.76Z"/></g><g id="trous"><g id="Calque_8" data-name="Calque 8"><circle class="cls-30" cx="775.36" cy="578.41" r="50.03"/><circle class="cls-32" cx="775.36" cy="578.41" r="43.49"/><path class="cls-33" d="M770.57,542a43.5,43.5,0,0,1,38.29,64.1,43.49,43.49,0,1,0-71.8-48.33A43.4,43.4,0,0,1,770.57,542Z"/></g><g id="Calque_13" data-name="Calque 13"><circle class="cls-30" cx="784.49" cy="688.58" r="22.27"/><circle class="cls-32" cx="784.49" cy="688.58" r="19.36"/><path class="cls-33" d="M782.36,672.39a19.36,19.36,0,0,1,17,28.53,19.36,19.36,0,1,0-32-21.51A19.32,19.32,0,0,1,782.36,672.39Z"/></g><g id="Calque_9" data-name="Calque 9"><circle class="cls-30" cx="479.11" cy="425.96" r="32.64"/><circle class="cls-32" cx="479.11" cy="425.96" r="28.37"/><path class="cls-33" d="M476,402.22A28.39,28.39,0,0,1,501,444a28.37,28.37,0,1,0-46.85-31.53A28.34,28.34,0,0,1,476,402.22Z"/></g><g id="Calque_10" data-name="Calque 10"><circle class="cls-30" cx="845.66" cy="428.95" r="63.76"/><circle class="cls-32" cx="845.66" cy="428.95" r="55.42"/><path class="cls-33" d="M839.55,382.59a55.44,55.44,0,0,1,48.81,81.69,55.42,55.42,0,1,0-91.51-61.6A55.31,55.31,0,0,1,839.55,382.59Z"/></g><g id="Calque_11" data-name="Calque 11"><circle class="cls-30" cx="681.07" cy="476.23" r="16.88"/><circle class="cls-32" cx="681.07" cy="476.23" r="14.67"/><path class="cls-33" d="M679.45,464a14.67,14.67,0,0,1,14.67,14.67,14.51,14.51,0,0,1-1.75,6.95,14.67,14.67,0,1,0-24.22-16.3A14.63,14.63,0,0,1,679.45,464Z"/></g><g id="Calque_12" data-name="Calque 12"><circle class="cls-30" cx="633.24" cy="357.05" r="71.89"/><circle class="cls-32" cx="633.24" cy="357.05" r="62.5"/><path class="cls-33" d="M626.36,304.78a62.5,62.5,0,0,1,55,92.11A62.5,62.5,0,1,0,578.2,327.44,62.39,62.39,0,0,1,626.36,304.78Z"/></g><g id="Calque_7" data-name="Calque 7"><circle class="cls-30" cx="593.02" cy="651.05" r="88.05"/><circle class="cls-32" cx="593.02" cy="651.05" r="81.27"/><path class="cls-33" d="M584.06,583.06a81.3,81.3,0,0,1,71.58,119.79,81.28,81.28,0,1,0-134.2-90.32A81.12,81.12,0,0,1,584.06,583.06Z"/></g></g></g><g id="stars"><circle class="cls-14" cx="1303.46" cy="454.33" r="5.03"/><circle class="cls-14" cx="454.12" cy="935.76" r="12.63"/><circle class="cls-14" cx="1316.09" cy="261.95" r="12.63"/><circle class="cls-14" cx="296.37" cy="378.56" r="5.03"/><circle class="cls-14" cx="996.5" cy="855.5" r="5.03"/><circle class="cls-14" cx="1813.63" cy="769.04" r="12.63"/><circle class="cls-14" cx="450.74" cy="105.75" r="8.03"/><circle class="cls-14" cx="171.37" cy="870.03" r="5.03"/><circle class="cls-14" cx="296.87" cy="732.55" r="5.03"/><circle class="cls-14" cx="361.87" cy="998.55" r="5.03"/><circle class="cls-14" cx="75.84" cy="187.86" r="5.03"/><circle class="cls-14" cx="141.09" cy="585.13" r="12.63"/><circle class="cls-14" cx="785.65" cy="43.33" r="5.03"/><circle class="cls-14" cx="1056.28" cy="187.86" r="5.03"/><circle class="cls-14" cx="1461.46" cy="68.33" r="5.03"/><circle class="cls-14" cx="1265.79" cy="81.33" r="5.03"/><circle class="cls-14" cx="1786.46" cy="249.32" r="5.03"/><circle class="cls-14" cx="1562.46" cy="616.86" r="5.03"/><circle class="cls-14" cx="1251.46" cy="586.33" r="5.03"/><circle class="cls-14" cx="1433.46" cy="986.3" r="5.03"/><circle class="cls-14" cx="1316.09" cy="1003.58" r="12.63"/></g></svg>