<svg xmlns="http://www.w3.org/2000/svg" xmlns:xlink="http://www.w3.org/1999/xlink" viewBox="0 0 573.66 579.66"><defs><style>.cls-1{fill:#7239ff;}.cls-2{fill:#ae94ff;}.cls-3{fill:#abc4ab;}.cls-4{fill:#61a361;}.cls-5{opacity:0.25;}.cls-6{fill:#e5e5e5;}.cls-7{fill:url(#Dégradé_sans_nom_9);}.cls-8{fill:#969696;}.cls-9{fill:#7c7c7c;}.cls-10{opacity:0.35;}.cls-11{fill:#4f2bbc;}.cls-12{fill:#e1ffe1;opacity:0.3;}</style><linearGradient id="Dégradé_sans_nom_9" x1="436.42" y1="446.14" x2="431.42" y2="446.14" gradientUnits="userSpaceOnUse"><stop offset="0" stop-color="#e5e5e5"/><stop offset="0.2" stop-color="#e1e1e1"/><stop offset="0.4" stop-color="#d5d5d5"/><stop offset="0.6" stop-color="#c2c2c2"/><stop offset="0.79" stop-color="#a6a6a6"/><stop offset="0.99" stop-color="#838383"/><stop offset="1" stop-color="gray"/></linearGradient></defs><title>iso02</title><g id="Calque_2" data-name="Calque 2"><g id="Calque_1-2" data-name="Calque 1"><polygon class="cls-1" points="86.05 115.93 372.88 281.55 372.88 380.92 200.78 281.55 200.78 380.92 372.88 480.29 372.88 579.66 86.05 414.04 86.05 115.93"/><polygon class="cls-2" points="200.78 380.92 229.47 364.36 401.56 463.73 372.88 480.29 200.78 380.92"/><polygon class="cls-3" points="372.88 579.66 372.88 480.29 401.56 463.73 401.56 529.98 544.98 447.17 544.98 380.92 573.66 364.36 573.66 463.73 372.88 579.66"/><polygon class="cls-3" points="372.88 380.92 573.66 264.99 573.66 165.62 372.88 281.55 372.88 380.92"/><polygon class="cls-3" points="229.47 364.36 229.47 298.11 200.78 281.55 200.78 380.92 229.47 364.36"/><polygon class="cls-1" points="544.98 447.17 401.56 364.36 458.93 331.23 544.98 380.92 544.98 447.17"/><polygon class="cls-2" points="573.66 364.36 487.62 314.67 458.93 331.23 544.98 380.92 573.66 364.36"/><polygon class="cls-4" points="401.56 529.98 401.56 463.73 229.47 364.36 229.47 298.11 372.88 380.92 401.56 364.36 544.98 447.17 401.56 529.98"/><path class="cls-2" d="M286.83,0,86.05,115.93,372.88,281.55,573.66,165.62ZM143.42,115.93,286.83,33.12,516.3,165.62,372.88,248.43Z"/><polygon class="cls-3" points="286.83 33.12 286.83 66.25 172.1 132.49 143.42 115.93 229.47 66.25 286.83 33.12"/><polygon class="cls-1" points="516.3 165.62 487.62 182.18 286.83 66.25 286.83 33.12 516.3 165.62"/><polygon class="cls-4" points="172.1 132.49 286.83 66.25 487.62 182.18 372.88 248.43 172.1 132.49"/><polygon class="cls-5" points="200.78 380.92 229.47 364.36 315.52 414.04 286.83 430.61 200.78 380.92"/><polygon class="cls-1" points="86.05 414.04 0 364.36 0 314.67 14.34 322.95 14.34 356.08 86.05 397.48 86.05 414.04"/><polygon class="cls-2" points="28.68 347.8 86.05 380.92 86.05 397.48 14.34 356.08 28.68 347.8"/><polygon class="cls-1" points="28.68 331.23 86.05 364.36 86.05 380.92 28.68 347.8 28.68 331.23"/><polygon class="cls-2" points="43.02 322.95 86.05 347.8 86.05 364.36 28.68 331.23 43.02 322.95"/><polygon class="cls-1" points="43.02 306.39 86.05 331.23 86.05 347.8 43.02 322.95 43.02 306.39"/><polygon class="cls-2" points="57.37 298.11 86.05 314.67 86.05 331.23 43.02 306.39 57.37 298.11"/><polygon class="cls-1" points="57.37 281.55 86.05 298.11 86.05 314.67 57.37 298.11 57.37 281.55"/><polygon class="cls-2" points="71.71 273.27 57.37 281.55 86.05 298.11 86.05 281.55 71.71 273.27"/><polygon class="cls-1" points="71.71 256.71 71.71 273.27 86.05 281.55 86.05 264.99 71.71 256.71"/><polygon class="cls-2" points="86.05 248.43 71.71 256.71 86.05 264.99 86.05 248.43"/><polygon class="cls-2" points="86.05 231.86 14.34 322.95 0 314.67 86.01 205.78 86.05 231.86"/><polygon class="cls-4" points="86.05 248.43 86.05 231.86 14.34 322.95 14.34 356.08 28.68 347.8 28.68 331.23 43.02 322.95 43.02 306.39 57.37 298.11 57.37 281.55 71.71 273.27 71.71 256.71 86.05 248.43"/><polygon class="cls-5" points="86.05 397.48 43.02 322.95 43.01 285.97 35.01 270.35 86.01 205.78 86.05 397.48"/><polygon class="cls-6" points="433.65 448 451.11 458.08 433.65 468.16 416.19 458.08 433.65 448"/><rect class="cls-7" x="431.42" y="432.89" width="5" height="26.5" rx="2.5" ry="2.5"/><path class="cls-8" d="M469.88,430.72v3.59C469.66,443,453.51,450,433.62,450s-36.11-7-36.26-15.75v-3.53c0-8.77,16.23-12.47,36.26-12.47S469.88,422,469.88,430.72Z"/><ellipse class="cls-6" cx="433.62" cy="430.72" rx="36.26" ry="15.88"/><polygon class="cls-5" points="466.61 401.91 466.61 335.67 495.29 319.11 487.62 314.67 372.88 380.92 229.47 298.11 229.47 364.36 380.56 451.6 466.61 401.91"/><polygon class="cls-2" points="368.49 477.75 540.59 378.38 545.01 380.93 372.92 480.3 368.49 477.75"/><polygon class="cls-9" points="416.2 458.08 416.2 458.94 416.2 460.16 433.66 470.24 433.66 468.16 416.2 458.08"/><polygon class="cls-8" points="433.66 468.16 433.66 470.24 451.12 460.16 451.12 458.08 433.66 468.16"/><polygon class="cls-10" points="401.56 463.73 545.01 380.93 544.98 447.17 401.56 529.98 401.56 463.73"/><polyline class="cls-2" points="118.72 356.23 164.88 382.88 164.88 374.46 126.06 352.05"/><polygon class="cls-11" points="126.06 265.22 126.06 352.05 164.88 374.46 164.88 287.63 126.06 265.22"/><polygon class="cls-3" points="118.72 260.98 118.72 356.23 126.06 352.05 126.06 265.22 118.72 260.98"/><polygon class="cls-12" points="165.13 340.26 164.88 287.63 122.3 262.93 122.55 315.56 165.13 340.26"/></g></g></svg>