<svg xmlns="http://www.w3.org/2000/svg" viewBox="0 0 238.86 367.11"><defs><style>.cls-1{fill:#ff8467;}.cls-2{fill:#d85237;}.cls-3{fill:#ffab7e;}.cls-4{fill:#65d6b1;}.cls-5{fill:#46a983;}.cls-6{fill:#8cecc8;}.cls-7{fill:#1d7ac1;}.cls-8{fill:#3398f9;}.cls-10,.cls-9{fill:#621f15;}.cls-10{opacity:0.53;}.cls-11{fill:none;}</style></defs><title>iso01</title><g id="Calque_2" data-name="Calque 2"><g id="Calque_1-2" data-name="Calque 1"><polygon class="cls-1" points="219.6 61.97 219.6 247.87 192.77 263.36 192.77 77.46 219.6 61.97"/><polygon class="cls-2" points="165.94 247.87 192.77 263.36 192.77 77.46 165.94 61.97 165.94 247.87"/><polygon class="cls-3" points="192.77 46.48 219.6 61.97 192.77 77.46 165.94 61.97 192.77 46.48"/><polygon class="cls-4" points="224.58 53.5 224.58 62.69 192.77 81.05 192.77 71.87 224.58 53.5"/><polygon class="cls-5" points="160.97 62.69 192.77 81.05 192.77 71.87 160.97 53.5 160.97 62.69"/><polygon class="cls-6" points="192.77 35.14 224.58 53.5 192.77 71.87 160.97 53.5 192.77 35.14"/><polygon class="cls-7" points="165.94 54.22 192.77 0 192.77 69.71 165.94 54.22"/><polygon class="cls-8" points="219.6 54.22 192.77 0 192.77 69.71 219.6 54.22"/><path class="cls-9" d="M214.45,123.84c0-2.4-.72-4.19-1.94-5.23a6.79,6.79,0,0,0-5.54,1h0c-4.92,2.84-8.9,9.71-8.9,15.34V149l16.38-9.46Z"/><polygon class="cls-3" points="198.07 148.99 198.07 150.6 215.86 140.33 214.45 139.53 198.07 148.99"/><path class="cls-2" d="M212.51,118.61c1.22,1,1.94,2.83,1.94,5.23v15.69l1.41.8V124.65C215.86,121.42,214.55,119.3,212.51,118.61Z"/><path class="cls-9" d="M171,123.22a6.67,6.67,0,0,1,1.95-5.24,6.84,6.84,0,0,1,5.54,1h0c4.92,2.84,8.9,9.7,8.9,15.34v14.06L171,138.9Z"/><polygon class="cls-3" points="187.36 148.37 187.36 149.98 169.56 139.71 170.97 138.9 187.36 148.37"/><path class="cls-1" d="M172.92,118a6.67,6.67,0,0,0-1.95,5.24V138.9l-1.41.81V124C169.56,120.79,170.87,118.67,172.92,118Z"/><path class="cls-9" d="M214,224.14A6.69,6.69,0,0,0,212,218.9a6.83,6.83,0,0,0-5.55,1h0c-4.91,2.83-8.89,9.7-8.89,15.33V259L214,249.53Z"/><polygon class="cls-3" points="197.58 258.99 197.58 260.61 215.37 250.34 213.96 249.53 197.58 258.99"/><path class="cls-2" d="M212,218.9a6.69,6.69,0,0,1,1.94,5.24v25.39l1.41.8V224.94C215.37,221.71,214.06,219.59,212,218.9Z"/><polygon class="cls-1" points="195.25 87.99 195.25 93.33 207.88 86.04 207.88 80.71 195.25 87.99"/><polygon class="cls-2" points="194.55 92.93 195.25 93.33 195.25 87.99 194.55 87.59 194.55 92.93"/><polygon class="cls-3" points="207.17 80.31 194.55 87.59 195.25 87.99 207.88 80.71 207.17 80.31"/><polygon class="cls-2" points="188.78 100.57 188.78 105.91 176.16 98.62 176.16 93.28 188.78 100.57"/><polygon class="cls-1" points="189.49 105.5 188.78 105.91 188.78 100.57 189.49 100.17 189.49 105.5"/><polygon class="cls-3" points="176.87 92.88 189.49 100.17 188.78 100.57 176.16 93.28 176.87 92.88"/><polygon class="cls-10" points="194.79 99.4 194.79 102.4 201.88 98.3 201.88 95.3 194.79 99.4"/><polygon class="cls-10" points="197.66 204.78 197.66 207.78 204.76 203.68 204.76 200.68 197.66 204.78"/><polygon class="cls-10" points="209.35 154.44 209.35 157.44 216.44 153.34 216.44 150.34 209.35 154.44"/><polygon class="cls-10" points="185.03 91.01 185.03 94.01 177.94 89.91 177.94 86.91 185.03 91.01"/><polygon class="cls-10" points="176.52 156.37 176.52 159.37 169.43 155.28 169.43 152.28 176.52 156.37"/><polygon class="cls-10" points="190.97 116.73 190.97 119.73 183.87 115.64 183.87 112.64 190.97 116.73"/><polygon class="cls-10" points="176.2 103.58 176.2 106.58 169.1 102.49 169.1 99.49 176.2 103.58"/><polygon class="cls-10" points="179.18 81.17 179.18 85.32 169.37 79.65 169.37 75.51 179.18 81.17"/><polygon class="cls-10" points="203.89 149.75 203.89 153.89 213.7 148.23 213.7 144.08 203.89 149.75"/><polygon class="cls-10" points="203.89 109.9 203.89 114.05 213.7 108.39 213.7 104.24 203.89 109.9"/><polygon class="cls-10" points="207.99 208.11 207.99 212.26 217.8 206.59 217.8 202.45 207.99 208.11"/><polygon class="cls-10" points="188.78 154.03 188.78 158.17 178.97 152.51 178.97 148.37 188.78 154.03"/><polygon class="cls-10" points="190.97 201.44 190.97 205.59 181.16 199.92 181.16 195.78 190.97 201.44"/><polygon class="cls-1" points="206.73 91.68 206.73 95.75 216.36 90.19 216.36 86.12 206.73 91.68"/><polygon class="cls-2" points="206.19 95.45 206.73 95.75 206.73 91.68 206.19 91.37 206.19 95.45"/><polygon class="cls-3" points="215.82 85.81 206.19 91.37 206.73 91.68 216.36 86.12 215.82 85.81"/><polygon class="cls-1" points="197.02 160.79 197.02 164.86 206.65 159.3 206.65 155.22 197.02 160.79"/><polygon class="cls-2" points="196.48 164.56 197.02 164.86 197.02 160.79 196.48 160.48 196.48 164.56"/><polygon class="cls-3" points="206.11 154.92 196.48 160.48 197.02 160.79 206.65 155.22 206.11 154.92"/><path class="cls-9" d="M214.51,169.29a6.69,6.69,0,0,0-1.94-5.24,6.83,6.83,0,0,0-5.55,1h0c-4.91,2.83-8.89,9.7-8.89,15.33v14.07L214.51,185Z"/><polygon class="cls-3" points="198.13 194.43 198.13 196.05 215.92 185.77 214.51 184.97 198.13 194.43"/><path class="cls-2" d="M212.57,164.05a6.69,6.69,0,0,1,1.94,5.24V185l1.41.8V170.09C215.92,166.86,214.61,164.74,212.57,164.05Z"/><path class="cls-1" d="M173,163.37A6.65,6.65,0,0,0,171,168.6v15.69l-1.41.8V169.41C169.62,166.18,170.93,164.06,173,163.37Z"/><path class="cls-1" d="M173,208.75A6.65,6.65,0,0,0,171,214v15.68l-1.41.81V214.79C169.62,211.56,170.93,209.44,173,208.75Z"/><line class="cls-11" x1="215.37" y1="250.33" x2="238.86" y2="263.9"/><polygon class="cls-3" points="197.58 240.06 197.58 260.58 221.09 274.16 238.86 263.9 197.58 240.06"/><polygon class="cls-1" points="58.64 232.33 179.37 162.73 179.37 255.56 58.64 325.28 58.64 232.33"/><polygon class="cls-3" points="152.54 147.18 154.05 148.05 179.37 162.73 58.64 232.33 58.64 201.4 152.54 147.18"/><polygon class="cls-10" points="139.37 199.62 139.37 203.77 149.17 198.1 149.17 193.96 139.37 199.62"/><polygon class="cls-10" points="164.72 235.38 164.72 239.52 174.53 233.86 174.53 229.71 164.72 235.38"/><polygon class="cls-10" points="86.98 224.36 86.98 228.51 96.78 222.85 96.78 218.7 86.98 224.36"/><polygon class="cls-10" points="67.15 261.37 67.15 265.51 76.95 259.85 76.95 255.71 67.15 261.37"/><polygon class="cls-10" points="85.47 289.08 85.47 293.23 95.27 287.56 95.27 283.42 85.47 289.08"/><polygon class="cls-10" points="144.27 253.76 144.27 257.9 154.08 252.24 154.08 248.09 144.27 253.76"/><polygon class="cls-10" points="146.98 233.21 146.98 236.21 154.08 232.12 154.08 229.12 146.98 233.21"/><polygon class="cls-10" points="72.05 309.31 72.05 312.31 79.14 308.21 79.14 305.21 72.05 309.31"/><polygon class="cls-10" points="76.95 277.79 76.95 280.79 84.05 276.7 84.05 273.7 76.95 277.79"/><polygon class="cls-10" points="162.41 202.65 162.41 205.65 169.5 201.55 169.5 198.55 162.41 202.65"/><polygon class="cls-10" points="170.78 252.29 170.78 255.29 177.88 251.2 177.88 248.2 170.78 252.29"/><polygon class="cls-10" points="75.6 243.85 75.6 246.85 82.69 242.75 82.69 239.75 75.6 243.85"/><polygon class="cls-10" points="115.94 212.11 115.94 215.11 123.03 211.01 123.03 208.01 115.94 212.11"/><polygon class="cls-1" points="58.64 154.92 58.64 340.82 31.81 356.31 31.81 170.41 58.64 154.92"/><polygon class="cls-2" points="4.98 340.82 31.81 356.31 31.81 170.41 4.98 154.92 4.98 340.82"/><polygon class="cls-3" points="31.81 139.43 58.64 154.92 31.81 170.41 4.98 154.92 31.81 139.43"/><polygon class="cls-4" points="63.61 146.46 63.61 155.64 31.81 174.01 31.81 164.82 63.61 146.46"/><polygon class="cls-5" points="0 155.64 31.81 174.01 31.81 164.82 0 146.46 0 155.64"/><polygon class="cls-6" points="31.81 128.09 63.61 146.46 31.81 164.82 0 146.46 31.81 128.09"/><polygon class="cls-7" points="4.98 147.18 31.81 92.96 31.81 162.67 4.98 147.18"/><polygon class="cls-8" points="58.64 147.18 31.81 92.96 31.81 162.67 58.64 147.18"/><path class="cls-9" d="M53.49,216.8a6.67,6.67,0,0,0-2-5.24,6.84,6.84,0,0,0-5.54,1h0c-4.92,2.84-8.9,9.7-8.9,15.34v14.06l16.39-9.46Z"/><polygon class="cls-3" points="37.1 241.94 37.1 243.56 54.9 233.29 53.49 232.48 37.1 241.94"/><path class="cls-2" d="M51.54,211.56a6.67,6.67,0,0,1,2,5.24v15.68l1.41.81V217.6C54.9,214.37,53.59,212.25,51.54,211.56Z"/><path class="cls-9" d="M10,216.18A6.69,6.69,0,0,1,12,210.94a6.85,6.85,0,0,1,5.55,1h0c4.91,2.84,8.89,9.71,8.89,15.34v14.07L10,231.86Z"/><polygon class="cls-3" points="26.39 241.32 26.39 242.94 8.6 232.66 10.01 231.86 26.39 241.32"/><path class="cls-1" d="M12,210.94A6.69,6.69,0,0,0,10,216.18v15.68l-1.41.8V217C8.6,213.75,9.91,211.63,12,210.94Z"/><path class="cls-9" d="M53,317.09a6.65,6.65,0,0,0-2-5.23c-1.52-.52-3.44-.24-5.54,1h0c-4.92,2.84-8.9,9.71-8.9,15.34V352L53,342.49Z"/><polygon class="cls-3" points="36.61 351.95 36.61 353.57 54.41 343.29 53 342.49 36.61 351.95"/><path class="cls-2" d="M51.05,311.86a6.65,6.65,0,0,1,2,5.23v25.4l1.41.8V317.9C54.41,314.67,53.1,312.55,51.05,311.86Z"/><polygon class="cls-1" points="34.29 180.95 34.29 186.29 46.91 179 46.91 173.66 34.29 180.95"/><polygon class="cls-2" points="33.58 185.88 34.29 186.29 34.29 180.95 33.58 180.55 33.58 185.88"/><polygon class="cls-3" points="46.2 173.26 33.58 180.55 34.29 180.95 46.91 173.66 46.2 173.26"/><polygon class="cls-2" points="21.86 298.36 21.86 303.7 9.24 296.41 9.24 291.07 21.86 298.36"/><polygon class="cls-1" points="22.57 303.3 21.86 303.7 21.86 298.36 22.57 297.96 22.57 303.3"/><polygon class="cls-3" points="9.95 290.67 22.57 297.96 21.86 298.36 9.24 291.07 9.95 290.67"/><polygon class="cls-2" points="27.82 193.53 27.82 198.86 15.2 191.58 15.2 186.24 27.82 193.53"/><polygon class="cls-1" points="28.52 198.46 27.82 198.86 27.82 193.53 28.52 193.12 28.52 198.46"/><polygon class="cls-3" points="15.9 185.84 28.52 193.12 27.82 193.53 15.2 186.24 15.9 185.84"/><polygon class="cls-10" points="33.82 192.35 33.82 195.35 40.92 191.26 40.92 188.26 33.82 192.35"/><polygon class="cls-10" points="36.7 297.73 36.7 300.73 43.79 296.64 43.79 293.64 36.7 297.73"/><polygon class="cls-10" points="48.38 247.4 48.38 250.4 55.48 246.3 55.48 243.3 48.38 247.4"/><polygon class="cls-10" points="24.07 183.97 24.07 186.97 16.97 182.87 16.97 179.87 24.07 183.97"/><polygon class="cls-10" points="15.56 249.33 15.56 252.33 8.46 248.23 8.46 245.23 15.56 249.33"/><polygon class="cls-10" points="30 209.69 30 212.69 22.91 208.59 22.91 205.6 30 209.69"/><polygon class="cls-10" points="15.23 196.54 15.23 199.54 8.14 195.45 8.14 192.45 15.23 196.54"/><polygon class="cls-10" points="18.21 174.13 18.21 178.27 8.4 172.61 8.4 168.46 18.21 174.13"/><polygon class="cls-10" points="42.92 242.7 42.92 246.85 52.73 241.19 52.73 237.04 42.92 242.7"/><polygon class="cls-10" points="42.92 202.86 42.92 207.01 52.73 201.34 52.73 197.2 42.92 202.86"/><polygon class="cls-10" points="47.02 301.07 47.02 305.21 56.83 299.55 56.83 295.4 47.02 301.07"/><polygon class="cls-10" points="27.81 246.98 27.81 251.13 18 245.47 18 241.32 27.81 246.98"/><polygon class="cls-10" points="30 294.39 30 298.54 20.2 292.88 20.2 288.73 30 294.39"/><polygon class="cls-1" points="45.76 184.64 45.76 188.71 55.4 183.15 55.4 179.07 45.76 184.64"/><polygon class="cls-2" points="45.22 188.41 45.76 188.71 45.76 184.64 45.22 184.33 45.22 188.41"/><polygon class="cls-3" points="54.86 178.77 45.22 184.33 45.76 184.64 55.4 179.07 54.86 178.77"/><polygon class="cls-1" points="36.05 253.74 36.05 257.82 45.69 252.25 45.69 248.18 36.05 253.74"/><polygon class="cls-2" points="35.51 257.51 36.05 257.82 36.05 253.74 35.51 253.44 35.51 257.51"/><polygon class="cls-3" points="45.15 247.87 35.51 253.44 36.05 253.74 45.69 248.18 45.15 247.87"/><path class="cls-9" d="M53.55,262.24A6.65,6.65,0,0,0,51.6,257c-1.52-.52-3.44-.24-5.54,1h0c-4.92,2.84-8.9,9.71-8.9,15.34v14.07l16.39-9.46Z"/><polygon class="cls-3" points="37.16 287.39 37.16 289.01 54.96 278.73 53.55 277.93 37.16 287.39"/><path class="cls-2" d="M51.6,257a6.65,6.65,0,0,1,1.95,5.23v15.69l1.41.8V263.05C55,259.82,53.65,257.7,51.6,257Z"/><path class="cls-9" d="M10.07,261.56A6.67,6.67,0,0,1,12,256.32a6.84,6.84,0,0,1,5.54,1h0c4.92,2.84,8.9,9.7,8.9,15.34v14.07l-16.38-9.47Z"/><polygon class="cls-3" points="26.45 286.7 26.45 288.32 8.66 278.05 10.07 277.25 26.45 286.7"/><path class="cls-1" d="M12,256.32a6.67,6.67,0,0,0-1.94,5.24v15.68l-1.41.81V262.36C8.66,259.13,10,257,12,256.32Z"/><path class="cls-9" d="M10.07,306.94c0-2.4.72-4.19,1.94-5.23a6.79,6.79,0,0,1,5.54,1h0c4.92,2.84,8.9,9.71,8.9,15.34v14.07l-16.38-9.46Z"/><polygon class="cls-3" points="26.45 332.09 26.45 333.71 8.66 323.43 10.07 322.63 26.45 332.09"/><path class="cls-1" d="M12,301.71c-1.22,1-1.94,2.83-1.94,5.23v15.69l-1.41.8V307.75C8.66,304.52,10,302.4,12,301.71Z"/><line class="cls-11" x1="54.41" y1="343.29" x2="77.9" y2="356.85"/><polygon class="cls-3" points="36.61 333.02 36.61 353.54 60.13 367.12 77.9 356.86 36.61 333.02"/><path class="cls-9" d="M134.9,227c0-5-1.36-8.85-3.68-11.33-3.33-.73-7.37,0-11.73,2.56h0c-11.38,6.57-20.61,22.48-20.61,35.52v42.39l36-20.8Z"/><polygon class="cls-3" points="98.88 296.14 98.88 302.09 140.09 278.3 134.9 275.34 98.88 296.14"/><path class="cls-2" d="M131.22,215.67c2.32,2.48,3.68,6.33,3.68,11.33v48.34l5.19,3V230C140.09,221.91,136.58,216.84,131.22,215.67Z"/><polygon class="cls-3" points="152.54 147.18 165.94 139.43 165.89 154.92 152.54 147.18"/><polygon class="cls-3" points="98.88 254.24 98.88 302.02 153.65 333.64 195.03 309.75 98.88 254.24"/><polygon class="cls-1" points="70.08 216.41 70.08 225.74 88.05 215.37 88.05 206.04 70.08 216.41"/><polygon class="cls-3" points="84.04 203.76 66.08 214.13 70.08 216.41 88.05 206.04 84.04 203.76"/><polygon class="cls-2" points="66.08 223.46 70.08 225.74 70.08 216.41 66.08 214.13 66.08 223.46"/><polygon class="cls-1" points="96.78 201.11 96.78 210.44 114.75 200.07 114.75 190.74 96.78 201.11"/><polygon class="cls-3" points="110.75 188.46 92.78 198.83 96.78 201.11 114.75 190.74 110.75 188.46"/><polygon class="cls-2" points="92.78 208.17 96.78 210.44 96.78 201.11 92.78 198.83 92.78 208.17"/><polygon class="cls-1" points="123.49 185.82 123.49 195.15 141.45 184.78 141.45 175.44 123.49 185.82"/><polygon class="cls-3" points="137.45 173.17 119.48 183.54 123.49 185.82 141.45 175.44 137.45 173.17"/><polygon class="cls-2" points="119.48 192.87 123.49 195.15 123.49 185.82 119.48 183.54 119.48 192.87"/><polygon class="cls-1" points="150.19 170.52 150.19 179.85 168.15 169.48 168.15 160.15 150.19 170.52"/><polygon class="cls-3" points="164.15 157.87 146.19 168.24 150.19 170.52 168.15 160.15 164.15 157.87"/><polygon class="cls-2" points="146.19 177.57 150.19 179.85 150.19 170.52 146.19 168.24 146.19 177.57"/></g></g></svg>