<svg xmlns="http://www.w3.org/2000/svg" xmlns:xlink="http://www.w3.org/1999/xlink" viewBox="0 0 1000 566.57"><defs><style>.cls-1{fill:#1b1a33;}.cls-2{fill:url(#Dégradé_sans_nom_29);}.cls-3{fill:#f4136b;}.cls-4{fill:#80c41c;}.cls-5{fill:#01a0c6;}</style><linearGradient id="Dégradé_sans_nom_29" x1="296.44" y1="83.79" x2="296.44" y2="459.11" gradientUnits="userSpaceOnUse"><stop offset="0" stop-color="#f4136b"/><stop offset="0.48" stop-color="#80c41c"/><stop offset="1" stop-color="#01a0c6"/></linearGradient></defs><title>staysafe</title><g id="Calque_2" data-name="Calque 2"><g id="Calque_2-2" data-name="Calque 2"><rect class="cls-1" width="1000" height="566.57"/></g><g id="Calque_1-2" data-name="Calque 1"><path class="cls-2" d="M330.14,390.78c-.65-1.36-.47-2.77.33-3.23a47.39,47.39,0,0,0,7.81-5.06c.55-.49,1.21-.95,1.71-1.44s1.08-.94,1.56-1.46c1-1,1.92-2,2.81-3.11.48-.64,1.88-.42,3.09.47s1.73,2.21,1.16,3a44,44,0,0,1-6.92,6.84,53.56,53.56,0,0,1-8.69,5.64C332.1,392.9,330.79,392.14,330.14,390.78Zm13,6.31a2,2,0,0,0-.83,1.52,3.09,3.09,0,0,0,.47,2,2.44,2.44,0,0,0,3.38,1.06c.52-.35,1-.68,1.55-1l1.48-1.1c1-.71,1.95-1.52,2.91-2.31s.89-2.42-.12-3.52a2.55,2.55,0,0,0-3.4-.65c-.87.71-1.73,1.46-2.66,2.11l-1.36,1C344.08,396.47,343.6,396.77,343.13,397.09Zm-20.59,9.21a2.58,2.58,0,0,0-1.54,3.22,2.52,2.52,0,0,0,3,2,77.53,77.53,0,0,0,15.3-5.89,2.49,2.49,0,0,0,.75-3.48,2.57,2.57,0,0,0-3.24-1.38A72.18,72.18,0,0,1,322.54,406.3ZM387.24,391a81.45,81.45,0,0,1-10.57,15.41A84.72,84.72,0,0,1,363,419a99.07,99.07,0,0,1-32.66,15.59A3,3,0,0,0,328,438a2.93,2.93,0,0,0,3.74,1.84,104.49,104.49,0,0,0,34.46-16.47A90.14,90.14,0,0,0,380.79,410a87.54,87.54,0,0,0,11.28-16.45,3,3,0,0,0-.93-4.21A3.12,3.12,0,0,0,387.24,391Zm-.71,26.43c-.76.89-1.61,1.71-2.42,2.56s-1.62,1.7-2.49,2.48c-1.71,1.59-3.43,3.21-5.2,4.62a106.31,106.31,0,0,1-11.05,8,115.47,115.47,0,0,1-24,11.41,131,131,0,0,1-24.9,5.76,155.07,155.07,0,0,1-24.64,1.27,140.82,140.82,0,0,1-26-3c-3.14-.65-5.14-3.34-4.48-5.8h0c.66-2.45,3.52-3.8,6.4-3.21a132.81,132.81,0,0,0,25.62,2.86,141.22,141.22,0,0,0,25.54-1.76,3.17,3.17,0,0,0,2.84-2.79,2.9,2.9,0,0,0-3.53-2.63A134.31,134.31,0,0,1,298.08,439,136.27,136.27,0,0,1,278,437.78a4.68,4.68,0,0,1-4.23-5.32h0a4.85,4.85,0,0,1,5.46-3.81,133,133,0,0,0,26.9.77,128.57,128.57,0,0,0,13.38-1.76,110,110,0,0,0,13.11-3.36,101.46,101.46,0,0,0,12.58-5.13,90.23,90.23,0,0,0,11.65-7.05,74.87,74.87,0,0,0,18.9-19.61,2.73,2.73,0,0,0-4.57-3,69.34,69.34,0,0,1-20.15,20,85.74,85.74,0,0,1-26.27,11.4,110.16,110.16,0,0,1-14.22,2.62,134.93,134.93,0,0,1-14.5.81,113.78,113.78,0,0,1-28.68-3.57,4.33,4.33,0,0,1-2.92-5.63,4.56,4.56,0,0,1,5.27-3.28,99.11,99.11,0,0,0,20.9,3.12A114.86,114.86,0,0,0,312,414a2.52,2.52,0,0,0,2.15-2.62,2.68,2.68,0,0,0-2.77-2.8,109.38,109.38,0,0,1-16.27,1,104.49,104.49,0,0,1-16.14-1.37,3.47,3.47,0,0,1-2.44-1.8,5.14,5.14,0,0,1-.41-3.43h0a5.48,5.48,0,0,1,1.68-3,3.22,3.22,0,0,1,2.69-.9,87.06,87.06,0,0,0,10.76,1.13,100.78,100.78,0,0,0,11.13-.06A86.56,86.56,0,0,0,313.1,399a73.94,73.94,0,0,0,10.06-2.48,2.25,2.25,0,0,0,1.18-2.8c-.41-1.68-1.71-2.75-2.76-2.43a88.36,88.36,0,0,1-50,.17,52.16,52.16,0,0,1-19.11-10.55,36.57,36.57,0,0,1-10.32-15.66c-.26-.81-1.69-1.09-3.11-.67s-2.35,1.53-2,2.46a44.11,44.11,0,0,0,5.91,11.44,2.45,2.45,0,0,1,.16,2.41,6.56,6.56,0,0,1-1.95,2.74A5.39,5.39,0,0,1,238,385a3,3,0,0,1-2.54-1.06c-6.59-9-10.13-20.41-10.48-32.45a2.6,2.6,0,0,0-2.78-2.19,2.48,2.48,0,0,0-2.68,2.36,66.54,66.54,0,0,0,5,23.72,57,57,0,0,0,13.33,19.42,3.66,3.66,0,0,1,1.11,2.83,5,5,0,0,1-1.17,3.25,4.67,4.67,0,0,1-3.07,1.69,4.12,4.12,0,0,1-3.2-1.08,63.65,63.65,0,0,1-7.07-7.88l-.81-1.05-.75-1.1c-.49-.73-1-1.44-1.49-2.19-.91-1.52-1.86-3-2.66-4.59s-1.57-3.17-2.32-4.77c-.35-.82-.66-1.65-1-2.47l-.49-1.23-.43-1.26a74.21,74.21,0,0,1-2.76-10.28,2.86,2.86,0,0,0-2.7-2.38,2.72,2.72,0,0,0-2.69,3.24A76.61,76.61,0,0,0,214,387.54a5.54,5.54,0,0,1,.52,3.63,4.62,4.62,0,0,1-2,3h0a4.15,4.15,0,0,1-3.57.4,5.5,5.5,0,0,1-1.73-1,5.7,5.7,0,0,1-1.31-1.66,80.4,80.4,0,0,1-5.38-12.27,3.1,3.1,0,0,0-3.61-2.21c-1.46.44-2.15,2.22-1.55,4a91,91,0,0,0,6.71,14.88,87.41,87.41,0,0,0,9.51,13.45c2,2.43,2.45,5.66.64,7.49s-5.32,1.26-7.62-1.48a96.84,96.84,0,0,1-20-38.13c-.52-1.77-1.75-3.2-3.14-3.2-1.72,0-2.84,2.13-2.19,4.42a110.48,110.48,0,0,0,5,14.56,106.77,106.77,0,0,0,7.3,13.87A99,99,0,0,0,201,420c1.7,2,3.58,3.87,5.43,5.75.94.92,1.92,1.79,2.89,2.68l1.46,1.32,1.46,1.22,2.92,2.38,3,2.24c2,1.52,4.11,2.83,6.18,4.22a118.79,118.79,0,0,0,13,7.06,125.66,125.66,0,0,0,27.15,9,146.51,146.51,0,0,0,27.13,3.19,160,160,0,0,0,25.58-1.32,136,136,0,0,0,26-6,120.78,120.78,0,0,0,25.24-12c2-1.34,4-2.58,5.93-4.05l2.9-2.16c.94-.75,1.87-1.52,2.8-2.29,1.86-1.49,3.68-3.23,5.49-4.89.9-.85,1.76-1.76,2.63-2.65s1.74-1.77,2.55-2.72c1.61-1.82,1.7-4.24.12-5C389.62,415.29,387.77,416,386.53,417.44ZM349.1,319.25a43.32,43.32,0,0,0-6.75-6.94,51.83,51.83,0,0,0-8.55-5.77c-.92-.49-2.2.21-2.87,1.56s-.56,2.81.26,3.23a47.78,47.78,0,0,1,7.68,5.18,38.17,38.17,0,0,1,5.92,6.09,1.37,1.37,0,0,0,1.29.34,4.16,4.16,0,0,0,1.82-.76,3.83,3.83,0,0,0,1.3-1.52A1.4,1.4,0,0,0,349.1,319.25Zm7.35,45.81a49.09,49.09,0,0,0,1.95-9.44,59.6,59.6,0,0,0,.23-10A49,49,0,0,0,354,327.18c-.38-.89-1.85-1-3.18-.26s-2.07,1.85-1.75,2.61A43.75,43.75,0,0,1,353.19,346,54.77,54.77,0,0,1,353,355a43.48,43.48,0,0,1-1.73,8.42c-.26.81.65,1.86,2.08,2.37S356.16,366,356.45,365.06ZM350.5,300a2.49,2.49,0,0,0-3.46.82,2.53,2.53,0,0,0,.08,3.47c.85.73,1.77,1.42,2.58,2.17s1.67,1.46,2.4,2.27,2.33.63,3.45-.38a2.43,2.43,0,0,0,.42-3.47c-.81-.9-1.77-1.66-2.64-2.5S351.43,300.8,350.5,300Zm10.55,10.7a2.44,2.44,0,0,0-3.5-.05c-1.15,1-1.54,2.48-.85,3.36a52,52,0,0,1,7,12.35,2.59,2.59,0,0,0,3.31,1,2.42,2.42,0,0,0,1.75-3.05A57.83,57.83,0,0,0,361.05,310.7Zm7.84,23c-1.47.36-2.45,1.57-2.18,2.7a65.77,65.77,0,0,1,.07,25.32A54.76,54.76,0,0,1,357,384.07c-.7.88-.3,2.38.86,3.33a2.47,2.47,0,0,0,3.52-.07,60.21,60.21,0,0,0,10.72-24.57,71.32,71.32,0,0,0-.08-27.47A2.51,2.51,0,0,0,368.89,333.68ZM337.76,279a2.72,2.72,0,0,0,1.42,3.54,76.4,76.4,0,0,1,24.23,16.75,67.83,67.83,0,0,1,15.19,25,78.11,78.11,0,0,1,3.93,29.22,73.66,73.66,0,0,1-7.21,28.52,2.78,2.78,0,0,0,1.21,3.62,2.68,2.68,0,0,0,3.7-1.23A79.29,79.29,0,0,0,388,353.87a83.78,83.78,0,0,0-4.23-31.28,73.27,73.27,0,0,0-16.4-27,81.91,81.91,0,0,0-26-18A2.73,2.73,0,0,0,337.76,279ZM396,313.35a87.67,87.67,0,0,0-22.65-32.45,99.68,99.68,0,0,0-33.17-19.59,2.9,2.9,0,0,0-3.9,1.53,3,3,0,0,0,2.05,3.61A94.13,94.13,0,0,1,369.67,285a82.19,82.19,0,0,1,21.24,30.43,3.1,3.1,0,0,0,3.7,2A3,3,0,0,0,396,313.35Zm-2.69,63.13a3.05,3.05,0,0,0,1.57,3.9c1.41.51,3.09-.5,3.65-2.29a96.9,96.9,0,0,0,4.22-25.78l.06-3.24-.07-3.23,0-1.62-.11-1.62-.25-3.24a98.7,98.7,0,0,0-2.17-12.92,3,3,0,0,0-3.46-2.53,3.1,3.1,0,0,0-1.85,3.79,94,94,0,0,1,2.05,12.19l.23,3.07.11,1.53,0,1.53.07,3.06-.06,3.07A91.08,91.08,0,0,1,393.28,376.48ZM363.51,262.23l1.68,1,1.65,1.08c1.1.74,2.2,1.45,3.27,2.22,2.14,1.56,4.27,3.12,6.29,4.85s4,3.54,6,5.38,3.82,3.88,5.57,6a93.1,93.1,0,0,1,9.58,13.2,95.35,95.35,0,0,1,7.19,14.54,99,99,0,0,1,4.69,15.32,102.84,102.84,0,0,1,2.26,15.58c.23,2.61.23,5.18.3,7.77s-.05,5.16-.29,7.77a102.76,102.76,0,0,1-2.23,15.58c-.45,2,.36,3.88,1.81,4.26s3-1,3.53-3.08a111.35,111.35,0,0,0,2.34-16.39c.24-2.73.23-5.43.3-8.14s-.07-5.42-.32-8.15a108.82,108.82,0,0,0-2.37-16.39,104.53,104.53,0,0,0-4.95-16.14,99.85,99.85,0,0,0-7.59-15.34,98.79,98.79,0,0,0-10.11-14c-1.86-2.21-3.87-4.26-5.9-6.3s-4.18-4-6.33-5.68-4.37-3.46-6.62-5.11c-1.13-.81-2.29-1.55-3.44-2.32l-1.73-1.14-1.77-1.06c-1.81-1.08-3.87-.88-4.6.45S361.8,261.21,363.51,262.23Zm42.91,121.23a95.84,95.84,0,0,1-7.25,16.34c-1,1.82-.88,3.86.42,4.67s3.3-.06,4.34-2a101.47,101.47,0,0,0,7.66-17.25c.74-2.05,0-4.08-1.42-4.5S407.11,381.54,406.42,383.46Zm-169-98.22A110.57,110.57,0,0,1,220,274.51,97.5,97.5,0,0,1,204.46,260c-1.39-1.56-3.36-2.17-4.56-1.24s-1.07,3.13.42,4.8a102.77,102.77,0,0,0,16.4,15.31A114.73,114.73,0,0,0,235,290.13c1.87.89,3.89.48,4.51-.89S239.22,286.08,237.45,285.24ZM315.71,300a86.34,86.34,0,0,0-11.14-1.61c-.94-.12-1.92-.12-2.88-.19s-1.94-.11-2.92-.11l-7.52-.14a155,155,0,0,1-17.82-1.61,133.87,133.87,0,0,1-18-4.07c-1.82-.56-3.7.13-4.18,1.56s.68,3.08,2.6,3.67a141.71,141.71,0,0,0,18.7,4.24,162.79,162.79,0,0,0,18.49,1.67l7.56.14c.93,0,1.85.05,2.76.11s1.84.06,2.73.17a80,80,0,0,1,10.44,1.51c1,.23,2.14-.79,2.5-2.25S316.82,300.28,315.71,300Zm-88.6-38.55a3,3,0,0,0-4.19.09c-1,1.14-.63,3,.81,4.19s2.84,2.14,4.26,3.2,2.95,2,4.43,2.94a2.76,2.76,0,1,0,2.9-4.62c-1.4-.92-2.8-1.83-4.18-2.79S228.42,262.53,227.11,261.48Zm17.53,10.93a3,3,0,0,0-4,1,2.94,2.94,0,0,0,1.67,3.89,112.15,112.15,0,0,0,21,7.6A2.9,2.9,0,0,0,267,283a3,3,0,0,0-2.36-3.37A106.7,106.7,0,0,1,244.64,272.41Zm34.88,10a2.94,2.94,0,0,0-3.39,2.3,2.91,2.91,0,0,0,2.72,3.12c1.54.23,3.08.32,4.62.48s3.07.24,4.6.33,3.07.17,4.59.18l4.33.07a104.13,104.13,0,0,1,13.88,1,81.35,81.35,0,0,1,25.42,7.57c1,.57,2.48-.06,3.21-1.38a2.52,2.52,0,0,0-.77-3.5,86.73,86.73,0,0,0-27.11-8.1,110.36,110.36,0,0,0-14.59-1l-4.24-.07c-1.47,0-3-.09-4.42-.18s-2.95-.15-4.42-.31S281,282.61,279.52,282.39Zm-60.6-47.46a2.65,2.65,0,0,0-.72,3.82,70.11,70.11,0,0,0,10.5,12,83.12,83.12,0,0,0,12.72,9.46,94,94,0,0,0,29.34,11.39,120.06,120.06,0,0,0,15.55,2.23c2.61.15,5.22.32,7.83.33l3.84.07c1.26,0,2.51,0,3.76.1a109.12,109.12,0,0,1,29.41,5.16,2.73,2.73,0,0,0,1.72-5.18A114.81,114.81,0,0,0,302,268.86c-1.31-.08-2.61-.06-3.92-.1l-3.83-.07c-2.51,0-5-.17-7.51-.32a113.24,113.24,0,0,1-14.82-2.12,88.32,88.32,0,0,1-27.65-10.73,76.68,76.68,0,0,1-11.88-8.82,65.41,65.41,0,0,1-9.69-11.06A2.8,2.8,0,0,0,218.92,234.93Zm52.91,16.25a71.06,71.06,0,0,1-23.42-10.42l-2.53-1.85c-.82-.64-1.61-1.32-2.42-2s-1.47-1.35-2.22-2l-2.09-2.12a50,50,0,0,1-7-9.62c-.52-1-2-1.24-3.39-.57a2.48,2.48,0,0,0-1.37,3.24,55.41,55.41,0,0,0,7.74,10.66c.78.78,1.53,1.58,2.32,2.35s1.6,1.49,2.45,2.22,1.75,1.45,2.64,2.15,1.82,1.35,2.75,2a76.56,76.56,0,0,0,25.19,11.22,2.53,2.53,0,0,0,2.95-2.11A2.61,2.61,0,0,0,271.83,251.18Zm51.9,11.14a3,3,0,0,0,3.61-2,2.9,2.9,0,0,0-2.47-3.34,132,132,0,0,0-24.45-2.85l-5.65-.11c-1.56,0-3.11,0-4.65-.15l-2.31-.13-2.29-.22c-1.53-.11-3-.35-4.54-.54a2.62,2.62,0,0,0-2.73,2.33,2.54,2.54,0,0,0,1.95,3.08c1.59.2,3.18.45,4.79.57l2.41.23,2.43.13c1.61.12,3.24.14,4.87.16l5.56.1A127.54,127.54,0,0,1,323.73,262.32Zm-77.32-35.27c.43.42.82.88,1.26,1.29l1.33,1.21c.44.41,1,.82,1.49,1.24s1,.84,1.55,1.21a53.48,53.48,0,0,0,6.72,4.32,63.11,63.11,0,0,0,7.48,3.46,74.25,74.25,0,0,0,8.18,2.55,89.83,89.83,0,0,0,17.94,2.44l5.18.09c2.36,0,4.72.06,7.11.23,4.75.21,9.55.76,14.36,1.44,1.83.31,3.54-.63,3.81-2.12s-1.07-3-3-3.28c-5-.7-10-1.28-14.89-1.5-2.47-.16-4.91-.19-7.36-.23l-5-.09A84.69,84.69,0,0,1,275.73,237a71.34,71.34,0,0,1-7.54-2.35,57.48,57.48,0,0,1-6.82-3.15,48.06,48.06,0,0,1-6.05-3.89c-.49-.34-.94-.71-1.39-1.09s-1-.74-1.33-1.1-.76-.71-1.15-1.06-.72-.75-1.1-1.11c-.57-.54-1.87-.25-3,.75S245.74,226.42,246.41,227.05Zm82.88,21.47a128.26,128.26,0,0,1,15.91,4.82c1.8.68,3.73.19,4.32-1.21s-.48-3.18-2.39-3.89a133.66,133.66,0,0,0-16.6-5c-1.92-.43-3.73.44-4,1.92S327.46,248.11,329.29,248.52ZM199.71,133.3a94,94,0,0,1,14.57-15.9,108.23,108.23,0,0,1,16.81-11.93c1.71-1,2.57-2.79,1.86-4.14s-2.78-1.67-4.58-.59a112.61,112.61,0,0,0-17.66,12.54,99.67,99.67,0,0,0-15.42,16.82c-1.28,1.82-1.27,4,0,4.82S198.52,135,199.71,133.3ZM186.3,227.77A108.19,108.19,0,0,1,181,189.46a105.39,105.39,0,0,1,8.48-38.15c.85-1.87.47-3.93-.89-4.59s-3.21.41-4.12,2.41a111,111,0,0,0-8.92,40.13,115.94,115.94,0,0,0,1,20.08,110.94,110.94,0,0,0,4.66,20.16c.69,2.06,2.43,3.28,3.85,2.74S187,229.71,186.3,227.77ZM225.56,127.1a3.08,3.08,0,0,0,.78-4.13c-.92-1.22-2.83-1.25-4.25-.08s-2.74,2.34-4.09,3.58-2.61,2.58-3.9,3.88-1.36,3.38-.23,4.34a3.1,3.1,0,0,0,4.2-.6c1.21-1.21,2.37-2.5,3.66-3.63S224.25,128.13,225.56,127.1Zm-14.43,15.47a3.12,3.12,0,0,0-.24-4.24c-1.17-.92-3.14-.49-4.21,1.08a87.86,87.86,0,0,0-10.88,20.83c-.61,1.77.07,3.57,1.51,4a3,3,0,0,0,3.62-2.16A83,83,0,0,1,211.13,142.57Zm-14.2,34.77a3.09,3.09,0,0,0-2.1-3.64,3,3,0,0,0-3.28,2.71,102.56,102.56,0,0,0-1.42,19.41,100.35,100.35,0,0,0,2.26,19.41,88.78,88.78,0,0,0,16.89,36.13,3,3,0,0,0,4.25.87c1.15-1,1.09-2.84,0-4.25a83.38,83.38,0,0,1-15.84-33.92,94.42,94.42,0,0,1-2.13-18.35A96.25,96.25,0,0,1,196.93,177.34Zm52.43-54.47a81.4,81.4,0,0,0-25.54,18.58A72.52,72.52,0,0,0,208.32,169,85.65,85.65,0,0,0,205,200.41a79,79,0,0,0,8.41,30.45,2.68,2.68,0,0,0,3.71,1.15,2.77,2.77,0,0,0,1.14-3.66A73.65,73.65,0,0,1,210.47,200a80.4,80.4,0,0,1,3.07-29.37,67.13,67.13,0,0,1,14.33-25.52,70,70,0,0,1,11-9.79,81.15,81.15,0,0,1,12.79-7.51A2.79,2.79,0,0,0,253,124.2,2.67,2.67,0,0,0,249.36,122.87Zm-24.11,50.38c1.44.45,2.91-.06,3.26-1.15a51.16,51.16,0,0,1,12.93-19.91c.76-.66,1.42-1.35,2.24-2s1.59-1.35,2.44-2,1.66-1.27,2.54-1.84,1.73-1.18,2.63-1.72A69.32,69.32,0,0,1,262.74,139a2.77,2.77,0,0,0-2-5.09A74.56,74.56,0,0,0,248.43,140c-1,.59-1.91,1.25-2.87,1.87s-1.83,1.34-2.75,2-1.77,1.43-2.65,2.13-1.64,1.48-2.48,2.22a56.62,56.62,0,0,0-14.3,22A2.5,2.5,0,0,0,225.25,173.25Zm-2.38,42.31a2.43,2.43,0,0,0,3.31,1.2c1.39-.53,2.23-1.85,1.87-2.93A62.6,62.6,0,0,1,225,197.36a69,69,0,0,1,1.21-17c.26-1.13-.73-2.35-2.19-2.71a2.49,2.49,0,0,0-3.16,1.62,75,75,0,0,0-1.31,18.37A67.86,67.86,0,0,0,222.87,215.56Zm32.6-62.64a58.39,58.39,0,0,0-6.33,4.71,46,46,0,0,0-5,5.17,44.06,44.06,0,0,0-4,6,46.26,46.26,0,0,0-3,6.74,50.32,50.32,0,0,0-2,7.43,59,59,0,0,0-.93,8,70,70,0,0,0,.19,8.21,57.58,57.58,0,0,0,1.29,7.81c.22,1,1.66,1.39,3.09,1s2.4-1.41,2.22-2.27a51.77,51.77,0,0,1-1.16-7,62,62,0,0,1-.17-7.48,55.2,55.2,0,0,1,.83-7.2,44,44,0,0,1,1.78-6.62,40.21,40.21,0,0,1,2.66-5.92,40.74,40.74,0,0,1,3.5-5.2,42.54,42.54,0,0,1,4.33-4.48,55,55,0,0,1,5.68-4.22c.77-.5.81-1.91,0-3.22S256.33,152.36,255.47,152.92ZM237.2,212.16a47,47,0,0,0,3.5,7.36c.49.8,1.88.78,3.15-.05s2-2.06,1.54-2.73a41.28,41.28,0,0,1-3.06-6.46c-.25-.8-1.65-1.08-3.08-.62S236.9,211.23,237.2,212.16ZM263.36,92.89A133.83,133.83,0,0,1,281.29,90c3-.33,5.94-.47,8.9-.62s5.88-.16,8.81-.07,5.88.21,8.83.38,5.93.52,8.92,1a132.8,132.8,0,0,1,17.92,3.66c1.83.5,3.67-.16,4.13-1.62s-.74-3.11-2.67-3.64a137.93,137.93,0,0,0-18.64-3.81c-3.1-.46-6.17-.72-9.25-1s-6.12-.38-9.14-.4-6.08,0-9.12.07-6.12.31-9.21.64a140.34,140.34,0,0,0-18.65,3c-1.93.43-3.18,2.07-2.79,3.51S261.52,93.3,263.36,92.89Zm50.89,9.45a2.9,2.9,0,0,0-2.76-3.08,143,143,0,0,0-18.35-.75,140.11,140.11,0,0,0-18.41,1.55,114,114,0,0,0-36.16,11.81,3.51,3.51,0,0,0-1.65,1.79,2.45,2.45,0,0,0,1.89,3.37,3.51,3.51,0,0,0,2.33-.34,108.47,108.47,0,0,1,34.42-11.23,135.6,135.6,0,0,1,17.7-1.49,137.41,137.41,0,0,1,17.65.72A3,3,0,0,0,314.25,102.34Zm94.25,47.3a103.13,103.13,0,0,0-22.19-32.28,109.78,109.78,0,0,0-14.92-12.16c-1.32-.87-2.62-1.79-4-2.59l-4.06-2.41c-2.74-1.48-5.49-3-8.3-4.22-1.88-.9-3.89-.38-4.47,1s.36,3,2.05,3.9c1.32.63,2.64,1.2,3.94,1.9l3.89,2.06c2.56,1.49,5.1,3,7.56,4.68a6.58,6.58,0,0,1,2.76,3.6,4,4,0,0,1-.54,3.66,4.37,4.37,0,0,1-3.32,1.58,7.13,7.13,0,0,1-4.05-1.2,107.3,107.3,0,0,0-35.67-15.27,3.17,3.17,0,0,0-3.68,1.51,2.88,2.88,0,0,0,2.28,3.78,104.89,104.89,0,0,1,26.1,9.72,88.6,88.6,0,0,1,12,7.67,84.92,84.92,0,0,1,10.71,9.59c2.05,2.21,2,5.39,0,7a5,5,0,0,1-6.73-.66,80.58,80.58,0,0,0-23.95-17.3,101.07,101.07,0,0,0-28.12-8.56,137.78,137.78,0,0,0-14.61-1.39c-4.88-.14-9.76-.08-14.64.26a125.25,125.25,0,0,0-14.55,2,103,103,0,0,0-14.2,3.93,2.68,2.68,0,0,0-1.44,3.93,2.89,2.89,0,0,0,3.43,1.16c13.76-4.88,28.66-6.46,43.33-5.68a109.47,109.47,0,0,1,21.72,3.26,98.69,98.69,0,0,1,10.43,3.3,88.88,88.88,0,0,1,9.9,4.59,4,4,0,0,1,2.05,2.71,4.59,4.59,0,0,1-.61,3.43,5.1,5.1,0,0,1-2.72,2.17,4,4,0,0,1-3.11-.22,81.46,81.46,0,0,0-20.23-7.56,2.57,2.57,0,0,0-2.92,1.68,2.65,2.65,0,0,0,1.56,3.61,70.74,70.74,0,0,1,27.42,12.54c1.56,1.24,1.43,3.83-.27,5.73s-4.08,2.59-5.36,1.56c-7.39-5.7-16.83-9.66-27.46-11.59a96.53,96.53,0,0,0-16.62-1.51,92.29,92.29,0,0,0-16.64,1.29,2.3,2.3,0,0,0-1.68,2.58c.13,1.7,1.34,3,2.49,2.82a86.17,86.17,0,0,1,11-1.15,111.91,111.91,0,0,1,11.45.17,76.06,76.06,0,0,1,20.71,4.36,50.3,50.3,0,0,1,15.84,9.38,37.73,37.73,0,0,1,9.6,13.28,17.31,17.31,0,0,0,4.69,6.11c.53.48,1.1.95,1.72,1.41s1.21.93,1.88,1.39c1.37.9,2.76,1.82,4.35,2.69s3.18,1.74,5,2.52,3.62,1.53,5.55,2.17a41,41,0,0,0,12.54,2.15h0a26.53,26.53,0,0,0,12.42-2.89,23,23,0,0,0,5.28-3.74,24.87,24.87,0,0,0,4.3-5.29,27.85,27.85,0,0,0,3-6.69,33.11,33.11,0,0,0,.93-3.81c.21-1.32.36-2.67.45-4.06A39.15,39.15,0,0,0,408.5,149.64ZM273.36,135.76a99.82,99.82,0,0,1,18.05-2.39,108.75,108.75,0,0,1,18.53.76,2.63,2.63,0,0,0,2.71-2.4,2.54,2.54,0,0,0-2-3,114.58,114.58,0,0,0-19.45-.79,105.57,105.57,0,0,0-19.06,2.52,2.53,2.53,0,0,0-1.64,3.23A2.57,2.57,0,0,0,273.36,135.76Zm.63,9.34a64.93,64.93,0,0,0-9,2.93c-1,.41-1.29,1.85-.67,3.23s1.84,2.2,2.73,1.82a60.82,60.82,0,0,1,8.25-2.69c1-.29,1.56-1.62,1.23-3.1S275.05,144.79,274,145.1Z"/><path class="cls-3" d="M460.75,140.25v43.2h-7.2v-43.2H442v-7.2h30.31v7.2Z"/><path class="cls-3" d="M499.13,183.45l-2.3-6.19H478.68l-2.3,6.19h-7.71l19.08-50.4,19.08,50.4Zm-5-13.39-6.34-16.71-6.33,16.71Z"/><path class="cls-3" d="M522.82,183.45h-7.2V162.21l-14.55-29.16h8.07l10.08,20.23,10.15-20.23h8.06l-14.61,29.16Z"/><path class="cls-3" d="M586.11,183.45v-21.6h-17.5v21.6h-7.2v-50.4h7.2v21.6h17.5v-21.6h7.2v50.4Z"/><path class="cls-3" d="M634.06,152.06v12.38c0,11.16-7.2,19-17.5,19s-17.5-7.85-17.5-19V152.06c0-11.16,7.2-19,17.5-19S634.06,140.9,634.06,152.06Zm-24.92-8.72a12.86,12.86,0,0,0-2.88,8.72v12.38a12.86,12.86,0,0,0,2.88,8.72,9.69,9.69,0,0,0,7.42,3.09,9.5,9.5,0,0,0,7.34-3.09,12.51,12.51,0,0,0,3-8.72V152.06a12.51,12.51,0,0,0-3-8.72,9.5,9.5,0,0,0-7.34-3.09A9.69,9.69,0,0,0,609.14,143.34Z"/><path class="cls-3" d="M678.34,183.38l-4.75-26.57-12.32,26.64L649,156.81l-4.68,26.57h-7.34l8.92-50.48,15.41,33.41,15.41-33.41,8.93,50.48Z"/><path class="cls-3" d="M698.57,140.25v14.4h18.5v7.2h-18.5v14.4h18.5v7.2h-25.7v-50.4h25.7v7.2Z"/><path class="cls-4" d="M460.75,254.25v43.2h-7.2v-43.2H442v-7.2h30.31v7.2Z"/><path class="cls-4" d="M499.13,297.45l-2.3-6.19H478.68l-2.3,6.19h-7.71l19.08-50.4,19.08,50.4Zm-5-13.39-6.34-16.71-6.33,16.71Z"/><path class="cls-4" d="M522.82,297.45h-7.2V276.21l-14.55-29.16h8.07l10.08,20.23,10.15-20.23h8.06l-14.61,29.16Z"/><path class="cls-4" d="M588.62,250.94a13.57,13.57,0,0,1,4.69,10.51h-7.2a6.71,6.71,0,0,0-2.17-5.11,10,10,0,0,0-6.62-2.09,9.77,9.77,0,0,0-6.55,2.09,7.12,7.12,0,0,0,0,10.22,9.77,9.77,0,0,0,6.55,2.09,16.8,16.8,0,0,1,11.3,3.89,14.12,14.12,0,0,1,0,21,16.8,16.8,0,0,1-11.3,3.89A17.13,17.13,0,0,1,566,293.56a13.76,13.76,0,0,1-4.6-10.51h7.2a6.47,6.47,0,0,0,2.16,5.11,9.77,9.77,0,0,0,6.55,2.09,10,10,0,0,0,6.62-2.09,7.1,7.1,0,0,0,0-10.22,10,10,0,0,0-6.62-2.09A17.13,17.13,0,0,1,566,272a14.31,14.31,0,0,1,0-21,17.13,17.13,0,0,1,11.31-3.89A16.8,16.8,0,0,1,588.62,250.94Z"/><path class="cls-4" d="M624.48,297.45l-2.3-6.19H604l-2.3,6.19H594l19.08-50.4,19.09,50.4Zm-5-13.39-6.34-16.71-6.33,16.71Z"/><path class="cls-4" d="M643.7,254.25v14.4h18.51v7.2H643.7v21.6h-7.2v-50.4h25.71v7.2Z"/><path class="cls-4" d="M676.61,254.25v14.4h18.5v7.2h-18.5v14.4h18.5v7.2h-25.7v-50.4h25.7v7.2Z"/><path class="cls-5" d="M460.75,374.25v43.2h-7.2v-43.2H442v-7.2h30.31v7.2Z"/><path class="cls-5" d="M499.13,417.45l-2.3-6.19H478.68l-2.3,6.19h-7.71l19.08-50.4,19.08,50.4Zm-5-13.39-6.34-16.71-6.33,16.71Z"/><path class="cls-5" d="M522.82,417.45h-7.2V396.21l-14.55-29.16h8.07l10.08,20.23,10.15-20.23h8.06l-14.61,29.16Z"/><path class="cls-5" d="M588.27,369.64a16.86,16.86,0,0,1,6.19,7.2l-6.56,3a9.36,9.36,0,0,0-9-5.61,9.67,9.67,0,0,0-7.41,3.09,12.81,12.81,0,0,0-2.88,8.72v12.38a12.81,12.81,0,0,0,2.88,8.72,9.67,9.67,0,0,0,7.41,3.09,9.35,9.35,0,0,0,9-5.62l6.56,3a16.86,16.86,0,0,1-6.19,7.2,17.73,17.73,0,0,1-9.37,2.59c-10.29,0-17.49-7.85-17.49-19V386.06c0-11.16,7.2-19,17.49-19A17.73,17.73,0,0,1,588.27,369.64Z"/><path class="cls-5" d="M615.41,367.05a16.54,16.54,0,0,1,6.33,1.15,13.92,13.92,0,0,1,5.19,3.31,15.27,15.27,0,0,1,3.31,5.11,18.24,18.24,0,0,1,0,12.75,15.27,15.27,0,0,1-3.31,5.11,13.92,13.92,0,0,1-5.19,3.31.24.24,0,0,1-.14.08l9.79,19.58h-8.06L614,399h-7.35v18.5h-7.2v-50.4Zm-8.72,24.7h8.72c5.4,0,8.78-3.39,8.78-8.79s-3.38-8.71-8.78-8.71h-8.72Z"/><path class="cls-5" d="M644.35,374.25v14.4h18.51v7.2H644.35v14.4h18.51v7.2H637.15v-50.4h25.71v7.2Z"/><path class="cls-5" d="M697.63,417.45l-2.3-6.19H677.18l-2.3,6.19h-7.71l19.09-50.4,19.08,50.4Zm-5-13.39-6.33-16.71-6.34,16.71Z"/><path class="cls-5" d="M720.53,374.25v43.2h-7.2v-43.2h-11.6v-7.2h30.32v7.2Z"/><path class="cls-5" d="M737.09,417.45v-50.4h7.2v50.4Z"/><path class="cls-5" d="M748.61,367.05h7.63l9.79,28.3,9.72-28.3h7.63L766,417.45Z"/><path class="cls-5" d="M794.9,374.25v14.4h18.51v7.2H794.9v14.4h18.51v7.2H787.7v-50.4h25.71v7.2Z"/></g></g></svg>