<svg xmlns="http://www.w3.org/2000/svg" xmlns:xlink="http://www.w3.org/1999/xlink" viewBox="0 0 2560 1440"><defs><style>.cls-1,.cls-3,.cls-4,.cls-60{opacity:0.8;}.cls-1{filter:url(#luminosity-noclip);}.cls-2,.cls-60,.cls-8{mix-blend-mode:hard-light;}.cls-4{fill:#fff;}.cls-5{isolation:isolate;}.cls-6{fill:url(#Dégradé_sans_nom_61);}.cls-53,.cls-61,.cls-7,.cls-9{mix-blend-mode:overlay;}.cls-7{fill:url(#Dégradé_sans_nom_7);}.cls-8{opacity:0.55;fill:url(#Dégradé_sans_nom_4);}.cls-9{fill:#ffafcb;}.cls-10,.cls-11,.cls-12,.cls-14,.cls-15,.cls-16,.cls-19,.cls-20,.cls-21,.cls-23,.cls-24,.cls-25,.cls-27,.cls-28,.cls-29,.cls-31,.cls-32,.cls-33,.cls-35,.cls-36,.cls-37,.cls-39,.cls-40{opacity:0.15;}.cls-10{fill:url(#Dégradé_sans_nom_9);}.cls-11{fill:url(#Dégradé_sans_nom_9-2);}.cls-12{fill:url(#Dégradé_sans_nom_9-3);}.cls-13{fill:url(#Dégradé_sans_nom_9-4);}.cls-14{fill:url(#Dégradé_sans_nom_17);}.cls-15{fill:url(#Dégradé_sans_nom_17-2);}.cls-16{fill:url(#Dégradé_sans_nom_17-3);}.cls-17{fill:url(#Dégradé_sans_nom_17-4);}.cls-131,.cls-134,.cls-137,.cls-140,.cls-143,.cls-146,.cls-149,.cls-18,.cls-57{opacity:0.5;}.cls-19{fill:url(#Dégradé_sans_nom_9-5);}.cls-20{fill:url(#Dégradé_sans_nom_9-6);}.cls-21{fill:url(#Dégradé_sans_nom_9-7);}.cls-22{fill:url(#Dégradé_sans_nom_9-8);}.cls-23{fill:url(#Dégradé_sans_nom_17-5);}.cls-24{fill:url(#Dégradé_sans_nom_17-6);}.cls-25{fill:url(#Dégradé_sans_nom_17-7);}.cls-26{fill:url(#Dégradé_sans_nom_17-8);}.cls-27{fill:url(#Dégradé_sans_nom_17-9);}.cls-28{fill:url(#Dégradé_sans_nom_17-10);}.cls-29{fill:url(#Dégradé_sans_nom_17-11);}.cls-30{fill:url(#Dégradé_sans_nom_17-12);}.cls-31{fill:url(#Dégradé_sans_nom_9-9);}.cls-32{fill:url(#Dégradé_sans_nom_9-10);}.cls-33{fill:url(#Dégradé_sans_nom_9-11);}.cls-34{fill:url(#Dégradé_sans_nom_9-12);}.cls-35{fill:url(#Dégradé_sans_nom_33);}.cls-36{fill:url(#Dégradé_sans_nom_33-2);}.cls-37{fill:url(#Dégradé_sans_nom_33-3);}.cls-38{fill:url(#Dégradé_sans_nom_33-4);}.cls-39{fill:url(#Dégradé_sans_nom_11);}.cls-40{fill:url(#Dégradé_sans_nom_11-2);}.cls-41{fill:url(#Dégradé_sans_nom_11-3);}.cls-100,.cls-101,.cls-102,.cls-103,.cls-104,.cls-105,.cls-106,.cls-107,.cls-108,.cls-109,.cls-110,.cls-111,.cls-112,.cls-113,.cls-114,.cls-115,.cls-116,.cls-117,.cls-118,.cls-119,.cls-120,.cls-121,.cls-122,.cls-123,.cls-124,.cls-125,.cls-126,.cls-127,.cls-128,.cls-42,.cls-43,.cls-64,.cls-69,.cls-70,.cls-71,.cls-72,.cls-73,.cls-74,.cls-75,.cls-76,.cls-77,.cls-78,.cls-79,.cls-80,.cls-81,.cls-82,.cls-83,.cls-84,.cls-85,.cls-86,.cls-87,.cls-88,.cls-89,.cls-90,.cls-91,.cls-92,.cls-93,.cls-94,.cls-95,.cls-96,.cls-97,.cls-98,.cls-99{mix-blend-mode:screen;}.cls-42{fill:url(#Dégradé_sans_nom_13);}.cls-43{fill:url(#Dégradé_sans_nom_13-2);}.cls-44,.cls-45,.cls-46,.cls-47,.cls-48,.cls-49,.cls-50,.cls-51,.cls-52,.cls-57,.cls-58,.cls-59,.cls-63{mix-blend-mode:color-dodge;}.cls-44{fill:url(#Dégradé_sans_nom_46);}.cls-45{fill:url(#Dégradé_sans_nom_46-2);}.cls-46{fill:url(#Dégradé_sans_nom_46-3);}.cls-47{fill:url(#Dégradé_sans_nom_46-4);}.cls-48{fill:url(#Dégradé_sans_nom_46-5);}.cls-49{fill:url(#Dégradé_sans_nom_46-6);}.cls-50{fill:url(#Dégradé_sans_nom_46-7);}.cls-51{fill:url(#Dégradé_sans_nom_46-8);}.cls-52{fill:url(#Dégradé_sans_nom_46-9);}.cls-53{fill:#8cf4ff;}.cls-54{fill:url(#Dégradé_sans_nom_51);}.cls-55{fill:url(#Dégradé_sans_nom_54);}.cls-56{fill:url(#Dégradé_sans_nom_25);}.cls-57{fill:url(#Dégradé_sans_nom_89);}.cls-58{fill:url(#Dégradé_sans_nom_14);}.cls-59{fill:url(#Dégradé_sans_nom_14-2);}.cls-60{fill:url(#Dégradé_sans_nom_71);}.cls-61{opacity:0.4;fill:url(#Dégradé_sans_nom_10);}.cls-62{mask:url(#mask);}.cls-63{fill:url(#Dégradé_sans_nom_22);}.cls-64{fill:url(#Dégradé_sans_nom_28);}.cls-65{mask:url(#mask-3);}.cls-66,.cls-68{opacity:0.3;}.cls-66{mix-blend-mode:multiply;fill:url(#Dégradé_sans_nom_43);}.cls-67{fill:none;stroke:#fff;stroke-linecap:round;stroke-miterlimit:10;stroke-width:20px;}.cls-69{fill:url(#Dégradé_sans_nom_46-10);}.cls-70{fill:url(#Dégradé_sans_nom_46-11);}.cls-71{fill:url(#Dégradé_sans_nom_46-12);}.cls-72{fill:url(#Dégradé_sans_nom_46-13);}.cls-73{fill:url(#Dégradé_sans_nom_46-14);}.cls-74{fill:url(#Dégradé_sans_nom_46-15);}.cls-75{fill:url(#Dégradé_sans_nom_46-16);}.cls-76{fill:url(#Dégradé_sans_nom_46-17);}.cls-77{fill:url(#Dégradé_sans_nom_46-18);}.cls-78{fill:url(#Dégradé_sans_nom_46-19);}.cls-79{fill:url(#Dégradé_sans_nom_46-20);}.cls-80{fill:url(#Dégradé_sans_nom_46-21);}.cls-81{fill:url(#Dégradé_sans_nom_46-22);}.cls-82{fill:url(#Dégradé_sans_nom_46-23);}.cls-83{fill:url(#Dégradé_sans_nom_46-24);}.cls-84{fill:url(#Dégradé_sans_nom_46-25);}.cls-85{fill:url(#Dégradé_sans_nom_46-26);}.cls-86{fill:url(#Dégradé_sans_nom_46-27);}.cls-87{fill:url(#Dégradé_sans_nom_46-28);}.cls-88{fill:url(#Dégradé_sans_nom_46-29);}.cls-89{fill:url(#Dégradé_sans_nom_46-30);}.cls-90{fill:url(#Dégradé_sans_nom_46-31);}.cls-91{fill:url(#Dégradé_sans_nom_46-32);}.cls-92{fill:url(#Dégradé_sans_nom_46-33);}.cls-93{fill:url(#Dégradé_sans_nom_46-34);}.cls-94{fill:url(#Dégradé_sans_nom_46-35);}.cls-95{fill:url(#Dégradé_sans_nom_46-36);}.cls-96{fill:url(#Dégradé_sans_nom_46-37);}.cls-97{fill:url(#Dégradé_sans_nom_46-38);}.cls-98{fill:url(#Dégradé_sans_nom_46-39);}.cls-99{fill:url(#Dégradé_sans_nom_46-40);}.cls-100{fill:url(#Dégradé_sans_nom_46-41);}.cls-101{fill:url(#Dégradé_sans_nom_46-42);}.cls-102{fill:url(#Dégradé_sans_nom_46-43);}.cls-103{fill:url(#Dégradé_sans_nom_46-44);}.cls-104{fill:url(#Dégradé_sans_nom_46-45);}.cls-105{fill:url(#Dégradé_sans_nom_46-46);}.cls-106{fill:url(#Dégradé_sans_nom_46-47);}.cls-107{fill:url(#Dégradé_sans_nom_46-48);}.cls-108{fill:url(#Dégradé_sans_nom_46-49);}.cls-109{fill:url(#Dégradé_sans_nom_46-50);}.cls-110{fill:url(#Dégradé_sans_nom_46-51);}.cls-111{fill:url(#Dégradé_sans_nom_46-52);}.cls-112{fill:url(#Dégradé_sans_nom_46-53);}.cls-113{fill:url(#Dégradé_sans_nom_46-54);}.cls-114{fill:url(#Dégradé_sans_nom_46-55);}.cls-115{fill:url(#Dégradé_sans_nom_46-56);}.cls-116{fill:url(#Dégradé_sans_nom_46-57);}.cls-117{fill:url(#Dégradé_sans_nom_46-58);}.cls-118{fill:url(#Dégradé_sans_nom_46-59);}.cls-119{fill:url(#Dégradé_sans_nom_46-60);}.cls-120{fill:url(#Dégradé_sans_nom_46-61);}.cls-121{fill:url(#Dégradé_sans_nom_46-62);}.cls-122{fill:url(#Dégradé_sans_nom_46-63);}.cls-123{fill:url(#Dégradé_sans_nom_46-64);}.cls-124{fill:url(#Dégradé_sans_nom_46-65);}.cls-125{fill:url(#Dégradé_sans_nom_46-66);}.cls-126{fill:url(#Dégradé_sans_nom_46-67);}.cls-127{fill:url(#Dégradé_sans_nom_46-68);}.cls-128{fill:url(#Dégradé_sans_nom_46-69);}.cls-129,.cls-130,.cls-132,.cls-133,.cls-135,.cls-136,.cls-138,.cls-139,.cls-141,.cls-142,.cls-144,.cls-145,.cls-147,.cls-148{opacity:0.1;}.cls-129{fill:url(#Dégradé_sans_nom_6);}.cls-130{fill:url(#Dégradé_sans_nom_6-2);}.cls-131{fill:url(#Dégradé_sans_nom_6-3);}.cls-132{fill:url(#Dégradé_sans_nom_6-4);}.cls-133{fill:url(#Dégradé_sans_nom_6-5);}.cls-134{fill:url(#Dégradé_sans_nom_6-6);}.cls-135{fill:url(#Dégradé_sans_nom_6-7);}.cls-136{fill:url(#Dégradé_sans_nom_6-8);}.cls-137{fill:url(#Dégradé_sans_nom_6-9);}.cls-138{fill:url(#Dégradé_sans_nom_21);}.cls-139{fill:url(#Dégradé_sans_nom_21-2);}.cls-140{fill:url(#Dégradé_sans_nom_21-3);}.cls-141{fill:url(#Dégradé_sans_nom_21-4);}.cls-142{fill:url(#Dégradé_sans_nom_21-5);}.cls-143{fill:url(#Dégradé_sans_nom_21-6);}.cls-144{fill:url(#Dégradé_sans_nom_29);}.cls-145{fill:url(#Dégradé_sans_nom_29-2);}.cls-146{fill:url(#Dégradé_sans_nom_29-3);}.cls-147{fill:url(#Dégradé_sans_nom_29-4);}.cls-148{fill:url(#Dégradé_sans_nom_29-5);}.cls-149{fill:url(#Dégradé_sans_nom_29-6);}</style><radialGradient id="Dégradé_sans_nom_61" cx="1280" cy="720" r="1038.46" gradientUnits="userSpaceOnUse"><stop offset="0" stop-color="#06062b"/><stop offset="0.63" stop-color="#04041e"/><stop offset="1" stop-color="#030314"/></radialGradient><radialGradient id="Dégradé_sans_nom_7" cx="1280" cy="720" r="720" gradientUnits="userSpaceOnUse"><stop offset="0" stop-color="#fff"/><stop offset="1" stop-color="#fff" stop-opacity="0"/></radialGradient><linearGradient id="Dégradé_sans_nom_4" x1="1485.06" y1="925.06" x2="1074.94" y2="514.94" gradientUnits="userSpaceOnUse"><stop offset="0" stop-color="#ffafcb" stop-opacity="0"/><stop offset="1" stop-color="#e678ff"/></linearGradient><linearGradient id="Dégradé_sans_nom_9" x1="290.03" y1="102.08" x2="442.03" y2="102.08" gradientTransform="translate(546.98 1141.14) rotate(-90)" gradientUnits="userSpaceOnUse"><stop offset="0" stop-color="#5fbaa0"/><stop offset="1" stop-color="#f6ee1e"/></linearGradient><linearGradient id="Dégradé_sans_nom_9-2" x1="302.03" y1="102.08" x2="430.03" y2="102.08" xlink:href="#Dégradé_sans_nom_9"/><linearGradient id="Dégradé_sans_nom_9-3" x1="314.03" y1="102.08" x2="418.03" y2="102.08" xlink:href="#Dégradé_sans_nom_9"/><linearGradient id="Dégradé_sans_nom_9-4" x1="649.05" y1="815.11" x2="649.05" y2="735.11" gradientTransform="matrix(1, 0, 0, 1, 0, 0)" xlink:href="#Dégradé_sans_nom_9"/><linearGradient id="Dégradé_sans_nom_17" x1="838.14" y1="580.04" x2="1068.06" y2="580.04" gradientTransform="translate(546.98 1141.14) rotate(-90)" gradientUnits="userSpaceOnUse"><stop offset="0" stop-color="#93014a"/><stop offset="1" stop-color="#c838e7"/></linearGradient><linearGradient id="Dégradé_sans_nom_17-2" x1="856.29" y1="580.04" x2="1049.91" y2="580.04" xlink:href="#Dégradé_sans_nom_17"/><linearGradient id="Dégradé_sans_nom_17-3" x1="874.44" y1="580.04" x2="1031.76" y2="580.04" xlink:href="#Dégradé_sans_nom_17"/><linearGradient id="Dégradé_sans_nom_17-4" x1="1127.02" y1="248.55" x2="1127.02" y2="127.54" gradientTransform="matrix(1, 0, 0, 1, 0, 0)" xlink:href="#Dégradé_sans_nom_17"/><linearGradient id="Dégradé_sans_nom_9-5" x1="98.14" y1="-316.91" x2="168.82" y2="-316.91" xlink:href="#Dégradé_sans_nom_9"/><linearGradient id="Dégradé_sans_nom_9-6" x1="103.72" y1="-316.91" x2="163.24" y2="-316.91" xlink:href="#Dégradé_sans_nom_9"/><linearGradient id="Dégradé_sans_nom_9-7" x1="109.3" y1="-316.91" x2="157.66" y2="-316.91" xlink:href="#Dégradé_sans_nom_9"/><linearGradient id="Dégradé_sans_nom_9-8" x1="230.07" y1="1026.26" x2="230.07" y2="989.06" gradientTransform="matrix(1, 0, 0, 1, 0, 0)" xlink:href="#Dégradé_sans_nom_9"/><linearGradient id="Dégradé_sans_nom_17-5" x1="451.8" y1="-134.24" x2="510.86" y2="-134.24" xlink:href="#Dégradé_sans_nom_17"/><linearGradient id="Dégradé_sans_nom_17-6" x1="456.46" y1="-134.24" x2="506.19" y2="-134.24" xlink:href="#Dégradé_sans_nom_17"/><linearGradient id="Dégradé_sans_nom_17-7" x1="461.13" y1="-134.24" x2="501.53" y2="-134.24" xlink:href="#Dégradé_sans_nom_17"/><linearGradient id="Dégradé_sans_nom_17-8" x1="412.73" y1="675.35" x2="412.73" y2="644.27" gradientTransform="matrix(1, 0, 0, 1, 0, 0)" xlink:href="#Dégradé_sans_nom_17"/><linearGradient id="Dégradé_sans_nom_17-9" x1="-190.26" y1="837.85" x2="-131.21" y2="837.85" xlink:href="#Dégradé_sans_nom_17"/><linearGradient id="Dégradé_sans_nom_17-10" x1="-185.6" y1="837.85" x2="-135.87" y2="837.85" xlink:href="#Dégradé_sans_nom_17"/><linearGradient id="Dégradé_sans_nom_17-11" x1="-180.94" y1="837.85" x2="-140.53" y2="837.85" xlink:href="#Dégradé_sans_nom_17"/><linearGradient id="Dégradé_sans_nom_17-12" x1="1384.83" y1="1317.42" x2="1384.83" y2="1286.34" gradientTransform="matrix(1, 0, 0, 1, 0, 0)" xlink:href="#Dégradé_sans_nom_17"/><linearGradient id="Dégradé_sans_nom_9-9" x1="721.83" y1="1509.92" x2="780.88" y2="1509.92" xlink:href="#Dégradé_sans_nom_9"/><linearGradient id="Dégradé_sans_nom_9-10" x1="726.49" y1="1509.92" x2="776.22" y2="1509.92" xlink:href="#Dégradé_sans_nom_9"/><linearGradient id="Dégradé_sans_nom_9-11" x1="731.15" y1="1509.92" x2="771.56" y2="1509.92" xlink:href="#Dégradé_sans_nom_9"/><linearGradient id="Dégradé_sans_nom_9-12" x1="2056.9" y1="405.33" x2="2056.9" y2="374.25" gradientTransform="matrix(1, 0, 0, 1, 0, 0)" xlink:href="#Dégradé_sans_nom_9"/><linearGradient id="Dégradé_sans_nom_33" x1="-190.26" y1="1653.94" x2="-131.21" y2="1653.94" gradientTransform="translate(546.98 1141.14) rotate(-90)" gradientUnits="userSpaceOnUse"><stop offset="0" stop-color="#1f2ad5"/><stop offset="1" stop-color="#01a0c6"/></linearGradient><linearGradient id="Dégradé_sans_nom_33-2" x1="-185.6" y1="1653.94" x2="-135.87" y2="1653.94" xlink:href="#Dégradé_sans_nom_33"/><linearGradient id="Dégradé_sans_nom_33-3" x1="-180.94" y1="1653.94" x2="-140.53" y2="1653.94" xlink:href="#Dégradé_sans_nom_33"/><linearGradient id="Dégradé_sans_nom_33-4" x1="2200.91" y1="1317.42" x2="2200.91" y2="1286.34" gradientTransform="matrix(1, 0, 0, 1, 0, 0)" xlink:href="#Dégradé_sans_nom_33"/><linearGradient id="Dégradé_sans_nom_11" x1="1931" y1="996" x2="2029" y2="996" gradientTransform="translate(892 2860) rotate(-90)" gradientUnits="userSpaceOnUse"><stop offset="0" stop-color="#cd4557"/><stop offset="1" stop-color="#e3b019"/></linearGradient><linearGradient id="Dégradé_sans_nom_11-2" x1="1943" x2="2017" xlink:href="#Dégradé_sans_nom_11"/><linearGradient id="Dégradé_sans_nom_11-3" x1="1955" x2="2005" xlink:href="#Dégradé_sans_nom_11"/><linearGradient id="Dégradé_sans_nom_13" x1="1717" y1="410" x2="1717" y2="450" gradientUnits="userSpaceOnUse"><stop offset="0" stop-color="#1f2ad5" stop-opacity="0.1"/><stop offset="1" stop-color="#c838e7"/></linearGradient><linearGradient id="Dégradé_sans_nom_13-2" x1="844.06" y1="964" x2="844.06" y2="1004" xlink:href="#Dégradé_sans_nom_13"/><linearGradient id="Dégradé_sans_nom_46" x1="1038.64" y1="391" x2="1038.64" y2="351.08" gradientUnits="userSpaceOnUse"><stop offset="0" stop-color="#5fbaa0"/><stop offset="1" stop-color="#f6ee1e" stop-opacity="0"/></linearGradient><linearGradient id="Dégradé_sans_nom_46-2" x1="228.72" y1="355.78" x2="228.72" y2="335.78" xlink:href="#Dégradé_sans_nom_46"/><linearGradient id="Dégradé_sans_nom_46-3" x1="2037.9" y1="1203.87" x2="2037.9" y2="1183.87" xlink:href="#Dégradé_sans_nom_46"/><linearGradient id="Dégradé_sans_nom_46-4" x1="2449.94" y1="716.82" x2="2449.94" y2="696.82" xlink:href="#Dégradé_sans_nom_46"/><linearGradient id="Dégradé_sans_nom_46-5" x1="1962.89" y1="288.77" x2="1962.89" y2="268.77" xlink:href="#Dégradé_sans_nom_46"/><linearGradient id="Dégradé_sans_nom_46-6" x1="632.72" y1="1019.78" x2="632.72" y2="999.78" xlink:href="#Dégradé_sans_nom_46"/><linearGradient id="Dégradé_sans_nom_46-7" x1="1350.68" y1="1181.08" x2="1350.68" y2="1161.08" xlink:href="#Dégradé_sans_nom_46"/><linearGradient id="Dégradé_sans_nom_46-8" x1="1094.72" y1="639.08" x2="1094.72" y2="619.08" xlink:href="#Dégradé_sans_nom_46"/><linearGradient id="Dégradé_sans_nom_46-9" x1="1370.68" y1="666.5" x2="1370.68" y2="646.5" xlink:href="#Dégradé_sans_nom_46"/><linearGradient id="Dégradé_sans_nom_51" x1="1158.21" y1="828.75" x2="1159.11" y2="736.33" gradientUnits="userSpaceOnUse"><stop offset="0" stop-color="#4268db"/><stop offset="0.45" stop-color="#67aded"/><stop offset="0.82" stop-color="#82e0fa"/><stop offset="1" stop-color="#8cf4ff"/></linearGradient><linearGradient id="Dégradé_sans_nom_54" x1="1318.84" y1="957.06" x2="1285.45" y2="767.69" gradientUnits="userSpaceOnUse"><stop offset="0" stop-color="#4268db"/><stop offset="0.17" stop-color="#446cdc"/><stop offset="0.34" stop-color="#4b78df"/><stop offset="0.51" stop-color="#568de5"/><stop offset="0.68" stop-color="#65aaec"/><stop offset="0.85" stop-color="#78cff5"/><stop offset="1" stop-color="#8cf4ff"/></linearGradient><linearGradient id="Dégradé_sans_nom_25" x1="1319.4" y1="992.37" x2="1290.29" y2="827.31" gradientUnits="userSpaceOnUse"><stop offset="0" stop-color="#de009f"/><stop offset="0.1" stop-color="#de06a1"/><stop offset="0.24" stop-color="#de16a9"/><stop offset="0.39" stop-color="#df31b4"/><stop offset="0.56" stop-color="#df57c5"/><stop offset="0.74" stop-color="#e088da"/><stop offset="0.92" stop-color="#e1c2f3"/><stop offset="1" stop-color="#e1deff"/></linearGradient><radialGradient id="Dégradé_sans_nom_89" cx="1539.01" cy="943.94" r="141.95" gradientTransform="translate(1926.03 2691.79) rotate(-135)" gradientUnits="userSpaceOnUse"><stop offset="0.77" stop-color="#b733d3"/><stop offset="1" stop-color="#13007c"/></radialGradient><linearGradient id="Dégradé_sans_nom_14" x1="1392.29" y1="946.29" x2="1647.29" y2="946.29" gradientTransform="translate(562.87 2472.49) rotate(-90)" gradientUnits="userSpaceOnUse"><stop offset="0" stop-color="#1f2ad5"/><stop offset="1" stop-color="#c838e7"/></linearGradient><linearGradient id="Dégradé_sans_nom_14-2" x1="1424.35" y1="946.29" x2="1679.35" y2="946.29" xlink:href="#Dégradé_sans_nom_14"/><linearGradient id="Dégradé_sans_nom_71" x1="1351.21" y1="985.74" x2="1208.79" y2="454.26" gradientUnits="userSpaceOnUse"><stop offset="0" stop-color="#dfff3b"/><stop offset="0.06" stop-color="#e2ff4a" stop-opacity="0.83"/><stop offset="0.16" stop-color="#e5ff60" stop-opacity="0.58"/><stop offset="0.25" stop-color="#e8ff73" stop-opacity="0.37"/><stop offset="0.33" stop-color="#ebff81" stop-opacity="0.21"/><stop offset="0.41" stop-color="#edff8b" stop-opacity="0.1"/><stop offset="0.48" stop-color="#eeff92" stop-opacity="0.03"/><stop offset="0.53" stop-color="#eeff94" stop-opacity="0"/></linearGradient><linearGradient id="Dégradé_sans_nom_10" x1="1485.06" y1="925.06" x2="1074.94" y2="514.94" gradientUnits="userSpaceOnUse"><stop offset="0" stop-color="#fff" stop-opacity="0"/><stop offset="1" stop-color="#fff"/></linearGradient><filter id="luminosity-noclip" x="844.41" y="403.15" width="871.19" height="633.7" filterUnits="userSpaceOnUse" color-interpolation-filters="sRGB"><feFlood flood-color="#fff" result="bg"/><feBlend in="SourceGraphic" in2="bg"/></filter><mask id="mask" x="844.41" y="403.15" width="871.19" height="633.7" maskUnits="userSpaceOnUse"><g class="cls-1"><path class="cls-2" d="M1319.13,1007.36a287.88,287.88,0,0,0,98-31.78Z"/><path class="cls-2" d="M1505.59,537.78A289.45,289.45,0,0,0,1280,430c-160.16,0-290,129.84-290,290a288.74,288.74,0,0,0,59.31,175.73C1156.79,811.22,1436.69,591.21,1505.59,537.78Z"/></g></mask><linearGradient id="Dégradé_sans_nom_22" x1="1362.3" y1="818.08" x2="1197.7" y2="621.92" gradientUnits="userSpaceOnUse"><stop offset="0" stop-color="#cb5180"/><stop offset="0.12" stop-color="#c0507d"/><stop offset="0.34" stop-color="#a44e75"/><stop offset="0.63" stop-color="#754a68"/><stop offset="0.96" stop-color="#354556"/><stop offset="1" stop-color="#2e4454"/></linearGradient><linearGradient id="Dégradé_sans_nom_28" x1="1362.3" y1="818.08" x2="1197.7" y2="621.92" gradientUnits="userSpaceOnUse"><stop offset="0" stop-color="#cb5180"/><stop offset="0.28" stop-color="#8b3757" stop-opacity="0.68"/><stop offset="0.63" stop-color="#401a29" stop-opacity="0.32"/><stop offset="0.88" stop-color="#12070b" stop-opacity="0.09"/><stop offset="1" stop-opacity="0"/></linearGradient><mask id="mask-3" x="858.69" y="445" width="871.19" height="658.7" maskUnits="userSpaceOnUse"><path id="LowYellow" class="cls-4" d="M1280,995a275,275,0,1,1,194.45-80.55A273.19,273.19,0,0,1,1280,995Z"/></mask><linearGradient id="Dégradé_sans_nom_43" x1="1376.58" y1="884.93" x2="1211.98" y2="688.77" gradientUnits="userSpaceOnUse"><stop offset="0" stop-color="#cb5180"/><stop offset="0.55" stop-color="#451b2b" stop-opacity="0.34"/><stop offset="0.85" stop-opacity="0"/></linearGradient><linearGradient id="Dégradé_sans_nom_46-10" x1="1119" y1="770.03" x2="1119" y2="750.03" xlink:href="#Dégradé_sans_nom_46"/><linearGradient id="Dégradé_sans_nom_46-11" x1="1141.89" y1="806.85" x2="1141.89" y2="786.85" xlink:href="#Dégradé_sans_nom_46"/><linearGradient id="Dégradé_sans_nom_46-12" x1="1176.87" y1="771.25" x2="1176.87" y2="751.25" xlink:href="#Dégradé_sans_nom_46"/><linearGradient id="Dégradé_sans_nom_46-13" x1="1209.37" y1="791.25" x2="1209.37" y2="771.25" xlink:href="#Dégradé_sans_nom_46"/><linearGradient id="Dégradé_sans_nom_46-14" x1="1306.86" y1="811.97" x2="1306.86" y2="791.97" xlink:href="#Dégradé_sans_nom_46"/><linearGradient id="Dégradé_sans_nom_46-15" x1="1244.7" y1="842.09" x2="1244.7" y2="822.09" xlink:href="#Dégradé_sans_nom_46"/><linearGradient id="Dégradé_sans_nom_46-16" x1="1199.37" y1="858.84" x2="1199.37" y2="838.84" xlink:href="#Dégradé_sans_nom_46"/><linearGradient id="Dégradé_sans_nom_46-17" x1="1156.34" y1="890.98" x2="1156.34" y2="870.98" xlink:href="#Dégradé_sans_nom_46"/><linearGradient id="Dégradé_sans_nom_46-18" x1="1166.87" y1="968" x2="1166.87" y2="948" xlink:href="#Dégradé_sans_nom_46"/><linearGradient id="Dégradé_sans_nom_46-19" x1="1249.37" y1="927.33" x2="1249.37" y2="907.33" xlink:href="#Dégradé_sans_nom_46"/><linearGradient id="Dégradé_sans_nom_46-20" x1="1273.37" y1="978" x2="1273.37" y2="958" xlink:href="#Dégradé_sans_nom_46"/><linearGradient id="Dégradé_sans_nom_46-21" x1="1310.95" y1="937.33" x2="1310.95" y2="917.33" xlink:href="#Dégradé_sans_nom_46"/><linearGradient id="Dégradé_sans_nom_46-22" x1="1350.95" y1="878.84" x2="1350.95" y2="858.84" xlink:href="#Dégradé_sans_nom_46"/><linearGradient id="Dégradé_sans_nom_46-23" x1="1393" y1="919.35" x2="1393" y2="899.35" xlink:href="#Dégradé_sans_nom_46"/><linearGradient id="Dégradé_sans_nom_46-24" x1="1423" y1="888.84" x2="1423" y2="868.84" xlink:href="#Dégradé_sans_nom_46"/><linearGradient id="Dégradé_sans_nom_46-25" x1="1467.67" y1="880.98" x2="1467.67" y2="860.98" xlink:href="#Dégradé_sans_nom_46"/><linearGradient id="Dégradé_sans_nom_46-26" x1="1365" y1="968" x2="1365" y2="948" xlink:href="#Dégradé_sans_nom_46"/><linearGradient id="Dégradé_sans_nom_46-27" x1="1131.89" y1="864.75" x2="1131.89" y2="844.75" xlink:href="#Dégradé_sans_nom_46"/><linearGradient id="Dégradé_sans_nom_46-28" x1="1063.82" y1="858" x2="1063.82" y2="838" xlink:href="#Dégradé_sans_nom_46"/><linearGradient id="Dégradé_sans_nom_46-29" x1="1032.02" y1="806.85" x2="1032.02" y2="786.85" xlink:href="#Dégradé_sans_nom_46"/><linearGradient id="Dégradé_sans_nom_46-30" x1="1340.95" y1="771.25" x2="1340.95" y2="751.25" xlink:href="#Dégradé_sans_nom_46"/><linearGradient id="Dégradé_sans_nom_46-31" x1="1396.23" y1="739.87" x2="1396.23" y2="719.87" xlink:href="#Dégradé_sans_nom_46"/><linearGradient id="Dégradé_sans_nom_46-32" x1="1527.56" y1="760.15" x2="1527.56" y2="740.15" xlink:href="#Dégradé_sans_nom_46"/><linearGradient id="Dégradé_sans_nom_46-33" x1="1451.67" y1="781.25" x2="1451.67" y2="761.25" xlink:href="#Dégradé_sans_nom_46"/><linearGradient id="Dégradé_sans_nom_46-34" x1="1520.5" y1="812.76" x2="1520.5" y2="792.76" xlink:href="#Dégradé_sans_nom_46"/><linearGradient id="Dégradé_sans_nom_46-35" x1="1109" y1="734.31" x2="1109" y2="714.31" xlink:href="#Dégradé_sans_nom_46"/><linearGradient id="Dégradé_sans_nom_46-36" x1="1038.68" y1="738.93" x2="1038.68" y2="718.93" xlink:href="#Dégradé_sans_nom_46"/><linearGradient id="Dégradé_sans_nom_46-37" x1="1070.02" y1="776.93" x2="1070.02" y2="756.93" xlink:href="#Dégradé_sans_nom_46"/><linearGradient id="Dégradé_sans_nom_46-38" x1="1177.51" y1="809.8" x2="1177.51" y2="797.98" xlink:href="#Dégradé_sans_nom_46"/><linearGradient id="Dégradé_sans_nom_46-39" x1="1220.12" y1="823.8" x2="1220.12" y2="811.97" xlink:href="#Dégradé_sans_nom_46"/><linearGradient id="Dégradé_sans_nom_46-40" x1="1119" y1="895.81" x2="1119" y2="883.98" xlink:href="#Dégradé_sans_nom_46"/><linearGradient id="Dégradé_sans_nom_46-41" x1="1117.8" y1="926.86" x2="1117.8" y2="915.03" xlink:href="#Dégradé_sans_nom_46"/><linearGradient id="Dégradé_sans_nom_46-42" x1="1347.35" y1="938.68" x2="1347.35" y2="926.86" xlink:href="#Dégradé_sans_nom_46"/><linearGradient id="Dégradé_sans_nom_46-43" x1="1273.37" y1="817.89" x2="1273.37" y2="806.06" xlink:href="#Dégradé_sans_nom_46"/><linearGradient id="Dégradé_sans_nom_46-44" x1="1220.12" y1="965.74" x2="1220.12" y2="953.91" xlink:href="#Dégradé_sans_nom_46"/><linearGradient id="Dégradé_sans_nom_46-45" x1="1199.59" y1="881.32" x2="1199.59" y2="869.49" xlink:href="#Dégradé_sans_nom_46"/><linearGradient id="Dégradé_sans_nom_46-46" x1="1205.82" y1="926.86" x2="1205.82" y2="915.03" xlink:href="#Dégradé_sans_nom_46"/><linearGradient id="Dégradé_sans_nom_46-47" x1="1383" y1="854.75" x2="1383" y2="842.93" xlink:href="#Dégradé_sans_nom_46"/><linearGradient id="Dégradé_sans_nom_46-48" x1="1268.79" y1="932.77" x2="1268.79" y2="920.94" xlink:href="#Dégradé_sans_nom_46"/><linearGradient id="Dégradé_sans_nom_46-49" x1="1314.66" y1="969.83" x2="1314.66" y2="958" xlink:href="#Dégradé_sans_nom_46"/><linearGradient id="Dégradé_sans_nom_46-50" x1="1314.66" y1="874.14" x2="1314.66" y2="862.31" xlink:href="#Dégradé_sans_nom_46"/><linearGradient id="Dégradé_sans_nom_46-51" x1="1339.53" y1="898.09" x2="1339.53" y2="886.27" xlink:href="#Dégradé_sans_nom_46"/><linearGradient id="Dégradé_sans_nom_46-52" x1="1473.58" y1="842.09" x2="1473.58" y2="830.26" xlink:href="#Dégradé_sans_nom_46"/><linearGradient id="Dégradé_sans_nom_46-53" x1="1451.67" y1="899.35" x2="1451.67" y2="887.53" xlink:href="#Dégradé_sans_nom_46"/><linearGradient id="Dégradé_sans_nom_46-54" x1="1414.91" y1="938.68" x2="1414.91" y2="926.86" xlink:href="#Dégradé_sans_nom_46"/><linearGradient id="Dégradé_sans_nom_46-55" x1="1370.68" y1="751.02" x2="1370.68" y2="739.19" xlink:href="#Dégradé_sans_nom_46"/><linearGradient id="Dégradé_sans_nom_46-56" x1="1060.02" y1="823.8" x2="1060.02" y2="811.97" xlink:href="#Dégradé_sans_nom_46"/><linearGradient id="Dégradé_sans_nom_46-57" x1="1159.11" y1="848" x2="1159.11" y2="836.17" xlink:href="#Dégradé_sans_nom_46"/><linearGradient id="Dégradé_sans_nom_46-58" x1="1300.95" y1="786.06" x2="1300.95" y2="774.23" xlink:href="#Dégradé_sans_nom_46"/><linearGradient id="Dégradé_sans_nom_46-59" x1="1341.44" y1="791.97" x2="1341.44" y2="780.14" xlink:href="#Dégradé_sans_nom_46"/><linearGradient id="Dégradé_sans_nom_46-60" x1="1473.58" y1="752.84" x2="1473.58" y2="741.02" xlink:href="#Dégradé_sans_nom_46"/><linearGradient id="Dégradé_sans_nom_46-61" x1="1510.81" y1="780.14" x2="1510.81" y2="768.32" xlink:href="#Dégradé_sans_nom_46"/><linearGradient id="Dégradé_sans_nom_46-62" x1="1477.67" y1="792.76" x2="1477.67" y2="780.94" xlink:href="#Dégradé_sans_nom_46"/><linearGradient id="Dégradé_sans_nom_46-63" x1="1148.55" y1="754.86" x2="1148.55" y2="743.03" xlink:href="#Dégradé_sans_nom_46"/><linearGradient id="Dégradé_sans_nom_46-64" x1="1084.72" y1="746.93" x2="1084.72" y2="735.1" xlink:href="#Dégradé_sans_nom_46"/><linearGradient id="Dégradé_sans_nom_46-65" x1="1084.72" y1="802.76" x2="1084.72" y2="790.94" xlink:href="#Dégradé_sans_nom_46"/><linearGradient id="Dégradé_sans_nom_46-66" x1="1504.9" y1="750.15" x2="1504.9" y2="717.35" xlink:href="#Dégradé_sans_nom_46"/><linearGradient id="Dégradé_sans_nom_46-67" x1="1294.25" y1="912.14" x2="1294.25" y2="879.33" xlink:href="#Dégradé_sans_nom_46"/><linearGradient id="Dégradé_sans_nom_46-68" x1="1425.4" y1="852.58" x2="1425.4" y2="819.77" xlink:href="#Dégradé_sans_nom_46"/><linearGradient id="Dégradé_sans_nom_46-69" x1="1097.86" y1="861.16" x2="1097.86" y2="828.35" xlink:href="#Dégradé_sans_nom_46"/><linearGradient id="Dégradé_sans_nom_6" x1="2490" y1="1481.5" x2="2533" y2="1481.5" gradientTransform="translate(892 2860) rotate(-90)" gradientUnits="userSpaceOnUse"><stop offset="0" stop-color="#eeff94"/><stop offset="1" stop-color="#ffafcb"/></linearGradient><linearGradient id="Dégradé_sans_nom_6-2" x1="2495.27" y1="1481.5" x2="2527.73" y2="1481.5" xlink:href="#Dégradé_sans_nom_6"/><linearGradient id="Dégradé_sans_nom_6-3" x1="2500.53" y1="1481.5" x2="2522.47" y2="1481.5" xlink:href="#Dégradé_sans_nom_6"/><linearGradient id="Dégradé_sans_nom_6-4" x1="2749.5" y1="-147" x2="2792.5" y2="-147" xlink:href="#Dégradé_sans_nom_6"/><linearGradient id="Dégradé_sans_nom_6-5" x1="2754.77" y1="-147" x2="2787.23" y2="-147" xlink:href="#Dégradé_sans_nom_6"/><linearGradient id="Dégradé_sans_nom_6-6" x1="2760.03" y1="-147" x2="2781.97" y2="-147" xlink:href="#Dégradé_sans_nom_6"/><linearGradient id="Dégradé_sans_nom_6-7" x1="1539.5" y1="-387" x2="1582.5" y2="-387" xlink:href="#Dégradé_sans_nom_6"/><linearGradient id="Dégradé_sans_nom_6-8" x1="1544.77" y1="-387" x2="1577.23" y2="-387" xlink:href="#Dégradé_sans_nom_6"/><linearGradient id="Dégradé_sans_nom_6-9" x1="1550.03" y1="-387" x2="1571.97" y2="-387" xlink:href="#Dégradé_sans_nom_6"/><linearGradient id="Dégradé_sans_nom_21" x1="2715.5" y1="1097" x2="2758.5" y2="1097" gradientTransform="translate(892 2860) rotate(-90)" gradientUnits="userSpaceOnUse"><stop offset="0" stop-color="#fe330a"/><stop offset="1" stop-color="#fe330a"/></linearGradient><linearGradient id="Dégradé_sans_nom_21-2" x1="2720.77" x2="2753.23" xlink:href="#Dégradé_sans_nom_21"/><linearGradient id="Dégradé_sans_nom_21-3" x1="2726.03" x2="2747.97" xlink:href="#Dégradé_sans_nom_21"/><linearGradient id="Dégradé_sans_nom_21-4" x1="2264.66" y1="-764.3" x2="2307.66" y2="-764.3" xlink:href="#Dégradé_sans_nom_21"/><linearGradient id="Dégradé_sans_nom_21-5" x1="2269.93" y1="-764.3" x2="2302.4" y2="-764.3" xlink:href="#Dégradé_sans_nom_21"/><linearGradient id="Dégradé_sans_nom_21-6" x1="2275.19" y1="-764.3" x2="2297.13" y2="-764.3" xlink:href="#Dégradé_sans_nom_21"/><linearGradient id="Dégradé_sans_nom_29" x1="1803.65" y1="1478.9" x2="1846.65" y2="1478.9" gradientTransform="translate(892 2860) rotate(-90)" gradientUnits="userSpaceOnUse"><stop offset="0" stop-color="#80c41c"/><stop offset="1" stop-color="#c838e7"/></linearGradient><linearGradient id="Dégradé_sans_nom_29-2" x1="1808.91" y1="1478.9" x2="1841.38" y2="1478.9" xlink:href="#Dégradé_sans_nom_29"/><linearGradient id="Dégradé_sans_nom_29-3" x1="1814.18" y1="1478.9" x2="1836.12" y2="1478.9" xlink:href="#Dégradé_sans_nom_29"/><linearGradient id="Dégradé_sans_nom_29-4" x1="2638.64" y1="-569.28" x2="2739.84" y2="-569.28" xlink:href="#Dégradé_sans_nom_29"/><linearGradient id="Dégradé_sans_nom_29-5" x1="2651.03" y1="-569.28" x2="2727.44" y2="-569.28" xlink:href="#Dégradé_sans_nom_29"/><linearGradient id="Dégradé_sans_nom_29-6" x1="2663.42" y1="-569.28" x2="2715.05" y2="-569.28" xlink:href="#Dégradé_sans_nom_29"/></defs><title>train_illu</title><g class="cls-5"><g id="bg"><rect class="cls-6" width="2560" height="1440"/><circle class="cls-7" cx="1280" cy="720" r="720"/></g><g id="artwork"><circle id="base" class="cls-8" cx="1280" cy="720" r="290"/><path class="cls-9" d="M1280,430c-160.16,0-290,129.84-290,290s129.84,290,290,290,290-129.84,290-290S1440.16,430,1280,430Zm194.45,484.45A275,275,0,1,1,1555,720,273.19,273.19,0,0,1,1474.45,914.45Z"/><circle class="cls-10" cx="649.05" cy="775.11" r="76"/><circle class="cls-11" cx="649.05" cy="775.11" r="64"/><circle class="cls-12" cx="649.05" cy="775.11" r="52"/><circle class="cls-13" cx="649.05" cy="775.11" r="40"/><circle class="cls-14" cx="1127.02" cy="188.04" r="114.96"/><circle class="cls-15" cx="1127.02" cy="188.04" r="96.81"/><circle class="cls-16" cx="1127.02" cy="188.04" r="78.66"/><circle class="cls-17" cx="1127.02" cy="188.04" r="60.5"/><g class="cls-18"><circle class="cls-19" cx="230.07" cy="1007.66" r="35.34"/><circle class="cls-20" cx="230.07" cy="1007.66" r="29.76"/><circle class="cls-21" cx="230.07" cy="1007.66" r="24.18"/><circle class="cls-22" cx="230.07" cy="1007.66" r="18.6"/></g><g class="cls-18"><circle class="cls-23" cx="412.73" cy="659.81" r="29.53"/><circle class="cls-24" cx="412.73" cy="659.81" r="24.87"/><circle class="cls-25" cx="412.73" cy="659.81" r="20.2"/><circle class="cls-26" cx="412.73" cy="659.81" r="15.54"/></g><g class="cls-18"><circle class="cls-27" cx="1384.83" cy="1301.88" r="29.53"/><circle class="cls-28" cx="1384.83" cy="1301.88" r="24.87"/><circle class="cls-29" cx="1384.83" cy="1301.88" r="20.2"/><circle class="cls-30" cx="1384.83" cy="1301.88" r="15.54"/></g><g class="cls-18"><circle class="cls-31" cx="2056.9" cy="389.79" r="29.53"/><circle class="cls-32" cx="2056.9" cy="389.79" r="24.87"/><circle class="cls-33" cx="2056.9" cy="389.79" r="20.2"/><circle class="cls-34" cx="2056.9" cy="389.79" r="15.54"/></g><g class="cls-18"><circle class="cls-35" cx="2200.91" cy="1301.88" r="29.53"/><circle class="cls-36" cx="2200.91" cy="1301.88" r="24.87"/><circle class="cls-37" cx="2200.91" cy="1301.88" r="20.2"/><circle class="cls-38" cx="2200.91" cy="1301.88" r="15.54"/></g><circle class="cls-39" cx="1888" cy="880" r="49"/><circle class="cls-40" cx="1888" cy="880" r="37"/><circle class="cls-41" cx="1888" cy="880" r="25"/><circle class="cls-42" cx="1717" cy="430" r="20"/><circle class="cls-43" cx="844.06" cy="984" r="20"/><circle class="cls-44" cx="1038.64" cy="371.04" r="19.96"/><circle class="cls-45" cx="228.72" cy="345.78" r="10"/><circle class="cls-46" cx="2037.9" cy="1193.87" r="10"/><circle class="cls-47" cx="2449.94" cy="706.82" r="10"/><circle class="cls-48" cx="1962.89" cy="278.77" r="10"/><circle class="cls-49" cx="632.72" cy="1009.78" r="10"/><circle class="cls-50" cx="1350.68" cy="1171.08" r="10"/><circle class="cls-51" cx="1094.72" cy="629.08" r="10"/><circle class="cls-52" cx="1370.68" cy="656.5" r="10"/><path class="cls-53" d="M783.1,744.25l-2.49-19.45a.56.56,0,0,0-1.11,0L777,744.25a.56.56,0,0,1-.48.49l-19.45,2.49a.56.56,0,0,0,0,1.11l19.45,2.49a.55.55,0,0,1,.48.48l2.49,19.45a.56.56,0,0,0,1.11,0l2.49-19.45a.56.56,0,0,1,.49-.48L803,748.34a.56.56,0,0,0,0-1.11l-19.45-2.49A.57.57,0,0,1,783.1,744.25Z"/><path class="cls-53" d="M1821.53,745.61,1819,726.16a.56.56,0,0,0-1.11,0l-2.49,19.45a.55.55,0,0,1-.48.48l-19.45,2.49a.56.56,0,0,0,0,1.11l19.45,2.49a.55.55,0,0,1,.48.48l2.49,19.46a.56.56,0,0,0,1.11,0l2.49-19.46a.56.56,0,0,1,.49-.48l19.45-2.49a.56.56,0,0,0,0-1.11L1822,746.09A.56.56,0,0,1,1821.53,745.61Z"/><path class="cls-53" d="M2381.53,513.61,2379,494.16a.56.56,0,0,0-1.11,0l-2.49,19.45a.55.55,0,0,1-.48.48l-19.45,2.49a.56.56,0,0,0,0,1.11l19.45,2.49a.55.55,0,0,1,.48.48l2.49,19.46a.56.56,0,0,0,1.11,0l2.49-19.46a.56.56,0,0,1,.49-.48l19.45-2.49a.56.56,0,0,0,0-1.11L2382,514.09A.56.56,0,0,1,2381.53,513.61Z"/><path class="cls-53" d="M2153,143.94l-2.49-19.45a.56.56,0,0,0-1.11,0l-2.49,19.45a.56.56,0,0,1-.48.49L2127,146.92a.56.56,0,0,0,0,1.11l19.46,2.49a.55.55,0,0,1,.48.48l2.49,19.45a.56.56,0,0,0,1.11,0L2153,151a.55.55,0,0,1,.48-.48l19.46-2.49a.56.56,0,0,0,0-1.11l-19.46-2.49A.56.56,0,0,1,2153,143.94Z"/><path class="cls-53" d="M1814.52,1316.52l-2.49-19.46a.56.56,0,0,0-1.11,0l-2.49,19.46a.56.56,0,0,1-.49.48l-19.45,2.49a.56.56,0,0,0,0,1.11l19.45,2.49a.56.56,0,0,1,.49.48l2.49,19.46a.56.56,0,0,0,1.11,0l2.49-19.46a.55.55,0,0,1,.48-.48l19.45-2.49a.56.56,0,0,0,0-1.11L1815,1317A.55.55,0,0,1,1814.52,1316.52Z"/><path class="cls-53" d="M143.77,1360.8l-2.49-19.45a.56.56,0,0,0-1.11,0l-2.49,19.45a.55.55,0,0,1-.48.48l-19.45,2.49a.56.56,0,0,0,0,1.11l19.45,2.49a.57.57,0,0,1,.48.49l2.49,19.45a.56.56,0,0,0,1.11,0l2.49-19.45a.57.57,0,0,1,.49-.49l19.45-2.49a.56.56,0,0,0,0-1.11l-19.45-2.49A.55.55,0,0,1,143.77,1360.8Z"/><path class="cls-53" d="M491.31,848.26l-2.49-19.45a.56.56,0,0,0-1.11,0l-2.49,19.45a.55.55,0,0,1-.48.48l-19.45,2.49a.56.56,0,0,0,0,1.11l19.45,2.49a.55.55,0,0,1,.48.49l2.49,19.45a.56.56,0,0,0,1.11,0l2.49-19.45a.56.56,0,0,1,.49-.49l19.45-2.49a.56.56,0,0,0,0-1.11l-19.45-2.49A.56.56,0,0,1,491.31,848.26Z"/><path class="cls-53" d="M112.79,202.71l-2.49-19.45a.56.56,0,0,0-1.11,0l-2.49,19.45a.55.55,0,0,1-.48.48l-19.45,2.5a.55.55,0,0,0,0,1.1l19.45,2.49a.57.57,0,0,1,.48.49l2.49,19.45a.56.56,0,0,0,1.11,0l2.49-19.45a.57.57,0,0,1,.48-.49l19.46-2.49a.55.55,0,0,0,0-1.1l-19.46-2.5A.55.55,0,0,1,112.79,202.71Z"/><path class="cls-53" d="M2150.52,828.52,2148,809.06a.56.56,0,0,0-1.11,0l-2.49,19.46a.56.56,0,0,1-.49.48l-19.45,2.49a.56.56,0,0,0,0,1.11l19.45,2.49a.56.56,0,0,1,.49.48l2.49,19.46a.56.56,0,0,0,1.11,0l2.49-19.46a.55.55,0,0,1,.48-.48l19.45-2.49a.56.56,0,0,0,0-1.11L2151,829A.55.55,0,0,1,2150.52,828.52Z"/><path class="cls-53" d="M1305.09,335.2l-1.33-10.36a.3.3,0,0,0-.59,0l-1.32,10.36a.31.31,0,0,1-.26.26l-10.36,1.33a.3.3,0,0,0,0,.59l10.36,1.33a.3.3,0,0,1,.26.25l1.32,10.36a.3.3,0,0,0,.59,0l1.33-10.36a.29.29,0,0,1,.26-.25l10.36-1.33a.3.3,0,0,0,0-.59l-10.36-1.33A.3.3,0,0,1,1305.09,335.2Z"/><path class="cls-53" d="M1201,1089.54l-1.33-10.36a.3.3,0,0,0-.59,0l-1.33,10.36a.28.28,0,0,1-.25.25l-10.36,1.33a.3.3,0,0,0,0,.59l10.36,1.33a.29.29,0,0,1,.25.26l1.33,10.36a.3.3,0,0,0,.59,0l1.33-10.36a.3.3,0,0,1,.26-.26l10.36-1.33a.3.3,0,0,0,0-.59l-10.36-1.33A.29.29,0,0,1,1201,1089.54Z"/><path class="cls-53" d="M883.72,642a7.5,7.5,0,0,1-10.6-10.61c2.92-2.93,48.08-37.48,48.08-37.48S886.65,639.1,883.72,642Z"/><path class="cls-53" d="M938.92,468.91a3.73,3.73,0,0,1-5.27-5.28c1.46-1.45,23.91-18.63,23.91-18.63S940.38,467.45,938.92,468.91Z"/><path class="cls-53" d="M1788.89,677.91a3.73,3.73,0,0,1-5.28-5.27c1.46-1.46,23.91-18.64,23.91-18.64S1790.34,676.45,1788.89,677.91Z"/><path class="cls-53" d="M1563.87,256.49a3.73,3.73,0,0,1-5.28-5.27c1.46-1.46,23.91-18.64,23.91-18.64S1565.32,255,1563.87,256.49Z"/><path class="cls-53" d="M1140.21,1077.68a3.73,3.73,0,0,1-5.28-5.27c1.46-1.46,23.91-18.63,23.91-18.63S1141.66,1076.23,1140.21,1077.68Z"/><path class="cls-53" d="M1679.52,305.17a7.5,7.5,0,0,1-10.6-10.61c2.93-2.93,48.08-37.48,48.08-37.48S1682.45,302.24,1679.52,305.17Z"/><path class="cls-53" d="M1650.75,723.47a7.5,7.5,0,0,1-10.6-10.61c2.93-2.92,48.08-37.47,48.08-37.47S1653.68,720.54,1650.75,723.47Z"/><path class="cls-53" d="M1026.35,1114.36a7.5,7.5,0,0,1-10.61-10.61c2.93-2.93,48.08-37.47,48.08-37.47S1029.28,1111.43,1026.35,1114.36Z"/><path class="cls-54" d="M1313.15,746.66c-30.37,8.26-61.66,10.66-92.29,3.34-52-12.43-67.76-44.67-114.52-51-25.93-3.51-59.23,1.24-101.27,27.11a279.67,279.67,0,0,0,2.17,29c58.1,53.13,107.38,67.12,146,66.93C1218.7,821.75,1261.34,780.57,1313.15,746.66Z"/><path class="cls-55" d="M1426.2,703.59a209.71,209.71,0,0,0-25.17,3.85c-34.17,7.36-62.16,22.39-87.88,39.22-51.81,33.91-94.45,75.09-159.94,75.43-38.59.19-87.87-13.8-146-66.93.08.65.16,1.3.25,2,.13,1,.26,2,.41,2.95s.32,2.15.49,3.22.29,1.9.45,2.85c.22,1.31.46,2.62.7,3.93s.54,2.87.83,4.3c.22,1.15.45,2.31.7,3.45.2,1,.42,1.93.64,2.9s.46,2,.7,3,.47,2,.72,3,.49,2,.75,3,.51,2,.78,2.94.55,2,.83,3,.55,1.93.83,2.9.61,2,.92,3,.57,1.85.87,2.78c.36,1.14.74,2.27,1.13,3.41s.83,2.48,1.27,3.72,1,2.71,1.45,4.06c.32.86.65,1.71,1,2.57.39,1,.79,2.08,1.2,3.11s.71,1.78,1.07,2.66l1.23,3,1.14,2.66c.43,1,.87,2,1.31,3l1.17,2.59c.47,1,1,2,1.43,3l1.17,2.44c.56,1.16,1.14,2.3,1.72,3.45.34.66.66,1.32,1,2,.9,1.75,1.83,3.49,2.77,5.22.35.64.71,1.28,1.07,1.92.63,1.14,1.26,2.28,1.91,3.41l1.29,2.21c.61,1,1.21,2.06,1.83,3.08.45.75.91,1.5,1.38,2.26.62,1,1.24,2,1.87,3,.47.74.94,1.48,1.42,2.21.66,1,1.33,2,2,3l1.39,2.07c.77,1.13,1.55,2.26,2.34,3.38l1.16,1.66q1.77,2.48,3.59,4.91l.82,1.07q1.45,1.92,2.94,3.83l1.41,1.76c.82,1,1.64,2.07,2.48,3.09l1.57,1.89,2.46,2.91,1.63,1.88c.85,1,1.71,1.93,2.57,2.9l1.61,1.77q1.42,1.56,2.88,3.09c.46.5.92,1,1.39,1.48q2.16,2.26,4.38,4.48a275,275,0,0,0,388.9,0q2.4-2.38,4.71-4.82c.54-.56,1-1.13,1.58-1.69,1-1.07,2-2.14,3-3.23l1.85-2.08c.86-1,1.74-1.94,2.59-2.93.66-.75,1.29-1.52,1.94-2.28.79-.94,1.59-1.87,2.37-2.82s1.31-1.62,2-2.44,1.47-1.81,2.19-2.73l2-2.58c.68-.89,1.37-1.78,2-2.68s1.32-1.8,2-2.7l1.91-2.64c.66-.93,1.31-1.87,2-2.81s1.2-1.73,1.79-2.61,1.29-1.94,1.93-2.92l1.67-2.56c.65-1,1.28-2,1.91-3,.52-.84,1.05-1.68,1.56-2.52.63-1,1.26-2.1,1.88-3.15l1.44-2.47c.62-1.09,1.24-2.18,1.85-3.28.45-.8.89-1.6,1.33-2.41.61-1.13,1.22-2.26,1.81-3.4.41-.78.82-1.56,1.22-2.34.6-1.17,1.2-2.35,1.78-3.53l1.11-2.27c.59-1.22,1.17-2.45,1.74-3.68.34-.72.67-1.44,1-2.17.58-1.27,1.15-2.55,1.71-3.83.29-.68.59-1.37.88-2.06.57-1.33,1.13-2.66,1.67-4l.77-1.92c.55-1.4,1.11-2.8,1.64-4.2l.65-1.74c.54-1.48,1.09-3,1.61-4.44l.51-1.5c.55-1.58,1.08-3.15,1.6-4.73.12-.4.25-.8.37-1.2.54-1.69,1.07-3.38,1.58-5.09.08-.25.15-.5.22-.76.55-1.85,1.08-3.7,1.59-5.57a.3.3,0,0,0,0-.1,275.71,275.71,0,0,0,9.49-64.17C1515.65,710.21,1472.22,699.38,1426.2,703.59Z"/><path class="cls-56" d="M1428.39,804.17c-118.88,7.92-166.93,113.54-270.34,111.32-29.17-.62-64.35-9.87-104.38-39.19a277.25,277.25,0,0,0,31.88,38.15,275.29,275.29,0,0,0,449.35-90.89C1502,809.64,1466.23,801.64,1428.39,804.17Z"/><path class="cls-57" d="M1610.66,857.84a130.14,130.14,0,0,0-12-10.62,127.52,127.52,0,0,1-178.9,178.9,130.14,130.14,0,0,0,10.62,12,127.51,127.51,0,0,0,180.32-180.32Z"/><ellipse class="cls-58" cx="1509.17" cy="936.67" rx="126.5" ry="111.47" transform="translate(-220.3 1341.49) rotate(-45)"/><ellipse class="cls-59" cx="1509.17" cy="936.67" rx="126.5" ry="111.47" transform="translate(-220.3 1341.49) rotate(-45)"/><path id="LowYellow-2" data-name="LowYellow" class="cls-60" d="M1280,995a275,275,0,1,1,194.45-80.55A273.19,273.19,0,0,1,1280,995Z"/><circle id="shine" class="cls-61" cx="1280" cy="720" r="290"/><g class="cls-62"><path class="cls-63" d="M1710.05,418.87c-38-54.29-261.37,36.52-498.88,202.83S811.93,966.84,850,1021.13s261.37-36.52,498.88-202.83S1748.07,473.16,1710.05,418.87Zm-372.69,383c-223.94,156.8-431.16,247.24-462.84,202s124.18-209,348.12-365.84,431.16-247.24,462.84-202S1561.3,645.11,1337.36,801.92Z"/></g><g class="cls-62"><path class="cls-64" d="M1710.05,418.87c-38-54.29-261.37,36.52-498.88,202.83S811.93,966.84,850,1021.13s261.37-36.52,498.88-202.83S1748.07,473.16,1710.05,418.87Zm-372.69,383c-223.94,156.8-431.16,247.24-462.84,202s124.18-209,348.12-365.84,431.16-247.24,462.84-202S1561.3,645.11,1337.36,801.92Z"/></g><g class="cls-65"><path class="cls-66" d="M1724.34,485.72c-38-54.29-261.37,36.52-498.89,202.83S826.21,1033.69,864.23,1088s261.37-36.52,498.88-202.83S1762.35,540,1724.34,485.72Zm-372.7,383c-223.94,156.8-431.16,247.24-462.84,202s124.18-209,348.12-365.83,431.16-247.25,462.84-202S1575.58,712,1351.64,868.77Z"/></g><path class="cls-67" d="M1161.89,516.72a232.62,232.62,0,0,1,53-27.49"/><path class="cls-67" d="M1104.72,563.45q4.41-4.92,9.11-9.62,5.2-5.21,10.67-10"/><g class="cls-68"><circle class="cls-69" cx="1119" cy="760.03" r="10"/><circle class="cls-70" cx="1141.89" cy="796.85" r="10"/><circle class="cls-71" cx="1176.87" cy="761.25" r="10"/><circle class="cls-72" cx="1209.37" cy="781.25" r="10"/><circle class="cls-73" cx="1306.86" cy="801.97" r="10"/><circle class="cls-74" cx="1244.7" cy="832.09" r="10"/><circle class="cls-75" cx="1199.37" cy="848.84" r="10"/><circle class="cls-76" cx="1156.34" cy="880.98" r="10"/><circle class="cls-77" cx="1166.87" cy="958" r="10"/><circle class="cls-78" cx="1249.37" cy="917.33" r="10"/><circle class="cls-79" cx="1273.37" cy="968" r="10"/><circle class="cls-80" cx="1310.95" cy="927.33" r="10"/><circle class="cls-81" cx="1350.95" cy="868.84" r="10"/><circle class="cls-82" cx="1393" cy="909.35" r="10"/><circle class="cls-83" cx="1423" cy="878.84" r="10"/><circle class="cls-84" cx="1467.67" cy="870.98" r="10"/><circle class="cls-85" cx="1365" cy="958" r="10"/><circle class="cls-86" cx="1131.89" cy="854.75" r="10"/><circle class="cls-87" cx="1063.82" cy="848" r="10"/><circle class="cls-88" cx="1032.02" cy="796.85" r="10"/><circle class="cls-89" cx="1340.95" cy="761.25" r="10"/><circle class="cls-90" cx="1396.23" cy="729.87" r="10"/><circle class="cls-91" cx="1527.56" cy="750.15" r="10"/><circle class="cls-92" cx="1451.67" cy="771.25" r="10"/><circle class="cls-93" cx="1520.5" cy="802.76" r="10"/><circle class="cls-94" cx="1109" cy="724.31" r="10"/><circle class="cls-95" cx="1038.68" cy="728.93" r="10"/><circle class="cls-96" cx="1070.02" cy="766.93" r="10"/><circle class="cls-97" cx="1177.51" cy="803.89" r="5.91"/><circle class="cls-98" cx="1220.12" cy="817.89" r="5.91"/><circle class="cls-99" cx="1119" cy="889.89" r="5.91"/><circle class="cls-100" cx="1117.8" cy="920.94" r="5.91"/><circle class="cls-101" cx="1347.35" cy="932.77" r="5.91"/><circle class="cls-102" cx="1273.37" cy="811.97" r="5.91"/><circle class="cls-103" cx="1220.12" cy="959.83" r="5.91"/><circle class="cls-104" cx="1199.59" cy="875.41" r="5.91"/><circle class="cls-105" cx="1205.82" cy="920.94" r="5.91"/><circle class="cls-106" cx="1383" cy="848.84" r="5.91"/><circle class="cls-107" cx="1268.79" cy="926.86" r="5.91"/><circle class="cls-108" cx="1314.66" cy="963.91" r="5.91"/><circle class="cls-109" cx="1314.66" cy="868.23" r="5.91"/><circle class="cls-110" cx="1339.53" cy="892.18" r="5.91"/><circle class="cls-111" cx="1473.58" cy="836.17" r="5.91"/><circle class="cls-112" cx="1451.67" cy="893.44" r="5.91"/><circle class="cls-113" cx="1414.91" cy="932.77" r="5.91"/><circle class="cls-114" cx="1370.68" cy="745.1" r="5.91"/><circle class="cls-115" cx="1060.02" cy="817.89" r="5.91"/><circle class="cls-116" cx="1159.11" cy="842.09" r="5.91"/><circle class="cls-117" cx="1300.95" cy="780.14" r="5.91"/><circle class="cls-118" cx="1341.44" cy="786.06" r="5.91"/><circle class="cls-119" cx="1473.58" cy="746.93" r="5.91"/><circle class="cls-120" cx="1510.81" cy="774.23" r="5.91"/><circle class="cls-121" cx="1477.67" cy="786.85" r="5.91"/><circle class="cls-122" cx="1148.55" cy="748.95" r="5.91"/><circle class="cls-123" cx="1084.72" cy="741.02" r="5.91"/><circle class="cls-124" cx="1084.72" cy="796.85" r="5.91"/><circle class="cls-125" cx="1504.9" cy="733.75" r="16.4"/><circle class="cls-126" cx="1294.25" cy="895.74" r="16.4"/><circle class="cls-127" cx="1425.4" cy="836.17" r="16.4"/><circle class="cls-128" cx="1097.86" cy="844.75" r="16.4"/></g><circle class="cls-129" cx="2373.5" cy="348.5" r="21.5"/><circle class="cls-130" cx="2373.5" cy="348.5" r="16.23"/><circle class="cls-131" cx="2373.5" cy="348.5" r="10.97"/><circle class="cls-132" cx="745" cy="89" r="21.5"/><circle class="cls-133" cx="745" cy="89" r="16.23"/><circle class="cls-134" cx="745" cy="89" r="10.97"/><circle class="cls-135" cx="505" cy="1299" r="21.5"/><circle class="cls-136" cx="505" cy="1299" r="16.23"/><circle class="cls-137" cx="505" cy="1299" r="10.97"/><circle class="cls-138" cx="1989" cy="123" r="21.5"/><circle class="cls-139" cx="1989" cy="123" r="16.23"/><circle class="cls-140" cx="1989" cy="123" r="10.97"/><circle class="cls-141" cx="127.7" cy="573.84" r="21.5"/><circle class="cls-142" cx="127.7" cy="573.84" r="16.23"/><circle class="cls-143" cx="127.7" cy="573.84" r="10.97"/><circle class="cls-144" cx="2370.9" cy="1034.85" r="21.5"/><circle class="cls-145" cx="2370.9" cy="1034.85" r="16.23"/><circle class="cls-146" cx="2370.9" cy="1034.85" r="10.97"/><circle class="cls-147" cx="322.72" cy="170.76" r="50.6"/><circle class="cls-148" cx="322.72" cy="170.76" r="38.21"/><circle class="cls-149" cx="322.72" cy="170.76" r="25.82"/></g></g></svg>