<svg xmlns="http://www.w3.org/2000/svg" xmlns:xlink="http://www.w3.org/1999/xlink" viewBox="0 0 1079.9 1527.29"><defs><style>.cls-1{fill:#195b5b;}.cls-2{fill:#ff99e0;}.cls-3{fill:url(#Dégradé_sans_nom_100);}.cls-4{isolation:isolate;}.cls-5{fill:url(#Dégradé_sans_nom_130);}.cls-6{fill:url(#Dégradé_sans_nom_118);}.cls-7{clip-path:url(#clip-path);}.cls-8{fill:#258481;}.cls-9{clip-path:url(#clip-path-2);}.cls-10{clip-path:url(#clip-path-3);}.cls-11{fill:#fffabb;}.cls-12{fill:#ff78e2;}.cls-13{clip-path:url(#clip-path-4);}.cls-14{clip-path:url(#clip-path-5);}.cls-15{fill:#ffd4f4;}.cls-16{fill:#75d1d1;}.cls-17{fill:#37ccd3;}.cls-18{fill:#217b84;}.cls-19{fill:#fff;}.cls-20{clip-path:url(#clip-path-6);}.cls-21{fill:#666;mix-blend-mode:overlay;}.cls-22{clip-path:url(#clip-path-7);}</style><linearGradient id="Dégradé_sans_nom_100" x1="632.78" y1="298.38" x2="632.78" y2="190.31" gradientUnits="userSpaceOnUse"><stop offset="0.19" stop-color="#01cdfe"/><stop offset="1" stop-color="#217b84"/></linearGradient><radialGradient id="Dégradé_sans_nom_130" cx="570.23" cy="1493.78" r="1915.23" gradientTransform="translate(0 436.56) scale(1 0.71)" gradientUnits="userSpaceOnUse"><stop offset="0" stop-color="#fc74ce"/><stop offset="0.14" stop-color="#fa75ce"/><stop offset="0.21" stop-color="#f278d0"/><stop offset="0.26" stop-color="#e47cd3"/><stop offset="0.31" stop-color="#d183d6"/><stop offset="0.36" stop-color="#b88cdb"/><stop offset="0.4" stop-color="#9997e1"/><stop offset="0.44" stop-color="#75a4e8"/><stop offset="0.47" stop-color="#4ab3f0"/><stop offset="0.51" stop-color="#1cc4f9"/><stop offset="0.52" stop-color="#01cdfe"/><stop offset="0.63" stop-color="#11a4c1"/><stop offset="0.71" stop-color="#1d8695"/><stop offset="0.75" stop-color="#217b84"/><stop offset="1" stop-color="#154c4c"/></radialGradient><linearGradient id="Dégradé_sans_nom_118" x1="521.56" y1="1064.86" x2="521.56" y2="735.04" gradientUnits="userSpaceOnUse"><stop offset="0" stop-color="#fc74ce"/><stop offset="0.07" stop-color="#fd8ec3"/><stop offset="0.18" stop-color="#fdb0b5"/><stop offset="0.3" stop-color="#fecbaa"/><stop offset="0.43" stop-color="#fee0a1"/><stop offset="0.58" stop-color="#ffef9b"/><stop offset="0.75" stop-color="#fff897"/><stop offset="1" stop-color="#fffb96"/></linearGradient><clipPath id="clip-path"><polygon id="_Masque_" data-name="&lt;Masque&gt;" class="cls-1" points="765 1518 576 1518 360.98 1303.27 760.29 903.96 1073 1217 1072 1304 1069 1394 950 1513 765 1518"/></clipPath><clipPath id="clip-path-2"><polygon id="_Masque_2" data-name="&lt;Masque&gt;" class="cls-1" points="304 1517 91 1514 3.6 1426.84 3.36 1411.42 323.76 1091.03 651.74 1419.01 553 1518 304 1517"/></clipPath><clipPath id="clip-path-3"><path id="_Masque_3" data-name="&lt;Masque&gt;" class="cls-2" d="M559.57,557.88c-4.33-6-9.69-9.7-15.53-10.26-3.71-45-49.84-80.52-106.23-80.52-41.14,0-76.83,18.94-94.56,46.65A87.78,87.78,0,0,0,326,512.06c-34.51,0-63.91,19.78-75.06,47.49A7.61,7.61,0,0,0,258,570H553.48A7.61,7.61,0,0,0,559.57,557.88Z"/></clipPath><clipPath id="clip-path-4"><path id="_Masque_4" data-name="&lt;Masque&gt;" class="cls-2" d="M730,636.86h283.1c11.82-10.82,18.84-24.31,18.84-39,0-35.6-41.49-64.46-92.66-64.46-44.41,0-81.5,21.73-90.54,50.74-1.88-.1-3.78-.16-5.71-.16-25.58,0-47.72,8.82-58.45,21.66a81.61,81.61,0,0,0-18.09-2c-24,0-43.42,9.62-43.42,21.49C723.07,629.51,725.62,633.5,730,636.86Z"/></clipPath><clipPath id="clip-path-5"><path id="_Masque_5" data-name="&lt;Masque&gt;" class="cls-2" d="M712.46,867.15a3.81,3.81,0,0,0,3.73-4.66c-2.92-12.56-14.56-22-28.5-22l-.28,0c-8.52-5.94-21.08-9.69-35.1-9.69-13.54,0-25.73,3.5-34.22,9.09-20.92.43-37.66,10.79-37.66,23.54v0a3.74,3.74,0,0,0,3.81,3.61Z"/></clipPath><clipPath id="clip-path-6"><circle id="_Ellipse_" data-name="&lt;Ellipse&gt;" class="cls-3" cx="632.78" cy="239.92" r="58.05"/></clipPath><clipPath id="clip-path-7"><path id="_Masque_6" data-name="&lt;Masque&gt;" class="cls-2" d="M64.55,806.67a6.47,6.47,0,0,1-6.07-4.15,45.25,45.25,0,0,1,32.38-60.16A61.71,61.71,0,0,1,203.7,748.1a42.91,42.91,0,0,1,61,28.63,26.6,26.6,0,0,1,13.51-3.17A26.94,26.94,0,0,1,304,797.85c.06.74.1,1.47.11,2.2a6.52,6.52,0,0,1-6.51,6.62Z"/></clipPath></defs><title>vaporwave_2</title><g class="cls-4"><g id="Calque_2" data-name="Calque 2"><g id="Calque_1-2" data-name="Calque 1"><rect class="cls-5" x="9.9" y="14.01" width="1060.1" height="1499.28"/><circle class="cls-6" cx="521.56" cy="936.66" r="169.9"/><polygon id="_Masque_7" data-name="&lt;Masque&gt;" class="cls-1" points="765 1518 576 1518 360.98 1303.27 760.29 903.96 1073 1217 1072 1304 1069 1394 950 1513 765 1518"/><g class="cls-7"><path class="cls-8" d="M760.29,904,742,958.46l-50.52,101.89-38.26,87.54-35.49,59.41L540,1242.67l-151.73,78,119.08,97s-72.29,86.85-73.86,81.67-338.2-563.2-338.2-563.2l645.6-51.76Z"/></g><polygon id="_Masque_8" data-name="&lt;Masque&gt;" class="cls-1" points="304 1517 91 1514 3.6 1426.84 3.36 1411.42 323.76 1091.03 651.74 1419.01 553 1518 304 1517"/><g class="cls-9"><path class="cls-8" d="M323.76,1091l-43,86.79-14.06,60-30.89,53.55-55,46.22-33.26,42.33L47,1429l69,84s-68.67-3.71-70-8-36-328-36-328l297.78-102.08Z"/></g><path id="_Masque_9" data-name="&lt;Masque&gt;" class="cls-2" d="M559.57,557.88c-4.33-6-9.69-9.7-15.53-10.26-3.71-45-49.84-80.52-106.23-80.52-41.14,0-76.83,18.94-94.56,46.65A87.78,87.78,0,0,0,326,512.06c-34.51,0-63.91,19.78-75.06,47.49A7.61,7.61,0,0,0,258,570H553.48A7.61,7.61,0,0,0,559.57,557.88Z"/><g class="cls-10"><path class="cls-11" d="M218.7,588.28c-13.9-16.94,101.1-36.43,192.19-37,88.63-.55,164.81,15.15,164.81,35.32s-76.18,37.72-164.81,37.72S231.49,603.87,218.7,588.28Z"/><path class="cls-12" d="M536,515.14c0,10.74-42.91-29.72-97.68-30.88-47.54-1-85.56,27.47-85.56,16.73s52.95-49.89,86.52-49.89S536,504.39,536,515.14Z"/><path class="cls-12" d="M342.84,513.67c2.91,5.09-25,.88-54.47,16-25.07,12.84-34.78,35.8-37.69,30.71s13.26-37.57,29.16-46.67S339.93,508.58,342.84,513.67Z"/><path class="cls-12" d="M559.05,568c-3.4.35,2.21-7.66-9-13.88-2.52-1.39-7.24-2.94-7.38-4.24-.2-1.78,4.94-4.82,9.73-4.5,7.38.49,13.3,8.94,14.78,16.57C568.43,568.48,561.11,567.78,559.05,568Z"/></g><path id="_Masque_10" data-name="&lt;Masque&gt;" class="cls-2" d="M730,636.86h283.1c11.82-10.82,18.84-24.31,18.84-39,0-35.6-41.49-64.46-92.66-64.46-44.41,0-81.5,21.73-90.54,50.74-1.88-.1-3.78-.16-5.71-.16-25.58,0-47.72,8.82-58.45,21.66a81.61,81.61,0,0,0-18.09-2c-24,0-43.42,9.62-43.42,21.49C723.07,629.51,725.62,633.5,730,636.86Z"/><g class="cls-13"><path class="cls-12" d="M1032.14,582.43c-.21,10.31-32.53-30.69-93.1-31.47-55-.71-85.27,32.08-85.07,21.77s54.42-54.19,86.62-53.55S1032.34,572.12,1032.14,582.43Z"/><path class="cls-12" d="M849.56,585.8c0,.77-9.77-1.93-34.49,6.83-23.17,8.2-28.58,16-29.91,12.38s13.07-24,24.46-28.11S849.44,581.92,849.56,585.8Z"/><path class="cls-12" d="M784.09,605.58c3.53,2.6-20.89,2.8-34.25,7.86-17.56,6.66-25.34,17.42-26.67,13.78s-.13-21.89,21.14-29.65C755.69,593.42,781,603.27,784.09,605.58Z"/><path class="cls-11" d="M723,644.8s18.77-25.33,142.5-24,171.08,25,171.08,25Z"/></g><path id="_Masque_11" data-name="&lt;Masque&gt;" class="cls-2" d="M712.46,867.15a3.81,3.81,0,0,0,3.73-4.66c-2.92-12.56-14.56-22-28.5-22l-.28,0c-8.52-5.94-21.08-9.69-35.1-9.69-13.54,0-25.73,3.5-34.22,9.09-20.92.43-37.66,10.79-37.66,23.54v0a3.74,3.74,0,0,0,3.81,3.61Z"/><g class="cls-14"><path class="cls-11" d="M596.35,861.94s-20.41,3.62-23.36,8.39,105.68,10.88,125.18,6.8,26.3-8.39,23.58-12.93-39-9.52-51.25-10.2S608.81,859,596.35,861.94Z"/></g><circle class="cls-15" cx="192.59" cy="47.62" r="2.72"/><circle class="cls-15" cx="255.79" cy="93.69" r="5.56"/><circle class="cls-15" cx="281.4" cy="63.72" r="3.51"/><circle class="cls-15" cx="348.84" cy="66.97" r="6.54"/><circle class="cls-15" cx="334.55" cy="88.74" r="4.95"/><circle class="cls-15" cx="523.46" cy="50.34" r="7.6"/><circle class="cls-15" cx="808.42" cy="66.97" r="6.6"/><circle class="cls-16" cx="932.36" cy="114.52" r="10.19"/><circle class="cls-16" cx="854.72" cy="204.84" r="4.72"/><circle class="cls-15" cx="739.84" cy="184.96" r="2.36"/><circle class="cls-15" cx="697.88" cy="217.56" r="2.36"/><circle class="cls-16" cx="881.97" cy="211.86" r="2.36"/><circle class="cls-15" cx="881.97" cy="75.06" r="4.46"/><circle class="cls-15" cx="766.28" cy="114.52" r="2.23"/><circle class="cls-16" cx="915.65" cy="144.3" r="4.46"/><circle class="cls-15" cx="890.96" cy="121.81" r="2.23"/><circle class="cls-15" cx="637.02" cy="67.46" r="7.6"/><circle class="cls-15" cx="461.68" cy="79.52" r="2.36"/><circle class="cls-15" cx="563.38" cy="113.28" r="4.6"/><circle class="cls-15" cx="580.43" cy="229.43" r="2.36"/><circle class="cls-16" cx="74.46" cy="162.15" r="10.59"/><circle class="cls-15" cx="141.67" cy="111.99" r="4.16"/><circle class="cls-15" cx="179.96" cy="131.94" r="4.35"/><circle class="cls-15" cx="129.75" cy="153.42" r="2.99"/><circle class="cls-16" cx="275.25" cy="147.43" r="2.99"/><circle class="cls-15" cx="872.17" cy="151.55" r="2.72"/><circle class="cls-16" cx="839.85" cy="112.29" r="5.56"/><circle class="cls-16" cx="788.66" cy="144.3" r="3.51"/><circle class="cls-16" cx="654.9" cy="134.19" r="6.54"/><circle class="cls-16" cx="709.66" cy="149.48" r="4.95"/><circle class="cls-15" cx="508.27" cy="118.99" r="7.6"/><circle class="cls-16" cx="291.51" cy="222.07" r="6.6"/><circle class="cls-17" cx="95.24" cy="323.23" r="10.19"/><circle class="cls-17" cx="305.77" cy="315.91" r="4.72"/><circle class="cls-17" cx="297.55" cy="282.29" r="2.36"/><circle class="cls-17" cx="320.07" cy="288.83" r="2.36"/><circle class="cls-17" cx="173.09" cy="313.04" r="2.36"/><circle class="cls-16" cx="369.42" cy="194.98" r="6.6"/><circle class="cls-16" cx="194.34" cy="186.84" r="4.46"/><circle class="cls-16" cx="315.48" cy="164.38" r="2.23"/><circle class="cls-15" cx="228.81" cy="234.7" r="2.23"/><circle class="cls-16" cx="352.23" cy="120.62" r="4.46"/><circle class="cls-16" cx="148.66" cy="214.2" r="2.23"/><circle class="cls-16" cx="400.37" cy="145.82" r="7.6"/><circle class="cls-16" cx="580.43" cy="156.41" r="2.36"/><circle class="cls-16" cx="469.41" cy="171.61" r="4.6"/><circle class="cls-17" cx="947.63" cy="247.07" r="10.59"/><circle class="cls-17" cx="1008.05" cy="225.27" r="4.16"/><circle class="cls-17" cx="922.18" cy="268.19" r="4.35"/><circle class="cls-17" cx="875.16" cy="244.08" r="2.99"/><circle class="cls-17" cx="815.02" cy="225.27" r="2.99"/><circle class="cls-15" cx="214.52" cy="101.97" r="2.72"/><circle class="cls-15" cx="240.37" cy="70.34" r="5.56"/><circle class="cls-18" cx="898.81" cy="386.72" r="10.19"/><circle class="cls-17" cx="815.02" cy="265.02" r="4.72"/><circle class="cls-18" cx="832.28" cy="310.47" r="2.36"/><circle class="cls-18" cx="899.84" cy="344.16" r="4.46"/><circle class="cls-17" cx="885.21" cy="255.44" r="5.56"/><circle class="cls-18" cx="780.3" cy="361.62" r="10.59"/><circle class="cls-18" cx="731.62" cy="338.81" r="4.35"/><circle class="cls-17" cx="780.3" cy="297.97" r="2.99"/><circle class="cls-18" cx="1017.82" cy="317.01" r="4.72"/><circle class="cls-18" cx="1010.81" cy="344.26" r="2.36"/><circle class="cls-18" cx="978.59" cy="337.45" r="2.99"/><circle class="cls-18" cx="983.96" cy="316.73" r="2.99"/><circle class="cls-16" cx="792.18" cy="194.98" r="6.52"/><circle class="cls-15" cx="721.2" cy="63.46" r="3.51"/><circle class="cls-18" cx="231.58" cy="358.33" r="10.59"/><circle class="cls-18" cx="182.81" cy="385.8" r="2.99"/><circle class="cls-18" cx="130.53" cy="397.85" r="2.99"/><circle class="cls-18" cx="73.3" cy="397.93" r="6.6"/><circle class="cls-18" cx="110.62" cy="377" r="4.46"/><circle class="cls-18" cx="149" cy="372.14" r="2.23"/><circle class="cls-18" cx="362.82" cy="366.2" r="10.59"/><circle class="cls-18" cx="314.06" cy="393.67" r="2.99"/><circle class="cls-18" cx="280.25" cy="380.01" r="2.23"/><circle class="cls-17" cx="763.28" cy="221.12" r="2.99"/><circle class="cls-17" cx="731.62" cy="263.84" r="5.56"/><circle class="cls-17" cx="101.84" cy="247.07" r="6.6"/><circle class="cls-15" cx="13.92" cy="268.02" r="2.99"/><circle class="cls-17" cx="40.84" cy="278.48" r="2.23"/><circle class="cls-16" cx="945.19" cy="185.09" r="4.72"/><circle class="cls-16" cx="1008.05" cy="178.57" r="2.36"/><circle class="cls-17" cx="534.96" cy="234.57" r="4.72"/><circle class="cls-17" cx="520.56" cy="208.26" r="2.99"/><circle class="cls-17" cx="494.28" cy="225.92" r="2.23"/><circle class="cls-17" cx="199.06" cy="273.28" r="4.72"/><circle class="cls-17" cx="184.66" cy="246.98" r="2.99"/><circle class="cls-17" cx="158.37" cy="264.64" r="2.23"/><circle class="cls-17" cx="443.34" cy="266.87" r="6.6"/><circle class="cls-17" cx="401.06" cy="234.57" r="10.19"/><circle class="cls-18" cx="473.46" cy="350.11" r="2.99"/><circle class="cls-18" cx="363.94" cy="362.24" r="6.6"/><circle class="cls-18" cx="401.26" cy="341.32" r="4.46"/><circle class="cls-18" cx="439.65" cy="336.45" r="2.23"/><circle class="cls-18" cx="604.7" cy="357.98" r="2.99"/><circle class="cls-18" cx="570.89" cy="344.32" r="2.23"/><circle class="cls-18" cx="573.07" cy="338.96" r="2.99"/><circle class="cls-18" cx="500.88" cy="330.17" r="4.46"/><circle class="cls-18" cx="539.26" cy="325.3" r="2.23"/><circle class="cls-18" cx="704.32" cy="346.83" r="2.99"/><circle class="cls-18" cx="670.51" cy="333.17" r="2.23"/><polygon class="cls-19" points="180.48 1517.29 10 1517.29 10 1346.81 180.48 1517.29"/><polygon class="cls-19" points="1070 1346.71 1070 1517.39 899.32 1517.39 1070 1346.71"/><polygon class="cls-19" points="10 180.48 10 10 180.48 10 10 180.48"/><polygon class="cls-19" points="899.42 10 1069.9 10 1069.9 180.48 899.42 10"/><path class="cls-19" d="M1058.13,21.77V1505.52H21.77V21.77H1058.13M1079.9,0H0V1527.29H1079.9V0Z"/><circle id="_Ellipse_2" data-name="&lt;Ellipse&gt;" class="cls-3" cx="632.78" cy="239.92" r="58.05"/><g class="cls-20"><path class="cls-21" d="M574.16,246.52a58.05,58.05,0,0,1,113.51,21.12,61.68,61.68,0,1,0-115.06-14.5A60.37,60.37,0,0,1,574.16,246.52Z"/></g><path id="_Masque_12" data-name="&lt;Masque&gt;" class="cls-2" d="M64.55,806.67a6.47,6.47,0,0,1-6.07-4.15,45.25,45.25,0,0,1,32.38-60.16A61.71,61.71,0,0,1,203.7,748.1a42.91,42.91,0,0,1,61,28.63,26.6,26.6,0,0,1,13.51-3.17A26.94,26.94,0,0,1,304,797.85c.06.74.1,1.47.11,2.2a6.52,6.52,0,0,1-6.51,6.62Z"/><g class="cls-22"><path class="cls-12" d="M201.07,743.21c0,10.34-16.14-21.22-52.33-21.22s-56.1,28.29-56.1,18,20.68-41.5,56.87-41.5S201.07,732.88,201.07,743.21Z"/><path class="cls-12" d="M266,775.37c-2.28,5.83-11.23-12.11-31.65-20.12s-32.61-2.64-30.33-8.47,20.5-18.25,40.92-10.24S268.28,769.53,266,775.37Z"/><path class="cls-12" d="M304.09,801.55c-2,3.63-2.36-13.58-15.08-20.49s-26.62-1.87-24.65-5.51,17.48-10.25,30.19-3.33S306.07,797.92,304.09,801.55Z"/><path class="cls-12" d="M93.58,744.93c4.14,4.7-6,1.61-22.46,16.12S57.2,797.2,53.05,792.5s-10.62-28.45,5.83-43S89.43,740.23,93.58,744.93Z"/><path class="cls-11" d="M45,818.74c-10.28-14.17,74.73-30.47,142.06-31,65.52-.46,121.83,12.67,121.83,29.55S252.57,848.9,187.05,848.9,54.44,831.79,45,818.74Z"/></g></g></g></g></svg>