<svg xmlns="http://www.w3.org/2000/svg" xmlns:xlink="http://www.w3.org/1999/xlink" viewBox="0 0 360.87 401.63"><defs><style>.cls-1{fill:#e0228e;}.cls-2{fill:#983094;}.cls-3{fill:url(#Dégradé_sans_nom_8);}.cls-4{fill:#fff;}.cls-5{fill:url(#Dégradé_sans_nom_26);}.cls-6{fill:url(#Dégradé_sans_nom_26-2);}.cls-7{fill:url(#Dégradé_sans_nom_26-3);}.cls-8{fill:#96298e;}</style><linearGradient id="Dégradé_sans_nom_8" y1="275.68" x2="52.47" y2="275.68" gradientUnits="userSpaceOnUse"><stop offset="0" stop-color="#df228d"/><stop offset="1" stop-color="#983094"/></linearGradient><linearGradient id="Dégradé_sans_nom_26" x1="291.85" y1="272.09" x2="340.62" y2="272.09" gradientUnits="userSpaceOnUse"><stop offset="0.17" stop-color="#df228d"/><stop offset="0.37" stop-color="#c42790"/><stop offset="0.6" stop-color="#ac2c92"/><stop offset="0.82" stop-color="#9d2f93"/><stop offset="1" stop-color="#983094"/></linearGradient><linearGradient id="Dégradé_sans_nom_26-2" x1="282.77" y1="271.97" x2="369.38" y2="271.97" gradientTransform="translate(76.87 -77.71) rotate(15.64)" xlink:href="#Dégradé_sans_nom_26"/><linearGradient id="Dégradé_sans_nom_26-3" x1="89.62" y1="50.42" x2="268.59" y2="156.08" gradientTransform="translate(-4.05 3.39) rotate(-0.76)" xlink:href="#Dégradé_sans_nom_26"/></defs><title>monlogo_1</title><g id="Calque_2" data-name="Calque 2"><g id="Calque_1-2" data-name="Calque 1"><path class="cls-1" d="M171.29,267a3.91,3.91,0,0,0-5.51,0,32,32,0,0,1-5.88,4.62v-19A3.89,3.89,0,0,0,156,248.7c-10,0-16.27,14.09-18.66,31.29a39,39,0,0,1-5.95.7c-1.27,0-3.49-.2-3.61-1-.33-2.34,3.11-7,4.85-7.66a3.9,3.9,0,0,0,.91-7.73c-4.75-.81-8.9,4.27-10.07,5.85-3.45,4.69-4.42,9.67-2.57,13.3,1.17,2.3,3.93,5,10.4,5h.13a39.6,39.6,0,0,0,5.1-.45c-.18,2.64-.27,5.32-.27,8a3.9,3.9,0,1,0,7.79,0c0-3.4.15-6.62.42-9.67,2.26-.61,4.87-1.39,7.63-2.41v14.81a3.9,3.9,0,0,0,7.79,0V280.57a44.09,44.09,0,0,0,11.44-8.09A3.9,3.9,0,0,0,171.29,267Zm-25.72,11c1.54-8.66,4-15.12,6.54-18.58v16.25Q149,276.89,145.57,277.94Z"/><path class="cls-2" d="M111.33,267a3.91,3.91,0,0,0-5.51,0,31.66,31.66,0,0,1-5.88,4.62v-19a3.89,3.89,0,0,0-3.89-3.89c-10,0-16.27,14.09-18.66,31.29a38.88,38.88,0,0,1-6,.7c-1.27,0-3.49-.2-3.6-1-.34-2.34,3.1-7,4.84-7.66a3.9,3.9,0,0,0,.91-7.73c-4.75-.81-8.9,4.27-10.06,5.85-3.46,4.69-4.42,9.67-2.58,13.3,1.17,2.3,3.93,5,10.4,5h.13a39.6,39.6,0,0,0,5.1-.45c-.18,2.64-.27,5.32-.27,8a3.9,3.9,0,1,0,7.79,0c0-3.4.15-6.62.42-9.67,2.26-.61,4.87-1.39,7.63-2.41v14.81a3.9,3.9,0,0,0,7.79,0V280.57a44.09,44.09,0,0,0,11.44-8.09A3.89,3.89,0,0,0,111.33,267Zm-25.72,11c1.54-8.66,4-15.12,6.54-18.58v16.25Q89.07,276.89,85.61,277.94Z"/><path class="cls-3" d="M51.3,267a3.91,3.91,0,0,0-5.51,0,31.66,31.66,0,0,1-5.88,4.62v-19A3.89,3.89,0,0,0,36,248.7c-10,0-16.27,14.09-18.66,31.29a38.88,38.88,0,0,1-5.95.7c-1.27,0-3.49-.2-3.6-1-.34-2.34,3.1-7,4.84-7.66a3.9,3.9,0,0,0,.91-7.73c-4.75-.81-8.9,4.27-10.06,5.85C0,274.84-.92,279.82.92,283.45c1.17,2.3,3.93,5,10.4,5h.13a39.6,39.6,0,0,0,5.1-.45c-.18,2.64-.27,5.32-.27,8a3.9,3.9,0,1,0,7.79,0c0-3.4.15-6.62.42-9.67,2.26-.61,4.87-1.39,7.63-2.41v14.81a3.9,3.9,0,0,0,7.79,0V280.57a44.09,44.09,0,0,0,11.44-8.09A3.89,3.89,0,0,0,51.3,267Zm-25.72,11c1.54-8.66,4-15.12,6.54-18.58v16.25Q29,276.89,25.58,277.94Z"/><circle cx="264.34" cy="361.47" r="40.16"/><path class="cls-4" d="M287.64,353.38a3.63,3.63,0,0,0-5.12,0,30.1,30.1,0,0,1-5.47,4.3V340a3.62,3.62,0,0,0-3.62-3.62c-9.26,0-15.13,13.1-17.34,29.09a36.69,36.69,0,0,1-5.54.65c-1.17,0-3.24-.18-3.35-.93-.3-2.18,2.89-6.48,4.51-7.12a3.62,3.62,0,0,0,.85-7.18c-4.42-.76-8.28,4-9.36,5.43-3.22,4.36-4.11,9-2.39,12.36,1.09,2.14,3.65,4.68,9.67,4.68h.11a34,34,0,0,0,4.74-.42c-.16,2.46-.25,4.95-.25,7.44a3.63,3.63,0,0,0,7.25,0c0-3.16.14-6.16.38-9,2.1-.56,4.53-1.3,7.1-2.24v13.77a3.62,3.62,0,0,0,7.24,0V366a40.61,40.61,0,0,0,10.63-7.51A3.61,3.61,0,0,0,287.64,353.38Zm-23.91,10.2c1.43-8.06,3.76-14.06,6.08-17.28v15.1C267.91,362.19,265.87,362.92,263.73,363.58Z"/><path d="M223.32,315.4a43.31,43.31,0,1,1,43.31-43.31A43.36,43.36,0,0,1,223.32,315.4Zm0-80.32a37,37,0,1,0,37,37A37.05,37.05,0,0,0,223.32,235.08Z"/><path d="M245.3,264a3.62,3.62,0,0,0-5.12.05,30,30,0,0,1-5.46,4.3V250.64a3.64,3.64,0,0,0-3.63-3.63c-9.26,0-15.12,13.1-17.34,29.1a38,38,0,0,1-5.54.65c-1.17,0-3.24-.19-3.34-.94-.31-2.17,2.88-6.48,4.5-7.11a3.63,3.63,0,0,0,.85-7.19c-4.42-.76-8.28,4-9.36,5.43-3.22,4.37-4.11,9-2.39,12.37,1.09,2.14,3.65,4.68,9.67,4.68h.11a35.64,35.64,0,0,0,4.74-.43c-.16,2.47-.24,5-.24,7.45a3.62,3.62,0,0,0,7.24,0c0-3.16.14-6.16.39-9,2.1-.56,4.52-1.29,7.09-2.23v13.76a3.63,3.63,0,0,0,7.25,0V276.64a41.22,41.22,0,0,0,10.63-7.52A3.62,3.62,0,0,0,245.3,264Zm-23.91,10.2c1.43-8.06,3.76-14.06,6.08-17.28V272C225.57,272.82,223.53,273.55,221.39,274.2Z"/><circle class="cls-2" cx="171.75" cy="361.47" r="40.16"/><path class="cls-4" d="M195.05,353.38a3.63,3.63,0,0,0-5.12,0,30,30,0,0,1-5.46,4.3V340a3.62,3.62,0,0,0-3.62-3.62c-9.27,0-15.13,13.1-17.35,29.09a36.58,36.58,0,0,1-5.53.65c-1.18,0-3.25-.18-3.35-.93-.31-2.18,2.88-6.48,4.5-7.12a3.62,3.62,0,0,0,.85-7.18c-4.42-.76-8.28,4-9.36,5.43-3.21,4.36-4.11,9-2.39,12.36,1.09,2.14,3.65,4.68,9.67,4.68H158a33.83,33.83,0,0,0,4.74-.42c-.16,2.46-.24,4.95-.24,7.44a3.62,3.62,0,0,0,7.24,0c0-3.16.14-6.16.39-9,2.1-.56,4.52-1.3,7.09-2.24v13.77a3.63,3.63,0,0,0,7.25,0V366a40.94,40.94,0,0,0,10.63-7.51A3.62,3.62,0,0,0,195.05,353.38Zm-23.91,10.2c1.43-8.06,3.76-14.06,6.08-17.28v15.1Q174.37,362.59,171.14,363.58Z"/><circle class="cls-1" cx="80.58" cy="361.47" r="40.16"/><path class="cls-4" d="M103.88,353.38a3.63,3.63,0,0,0-5.12,0,30.1,30.1,0,0,1-5.47,4.3V340a3.62,3.62,0,0,0-3.62-3.62c-9.26,0-15.13,13.1-17.34,29.09a36.69,36.69,0,0,1-5.54.65c-1.17,0-3.24-.18-3.35-.93-.3-2.18,2.89-6.48,4.51-7.12a3.62,3.62,0,0,0,.85-7.18c-4.42-.76-8.28,4-9.36,5.43-3.22,4.36-4.11,9-2.39,12.36,1.09,2.14,3.65,4.68,9.67,4.68h.11a34,34,0,0,0,4.74-.42c-.16,2.46-.25,4.95-.25,7.44a3.63,3.63,0,0,0,7.25,0c0-3.16.14-6.16.38-9,2.11-.56,4.53-1.3,7.1-2.24v13.77a3.62,3.62,0,0,0,7.24,0V366a40.61,40.61,0,0,0,10.63-7.51A3.61,3.61,0,0,0,103.88,353.38ZM80,363.58c1.43-8.06,3.76-14.06,6.08-17.28v15.1C84.15,362.19,82.11,362.92,80,363.58Z"/><path class="cls-5" d="M339.54,264a3.62,3.62,0,0,0-5.12.05,30.1,30.1,0,0,1-5.47,4.3V250.64a3.63,3.63,0,0,0-3.62-3.63c-9.26,0-15.13,13.1-17.34,29.1a38,38,0,0,1-5.54.65c-1.17,0-3.24-.19-3.35-.94-.3-2.17,2.89-6.48,4.51-7.11a3.63,3.63,0,0,0,.85-7.19c-4.42-.76-8.28,4-9.36,5.43-3.22,4.37-4.11,9-2.39,12.37,1.08,2.14,3.65,4.68,9.67,4.68h.11a35.64,35.64,0,0,0,4.74-.43c-.16,2.47-.25,5-.25,7.45a3.63,3.63,0,0,0,7.25,0c0-3.16.14-6.16.38-9,2.1-.56,4.53-1.29,7.1-2.23v13.76a3.62,3.62,0,0,0,7.24,0V276.64a40.88,40.88,0,0,0,10.63-7.52A3.61,3.61,0,0,0,339.54,264Zm-23.91,10.2c1.43-8.06,3.76-14.06,6.08-17.28V272C319.81,272.82,317.77,273.55,315.63,274.2Z"/><path class="cls-6" d="M317.55,315.4a43.31,43.31,0,1,1,41.72-31.63h0A43.39,43.39,0,0,1,317.55,315.4Zm0-80.32a37,37,0,1,0,35.63,47h0a37,37,0,0,0-35.63-47Z"/><circle class="cls-7" cx="175.8" cy="103.9" r="103.9"/><path class="cls-8" d="M110.62,129.56l77.21,77.53a103.9,103.9,0,0,0,89.69-81.93L196.46,44.1,159.53,81.26,154.7,96.19,143,82.61l-15.74,18.76Z"/><path class="cls-4" d="M227.05,85.54a9.27,9.27,0,0,0-13.11.11,76.91,76.91,0,0,1-14,11V51.31A9.27,9.27,0,0,0,190.68,42C167,42,152,75.57,146.28,116.52a93.63,93.63,0,0,1-14.18,1.67c-3,0-8.3-.47-8.57-2.39-.79-5.57,7.38-16.59,11.53-18.22a9.27,9.27,0,0,0,2.17-18.39c-11.3-2-21.2,10.15-24,13.9-8.23,11.18-10.52,23-6.12,31.66,2.79,5.48,9.34,12,24.76,12h.29a89.57,89.57,0,0,0,12.14-1.09c-.42,6.31-.64,12.69-.64,19.06a9.28,9.28,0,0,0,18.55,0c0-8.09.36-15.77,1-23,5.38-1.44,11.59-3.32,18.17-5.74v35.25a9.27,9.27,0,0,0,18.54,0v-43.3c9.87-5,19.47-11.35,27.22-19.24A9.26,9.26,0,0,0,227.05,85.54Zm-61.21,26.11c3.66-20.63,9.62-36,15.57-44.24v38.68C176.53,108.11,171.32,110,165.84,111.65Z"/></g></g></svg>