<svg xmlns="http://www.w3.org/2000/svg" xmlns:xlink="http://www.w3.org/1999/xlink" viewBox="0 0 1581.6 1612.81"><defs><style>.cls-1{opacity:0.71;fill:url(#Dégradé_sans_nom_40);}.cls-2{fill:url(#Dégradé_sans_nom_19);}.cls-3{fill:url(#Dégradé_sans_nom_19-2);}.cls-4{fill:#b967ff;}.cls-5{fill:url(#Dégradé_sans_nom_26);}.cls-6{font-size:63.35px;font-family:Broadway, Broadway;}.cls-20,.cls-21,.cls-22,.cls-6{fill:#fffb96;}.cls-7{fill:url(#Dégradé_sans_nom_40-2);}.cls-8{fill:url(#Dégradé_sans_nom_40-3);}.cls-9{fill:url(#Dégradé_sans_nom_40-4);}.cls-10{fill:url(#Dégradé_sans_nom_40-5);}.cls-11{fill:url(#Dégradé_sans_nom_40-6);}.cls-12{opacity:0.26;}.cls-13{fill:url(#Dégradé_sans_nom_23);}.cls-14{fill:url(#Dégradé_sans_nom_23-2);}.cls-15{fill:url(#Dégradé_sans_nom_23-3);}.cls-16{fill:url(#Dégradé_sans_nom_23-4);}.cls-17{fill:url(#Dégradé_sans_nom_23-5);}.cls-18{fill:url(#Dégradé_sans_nom_23-6);}.cls-19{fill:url(#Dégradé_sans_nom_23-7);}.cls-20{font-size:85.33px;}.cls-20,.cls-22{font-family:BritannicBold, Britannic Bold;}.cls-22{font-size:106.67px;}.cls-23{fill:url(#Dégradé_sans_nom_40-7);}</style><linearGradient id="Dégradé_sans_nom_40" x1="33.74" y1="571.35" x2="1576.73" y2="1052.27" gradientUnits="userSpaceOnUse"><stop offset="0" stop-color="#ff71ce"/><stop offset="1" stop-color="#01cdfe"/></linearGradient><linearGradient id="Dégradé_sans_nom_19" x1="408.87" y1="265.97" x2="408.87" y2="813.21" gradientTransform="translate(289.64 -125.81) rotate(26.8)" gradientUnits="userSpaceOnUse"><stop offset="0" stop-color="#fffb96"/><stop offset="0.14" stop-color="#fff798"/><stop offset="1" stop-color="#ff71ce"/></linearGradient><linearGradient id="Dégradé_sans_nom_19-2" x1="1217.49" y1="250.12" x2="1217.49" y2="447.04" gradientTransform="matrix(1, 0, 0, 1, 0, 0)" xlink:href="#Dégradé_sans_nom_19"/><linearGradient id="Dégradé_sans_nom_26" x1="435.82" y1="717.56" x2="1394.55" y2="717.56" gradientUnits="userSpaceOnUse"><stop offset="0" stop-color="#ff71ce"/><stop offset="1" stop-color="#b967ff"/></linearGradient><linearGradient id="Dégradé_sans_nom_40-2" x1="367.95" y1="743.46" x2="855.64" y2="953.26" xlink:href="#Dégradé_sans_nom_40"/><linearGradient id="Dégradé_sans_nom_40-3" x1="274.6" y1="3.79" x2="1651.99" y2="596.35" xlink:href="#Dégradé_sans_nom_40"/><linearGradient id="Dégradé_sans_nom_40-4" x1="744.52" y1="67.14" x2="2121.91" y2="659.7" xlink:href="#Dégradé_sans_nom_40"/><linearGradient id="Dégradé_sans_nom_40-5" x1="590.07" y1="124.7" x2="1953.17" y2="711.11" xlink:href="#Dégradé_sans_nom_40"/><linearGradient id="Dégradé_sans_nom_40-6" x1="416.06" y1="795.44" x2="1793.45" y2="1388" xlink:href="#Dégradé_sans_nom_40"/><linearGradient id="Dégradé_sans_nom_23" x1="707.9" y1="528.11" x2="882.14" y2="528.11" gradientUnits="userSpaceOnUse"><stop offset="0" stop-color="#01cdfe"/><stop offset="1" stop-color="#05ffa1"/></linearGradient><linearGradient id="Dégradé_sans_nom_23-2" x1="884.19" y1="529.75" x2="1057.93" y2="529.75" xlink:href="#Dégradé_sans_nom_23"/><linearGradient id="Dégradé_sans_nom_23-3" x1="1041.3" y1="614.87" x2="1061.65" y2="614.87" xlink:href="#Dégradé_sans_nom_23"/><linearGradient id="Dégradé_sans_nom_23-4" x1="1067.17" y1="583.35" x2="1129.78" y2="583.35" xlink:href="#Dégradé_sans_nom_23"/><linearGradient id="Dégradé_sans_nom_23-5" x1="1140.3" y1="561.37" x2="1181.17" y2="561.37" xlink:href="#Dégradé_sans_nom_23"/><linearGradient id="Dégradé_sans_nom_23-6" x1="1157.41" y1="583.31" x2="1207.93" y2="583.31" xlink:href="#Dégradé_sans_nom_23"/><linearGradient id="Dégradé_sans_nom_23-7" x1="1184.11" y1="605.29" x2="1225.03" y2="605.29" xlink:href="#Dégradé_sans_nom_23"/><linearGradient id="Dégradé_sans_nom_40-7" x1="877.43" y1="1392.83" x2="2315.95" y2="2011.68" xlink:href="#Dégradé_sans_nom_40"/></defs><title>vaporwave_tshirt</title><g id="Calque_2" data-name="Calque 2"><g id="Calque_1-2" data-name="Calque 1"><rect class="cls-1" width="1575.77" height="1612.81" rx="787.88" ry="787.88"/><rect class="cls-2" x="205.2" y="341.3" width="407.33" height="407.33" transform="translate(-201.8 242.9) rotate(-26.8)"/><path class="cls-3" d="M1299.24,355.19a89.75,89.75,0,0,1,14-4.33L1310,338.45s9.53,5.68,11.3,10.88l0,.06c1.79-.25,3.58-.45,5.36-.61l-3.19-12.25s9.53,5.68,11.31,10.88a3.7,3.7,0,0,1,.2.94c2,0,4,0,6,0l-3.09-11.86s9.53,5.68,11.3,10.88a3.07,3.07,0,0,1,.19,1.51,172.21,172.21,0,0,1,54,14.68c-76.13-99.92-157.69-46.87-173.6-35-24.72-22.86-74-53.61-141.47-23.94A254.41,254.41,0,0,1,1120,317.84a3.61,3.61,0,0,1,.73-1.06c3.81-4,14.85-5.07,14.85-5.07l-8.28,10c1.13.63,2.28,1.29,3.42,2l.13-.15c3.81-4,14.85-5.07,14.85-5.07l-7.93,9.57c1.57,1,3.13,2.09,4.68,3.18,3.84-3.94,14.82-5,14.82-5l-8.24,9.95a110.82,110.82,0,0,1,16.87,16.4c-34.76-5.61-84.77-2.19-134.35,41.38,0,0,37.69-4.35,82,4.78a4,4,0,0,1,.2-.65c2.12-5.07,12-10.11,12-10.11l-4.16,12.55q4.2,1,8.44,2.19l.11-.29c2.11-5.07,12-10.12,12-10.12L1137.92,405c2.28.73,4.57,1.49,6.85,2.31,2.41-4.95,11.83-9.76,11.83-9.76l-4.19,12.64a176.62,176.62,0,0,1,35.46,19c-15,32.81-24.62,44-29,110.42l6.21,1.58c.5,0,1,0,1.51,0,5.62,0,10.06,1.3,13.37,3.86h.07l0,.08a16.37,16.37,0,0,1,5.06,7l.09.13c-2.34-41.3.74-62.11,18.37-103.95,10.22,4,19.9,10.32,28.8,17.91l8.62-9.52s.45,10.34-2.57,14.95q2.38,2.26,4.68,4.6l9-9.91s.48,11.08-2.89,15.42a4.36,4.36,0,0,1-.45.49q1.93,2.13,3.79,4.31l8.71-9.62s.48,11.08-2.9,15.42a4,4,0,0,1-.55.59,298.24,298.24,0,0,1,30.84,47.75c19-60.91-17.29-107.25-30-121a159.28,159.28,0,0,1,28.74,10.4l4.52-12.05s4.52,10.13,3,15.4q-.07.24-.15.45c2,1.1,3.86,2.22,5.68,3.37l4.5-12s4.52,10.13,3,15.4a3.09,3.09,0,0,1-.61,1.22q2.64,1.92,5.06,3.88l4.62-12.31s4.52,10.13,3,15.4c-.4,1.38-1.12,1.85-2,1.81,28,26,30.88,55.7,30.88,55.7C1357.27,410.27,1327.23,371.09,1299.24,355.19Z"/><image width="2105" height="3112" transform="matrix(-0.18, 0, 0, 0.18, 588.19, 241.38)" xlink:href="../../../Personnel/t-shirt/thomas/img/helios2.png"/><polygon class="cls-4" points="1394.55 675.59 601.99 675.59 628.67 662.11 1394.55 662.11 1394.55 675.59"/><polygon class="cls-5" points="435.82 759.53 1394.55 759.53 1394.55 675.59 601.99 675.59 435.82 759.53"/><text class="cls-6" transform="translate(739.37 735.37)"><tspan xml:space="preserve">t  h  e  u  m  a</tspan></text><polygon class="cls-7" points="435.82 759.53 558.48 759.53 558.48 798.83 351.81 802.41 435.82 759.53"/><rect class="cls-8" x="264.97" y="86.74" width="552.11" height="63.35"/><rect class="cls-9" x="734.89" y="150.09" width="552.11" height="63.35"/><rect class="cls-10" x="577.67" y="213.44" width="552.11" height="49.38"/><rect class="cls-11" x="406.43" y="878.38" width="552.11" height="63.35"/><path class="cls-12" d="M738,592.91l29-6a105.92,105.92,0,0,0-1.45,17q.27,30.2,28.86,29.93,19.75-.18,27.4-15.58t11.08-62.34q-19.9,18.5-40.94,18.68-28.9.27-47.56-19.72T725.43,503.4q-.33-35.16,21.73-56.81t58.5-22q93-.84,94,110.94Q900.13,589,873.59,620t-73.11,31.33q-62.47.57-62.89-46.16Q737.54,600.79,738,592.91Zm72.83-150.83q-23.44.23-22.89,60.76.44,49.31,21,49.11,26.18-.23,25.69-53.23Q834.08,441.87,810.79,442.08Z"/><path class="cls-12" d="M912.93,593.58,942,588a105,105,0,0,0-1.71,17q-.17,30.19,28.42,30.36,19.75.1,27.63-15.18t12-62.16q-20.19,18.18-41.22,18.07-28.9-.17-47.26-20.43t-18.17-51.73q.19-35.18,22.56-56.49t58.82-21.1q93,.54,92.35,112.31-.32,53.48-27.3,84t-73.57,30.26q-62.48-.36-62.21-47.09Q912.4,601.45,912.93,593.58ZM988,443.85q-23.44-.14-23.79,60.41-.29,49.31,20.27,49.42,26.17.15,26.48-52.84Q1011.27,444,988,443.85Z"/><path class="cls-12" d="M1057.93,610.07q10.17,0,10.18,10.17t-10.18,10.18q-10.17,0-10.18-10.18T1057.93,610.07Z"/><path class="cls-12" d="M1082.44,608l10.47-2.08a37.43,37.43,0,0,0-.58,6.13q0,10.88,10.29,10.87,7.11,0,9.92-5.52t4.19-22.4q-7.23,6.59-14.8,6.59a22.09,22.09,0,0,1-17.06-7.26q-6.64-7.26-6.65-18.59,0-12.66,8-20.38t21.13-7.71q33.48,0,33.48,40.24,0,19.25-9.66,30.29t-26.42,11q-22.48,0-22.49-16.82C1082.27,611.33,1082.33,609.86,1082.44,608Zm26.71-54.05q-8.43,0-8.44,21.79,0,17.76,7.4,17.75,9.44,0,9.43-19.08Q1117.54,553.92,1109.15,553.92Z"/><path class="cls-12" d="M1166.58,541.13q-20.4,0-20.4,22.59t20.4,22.65q20.48,0,20.47-22.65T1166.58,541.13Zm0,41.51q-5,0-5-18.92t5-18.86q5.09,0,5.09,18.86T1166.58,582.64Z"/><polygon class="cls-12" points="1162.8 630.29 1204.05 542.45 1213.32 542.45 1172.07 630.29 1162.8 630.29"/><path class="cls-12" d="M1210.1,585.11q-20.47,0-20.47,22.65t20.47,22.66q20.46,0,20.46-22.66T1210.1,585.11Zm0,41.57q-5.08,0-5.09-18.92t5.09-18.92q5.07,0,5.08,18.92T1210.1,626.68Z"/><path class="cls-13" d="M720.44,583.06l29-6a104.58,104.58,0,0,0-1.45,17q.27,30.19,28.86,29.94,19.75-.18,27.4-15.59t11.08-62.33q-19.9,18.48-41,18.67-28.9.27-47.55-19.72T707.9,493.56q-.31-35.18,21.73-56.81t58.51-22q93-.84,94,110.93.48,53.47-26.06,84.39T783,641.44q-62.48.55-62.89-46.17Q720,590.93,720.44,583.06Zm72.83-150.82q-23.44.21-22.9,60.75.45,49.31,21,49.12,26.18-.24,25.7-53.23Q816.56,432,793.27,432.24Z"/><path class="cls-14" d="M895.4,583.74l29.1-5.62a106.05,106.05,0,0,0-1.7,17q-.16,30.18,28.41,30.35,19.75.12,27.63-15.18t12-62.16q-20.18,18.2-41.21,18.07-28.9-.16-47.26-20.43t-18.18-51.73q.21-35.18,22.57-56.48t58.82-21.11q93,.54,92.35,112.31-.32,53.47-27.31,84T957.06,643q-62.47-.36-62.21-47.09Q894.88,591.6,895.4,583.74ZM970.46,434q-23.44-.13-23.79,60.41-.28,49.29,20.27,49.42,26.17.15,26.48-52.85Q993.75,434.14,970.46,434Z"/><path class="cls-15" d="M1051.48,604.7q10.17,0,10.17,10.17t-10.17,10.18q-10.18,0-10.18-10.18T1051.48,604.7Z"/><path class="cls-16" d="M1071.39,602.92l10.46-2.09a38.57,38.57,0,0,0-.58,6.13q0,10.88,10.3,10.87,7.11,0,9.91-5.52t4.19-22.4q-7.23,6.58-14.8,6.59a22.07,22.07,0,0,1-17-7.26q-6.66-7.25-6.65-18.58,0-12.67,8-20.38t21.13-7.72q33.46,0,33.47,40.24,0,19.25-9.65,30.29t-26.43,11q-22.48,0-22.49-16.82C1071.21,606.27,1071.27,604.8,1071.39,602.92Zm26.71-54.06q-8.44,0-8.44,21.8,0,17.75,7.4,17.74,9.42,0,9.42-19.07Q1106.48,548.85,1098.1,548.86Z"/><path class="cls-17" d="M1160.7,538.75q-20.4,0-20.4,22.59T1160.7,584q20.46,0,20.47-22.65T1160.7,538.75Zm0,41.51q-5,0-5-18.92t5-18.86q5.08,0,5.09,18.86T1160.7,580.26Z"/><polygon class="cls-18" points="1157.41 627.23 1198.66 539.39 1207.93 539.39 1166.68 627.23 1157.41 627.23"/><path class="cls-19" d="M1204.57,582.64q-20.46,0-20.46,22.65t20.46,22.65q20.46,0,20.46-22.65T1204.57,582.64Zm0,41.57q-5.08,0-5.08-18.92t5.08-18.92q5.09,0,5.08,18.92T1204.57,624.21Z"/><text class="cls-20" transform="translate(265.86 1202.32)"><tspan xml:space="preserve">t  h  a  t  s    a    l  o  t    o f </tspan></text><path class="cls-21" d="M373.93,1225.5v96.25H336.77v-6q-9.36,7.65-25,7.64-34.62,0-34.61-36.25,0-37.29,36.64-37.29,14.46,0,23,8.68V1227Q353.57,1227,373.93,1225.5ZM325.78,1260q-9.37,0-9.37,11.74l-.71,14.86.41,13.54q0,13,10.58,13,10.29,0,10.28-12.78l.51-17.09-.81-11.66Q335,1260,325.78,1260Z"/><path class="cls-21" d="M560.21,1319.25a103.9,103.9,0,0,1-26.56,3.61q-19.14,0-23.62-8.13-9.27,8.48-26.67,8.47-32.48,0-32.48-20.55,0-15.63,29.73-22,27.28-5.82,27.28-14,0-10.77-15.68-10.77-18.12,0-18.12,10.42,0,3.27,2.85,8.61l-18.42-2.43a28.41,28.41,0,0,1-.71-6.11q0-16.67,44.58-16.67,42.36,0,42.35,15.56v42.5q0,6.53,6.21,6.53a17.65,17.65,0,0,0,5.7-1.46Zm-52.62-39.59a32,32,0,0,1-8,4.52q-11.51,4.58-11.5,15.41,0,13.89,7.94,13.89,11.61,0,11.61-13.75Z"/><path class="cls-21" d="M779.89,1321.75H742.74v-52.57q0-6.89-5.91-6.88-13.64,0-13.64,19.79v39.66H686v-51.46q0-7.85-5.3-7.85-13.85,0-13.84,19.72v39.59H629.74v-70.21q18.84,0,37.16-1.74v12.09q13.13-12,32.37-12,16.08,0,23.92,11.32,12.42-11.46,31-11.46,25.65,0,25.65,17.71Z"/><path class="cls-21" d="M966.79,1319.25a103.92,103.92,0,0,1-26.57,3.61q-19.14,0-23.61-8.13-9.27,8.48-26.68,8.47-32.48,0-32.47-20.55,0-15.63,29.73-22,27.27-5.82,27.28-14,0-10.77-15.68-10.77-18.12,0-18.12,10.42,0,3.27,2.85,8.61l-18.42-2.43a28.46,28.46,0,0,1-.72-6.11q0-16.67,44.59-16.67,42.35,0,42.35,15.56v42.5q0,6.53,6.21,6.53a17.65,17.65,0,0,0,5.7-1.46Zm-52.63-39.59a32.16,32.16,0,0,1-8,4.52q-11.5,4.58-11.5,15.41,0,13.89,7.94,13.89,11.6,0,11.6-13.75Z"/><path class="cls-21" d="M1103,1252.44q25.95,7.57,26,22,0,9.52-13,16.25t-31.45,6.74q-7.12,0-19.24-1.25-7,2.77-7,5.56,0,3.81,8.66,3.82c1.49,0,4.51-.1,9.06-.28q17.2-.76,25-.77,37.05,0,37,19.17,0,23.19-61.38,23.2-45.7,0-45.71-13.13,0-7.58,18.53-10.28-19.76-3.54-19.75-11.73,0-10.21,23.52-18-20.67-5.7-20.67-19.37,0-10.42,12.52-17.47t31-7.05q6.32,0,16.59.9a19.79,19.79,0,0,1-.51-3.82q0-13.74,21.08-13.75,16.8,0,16.79,9.66,0,7.37-10.07,7.36a25.64,25.64,0,0,1-7.94-1.53,17.61,17.61,0,0,0-4.28-1Q1103,1247.44,1103,1252.44Zm-23.93,73.89q-26,0-26,6.87t25.15,6.81q29.22,0,29.21-7.64Q1107.47,1326.32,1079.07,1326.33Zm1-69.58q-10.38,0-10.38,17.64,0,16.17,10.79,16.18,9.87,0,9.87-14.38Q1090.37,1256.75,1080.09,1256.75Z"/><path class="cls-21" d="M1283.79,1296.12l15,3q-2.34,24.24-41.94,24.23-51.3,0-51.3-34.93,0-16.94,13.64-27.77t34.91-10.84q44.49,0,44.49,39.17h-54.16q0,27.49,20.46,27.5,19.14,0,19.14-15.56C1284,1299.52,1283.92,1297.93,1283.79,1296.12Zm-39.5-15h22.19q0-24.43-10.79-24.44-9.76,0-11,18.12Z"/><text class="cls-22" transform="translate(471.25 1089.94)"><tspan xml:space="preserve">o  h   s  h  i  t </tspan></text><rect class="cls-23" x="879.63" y="1450.98" width="552.11" height="123.11"/></g></g></svg>