<svg xmlns="http://www.w3.org/2000/svg" viewBox="0 0 523.01 951.66"><defs><style>.cls-1{fill:none;stroke:#e63e44;stroke-miterlimit:10;stroke-width:24px;}</style></defs><title>fusee_2</title><g id="Calque_2" data-name="Calque 2"><g id="Calque_3" data-name="Calque 3"><polygon class="cls-1" points="467.73 21.89 293.85 162.78 210.58 391.94 180.37 679.62 228.37 679.59 265.81 710.66 427.33 470.7 510.6 241.54 467.73 21.89"/><polygon class="cls-1" points="13.23 649.55 42.36 764.28 176.38 682.06 205.4 441.28 13.23 649.55"/><polygon class="cls-1" points="402.41 512.87 265.81 710.66 315.58 866.96 414.18 796.77 402.41 512.87"/><polygon class="cls-1" points="235.4 750.45 212.44 733.85 168.81 733.88 91.96 778.34 65.32 846.38 128.54 827.78 128.32 919.53 194.22 855.37 226.9 921.22 258.24 834.96 235.4 750.45"/><polyline class="cls-1" points="510.6 241.54 415.17 166.37 293.85 162.78"/><polygon class="cls-1" points="386.38 245.76 315.92 306.57 330.9 398.43 401.37 337.62 386.38 245.76"/></g></g></svg>