<svg xmlns="http://www.w3.org/2000/svg" viewBox="0 0 631.97 371.48"><defs><style>.cls-1{fill:#fff;}.cls-2{fill:#e63e44;}</style></defs><title>game</title><g id="Calque_2" data-name="Calque 2"><g id="Calque_2-2" data-name="Calque 2"><polygon class="cls-1" points="13.81 233.85 110.84 12 521.12 12 618.15 233.85 528.15 352.68 411.31 223.49 220.66 223.49 103.81 352.68 13.81 233.85"/><path class="cls-2" d="M513.27,24l91.07,208.21-77,101.68L423.78,219.39l-7.15-7.9H215.33l-7.14,7.9L104.63,333.89l-77-101.68L118.69,24H513.27M529,0H103L0,235.49l103,136,123-136H406l123,136,103-136L529,0Z"/><rect class="cls-1" x="139.33" y="91.87" width="70" height="70" transform="translate(-38.65 160.43) rotate(-45)"/><path class="cls-2" d="M174.33,94.34l32.52,32.53L174.33,159.4,141.8,126.87l32.53-32.53m0-33.94-66.47,66.47,66.47,66.47,66.46-66.47L174.33,60.4Z"/><rect class="cls-1" x="443.38" y="75.32" width="23.9" height="23.9" transform="translate(71.66 347.52) rotate(-45)"/><polygon class="cls-2" points="455.33 70.36 438.43 87.27 455.33 104.17 472.23 87.27 455.33 70.36 455.33 70.36"/><rect class="cls-1" x="409.57" y="109.12" width="23.9" height="23.9" transform="translate(37.85 333.52) rotate(-45)"/><polygon class="cls-2" points="421.52 104.17 404.62 121.07 421.52 137.97 438.43 121.07 421.52 104.17 421.52 104.17"/><rect class="cls-1" x="443.38" y="142.92" width="23.9" height="23.9" transform="translate(23.85 367.32) rotate(-45)"/><polygon class="cls-2" points="455.33 137.97 438.43 154.87 455.33 171.77 472.23 154.87 455.33 137.97 455.33 137.97"/><rect class="cls-1" x="477.18" y="109.12" width="23.9" height="23.9" transform="translate(57.65 381.33) rotate(-45)"/><polygon class="cls-2" points="489.13 104.17 472.23 121.07 489.13 137.97 506.03 121.07 489.13 104.17 489.13 104.17"/></g></g></svg>