<svg xmlns="http://www.w3.org/2000/svg" viewBox="0 0 504 392.07"><defs><style>.cls-1{fill:none;stroke:#e63e44;stroke-miterlimit:10;stroke-width:24px;}.cls-2{fill:#e63e44;}</style></defs><title>Fichier 4</title><g id="Calque_2" data-name="Calque 2"><g id="Calque_3" data-name="Calque 3"><line class="cls-1" x1="70" y1="380.07" x2="434" y2="380.07"/><line class="cls-1" x1="252" y1="275.07" x2="252" y2="383.86"/><rect class="cls-1" x="12" y="12" width="480" height="263.07"/><path class="cls-2" d="M173,73V216.5H70V73H173m24-24H46V240.5H197V49Z"/><path class="cls-2" d="M428,73V93H237.5V73H428m24-24H213.5v68H452V49Z"/><path class="cls-2" d="M256,160v56.5H237.5V160H256m24-24H213.5V240.5H280V136Z"/><path class="cls-2" d="M342,160v18.5H323.5V160H342m24-24H299.5v66.5H366V136Z"/><path class="cls-2" d="M428,160v18.5H409.5V160H428m24-24H385.5v66.5H452V136Z"/></g></g></svg>