<svg xmlns="http://www.w3.org/2000/svg" viewBox="0 0 612.48 890.77"><defs><style>.cls-1{fill:#fff;}.cls-2{fill:#e63e44;}.cls-3{fill:none;stroke:#e63e44;stroke-miterlimit:10;stroke-width:24px;}</style></defs><title>hobbies</title><g id="Calque_2" data-name="Calque 2"><g id="Calque_2-2" data-name="Calque 2"><polygon class="cls-1" points="12.98 779.36 52.36 540.44 450 439.35 598.69 630.46 540.75 767.8 395.67 671.38 210.9 718.35 129.49 872.35 12.98 779.36"/><path class="cls-2" d="M445.35,452.92,584.9,632.27,535.32,749.79,406.75,664.33l-8.87-5.9-10.33,2.63L213.11,705.41,202.78,708l-5,9.42L125.65,853.93,26,774.37l37-224.24,382.42-97.21m9.3-27.13L41.8,530.74,0,784.35,133.32,890.77,219,728.67l174.44-44.35,152.71,101.5,66.31-157.18L454.65,425.79Z"/><rect class="cls-1" x="107.19" y="601.12" width="70" height="70" transform="translate(-477.25 433.22) rotate(-59.26)"/><path class="cls-2" d="M134.18,604.6l39.54,23.51L150.2,667.65l-39.53-23.51,23.51-39.54m-8.37-32.89-48,80.79,80.8,48,48-80.79-80.8-48Z"/><rect class="cls-1" x="392.82" y="516.56" width="23.9" height="23.9" transform="translate(-256.37 606.3) rotate(-59.26)"/><polygon class="cls-2" points="400.61 512.13 388.39 532.67 408.94 544.89 421.15 524.35 400.61 512.13 400.61 512.13"/><rect class="cls-1" x="368.39" y="557.65" width="23.9" height="23.9" transform="translate(-303.63 605.39) rotate(-59.26)"/><polygon class="cls-2" points="376.18 553.22 363.96 573.76 384.5 585.98 396.72 565.43 376.18 553.22 376.18 553.22"/><rect class="cls-1" x="409.48" y="582.08" width="23.9" height="23.9" transform="translate(-304.54 652.65) rotate(-59.26)"/><polygon class="cls-2" points="417.26 577.65 405.05 598.19 425.59 610.41 437.81 589.87 417.26 577.65 417.26 577.65"/><rect class="cls-1" x="433.91" y="540.99" width="23.9" height="23.9" transform="translate(-257.28 653.57) rotate(-59.26)"/><polygon class="cls-2" points="441.69 536.56 429.48 557.11 450.02 569.32 462.24 548.78 441.69 536.56 441.69 536.56"/></g><g id="Calque_3" data-name="Calque 3"><line class="cls-3" x1="83.47" y1="380.07" x2="447.47" y2="380.07"/><line class="cls-3" x1="265.47" y1="275.07" x2="265.47" y2="383.86"/><rect class="cls-3" x="25.47" y="12" width="480" height="263.07"/><path class="cls-2" d="M186.47,73V216.5h-103V73h103m24-24h-151V240.5h151V49Z"/><path class="cls-2" d="M441.47,73V93H251V73h190.5m24-24H227v68h238.5V49Z"/><path class="cls-2" d="M269.47,160v56.5H251V160h18.5m24-24H227V240.5h66.5V136Z"/><path class="cls-2" d="M355.47,160v18.5H337V160h18.5m24-24H313v66.5h66.5V136Z"/><path class="cls-2" d="M441.47,160v18.5H423V160h18.5m24-24H399v66.5h66.5V136Z"/></g></g></svg>