<svg xmlns="http://www.w3.org/2000/svg" viewBox="0 0 183 183"><defs><style>.cls-1{fill:none;}.cls-2{fill:#fff;}</style></defs><title>insta-logo_1</title><g id="Calque_2" data-name="Calque 2"><g id="Calque_4" data-name="Calque 4"><rect class="cls-1" width="183" height="183"/><path class="cls-2" d="M72.87,33.86h37.28c.31,0,.61.13.92.16,3.92.33,7.9.32,11.74,1.06C136,37.6,144.38,45.43,147.65,58.55c1.38,5.55,1.4,11.23,1.45,16.89.1,11.3,0,22.6,0,33.9a71.44,71.44,0,0,1-1,13.38c-2.64,13.22-10.37,21.65-23.53,24.94-5.51,1.37-11.17,1.41-16.79,1.45-11.91.08-23.82,0-35.73-.11a58.32,58.32,0,0,1-13.62-1.37c-10.11-2.5-17.4-8.37-21.4-18.09a43.2,43.2,0,0,1-2.82-15c-.06-1.45-.18-2.91-.28-4.37V72.68a6.76,6.76,0,0,0,.15-.9,65.64,65.64,0,0,1,1.38-13.33c2.53-10.31,8.53-17.67,18.46-21.63a43.6,43.6,0,0,1,14.65-2.68C70,34.09,71.41,34,72.87,33.86Zm66.06,56.22c-.21-7.18-.37-15.88-.75-24.57a22.48,22.48,0,0,0-3.81-11.93c-3.65-5.29-8.94-7.91-15.15-8.52-5.21-.51-10.47-.7-15.71-.75-9.19-.1-18.38-.06-27.57.06-4,.05-8.12.29-12.16.68a21.18,21.18,0,0,0-10.29,3.66c-5.23,3.67-7.83,8.92-8.44,15.09-.51,5.25-.7,10.54-.76,15.81-.1,9.15,0,18.31.07,27.47q.07,6.09.68,12.16a21.14,21.14,0,0,0,3.66,10.29c3.66,5.24,8.92,7.84,15.09,8.44,5.27.52,10.6.72,15.9.76,9.8.08,19.6,0,29.39-.11a64.51,64.51,0,0,0,12.33-1c6.12-1.26,11-4.35,14-9.92a27.29,27.29,0,0,0,3-12.5C138.62,107.36,138.73,99.49,138.93,90.08Z"/><path class="cls-2" d="M91.52,61.89A29.63,29.63,0,1,1,61.88,91.48,29.6,29.6,0,0,1,91.52,61.89ZM110.7,91.53a19.2,19.2,0,1,0-19.37,19.18A19.24,19.24,0,0,0,110.7,91.53Z"/><path class="cls-2" d="M122.28,53.82a6.94,6.94,0,1,1,0,13.87,6.94,6.94,0,0,1,0-13.87Z"/></g></g></svg>