<svg xmlns="http://www.w3.org/2000/svg" viewBox="0 0 183 183"><defs><style>.cls-1{fill:none;}.cls-2{fill:#fff;}</style></defs><title>linkedin-logo_1</title><g id="Calque_2" data-name="Calque 2"><g id="Calque_4" data-name="Calque 4"><rect class="cls-1" width="183" height="183"/><path class="cls-2" d="M99.73,81.78c5.89-8.13,13.4-11.36,22.17-11.79,16.92-.82,27.92,8.92,28.76,26.53.8,16.66.5,33.38.75,50.07,0,2-.78,2.54-2.63,2.52-6.36-.08-12.72-.13-19.08,0-2.36.05-2.81-.89-2.8-3,.08-12.39,0-24.77.06-37.15a38.07,38.07,0,0,0-.76-8.12c-1.12-5.3-4.22-8.47-8.82-9.13-6.55-.93-11.54,1.08-14.19,5.76A19,19,0,0,0,101,106c-.76,13.16-.45,26.34-.35,39.51,0,2.82-.74,3.75-3.62,3.64-5.9-.21-11.81-.14-17.71,0-2.24,0-2.93-.7-2.92-2.93q.09-35.61,0-71.22c0-2.42.78-3.14,3.14-3.08q8.68.21,17.38,0c2.31,0,3,.81,2.85,3C99.62,76.79,99.73,78.72,99.73,81.78Z"/><path class="cls-2" d="M33.36,75.64c0-3.07,1-3.88,3.9-3.78,5.9.21,11.81.13,17.72,0,2.1,0,2.79.75,2.79,2.78q0,35.79.07,71.59c0,2.3-1,2.88-3.08,2.85-6-.1-12-.15-18.07,0-2.51.07-3.34-.66-3.32-3.25C33.5,134.05,33.53,87.23,33.36,75.64Z"/><path class="cls-2" d="M59.61,48c0,8.07-5.87,13.85-14,13.85a14,14,0,0,1-14-14.05,14.26,14.26,0,0,1,14.23-14A13.68,13.68,0,0,1,59.61,48Z"/></g></g></svg>