<svg xmlns="http://www.w3.org/2000/svg" viewBox="0 0 183 183"><defs><style>.cls-1{fill:none;}.cls-2{fill:#fff;}</style></defs><title>twi-logo_1</title><g id="Calque_2" data-name="Calque 2"><g id="Calque_4" data-name="Calque 4"><rect class="cls-1" width="183" height="183"/><path class="cls-2" d="M27.6,132.37A55.21,55.21,0,0,0,66,121.17c-12.16-1.11-20.26-7.15-24.68-18.45A28.69,28.69,0,0,0,53,102.28c-1.32-.44-2.49-.8-3.64-1.23A26.39,26.39,0,0,1,32.16,77.14c0-1.19.32-1,1.1-.65a25.77,25.77,0,0,0,10.39,2.73c-.11-.64-.69-.79-1.08-1.09a26.54,26.54,0,0,1-7.39-32.84c.54-1.09.8-1.34,1.74-.25A74.67,74.67,0,0,0,79.81,70.26a93.19,93.19,0,0,0,9.28,1.26c1.19.12,1.35-.27,1.16-1.34a26.21,26.21,0,0,1,20.32-30.43c9.07-2,17.14.34,24,6.67a2.42,2.42,0,0,0,2.54.71,62.45,62.45,0,0,0,15-5.7,26.18,26.18,0,0,1-10.55,13.94,53.27,53.27,0,0,0,13.92-3.45,38.06,38.06,0,0,1-6.08,7.64,42.68,42.68,0,0,1-5.66,4.91,2,2,0,0,0-.88,1.94A74.71,74.71,0,0,1,134,103.73c-11.48,21.67-29.16,35.09-53.52,39.11a74.58,74.58,0,0,1-52.2-10C28.06,132.69,27.83,132.52,27.6,132.37Z"/></g></g></svg>