<svg xmlns="http://www.w3.org/2000/svg" xmlns:xlink="http://www.w3.org/1999/xlink" viewBox="0 0 162.19 203.03"><defs><style>.cls-1{fill:url(#Dégradé_sans_nom_19);}.cls-2{fill:#fff;}.cls-3{fill:url(#Dégradé_sans_nom_12);}.cls-4{fill:url(#Dégradé_sans_nom_12-2);}.cls-5{fill:url(#Dégradé_sans_nom_12-3);}.cls-6{fill:#039;}</style><linearGradient id="Dégradé_sans_nom_19" x1="37.84" y1="-2.68" x2="127.92" y2="58.24" gradientUnits="userSpaceOnUse"><stop offset="0" stop-color="#2962ff"/><stop offset="0.3" stop-color="#214bd3"/><stop offset="0.51" stop-color="#1d3eb8"/><stop offset="1" stop-color="#121b74"/></linearGradient><linearGradient id="Dégradé_sans_nom_12" x1="13.47" y1="66.47" x2="34.77" y2="82.21" gradientUnits="userSpaceOnUse"><stop offset="0" stop-color="#2962ff"/><stop offset="0.13" stop-color="#285ef8"/><stop offset="0.33" stop-color="#2454e4"/><stop offset="0.56" stop-color="#1f43c3"/><stop offset="0.83" stop-color="#182c96"/><stop offset="1" stop-color="#121b74"/></linearGradient><linearGradient id="Dégradé_sans_nom_12-2" x1="24.27" y1="70.05" x2="32.42" y2="70.05" xlink:href="#Dégradé_sans_nom_12"/><linearGradient id="Dégradé_sans_nom_12-3" x1="5.84" y1="82.7" x2="24.52" y2="82.7" xlink:href="#Dégradé_sans_nom_12"/></defs><title>aprilogo01</title><g id="Calque_2" data-name="Calque 2"><g id="Calque_1-2" data-name="Calque 1"><rect class="cls-1" x="1.02" width="161.17" height="53.83"/><path class="cls-2" d="M30,36.11A13.25,13.25,0,1,1,43.2,22.86,13.26,13.26,0,0,1,30,36.11Zm0-23.5A10.25,10.25,0,1,0,40.2,22.86,10.26,10.26,0,0,0,30,12.61Z"/><path class="cls-2" d="M35.41,22.61l-.48-1.42a5.27,5.27,0,0,0-3.4-3.33L30.1,17.4l.9-2.86,1.44.46a8.27,8.27,0,0,1,5.33,5.23l.48,1.42Z"/><polygon class="cls-2" points="28.85 41.08 11.67 41.08 11.67 22.86 14.67 22.86 14.67 38.08 28.85 38.08 28.85 41.08"/><path class="cls-3" d="M24.12,87.59A13.25,13.25,0,1,1,37.37,74.34,13.27,13.27,0,0,1,24.12,87.59Zm0-23.5A10.25,10.25,0,1,0,34.37,74.34,10.26,10.26,0,0,0,24.12,64.09Z"/><path class="cls-2" d="M26.15,67.9a6.79,6.79,0,0,1,4.37,4.29"/><path class="cls-4" d="M29.58,74.09l-.48-1.42a5.31,5.31,0,0,0-3.4-3.34l-1.43-.45.9-2.86,1.43.45a8.31,8.31,0,0,1,5.34,5.23l.48,1.43Z"/><polygon class="cls-5" points="24.52 92.56 5.84 92.56 5.84 72.84 8.84 72.84 8.84 89.56 24.52 89.56 24.52 92.56"/><path class="cls-2" d="M47.2,31.55a4.72,4.72,0,0,1,2.38.62,5,5,0,0,1,1.73,1.69,4.62,4.62,0,0,1,0,4.76,5.06,5.06,0,0,1-1.73,1.68,4.84,4.84,0,0,1-4.74,0,4.89,4.89,0,0,1-1.73-1.68,4.68,4.68,0,0,1,0-4.76,4.83,4.83,0,0,1,1.73-1.69A4.7,4.7,0,0,1,47.2,31.55Zm0,2.16A2.37,2.37,0,0,0,46,34a2.18,2.18,0,0,0-.87.86,2.67,2.67,0,0,0-.33,1.37,2.71,2.71,0,0,0,.33,1.38,2.16,2.16,0,0,0,.87.85,2.53,2.53,0,0,0,2.35,0,2.31,2.31,0,0,0,.88-.85,2.71,2.71,0,0,0,.33-1.38,2.67,2.67,0,0,0-.33-1.37,2.34,2.34,0,0,0-.88-.86A2.38,2.38,0,0,0,47.2,33.71Z"/><path class="cls-2" d="M59.28,31.78v1.86H57v7H54.74v-7H53.39V31.78h1.35V31a3.37,3.37,0,0,1,.44-1.75,2.9,2.9,0,0,1,1.13-1.12,3.23,3.23,0,0,1,1.55-.38,3.6,3.6,0,0,1,1,.12,2.64,2.64,0,0,1,.74.33v1.87a2.39,2.39,0,0,0-1.34-.34A1.25,1.25,0,0,0,57,31.13v.65Z"/><path class="cls-2" d="M66.33,31.78v1.86H64v7H61.79v-7H60.44V31.78h1.35V31a3.46,3.46,0,0,1,.43-1.75,3,3,0,0,1,1.14-1.12,3.22,3.22,0,0,1,1.54-.38,3.63,3.63,0,0,1,1,.12,2.64,2.64,0,0,1,.74.33v1.87a2.39,2.39,0,0,0-1.34-.34A1.25,1.25,0,0,0,64,31.13v.65Z"/><path class="cls-2" d="M71,31.55a4.47,4.47,0,0,1,1.53.25,3.56,3.56,0,0,1,1.09.56v2a6.94,6.94,0,0,0-1-.55,3.19,3.19,0,0,0-1.26-.26,1.6,1.6,0,0,0-1,.28.84.84,0,0,0-.37.67.77.77,0,0,0,.21.52,1.77,1.77,0,0,0,.81.41l1,.33a2.38,2.38,0,0,1,2,2.34,2.45,2.45,0,0,1-.47,1.47,3.21,3.21,0,0,1-1.25,1,4,4,0,0,1-1.73.37,5.37,5.37,0,0,1-1.74-.28A4.35,4.35,0,0,1,67.58,40v-2a5,5,0,0,0,.81.44,5.4,5.4,0,0,0,1,.34,3.69,3.69,0,0,0,.93.14,1.85,1.85,0,0,0,1-.24.76.76,0,0,0,.36-.68.61.61,0,0,0-.3-.53,4.55,4.55,0,0,0-.88-.38l-1.09-.39a2.44,2.44,0,0,1-1.4-1,2.65,2.65,0,0,1-.39-1.46,2.47,2.47,0,0,1,.43-1.46,2.94,2.94,0,0,1,1.2-1A4.19,4.19,0,0,1,71,31.55Z"/><path class="cls-2" d="M79.83,31.55a4.33,4.33,0,0,1,2.24.56,3.74,3.74,0,0,1,1.44,1.56A5,5,0,0,1,84,36v.95H77.58a2.32,2.32,0,0,0,.88,1.44,2.69,2.69,0,0,0,1.72.55,4,4,0,0,0,1.76-.39,5.86,5.86,0,0,0,1.26-.79v2.07a5.14,5.14,0,0,1-1.26.75,4.45,4.45,0,0,1-1.84.38,4.86,4.86,0,0,1-2.4-.6A4.64,4.64,0,0,1,76,38.69a4.42,4.42,0,0,1-.64-2.38,4.89,4.89,0,0,1,.58-2.37,4.75,4.75,0,0,1,1.6-1.73A4.17,4.17,0,0,1,79.83,31.55Zm0,1.95a2,2,0,0,0-1.39.51,2.63,2.63,0,0,0-.78,1.37h4.26A1.8,1.8,0,0,0,81.16,34,2.28,2.28,0,0,0,79.78,33.5Z"/><path class="cls-2" d="M89.27,29.2v2.58h2.46v1.86H89.27v3.83a1.46,1.46,0,0,0,.27.94,1,1,0,0,0,.82.35,2.73,2.73,0,0,0,.81-.11,2.56,2.56,0,0,0,.65-.3v1.78a2.87,2.87,0,0,1-.84.56,3,3,0,0,1-1.25.23,2.64,2.64,0,0,1-2-.76A2.87,2.87,0,0,1,87,38.05V33.64h-1.6V32.5A3.62,3.62,0,0,0,87,31.37a6.09,6.09,0,0,0,1.14-2.17Z"/><path class="cls-2" d="M104.3,31.55a3.94,3.94,0,0,1,2.08.57,4,4,0,0,1,1.49,1.63,5.34,5.34,0,0,1,.56,2.53,5.26,5.26,0,0,1-.56,2.51,4,4,0,0,1-1.45,1.58,3.7,3.7,0,0,1-2,.55,2.9,2.9,0,0,1-1.73-.52,3.57,3.57,0,0,1-1.12-1.24v1.5H99.38V28h2.23v4.78a3.73,3.73,0,0,1,1.22-.9A3.53,3.53,0,0,1,104.3,31.55Zm-.46,2.2a2.45,2.45,0,0,0-1.2.29,3.68,3.68,0,0,0-1,.8V36.1a2.61,2.61,0,0,0,.31,1.38,2.25,2.25,0,0,0,.85.88,2.13,2.13,0,0,0,1.12.31A2,2,0,0,0,105.5,38a2.48,2.48,0,0,0,.61-1.7,2.86,2.86,0,0,0-.28-1.24,2.46,2.46,0,0,0-.79-.93A2,2,0,0,0,103.84,33.75Z"/><path class="cls-2" d="M118.39,31.78v5.29a3.79,3.79,0,0,1-.52,2,3.44,3.44,0,0,1-1.44,1.31,4.5,4.5,0,0,1-2,.46,4.57,4.57,0,0,1-2.07-.46,3.39,3.39,0,0,1-1.42-1.31,3.79,3.79,0,0,1-.52-2V31.78h2.25l0,4.89a2.17,2.17,0,0,0,.47,1.54,1.81,1.81,0,0,0,2.52,0,2.13,2.13,0,0,0,.49-1.54V31.78Z"/><path class="cls-2" d="M125.87,31.55a3.94,3.94,0,0,1,2.08.57,4,4,0,0,1,1.49,1.63,5.34,5.34,0,0,1,.56,2.53,5.26,5.26,0,0,1-.56,2.51A3.93,3.93,0,0,1,128,40.37a3.65,3.65,0,0,1-2,.55,2.89,2.89,0,0,1-1.72-.52,3.47,3.47,0,0,1-1.12-1.24v1.5h-2.24V28h2.24v4.78a3.62,3.62,0,0,1,1.22-.9A3.49,3.49,0,0,1,125.87,31.55Zm-.46,2.2a2.49,2.49,0,0,0-1.21.29,3.79,3.79,0,0,0-1,.8V36.1a2.61,2.61,0,0,0,.3,1.38,2.28,2.28,0,0,0,.86.88,2.13,2.13,0,0,0,1.12.31,2,2,0,0,0,1.61-.69,2.53,2.53,0,0,0,.61-1.7,2.73,2.73,0,0,0-.29-1.24,2.37,2.37,0,0,0-.79-.93A2,2,0,0,0,125.41,33.75Z"/><path class="cls-2" d="M137,31.55a4,4,0,0,1,2.09.57,4,4,0,0,1,1.49,1.63,5.34,5.34,0,0,1,.56,2.53,5.26,5.26,0,0,1-.56,2.51,3.93,3.93,0,0,1-1.46,1.58,3.65,3.65,0,0,1-2,.55,2.89,2.89,0,0,1-1.72-.52,3.47,3.47,0,0,1-1.12-1.24v1.5h-2.24V28h2.24v4.78a3.62,3.62,0,0,1,1.22-.9A3.48,3.48,0,0,1,137,31.55Zm-.45,2.2a2.49,2.49,0,0,0-1.21.29,3.64,3.64,0,0,0-1,.8V36.1a2.61,2.61,0,0,0,.3,1.38,2.28,2.28,0,0,0,.86.88,2.13,2.13,0,0,0,1.12.31,2,2,0,0,0,1.61-.69,2.53,2.53,0,0,0,.61-1.7,2.73,2.73,0,0,0-.29-1.24,2.37,2.37,0,0,0-.79-.93A2,2,0,0,0,136.59,33.75Z"/><path class="cls-2" d="M145.54,28V40.66H143.3V28Z"/><path class="cls-2" d="M152.14,31.55a4.37,4.37,0,0,1,2.25.56,3.87,3.87,0,0,1,1.44,1.56,5.08,5.08,0,0,1,.5,2.29v.95h-6.44a2.32,2.32,0,0,0,.88,1.44,2.71,2.71,0,0,0,1.73.55,3.88,3.88,0,0,0,1.75-.39,6.22,6.22,0,0,0,1.27-.79l0,2.07a5.05,5.05,0,0,1-1.25.75,4.45,4.45,0,0,1-1.84.38,4.86,4.86,0,0,1-2.4-.6,4.57,4.57,0,0,1-1.72-1.63,4.43,4.43,0,0,1-.65-2.38,5,5,0,0,1,.58-2.37,4.75,4.75,0,0,1,1.6-1.73A4.19,4.19,0,0,1,152.14,31.55Zm0,1.95a2,2,0,0,0-1.39.51,2.68,2.68,0,0,0-.77,1.37h4.25a1.8,1.8,0,0,0-.7-1.41A2.29,2.29,0,0,0,152.09,33.5Z"/><path class="cls-6" d="M41.37,85.07a4.66,4.66,0,0,1,2.37.62,4.94,4.94,0,0,1,1.74,1.69,4.68,4.68,0,0,1,0,4.76,4.89,4.89,0,0,1-1.74,1.67,4.75,4.75,0,0,1-4.73,0,4.89,4.89,0,0,1-1.74-1.67,4.68,4.68,0,0,1,0-4.76A4.94,4.94,0,0,1,39,85.69,4.7,4.7,0,0,1,41.37,85.07Zm0,2.16a2.44,2.44,0,0,0-1.18.3,2.32,2.32,0,0,0-.87.86,3.09,3.09,0,0,0,0,2.74,2.24,2.24,0,0,0,.87.86,2.54,2.54,0,0,0,1.18.29A2.51,2.51,0,0,0,42.55,92a2.34,2.34,0,0,0,.88-.86,3,3,0,0,0,0-2.74,2.36,2.36,0,0,0-2.06-1.16Z"/><path class="cls-6" d="M53.45,85.3v1.86H51.14v7H48.91v-7H47.56V85.3h1.35v-.79a3.44,3.44,0,0,1,.43-1.75,3,3,0,0,1,1.14-1.12A3.09,3.09,0,0,1,52,81.25a3.6,3.6,0,0,1,1,.13,2.77,2.77,0,0,1,.74.33v1.87a2.41,2.41,0,0,0-1.34-.34,1.43,1.43,0,0,0-.9.34,1.4,1.4,0,0,0-.37,1.07v.65Z"/><path class="cls-6" d="M60.5,85.3v1.86H58.19v7H56v-7H54.61V85.3H56v-.79a3.34,3.34,0,0,1,.43-1.75,3,3,0,0,1,1.13-1.12,3.16,3.16,0,0,1,1.55-.39,3.65,3.65,0,0,1,1,.13,2.57,2.57,0,0,1,.73.33v1.87a2.36,2.36,0,0,0-1.33-.34,1.43,1.43,0,0,0-.9.34,1.4,1.4,0,0,0-.37,1.07v.65Z"/><path class="cls-6" d="M65.21,85.07a4.47,4.47,0,0,1,1.53.25,3.68,3.68,0,0,1,1.09.56v2a7.48,7.48,0,0,0-1-.55A3.27,3.27,0,0,0,65.54,87a1.58,1.58,0,0,0-1,.28.82.82,0,0,0-.37.67.79.79,0,0,0,.21.52,1.87,1.87,0,0,0,.81.41l1,.33a2.37,2.37,0,0,1,2,2.34,2.45,2.45,0,0,1-.46,1.47,3.21,3.21,0,0,1-1.25,1,4,4,0,0,1-1.73.37A5.66,5.66,0,0,1,63,94.16a4.7,4.7,0,0,1-1.29-.62v-2a6,6,0,0,0,.81.44,6.8,6.8,0,0,0,1,.34,3.64,3.64,0,0,0,.93.13,1.87,1.87,0,0,0,1-.23.77.77,0,0,0,.36-.68.61.61,0,0,0-.3-.53,4,4,0,0,0-.88-.38l-1.09-.39a2.5,2.5,0,0,1-1.41-1,2.76,2.76,0,0,1-.38-1.46,2.52,2.52,0,0,1,.43-1.47,2.94,2.94,0,0,1,1.2-1A4.19,4.19,0,0,1,65.21,85.07Z"/><path class="cls-6" d="M74,85.07a4.35,4.35,0,0,1,2.24.56,3.87,3.87,0,0,1,1.44,1.56,5,5,0,0,1,.5,2.29v1H71.75a2.31,2.31,0,0,0,.87,1.44,2.71,2.71,0,0,0,1.73.55A4,4,0,0,0,76.11,92a6.4,6.4,0,0,0,1.26-.79l0,2.07a5.05,5.05,0,0,1-1.25.75,4.45,4.45,0,0,1-1.84.38,4.86,4.86,0,0,1-2.4-.6,4.64,4.64,0,0,1-1.72-1.63,4.44,4.44,0,0,1-.64-2.38,4.86,4.86,0,0,1,.58-2.37,4.59,4.59,0,0,1,1.6-1.73A4.17,4.17,0,0,1,74,85.07Zm-.06,2a2,2,0,0,0-1.39.51,2.68,2.68,0,0,0-.77,1.37H76a1.8,1.8,0,0,0-.7-1.41A2.29,2.29,0,0,0,73.94,87Z"/><path class="cls-6" d="M83.44,82.71V85.3H85.9v1.86H83.44V91a1.48,1.48,0,0,0,.27.94,1,1,0,0,0,.81.35,2.81,2.81,0,0,0,.82-.11,2.5,2.5,0,0,0,.64-.3v1.78a2.81,2.81,0,0,1-.83.56,3.05,3.05,0,0,1-1.26.23A2.61,2.61,0,0,1,82,93.67a2.87,2.87,0,0,1-.75-2.1V87.16H79.6V86a3.73,3.73,0,0,0,1.56-1.13,6,6,0,0,0,1.13-2.18Z"/><path class="cls-6" d="M98.46,85.07a4,4,0,0,1,2.09.57A4.07,4.07,0,0,1,102,87.27a5.34,5.34,0,0,1,.55,2.53,5.26,5.26,0,0,1-.55,2.51,3.93,3.93,0,0,1-1.46,1.58,3.65,3.65,0,0,1-2,.55,2.89,2.89,0,0,1-1.72-.52,3.69,3.69,0,0,1-1.13-1.24v1.49H93.54V81.52h2.23V86.3A3.63,3.63,0,0,1,97,85.4,3.48,3.48,0,0,1,98.46,85.07ZM98,87.27a2.49,2.49,0,0,0-1.21.29,3.83,3.83,0,0,0-1,.8v1.26A2.71,2.71,0,0,0,96.08,91a2.32,2.32,0,0,0,.85.88,2.19,2.19,0,0,0,1.13.31,2,2,0,0,0,1.61-.7,2.48,2.48,0,0,0,.6-1.69,2.72,2.72,0,0,0-.28-1.24,2.37,2.37,0,0,0-.79-.93A2,2,0,0,0,98,87.27Z"/><path class="cls-6" d="M112.56,85.3v5.29a3.73,3.73,0,0,1-.53,2,3.48,3.48,0,0,1-1.43,1.31,4.82,4.82,0,0,1-4.11,0,3.48,3.48,0,0,1-1.43-1.31,3.9,3.9,0,0,1-.51-2V85.3h2.25v4.88a2.18,2.18,0,0,0,.48,1.55,1.81,1.81,0,0,0,2.52,0,2.18,2.18,0,0,0,.48-1.55V85.3Z"/><path class="cls-6" d="M120,85.07a4,4,0,0,1,2.09.57,4.07,4.07,0,0,1,1.49,1.63,5.34,5.34,0,0,1,.55,2.53,5.26,5.26,0,0,1-.55,2.51,4,4,0,0,1-1.46,1.58,3.68,3.68,0,0,1-2,.55,2.87,2.87,0,0,1-1.72-.52,3.69,3.69,0,0,1-1.13-1.24v1.49h-2.23V81.52h2.23V86.3a3.69,3.69,0,0,1,1.22-.9A3.56,3.56,0,0,1,120,85.07Zm-.45,2.2a2.49,2.49,0,0,0-1.21.29,3.83,3.83,0,0,0-1,.8v1.26a2.61,2.61,0,0,0,.31,1.38,2.32,2.32,0,0,0,.85.88,2.16,2.16,0,0,0,1.13.31,2,2,0,0,0,1.61-.7,2.48,2.48,0,0,0,.6-1.69,2.72,2.72,0,0,0-.28-1.24,2.46,2.46,0,0,0-.79-.93A2,2,0,0,0,119.58,87.27Z"/><path class="cls-6" d="M131.21,85.07a4,4,0,0,1,2.09.57,4.07,4.07,0,0,1,1.49,1.63,5.34,5.34,0,0,1,.55,2.53,5.26,5.26,0,0,1-.55,2.51,4,4,0,0,1-1.46,1.58,3.68,3.68,0,0,1-2,.55,2.87,2.87,0,0,1-1.72-.52,3.69,3.69,0,0,1-1.13-1.24v1.49h-2.23V81.52h2.23V86.3a3.69,3.69,0,0,1,1.22-.9A3.56,3.56,0,0,1,131.21,85.07Zm-.46,2.2a2.48,2.48,0,0,0-1.2.29,3.83,3.83,0,0,0-1,.8v1.26a2.61,2.61,0,0,0,.31,1.38,2.32,2.32,0,0,0,.85.88,2.16,2.16,0,0,0,1.13.31,2,2,0,0,0,1.61-.7,2.48,2.48,0,0,0,.6-1.69,2.72,2.72,0,0,0-.28-1.24,2.46,2.46,0,0,0-.79-.93A2,2,0,0,0,130.75,87.27Z"/><path class="cls-6" d="M139.7,81.52V94.17h-2.23V81.52Z"/><path class="cls-6" d="M146.31,85.07a4.3,4.3,0,0,1,2.24.56A3.74,3.74,0,0,1,150,87.19a4.92,4.92,0,0,1,.51,2.29v1h-6.44a2.32,2.32,0,0,0,.88,1.44,2.69,2.69,0,0,0,1.72.55,3.92,3.92,0,0,0,1.76-.39,6.22,6.22,0,0,0,1.27-.79l0,2.07a5,5,0,0,1-1.26.75,4.41,4.41,0,0,1-1.83.38,4.86,4.86,0,0,1-2.4-.6,4.67,4.67,0,0,1-1.73-1.63,4.53,4.53,0,0,1-.64-2.38,4.86,4.86,0,0,1,.58-2.37,4.67,4.67,0,0,1,1.6-1.73A4.17,4.17,0,0,1,146.31,85.07Zm-.05,2a2,2,0,0,0-1.39.51,2.68,2.68,0,0,0-.77,1.37h4.25a1.83,1.83,0,0,0-.7-1.41A2.31,2.31,0,0,0,146.26,87Z"/><rect y="108.59" width="161.17" height="53.83"/><path class="cls-2" d="M28.93,144.7a13.25,13.25,0,1,1,13.25-13.25A13.26,13.26,0,0,1,28.93,144.7Zm0-23.5a10.25,10.25,0,1,0,10.25,10.25A10.26,10.26,0,0,0,28.93,121.2Z"/><path class="cls-2" d="M34.38,131.2l-.48-1.42a5.24,5.24,0,0,0-3.39-3.33L29.08,126l.9-2.86,1.43.45a8.28,8.28,0,0,1,5.33,5.24l.49,1.42Z"/><polygon class="cls-2" points="27.83 149.67 10.65 149.67 10.65 131.45 13.65 131.45 13.65 146.67 27.83 146.67 27.83 149.67"/><path d="M23.1,196.18a13.25,13.25,0,1,1,13.24-13.25A13.27,13.27,0,0,1,23.1,196.18Zm0-23.5a10.25,10.25,0,1,0,10.24,10.25A10.26,10.26,0,0,0,23.1,172.68Z"/><path d="M25.13,176.49a6.81,6.81,0,0,1,4.36,4.28"/><path d="M28.55,182.68l-.48-1.43a5.27,5.27,0,0,0-3.4-3.33l-1.43-.45.91-2.86,1.43.45a8.29,8.29,0,0,1,5.33,5.23l.48,1.42Z"/><polygon points="23.49 201.15 4.81 201.15 4.81 181.43 7.81 181.43 7.81 198.15 23.49 198.15 23.49 201.15"/><path class="cls-2" d="M46.18,140.14a4.66,4.66,0,0,1,2.37.62,4.91,4.91,0,0,1,1.73,1.69,4.62,4.62,0,0,1,0,4.76,4.86,4.86,0,0,1-1.73,1.67,4.57,4.57,0,0,1-2.37.63,4.65,4.65,0,0,1-2.37-.63,4.86,4.86,0,0,1-1.73-1.67,4.68,4.68,0,0,1,0-4.76,4.91,4.91,0,0,1,1.73-1.69A4.74,4.74,0,0,1,46.18,140.14Zm0,2.16a2.41,2.41,0,0,0-1.18.3,2.32,2.32,0,0,0-.87.86,3.09,3.09,0,0,0,0,2.74,2.24,2.24,0,0,0,.87.86,2.51,2.51,0,0,0,1.18.29,2.54,2.54,0,0,0,1.18-.29,2.34,2.34,0,0,0,.88-.86,3,3,0,0,0,0-2.74,2.36,2.36,0,0,0-2.06-1.16Z"/><path class="cls-2" d="M58.25,140.37v1.86H56v7H53.72v-7H52.37v-1.86h1.35v-.79a3.34,3.34,0,0,1,.43-1.75,3,3,0,0,1,1.13-1.12,3.16,3.16,0,0,1,1.55-.39,3.65,3.65,0,0,1,1,.13,2.57,2.57,0,0,1,.73.33v1.87a2.36,2.36,0,0,0-1.33-.34,1.43,1.43,0,0,0-.9.34,1.4,1.4,0,0,0-.37,1.07v.65Z"/><path class="cls-2" d="M65.3,140.37v1.86H63v7H60.77v-7H59.42v-1.86h1.35v-.79a3.34,3.34,0,0,1,.43-1.75,3,3,0,0,1,1.13-1.12,3.16,3.16,0,0,1,1.55-.39,3.58,3.58,0,0,1,1,.13,2.52,2.52,0,0,1,.74.33v1.87a2.36,2.36,0,0,0-1.33-.34,1.43,1.43,0,0,0-.9.34,1.36,1.36,0,0,0-.37,1.07v.65Z"/><path class="cls-2" d="M70,140.14a4.39,4.39,0,0,1,1.53.25,3.44,3.44,0,0,1,1.09.56v2a6.79,6.79,0,0,0-1-.55,3.27,3.27,0,0,0-1.26-.26,1.58,1.58,0,0,0-1,.28.82.82,0,0,0-.37.67.79.79,0,0,0,.21.52A1.87,1.87,0,0,0,70,144l1,.33a2.41,2.41,0,0,1,1.55,3.81,3.18,3.18,0,0,1-1.24,1,4,4,0,0,1-1.73.37,5.66,5.66,0,0,1-1.74-.28,4.56,4.56,0,0,1-1.29-.62v-2a5,5,0,0,0,.81.44,5.68,5.68,0,0,0,1,.34,3.71,3.71,0,0,0,.94.13,1.84,1.84,0,0,0,1-.23.76.76,0,0,0,.37-.68.61.61,0,0,0-.3-.53,4.23,4.23,0,0,0-.88-.38l-1.09-.39a2.5,2.5,0,0,1-1.41-1A2.68,2.68,0,0,1,66.6,143a2.53,2.53,0,0,1,.44-1.47,2.87,2.87,0,0,1,1.2-1A4.15,4.15,0,0,1,70,140.14Z"/><path class="cls-2" d="M78.8,140.14a4.37,4.37,0,0,1,2.25.56,3.87,3.87,0,0,1,1.44,1.56,5,5,0,0,1,.5,2.29v.95H76.55a2.32,2.32,0,0,0,.88,1.44,2.71,2.71,0,0,0,1.73.55,3.88,3.88,0,0,0,1.75-.39,6.22,6.22,0,0,0,1.27-.79l0,2.07a5,5,0,0,1-1.26.75,4.37,4.37,0,0,1-1.83.38,4.86,4.86,0,0,1-2.4-.6A4.57,4.57,0,0,1,75,147.28a4.45,4.45,0,0,1-.65-2.38,5,5,0,0,1,.58-2.37,4.75,4.75,0,0,1,1.6-1.73A4.19,4.19,0,0,1,78.8,140.14Zm0,2a2,2,0,0,0-1.39.51,2.68,2.68,0,0,0-.77,1.37h4.25a1.8,1.8,0,0,0-.7-1.41A2.31,2.31,0,0,0,78.75,142.09Z"/><path class="cls-2" d="M88.24,137.78v2.59H90.7v1.86H88.24v3.83a1.41,1.41,0,0,0,.28.94,1,1,0,0,0,.81.35,2.81,2.81,0,0,0,.82-.11,2.5,2.5,0,0,0,.64-.3v1.78a2.81,2.81,0,0,1-.83.56,3.12,3.12,0,0,1-1.26.23,2.59,2.59,0,0,1-1.94-.77,2.87,2.87,0,0,1-.75-2.1v-4.41h-1.6v-1.14A3.79,3.79,0,0,0,86,140a6,6,0,0,0,1.13-2.18Z"/><path class="cls-2" d="M103.27,140.14a4,4,0,0,1,2.09.57,4.07,4.07,0,0,1,1.49,1.63,5.34,5.34,0,0,1,.55,2.53,5.26,5.26,0,0,1-.55,2.51,4,4,0,0,1-1.46,1.58,3.68,3.68,0,0,1-2,.55,2.87,2.87,0,0,1-1.72-.52,3.69,3.69,0,0,1-1.13-1.24v1.49H98.35V136.59h2.23v4.78a3.69,3.69,0,0,1,1.22-.9A3.56,3.56,0,0,1,103.27,140.14Zm-.45,2.2a2.49,2.49,0,0,0-1.21.29,3.83,3.83,0,0,0-1,.8v1.26a2.61,2.61,0,0,0,.31,1.38,2.32,2.32,0,0,0,.85.88,2.16,2.16,0,0,0,1.13.31,2,2,0,0,0,1.61-.7,2.48,2.48,0,0,0,.6-1.69,2.72,2.72,0,0,0-.28-1.24,2.46,2.46,0,0,0-.79-.93A2,2,0,0,0,102.82,142.34Z"/><path class="cls-2" d="M117.37,140.37v5.29a3.81,3.81,0,0,1-.53,2,3.54,3.54,0,0,1-1.43,1.31,4.82,4.82,0,0,1-4.11,0,3.48,3.48,0,0,1-1.43-1.31,3.9,3.9,0,0,1-.52-2v-5.29h2.25l0,4.88a2.18,2.18,0,0,0,.48,1.55,1.62,1.62,0,0,0,1.26.51,1.65,1.65,0,0,0,1.26-.51,2.18,2.18,0,0,0,.48-1.55v-4.88Z"/><path class="cls-2" d="M124.84,140.14a3.92,3.92,0,0,1,2.08.57,4,4,0,0,1,1.5,1.63,5.34,5.34,0,0,1,.55,2.53,5.26,5.26,0,0,1-.55,2.51A4,4,0,0,1,127,149a3.68,3.68,0,0,1-2,.55,2.87,2.87,0,0,1-1.72-.52,3.59,3.59,0,0,1-1.13-1.24v1.49h-2.23V136.59h2.23v4.78a3.69,3.69,0,0,1,1.22-.9A3.56,3.56,0,0,1,124.84,140.14Zm-.46,2.2a2.48,2.48,0,0,0-1.2.29,3.83,3.83,0,0,0-1,.8v1.26a2.61,2.61,0,0,0,.31,1.38,2.32,2.32,0,0,0,.85.88,2.16,2.16,0,0,0,1.13.31,2,2,0,0,0,1.6-.7,2.44,2.44,0,0,0,.61-1.69,2.72,2.72,0,0,0-.28-1.24,2.46,2.46,0,0,0-.79-.93A2,2,0,0,0,124.38,142.34Z"/><path class="cls-2" d="M136,140.14a3.92,3.92,0,0,1,2.08.57,4,4,0,0,1,1.5,1.63,5.34,5.34,0,0,1,.55,2.53,5.26,5.26,0,0,1-.55,2.51,4,4,0,0,1-1.46,1.58,3.68,3.68,0,0,1-2,.55,2.87,2.87,0,0,1-1.72-.52,3.59,3.59,0,0,1-1.13-1.24v1.49H131.1V136.59h2.23v4.78a3.69,3.69,0,0,1,1.22-.9A3.56,3.56,0,0,1,136,140.14Zm-.46,2.2a2.48,2.48,0,0,0-1.2.29,3.83,3.83,0,0,0-1,.8v1.26a2.61,2.61,0,0,0,.31,1.38,2.32,2.32,0,0,0,.85.88,2.16,2.16,0,0,0,1.13.31,2,2,0,0,0,1.61-.7,2.48,2.48,0,0,0,.6-1.69,2.72,2.72,0,0,0-.28-1.24,2.46,2.46,0,0,0-.79-.93A2,2,0,0,0,135.56,142.34Z"/><path class="cls-2" d="M144.51,136.59v12.65h-2.23V136.59Z"/><path class="cls-2" d="M151.12,140.14a4.33,4.33,0,0,1,2.24.56,3.74,3.74,0,0,1,1.44,1.56,4.92,4.92,0,0,1,.5,2.29v.95h-6.43a2.32,2.32,0,0,0,.88,1.44,2.69,2.69,0,0,0,1.72.55,3.92,3.92,0,0,0,1.76-.39,5.86,5.86,0,0,0,1.26-.79v2.07a5,5,0,0,1-1.26.75,4.45,4.45,0,0,1-1.84.38,4.86,4.86,0,0,1-2.4-.6,4.64,4.64,0,0,1-1.72-1.63,4.44,4.44,0,0,1-.64-2.38,4.86,4.86,0,0,1,.58-2.37,4.75,4.75,0,0,1,1.6-1.73A4.17,4.17,0,0,1,151.12,140.14Zm-.05,2a2,2,0,0,0-1.39.51,2.7,2.7,0,0,0-.78,1.37h4.26a1.83,1.83,0,0,0-.7-1.41A2.33,2.33,0,0,0,151.07,142.09Z"/><path d="M40.35,193.66a4.71,4.71,0,0,1,2.37.62A5,5,0,0,1,44.45,196a4.42,4.42,0,0,1,.66,2.38,4.36,4.36,0,0,1-.66,2.37,4.88,4.88,0,0,1-1.73,1.68,4.77,4.77,0,0,1-4.74,0,4.72,4.72,0,0,1-1.73-1.68,4.44,4.44,0,0,1-.65-2.37,4.5,4.5,0,0,1,.65-2.38A4.83,4.83,0,0,1,38,194.28,4.71,4.71,0,0,1,40.35,193.66Zm0,2.16a2.38,2.38,0,0,0-1.18.3,2.18,2.18,0,0,0-.87.86,3,3,0,0,0,0,2.74,2,2,0,0,0,.87.85,2.53,2.53,0,0,0,2.35,0,2.12,2.12,0,0,0,.88-.85,2.93,2.93,0,0,0,0-2.74,2.27,2.27,0,0,0-.88-.86A2.37,2.37,0,0,0,40.35,195.82Z"/><path d="M52.42,193.89v1.86h-2.3v7H47.89v-7H46.53v-1.86h1.36v-.79a3.34,3.34,0,0,1,.43-1.75,2.9,2.9,0,0,1,1.13-1.12,3.16,3.16,0,0,1,1.55-.39,3.23,3.23,0,0,1,1,.13,2.64,2.64,0,0,1,.74.33v1.86a2.47,2.47,0,0,0-1.34-.33,1.38,1.38,0,0,0-.89.34,1.35,1.35,0,0,0-.37,1.07v.65Z"/><path d="M59.47,193.89v1.86h-2.3v7H54.94v-7H53.58v-1.86h1.36v-.79a3.34,3.34,0,0,1,.43-1.75,2.9,2.9,0,0,1,1.13-1.12,3.13,3.13,0,0,1,1.55-.39,3.23,3.23,0,0,1,1,.13,2.64,2.64,0,0,1,.74.33v1.86a2.47,2.47,0,0,0-1.34-.33,1.38,1.38,0,0,0-.89.34,1.35,1.35,0,0,0-.37,1.07v.65Z"/><path d="M64.18,193.66a4.72,4.72,0,0,1,1.53.24,3.78,3.78,0,0,1,1.09.57v2a6.47,6.47,0,0,0-1-.55,3,3,0,0,0-1.25-.26,1.62,1.62,0,0,0-1,.28.84.84,0,0,0-.37.67.71.71,0,0,0,.22.51,1.77,1.77,0,0,0,.8.42l1,.33a2.38,2.38,0,0,1,2,2.34,2.45,2.45,0,0,1-.47,1.47,3.23,3.23,0,0,1-1.25,1,4.06,4.06,0,0,1-1.73.37,5.66,5.66,0,0,1-1.74-.28,4.62,4.62,0,0,1-1.28-.62v-1.95a5,5,0,0,0,.81.44,6.29,6.29,0,0,0,1,.34,3.64,3.64,0,0,0,.93.13,1.94,1.94,0,0,0,1-.23.77.77,0,0,0,.36-.68.61.61,0,0,0-.3-.53,3.58,3.58,0,0,0-.88-.38l-1.09-.39a2.48,2.48,0,0,1-1.4-.95,2.68,2.68,0,0,1-.39-1.46A2.59,2.59,0,0,1,61.2,195a3,3,0,0,1,1.21-1A4.11,4.11,0,0,1,64.18,193.66Z"/><path d="M73,193.66a4.3,4.3,0,0,1,2.24.56,3.68,3.68,0,0,1,1.44,1.56,4.92,4.92,0,0,1,.5,2.29v1H70.72a2.32,2.32,0,0,0,.88,1.44,2.74,2.74,0,0,0,1.72.55,3.92,3.92,0,0,0,1.76-.39,6.22,6.22,0,0,0,1.27-.79l0,2.07a5,5,0,0,1-1.26.75,4.45,4.45,0,0,1-1.84.38,4.85,4.85,0,0,1-2.39-.6,4.55,4.55,0,0,1-1.73-1.64,4.38,4.38,0,0,1-.64-2.37,4.84,4.84,0,0,1,.58-2.37,4.67,4.67,0,0,1,1.6-1.73A4.17,4.17,0,0,1,73,193.66Zm0,2a2,2,0,0,0-1.39.51,2.61,2.61,0,0,0-.77,1.37H75a1.86,1.86,0,0,0-.7-1.42A2.32,2.32,0,0,0,72.92,195.61Z"/><path d="M82.41,191.3v2.59h2.46v1.86H82.41v3.83a1.48,1.48,0,0,0,.27.94,1,1,0,0,0,.82.34,2.83,2.83,0,0,0,.82-.1,2.5,2.5,0,0,0,.64-.3v1.78a2.74,2.74,0,0,1-.84.56,3,3,0,0,1-1.25.23,2.61,2.61,0,0,1-2-.77,2.91,2.91,0,0,1-.74-2.1v-4.41h-1.6v-1.14a3.71,3.71,0,0,0,1.55-1.13,6,6,0,0,0,1.14-2.18Z"/><path d="M97.44,193.66a3.92,3.92,0,0,1,2.08.57,4,4,0,0,1,1.5,1.63,5.34,5.34,0,0,1,.55,2.53,5.26,5.26,0,0,1-.55,2.51,4,4,0,0,1-1.46,1.58,3.7,3.7,0,0,1-2,.55,3,3,0,0,1-1.73-.52,3.66,3.66,0,0,1-1.12-1.24v1.49H92.52V190.11h2.23v4.78A3.47,3.47,0,0,1,96,194,3.56,3.56,0,0,1,97.44,193.66Zm-.46,2.2a2.48,2.48,0,0,0-1.2.29,3.83,3.83,0,0,0-1,.8v1.26a2.61,2.61,0,0,0,.31,1.38,2.32,2.32,0,0,0,.85.88,2.25,2.25,0,0,0,1.12.31,2,2,0,0,0,1.61-.7,2.46,2.46,0,0,0,.61-1.69,2.72,2.72,0,0,0-.28-1.24,2.46,2.46,0,0,0-.79-.93A2,2,0,0,0,97,195.86Z"/><path d="M111.54,193.89v5.29a3.81,3.81,0,0,1-.53,2,3.54,3.54,0,0,1-1.43,1.31,4.57,4.57,0,0,1-2,.45,4.63,4.63,0,0,1-2.07-.45,3.52,3.52,0,0,1-1.42-1.31,3.81,3.81,0,0,1-.52-2v-5.29h2.25l0,4.88a2.24,2.24,0,0,0,.47,1.55,1.66,1.66,0,0,0,1.27.51,1.68,1.68,0,0,0,1.26-.51,2.2,2.2,0,0,0,.48-1.55v-4.88Z"/><path d="M119,193.66a3.93,3.93,0,0,1,3.57,2.2,5.34,5.34,0,0,1,.56,2.53,5.26,5.26,0,0,1-.56,2.51,3.9,3.9,0,0,1-1.45,1.58,3.7,3.7,0,0,1-2,.55,3,3,0,0,1-1.73-.52,3.66,3.66,0,0,1-1.12-1.24v1.49h-2.23V190.11h2.23v4.78a3.47,3.47,0,0,1,1.22-.9A3.56,3.56,0,0,1,119,193.66Zm-.46,2.2a2.48,2.48,0,0,0-1.2.29,3.68,3.68,0,0,0-1,.8v1.26a2.61,2.61,0,0,0,.31,1.38,2.32,2.32,0,0,0,.85.88,2.22,2.22,0,0,0,1.12.31,2,2,0,0,0,1.61-.7,2.46,2.46,0,0,0,.61-1.69,2.86,2.86,0,0,0-.28-1.24,2.46,2.46,0,0,0-.79-.93A2,2,0,0,0,118.55,195.86Z"/><path d="M130.19,193.66a3.94,3.94,0,0,1,2.08.57,4,4,0,0,1,1.5,1.63,5.46,5.46,0,0,1,.55,2.53,5.38,5.38,0,0,1-.55,2.51,4,4,0,0,1-1.46,1.58,3.7,3.7,0,0,1-2,.55,3,3,0,0,1-1.73-.52,3.66,3.66,0,0,1-1.12-1.24v1.49h-2.23V190.11h2.23v4.78a3.47,3.47,0,0,1,1.22-.9A3.53,3.53,0,0,1,130.19,193.66Zm-.46,2.2a2.48,2.48,0,0,0-1.2.29,3.68,3.68,0,0,0-1,.8v1.26a2.61,2.61,0,0,0,.31,1.38,2.32,2.32,0,0,0,.85.88,2.22,2.22,0,0,0,1.12.31,2,2,0,0,0,1.61-.7,2.46,2.46,0,0,0,.61-1.69,2.86,2.86,0,0,0-.28-1.24,2.46,2.46,0,0,0-.79-.93A2,2,0,0,0,129.73,195.86Z"/><path d="M138.68,190.11v12.65h-2.24V190.11Z"/><path d="M145.29,193.66a4.35,4.35,0,0,1,2.24.56,3.74,3.74,0,0,1,1.44,1.56,5,5,0,0,1,.5,2.29v1H143a2.28,2.28,0,0,0,.88,1.44,2.72,2.72,0,0,0,1.72.55,4,4,0,0,0,1.76-.39,6.12,6.12,0,0,0,1.26-.79l0,2.07a5.05,5.05,0,0,1-1.25.75,4.45,4.45,0,0,1-1.84.38,4.86,4.86,0,0,1-2.4-.6,4.59,4.59,0,0,1-1.72-1.64,4.38,4.38,0,0,1-.64-2.37,4.84,4.84,0,0,1,.58-2.37,4.59,4.59,0,0,1,1.6-1.73A4.17,4.17,0,0,1,145.29,193.66Zm-.06,2a2,2,0,0,0-1.38.51,2.63,2.63,0,0,0-.78,1.37h4.26a1.87,1.87,0,0,0-.71-1.42A2.28,2.28,0,0,0,145.23,195.61Z"/></g></g></svg>