<svg xmlns="http://www.w3.org/2000/svg" viewBox="0 0 1080 1080"><defs><style>.cls-1{fill:#fff;}.cls-2{fill:#151616;}.cls-3{fill:#008c9e;}</style></defs><title>astro</title><g id="Calque_2" data-name="Calque 2"><g id="Calque_2-2" data-name="Calque 2"><rect class="cls-1" width="1080" height="1080"/></g><g id="Calque_1-2" data-name="Calque 1"><circle class="cls-2" cx="799.29" cy="794.34" r="212.66"/><circle class="cls-2" cx="288.54" cy="282.54" r="212.66"/><path class="cls-1" d="M833.8,637.36c-40.76-8.09-79.5-.68-111.44,17.37a2.54,2.54,0,0,0,2.11,4.59A160.15,160.15,0,0,1,931.81,766a3.92,3.92,0,0,1-3.79,5h-3.65c-31,0-31,13-61.9,13s-30.94-13-61.89-13-31,13-61.9,13-30.95-13-61.9-13c-12.12,0-20.61,4.2-28.07,8.41A15.09,15.09,0,0,0,641,792.49v1.65A160,160,0,0,0,881.1,932.69l-.63.56c57.69-33,92.89-100.91,76.77-175A158,158,0,0,0,833.8,637.36Z"/><path class="cls-2" d="M704.37,818.53a27.26,27.26,0,0,1,6.51.72,13.94,13.94,0,0,1,5,2.24,10.3,10.3,0,0,1,3.21,3.86,12.46,12.46,0,0,1,1.13,5.51v15.57a4.2,4.2,0,0,1-.92,2.86,8.72,8.72,0,0,1-2.24,1.82,17,17,0,0,1-5.24,2,32.52,32.52,0,0,1-7,.69q-7.1,0-11.29-2.72t-4.21-8.3q0-4.75,2.83-7.23t8.68-3.1l9.16-1v-.76a3.47,3.47,0,0,0-1.79-3.24,10.5,10.5,0,0,0-5.17-1,21.56,21.56,0,0,0-5.13.62,31.1,31.1,0,0,0-4.51,1.45,4.38,4.38,0,0,1-1.41-1.69,5.27,5.27,0,0,1-.59-2.45,4.49,4.49,0,0,1,3.17-4.34,22,22,0,0,1,4.65-1.13A37.14,37.14,0,0,1,704.37,818.53Zm.41,27.49a15,15,0,0,0,3-.31,6.81,6.81,0,0,0,2.24-.8v-6.33l-5.65.48a8.59,8.59,0,0,0-3.55,1,2.59,2.59,0,0,0-1.34,2.37,3.13,3.13,0,0,0,1.24,2.62A6.64,6.64,0,0,0,704.78,846Z"/><path class="cls-2" d="M755,843a9.4,9.4,0,0,1-3.78,8q-3.79,2.87-11.17,2.86a31.59,31.59,0,0,1-5.27-.41,15.79,15.79,0,0,1-4.09-1.24,7.29,7.29,0,0,1-2.69-2.07,4.6,4.6,0,0,1-1-2.89,5,5,0,0,1,.63-2.59,5.54,5.54,0,0,1,1.58-1.75,25.55,25.55,0,0,0,4.55,2.06,17.76,17.76,0,0,0,5.92.9q4.89,0,4.89-2.76a2.06,2.06,0,0,0-.86-1.79,8.65,8.65,0,0,0-2.93-1.1l-2.75-.62q-5.65-1.17-8.41-3.62a8.69,8.69,0,0,1-2.75-6.85,9.07,9.07,0,0,1,4-7.75q4-2.87,10.64-2.86a27.81,27.81,0,0,1,4.68.38A14.39,14.39,0,0,1,750,820a7.22,7.22,0,0,1,2.52,1.9,4.06,4.06,0,0,1,.93,2.65,5.36,5.36,0,0,1-.55,2.45,5.21,5.21,0,0,1-1.45,1.76,9.33,9.33,0,0,0-1.62-.76,23.19,23.19,0,0,0-2.31-.76,20,20,0,0,0-2.61-.55,17,17,0,0,0-2.55-.21,8.71,8.71,0,0,0-3.76.66,2.09,2.09,0,0,0-1.34,2,1.75,1.75,0,0,0,.76,1.51,8.22,8.22,0,0,0,2.75,1l2.62.62q6.27,1.38,9,4A9,9,0,0,1,755,843Z"/><path class="cls-2" d="M772.91,844.54a6,6,0,0,0,3.45.86,12.72,12.72,0,0,0,4.2-.83,6.33,6.33,0,0,1,1,1.58,4.84,4.84,0,0,1,.42,2.07,4.9,4.9,0,0,1-1.9,4q-1.89,1.55-6.58,1.55-5.78,0-9-2.65t-3.24-8.65V811.5c.51-.14,1.17-.28,2-.44a14.14,14.14,0,0,1,2.69-.25,7.06,7.06,0,0,1,4.37,1.07c.9.71,1.34,2,1.34,3.89v4.48h9.51a13,13,0,0,1,.69,1.76,7.24,7.24,0,0,1,.35,2.24,4.26,4.26,0,0,1-1,3.17,3.55,3.55,0,0,1-2.58,1h-7v13.36A3.19,3.19,0,0,0,772.91,844.54Z"/><path class="cls-2" d="M798.68,852.63a13.91,13.91,0,0,1-1.93.38,21.07,21.07,0,0,1-2.76.17,7.71,7.71,0,0,1-4.47-1c-.92-.66-1.38-2-1.38-3.89v-21a5.64,5.64,0,0,1,1-3.31,8.69,8.69,0,0,1,2.69-2.41,19.53,19.53,0,0,1,5.48-2.17,27.72,27.72,0,0,1,6.71-.79q7.17,0,7.17,4.82a6.36,6.36,0,0,1-.35,2.14,9.1,9.1,0,0,1-.76,1.65,18.32,18.32,0,0,0-3.85-.35,17.1,17.1,0,0,0-4,.49,13.93,13.93,0,0,0-3.51,1.31Z"/><path class="cls-2" d="M848.55,836.1a20.46,20.46,0,0,1-1.24,7.33,15.32,15.32,0,0,1-3.54,5.55,16,16,0,0,1-5.55,3.51,20,20,0,0,1-7.23,1.24,21,21,0,0,1-7.27-1.2,15.63,15.63,0,0,1-5.58-3.48,15.34,15.34,0,0,1-3.55-5.55,20.69,20.69,0,0,1-1.24-7.4,20.06,20.06,0,0,1,1.27-7.27,15.7,15.7,0,0,1,3.59-5.55,15.88,15.88,0,0,1,5.58-3.51,20.08,20.08,0,0,1,7.2-1.24,19.82,19.82,0,0,1,7.16,1.24,15.69,15.69,0,0,1,5.55,3.55,16,16,0,0,1,3.58,5.54A19.61,19.61,0,0,1,848.55,836.1ZM831,826.79a5.9,5.9,0,0,0-5,2.42c-1.2,1.6-1.79,3.9-1.79,6.89s.58,5.4,1.75,7a6.54,6.54,0,0,0,10.13,0q1.76-2.4,1.76-6.95a11.47,11.47,0,0,0-1.79-6.86A5.9,5.9,0,0,0,831,826.79Z"/><path class="cls-2" d="M772.1,891.69a16.26,16.26,0,0,1-3.31-.31,17.25,17.25,0,0,1-2.75-.79v12.33a17.05,17.05,0,0,1-1.93.41,16.66,16.66,0,0,1-2.76.21,7.58,7.58,0,0,1-4.48-1c-.91-.69-1.37-2-1.37-3.92v-34.1a5.14,5.14,0,0,1,.76-2.93,7.17,7.17,0,0,1,2.13-2,19.06,19.06,0,0,1,5.3-2.17,27.64,27.64,0,0,1,7.17-.86,25.44,25.44,0,0,1,7.34,1,15.07,15.07,0,0,1,5.75,3.13,14.35,14.35,0,0,1,3.75,5.44,20.78,20.78,0,0,1,1.35,7.86,21.47,21.47,0,0,1-1.28,7.68,15.4,15.4,0,0,1-3.55,5.58,14.66,14.66,0,0,1-5.37,3.37A19.44,19.44,0,0,1,772.1,891.69Zm-1.59-8.34a7.22,7.22,0,0,0,5.76-2.34q2-2.34,2-7.09c0-3.26-.66-5.61-2-7a7.06,7.06,0,0,0-5.47-2.14,9.07,9.07,0,0,0-2.76.38A16.28,16.28,0,0,0,766,866v16.19A8.71,8.71,0,0,0,768,883,9.1,9.1,0,0,0,770.51,883.35Z"/><path class="cls-2" d="M829,874.05a20.51,20.51,0,0,1-1.24,7.34,15.21,15.21,0,0,1-3.55,5.55,16.08,16.08,0,0,1-5.54,3.51,20,20,0,0,1-7.24,1.24,20.71,20.71,0,0,1-7.26-1.21,15,15,0,0,1-9.13-9,20.71,20.71,0,0,1-1.24-7.41,19.92,19.92,0,0,1,1.27-7.27,15.24,15.24,0,0,1,9.17-9,20.07,20.07,0,0,1,7.19-1.24,19.84,19.84,0,0,1,7.17,1.24,15.63,15.63,0,0,1,5.54,3.54,16.06,16.06,0,0,1,3.59,5.55A19.8,19.8,0,0,1,829,874.05Zm-17.57-9.3a5.89,5.89,0,0,0-5,2.42c-1.2,1.6-1.8,3.9-1.8,6.88s.59,5.41,1.76,7a6.56,6.56,0,0,0,10.13,0c1.17-1.61,1.75-3.92,1.75-7a11.39,11.39,0,0,0-1.79-6.85A5.87,5.87,0,0,0,811.43,864.75Z"/><path class="cls-2" d="M869,874.05a20.73,20.73,0,0,1-1.24,7.34,15.34,15.34,0,0,1-3.55,5.55,16,16,0,0,1-5.55,3.51,20,20,0,0,1-7.23,1.24,20.77,20.77,0,0,1-7.27-1.21,15,15,0,0,1-9.13-9,20.94,20.94,0,0,1-1.23-7.41,19.92,19.92,0,0,1,1.27-7.27,15.26,15.26,0,0,1,9.16-9,20.08,20.08,0,0,1,7.2-1.24,19.75,19.75,0,0,1,7.16,1.24,15.67,15.67,0,0,1,5.55,3.54,16,16,0,0,1,3.58,5.55A19.6,19.6,0,0,1,869,874.05Zm-17.57-9.3a5.9,5.9,0,0,0-5,2.42c-1.19,1.6-1.79,3.9-1.79,6.88s.59,5.41,1.76,7a6.55,6.55,0,0,0,10.12,0c1.17-1.61,1.76-3.92,1.76-7a11.46,11.46,0,0,0-1.79-6.85A5.88,5.88,0,0,0,851.39,864.75Z"/><path class="cls-2" d="M881.42,891.14a7.66,7.66,0,0,1-4.44-1c-.9-.67-1.34-2-1.34-3.89V845.81a14.63,14.63,0,0,1,2-.41,17.21,17.21,0,0,1,2.79-.21,7.42,7.42,0,0,1,4.41,1q1.38,1,1.38,3.93v40.44a17.19,17.19,0,0,1-2,.38A21.07,21.07,0,0,1,881.42,891.14Z"/><path class="cls-1" d="M762,747.26l-24.65-7.72a1.7,1.7,0,0,0-1.77.47L718,758.92a1.73,1.73,0,0,1-2.91-1.69l7.73-24.65a1.74,1.74,0,0,0-.47-1.78l-18.91-17.6a1.72,1.72,0,0,1,1.69-2.9L729.76,718a1.73,1.73,0,0,0,1.77-.48l17.6-18.9a1.73,1.73,0,0,1,2.91,1.69L744.31,725a1.73,1.73,0,0,0,.47,1.78l18.91,17.6A1.72,1.72,0,0,1,762,747.26Z"/><path class="cls-1" d="M875.44,735.14l-10.22,11.47a1,1,0,0,0-.18,1.08L871,761.86a1,1,0,0,1-1.63,1.16L857.88,752.8a1,1,0,0,0-1.08-.18l-14.17,5.94a1,1,0,0,1-1.16-1.63l10.23-11.47a1,1,0,0,0,.18-1.08l-5.94-14.17a1,1,0,0,1,1.62-1.16L859,739.27a1,1,0,0,0,1.08.18l14.17-5.94A1,1,0,0,1,875.44,735.14Z"/><path class="cls-1" d="M807.82,713.19l-10.47-3.93a.75.75,0,0,0-.78.16l-8.06,7.75a.74.74,0,0,1-1.21-.8l3.93-10.47a.75.75,0,0,0-.17-.78l-7.75-8a.75.75,0,0,1,.8-1.22l10.47,3.93a.75.75,0,0,0,.78-.16l8.06-7.75a.74.74,0,0,1,1.21.8l-3.93,10.46a.76.76,0,0,0,.16.78l7.76,8.06A.75.75,0,0,1,807.82,713.19Z"/><path class="cls-2" d="M833.8,128.7c-40.76-8.09-79.5-.68-111.44,17.38a2.53,2.53,0,0,0,2.11,4.58A160.18,160.18,0,0,1,931.81,257.33a3.91,3.91,0,0,1-3.79,4.95h-3.65c-31,0-31,13-61.9,13s-30.94-13-61.89-13-31,13-61.9,13-30.95-13-61.9-13c-12.12,0-20.61,4.21-28.07,8.41A15.09,15.09,0,0,0,641,283.83v1.66A160,160,0,0,0,881.1,424l-.63.56c57.69-33,92.89-100.91,76.77-175A158,158,0,0,0,833.8,128.7Z"/><path class="cls-1" d="M704.37,309.87a27.26,27.26,0,0,1,6.51.72,14.12,14.12,0,0,1,5,2.24,10.3,10.3,0,0,1,3.21,3.86,12.46,12.46,0,0,1,1.13,5.51v15.57a4.19,4.19,0,0,1-.92,2.86,9,9,0,0,1-2.24,1.83,17.21,17.21,0,0,1-5.24,2,32.52,32.52,0,0,1-7,.69q-7.1,0-11.29-2.72t-4.21-8.3q0-4.75,2.83-7.23t8.68-3.1l9.16-1v-.76a3.45,3.45,0,0,0-1.79-3.23,10.49,10.49,0,0,0-5.17-1,21.56,21.56,0,0,0-5.13.62,32.37,32.37,0,0,0-4.51,1.45,4.38,4.38,0,0,1-1.41-1.69,5.26,5.26,0,0,1-.59-2.44,4.47,4.47,0,0,1,3.17-4.34,21.38,21.38,0,0,1,4.65-1.14A37.14,37.14,0,0,1,704.37,309.87Zm.41,27.49a15,15,0,0,0,3-.31,7.07,7.07,0,0,0,2.24-.79v-6.34l-5.65.48a8.59,8.59,0,0,0-3.55,1,2.59,2.59,0,0,0-1.34,2.37,3.12,3.12,0,0,0,1.24,2.62A6.64,6.64,0,0,0,704.78,337.36Z"/><path class="cls-1" d="M755,334.33a9.4,9.4,0,0,1-3.78,7.95q-3.79,2.87-11.17,2.86a31.59,31.59,0,0,1-5.27-.41,15.79,15.79,0,0,1-4.09-1.24,7.29,7.29,0,0,1-2.69-2.07,4.6,4.6,0,0,1-1-2.89,5,5,0,0,1,.63-2.59,5.54,5.54,0,0,1,1.58-1.75,26.29,26.29,0,0,0,4.55,2.07,18,18,0,0,0,5.92.89q4.89,0,4.89-2.76a2.07,2.07,0,0,0-.86-1.79,8.65,8.65,0,0,0-2.93-1.1l-2.75-.62q-5.65-1.17-8.41-3.61a8.73,8.73,0,0,1-2.75-6.86,9.07,9.07,0,0,1,4-7.75q4-2.85,10.64-2.86a27.81,27.81,0,0,1,4.68.38,14,14,0,0,1,3.79,1.14,7.08,7.08,0,0,1,2.52,1.89,4.06,4.06,0,0,1,.93,2.65,5.36,5.36,0,0,1-.55,2.45,5.21,5.21,0,0,1-1.45,1.76,10.14,10.14,0,0,0-1.62-.76,23.19,23.19,0,0,0-2.31-.76,21.83,21.83,0,0,0-2.61-.55,17,17,0,0,0-2.55-.21,8.71,8.71,0,0,0-3.76.66,2.09,2.09,0,0,0-1.34,2,1.78,1.78,0,0,0,.76,1.52,8.48,8.48,0,0,0,2.75,1l2.62.62q6.27,1.38,9,4A9,9,0,0,1,755,334.33Z"/><path class="cls-1" d="M772.91,335.88a6,6,0,0,0,3.45.86,12.08,12.08,0,0,0,4.2-.83,6.33,6.33,0,0,1,1,1.58,4.84,4.84,0,0,1,.42,2.07,4.9,4.9,0,0,1-1.9,4c-1.26,1-3.45,1.55-6.58,1.55q-5.78,0-9-2.65t-3.24-8.65V302.85c.51-.14,1.17-.29,2-.45a14.17,14.17,0,0,1,2.69-.24,7.07,7.07,0,0,1,4.37,1.06c.9.72,1.34,2,1.34,3.89v4.48h9.51a13,13,0,0,1,.69,1.76,7.24,7.24,0,0,1,.35,2.24,4.26,4.26,0,0,1-1,3.17,3.55,3.55,0,0,1-2.58,1h-7v13.37A3.18,3.18,0,0,0,772.91,335.88Z"/><path class="cls-1" d="M798.68,344a12.56,12.56,0,0,1-1.93.38,21.07,21.07,0,0,1-2.76.17,7.71,7.71,0,0,1-4.47-1c-.92-.66-1.38-2-1.38-3.89v-21a5.64,5.64,0,0,1,1-3.31,8.69,8.69,0,0,1,2.69-2.41,19.53,19.53,0,0,1,5.48-2.17,27.72,27.72,0,0,1,6.71-.79q7.17,0,7.17,4.82a6.32,6.32,0,0,1-.35,2.14,9.1,9.1,0,0,1-.76,1.65,18.39,18.39,0,0,0-3.85-.34,17.09,17.09,0,0,0-4,.48,14.33,14.33,0,0,0-3.51,1.31Z"/><path class="cls-1" d="M848.55,327.44a20.55,20.55,0,0,1-1.24,7.34,15.28,15.28,0,0,1-3.54,5.54,15.74,15.74,0,0,1-5.55,3.51,20,20,0,0,1-7.23,1.24,21,21,0,0,1-7.27-1.2,15.63,15.63,0,0,1-5.58-3.48,15.34,15.34,0,0,1-3.55-5.55,20.69,20.69,0,0,1-1.24-7.4,20.06,20.06,0,0,1,1.27-7.27,15.7,15.7,0,0,1,3.59-5.55,15.88,15.88,0,0,1,5.58-3.51,20.08,20.08,0,0,1,7.2-1.24,19.82,19.82,0,0,1,7.16,1.24,15.69,15.69,0,0,1,5.55,3.55,16.19,16.19,0,0,1,3.58,5.55A19.52,19.52,0,0,1,848.55,327.44ZM831,318.14a5.89,5.89,0,0,0-5,2.41c-1.2,1.61-1.79,3.9-1.79,6.89s.58,5.4,1.75,7a6.54,6.54,0,0,0,10.13,0q1.76-2.4,1.76-6.95a11.47,11.47,0,0,0-1.79-6.86A5.89,5.89,0,0,0,831,318.14Z"/><path class="cls-1" d="M772.1,383a16.26,16.26,0,0,1-3.31-.31,17.25,17.25,0,0,1-2.75-.79v12.33a15.09,15.09,0,0,1-1.93.41,16.66,16.66,0,0,1-2.76.21,7.59,7.59,0,0,1-4.48-1c-.91-.69-1.37-2-1.37-3.93v-34.1a5.16,5.16,0,0,1,.76-2.93,7.17,7.17,0,0,1,2.13-2,19.37,19.37,0,0,1,5.3-2.17,28.08,28.08,0,0,1,7.17-.86,25.44,25.44,0,0,1,7.34,1A15.07,15.07,0,0,1,784,352a14.43,14.43,0,0,1,3.75,5.44,20.78,20.78,0,0,1,1.35,7.86,21.47,21.47,0,0,1-1.28,7.68,15.31,15.31,0,0,1-3.55,5.58,14.66,14.66,0,0,1-5.37,3.37A19.44,19.44,0,0,1,772.1,383Zm-1.59-8.33a7.19,7.19,0,0,0,5.76-2.35q2-2.34,2-7.09c0-3.26-.66-5.61-2-7a7.06,7.06,0,0,0-5.47-2.14,8.75,8.75,0,0,0-2.76.39,13.9,13.9,0,0,0-2.13.86v16.18a8.71,8.71,0,0,0,2.06.86A9.09,9.09,0,0,0,770.51,374.7Z"/><path class="cls-1" d="M829,365.39a20.47,20.47,0,0,1-1.24,7.34,15.21,15.21,0,0,1-3.55,5.55,16.08,16.08,0,0,1-5.54,3.51,20,20,0,0,1-7.24,1.24,20.94,20.94,0,0,1-7.26-1.2,14.94,14.94,0,0,1-9.13-9,20.71,20.71,0,0,1-1.24-7.41,19.83,19.83,0,0,1,1.27-7.26,15.22,15.22,0,0,1,9.17-9.06,20.07,20.07,0,0,1,7.19-1.24,19.84,19.84,0,0,1,7.17,1.24,15.65,15.65,0,0,1,5.54,3.55,15.93,15.93,0,0,1,3.59,5.54A19.8,19.8,0,0,1,829,365.39Zm-17.57-9.3a5.89,5.89,0,0,0-5,2.42c-1.2,1.6-1.8,3.9-1.8,6.88s.59,5.41,1.76,7a6.54,6.54,0,0,0,10.13,0q1.75-2.4,1.75-7a11.39,11.39,0,0,0-1.79-6.85A5.87,5.87,0,0,0,811.43,356.09Z"/><path class="cls-1" d="M869,365.39a20.69,20.69,0,0,1-1.24,7.34,15.34,15.34,0,0,1-3.55,5.55,16,16,0,0,1-5.55,3.51,20,20,0,0,1-7.23,1.24,21,21,0,0,1-7.27-1.2,15.63,15.63,0,0,1-5.58-3.48A15.34,15.34,0,0,1,835,372.8a20.94,20.94,0,0,1-1.23-7.41,19.83,19.83,0,0,1,1.27-7.26,15.68,15.68,0,0,1,3.58-5.55,16,16,0,0,1,5.58-3.51,20.08,20.08,0,0,1,7.2-1.24,19.75,19.75,0,0,1,7.16,1.24,15.69,15.69,0,0,1,5.55,3.55,15.91,15.91,0,0,1,3.58,5.54A19.6,19.6,0,0,1,869,365.39Zm-17.57-9.3a5.9,5.9,0,0,0-5,2.42c-1.19,1.6-1.79,3.9-1.79,6.88s.59,5.41,1.76,7a6.53,6.53,0,0,0,10.12,0q1.75-2.4,1.76-7a11.46,11.46,0,0,0-1.79-6.85A5.88,5.88,0,0,0,851.39,356.09Z"/><path class="cls-1" d="M881.42,382.48a7.58,7.58,0,0,1-4.44-1c-.9-.67-1.34-2-1.34-3.89V337.15a16.41,16.41,0,0,1,2-.41,17.21,17.21,0,0,1,2.79-.21,7.5,7.5,0,0,1,4.41,1q1.38,1,1.38,3.93v40.44a17.19,17.19,0,0,1-2,.38A21.07,21.07,0,0,1,881.42,382.48Z"/><path class="cls-2" d="M762,238.61l-24.65-7.73a1.7,1.7,0,0,0-1.77.47L718,250.26a1.73,1.73,0,0,1-2.91-1.69l7.73-24.65a1.74,1.74,0,0,0-.47-1.78l-18.91-17.59a1.73,1.73,0,0,1,1.69-2.91l24.65,7.73a1.72,1.72,0,0,0,1.77-.47L749.13,190a1.73,1.73,0,0,1,2.91,1.69l-7.73,24.65a1.72,1.72,0,0,0,.47,1.77l18.91,17.6A1.73,1.73,0,0,1,762,238.61Z"/><path class="cls-2" d="M875.44,226.48,865.22,238A1,1,0,0,0,865,239L871,253.2a1,1,0,0,1-1.63,1.16l-11.47-10.22a1,1,0,0,0-1.08-.18l-14.17,5.94a1,1,0,0,1-1.16-1.63L851.7,236.8a1,1,0,0,0,.18-1.08l-5.94-14.17a1,1,0,0,1,1.62-1.16L859,230.61a1,1,0,0,0,1.08.18l14.17-5.94A1,1,0,0,1,875.44,226.48Z"/><path class="cls-2" d="M807.82,204.53l-10.47-3.93a.75.75,0,0,0-.78.16l-8.06,7.75a.74.74,0,0,1-1.21-.8l3.93-10.47a.73.73,0,0,0-.17-.77l-7.75-8.06a.75.75,0,0,1,.8-1.22l10.47,3.93a.75.75,0,0,0,.78-.16l8.06-7.75a.74.74,0,0,1,1.21.8l-3.93,10.47a.75.75,0,0,0,.16.77l7.76,8.06A.75.75,0,0,1,807.82,204.53Z"/><path class="cls-3" d="M321.24,125.75c-40.76-8.08-79.5-.67-111.43,17.38a2.53,2.53,0,0,0,2.1,4.58A160.19,160.19,0,0,1,419.26,254.38a3.92,3.92,0,0,1-3.8,5h-3.65c-30.95,0-30.95,13-61.89,13s-30.95-13-61.9-13-30.95,13-61.9,13-31-13-61.9-13c-12.11,0-20.61,4.21-28.07,8.41a15.1,15.1,0,0,0-7.73,13.15v1.65A160,160,0,0,0,368.54,421.09c-.21.18-.41.38-.63.56,57.7-33,92.89-100.91,76.77-175A158,158,0,0,0,321.24,125.75Z"/><path class="cls-1" d="M191.81,306.93a27.26,27.26,0,0,1,6.51.72,14,14,0,0,1,5,2.24,10.27,10.27,0,0,1,3.2,3.86,12.46,12.46,0,0,1,1.14,5.51v15.57a4.18,4.18,0,0,1-.93,2.85,8.55,8.55,0,0,1-2.24,1.83,17.11,17.11,0,0,1-5.24,2,32.42,32.42,0,0,1-7,.69q-7.09,0-11.3-2.73t-4.2-8.29c0-3.17.94-5.59,2.82-7.24s4.78-2.69,8.68-3.1l9.16-1v-.76a3.47,3.47,0,0,0-1.79-3.24,10.45,10.45,0,0,0-5.17-1,21.06,21.06,0,0,0-5.13.62,30.29,30.29,0,0,0-4.51,1.45,4.38,4.38,0,0,1-1.41-1.69,5.27,5.27,0,0,1-.59-2.45,4.48,4.48,0,0,1,3.17-4.34,22.93,22.93,0,0,1,4.65-1.14A37.21,37.21,0,0,1,191.81,306.93Zm.42,27.48a14.41,14.41,0,0,0,3-.31,6.76,6.76,0,0,0,2.23-.79V327l-5.65.49a8.5,8.5,0,0,0-3.54,1,2.59,2.59,0,0,0-1.35,2.38,3.16,3.16,0,0,0,1.24,2.62A6.73,6.73,0,0,0,192.23,334.41Z"/><path class="cls-1" d="M242.45,331.38a9.43,9.43,0,0,1-3.79,8q-3.79,2.85-11.16,2.86a30.35,30.35,0,0,1-5.27-.42,15.13,15.13,0,0,1-4.1-1.24,7.46,7.46,0,0,1-2.69-2.06,4.6,4.6,0,0,1-1-2.9,5,5,0,0,1,.62-2.58,5.44,5.44,0,0,1,1.58-1.75,27.06,27.06,0,0,0,4.55,2.06,17.76,17.76,0,0,0,5.92.9q4.89,0,4.89-2.76a2.05,2.05,0,0,0-.86-1.79,8.67,8.67,0,0,0-2.92-1.1l-2.76-.62q-5.66-1.17-8.41-3.62a8.69,8.69,0,0,1-2.75-6.85,9.06,9.06,0,0,1,4-7.75q4-2.87,10.64-2.86a26.92,26.92,0,0,1,4.69.38,14.63,14.63,0,0,1,3.79,1.13,7.27,7.27,0,0,1,2.51,1.9,4.06,4.06,0,0,1,.93,2.65,5.26,5.26,0,0,1-.55,2.45,5.18,5.18,0,0,1-1.45,1.75,10,10,0,0,0-1.61-.76q-1.08-.41-2.31-.75a22.41,22.41,0,0,0-2.62-.56,18.37,18.37,0,0,0-2.55-.2,8.8,8.8,0,0,0-3.75.65,2.1,2.1,0,0,0-1.35,2,1.76,1.76,0,0,0,.76,1.51,8.62,8.62,0,0,0,2.76,1l2.61.62c4.18.91,7.17,2.25,9,4A9,9,0,0,1,242.45,331.38Z"/><path class="cls-1" d="M260.36,332.93a5.89,5.89,0,0,0,3.44.86A12.26,12.26,0,0,0,268,333a6.36,6.36,0,0,1,1,1.58,5,5,0,0,1,.41,2.07,4.9,4.9,0,0,1-1.89,4q-1.9,1.55-6.58,1.55-5.79,0-9-2.66t-3.24-8.64V299.9c.51-.14,1.18-.29,2-.45a14.24,14.24,0,0,1,2.69-.24,7.06,7.06,0,0,1,4.37,1.07c.9.71,1.35,2,1.35,3.89v4.48h9.5a13.31,13.31,0,0,1,.69,1.75,7.29,7.29,0,0,1,.35,2.24,4.27,4.27,0,0,1-1,3.17,3.55,3.55,0,0,1-2.58,1h-7v13.36A3.14,3.14,0,0,0,260.36,332.93Z"/><path class="cls-1" d="M286.12,341a13.91,13.91,0,0,1-1.93.38,20.8,20.8,0,0,1-2.75.17,7.83,7.83,0,0,1-4.48-1c-.92-.67-1.38-2-1.38-3.89v-21a5.57,5.57,0,0,1,1-3.3,8.53,8.53,0,0,1,2.68-2.41,19.65,19.65,0,0,1,5.48-2.17,27.74,27.74,0,0,1,6.72-.79c4.77,0,7.16,1.6,7.16,4.82a6.26,6.26,0,0,1-.34,2.13,9.61,9.61,0,0,1-.76,1.66,18.42,18.42,0,0,0-3.86-.35,17,17,0,0,0-4,.48,14.66,14.66,0,0,0-3.52,1.31Z"/><path class="cls-1" d="M336,324.49a20.73,20.73,0,0,1-1.24,7.34,15.34,15.34,0,0,1-3.55,5.55,16,16,0,0,1-5.55,3.51,20.23,20.23,0,0,1-7.23,1.24,20.77,20.77,0,0,1-7.27-1.21,15,15,0,0,1-9.13-9,20.93,20.93,0,0,1-1.24-7.41,19.93,19.93,0,0,1,1.28-7.27,15.26,15.26,0,0,1,9.16-9.05,20.08,20.08,0,0,1,7.2-1.24,19.75,19.75,0,0,1,7.16,1.24,15.67,15.67,0,0,1,5.55,3.54,16,16,0,0,1,3.58,5.55A19.6,19.6,0,0,1,336,324.49Zm-17.57-9.3a5.9,5.9,0,0,0-5,2.42c-1.19,1.6-1.79,3.9-1.79,6.88s.58,5.41,1.76,7a6.55,6.55,0,0,0,10.12,0c1.17-1.61,1.76-3.92,1.76-7a11.44,11.44,0,0,0-1.79-6.85A5.88,5.88,0,0,0,318.43,315.19Z"/><path class="cls-1" d="M259.54,380.09a17.16,17.16,0,0,1-3.31-.31,16.25,16.25,0,0,1-2.75-.8v12.34a19,19,0,0,1-1.93.41,16.66,16.66,0,0,1-2.76.21,7.52,7.52,0,0,1-4.47-1q-1.38-1-1.38-3.93V352.88a5.14,5.14,0,0,1,.76-2.93,7.05,7.05,0,0,1,2.13-2,18.84,18.84,0,0,1,5.31-2.17,27.54,27.54,0,0,1,7.16-.87,25.74,25.74,0,0,1,7.34,1,15,15,0,0,1,5.75,3.14,14.37,14.37,0,0,1,3.76,5.44,20.9,20.9,0,0,1,1.34,7.85,21.39,21.39,0,0,1-1.28,7.68,15.31,15.31,0,0,1-3.55,5.58,14.69,14.69,0,0,1-5.37,3.38A19.44,19.44,0,0,1,259.54,380.09ZM258,371.75a7.21,7.21,0,0,0,5.75-2.34q2-2.34,2-7.1t-2-7a7.06,7.06,0,0,0-5.48-2.14,9,9,0,0,0-2.75.38,14.67,14.67,0,0,0-2.14.86v16.19a8.61,8.61,0,0,0,2.07.86A9,9,0,0,0,258,371.75Z"/><path class="cls-1" d="M316.44,362.45a20.51,20.51,0,0,1-1.24,7.34,15.2,15.2,0,0,1-3.54,5.54,15.91,15.91,0,0,1-5.55,3.52,20.23,20.23,0,0,1-7.23,1.24,21,21,0,0,1-7.27-1.21,15,15,0,0,1-9.13-9,20.71,20.71,0,0,1-1.24-7.41,19.93,19.93,0,0,1,1.28-7.27,15.41,15.41,0,0,1,3.58-5.54,15.6,15.6,0,0,1,5.58-3.51,20.08,20.08,0,0,1,7.2-1.25,19.82,19.82,0,0,1,7.16,1.25,15.67,15.67,0,0,1,5.55,3.54,16.19,16.19,0,0,1,3.58,5.55A19.6,19.6,0,0,1,316.44,362.45Zm-17.56-9.3a5.89,5.89,0,0,0-5,2.41c-1.2,1.61-1.79,3.91-1.79,6.89s.58,5.41,1.75,7a6.55,6.55,0,0,0,10.13,0q1.76-2.42,1.76-7a11.44,11.44,0,0,0-1.79-6.85A5.88,5.88,0,0,0,298.88,353.15Z"/><path class="cls-1" d="M356.4,362.45a20.73,20.73,0,0,1-1.24,7.34,15.22,15.22,0,0,1-3.55,5.54,16,16,0,0,1-5.54,3.52,20.29,20.29,0,0,1-7.24,1.24,21,21,0,0,1-7.27-1.21A15.23,15.23,0,0,1,326,375.4a15,15,0,0,1-3.55-5.54,20.71,20.71,0,0,1-1.24-7.41,19.92,19.92,0,0,1,1.27-7.27,15.26,15.26,0,0,1,9.16-9.05,20.08,20.08,0,0,1,7.2-1.25,19.84,19.84,0,0,1,7.17,1.25,15.72,15.72,0,0,1,5.54,3.54,16,16,0,0,1,3.58,5.55A19.6,19.6,0,0,1,356.4,362.45Zm-17.57-9.3a5.9,5.9,0,0,0-5,2.41Q332,358,332,362.45t1.76,7a6.54,6.54,0,0,0,10.12,0c1.18-1.61,1.76-3.93,1.76-7a11.44,11.44,0,0,0-1.79-6.85A5.87,5.87,0,0,0,338.83,353.15Z"/><path class="cls-1" d="M368.87,379.54a7.67,7.67,0,0,1-4.45-1c-.89-.67-1.34-2-1.34-3.9V334.21a16.07,16.07,0,0,1,2-.42,17.26,17.26,0,0,1,2.79-.2,7.42,7.42,0,0,1,4.41,1q1.38,1,1.38,3.93V379a15.3,15.3,0,0,1-2,.38A19.13,19.13,0,0,1,368.87,379.54Z"/><path class="cls-3" d="M249.44,235.66l-24.65-7.72a1.7,1.7,0,0,0-1.77.47l-17.6,18.9a1.73,1.73,0,0,1-2.91-1.69L210.24,221a1.71,1.71,0,0,0-.47-1.78l-18.91-17.6a1.72,1.72,0,0,1,1.69-2.9l24.65,7.72A1.72,1.72,0,0,0,219,206L236.57,187a1.73,1.73,0,0,1,2.91,1.69l-7.73,24.65a1.76,1.76,0,0,0,.47,1.78l18.91,17.6A1.72,1.72,0,0,1,249.44,235.66Z"/><path class="cls-3" d="M362.89,223.54,352.66,235a1,1,0,0,0-.18,1.08l5.94,14.17a1,1,0,0,1-1.63,1.16l-11.46-10.23a1,1,0,0,0-1.08-.18L330.08,247a1,1,0,0,1-1.16-1.62l10.22-11.47a1,1,0,0,0,.18-1.08l-5.94-14.17a1,1,0,0,1,1.63-1.16l11.47,10.22a1,1,0,0,0,1.08.18l14.17-5.94A1,1,0,0,1,362.89,223.54Z"/><path class="cls-3" d="M295.26,201.58l-10.47-3.92a.73.73,0,0,0-.78.16L276,205.57a.75.75,0,0,1-1.22-.8l3.93-10.47a.75.75,0,0,0-.16-.78l-7.75-8.06a.74.74,0,0,1,.79-1.21L282,188.18a.77.77,0,0,0,.78-.16l8.06-7.76a.74.74,0,0,1,1.21.8l-3.92,10.47a.75.75,0,0,0,.16.78l7.75,8.06A.74.74,0,0,1,295.26,201.58Z"/><path class="cls-3" d="M321.27,637.56c-40.75-8.09-79.5-.68-111.43,17.37a2.53,2.53,0,0,0,2.1,4.59A160.16,160.16,0,0,1,419.29,766.18a3.92,3.92,0,0,1-3.8,5h-3.65c-30.94,0-30.94,13-61.89,13s-30.95-13-61.9-13-30.94,13-61.89,13-30.95-13-61.91-13c-12.11,0-20.6,4.21-28.06,8.42a15.12,15.12,0,0,0-7.74,13.14v1.65A160,160,0,0,0,368.58,932.89c-.22.18-.42.38-.64.56,57.7-33,92.9-100.91,76.77-175A158,158,0,0,0,321.27,637.56Z"/><path class="cls-1" d="M191.85,818.73a27.26,27.26,0,0,1,6.51.72,14,14,0,0,1,5,2.24,10.3,10.3,0,0,1,3.21,3.86,12.6,12.6,0,0,1,1.13,5.51v15.57a4.21,4.21,0,0,1-.93,2.86,8.72,8.72,0,0,1-2.24,1.82,16.89,16.89,0,0,1-5.23,2,32.52,32.52,0,0,1-7,.69q-7.09,0-11.3-2.72t-4.2-8.3q0-4.76,2.82-7.23c1.89-1.66,4.78-2.69,8.69-3.1l9.16-1v-.76a3.48,3.48,0,0,0-1.79-3.24,10.5,10.5,0,0,0-5.17-1,21.44,21.44,0,0,0-5.13.62,31.1,31.1,0,0,0-4.51,1.45,4.32,4.32,0,0,1-1.42-1.69,5.27,5.27,0,0,1-.58-2.45c0-2,1-3.46,3.17-4.34a22,22,0,0,1,4.65-1.13A37,37,0,0,1,191.85,818.73Zm.41,27.49a15.12,15.12,0,0,0,3-.31,6.81,6.81,0,0,0,2.24-.8v-6.33l-5.65.48a8.59,8.59,0,0,0-3.55,1,2.57,2.57,0,0,0-1.34,2.37,3.15,3.15,0,0,0,1.23,2.62A6.67,6.67,0,0,0,192.26,846.22Z"/><path class="cls-1" d="M242.48,843.18a9.39,9.39,0,0,1-3.79,8Q234.9,854,227.53,854a31.42,31.42,0,0,1-5.27-.41,16,16,0,0,1-4.1-1.24,7.37,7.37,0,0,1-2.69-2.07,4.59,4.59,0,0,1-1-2.89,5.14,5.14,0,0,1,.62-2.59,5.45,5.45,0,0,1,1.59-1.75,25.44,25.44,0,0,0,4.54,2.06,17.78,17.78,0,0,0,5.93.9q4.89,0,4.89-2.76a2.09,2.09,0,0,0-.86-1.79,8.74,8.74,0,0,0-2.93-1.1l-2.76-.62c-3.76-.78-6.57-2-8.4-3.62a8.67,8.67,0,0,1-2.76-6.85,9.07,9.07,0,0,1,4-7.75q4-2.87,10.65-2.86a27.9,27.9,0,0,1,4.68.38,14.63,14.63,0,0,1,3.79,1.13,7.22,7.22,0,0,1,2.52,1.9,4.12,4.12,0,0,1,.93,2.65,5.24,5.24,0,0,1-2,4.21,9.7,9.7,0,0,0-1.62-.76,23.19,23.19,0,0,0-2.31-.76,20.19,20.19,0,0,0-2.62-.55,16.83,16.83,0,0,0-2.55-.21,8.66,8.66,0,0,0-3.75.66,2.08,2.08,0,0,0-1.34,2,1.76,1.76,0,0,0,.75,1.51,8.39,8.39,0,0,0,2.76,1l2.62.62q6.27,1.38,8.95,4A9,9,0,0,1,242.48,843.18Z"/><path class="cls-1" d="M260.39,844.74a6,6,0,0,0,3.45.86,10.38,10.38,0,0,0,2.2-.25,11,11,0,0,0,2-.58,6.62,6.62,0,0,1,1,1.58,5.19,5.19,0,0,1-1.48,6c-1.26,1-3.46,1.55-6.58,1.55q-5.79,0-9-2.65t-3.23-8.65V811.7c.5-.14,1.17-.29,2-.44a14,14,0,0,1,2.68-.25,7.11,7.11,0,0,1,4.38,1.07c.89.71,1.34,2,1.34,3.89v4.48h9.51a14.43,14.43,0,0,1,.69,1.76,7.55,7.55,0,0,1,.34,2.24,4.26,4.26,0,0,1-1,3.17,3.58,3.58,0,0,1-2.58,1h-7v13.36A3.17,3.17,0,0,0,260.39,844.74Z"/><path class="cls-1" d="M286.15,852.83a14,14,0,0,1-1.92.38,21.07,21.07,0,0,1-2.76.17,7.75,7.75,0,0,1-4.48-1c-.92-.67-1.38-2-1.38-3.89v-21a5.65,5.65,0,0,1,1-3.31,8.58,8.58,0,0,1,2.69-2.41,19.58,19.58,0,0,1,5.47-2.17,27.86,27.86,0,0,1,6.72-.79q7.17,0,7.17,4.82a6.36,6.36,0,0,1-.35,2.14,9.1,9.1,0,0,1-.76,1.65,18.42,18.42,0,0,0-3.86-.35,17,17,0,0,0-4,.49,14.16,14.16,0,0,0-3.52,1.31Z"/><path class="cls-1" d="M336,836.29a20.69,20.69,0,0,1-1.24,7.34,15.34,15.34,0,0,1-3.55,5.55,16.08,16.08,0,0,1-5.54,3.51,20,20,0,0,1-7.24,1.24,21,21,0,0,1-7.27-1.2,15.5,15.5,0,0,1-5.57-3.48,15.08,15.08,0,0,1-3.55-5.55,20.71,20.71,0,0,1-1.24-7.41A19.83,19.83,0,0,1,302.1,829a15.68,15.68,0,0,1,3.58-5.55,16,16,0,0,1,5.58-3.51,20.12,20.12,0,0,1,7.2-1.24,19.84,19.84,0,0,1,7.17,1.24,15.65,15.65,0,0,1,5.54,3.55,15.91,15.91,0,0,1,3.58,5.54A19.6,19.6,0,0,1,336,836.29ZM318.46,827a5.91,5.91,0,0,0-5,2.42c-1.19,1.6-1.79,3.9-1.79,6.88s.59,5.41,1.76,7a5.92,5.92,0,0,0,5.06,2.38,5.86,5.86,0,0,0,5.06-2.42c1.18-1.6,1.76-3.92,1.76-7a11.39,11.39,0,0,0-1.79-6.85A5.87,5.87,0,0,0,318.46,827Z"/><path class="cls-1" d="M259.57,891.89a16.23,16.23,0,0,1-3.3-.31,17.7,17.7,0,0,1-2.76-.79v12.33a17.79,17.79,0,0,1-4.68.62,7.56,7.56,0,0,1-4.48-1c-.92-.69-1.38-2-1.38-3.92v-34.1a5.14,5.14,0,0,1,.76-2.93,7.42,7.42,0,0,1,2.13-2,19.14,19.14,0,0,1,5.31-2.17,27.64,27.64,0,0,1,7.17-.86,25.37,25.37,0,0,1,7.33,1,15,15,0,0,1,5.75,3.13,14.37,14.37,0,0,1,3.76,5.44,21,21,0,0,1,1.34,7.86,21.47,21.47,0,0,1-1.27,7.68,15.53,15.53,0,0,1-3.55,5.58,14.83,14.83,0,0,1-5.37,3.37A19.46,19.46,0,0,1,259.57,891.89ZM258,883.55a7.2,7.2,0,0,0,5.75-2.34q2-2.34,2-7.09c0-3.26-.66-5.61-2-7a7.07,7.07,0,0,0-5.47-2.14,9.07,9.07,0,0,0-2.76.38,17,17,0,0,0-2.14.86v16.19a8.83,8.83,0,0,0,4.55,1.17Z"/><path class="cls-1" d="M316.48,874.25a20.73,20.73,0,0,1-1.24,7.34,15.34,15.34,0,0,1-3.55,5.55,16.08,16.08,0,0,1-5.54,3.51,20.11,20.11,0,0,1-7.24,1.24,20.77,20.77,0,0,1-7.27-1.21,15.35,15.35,0,0,1-5.58-3.48,15.07,15.07,0,0,1-3.54-5.54,20.71,20.71,0,0,1-1.24-7.41,19.92,19.92,0,0,1,1.27-7.27,15.26,15.26,0,0,1,9.16-9.05,20.08,20.08,0,0,1,7.2-1.24,19.84,19.84,0,0,1,7.17,1.24,15.72,15.72,0,0,1,5.54,3.54A16,16,0,0,1,315.2,867,19.6,19.6,0,0,1,316.48,874.25ZM298.91,865a5.91,5.91,0,0,0-5,2.42c-1.19,1.6-1.79,3.9-1.79,6.88s.59,5.41,1.76,7a6.55,6.55,0,0,0,10.12,0c1.17-1.61,1.76-3.92,1.76-7a11.46,11.46,0,0,0-1.79-6.85A5.88,5.88,0,0,0,298.91,865Z"/><path class="cls-1" d="M356.43,874.25a20.51,20.51,0,0,1-1.24,7.34,15.21,15.21,0,0,1-3.55,5.55,15.89,15.89,0,0,1-5.54,3.51,20,20,0,0,1-7.23,1.24,20.73,20.73,0,0,1-7.27-1.21,15,15,0,0,1-9.13-9,20.71,20.71,0,0,1-1.24-7.41A19.92,19.92,0,0,1,322.5,867a15.31,15.31,0,0,1,9.17-9.05,20.08,20.08,0,0,1,7.2-1.24,19.82,19.82,0,0,1,7.16,1.24,15.54,15.54,0,0,1,5.54,3.54,16.06,16.06,0,0,1,3.59,5.55A19.6,19.6,0,0,1,356.43,874.25ZM338.87,865a5.9,5.9,0,0,0-5,2.42c-1.2,1.6-1.79,3.9-1.79,6.88s.58,5.41,1.75,7a6.56,6.56,0,0,0,10.13,0c1.17-1.61,1.76-3.92,1.76-7a11.39,11.39,0,0,0-1.8-6.85A5.87,5.87,0,0,0,338.87,865Z"/><path class="cls-1" d="M368.9,891.34a7.61,7.61,0,0,1-4.44-1c-.9-.67-1.35-2-1.35-3.89V846a14.84,14.84,0,0,1,2-.41,17.21,17.21,0,0,1,2.79-.21,7.42,7.42,0,0,1,4.41,1c.91.69,1.37,2,1.37,3.93v40.44a17,17,0,0,1-2,.38A21.07,21.07,0,0,1,368.9,891.34Z"/><path class="cls-3" d="M249.48,747.46l-24.65-7.72a1.72,1.72,0,0,0-1.78.47l-17.6,18.91a1.72,1.72,0,0,1-2.9-1.69l7.72-24.65a1.72,1.72,0,0,0-.47-1.78l-18.9-17.6a1.72,1.72,0,0,1,1.69-2.9l24.64,7.72a1.71,1.71,0,0,0,1.78-.47l17.6-18.9a1.72,1.72,0,0,1,2.9,1.69l-7.72,24.64a1.71,1.71,0,0,0,.47,1.78l18.91,17.6A1.72,1.72,0,0,1,249.48,747.46Z"/><path class="cls-3" d="M362.92,735.34,352.7,746.81a1,1,0,0,0-.18,1.08l5.94,14.17a1,1,0,0,1-1.63,1.16L345.36,753a1,1,0,0,0-1.08-.19l-14.17,6a1,1,0,0,1-1.16-1.63l10.22-11.47a1,1,0,0,0,.18-1.08l-5.94-14.17a1,1,0,0,1,1.63-1.16l11.47,10.22a1,1,0,0,0,1.08.18l14.17-5.94A1,1,0,0,1,362.92,735.34Z"/><path class="cls-3" d="M295.29,713.39l-10.46-3.93a.74.74,0,0,0-.78.16L276,717.37a.75.75,0,0,1-1.22-.8l3.93-10.47a.75.75,0,0,0-.16-.78l-7.75-8.05a.75.75,0,0,1,.8-1.22L282.06,700a.75.75,0,0,0,.78-.16l8.05-7.75a.75.75,0,0,1,1.22.8l-3.93,10.46a.74.74,0,0,0,.16.78l7.75,8.06A.75.75,0,0,1,295.29,713.39Z"/></g></g></svg>