<svg xmlns="http://www.w3.org/2000/svg" viewBox="0 0 400 400"><defs><style>.cls-1{fill:#fff;}.cls-2{fill:#071434;}.cls-3{fill:#fcfcfc;}.cls-4{fill:#ec4156;}</style></defs><title>beeek_1</title><g id="Calque_2" data-name="Calque 2"><g id="Calque_2-2" data-name="Calque 2"><rect class="cls-1" width="400" height="400"/></g><g id="Calque_1-2" data-name="Calque 1"><path class="cls-2" d="M32.45,254.57A37.14,37.14,0,0,1,0,217.77V204.43A37.16,37.16,0,0,1,30.3,168a25.46,25.46,0,0,1,22.79-21.14,25.33,25.33,0,0,1,29.29-.29A25.37,25.37,0,0,1,120,156.93H381.48a18.49,18.49,0,0,1,14.44,30l-16.78,21,16.78,21A18.5,18.5,0,0,1,381.48,259h-349Z"/><path class="cls-3" d="M104.9,193.43V172.66a9.68,9.68,0,1,0-15.78-11.21c-.24,0-.47-.07-.71-.07A7.29,7.29,0,0,0,82.1,165a7.3,7.3,0,0,0-5.37-2.48c-1.61-3.11-15.76-3-17.32.27a9.68,9.68,0,0,0-11,15.35v5.72a21,21,0,0,0-7.13-1.25H37.31A21.41,21.41,0,0,0,15.92,204v13.33a21.42,21.42,0,0,0,21.39,21.4h3.93a21.28,21.28,0,0,0,7.13-1.25v5.37H83.7a21.2,21.2,0,0,0,21.2-21.19,14.13,14.13,0,0,0-14.13-14.13A14.14,14.14,0,0,0,104.9,193.43ZM41.24,224.64H37.31a7.27,7.27,0,0,1-7.26-7.27V204a7.27,7.27,0,0,1,7.26-7.26h3.93a7.26,7.26,0,0,1,7.13,6v15.92A7.27,7.27,0,0,1,41.24,224.64Zm42.46,4.12H62.5v-9.07a19.68,19.68,0,0,0,.13-2.32v-2.74H83.7a7.07,7.07,0,1,1,0,14.13ZM76.63,200.5H62.5V186.37H90.77A14.14,14.14,0,0,1,76.63,200.5Z"/><path class="cls-3" d="M359.26,206.91l24.62-30.78a2.8,2.8,0,0,0-2.18-4.55H331v70.66H381.7a2.79,2.79,0,0,0,2.18-4.54Z"/><polygon class="cls-3" points="175.55 186.37 175.55 172.24 119.03 172.24 119.03 242.89 175.55 242.89 175.55 228.76 133.16 228.76 133.16 214.63 161.42 214.63 161.42 200.5 133.16 200.5 133.16 186.37 175.55 186.37"/><polygon class="cls-3" points="316.86 185.72 316.86 171.58 274.47 171.58 260.34 171.58 260.34 242.24 274.47 242.24 316.86 242.24 316.86 228.11 274.47 228.11 274.47 213.98 302.73 213.98 302.73 199.85 274.47 199.85 274.47 185.72 316.86 185.72"/><polygon class="cls-3" points="189.68 172.24 189.68 242.89 189.68 242.9 246.21 242.9 246.21 228.76 246.21 228.76 203.81 228.76 203.81 214.63 232.08 214.63 232.08 214.63 232.08 200.5 232.08 200.5 203.81 200.5 203.81 186.37 246.21 186.37 246.21 186.37 246.21 172.24 246.21 172.24 189.68 172.24"/><path class="cls-4" d="M107.59,190.75V170a9.67,9.67,0,1,0-15.77-11.2,5.71,5.71,0,0,0-.71-.08,7.28,7.28,0,0,0-6.31,3.67,7.31,7.31,0,0,0-5.37-2.48,9.68,9.68,0,0,0-17.33.26,9.58,9.58,0,0,0-3.83-.79,9.66,9.66,0,0,0-7.2,16.14v5.72A21.32,21.32,0,0,0,43.94,180H40a21.41,21.41,0,0,0-21.39,21.39v13.33A21.41,21.41,0,0,0,40,236.08h3.93a21.32,21.32,0,0,0,7.13-1.24v5.37H86.4A21.2,21.2,0,0,0,107.59,219a14.13,14.13,0,0,0-14.13-14.13A14.12,14.12,0,0,0,107.59,190.75ZM43.94,222H40a7.27,7.27,0,0,1-7.26-7.26V201.36A7.27,7.27,0,0,1,40,194.1h3.93a7.26,7.26,0,0,1,7.13,6V216A7.26,7.26,0,0,1,43.94,222Zm42.46,4.13H65.2V217a22.24,22.24,0,0,0,.13-2.32V212H86.4a7.07,7.07,0,0,1,0,14.13Zm-7.07-28.26H65.2V183.69H93.46A14.13,14.13,0,0,1,79.33,197.82Z"/><path class="cls-4" d="M362,204.23l24.63-30.79a2.79,2.79,0,0,0-2.18-4.54H333.69v70.66H384.4a2.8,2.8,0,0,0,2.18-4.55ZM349.26,225h-4.57v-4.56h4.57Zm6.35,6.35H351v-4.56h4.57Zm0-12.69H351v-4.57h4.57Zm.86-24.51h-5.13V189h-5.13V183.9h5.13v-5.13h5.13v5.13h5.12V189h-5.12ZM362,225h-4.56v-4.56H362Z"/><polygon class="cls-4" points="178.25 183.69 178.25 169.56 121.72 169.56 121.72 240.21 178.25 240.21 178.25 226.08 135.86 226.08 135.86 211.95 164.12 211.95 164.12 197.82 135.86 197.82 135.86 183.69 178.25 183.69"/><polygon class="cls-4" points="319.56 183.03 319.56 168.9 277.17 168.9 263.04 168.9 263.04 239.56 277.17 239.56 319.56 239.56 319.56 225.43 277.17 225.43 277.17 211.29 305.43 211.29 305.43 197.16 277.17 197.16 277.17 183.03 319.56 183.03"/><polygon class="cls-4" points="192.38 169.56 192.38 240.21 192.38 240.21 248.91 240.21 248.91 226.08 248.91 226.08 206.51 226.08 206.51 211.95 234.77 211.95 234.77 211.95 234.77 197.82 234.77 197.82 206.51 197.82 206.51 183.69 248.91 183.69 248.91 183.69 248.91 169.56 248.91 169.55 192.38 169.56"/></g></g></svg>