<svg xmlns="http://www.w3.org/2000/svg" xmlns:xlink="http://www.w3.org/1999/xlink" viewBox="0 0 400.02 400.02"><defs><style>.cls-1{fill:#13111c;}.cls-2{fill:#bcbcbc;}.cls-3{opacity:0.15;}.cls-4{fill:url(#Dégradé_sans_nom_8);}.cls-5{fill:url(#Dégradé_sans_nom_8-2);}.cls-6{fill:url(#Dégradé_sans_nom_8-3);}.cls-7{fill:none;stroke:#bcbcbc;stroke-miterlimit:10;stroke-width:9px;}.cls-8{fill:url(#Dégradé_sans_nom_8-4);}</style><linearGradient id="Dégradé_sans_nom_8" x1="240.41" y1="241.26" x2="139.27" y2="66.09" gradientUnits="userSpaceOnUse"><stop offset="0" stop-color="#c2000b"/><stop offset="0.23" stop-color="#ce1909"/><stop offset="0.71" stop-color="#ec5803"/><stop offset="1" stop-color="#ff8000"/></linearGradient><linearGradient id="Dégradé_sans_nom_8-2" x1="231.39" y1="225.26" x2="151.56" y2="86.99" xlink:href="#Dégradé_sans_nom_8"/><linearGradient id="Dégradé_sans_nom_8-3" x1="224.81" y1="213.85" x2="167.28" y2="114.21" xlink:href="#Dégradé_sans_nom_8"/><linearGradient id="Dégradé_sans_nom_8-4" x1="99.56" y1="286.06" x2="89.48" y2="268.6" xlink:href="#Dégradé_sans_nom_8"/></defs><title>coffe</title><g id="Calque_2" data-name="Calque 2"><g id="Calque_1-2" data-name="Calque 1"><rect class="cls-1" width="400.02" height="400.02"/><path class="cls-2" d="M76.61,316,61.32,295.49V316H53.39V282.72h7.46l15.33,20.51V282.72h7.88V316Z"/><path class="cls-2" d="M99.11,283a4.32,4.32,0,1,1-4.32-4.32A4.17,4.17,0,0,1,99.11,283ZM90.66,316V290.36h8.17V316Z"/><path class="cls-2" d="M129.87,313.62c0,7.26-5.6,11.87-13.86,11.87a20.76,20.76,0,0,1-11.39-3.37l2.85-5.56a14.12,14.12,0,0,0,7.92,2.57c3.94,0,6.32-2.09,6.32-5.27v-2.71a8.84,8.84,0,0,1-7.36,3.42c-6.46,0-11-4.94-11-12.39,0-7.26,4.41-12.1,10.82-12.1a8.89,8.89,0,0,1,7.55,3.41v-3.13h8.16Zm-8.16-11.2c0-3.75-2.14-6.27-5.32-6.27s-5.41,2.57-5.41,6.27,2.18,6.22,5.41,6.22S121.71,306.07,121.71,302.42Z"/><path class="cls-2" d="M162.53,299.81V316h-8.21V302.09c0-3-1.71-4.85-4.51-4.85-3.23,0-5.22,2.57-5.22,6.08V316h-8.21V280.72h8.21v13.87c1.81-3,4.8-4.56,8.59-4.61C158.83,290,162.53,293.83,162.53,299.81Z"/><path class="cls-2" d="M184.85,314.57a14,14,0,0,1-6.84,1.76c-4.93,0-8.49-2.8-8.49-8.12v-11.3H166v-5.36h3.56v-7.12h8.16v7.07h6.69v5.41h-6.69v10c0,2,.86,2.85,2.37,2.8a8.68,8.68,0,0,0,3.18-.86Z"/><path class="cls-2" d="M229,288l-4.89,5.79a11.35,11.35,0,0,0-8.35-4.32,9.27,9.27,0,0,0-9.26,9.63c0,5.56,4,9.78,9.26,9.78a12.47,12.47,0,0,0,8.35-3.89l4.94,5.22a20,20,0,0,1-13.72,6.08c-10,0-17.47-7.36-17.47-17.09s7.64-16.81,17.75-16.81A19.29,19.29,0,0,1,229,288Z"/><path class="cls-2" d="M258.1,303.13c0,7.88-5.6,13.1-14,13.1s-14-5.22-14-13.1,5.6-13.05,14-13.05S258.1,295.25,258.1,303.13Zm-19.7.1c0,4,2.33,6.64,5.75,6.64s5.69-2.66,5.69-6.64-2.32-6.65-5.69-6.65S238.4,299.28,238.4,303.23Z"/><path class="cls-2" d="M271.82,289.65v1.85h5.8v5.41h-5.8v19h-8.11v-19h-3.47V291.5h3.47v-2.37c0-5.65,4.27-8.79,9.78-8.79a14.83,14.83,0,0,1,7.16,1.81l-2.89,5.74a5.33,5.33,0,0,0-3-1A2.63,2.63,0,0,0,271.82,289.65Z"/><path class="cls-2" d="M290.29,289.65v1.85h5.79v5.41h-5.79v19h-8.12v-19h-3.46V291.5h3.46v-2.37c0-5.65,4.28-8.79,9.78-8.79a14.87,14.87,0,0,1,7.17,1.81l-2.9,5.74a5.33,5.33,0,0,0-3-1A2.63,2.63,0,0,0,290.29,289.65Z"/><path class="cls-2" d="M322.62,305.36h-18a5.92,5.92,0,0,0,6,4.75,8.63,8.63,0,0,0,6.12-2.61l4.32,4.22a14.7,14.7,0,0,1-11.16,4.51c-8.35,0-13.57-5.22-13.57-13,0-7.93,5.41-13.15,13.34-13.15C318.73,290.08,323.19,296,322.62,305.36ZM314.74,301c0-3.14-2-5.18-4.94-5.18s-4.79,2.09-5.31,5.18Z"/><path class="cls-2" d="M351.2,305.36h-18a5.92,5.92,0,0,0,6,4.75,8.63,8.63,0,0,0,6.12-2.61l4.32,4.22a14.7,14.7,0,0,1-11.16,4.51c-8.35,0-13.57-5.22-13.57-13,0-7.93,5.41-13.15,13.34-13.15C347.31,290.08,351.77,296,351.2,305.36ZM343.32,301c0-3.14-2-5.18-4.94-5.18s-4.79,2.09-5.31,5.18Z"/><g class="cls-3"><path class="cls-4" d="M200.26,254.72a65.44,65.44,0,0,1-55.76-32.08l-5.73-12.59a70.53,70.53,0,0,1-2-7.73l-.19-.45-.45-3.48a70.79,70.79,0,0,1,29.06-66.47l2.14-1.54c-.57-7.21-22.55-36.83-50.36-51.44,0,0,29.19-7.28,53.05-6.42a107.22,107.22,0,0,1,21,3.34c30.55,6.34,56.09,23.88,68.46,52a94.75,94.75,0,0,1,7.59,29.26c.95,10.21-.49,20.56-1.54,28.12-.2,1.45-.37,2.7-.51,3.82-4.39,36.22-26,61.17-56.43,65.12l-2.13.23C204.35,254.62,202.31,254.72,200.26,254.72Z"/></g><g class="cls-3"><path class="cls-5" d="M200.06,236.18a48.12,48.12,0,0,1-45.44-32.94l0,0a51.21,51.21,0,0,1-1.69-7l0-.12-.22-1.64a53.65,53.65,0,0,1,22.09-50.36l7.93-5.74c2.58-18.88-6.65-32.89-31.6-51.08a158.56,158.56,0,0,1,37.6,3.23c24.61,5.36,45.33,21.71,55.29,44.37A76.24,76.24,0,0,1,250,158.44c.76,8.13-.48,17-1.38,23.52-.2,1.39-.38,2.67-.51,3.83-3.44,28.35-19.1,47-41.89,50l-1.57.16c-1.62.16-3.14.23-4.63.23Z"/></g><path class="cls-6" d="M204.56,222.71c19-2.46,28.19-19.49,30.49-38.51.76-6.28,2.62-16.33,1.85-24.53a62.61,62.61,0,0,0-5.05-19.47A63.91,63.91,0,0,0,186,103.43a2.4,2.4,0,0,0-.11.23,64.67,64.67,0,0,1,4.66,8.71,62.84,62.84,0,0,1,4.38,36.24,65,65,0,0,1-6.28,18.71A64.79,64.79,0,0,1,184,158.6c-.55-1.26-1.07-2.53-1.52-3.8a40.62,40.62,0,0,0-16.73,38h0a38.84,38.84,0,0,0,1.46,6.55c-.1-.35-.18-.7-.28-1.06a34.69,34.69,0,0,0,36.45,24.58Z"/><path d="M242.76,22.61c-.13.11-.25.2-.37.32q-.06-.32-.12-.66Z"/><path class="cls-7" d="M241.7,243.18s36.81.46,48.27-.08c12.89-.61,21.75-13.51,20-26.3a23.41,23.41,0,0,0-26.3-20c-11.82,1.71-18.18,12.61-18.18,12.61"/><path class="cls-7" d="M268.65,188.85a68.23,68.23,0,0,1-136.46,0"/><path class="cls-8" d="M96,287.61c3.33-.43,4.94-3.42,5.34-6.75a21,21,0,0,0,.33-4.3,11,11,0,0,0-.89-3.41,11.2,11.2,0,0,0-8-6.44l0,0a11.67,11.67,0,0,1,.82,1.52,11,11,0,0,1,.77,6.35,11.53,11.53,0,0,1-1.1,3.28,10.18,10.18,0,0,1-.82-1.53q-.15-.33-.27-.66a7.13,7.13,0,0,0-2.93,6.65h0a6.59,6.59,0,0,0,.26,1.15,1.21,1.21,0,0,1,0-.18,6.06,6.06,0,0,0,6.38,4.3Z"/></g></g></svg>