<svg xmlns="http://www.w3.org/2000/svg" viewBox="0 0 399.33 329.53"><defs><style>.cls-1{fill:#db2828;}.cls-2{fill:#1e1e1e;}.cls-3{fill:#fff;}</style></defs><title>coreplug</title><g id="Calque_2" data-name="Calque 2"><g id="Calque_9" data-name="Calque 9"><path class="cls-1" d="M143.24,185.76a29.19,29.19,0,0,1-4.81,1.54h0a23.87,23.87,0,0,1-5.68.64,12,12,0,0,1-2.76-.3,8.69,8.69,0,0,1-6-4.78,25.86,25.86,0,0,1-2.62-12q0-8.12,3.11-12.76a9.78,9.78,0,0,1,7-4.52,12.28,12.28,0,0,1,1.85-.14,20.68,20.68,0,0,1,4.79.47l.26.06c1.28.3,3,.79,5.09,1.45l2.82-6.56a23.23,23.23,0,0,0-6.83-2.39,34.57,34.57,0,0,0-5.85-.7c-.88,0-1.73,0-2.55.11h0q-8.64.78-13.54,6.93c-3.72,4.7-5.6,10.74-5.6,18.11a36.75,36.75,0,0,0,.39,5.44,29.61,29.61,0,0,0,1.7,6.54,26.36,26.36,0,0,0,3,5.57q4.2,6,12.58,7a29.16,29.16,0,0,0,3.7.23,32.29,32.29,0,0,0,6.85-.85,27.7,27.7,0,0,0,6.62-2.25Z"/><path class="cls-1" d="M138.43,187.3h0a23.87,23.87,0,0,1-5.68.64,12,12,0,0,1-2.76-.3,27.31,27.31,0,0,1-2.9.15c-4.09,0-7-1.69-8.73-5.07a20.8,20.8,0,0,1-1.6-4.1,27.09,27.09,0,0,1-.94-5.75c0-.72-.08-1.45-.08-2.2q0-8.1,3.11-12.75a10,10,0,0,1,8.81-4.66,22.8,22.8,0,0,1,3.81.28,12.28,12.28,0,0,1,1.85-.14,20.68,20.68,0,0,1,4.79.47l.26.06,2.25-5.25a23,23,0,0,0-6.83-2.39c-1-.18-1.92-.34-2.74-.45h0q-8.64.78-13.54,6.93c-3.72,4.7-5.6,10.74-5.6,18.11a36.75,36.75,0,0,0,.39,5.44,29.61,29.61,0,0,0,1.7,6.54,26.36,26.36,0,0,0,3,5.57q4.2,6,12.58,7a35,35,0,0,0,4.89-.75,27.67,27.67,0,0,0,6.62-2.27Z"/><path class="cls-1" d="M183.58,164.59c-3.12-3.36-7.54-5-13.21-5-5.5,0-9.84,1.61-13,4.86s-4.76,7.59-4.76,13,1.52,9.87,4.56,13.14,7.24,4.9,12.64,4.9,10-1.59,13.39-4.76,5.07-7.48,5.07-12.93S186.7,168,183.58,164.59Zm-7.22,20.72a8.93,8.93,0,0,1-6.42,2.35q-4,0-5.95-2.6c-1.3-1.74-1.94-4.31-1.94-7.68s.75-5.9,2.25-7.55a8.14,8.14,0,0,1,6.28-2.46,7.25,7.25,0,0,1,6.09,2.78,12.25,12.25,0,0,1,2.15,7.65C178.82,181.23,178,183.74,176.36,185.31Z"/><path class="cls-1" d="M214.34,160.46a12.61,12.61,0,0,0-5.79,1.58,27.33,27.33,0,0,0-5.14,3.43l-3-5h-4.8v34.19h9.16V173.08a23.21,23.21,0,0,1,6-4,13.64,13.64,0,0,1,5.39-1.34Z"/><path class="cls-1" d="M252.18,177.45a21.19,21.19,0,0,0-3.78-12.59c-2.5-3.53-6.44-5.31-11.8-5.31s-9.5,1.64-12.57,4.94-4.62,7.65-4.62,13.09,1.7,9.81,5.11,13,8.07,4.87,14,4.87a25.12,25.12,0,0,0,5.6-.84,15.66,15.66,0,0,0,5.81-2.68l-2.68-6.64a39.76,39.76,0,0,1-4.32,1.74,14.09,14.09,0,0,1-4.21.59,10,10,0,0,1-6.48-2,8.77,8.77,0,0,1-3.09-5.4h23Zm-23-3.31a8.52,8.52,0,0,1,2.47-5,6.82,6.82,0,0,1,4.73-1.72A6.58,6.58,0,0,1,241,169a9.11,9.11,0,0,1,2.53,5.11Z"/><path class="cls-2" d="M294.68,152.61a24.31,24.31,0,0,0-13.39-3.56h-15v25.09H257.4a29.43,29.43,0,0,1,.2,3.31v2.81h8.68v14.39h9.09V180.26h5.28a24.65,24.65,0,0,0,13.6-3.83q6-3.84,6-12T294.68,152.61Zm-6.91,19.66a10.84,10.84,0,0,1-6.62,1.87h-5.78V156.66H281c3,0,5.36.6,7.05,1.84s2.54,3.8,2.54,6.89C290.59,168.06,289.46,171,287.77,172.27Z"/><path class="cls-2" d="M308,145.66v49h9.1V144.89Z"/><path class="cls-2" d="M348.8,160.46V185.2a20.74,20.74,0,0,1-3.74,2.11,9.36,9.36,0,0,1-3.88.92,5.74,5.74,0,0,1-4.5-1.73,7.2,7.2,0,0,1-1.55-5V160.46H325.9V182a16.77,16.77,0,0,0,2.91,10q2.94,4.11,9.91,4.12a17.55,17.55,0,0,0,6.14-1.3,17.29,17.29,0,0,0,5.7-3.49l2.6,3.39H358V160.46Z"/><path class="cls-2" d="M394.53,160.46l-2.11,2.82a16.18,16.18,0,0,0-5.42-3.06,17.78,17.78,0,0,0-5.72-1.09q-7.39,0-11.66,5.2a19.89,19.89,0,0,0-4.27,13,20.59,20.59,0,0,0,4,13c2.67,3.48,6.51,5.22,11.49,5.22a16.15,16.15,0,0,0,4.58-.74,21.53,21.53,0,0,0,4.64-2v1.76a6.76,6.76,0,0,1-2.18,5.33,9.16,9.16,0,0,1-6.27,1.93,15.86,15.86,0,0,1-4.86-.7,40.28,40.28,0,0,1-5.44-2.25l-2.74,6.48a21.78,21.78,0,0,0,6.91,2.85,29,29,0,0,0,6.34,1c6.06,0,10.48-1.39,13.29-4.19a14.11,14.11,0,0,0,4.19-10.39V160.46Zm-4.44,24.74a20.69,20.69,0,0,1-3.35,1.72,8.83,8.83,0,0,1-3.41.74q-5.15,0-6.84-3.17a15.07,15.07,0,0,1-1.69-7.18,14.26,14.26,0,0,1,1.87-7c1.24-2.25,3.47-3.37,6.66-3.37a9.14,9.14,0,0,1,3.41.71,16,16,0,0,1,3.35,1.76Z"/><path class="cls-2" d="M92.33,136.93c2.4,9-3,28-7.73,41.93-.31.87-.6,1.73-.9,2.56a23.16,23.16,0,0,1-20.16,15.42c-14.83,1.07-36.61,1.61-45.22-3.38A28.45,28.45,0,0,1,29.9,140.52a28.2,28.2,0,0,1,6.68.13,28.47,28.47,0,0,1,55.75-3.72Z"/><path class="cls-1" d="M76.28,148.39l-8.47-11.13a4.45,4.45,0,0,0-5.37-1.42,4.36,4.36,0,0,0-1.62,6.56l8.56,11.24L40.15,175.89l-8.47-11.12a4.43,4.43,0,0,0-5.37-1.42,4.35,4.35,0,0,0-1.62,6.56l8.56,11.24L17.65,193l.68.43c8.38,4.86,29.24,4.48,44,3.46A24.76,24.76,0,0,0,84.07,180.4l.54-1.55c4.86-14.24,10.38-33.77,7.55-42.55h0Z"/><path class="cls-3" d="M64.21,135.45a4.59,4.59,0,0,1,3.6,1.81l8.47,11.13L92.16,136.3h0c2.83,8.78-2.69,28.31-7.55,42.55l-.54,1.55a24.76,24.76,0,0,1-21.72,16.51c-5.2.36-11.14.64-17,.64-10.87,0-21.55-1-27-4.1l-.68-.43,15.6-11.87-8.56-11.24a4.35,4.35,0,0,1,1.62-6.56,4.07,4.07,0,0,1,1.76-.4,4.59,4.59,0,0,1,3.61,1.82l8.47,11.12,29.23-22.25L60.82,142.4a4.36,4.36,0,0,1,1.62-6.56,4.1,4.1,0,0,1,1.77-.39m0-3.78h0a7.76,7.76,0,0,0-3.39.77,8.12,8.12,0,0,0-3,12.25l6.27,8.23L40.86,170.6l-6.18-8.12a8.35,8.35,0,0,0-6.61-3.3,7.81,7.81,0,0,0-3.39.76,8.13,8.13,0,0,0-3,12.25L28,180.43,15.36,190,11,193.34l4.66,2.89.2.13.57.35c5.35,3.1,14.8,4.61,28.89,4.61,5.25,0,11.06-.21,17.29-.64a28.49,28.49,0,0,0,25-19c.18-.51.37-1,.55-1.57,7.53-22.06,10.08-37.17,7.57-44.93l-.61-1.91-1.93-.56-1.82-.52-1.52,1.15L77,143.1,70.81,135a8.35,8.35,0,0,0-6.6-3.31Z"/><path class="cls-1" d="M108,182a26.67,26.67,0,0,0,2.29,4.82,28.51,28.51,0,0,1-10.64,6,29.39,29.39,0,0,1-8.67,1.3,28.2,28.2,0,0,1-14.14-3.71,2.52,2.52,0,0,1,2.54-4.36,23.88,23.88,0,0,0,18.79,2A23.12,23.12,0,0,0,108,182Z"/><path class="cls-1" d="M117.85,176.45c-.35.76-.73,1.49-1.11,2.18a32.73,32.73,0,0,1-2.78,4.24,29.61,29.61,0,0,1-1.7-6.54c.35-.65.71-1.31,1-2a2.53,2.53,0,0,1,2.51-1.43,2.43,2.43,0,0,1,.84.22A2.52,2.52,0,0,1,117.85,176.45Z"/><path class="cls-2" d="M143.24,306.14a29.2,29.2,0,0,1-4.81,1.53l0,0a24.4,24.4,0,0,1-5.68.64A11.64,11.64,0,0,1,130,308a8.64,8.64,0,0,1-6-4.78,25.83,25.83,0,0,1-2.62-12q0-8.11,3.11-12.76a9.74,9.74,0,0,1,7-4.51,12.28,12.28,0,0,1,1.85-.14,21.3,21.3,0,0,1,4.79.46l.25.07c1.29.3,3,.79,5.1,1.44l2.82-6.55a23,23,0,0,0-6.83-2.39,34,34,0,0,0-5.85-.71c-.89,0-1.73,0-2.55.12h0a18.61,18.61,0,0,0-13.54,6.93c-3.72,4.69-5.6,10.73-5.6,18.11a36.72,36.72,0,0,0,.39,5.43,29.32,29.32,0,0,0,1.7,6.54,26.68,26.68,0,0,0,3,5.58q4.2,5.94,12.58,7a29.21,29.21,0,0,0,3.7.22,32.22,32.22,0,0,0,6.85-.84,28.14,28.14,0,0,0,6.62-2.25Z"/><path class="cls-2" d="M138.43,307.67l0,0a24.4,24.4,0,0,1-5.68.64A11.64,11.64,0,0,1,130,308a24.7,24.7,0,0,1-2.89.16q-6.13,0-8.73-5.07a21.13,21.13,0,0,1-1.6-4.11,27,27,0,0,1-.94-5.75c0-.71-.08-1.44-.08-2.2q0-8.1,3.11-12.74a9.94,9.94,0,0,1,8.81-4.66,22.8,22.8,0,0,1,3.81.28,12.28,12.28,0,0,1,1.85-.14,21.3,21.3,0,0,1,4.79.46l.25.07,2.26-5.25a23,23,0,0,0-6.84-2.39c-1-.19-1.91-.34-2.73-.45h0a18.61,18.61,0,0,0-13.54,6.93c-3.72,4.69-5.6,10.73-5.6,18.11a36.72,36.72,0,0,0,.39,5.43,29.32,29.32,0,0,0,1.7,6.54,26.68,26.68,0,0,0,3,5.58q4.2,5.94,12.58,7a36.68,36.68,0,0,0,4.89-.76,27.44,27.44,0,0,0,6.61-2.26Z"/><path class="cls-2" d="M183.58,285c-3.12-3.36-7.54-5-13.21-5-5.5,0-9.84,1.61-13,4.86s-4.76,7.58-4.76,13,1.52,9.88,4.55,13.15,7.25,4.89,12.65,4.89,10-1.58,13.39-4.75,5.07-7.49,5.07-12.94S186.7,288.32,183.58,285Zm-7.22,20.72a8.89,8.89,0,0,1-6.42,2.36q-4,0-5.95-2.61c-1.3-1.73-1.94-4.3-1.94-7.67s.75-5.9,2.25-7.55a8.11,8.11,0,0,1,6.28-2.47,7.25,7.25,0,0,1,6.09,2.78,12.29,12.29,0,0,1,2.15,7.65C178.82,301.61,178,304.11,176.36,305.68Z"/><path class="cls-2" d="M214.34,280.83a12.51,12.51,0,0,0-5.79,1.59,27.31,27.31,0,0,0-5.14,3.42l-3-5h-4.8V315h9.16V293.45a23.74,23.74,0,0,1,6-3.95,13.78,13.78,0,0,1,5.39-1.33Z"/><path class="cls-2" d="M252.18,297.82a21.18,21.18,0,0,0-3.78-12.58q-3.75-5.31-11.8-5.31c-5.31,0-9.5,1.63-12.57,4.93s-4.62,7.65-4.62,13.1,1.7,9.8,5.11,13,8.07,4.87,14,4.87a25.12,25.12,0,0,0,5.6-.84,15.66,15.66,0,0,0,5.81-2.68l-2.68-6.63a44.31,44.31,0,0,1-4.32,1.74,14.09,14.09,0,0,1-4.21.59,10,10,0,0,1-6.48-2,8.75,8.75,0,0,1-3.09-5.4h23Zm-23-3.31a8.49,8.49,0,0,1,2.47-5,6.78,6.78,0,0,1,4.73-1.73A6.65,6.65,0,0,1,241,289.4a9.18,9.18,0,0,1,2.53,5.11Z"/><path class="cls-2" d="M294.68,273a24.39,24.39,0,0,0-13.39-3.56h-15v25.09H257.4a29.58,29.58,0,0,1,.2,3.31v2.82h8.68V315h9.08V300.64h5.29a24.57,24.57,0,0,0,13.6-3.84c4-2.55,6-6.57,6-12S298.39,275.35,294.68,273Zm-6.91,19.67a10.93,10.93,0,0,1-6.62,1.86h-5.79V277H281a11.77,11.77,0,0,1,7.05,1.84c1.7,1.22,2.54,3.8,2.54,6.9C290.59,288.43,289.46,291.39,287.77,292.65Z"/><path class="cls-2" d="M308,266v49h9.1V265.27Z"/><path class="cls-2" d="M348.79,280.83v24.74a20.68,20.68,0,0,1-3.73,2.12,9.5,9.5,0,0,1-3.88.91,5.77,5.77,0,0,1-4.5-1.72,7.24,7.24,0,0,1-1.55-5V280.83H325.9v21.51a16.72,16.72,0,0,0,2.91,10q2.93,4.13,9.91,4.13a19.26,19.26,0,0,0,11.84-4.79l2.6,3.38H358V280.83Z"/><path class="cls-2" d="M394.53,280.83l-2.11,2.82a16.11,16.11,0,0,0-5.43-3,17.72,17.72,0,0,0-5.71-1.1q-7.39,0-11.66,5.21a19.81,19.81,0,0,0-4.27,13,20.57,20.57,0,0,0,4,13c2.67,3.49,6.5,5.22,11.49,5.22a16.15,16.15,0,0,0,4.58-.74,21.49,21.49,0,0,0,4.64-2v1.76a6.74,6.74,0,0,1-2.18,5.32,9.13,9.13,0,0,1-6.28,1.94,15.8,15.8,0,0,1-4.85-.71,39,39,0,0,1-5.44-2.25l-2.74,6.48a21.78,21.78,0,0,0,6.91,2.86,28.88,28.88,0,0,0,6.34,1c6.06,0,10.48-1.4,13.29-4.19A14.13,14.13,0,0,0,399.32,315V280.83Zm-4.44,24.74a19.92,19.92,0,0,1-3.35,1.72,8.67,8.67,0,0,1-3.41.75q-5.15,0-6.84-3.17a15.14,15.14,0,0,1-1.69-7.19,14.32,14.32,0,0,1,1.86-7c1.25-2.25,3.48-3.37,6.67-3.37a9.12,9.12,0,0,1,3.41.7,16.94,16.94,0,0,1,3.35,1.76Z"/><path class="cls-2" d="M76.28,268.76l-8.47-11.12a4.42,4.42,0,0,0-5.37-1.42,4.35,4.35,0,0,0-1.62,6.56L69.38,274,40.15,296.27l-8.47-11.13a4.45,4.45,0,0,0-5.38-1.41,4.34,4.34,0,0,0-1.61,6.55l8.56,11.24-15.6,11.87c.23.15.45.3.68.43,8.38,4.86,29.24,4.48,44,3.47a24.79,24.79,0,0,0,21.72-16.52c.18-.51.36-1,.54-1.55C89.47,285,95,265.45,92.16,256.68h0Z"/><path class="cls-2" d="M67.81,257.64a4.57,4.57,0,0,0-3.6-1.82,4.08,4.08,0,0,0-1.77.4,4.35,4.35,0,0,0-1.62,6.56L69.38,274,40.14,296.27l-8.46-11.13a4.61,4.61,0,0,0-3.61-1.81,4.12,4.12,0,0,0-1.77.4,4.34,4.34,0,0,0-1.61,6.55l8.56,11.24-15.6,11.87c.23.15.45.3.68.43,5.44,3.16,16.12,4.1,27,4.1,5.89,0,11.83-.27,17-.63A24.77,24.77,0,0,0,84,301.05l.64-1.82c4.74-13.9,10.13-32.87,7.73-41.92-.06-.21-.13-.41-.19-.62L76.28,268.76Z"/><path class="cls-2" d="M14.42,311.1l.94-.71L28,300.8l-6.27-8.23a8.11,8.11,0,0,1,3-12.25,7.82,7.82,0,0,1,3.39-.77,8.36,8.36,0,0,1,6.61,3.31L40.86,291,64.09,273.3l-6.27-8.24a8.13,8.13,0,0,1,3-12.25,8,8,0,0,1,3.4-.76,8.34,8.34,0,0,1,6.6,3.3L77,263.47l12.88-9.8.91-.69a28.46,28.46,0,0,0-28.65-16.71,27.57,27.57,0,0,0-4.61.83,28.13,28.13,0,0,0-13.92,8.56,28.43,28.43,0,0,0-7,15.37,27.69,27.69,0,0,0-6.68-.14A28.45,28.45,0,0,0,14.42,311.1Z"/><path class="cls-2" d="M108,302.39a26,26,0,0,0,2.29,4.82,28.65,28.65,0,0,1-10.64,6A29.71,29.71,0,0,1,91,314.54a28.17,28.17,0,0,1-14.14-3.71,2.52,2.52,0,0,1,2.54-4.35,23.86,23.86,0,0,0,18.78,2A23.19,23.19,0,0,0,108,302.39Z"/><path class="cls-2" d="M117.85,296.83c-.35.75-.73,1.48-1.11,2.17a31.41,31.41,0,0,1-2.78,4.24,29.32,29.32,0,0,1-1.7-6.54c.35-.64.71-1.31,1-2a2.55,2.55,0,0,1,2.51-1.44,2.44,2.44,0,0,1,.84.23A2.52,2.52,0,0,1,117.85,296.83Z"/><path class="cls-1" d="M139.09,70a27.87,27.87,0,0,1-4.8,1.54h0a23.84,23.84,0,0,1-5.67.64,12.12,12.12,0,0,1-2.77-.3,8.6,8.6,0,0,1-6-4.78,25.86,25.86,0,0,1-2.62-12q0-8.12,3.11-12.76a9.79,9.79,0,0,1,7-4.52,13.89,13.89,0,0,1,1.85-.13,21.33,21.33,0,0,1,4.8.46l.25.06c1.28.31,3,.8,5.1,1.45l2.81-6.55a23.25,23.25,0,0,0-6.83-2.4,34.57,34.57,0,0,0-5.85-.7c-.88,0-1.72,0-2.54.11h0q-8.64.78-13.53,6.94-5.6,7-5.6,18.1a35.45,35.45,0,0,0,.39,5.44,28.41,28.41,0,0,0,1.7,6.54,26.36,26.36,0,0,0,3,5.57q4.19,6,12.58,7a29,29,0,0,0,3.7.23,32.87,32.87,0,0,0,6.84-.84,28.13,28.13,0,0,0,6.62-2.26Z"/><path class="cls-1" d="M134.29,71.53h0a23.84,23.84,0,0,1-5.67.64,12.12,12.12,0,0,1-2.77-.3,27.12,27.12,0,0,1-2.89.15c-4.09,0-7-1.68-8.74-5.07a21.41,21.41,0,0,1-1.59-4.1,27,27,0,0,1-.95-5.75c-.05-.72-.07-1.45-.07-2.2q0-8.1,3.1-12.75a10,10,0,0,1,8.81-4.65,23.83,23.83,0,0,1,3.81.27,13.89,13.89,0,0,1,1.85-.13,21.33,21.33,0,0,1,4.8.46l.25.06,2.25-5.24a22.41,22.41,0,0,0-6.83-2.39c-1-.19-1.91-.34-2.73-.46h0q-8.64.78-13.53,6.94-5.6,7-5.6,18.1a35.45,35.45,0,0,0,.39,5.44,28.41,28.41,0,0,0,1.7,6.54,26.36,26.36,0,0,0,3,5.57q4.19,6,12.58,7a34.88,34.88,0,0,0,4.88-.75,27.24,27.24,0,0,0,6.62-2.27Z"/><path class="cls-1" d="M179.43,48.82q-4.68-5-13.21-5-8.25,0-13,4.85t-4.75,13c0,5.5,1.52,9.87,4.55,13.15s7.25,4.89,12.65,4.89,10-1.58,13.38-4.76,5.07-7.48,5.07-12.93S182.55,52.18,179.43,48.82Zm-7.22,20.72a8.93,8.93,0,0,1-6.42,2.35c-2.68,0-4.65-.86-5.95-2.6s-1.94-4.3-1.94-7.68.76-5.9,2.26-7.54a8.11,8.11,0,0,1,6.28-2.47,7.28,7.28,0,0,1,6.09,2.78A12.25,12.25,0,0,1,174.68,62C174.68,65.46,173.85,68,172.21,69.54Z"/><path class="cls-1" d="M210.2,44.69a12.48,12.48,0,0,0-5.79,1.59,26.93,26.93,0,0,0-5.15,3.42l-3-5h-4.79V78.88h9.16V57.31a23.14,23.14,0,0,1,6-4A13.7,13.7,0,0,1,212,52Z"/><path class="cls-1" d="M248,61.68a21.22,21.22,0,0,0-3.77-12.58q-3.76-5.31-11.81-5.31c-5.31,0-9.5,1.63-12.57,4.93s-4.61,7.65-4.61,13.1,1.7,9.8,5.11,13,8.06,4.87,14,4.87a25.2,25.2,0,0,0,5.6-.84,15.81,15.81,0,0,0,5.81-2.68l-2.68-6.63a42.57,42.57,0,0,1-4.33,1.73,14,14,0,0,1-4.2.59,10,10,0,0,1-6.48-2A8.76,8.76,0,0,1,225,64.5h23Zm-23-3.31a8.46,8.46,0,0,1,2.46-5,6.83,6.83,0,0,1,4.73-1.72,6.57,6.57,0,0,1,4.58,1.66,9.11,9.11,0,0,1,2.53,5.11Z"/><path class="cls-1" d="M290.53,36.84a24.25,24.25,0,0,0-13.38-3.56h-15V58.37h-8.89a27.25,27.25,0,0,1,.2,3.31V64.5h8.69V78.88h9.08V64.5h5.28a24.6,24.6,0,0,0,13.61-3.84c4-2.56,6-6.57,6-12S294.25,39.21,290.53,36.84Zm-6.9,19.67A10.93,10.93,0,0,1,277,58.37h-5.79V40.89h5.64a11.72,11.72,0,0,1,7,1.84c1.7,1.22,2.54,3.8,2.54,6.89C286.44,52.29,285.31,55.25,283.63,56.51Z"/><path class="cls-1" d="M303.85,29.89v49h9.09V29.13Z"/><path class="cls-1" d="M344.65,44.69V69.43a20.74,20.74,0,0,1-3.74,2.11,9.32,9.32,0,0,1-3.87.92,5.81,5.81,0,0,1-4.51-1.72,7.23,7.23,0,0,1-1.54-5V44.69h-9.24v21.5a16.74,16.74,0,0,0,2.92,10c1.95,2.74,5.26,4.13,9.9,4.13a19.2,19.2,0,0,0,11.84-4.8L349,78.88h4.79V44.69Z"/><path class="cls-1" d="M390.39,44.69l-2.12,2.82a16.08,16.08,0,0,0-5.42-3.06,17.73,17.73,0,0,0-5.71-1.09q-7.39,0-11.67,5.21a19.84,19.84,0,0,0-4.26,13,20.57,20.57,0,0,0,4,13c2.67,3.48,6.51,5.22,11.49,5.22A16.15,16.15,0,0,0,381.3,79,21.36,21.36,0,0,0,386,77v1.76a6.74,6.74,0,0,1-2.18,5.32A9.18,9.18,0,0,1,377.49,86a15.86,15.86,0,0,1-4.86-.71A38.47,38.47,0,0,1,367.2,83l-2.75,6.48a21.78,21.78,0,0,0,6.91,2.86,28.82,28.82,0,0,0,6.34,1c6.07,0,10.48-1.39,13.29-4.18a14.14,14.14,0,0,0,4.19-10.4V44.69ZM386,69.43a20.72,20.72,0,0,1-3.35,1.72,8.69,8.69,0,0,1-3.41.74c-3.44,0-5.71-1-6.85-3.17a15.07,15.07,0,0,1-1.68-7.18,14.21,14.21,0,0,1,1.86-7c1.25-2.26,3.47-3.38,6.67-3.38a9.18,9.18,0,0,1,3.41.71A17,17,0,0,1,386,53.65Z"/><path class="cls-1" d="M72.13,32.62,63.66,21.49a4.43,4.43,0,0,0-5.37-1.41,4.34,4.34,0,0,0-1.61,6.55l8.55,11.24L36,60.13,27.53,49a4.42,4.42,0,0,0-5.37-1.42,4.34,4.34,0,0,0-1.61,6.56L29.1,65.38,13.5,77.25l.69.43c8.37,4.86,29.23,4.48,44,3.47A24.8,24.8,0,0,0,79.93,64.63c.17-.51.35-1,.53-1.55C85.32,48.85,90.85,29.31,88,20.53h0Z"/><path class="cls-1" d="M63.66,21.49a4.57,4.57,0,0,0-3.6-1.81,4.12,4.12,0,0,0-1.77.4,4.34,4.34,0,0,0-1.61,6.55l8.55,11.24L36,60.13,27.53,49a4.56,4.56,0,0,0-3.6-1.81,4,4,0,0,0-1.77.39,4.34,4.34,0,0,0-1.61,6.56L29.1,65.38,13.5,77.25l.69.43c5.43,3.15,16.12,4.1,27,4.1,5.89,0,11.83-.28,17-.63A24.79,24.79,0,0,0,79.82,64.91c.21-.6.42-1.2.63-1.82,4.75-13.91,10.13-32.88,7.74-41.92-.06-.21-.14-.41-.2-.62L72.13,32.62Z"/><path class="cls-1" d="M10.28,75l.94-.71,12.59-9.59-6.27-8.23a8.13,8.13,0,0,1,3-12.26,7.89,7.89,0,0,1,3.39-.76,8.4,8.4,0,0,1,6.61,3.3l6.18,8.13L59.94,37.16l-6.27-8.24a8.12,8.12,0,0,1,3-12.25,7.78,7.78,0,0,1,3.39-.76,8.37,8.37,0,0,1,6.61,3.3l6.18,8.12,12.88-9.8.9-.69A28.45,28.45,0,0,0,58,.13,27.69,27.69,0,0,0,53.37,1,28.23,28.23,0,0,0,39.45,9.51a28.56,28.56,0,0,0-7,15.37A28.46,28.46,0,0,0,10.28,75Z"/><path class="cls-1" d="M103.89,66.24a25.1,25.1,0,0,0,2.29,4.82,28.54,28.54,0,0,1-10.65,6,29.32,29.32,0,0,1-8.66,1.3,28.23,28.23,0,0,1-14.15-3.71,2.52,2.52,0,0,1,2.54-4.36,23.84,23.84,0,0,0,18.79,2A23.28,23.28,0,0,0,103.89,66.24Z"/><path class="cls-1" d="M113.7,60.68c-.35.76-.73,1.49-1.1,2.18a32.73,32.73,0,0,1-2.78,4.24,28.41,28.41,0,0,1-1.7-6.54c.35-.64.7-1.31,1-2a2.51,2.51,0,0,1,2.5-1.43,2.56,2.56,0,0,1,.85.23A2.51,2.51,0,0,1,113.7,60.68Z"/></g></g></svg>