<svg xmlns="http://www.w3.org/2000/svg" xmlns:xlink="http://www.w3.org/1999/xlink" viewBox="0 0 357.55 319.93"><defs><style>.cls-1{fill:#1e1e1e;}.cls-2{fill:#fff;}.cls-3{fill:url(#Dégradé_sans_nom_60);}.cls-4{fill:url(#Dégradé_sans_nom_60-2);}</style><linearGradient id="Dégradé_sans_nom_60" x1="245.44" y1="80.81" x2="227.79" y2="24.17" gradientUnits="userSpaceOnUse"><stop offset="0" stop-color="#1e1e1e"/><stop offset="1"/></linearGradient><linearGradient id="Dégradé_sans_nom_60-2" x1="107.84" y1="101.3" x2="116.3" y2="42.6" xlink:href="#Dégradé_sans_nom_60"/></defs><title>cr</title><g id="Calque_2" data-name="Calque 2"><g id="Calque_1-2" data-name="Calque 1"><path class="cls-1" d="M271.61,102.47c0-53.85-12.94-50.33-28.89-50.33s-28.88-3.52-28.88,50.33q0,7.71.34,15.1A153.79,153.79,0,0,0,177,113.36a153.77,153.77,0,0,0-37.17,4.21q.33-7.38.34-15.1c0-30-4-8.9-10.34-26.78A17.38,17.38,0,0,1,116,68.81a17.34,17.34,0,0,1-18.56,7.08,12.22,12.22,0,0,1,1,4.84A12.43,12.43,0,0,1,88,93c-1.87-15.37-5.55-12-5.55,9.46,0,20.72,1.92,39.92,5.18,55.72a75.29,75.29,0,0,0-5.18,28.57c0,52.25,40.24,79.76,92.48,79.76s96.73-27.51,96.73-79.76a75.29,75.29,0,0,0-5.18-28.57C269.69,142.39,271.61,123.19,271.61,102.47Z"/><path class="cls-2" d="M198.09,190c0,6.54-9.22,17.17-20.58,17.17S156.93,196.58,156.93,190s9.21-6.51,20.58-6.51S198.09,183.5,198.09,190Z"/><path class="cls-2" d="M199.19,236.49c-14.68,0-25.3-20-25.3-33.54a3.62,3.62,0,0,1,7.24,0c0,11,9.1,26.31,18.06,26.31a18,18,0,0,0,17.9-18,3.62,3.62,0,0,1,7.23,0A25.2,25.2,0,0,1,199.19,236.49Z"/><path class="cls-2" d="M155.83,236.49c-13.71,0-24.46-11.08-24.46-25.22a3.62,3.62,0,0,1,7.24,0c0,10.09,7.56,18,17.22,18,9,0,18.06-15.31,18.06-26.31a3.62,3.62,0,0,1,7.24,0C181.13,216.46,170.5,236.49,155.83,236.49Z"/><path d="M8.62,317.65a15.76,15.76,0,0,1-6.37-6.52,23,23,0,0,1,0-19.84,15.79,15.79,0,0,1,6.37-6.53,19.54,19.54,0,0,1,9.61-2.28A19.68,19.68,0,0,1,29.78,286a4.1,4.1,0,0,1,1.27,1.35,4,4,0,0,1,.39,1.87,4.11,4.11,0,0,1-.91,2.71,2.71,2.71,0,0,1-2.2,1.12,4.15,4.15,0,0,1-1.4-.23,9.69,9.69,0,0,1-1.45-.75,14.49,14.49,0,0,0-3.41-1.56,11.89,11.89,0,0,0-3.32-.47q-4.61,0-6.86,2.78c-1.5,1.84-2.26,4.65-2.26,8.41s.76,6.63,2.26,8.47,3.79,2.77,6.86,2.77a9.16,9.16,0,0,0,3-.49c1-.33,2.21-.84,3.73-1.53a16.63,16.63,0,0,1,1.61-.77,3.28,3.28,0,0,1,1.24-.21,2.73,2.73,0,0,1,2.2,1.11,4.14,4.14,0,0,1,.91,2.72,3.94,3.94,0,0,1-.39,1.84,3.88,3.88,0,0,1-1.27,1.37,19.61,19.61,0,0,1-11.55,3.47A19.54,19.54,0,0,1,8.62,317.65Z"/><path d="M55.5,296.18c1.88,1.89,2.82,4.74,2.82,8.58v10.82a4,4,0,0,1-1.16,3.08,4.48,4.48,0,0,1-3.24,1.12,4.33,4.33,0,0,1-3-1A3.9,3.9,0,0,1,49.67,316a5.72,5.72,0,0,1-2.43,2.9,7.74,7.74,0,0,1-4.09,1,10.51,10.51,0,0,1-4.77-1.06A8.33,8.33,0,0,1,35,315.87a7.75,7.75,0,0,1-1.22-4.28,6.41,6.41,0,0,1,1.43-4.37,8.33,8.33,0,0,1,4.53-2.36,38.75,38.75,0,0,1,8.39-.72h1.4v-.63a3.51,3.51,0,0,0-.83-2.61,3.92,3.92,0,0,0-2.8-.8,20.5,20.5,0,0,0-6.21,1.45,6.55,6.55,0,0,1-2,.41,2.57,2.57,0,0,1-2.07-.93,3.68,3.68,0,0,1-.78-2.44,3.29,3.29,0,0,1,.47-1.86,4.08,4.08,0,0,1,1.5-1.3,18.18,18.18,0,0,1,4.56-1.5,26.4,26.4,0,0,1,5.38-.57Q52.68,293.36,55.5,296.18ZM48.38,312.4a4.89,4.89,0,0,0,1.19-3.4v-.62h-.83A13.07,13.07,0,0,0,44,309a2.05,2.05,0,0,0-1.4,2,2.72,2.72,0,0,0,.75,2,2.58,2.58,0,0,0,1.94.78A3.94,3.94,0,0,0,48.38,312.4Z"/><path d="M82.46,294.27a3.66,3.66,0,0,1,1,2.82,4.07,4.07,0,0,1-1,3,5.91,5.91,0,0,1-3.45,1.19l-1.55.15a5.5,5.5,0,0,0-3.7,1.63,5.37,5.37,0,0,0-1.12,3.6v8.86a3.85,3.85,0,0,1-1.32,3.19,5.64,5.64,0,0,1-6.58,0,3.85,3.85,0,0,1-1.32-3.19V297.61a3.76,3.76,0,0,1,1.32-3.06A4.89,4.89,0,0,1,68,293.47a4.46,4.46,0,0,1,3.08,1,3.67,3.67,0,0,1,1.17,2.9v1A6.91,6.91,0,0,1,75,294.86a7.82,7.82,0,0,1,4-1.34l.72,0A3.45,3.45,0,0,1,82.46,294.27Z"/><path d="M107.94,295a10.74,10.74,0,0,1,4,4.58,15.87,15.87,0,0,1,1.42,6.92,16.38,16.38,0,0,1-1.42,7,11.11,11.11,0,0,1-4,4.74,11,11,0,0,1-10.47.65A7.44,7.44,0,0,1,94.27,316a3.87,3.87,0,0,1-1.37,2.77,4.86,4.86,0,0,1-3.19,1,4.55,4.55,0,0,1-3.29-1.17,4.06,4.06,0,0,1-1.22-3.08v-28.7a3.83,3.83,0,0,1,1.3-3,4.9,4.9,0,0,1,3.42-1.17,4.74,4.74,0,0,1,3.26,1.09,3.65,3.65,0,0,1,1.24,2.9V297a7.89,7.89,0,0,1,3.19-2.64,10.14,10.14,0,0,1,4.48-1A10.7,10.7,0,0,1,107.94,295Zm-5,16.34a7.84,7.84,0,0,0,1.29-4.84,7.25,7.25,0,0,0-1.27-4.61,4.37,4.37,0,0,0-3.65-1.61,4.49,4.49,0,0,0-3.73,1.63,7.42,7.42,0,0,0-1.29,4.69,7.65,7.65,0,0,0,1.29,4.77A4.41,4.41,0,0,0,99.24,313,4.37,4.37,0,0,0,102.92,311.31Z"/><path d="M123,318.25a11.73,11.73,0,0,1-4.92-4.64,15.15,15.15,0,0,1,0-14.06A11.66,11.66,0,0,1,123,295a17.83,17.83,0,0,1,14.81,0,11.58,11.58,0,0,1,4.89,4.58,15.07,15.07,0,0,1,0,14.06,11.65,11.65,0,0,1-4.89,4.64,17.59,17.59,0,0,1-14.79,0Zm12.3-11.68q0-6.42-4.92-6.42t-4.92,6.42q0,6.42,4.92,6.42T135.34,306.57Z"/><path d="M172.59,296.08c1.48,1.81,2.22,4.57,2.22,8.26v11.19a4,4,0,0,1-1.24,3.11,5.54,5.54,0,0,1-6.73,0,4,4,0,0,1-1.25-3.11V304.76a5.49,5.49,0,0,0-.8-3.32,2.87,2.87,0,0,0-2.41-1,4.26,4.26,0,0,0-3.29,1.32,5,5,0,0,0-1.21,3.54v10.26a4,4,0,0,1-1.25,3.11,5.54,5.54,0,0,1-6.73,0,4,4,0,0,1-1.24-3.11V297.61a3.84,3.84,0,0,1,1.29-3,4.83,4.83,0,0,1,3.37-1.16,4.43,4.43,0,0,1,3.13,1.08,3.72,3.72,0,0,1,1.17,2.85,8.75,8.75,0,0,1,3.47-3,10.57,10.57,0,0,1,4.71-1Q170.36,293.36,172.59,296.08Z"/><path class="cls-1" d="M227.08,316.05a3.41,3.41,0,0,1-1.38,2.77,5.08,5.08,0,0,1-5.51.54,5.14,5.14,0,0,1-1.87-1.71l-6.73-9.84a5.54,5.54,0,0,0-1.53-1.53,3.62,3.62,0,0,0-1.89-.49H204.8v9.27a4.72,4.72,0,0,1-1.24,3.45,4.56,4.56,0,0,1-3.42,1.27,4.38,4.38,0,0,1-4.71-4.72V287.35a4,4,0,0,1,4.4-4.4h13q6.63,0,10,2.88t3.34,8.31a11,11,0,0,1-2.28,7,11.24,11.24,0,0,1-6.42,3.86,6.93,6.93,0,0,1,3,1.14,10.34,10.34,0,0,1,2.51,2.64l3.21,4.61A4.83,4.83,0,0,1,227.08,316.05Zm-11.22-18.39a3.67,3.67,0,0,0,1.37-3.21,3.79,3.79,0,0,0-1.37-3.29,7.81,7.81,0,0,0-4.53-1H204.7v8.49h6.63A7.92,7.92,0,0,0,215.86,297.66Z"/><path class="cls-1" d="M251.7,296.18c1.88,1.89,2.82,4.74,2.82,8.58v10.82a4,4,0,0,1-1.16,3.08,4.48,4.48,0,0,1-3.24,1.12,4.35,4.35,0,0,1-3-1,3.89,3.89,0,0,1-1.26-2.79,5.78,5.78,0,0,1-2.44,2.9,7.74,7.74,0,0,1-4.09,1,10.44,10.44,0,0,1-4.76-1.06,8.29,8.29,0,0,1-3.35-2.95,7.75,7.75,0,0,1-1.21-4.28,6.4,6.4,0,0,1,1.42-4.37,8.33,8.33,0,0,1,4.53-2.36,38.75,38.75,0,0,1,8.39-.72h1.4v-.63a3.47,3.47,0,0,0-.83-2.61,3.91,3.91,0,0,0-2.79-.8,20.49,20.49,0,0,0-6.22,1.45,6.5,6.5,0,0,1-2,.41,2.57,2.57,0,0,1-2.07-.93,3.68,3.68,0,0,1-.78-2.44,3.37,3.37,0,0,1,.47-1.86,4.08,4.08,0,0,1,1.5-1.3,18.18,18.18,0,0,1,4.56-1.5,26.42,26.42,0,0,1,5.39-.57Q248.88,293.36,251.7,296.18Zm-7.12,16.22a4.89,4.89,0,0,0,1.19-3.4v-.62h-.83a13.07,13.07,0,0,0-4.71.6,2.05,2.05,0,0,0-1.4,2,2.72,2.72,0,0,0,.75,2,2.58,2.58,0,0,0,1.95.78A3.92,3.92,0,0,0,244.58,312.4Z"/><path class="cls-1" d="M282.44,295a10.81,10.81,0,0,1,4,4.58,15.87,15.87,0,0,1,1.42,6.92,16.38,16.38,0,0,1-1.42,7,11.11,11.11,0,0,1-4,4.74,11,11,0,0,1-10.47.65,7.49,7.49,0,0,1-3.18-2.85,3.87,3.87,0,0,1-1.37,2.77,4.88,4.88,0,0,1-3.19,1,4.55,4.55,0,0,1-3.29-1.17,4.05,4.05,0,0,1-1.21-3.08v-28.7a3.82,3.82,0,0,1,1.29-3,4.9,4.9,0,0,1,3.42-1.17,4.76,4.76,0,0,1,3.26,1.09,3.65,3.65,0,0,1,1.24,2.9V297a7.82,7.82,0,0,1,3.19-2.64,10.14,10.14,0,0,1,4.48-1A10.7,10.7,0,0,1,282.44,295Zm-5,16.34a7.84,7.84,0,0,0,1.29-4.84,7.31,7.31,0,0,0-1.26-4.61,4.4,4.4,0,0,0-3.66-1.61,4.49,4.49,0,0,0-3.73,1.63,7.42,7.42,0,0,0-1.29,4.69,7.65,7.65,0,0,0,1.29,4.77,4.41,4.41,0,0,0,3.68,1.65A4.37,4.37,0,0,0,277.42,311.31Z"/><path class="cls-1" d="M314.82,295a10.79,10.79,0,0,1,4,4.58,15.87,15.87,0,0,1,1.42,6.92,16.38,16.38,0,0,1-1.42,7,11.11,11.11,0,0,1-4,4.74,10.94,10.94,0,0,1-10.46.65,7.46,7.46,0,0,1-3.19-2.85,3.87,3.87,0,0,1-1.37,2.77,4.84,4.84,0,0,1-3.19,1,4.57,4.57,0,0,1-3.29-1.17,4.05,4.05,0,0,1-1.21-3.08v-28.7a3.82,3.82,0,0,1,1.29-3,4.91,4.91,0,0,1,3.42-1.17,4.77,4.77,0,0,1,3.27,1.09,3.68,3.68,0,0,1,1.24,2.9V297a7.86,7.86,0,0,1,3.18-2.64,10.18,10.18,0,0,1,4.48-1A10.74,10.74,0,0,1,314.82,295Zm-5,16.34a7.84,7.84,0,0,0,1.3-4.84,7.25,7.25,0,0,0-1.27-4.61,4.4,4.4,0,0,0-3.65-1.61,4.46,4.46,0,0,0-3.73,1.63,7.36,7.36,0,0,0-1.3,4.69,7.59,7.59,0,0,0,1.3,4.77,4.89,4.89,0,0,0,7.35,0Z"/><path class="cls-1" d="M325.36,288.62a4.1,4.1,0,0,1-1.37-3.24,4,4,0,0,1,1.37-3.21,6.32,6.32,0,0,1,7.38,0,4,4,0,0,1,1.4,3.21,4.1,4.1,0,0,1-1.38,3.24,6.22,6.22,0,0,1-7.4,0Zm.41,30.1a3.85,3.85,0,0,1-1.32-3.19V297.71a3.84,3.84,0,0,1,1.32-3.18,5.64,5.64,0,0,1,6.58,0,3.84,3.84,0,0,1,1.32,3.18v17.82a3.85,3.85,0,0,1-1.32,3.19,5.64,5.64,0,0,1-6.58,0Z"/><path class="cls-1" d="M357.55,316.31a3,3,0,0,1-1.4,2.69,6.72,6.72,0,0,1-4,.73l-1.45-.11q-4.65-.36-7.07-2.82a9.42,9.42,0,0,1-2.41-6.86v-9.17h-1.5q-4.14,0-4.14-3.42c0-2.24,1.38-3.37,4.14-3.37h1.5v-3.36a4.1,4.1,0,0,1,1.25-3.14,5.46,5.46,0,0,1,6.73,0,4.09,4.09,0,0,1,1.24,3.14V294h2.85c2.77,0,4.15,1.13,4.15,3.37s-1.38,3.42-4.15,3.42h-2.85v9.94a2.4,2.4,0,0,0,.6,1.66,2.15,2.15,0,0,0,1.53.73l1.5.1C356.39,313.34,357.55,314.37,357.55,316.31Z"/><circle cx="118.76" cy="47.04" r="19.69"/><path class="cls-2" d="M106.48,49.27A2.22,2.22,0,0,1,104.26,47a14.52,14.52,0,0,1,14.5-14.51,2.23,2.23,0,1,1,0,4.45A10.07,10.07,0,0,0,108.7,47,2.22,2.22,0,0,1,106.48,49.27Z"/><circle cx="104.26" cy="20.48" r="13"/><path class="cls-2" d="M96.15,22a1.47,1.47,0,0,1-1.47-1.47,9.59,9.59,0,0,1,9.58-9.57,1.47,1.47,0,0,1,0,2.93,6.65,6.65,0,0,0-6.65,6.64A1.46,1.46,0,0,1,96.15,22Z"/><circle cx="216.41" cy="39.2" r="19.69"/><path class="cls-2" d="M204.12,41.42a2.21,2.21,0,0,1-2.22-2.22,14.53,14.53,0,0,1,14.51-14.51,2.22,2.22,0,0,1,0,4.44A10.08,10.08,0,0,0,206.34,39.2,2.21,2.21,0,0,1,204.12,41.42Z"/><circle cx="243.62" cy="13" r="13"/><path class="cls-2" d="M235.51,14.46A1.46,1.46,0,0,1,234,13a9.59,9.59,0,0,1,9.58-9.58,1.47,1.47,0,0,1,0,2.93A6.64,6.64,0,0,0,237,13,1.46,1.46,0,0,1,235.51,14.46Z"/><circle class="cls-3" cx="239.87" cy="62.94" r="29.65"/><circle class="cls-4" cx="110.74" cy="81.22" r="29.65"/><path class="cls-2" d="M221.37,66.17a3.24,3.24,0,0,1-3.24-3.23A21.76,21.76,0,0,1,239.87,41.2a3.24,3.24,0,1,1,0,6.48,15.28,15.28,0,0,0-15.26,15.26A3.24,3.24,0,0,1,221.37,66.17Z"/><path class="cls-2" d="M92.24,84.45A3.24,3.24,0,0,1,89,81.22a21.76,21.76,0,0,1,21.74-21.74,3.24,3.24,0,0,1,0,6.48A15.27,15.27,0,0,0,95.48,81.22,3.24,3.24,0,0,1,92.24,84.45Z"/></g></g></svg>