<svg xmlns="http://www.w3.org/2000/svg" viewBox="0 0 1080 1080"><defs><style>.cls-1{fill:#fff;}</style></defs><title>fencing_1</title><g id="Calque_2" data-name="Calque 2"><g id="Calque_2-2" data-name="Calque 2"><rect class="cls-1" width="1080" height="1080"/></g><g id="Calque_1-2" data-name="Calque 1"><polygon points="1080 778.83 684.67 560.78 310.52 557.84 339.83 872.33 369.15 629.73 626.78 632.67 1080 778.83"/><polygon points="519.78 239.16 446.21 208.25 390.56 300.05 453.89 364.34 618.05 364.34 519.78 239.16"/><polygon points="880.87 445.99 765.94 382.56 0.3 382.56 170.66 471.33 304.43 539.61 1050.53 539.61 880.87 445.99"/><polygon class="cls-1" points="327.7 468.7 367.44 468.7 367.44 449.83 327.7 449.83 327.7 430.24 373.97 430.24 373.97 409.81 304.43 409.81 304.43 510.56 375.24 510.56 375.24 490.13 327.7 490.13 327.7 468.7"/><polygon class="cls-1" points="454.57 468.98 407.6 409.81 389.43 409.81 389.43 510.56 412.71 510.56 412.71 452.95 459.11 510.56 477.85 510.56 477.85 409.81 454.57 409.81 454.57 468.98"/><path class="cls-1" d="M560,483.25a22.6,22.6,0,0,1-5.6,4.25,26.19,26.19,0,0,1-6.39,2.42,28.34,28.34,0,0,1-6.46.78,23.93,23.93,0,0,1-11-2.49,25.67,25.67,0,0,1-8.37-6.74,30.6,30.6,0,0,1-5.32-9.79A36.09,36.09,0,0,1,515,460.19a38.76,38.76,0,0,1,1.56-10.93,28.78,28.78,0,0,1,4.82-9.65,25.69,25.69,0,0,1,8.23-7A24.11,24.11,0,0,1,541.28,430a33,33,0,0,1,6.39.64,23.23,23.23,0,0,1,6.38,2.27,23.62,23.62,0,0,1,5.75,4.26,20.91,20.91,0,0,1,4.33,6.59L582,431.24a39.53,39.53,0,0,0-15.54-15.9q-10.44-6.1-24.62-6.1a49.53,49.53,0,0,0-21.29,4.4,50.3,50.3,0,0,0-15.89,11.49,49.3,49.3,0,0,0-9.94,16.11,50.86,50.86,0,0,0-3.4,18.09,52.39,52.39,0,0,0,3.61,19,54.42,54.42,0,0,0,10.22,16.75A50.75,50.75,0,0,0,520.92,507,45.11,45.11,0,0,0,541,511.42a56.63,56.63,0,0,0,25.11-6.11,41.21,41.21,0,0,0,10.29-7.38,29.52,29.52,0,0,0,6.74-9.93l-19-11.21A20.17,20.17,0,0,1,560,483.25Z"/><rect class="cls-1" x="594.78" y="409.81" width="23.27" height="100.76"/><polygon class="cls-1" points="702.49 409.81 702.49 468.98 655.51 409.81 637.35 409.81 637.35 510.56 660.62 510.56 660.62 452.95 707.03 510.56 725.76 510.56 725.76 409.81 702.49 409.81"/><polygon class="cls-1" points="120.12 409.81 223.68 462.47 223.68 510.56 246.96 510.56 246.96 470.83 284.14 470.83 284.14 451.95 246.96 451.95 246.96 430.24 292.08 430.24 292.08 409.81 120.12 409.81"/><path class="cls-1" d="M833.61,457.9H794.73V474.8h19.58v3.12q-10.92,12.65-24.55,12.63a25.37,25.37,0,0,1-10.85-2.27,25,25,0,0,1-8.45-6.31,29.47,29.47,0,0,1-5.53-9.58,35.32,35.32,0,0,1-2-12.06,37.45,37.45,0,0,1,1.84-11.92,30.56,30.56,0,0,1,5.26-9.72,24.16,24.16,0,0,1,8.15-6.53,23.59,23.59,0,0,1,10.56-2.34H873.3L835.76,409.1H788.57v0a49.44,49.44,0,0,0-18.82,3.92,50,50,0,0,0-16,10.79,49.53,49.53,0,0,0-10.58,16,50.64,50.64,0,0,0-3.83,19.59,56.34,56.34,0,0,0,3.83,21.07,49.88,49.88,0,0,0,10.43,16.39A46.84,46.84,0,0,0,769,507.51c5.87,2.51,12,3.05,18.64,3.05h149.5Z"/></g></g></svg>