<svg xmlns="http://www.w3.org/2000/svg" viewBox="0 0 1080 1080"><defs><style>.cls-1{fill:#011627;}.cls-2{fill:#e71d36;}.cls-3{fill:#2ec4b6;}</style></defs><title>fibre_1</title><g id="Calque_2" data-name="Calque 2"><g id="Calque_1-2" data-name="Calque 1"><rect class="cls-1" width="1080" height="1080"/><rect class="cls-2" x="296.84" y="521.46" width="21" height="21" transform="translate(-286.13 373.13) rotate(-45)"/><polygon class="cls-3" points="551.94 231.82 537.09 246.67 397.43 107.01 147.33 357.11 278.22 487.99 290.29 500.07 275.44 514.92 263.37 502.83 117.63 357.11 397.43 77.31 551.94 231.82"/><rect class="cls-2" x="561.78" y="256.52" width="21.01" height="21" transform="translate(-21.3 482.59) rotate(-44.97)"/><rect class="cls-2" x="768.49" y="463.23" width="21" height="21" transform="translate(-106.81 689.58) rotate(-45)"/><rect class="cls-2" x="561.78" y="728.17" width="21" height="21" transform="translate(-354.71 621.01) rotate(-45)"/><rect class="cls-2" x="325.95" y="492.35" width="21" height="21" transform="translate(-257.02 385.19) rotate(-45)"/><polygon class="cls-3" points="521.48 259.59 506.63 274.44 397.43 165.24 205.57 357.11 307.34 458.88 317.25 468.78 302.4 483.64 292.48 473.73 175.86 357.11 397.43 135.54 521.48 259.59"/><rect class="cls-2" x="532.67" y="285.63" width="21" height="21" transform="translate(-50.31 470.81) rotate(-45)"/><rect class="cls-2" x="739.38" y="492.35" width="21" height="21" transform="translate(-135.93 677.53) rotate(-45)"/><rect class="cls-2" x="561.79" y="669.94" width="21" height="21" transform="translate(-313.53 603.97) rotate(-45)"/><rect class="cls-2" x="590.9" y="699.05" width="21" height="21" transform="translate(-325.58 633.08) rotate(-45)"/><rect class="cls-2" x="355.07" y="463.23" width="21" height="21" transform="translate(-227.9 397.25) rotate(-45)"/><polygon class="cls-3" points="494.84 291.19 479.99 306.05 397.43 223.49 263.81 357.11 347.89 441.19 333.04 456.04 234.11 357.11 397.43 193.78 494.84 291.19"/><rect class="cls-2" x="503.55" y="314.75" width="21" height="21" transform="translate(-79.43 458.75) rotate(-45)"/><rect class="cls-2" x="710.26" y="521.46" width="21.01" height="21" transform="translate(-164.99 665.88) rotate(-45.03)"/><polygon class="cls-2" points="822.96 502.85 808.1 517.7 749.87 575.93 735.02 561.08 793.25 502.85 808.12 488 822.96 502.85"/><polygon class="cls-2" points="735.02 561.08 749.87 575.93 543.17 782.63 528.32 767.78 543.17 752.93 735.02 561.08"/><polygon class="cls-2" points="968.7 357.11 822.96 502.85 808.12 488 938.99 357.11 688.91 107.01 169.02 626.89 154.17 612.03 263.37 502.83 278.22 487.99 292.48 473.73 307.34 458.88 321.6 444.6 336.45 429.75 470.07 296.13 484.94 281.28 499.2 267.01 514.04 252.16 528.32 237.9 543.17 223.05 688.91 77.31 968.7 357.11"/><polygon class="cls-2" points="910.46 357.11 793.84 473.73 778.99 488.57 764.73 502.85 749.88 517.7 735.61 531.96 720.76 546.82 587.14 680.44 572.29 695.29 558.02 709.55 543.17 694.7 557.44 680.44 572.29 665.59 705.91 531.97 720.76 517.11 735.04 502.85 749.88 488 764.14 473.73 778.99 458.88 880.76 357.11 688.91 165.24 587.14 267.02 572.28 281.87 336.45 517.7 322.19 531.96 307.34 546.8 198.14 656 183.29 641.15 557.43 267.02 572.29 252.17 688.91 135.54 910.46 357.11"/><polygon class="cls-2" points="409.54 502.85 394.69 517.7 351.31 561.08 336.46 575.93 321.62 561.08 336.46 546.23 350.72 531.97 365.57 517.12 379.85 502.85 394.69 488 409.54 502.85"/><rect class="cls-2" x="197.23" y="612.6" width="154.43" height="21" transform="translate(-360.22 376.56) rotate(-45)"/><polygon class="cls-2" points="616.26 296.14 601.4 310.99 587.14 325.25 572.29 340.1 558.02 354.38 543.17 369.22 528.32 354.38 557.44 325.25 572.29 310.4 586.55 296.14 601.41 281.3 616.26 296.14"/><rect class="cls-3" x="816.24" y="581.72" width="21" height="112.44" transform="translate(-208.96 771.35) rotate(-45)"/><rect class="cls-3" x="845.36" y="552.6" width="21" height="112.44" transform="translate(-179.84 783.42) rotate(-45)"/><polygon class="cls-3" points="852.65 532.53 837.79 547.39 917.3 626.89 932.15 612.03 852.65 532.53"/><polygon class="cls-2" points="227.25 685.05 212.4 670.19 154.17 611.96 169.02 597.11 227.25 655.34 242.1 670.2 227.25 685.05"/><rect class="cls-2" x="158.24" y="630.94" width="21" height="20.53" transform="translate(-403.82 306.85) rotate(-44.97)"/><rect class="cls-2" x="186.96" y="659.66" width="21" height="20.53" transform="translate(-415.71 335.54) rotate(-44.97)"/><rect class="cls-3" x="878.42" y="659.86" width="20.53" height="21" transform="translate(-213.8 824.2) rotate(-44.97)"/><rect class="cls-3" x="907.13" y="631.15" width="20.53" height="21" transform="translate(-185.11 836.1) rotate(-44.97)"/><polygon class="cls-3" points="932.15 612.04 917.29 626.89 859.06 685.12 844.21 670.27 902.44 612.04 917.31 597.19 932.15 612.04"/><polygon class="cls-3" points="528.89 738.67 514.04 723.83 499.79 709.55 484.94 694.7 381 590.76 366.15 605.61 470.09 709.55 484.94 724.4 499.2 738.67 514.04 753.52 528.32 767.78 543.17 752.93 528.89 738.67"/><polygon class="cls-3" points="543.17 694.7 528.89 680.44 514.04 665.59 410.11 561.66 395.26 576.51 499.2 680.44 514.04 695.29 528.32 709.57 543.17 724.41 558.02 709.55 543.17 694.7"/><polygon class="cls-3" points="439.23 532.53 424.38 547.38 424.38 547.38 528.32 651.32 543.17 666.17 543.17 636.47 439.23 532.53"/><polygon class="cls-3" points="691.64 488 587.7 384.06 587.7 384.06 572.85 398.91 676.79 502.85 688.21 512.75 703.06 497.9 691.64 488"/><polygon class="cls-3" points="720.76 458.88 616.83 354.94 601.98 369.79 705.91 473.73 715.55 484.47 730.4 469.62 720.76 458.88"/><polygon class="cls-3" points="749.88 429.77 645.95 325.83 631.09 340.68 735.02 444.62 745.93 455.49 760.79 440.64 749.88 429.77"/><rect class="cls-2" x="374.45" y="418.11" width="188.97" height="21" transform="translate(-165.73 457.12) rotate(-45)"/><polygon class="cls-2" points="852.23 357.11 764.73 444.62 749.87 459.47 543.17 666.17 528.32 651.32 543.17 636.47 735.02 444.62 749.88 429.77 822.53 357.11 688.91 223.49 616.26 296.14 601.41 281.3 688.91 193.79 852.23 357.11"/><rect class="cls-3" x="386.2" y="846.22" width="70.5" height="18.23"/><rect class="cls-3" x="348.8" y="985.03" width="116.01" height="18.23"/><rect class="cls-3" x="386.2" y="846.22" width="18.23" height="157.04"/><polygon class="cls-2" points="687.61 846.22 687.61 933.85 705.84 933.85 705.84 864.45 800.83 864.45 800.83 846.22 687.61 846.22"/><polygon class="cls-2" points="708.25 985.03 710.18 1003.26 800.83 1003.26 800.83 985.03 708.25 985.03"/><polygon class="cls-2" points="280.74 1003.26 262.51 1003.26 262.51 846.22 384.85 846.22 384.85 864.45 280.74 864.45 280.74 1003.26"/><rect class="cls-2" x="271.62" y="915.63" width="69.41" height="18.23"/><rect class="cls-2" x="696.72" y="915.63" width="69.41" height="18.23"/><polygon class="cls-3" points="691.09 1003.26 651.61 924.31 667.92 916.16 705.84 991.99 705.84 1003.26 691.09 1003.26"/><path class="cls-2" d="M601.73,1003.26H479.39v-157H601.73ZM497.62,985H583.5V864.45H497.62Z"/><rect class="cls-2" x="488.5" y="915.63" width="104.11" height="18.23"/><rect class="cls-1" x="517.65" y="631.73" width="28.04" height="13.34" transform="translate(-295.69 562.93) rotate(-45)"/><rect class="cls-1" x="541.21" y="690.61" width="28.04" height="13.34" transform="translate(655.68 -188.38) rotate(45)"/><rect class="cls-1" x="517.2" y="748.79" width="28.04" height="13.34" transform="translate(1441.04 914.02) rotate(135)"/><rect class="cls-1" x="308.25" y="907.08" width="142.56" height="13.34" transform="translate(1293.28 534.22) rotate(90)"/><rect class="cls-1" x="522.79" y="922.97" width="170.6" height="13.34" transform="translate(1537.73 321.56) rotate(90)"/><rect class="cls-1" x="627.21" y="922.97" width="170.6" height="13.34" transform="translate(1642.15 217.14) rotate(90)"/><polygon class="cls-3" points="614.76 846.22 614.76 864.45 687.61 864.45 687.61 915.63 614.76 915.63 614.76 933.85 705.84 933.85 705.84 846.22 614.76 846.22"/></g></g></svg>