<svg xmlns="http://www.w3.org/2000/svg" viewBox="0 0 400 350.94"><defs><style>.cls-1{fill:#fff;}</style></defs><title>floraligne_1</title><g id="Calque_2" data-name="Calque 2"><g id="Calque_2-2" data-name="Calque 2"><rect y="173.31" width="400" height="177.62"/><path d="M25.89,61.45H47.34v4.19H30.17V79.06H47.34v4.19H30.17v21H25.89Z"/><path d="M54.79,61.45h4.28v38.68H75.54v4.13H54.79Z"/><path d="M102.71,60.37A22.23,22.23,0,0,1,119,66.86a21.63,21.63,0,0,1,6.56,16,22.35,22.35,0,0,1-22.49,22.5A21.91,21.91,0,0,1,87,98.82a21.46,21.46,0,0,1-6.55-15.77,22.8,22.8,0,0,1,3-11.44,21.58,21.58,0,0,1,8.14-8.25A21.85,21.85,0,0,1,102.71,60.37Zm.19,4.16a18.27,18.27,0,0,0-15.65,9.15A18.48,18.48,0,0,0,84.86,83a18,18,0,0,0,18,18.15,18.36,18.36,0,0,0,9.23-2.42,17.3,17.3,0,0,0,6.62-6.61,18.62,18.62,0,0,0,2.37-9.32,18.16,18.16,0,0,0-2.37-9.22,17.82,17.82,0,0,0-6.69-6.6A18.14,18.14,0,0,0,102.9,64.53Z"/><path d="M134.37,61.45h8.52a51.68,51.68,0,0,1,9.67.58,11,11,0,0,1,6.2,3.75,10.67,10.67,0,0,1,2.38,7.06A11.44,11.44,0,0,1,159.5,79a10.24,10.24,0,0,1-4.7,4,21.69,21.69,0,0,1-8.44,1.38l15.39,19.88h-5.29l-15.4-19.88h-2.42v19.88h-4.27Zm4.27,4.19V80.19l7.38.06a18.43,18.43,0,0,0,6.34-.81,6.63,6.63,0,0,0,3.21-2.61,7.3,7.3,0,0,0,1.15-4,6.94,6.94,0,0,0-1.17-3.92,6.5,6.5,0,0,0-3.06-2.51,18.43,18.43,0,0,0-6.3-.76Z"/><path d="M187.8,61.45l20,42.81h-4.62l-6.73-14.08H178l-6.67,14.08h-4.77l20.23-42.81Zm-.54,9.1L179.93,86h14.63Z"/><path d="M214.41,61.45h4.28v38.68h16.47v4.13H214.41Z"/><path d="M241.33,61.45h4.28v42.81h-4.28Z"/><path d="M296.72,68.64l-3.32,3.14a25.3,25.3,0,0,0-7.84-5.34,21.21,21.21,0,0,0-8.31-1.82,19.78,19.78,0,0,0-9.59,2.48,17.89,17.89,0,0,0-7.06,6.7,17.33,17.33,0,0,0-2.5,9,17.65,17.65,0,0,0,2.59,9.19,18.34,18.34,0,0,0,7.16,6.84,20.55,20.55,0,0,0,10,2.49A17.16,17.16,0,0,0,289,97.54a14.69,14.69,0,0,0,5.41-9.66H280.8V83.74h18.45q-.06,9.93-5.89,15.77t-15.62,5.83q-11.87,0-18.8-8.09a21.52,21.52,0,0,1-5.33-14.41,22.06,22.06,0,0,1,3.06-11.32,21.76,21.76,0,0,1,8.38-8.19,24.42,24.42,0,0,1,12.05-3,26.81,26.81,0,0,1,10.25,2A30.65,30.65,0,0,1,296.72,68.64Z"/><path d="M307.43,104.26V61.45h.93l28.5,32.82V61.45h4.22v42.81h-1L311.85,71.84v32.42Z"/><path d="M351.53,61.45h24.53v4.19H355.8V79.06h20.09v4.19H355.8v16.82h20.09v4.19H351.53Z"/><path d="M207.64,20.8c0-2.72-2.88-5-6.78-5.67,1.78-3,2-6.22.23-8s-5.3-1.51-8.45.54c-.46-4.36-2.87-7.7-5.8-7.7S181.5,3.34,181,7.7c-3.15-2-6.59-2.4-8.44-.54s-1.56,4.95.23,8c-3.9.69-6.78,2.95-6.78,5.67,0,2.93,3.34,5.34,7.7,5.81-2.06,3.15-2.4,6.59-.55,8.44s5,1.56,8-.23c.69,3.9,3,6.78,5.67,6.78s5.14-3.05,5.74-7.14c3.17,2.1,6.65,2.46,8.51.59s1.5-5.34-.59-8.51C204.59,25.94,207.64,23.6,207.64,20.8Z"/><path d="M197.85,39.57c-.21,0-.42,0-.63,0l-29.72,62.7,3.66,1.73,31.1-65.61A8,8,0,0,1,197.85,39.57Z"/><rect x="19.65" y="111.97" width="362.64" height="3.31"/><path d="M62.11,121.8h1.58v17.07H62.11Z"/><path d="M79.25,126.55v12.32H77.69v-2.12a6.66,6.66,0,0,1-2.23,1.82,6.26,6.26,0,0,1-7.18-1.28,6.38,6.38,0,0,1-1.85-4.61,6.21,6.21,0,0,1,1.87-4.55,6,6,0,0,1,4.49-1.9,5.84,5.84,0,0,1,2.75.65,6.24,6.24,0,0,1,2.15,1.94v-2.27Zm-6.33,1.21a4.82,4.82,0,0,0-2.44.65,4.75,4.75,0,0,0-1.78,1.83,5,5,0,0,0,0,5,4.92,4.92,0,0,0,1.8,1.85,4.67,4.67,0,0,0,2.41.66,4.93,4.93,0,0,0,2.47-.65,4.64,4.64,0,0,0,1.79-1.78,5,5,0,0,0,.62-2.52,4.89,4.89,0,0,0-1.4-3.57A4.67,4.67,0,0,0,72.92,127.76Z"/><path d="M94.31,121.8v1.55a3.89,3.89,0,0,0-1.5-.37,1.47,1.47,0,0,0-.76.18.83.83,0,0,0-.39.43,6.18,6.18,0,0,0-.08,1.3v1.66h2.57v1.37H91.58v11H90v-11H88.37v-1.37H90v-1.92a5.27,5.27,0,0,1,.24-1.89,1.94,1.94,0,0,1,.82-.91,2.73,2.73,0,0,1,1.41-.35A6.77,6.77,0,0,1,94.31,121.8Z"/><path d="M96.28,121.8h1.58v17.07H96.28Z"/><path d="M107,126.23a6.07,6.07,0,0,1,4.71,2.07,6.61,6.61,0,0,1-.09,8.95,6.52,6.52,0,0,1-9.26,0,6.43,6.43,0,0,1-1.79-4.51,6.35,6.35,0,0,1,1.7-4.43A6.09,6.09,0,0,1,107,126.23Zm0,1.56a4.56,4.56,0,0,0-3.4,1.46,4.9,4.9,0,0,0-1.42,3.53,5,5,0,0,0,.65,2.49,4.61,4.61,0,0,0,1.75,1.78,5,5,0,0,0,4.84,0,4.61,4.61,0,0,0,1.75-1.78,5,5,0,0,0,.65-2.49,4.87,4.87,0,0,0-1.43-3.53A4.55,4.55,0,0,0,107,127.79Z"/><path d="M115.74,126.55h1.61v1.8a5.85,5.85,0,0,1,1.53-1.59,3.05,3.05,0,0,1,1.68-.53,3,3,0,0,1,1.4.42l-.82,1.34a2.37,2.37,0,0,0-.84-.22,2.28,2.28,0,0,0-1.53.66,4.09,4.09,0,0,0-1.12,2,19,19,0,0,0-.3,4.25v4.17h-1.61Z"/><path d="M133.68,134.78l1.33.7a7.28,7.28,0,0,1-1.52,2.09,6.07,6.07,0,0,1-1.93,1.2,6.68,6.68,0,0,1-2.44.41,5.86,5.86,0,0,1-4.71-2,6.7,6.7,0,0,1-1.7-4.47,6.56,6.56,0,0,1,1.44-4.17,5.86,5.86,0,0,1,4.88-2.34,6.08,6.08,0,0,1,5,2.39,6.72,6.72,0,0,1,1.36,4.21H124.34a5,5,0,0,0,1.37,3.52,4.35,4.35,0,0,0,3.27,1.37,5.52,5.52,0,0,0,1.84-.32,4.94,4.94,0,0,0,1.51-.87A7.59,7.59,0,0,0,133.68,134.78Zm0-3.32a5.27,5.27,0,0,0-.93-2,4.32,4.32,0,0,0-1.6-1.22,4.92,4.92,0,0,0-2.1-.47,4.49,4.49,0,0,0-3.11,1.17,5.15,5.15,0,0,0-1.44,2.54Z"/><path d="M157.06,126.55v12.32H155.5v-2.12a6.6,6.6,0,0,1-2.24,1.82,6.25,6.25,0,0,1-7.17-1.28,6.34,6.34,0,0,1-1.85-4.61,6.21,6.21,0,0,1,1.87-4.55,6,6,0,0,1,4.49-1.9,5.8,5.8,0,0,1,2.74.65,6.27,6.27,0,0,1,2.16,1.94v-2.27Zm-6.33,1.21a4.77,4.77,0,0,0-4.22,2.48,4.94,4.94,0,0,0,0,5,4.9,4.9,0,0,0,1.79,1.85,4.71,4.71,0,0,0,2.42.66,4.9,4.9,0,0,0,2.46-.65,4.51,4.51,0,0,0,1.79-1.78,5,5,0,0,0,.63-2.52,4.9,4.9,0,0,0-1.41-3.57A4.63,4.63,0,0,0,150.73,127.76Zm-.48-7,2.47,3.49h-1.57l-3.34-3.49Z"/><path d="M167.07,126.55h1.58v2.27a6.46,6.46,0,0,1,2.16-1.94,5.79,5.79,0,0,1,2.73-.65,6.06,6.06,0,0,1,4.49,1.9,6.24,6.24,0,0,1,1.86,4.55,6.34,6.34,0,0,1-1.85,4.61,6,6,0,0,1-4.46,1.89,6,6,0,0,1-2.7-.61,6.76,6.76,0,0,1-2.23-1.82v6.62h-1.58Zm6.34,1.21A4.63,4.63,0,0,0,170,129.2a4.9,4.9,0,0,0-1.41,3.57,5,5,0,0,0,.63,2.52,4.51,4.51,0,0,0,1.79,1.78,4.93,4.93,0,0,0,2.47.65,4.67,4.67,0,0,0,2.4-.66,4.9,4.9,0,0,0,1.79-1.85,4.94,4.94,0,0,0,0-5,4.74,4.74,0,0,0-4.21-2.48Z"/><path d="M188.69,126.23a6.07,6.07,0,0,1,4.71,2.07,6.58,6.58,0,0,1-.09,8.95,6.51,6.51,0,0,1-9.25,0,6.59,6.59,0,0,1-.1-8.94A6.11,6.11,0,0,1,188.69,126.23Zm0,1.56a4.52,4.52,0,0,0-3.39,1.46,4.86,4.86,0,0,0-1.42,3.53,5,5,0,0,0,.64,2.49,4.61,4.61,0,0,0,1.75,1.78,5,5,0,0,0,4.84,0,4.54,4.54,0,0,0,1.75-1.78,5,5,0,0,0,.65-2.49,4.87,4.87,0,0,0-1.43-3.53A4.55,4.55,0,0,0,188.68,127.79Z"/><path d="M197.44,126.55h1.62v1.8a5.68,5.68,0,0,1,1.52-1.59,3.05,3.05,0,0,1,1.68-.53,3,3,0,0,1,1.4.42l-.82,1.34a2.37,2.37,0,0,0-.84-.22,2.28,2.28,0,0,0-1.53.66,4.09,4.09,0,0,0-1.12,2,19.18,19.18,0,0,0-.29,4.25v4.17h-1.62Z"/><path d="M206.39,122H208v4.57h2.52v1.37H208v11h-1.58v-11h-2.16v-1.37h2.16Z"/><path d="M223.23,134.78l1.34.7a7.47,7.47,0,0,1-1.52,2.09,6,6,0,0,1-1.94,1.2,6.62,6.62,0,0,1-2.43.41,5.9,5.9,0,0,1-4.72-2,6.7,6.7,0,0,1-1.7-4.47,6.56,6.56,0,0,1,1.44-4.17,5.89,5.89,0,0,1,4.89-2.34,6.09,6.09,0,0,1,5,2.39,6.72,6.72,0,0,1,1.36,4.21H213.89a5,5,0,0,0,1.38,3.52,4.33,4.33,0,0,0,3.27,1.37,5.42,5.42,0,0,0,1.83-.32,4.83,4.83,0,0,0,1.51-.87A7.08,7.08,0,0,0,223.23,134.78Zm0-3.32a5.26,5.26,0,0,0-.92-2,4.4,4.4,0,0,0-1.6-1.22,5,5,0,0,0-2.1-.47,4.51,4.51,0,0,0-3.12,1.17,5.3,5.3,0,0,0-1.44,2.54Zm-3.81-10.68h2.43l-3.34,3.49H217Z"/><path d="M238.3,134.78l1.33.7a7.26,7.26,0,0,1-1.51,2.09,6.11,6.11,0,0,1-1.94,1.2,6.68,6.68,0,0,1-2.44.41,5.86,5.86,0,0,1-4.71-2,6.7,6.7,0,0,1-1.7-4.47,6.56,6.56,0,0,1,1.44-4.17,5.86,5.86,0,0,1,4.88-2.34,6.08,6.08,0,0,1,5,2.39,6.66,6.66,0,0,1,1.36,4.21H229a5,5,0,0,0,1.37,3.52,4.37,4.37,0,0,0,3.28,1.37,5.51,5.51,0,0,0,1.83-.32,4.94,4.94,0,0,0,1.51-.87A7.08,7.08,0,0,0,238.3,134.78Zm0-3.32a5.12,5.12,0,0,0-.93-2,4.24,4.24,0,0,0-1.6-1.22,4.88,4.88,0,0,0-2.1-.47,4.51,4.51,0,0,0-3.11,1.17,5.15,5.15,0,0,0-1.44,2.54Z"/><path d="M261.71,121.8v17.07h-1.57v-2.12a6.57,6.57,0,0,1-2.23,1.82,6.26,6.26,0,0,1-7.18-1.28,6.38,6.38,0,0,1-1.85-4.61,6.21,6.21,0,0,1,1.87-4.55,6,6,0,0,1,4.49-1.9,5.84,5.84,0,0,1,2.75.65,6.16,6.16,0,0,1,2.15,1.94v-7Zm-6.34,6a4.82,4.82,0,0,0-2.44.65,4.75,4.75,0,0,0-1.78,1.83,5,5,0,0,0,0,5,4.83,4.83,0,0,0,1.79,1.85,4.67,4.67,0,0,0,2.41.66,4.93,4.93,0,0,0,2.47-.65,4.64,4.64,0,0,0,1.79-1.78,5,5,0,0,0,.63-2.52,4.9,4.9,0,0,0-1.41-3.57A4.66,4.66,0,0,0,255.37,127.76Z"/><path d="M275.66,134.78l1.34.7a7.47,7.47,0,0,1-1.52,2.09,6,6,0,0,1-1.94,1.2,6.62,6.62,0,0,1-2.43.41,5.9,5.9,0,0,1-4.72-2,6.7,6.7,0,0,1-1.7-4.47,6.56,6.56,0,0,1,1.44-4.17,5.89,5.89,0,0,1,4.89-2.34,6.09,6.09,0,0,1,5,2.39,6.72,6.72,0,0,1,1.36,4.21H266.32a5,5,0,0,0,1.38,3.52,4.33,4.33,0,0,0,3.27,1.37,5.42,5.42,0,0,0,1.83-.32,4.83,4.83,0,0,0,1.51-.87A7.08,7.08,0,0,0,275.66,134.78Zm0-3.32a5.26,5.26,0,0,0-.92-2,4.4,4.4,0,0,0-1.6-1.22,5,5,0,0,0-2.1-.47,4.51,4.51,0,0,0-3.12,1.17,5.3,5.3,0,0,0-1.44,2.54Z"/><path d="M286.77,126.55h1.58v2.13a6.17,6.17,0,0,1,1.7-1.72,4.84,4.84,0,0,1,2.53-.73,4.12,4.12,0,0,1,1.7.36,3.62,3.62,0,0,1,1.31.93,5,5,0,0,1,.89,1.67,5.73,5.73,0,0,1,2-2.2,4.69,4.69,0,0,1,2.55-.76,4,4,0,0,1,2.26.65,3.87,3.87,0,0,1,1.45,1.8,9.74,9.74,0,0,1,.47,3.46v6.73h-1.62v-6.73a8.75,8.75,0,0,0-.28-2.72,2.48,2.48,0,0,0-1-1.19,2.84,2.84,0,0,0-1.63-.46,3.59,3.59,0,0,0-2.11.68,4,4,0,0,0-1.39,1.81,11.64,11.64,0,0,0-.44,3.79v4.82h-1.58v-6.31a10.89,10.89,0,0,0-.28-3,2.6,2.6,0,0,0-1-1.29,2.81,2.81,0,0,0-1.64-.48,3.59,3.59,0,0,0-2.06.67,4,4,0,0,0-1.41,1.78,9.51,9.51,0,0,0-.46,3.43v5.22h-1.58Z"/><path d="M320.79,126.55v12.32h-1.56v-2.12a6.6,6.6,0,0,1-2.24,1.82,6.25,6.25,0,0,1-7.17-1.28,6.34,6.34,0,0,1-1.85-4.61,6.21,6.21,0,0,1,1.87-4.55,6,6,0,0,1,4.49-1.9,5.8,5.8,0,0,1,2.74.65,6.27,6.27,0,0,1,2.16,1.94v-2.27Zm-6.33,1.21a4.77,4.77,0,0,0-4.22,2.48,4.94,4.94,0,0,0,0,5,4.9,4.9,0,0,0,1.79,1.85,4.71,4.71,0,0,0,2.42.66,4.9,4.9,0,0,0,2.46-.65,4.51,4.51,0,0,0,1.79-1.78,5,5,0,0,0,.63-2.52,4.9,4.9,0,0,0-1.41-3.57A4.63,4.63,0,0,0,314.46,127.76Z"/><path d="M324.91,121.48a1.31,1.31,0,0,1,0,2.62,1.25,1.25,0,0,1-.92-.39,1.3,1.3,0,0,1,0-1.84A1.25,1.25,0,0,1,324.91,121.48Zm-.79,5.07h1.58v12.32h-1.58Z"/><path d="M329,126.55h1.58v2.21a6.79,6.79,0,0,1,2.11-1.9,5.17,5.17,0,0,1,2.51-.63,4.35,4.35,0,0,1,2.45.71,4.12,4.12,0,0,1,1.58,1.89,10,10,0,0,1,.51,3.7v6.34h-1.58V133a14.19,14.19,0,0,0-.18-2.84,3.12,3.12,0,0,0-1.06-1.84,3.19,3.19,0,0,0-2-.61,3.89,3.89,0,0,0-2.58,1,4.43,4.43,0,0,0-1.5,2.35,16.37,16.37,0,0,0-.23,3.35v4.52H329Z"/><path d="M176.45,39.58a8,8,0,0,1-4-1l30.66,65.35,3.66-1.72L177.34,39.52A8.67,8.67,0,0,1,176.45,39.58Z"/><path class="cls-1" d="M24.78,251.35H46.23v4.19H29.06V269H46.23v4.19H29.06v21H24.78Z"/><path class="cls-1" d="M53.68,251.35H58V290H74.43v4.13H53.68Z"/><path class="cls-1" d="M101.6,250.27a22.23,22.23,0,0,1,16.28,6.49A22.51,22.51,0,0,1,102,295.24a21.91,21.91,0,0,1-16.08-6.52A21.46,21.46,0,0,1,79.32,273a22.8,22.8,0,0,1,3-11.44,21.58,21.58,0,0,1,8.14-8.25A21.85,21.85,0,0,1,101.6,250.27Zm.19,4.16a18.27,18.27,0,0,0-15.65,9.15,18.48,18.48,0,0,0-2.39,9.35,18,18,0,0,0,18,18.15,18.36,18.36,0,0,0,9.23-2.42,17.3,17.3,0,0,0,6.62-6.61,18.62,18.62,0,0,0,2.37-9.32,18.16,18.16,0,0,0-2.37-9.22,17.82,17.82,0,0,0-6.69-6.6A18.14,18.14,0,0,0,101.79,254.43Z"/><path class="cls-1" d="M133.26,251.35h8.52a51.68,51.68,0,0,1,9.67.58,11,11,0,0,1,6.2,3.75,10.67,10.67,0,0,1,2.38,7.06,11.36,11.36,0,0,1-1.64,6.15,10.24,10.24,0,0,1-4.7,4,21.5,21.5,0,0,1-8.44,1.38l15.39,19.88h-5.29L140,274.28h-2.42v19.88h-4.27Zm4.27,4.19v14.55l7.38.06a18.43,18.43,0,0,0,6.34-.81,6.63,6.63,0,0,0,3.21-2.61,7.22,7.22,0,0,0,1.15-4,6.94,6.94,0,0,0-1.17-3.92,6.41,6.41,0,0,0-3.06-2.51,18.43,18.43,0,0,0-6.3-.76Z"/><path class="cls-1" d="M186.69,251.35l20,42.81H202l-6.73-14.08H176.86l-6.67,14.08h-4.77l20.23-42.81Zm-.54,9.1-7.33,15.49h14.64Z"/><path class="cls-1" d="M213.3,251.35h4.28V290h16.47v4.13H213.3Z"/><path class="cls-1" d="M240.22,251.35h4.28v42.81h-4.28Z"/><path class="cls-1" d="M295.61,258.54l-3.32,3.14a25.3,25.3,0,0,0-7.84-5.34,21.21,21.21,0,0,0-8.31-1.82,19.78,19.78,0,0,0-9.59,2.48,17.89,17.89,0,0,0-7.06,6.7,17.33,17.33,0,0,0-2.5,8.95,17.65,17.65,0,0,0,2.59,9.19,18.34,18.34,0,0,0,7.16,6.84,20.55,20.55,0,0,0,10,2.49,17.16,17.16,0,0,0,11.18-3.73,14.69,14.69,0,0,0,5.41-9.66H279.69v-4.14h18.45q-.06,9.93-5.89,15.77t-15.62,5.83q-11.86,0-18.8-8.09a21.52,21.52,0,0,1-5.33-14.41,22.06,22.06,0,0,1,3.06-11.32,21.76,21.76,0,0,1,8.38-8.19,24.42,24.42,0,0,1,12.05-3,26.81,26.81,0,0,1,10.25,2A30.65,30.65,0,0,1,295.61,258.54Z"/><path class="cls-1" d="M306.32,294.16V251.35h.93l28.5,32.82V251.35H340v42.81h-1l-28.27-32.42v32.42Z"/><path class="cls-1" d="M350.42,251.35H375v4.19H354.7V269h20.08v4.19H354.7V290h20.08v4.19H350.42Z"/><path class="cls-1" d="M206.53,210.7c0-2.72-2.88-5-6.78-5.67,1.78-3,2-6.22.23-8s-5.29-1.51-8.45.54c-.46-4.36-2.87-7.7-5.8-7.7s-5.34,3.34-5.81,7.7c-3.15-2-6.59-2.4-8.44-.54s-1.56,5,.23,8c-3.9.69-6.78,2.95-6.78,5.67,0,2.93,3.34,5.34,7.7,5.81-2.06,3.15-2.4,6.59-.55,8.44s5,1.56,8-.23c.69,3.9,2.95,6.78,5.67,6.78s5.14-3.05,5.74-7.14c3.17,2.1,6.65,2.46,8.51.59s1.5-5.34-.59-8.51C203.48,215.84,206.53,213.5,206.53,210.7Z"/><path class="cls-1" d="M196.74,229.47c-.2,0-.42,0-.63-.05l-29.72,62.7,3.66,1.73,31.1-65.61A8,8,0,0,1,196.74,229.47Z"/><rect class="cls-1" x="18.54" y="301.87" width="362.64" height="3.31"/><path class="cls-1" d="M61,311.7h1.58v17.07H61Z"/><path class="cls-1" d="M78.15,316.45v12.32H76.58v-2.12a6.66,6.66,0,0,1-2.23,1.82,6.26,6.26,0,0,1-7.18-1.28,6.38,6.38,0,0,1-1.85-4.61A6.21,6.21,0,0,1,67.19,318a6,6,0,0,1,4.49-1.89,5.84,5.84,0,0,1,2.75.64,6.24,6.24,0,0,1,2.15,1.94v-2.27Zm-6.34,1.21a4.82,4.82,0,0,0-2.44.65,4.75,4.75,0,0,0-1.78,1.83,5,5,0,0,0,0,5A4.76,4.76,0,0,0,69.39,327a4.67,4.67,0,0,0,2.41.66,4.93,4.93,0,0,0,2.47-.65,4.64,4.64,0,0,0,1.79-1.78,5,5,0,0,0,.63-2.52,4.9,4.9,0,0,0-1.41-3.57A4.67,4.67,0,0,0,71.81,317.66Z"/><path class="cls-1" d="M93.2,311.7v1.55a3.89,3.89,0,0,0-1.49-.37,1.49,1.49,0,0,0-.77.18.83.83,0,0,0-.39.43,6.18,6.18,0,0,0-.08,1.3v1.66H93v1.37H90.47v10.95H88.88V317.82H87.26v-1.37h1.62v-1.92a5.27,5.27,0,0,1,.24-1.89,1.92,1.92,0,0,1,.83-.91,2.67,2.67,0,0,1,1.4-.35A6.77,6.77,0,0,1,93.2,311.7Z"/><path class="cls-1" d="M95.17,311.7h1.58v17.07H95.17Z"/><path class="cls-1" d="M105.88,316.14a6.06,6.06,0,0,1,4.71,2.06,6.62,6.62,0,0,1-.09,9,6.53,6.53,0,0,1-9.25,0,6.43,6.43,0,0,1-1.8-4.52,6.35,6.35,0,0,1,1.7-4.43A6.1,6.1,0,0,1,105.88,316.14Zm0,1.55a4.56,4.56,0,0,0-3.4,1.46,4.89,4.89,0,0,0-1.41,3.53,5,5,0,0,0,.64,2.49,4.61,4.61,0,0,0,1.75,1.78,5,5,0,0,0,4.84,0,4.54,4.54,0,0,0,1.75-1.78,5,5,0,0,0,.65-2.49,4.87,4.87,0,0,0-1.43-3.53A4.55,4.55,0,0,0,105.87,317.69Z"/><path class="cls-1" d="M114.63,316.45h1.62v1.8a5.68,5.68,0,0,1,1.52-1.59,3,3,0,0,1,1.68-.52,3,3,0,0,1,1.4.41l-.82,1.34a2.37,2.37,0,0,0-.84-.22,2.28,2.28,0,0,0-1.53.66,4.09,4.09,0,0,0-1.12,2,19.18,19.18,0,0,0-.29,4.25v4.17h-1.62Z"/><path class="cls-1" d="M132.57,324.68l1.33.7a7.28,7.28,0,0,1-1.52,2.09,6,6,0,0,1-1.93,1.2,6.68,6.68,0,0,1-2.44.41,5.86,5.86,0,0,1-4.71-2,6.7,6.7,0,0,1-1.7-4.47,6.56,6.56,0,0,1,1.44-4.17,5.85,5.85,0,0,1,4.88-2.33,6.07,6.07,0,0,1,5,2.38,6.66,6.66,0,0,1,1.36,4.21H123.23a5,5,0,0,0,1.37,3.52,4.36,4.36,0,0,0,3.28,1.37,5.51,5.51,0,0,0,1.83-.32,4.94,4.94,0,0,0,1.51-.87A7.59,7.59,0,0,0,132.57,324.68Zm0-3.32a5.12,5.12,0,0,0-.93-2,4.32,4.32,0,0,0-1.6-1.22,4.88,4.88,0,0,0-2.1-.47,4.49,4.49,0,0,0-3.11,1.17,5.15,5.15,0,0,0-1.44,2.54Z"/><path class="cls-1" d="M156,316.45v12.32h-1.56v-2.12a6.6,6.6,0,0,1-2.24,1.82,6.25,6.25,0,0,1-7.17-1.28,6.34,6.34,0,0,1-1.85-4.61A6.21,6.21,0,0,1,145,318a6,6,0,0,1,4.49-1.89,5.77,5.77,0,0,1,2.74.64,6.27,6.27,0,0,1,2.16,1.94v-2.27Zm-6.33,1.21a4.77,4.77,0,0,0-4.22,2.48,5,5,0,0,0,0,5,4.83,4.83,0,0,0,1.79,1.85,4.71,4.71,0,0,0,2.42.66,4.9,4.9,0,0,0,2.46-.65,4.51,4.51,0,0,0,1.79-1.78,5,5,0,0,0,.63-2.52,4.9,4.9,0,0,0-1.41-3.57A4.63,4.63,0,0,0,149.62,317.66Zm-.48-7,2.47,3.49H150l-3.34-3.49Z"/><path class="cls-1" d="M166,316.45h1.58v2.27a6.46,6.46,0,0,1,2.16-1.94,5.78,5.78,0,0,1,2.73-.64,6.05,6.05,0,0,1,4.49,1.89,6.24,6.24,0,0,1,1.86,4.55,6.34,6.34,0,0,1-1.85,4.61,6,6,0,0,1-4.46,1.89,6,6,0,0,1-2.7-.61,6.76,6.76,0,0,1-2.23-1.82v6.62H166Zm6.34,1.21a4.63,4.63,0,0,0-3.46,1.44,4.9,4.9,0,0,0-1.41,3.57,5,5,0,0,0,.63,2.52,4.51,4.51,0,0,0,1.79,1.78,4.93,4.93,0,0,0,2.47.65,4.67,4.67,0,0,0,2.4-.66,4.83,4.83,0,0,0,1.79-1.85,5,5,0,0,0,0-5,4.89,4.89,0,0,0-1.78-1.83A4.82,4.82,0,0,0,172.3,317.66Z"/><path class="cls-1" d="M187.58,316.14a6,6,0,0,1,4.71,2.06,6.6,6.6,0,0,1-.09,9,6.53,6.53,0,0,1-9.25,0,6.6,6.6,0,0,1-.1-9A6.1,6.1,0,0,1,187.58,316.14Zm0,1.55a4.52,4.52,0,0,0-3.39,1.46,4.86,4.86,0,0,0-1.42,3.53,5,5,0,0,0,.64,2.49,4.68,4.68,0,0,0,1.75,1.78,5,5,0,0,0,4.84,0,4.54,4.54,0,0,0,1.75-1.78,5,5,0,0,0,.65-2.49,4.87,4.87,0,0,0-1.43-3.53A4.55,4.55,0,0,0,187.57,317.69Z"/><path class="cls-1" d="M196.33,316.45H198v1.8a5.68,5.68,0,0,1,1.52-1.59,3,3,0,0,1,1.68-.52,3,3,0,0,1,1.4.41l-.82,1.34a2.32,2.32,0,0,0-.84-.22,2.28,2.28,0,0,0-1.53.66,4.09,4.09,0,0,0-1.12,2,19.18,19.18,0,0,0-.29,4.25v4.17h-1.62Z"/><path class="cls-1" d="M205.28,311.88h1.59v4.57h2.51v1.37h-2.51v10.95h-1.59V317.82h-2.16v-1.37h2.16Z"/><path class="cls-1" d="M222.12,324.68l1.34.7a7.47,7.47,0,0,1-1.52,2.09,6,6,0,0,1-1.94,1.2,6.62,6.62,0,0,1-2.43.41,5.9,5.9,0,0,1-4.72-2,6.69,6.69,0,0,1-1.69-4.47,6.55,6.55,0,0,1,1.43-4.17,5.88,5.88,0,0,1,4.89-2.33,6.08,6.08,0,0,1,5,2.38,6.72,6.72,0,0,1,1.36,4.21H212.79a5,5,0,0,0,1.37,3.52,4.33,4.33,0,0,0,3.27,1.37,5.42,5.42,0,0,0,1.83-.32,5,5,0,0,0,1.52-.87A7.33,7.33,0,0,0,222.12,324.68Zm0-3.32a5.26,5.26,0,0,0-.92-2,4.32,4.32,0,0,0-1.6-1.22,5,5,0,0,0-2.1-.47,4.51,4.51,0,0,0-3.12,1.17,5.3,5.3,0,0,0-1.44,2.54Zm-3.81-10.68h2.43l-3.34,3.49h-1.56Z"/><path class="cls-1" d="M237.19,324.68l1.33.7a7.26,7.26,0,0,1-1.51,2.09,6.11,6.11,0,0,1-1.94,1.2,6.68,6.68,0,0,1-2.44.41,5.86,5.86,0,0,1-4.71-2,6.7,6.7,0,0,1-1.7-4.47,6.56,6.56,0,0,1,1.44-4.17,5.86,5.86,0,0,1,4.88-2.33,6.07,6.07,0,0,1,5,2.38,6.66,6.66,0,0,1,1.36,4.21H227.85a5,5,0,0,0,1.37,3.52,4.37,4.37,0,0,0,3.28,1.37,5.51,5.51,0,0,0,1.83-.32,4.83,4.83,0,0,0,1.51-.87A7.08,7.08,0,0,0,237.19,324.68Zm0-3.32a5.26,5.26,0,0,0-.92-2,4.35,4.35,0,0,0-1.61-1.22,4.87,4.87,0,0,0-2.09-.47,4.51,4.51,0,0,0-3.12,1.17,5.15,5.15,0,0,0-1.44,2.54Z"/><path class="cls-1" d="M260.6,311.7v17.07H259v-2.12a6.7,6.7,0,0,1-2.24,1.82,6.26,6.26,0,0,1-7.18-1.28,6.38,6.38,0,0,1-1.85-4.61,6.25,6.25,0,0,1,1.87-4.55,6.05,6.05,0,0,1,4.49-1.89,5.81,5.81,0,0,1,2.75.64,6.27,6.27,0,0,1,2.16,1.94v-7Zm-6.34,6a4.77,4.77,0,0,0-4.22,2.48,5,5,0,0,0,0,5,4.76,4.76,0,0,0,1.79,1.85,4.67,4.67,0,0,0,2.41.66,4.93,4.93,0,0,0,2.47-.65,4.64,4.64,0,0,0,1.79-1.78,5,5,0,0,0,.63-2.52,4.9,4.9,0,0,0-1.41-3.57A4.66,4.66,0,0,0,254.26,317.66Z"/><path class="cls-1" d="M274.55,324.68l1.34.7a7.47,7.47,0,0,1-1.52,2.09,6,6,0,0,1-1.94,1.2,6.62,6.62,0,0,1-2.43.41,5.9,5.9,0,0,1-4.72-2,6.69,6.69,0,0,1-1.69-4.47,6.55,6.55,0,0,1,1.43-4.17,5.88,5.88,0,0,1,4.89-2.33,6.08,6.08,0,0,1,5,2.38,6.72,6.72,0,0,1,1.36,4.21H265.22a5,5,0,0,0,1.37,3.52,4.33,4.33,0,0,0,3.27,1.37,5.42,5.42,0,0,0,1.83-.32,4.83,4.83,0,0,0,1.51-.87A7.08,7.08,0,0,0,274.55,324.68Zm0-3.32a5.26,5.26,0,0,0-.92-2,4.32,4.32,0,0,0-1.6-1.22,5,5,0,0,0-2.1-.47,4.51,4.51,0,0,0-3.12,1.17,5.3,5.3,0,0,0-1.44,2.54Z"/><path class="cls-1" d="M285.66,316.45h1.58v2.13a6.17,6.17,0,0,1,1.7-1.72,4.86,4.86,0,0,1,2.53-.72,4.11,4.11,0,0,1,1.7.35,3.54,3.54,0,0,1,1.31.93,5,5,0,0,1,.89,1.67,5.73,5.73,0,0,1,2-2.2,4.69,4.69,0,0,1,2.56-.75,4,4,0,0,1,2.25.64,3.87,3.87,0,0,1,1.45,1.8,9.51,9.51,0,0,1,.47,3.46v6.73h-1.62V322a8.75,8.75,0,0,0-.28-2.72,2.43,2.43,0,0,0-1-1.19,2.84,2.84,0,0,0-1.63-.46,3.59,3.59,0,0,0-2.11.68,4,4,0,0,0-1.39,1.81,11.64,11.64,0,0,0-.44,3.79v4.82h-1.58v-6.31a10.89,10.89,0,0,0-.28-3,2.6,2.6,0,0,0-1-1.29,2.81,2.81,0,0,0-1.64-.48,3.53,3.53,0,0,0-2.05.67,3.91,3.91,0,0,0-1.42,1.78,9.51,9.51,0,0,0-.46,3.43v5.22h-1.58Z"/><path class="cls-1" d="M319.68,316.45v12.32h-1.56v-2.12a6.66,6.66,0,0,1-2.23,1.82,6.26,6.26,0,0,1-7.18-1.28,6.34,6.34,0,0,1-1.85-4.61,6.21,6.21,0,0,1,1.87-4.55,6,6,0,0,1,4.49-1.89,5.77,5.77,0,0,1,2.74.64,6.27,6.27,0,0,1,2.16,1.94v-2.27Zm-6.33,1.21a4.77,4.77,0,0,0-4.22,2.48,5,5,0,0,0,0,5,4.83,4.83,0,0,0,1.79,1.85,4.71,4.71,0,0,0,2.42.66,4.9,4.9,0,0,0,2.46-.65,4.6,4.6,0,0,0,1.8-1.78,5.11,5.11,0,0,0,.62-2.52,4.9,4.9,0,0,0-1.41-3.57A4.63,4.63,0,0,0,313.35,317.66Z"/><path class="cls-1" d="M323.8,311.38a1.31,1.31,0,0,1,0,2.62,1.25,1.25,0,0,1-.92-.39,1.3,1.3,0,0,1,0-1.84A1.25,1.25,0,0,1,323.8,311.38Zm-.79,5.07h1.59v12.32H323Z"/><path class="cls-1" d="M327.89,316.45h1.58v2.21a6.79,6.79,0,0,1,2.11-1.9,5.16,5.16,0,0,1,2.51-.62,4.34,4.34,0,0,1,2.45.7,4.06,4.06,0,0,1,1.58,1.89,10,10,0,0,1,.51,3.7v6.34h-1.58v-5.88a14.19,14.19,0,0,0-.18-2.84,3.12,3.12,0,0,0-1.06-1.84,3.19,3.19,0,0,0-2-.61,3.89,3.89,0,0,0-2.58.95,4.43,4.43,0,0,0-1.5,2.35,16.37,16.37,0,0,0-.23,3.35v4.52h-1.58Z"/><path class="cls-1" d="M175.34,229.48a8,8,0,0,1-4-1L202,293.79l3.66-1.72-29.38-62.65C175.94,229.45,175.64,229.48,175.34,229.48Z"/></g></g></svg>