<svg xmlns="http://www.w3.org/2000/svg" viewBox="0 0 400 195.87"><defs><style>.cls-1{fill:#f4a6c8;}.cls-2{fill:#9c7db8;}.cls-3{fill:#3a3a3a;}.cls-4{fill:#49494a;}.cls-5{fill:#2a2b2a;}.cls-6{fill:#e2cb4a;}.cls-7{fill:#121112;}.cls-8{fill:#ffe682;}.cls-9{fill:#f1a64b;}.cls-10{fill:#fff;}.cls-11{fill:#e2e2e2;}.cls-12{fill:#9a6932;}.cls-13{fill:#eecda8;}.cls-14{fill:#f1b575;}.cls-15{fill:#ece2d8;}.cls-16{fill:#987a5b;}.cls-17{fill:#e4b0cd;}.cls-18{fill:#231f20;}.cls-19{fill:#212120;}.cls-20{fill:#3d3d3d;}.cls-21{fill:#afc7d1;}.cls-22{fill:#d4eef7;}.cls-23{opacity:0.15;}.cls-24{fill:#a96999;}.cls-25{fill:#fbdbdb;}</style></defs><title>hhm_proto_1</title><g id="Calque_2" data-name="Calque 2"><g id="Calque_6" data-name="Calque 6"><path class="cls-1" d="M378.16,83.13,256.92,26.7a121.27,121.27,0,0,0-102.31,0L43.34,79.23c-13.34,6.21-25.86,57-11.56,61.6l153.29,48.9c22.37,3.69,20.1-14.8,22.35-14.8s4.68,16.8,22.19,13.79l157.82-50.35C401.74,133.81,391.5,89.34,378.16,83.13Z"/><path class="cls-2" d="M190.62,195.87a39.57,39.57,0,0,1-6.47-.57l-.41-.06-153.67-49c-4.23-1.35-9.43-5.47-10.19-17.48C18.79,111.54,27.8,80.23,41,74.1L152.19,21.59a126.62,126.62,0,0,1,107.11,0L380.54,78c13.08,6.09,20.33,32.75,19.38,47.71-.83,13-7.1,16.88-10.77,18L231,194.22l-.38.07c-11.33,2-18-2.83-22-7.62C205.79,191.27,200.62,195.87,190.62,195.87Zm-4.24-11.66c11.66,1.81,13.1-3.5,14.36-8.18.54-2,1.82-6.75,6.68-6.75,4,0,5.72,3.27,7,5.66,2.91,5.45,5.8,9.52,13.87,8.27L385.71,133c1.23-.39,2.61-3,2.93-8,.91-14.43-6.77-33.91-12.87-36.75L254.53,31.83a115.3,115.3,0,0,0-97.54,0L45.75,84.34c-6.42,3-15.59,27.86-14.59,43.68.32,5,1.6,7.19,2.34,7.42Z"/><path class="cls-2" d="M158.05,9.42,117.22.24a9.78,9.78,0,0,0-8.17,1.84L76.23,27.75a1.84,1.84,0,0,0-.47,1.34h0a1.45,1.45,0,0,0,.76.66l16.09,3.59A9.76,9.76,0,0,1,100,40.73l1.44,6.41.09.37c1,4.6,11.31,6.2,23,3.58S144.73,42.63,143.7,38l-1.55-6.89a9.78,9.78,0,0,1,3.53-9.86L158,11.69c.17-.14,1.66-1.13,1.51-1.6h0C159.43,9.64,158.27,9.47,158.05,9.42Z"/><path class="cls-3" d="M137.82,17.11,121,30.25a2.29,2.29,0,0,1-1.89.42L98.21,26a2.27,2.27,0,0,1-.9-4L114.17,8.88a2.29,2.29,0,0,1,1.89-.42l20.86,4.65A2.27,2.27,0,0,1,137.82,17.11Z"/><path class="cls-4" d="M118,30.34,96.5,25.63a1.43,1.43,0,0,1-.58-2.53L114.28,8.8c.83-.64,1,.59,1.24,1.61l4.19,18.21A1.43,1.43,0,0,1,118,30.34Z"/><rect class="cls-5" x="106.79" y="19.39" width="24.61" height="13.34" transform="translate(-2.82 26.77) rotate(-12.68)"/><ellipse class="cls-5" cx="117.58" cy="19.34" rx="12.3" ry="2.81" transform="translate(-1.38 26.28) rotate(-12.68)"/><path class="cls-3" d="M117,16.59c-6.63,1.49-11.73,3.93-11.39,5.45s6,1.53,12.62,0Z"/><polygon class="cls-3" points="117.58 19.34 105.58 22.04 108.56 35.27 120.3 31.39 117.58 19.34"/><path class="cls-6" d="M105.94,43.76l.53-.12L101,19.17l.77-.59-1,.23c-.28.08-.33.16-.28.43l.07.3Z"/><rect class="cls-6" x="105.02" y="36.4" width="1.15" height="9.37" rx="0.36" ry="0.36" transform="translate(-6.44 24.18) rotate(-12.68)"/><rect x="103.51" y="32.94" width="1.2" height="3.05" rx="0.19" ry="0.19" transform="translate(-5.03 23.69) rotate(-12.68)"/><rect class="cls-6" x="103.87" y="35.95" width="1.2" height="0.29" rx="0.13" ry="0.13" transform="translate(-5.38 23.81) rotate(-12.68)"/><rect class="cls-6" x="103.14" y="32.7" width="1.2" height="0.29" rx="0.13" ry="0.13" transform="translate(-4.68 23.57) rotate(-12.68)"/><rect class="cls-4" x="103.52" y="33.02" width="0.6" height="3.04" rx="0.19" ry="0.19" transform="translate(-5.05 23.63) rotate(-12.68)"/><path d="M132.56,29.86c-.38-.2-3.94-2.44-7.13-1.23-3,1.13-5.11,2.2-5.11,2.51h-.07c-.13-.27-2.55-.31-5.69-.07-3.4.26-5.75,3.84-6,4.18.59,2.62,6.44,3.53,13.07,2S133.15,32.48,132.56,29.86Z"/><path class="cls-7" d="M120.25,31.15c-.13-.28-2.55-.31-5.69-.07-3.4.26-5.75,3.84-6,4.18.59,2.62,6.44,3.53,13.07,2l-1.36-6.15Z"/><path class="cls-2" d="M17.92,111.75l-4-3.36a5,5,0,0,0-3.42-1.17l-5.23.17a5.06,5.06,0,0,1-4.06-8.31l3.36-4a5.08,5.08,0,0,0,1.18-3.42l-.18-5.23a5.06,5.06,0,0,1,8.31-4.06l4,3.36a5.09,5.09,0,0,0,3.42,1.18l5.23-.18A5.06,5.06,0,0,1,30.59,95l-3.36,4a5,5,0,0,0-1.17,3.42l.17,5.23A5.06,5.06,0,0,1,17.92,111.75Z"/><path class="cls-2" d="M33,99.68l-4.8-6.38a7.72,7.72,0,0,0-4.67-2.93l-7.83-1.55a7.72,7.72,0,0,1-3.15-13.74l6.37-4.81a7.65,7.65,0,0,0,2.93-4.67l1.55-7.83a7.73,7.73,0,0,1,13.75-3.15L41.92,61a7.72,7.72,0,0,0,4.67,2.93l7.83,1.54a7.72,7.72,0,0,1,3.15,13.75L51.2,84a7.74,7.74,0,0,0-2.93,4.68l-1.55,7.83A7.73,7.73,0,0,1,33,99.68Z"/><path class="cls-8" d="M16.78,103.48,15,102a2.26,2.26,0,0,0-1.49-.52l-2.29.08a2.21,2.21,0,0,1-1.78-3.63l1.47-1.76a2.22,2.22,0,0,0,.52-1.5l-.08-2.28A2.22,2.22,0,0,1,15,90.62l1.75,1.47a2.27,2.27,0,0,0,1.5.52l2.29-.08a2.21,2.21,0,0,1,1.77,3.63l-1.47,1.76a2.21,2.21,0,0,0-.51,1.5l.07,2.28A2.21,2.21,0,0,1,16.78,103.48Z"/><path class="cls-8" d="M34.14,87,32,84.21a3.4,3.4,0,0,0-2-1.28l-3.43-.68a3.37,3.37,0,0,1-1.37-6L28,74.14a3.32,3.32,0,0,0,1.28-2l.68-3.42a3.38,3.38,0,0,1,6-1.38l2.1,2.79a3.39,3.39,0,0,0,2.05,1.28l3.42.67a3.39,3.39,0,0,1,1.38,6l-2.79,2.09a3.35,3.35,0,0,0-1.28,2l-.68,3.42A3.38,3.38,0,0,1,34.14,87Z"/><path class="cls-2" d="M200.86,52.92h0L213.52,19a2.89,2.89,0,0,0-1.81-3.66l-24.3-9.07a4.31,4.31,0,0,0-5.63,2.35L169.3,42h0l-1.13,3a1.27,1.27,0,0,0,.66,1.66l27.35,10.2A2.9,2.9,0,0,0,200,55.34Z"/><path class="cls-9" d="M183.05,16.62h18.78a0,0,0,0,1,0,0V43.34a0,0,0,0,1,0,0H180.89a0,0,0,0,1,0,0V18.78A2.17,2.17,0,0,1,183.05,16.62Z" transform="translate(22.54 -64.97) rotate(20.45)"/><path class="cls-10" d="M175.68,42.41h20.94a0,0,0,0,1,0,0v3.05a0,0,0,0,1,0,0H177.08a1.4,1.4,0,0,1-1.4-1.4V42.41A0,0,0,0,1,175.68,42.41Z" transform="translate(27.08 -62.28) rotate(20.45)"/><rect class="cls-11" x="176.39" y="43.21" width="20.51" height="0.09" transform="translate(26.88 -62.49) rotate(20.45)"/><rect class="cls-11" x="176.51" y="42.87" width="20.51" height="0.09" transform="translate(26.77 -62.55) rotate(20.45)"/><rect class="cls-11" x="176.26" y="43.54" width="20.51" height="0.09" transform="translate(26.98 -62.42) rotate(20.45)"/><rect class="cls-11" x="176.13" y="43.9" width="20.51" height="0.09" transform="translate(27.1 -62.35) rotate(20.45)"/><rect class="cls-11" x="175.99" y="44.28" width="20.51" height="0.09" transform="translate(27.23 -62.28) rotate(20.45)"/><rect class="cls-11" x="175.87" y="44.68" width="20.48" height="0.09" transform="translate(27.36 -62.21) rotate(20.45)"/><path class="cls-12" d="M176.6,40.81l.68-1.82-.4-.15L176.07,41a.76.76,0,0,0,.45,1L195.43,49l.13-.33-18.51-6.91A.76.76,0,0,1,176.6,40.81Z"/><path class="cls-12" d="M183.21,13.35h.5a0,0,0,0,1,0,0V40.08a0,0,0,0,1,0,0h-2.23a0,0,0,0,1,0,0v-25a1.73,1.73,0,0,1,1.73-1.73Z" transform="translate(20.84 -62.12) rotate(20.45)"/><rect class="cls-13" x="191.33" y="22.15" width="7.41" height="0.9" transform="translate(20.19 -66.72) rotate(20.45)"/><rect class="cls-14" x="191.87" y="18.6" width="9.6" height="26.73" transform="translate(23.56 -66.71) rotate(20.45)"/><rect class="cls-15" x="194.92" y="22.8" width="3.71" height="0.9" transform="translate(20.53 -67.29) rotate(20.45)"/><rect class="cls-16" x="186.2" y="47" width="9.6" height="0.36" transform="translate(28.52 -63.76) rotate(20.45)"/><path class="cls-2" d="M156.34,89.61a14.29,14.29,0,0,0-15.47-6.71c-1.17-6.19-5.62-11-11.93-12-8.79-1.39-17.82,5.23-20.16,14.79-2,8.09,5.53,25.8,7.89,31.05a2.7,2.7,0,0,0,2.33,1.59c5.72.25,24.69.68,31.35-4.2C158.22,108.31,160.9,97.35,156.34,89.61Z"/><path class="cls-2" d="M225.42,77.16a11.75,11.75,0,0,0-10.81,8.66,11.9,11.9,0,0,0-13.31,4.05c-4.39,5.85-3,14.95,3,20.32,5.12,4.54,20.86,5.87,25.58,6.18a2.21,2.21,0,0,0,2.05-1.09c2.37-4.06,10-17.68,9-24.38C239.73,83,232.8,76.81,225.42,77.16Z"/><path class="cls-17" d="M223.78,87.17a6.47,6.47,0,0,0-5.94,4.77,6.53,6.53,0,0,0-7.32,2.22c-2.41,3.22-1.67,8.21,1.66,11.16,2.58,2.3,10.11,3.1,13.32,3.35a2.39,2.39,0,0,0,2.23-1.19c1.57-2.77,5.06-9.37,4.56-12.76C231.64,90.37,227.83,87,223.78,87.17Z"/><path class="cls-17" d="M144.62,93.53a7.86,7.86,0,0,0-8.5-3.69,8,8,0,0,0-6.55-6.61c-4.83-.77-9.79,2.87-11.08,8.12-1,4.09,2.41,12.66,4,16.25a2.86,2.86,0,0,0,2.54,1.72c3.88.12,13,.13,16.33-2.34C145.65,103.81,147.13,97.79,144.62,93.53Z"/><path class="cls-2" d="M381.45,66a19.14,19.14,0,1,0-33.09-4.83,5.19,5.19,0,0,1-.69,5L329.81,89.51a3.65,3.65,0,0,0,.68,5.13l6,4.61a3.87,3.87,0,0,0,5.43-.72l17.95-23.44A4.5,4.5,0,0,1,364,73.37,19.13,19.13,0,0,0,381.45,66Z"/><rect class="cls-18" x="345.88" y="61.05" width="4.02" height="34.72" transform="translate(119.44 -195.42) rotate(37.46)"/><rect class="cls-19" x="353.85" y="63.71" width="5.42" height="6.78" transform="translate(114.34 -203.03) rotate(37.46)"/><rect class="cls-19" x="344.12" y="66.27" width="2.01" height="28.23" transform="translate(120.06 -193.33) rotate(37.46)"/><rect class="cls-20" x="354.13" y="62.88" width="2.71" height="6.78" transform="translate(113.62 -202.54) rotate(37.46)"/><path class="cls-19" d="M374.14,44.16a12.9,12.9,0,1,0,2.39,18.08A12.9,12.9,0,0,0,374.14,44.16ZM358.91,64a12.14,12.14,0,1,1,17-2.25A12.14,12.14,0,0,1,358.91,64Z"/><circle class="cls-21" cx="366.3" cy="54.4" r="12.14"/><path class="cls-22" d="M375.17,55.14c-1.85,2.42-3.46-2.46-5.88-4.31s-7.4-2.34-5.54-4.76,6.49-1.81,8.92,0S377,52.72,375.17,55.14Z"/><path class="cls-20" d="M358.91,64a12.14,12.14,0,0,1,14.77-19.27l.46-.6a12.9,12.9,0,1,0-15.69,20.47Z"/><path class="cls-22" d="M373.68,44.76A12.14,12.14,0,0,0,358.91,64Z"/><path class="cls-10" d="M372.66,46.12l-.14-.12c-2.43-1.85-7.06-2.46-8.92,0s3.12,2.9,5.54,4.75Z"/><path class="cls-23" d="M373.68,44.76a12.14,12.14,0,1,0,2.25,17A12.14,12.14,0,0,0,373.68,44.76ZM359.33,63.49a11.46,11.46,0,1,1,16.06-2.13A11.45,11.45,0,0,1,359.33,63.49Z"/><rect class="cls-19" x="336.23" y="88.1" width="4.75" height="4.75" transform="translate(124.86 -187.29) rotate(37.46)"/><rect class="cls-20" x="336.48" y="87.38" width="2.41" height="4.75" transform="translate(124.23 -186.87) rotate(37.46)"/><rect class="cls-20" x="337.46" y="88.51" width="4.75" height="0.72" transform="translate(124.14 -188.37) rotate(37.46)"/><rect class="cls-19" x="335.01" y="91.71" width="4.75" height="0.72" transform="translate(125.58 -186.21) rotate(37.46)"/><rect class="cls-19" x="352.01" y="69.14" width="5.42" height="0.72" transform="translate(115.42 -201.41) rotate(37.46)"/><rect class="cls-18" x="352.28" y="69.71" width="4.01" height="0.72" transform="translate(115.68 -201.03) rotate(37.46)"/><polygon class="cls-24" points="233.01 105.44 241.47 108.86 242.05 97.52 233.01 105.44"/><polygon class="cls-24" points="304.6 102.52 313.06 105.95 313.64 94.61 304.6 102.52"/><polygon class="cls-24" points="352.73 150.33 342.58 148.34 343.42 158.56 352.73 150.33"/><polygon class="cls-24" points="234.03 174.59 223.88 172.6 224.72 182.82 234.03 174.59"/><polygon class="cls-24" points="150.88 177.06 140.61 175.04 141.44 185.27 150.88 177.06"/><polyline class="cls-24" points="140.61 175.04 142.01 184.87 150.88 177.06"/><polygon class="cls-24" points="329.81 164.16 318.49 157.56 315.9 166.37 329.81 164.16"/><polygon class="cls-24" points="49.59 118.04 58.05 121.46 58.63 110.12 49.59 118.04"/><polygon class="cls-24" points="151.85 105.44 160.31 108.86 160.89 97.52 151.85 105.44"/><path class="cls-24" d="M74,182.29a22.65,22.65,0,0,1-9.41-2.16,20.38,20.38,0,0,1-9.11,2.16,20.76,20.76,0,0,1-18.19-10,29.17,29.17,0,0,1-4.07-15.66,52.38,52.38,0,0,1,3-16,61.75,61.75,0,0,1,8.22-16.82c6.82-9.38,14.22-11.34,19.23-11.34a27.06,27.06,0,0,1,13,3.52l.06,0a24.94,24.94,0,0,1,12.59-3.46c5.84,0,16.62,2.13,23.21,16.41a50.92,50.92,0,0,1,4.55,21.56c0,7.87-1.47,14-4.51,18.63-2.53,3.87-8.6,10.33-20.89,10.33a19.56,19.56,0,0,1-6-1A19.6,19.6,0,0,1,74,182.29Zm-7.58-34.15,7,9.47L75,156l6.91-7.19,8.27,5.56a18.93,18.93,0,0,0,2.32,1.37l.35,0a20.26,20.26,0,0,0,.5-5.15A27.08,27.08,0,0,0,91,138.91a8.7,8.7,0,0,0-1.66-2.62c-.49.09-1.91.77-4,3.19l-3.55,4H68L65.55,137l-.21-.12c-.27-.15-.51-.26-.71-.35a14,14,0,0,0-1,1.22A38,38,0,0,0,58.76,148a31.82,31.82,0,0,0-1.85,8.23Z"/><path class="cls-24" d="M126.13,190.28a21.86,21.86,0,0,1-17.9-8.8,26.44,26.44,0,0,1-5.1-15.95,27.75,27.75,0,0,1-3.33-3.7,24.88,24.88,0,0,1-4.9-15,23.72,23.72,0,0,1,5.87-15.71,21.55,21.55,0,0,1,16.58-7.79,21.19,21.19,0,0,1,9,2,29.77,29.77,0,0,1,16.85-4.89c9,0,16.22,5.77,19.37,15.43l.32,1,.64,4.39v2.29c0,1.83-.36,3.79-1.46,8.07a13.44,13.44,0,0,1-1,2.53l-.31.61a20,20,0,0,1-3.51,5.51,33.3,33.3,0,0,1-7,5.86c-.25,6.4-2.12,11.77-5.57,16C141.68,185.82,136,190.28,126.13,190.28Z"/><path class="cls-24" d="M170.23,167.23a36.82,36.82,0,0,1-15.71-3.2c-8-3.79-12.61-10.64-12.61-18.83a17.08,17.08,0,0,1,2.53-8.9,29.64,29.64,0,0,1-2.16-9.93,26.94,26.94,0,0,1,12-22.79,37.14,37.14,0,0,1,21.42-6.2h0a29.44,29.44,0,0,1,12.81,3c10.29,5,11.39,13,11.39,16.28a20.79,20.79,0,0,1-1.13,7,24.77,24.77,0,0,1,3.35,12.44,29.89,29.89,0,0,1-9.8,22.16A31.78,31.78,0,0,1,170.23,167.23Zm-3.54-39.18c.41.42.84.87,1.3,1.33l9.65,9.63a5.51,5.51,0,0,0,.72-2.9,1.39,1.39,0,0,0-.29-.78,6,6,0,0,0-1.73-1.75l-10.17-7.07A15.43,15.43,0,0,0,166.69,128.05Z"/><path class="cls-24" d="M211,187.32c-8.59,0-15.66-3.83-19.89-10.79-2.73-4.51-4.14-10.15-4.22-16.81-7.42-4.79-8-11.35-7.89-14.05l.22-5.7.85-1.28c1.78-5.62,6.22-12.38,16.88-17a51.46,51.46,0,0,1,20.56-4.22,28.8,28.8,0,0,1,15,4c7,4.17,10.66,11,10,18.83a22.28,22.28,0,0,1-6.79,14.29c0,.65,0,1.28,0,1.9a38.2,38.2,0,0,1-4.15,18.05C227.23,182.77,219.92,187.32,211,187.32Zm-.37-28a17.55,17.55,0,0,0,.3,3.43,15.91,15.91,0,0,0,1.09-6.31c0-.23,0-.47,0-.72L211,157.27a2.5,2.5,0,0,0,0,.29A17.52,17.52,0,0,0,210.66,159.32Z"/><path class="cls-24" d="M252.83,167.23H247c-5.91,0-25.22-2.31-25.22-31.9,0-10.63,2.51-19.31,7.47-25.8,4.2-5.53,12.27-12.15,26.76-12.15a30.06,30.06,0,0,1,8.9,1.08c7.1,2.23,11.47,8,11.47,15.13a17.06,17.06,0,0,1-.54,4.3,17.46,17.46,0,0,1,3.4,10.39,27.3,27.3,0,0,1-1.5,9.19c1.49,2.7,2.61,5.06,2.61,8.14a18.22,18.22,0,0,1-5.55,12.92,37.24,37.24,0,0,1-6.63,4.94l-.85.52-.93.37A37.15,37.15,0,0,1,252.83,167.23Zm-6.94-37.09c-.13.8-.22,1.66-.28,2.57L250,131Z"/><path class="cls-24" d="M282.6,178.34a19.74,19.74,0,0,1-11.29-3.2,27.34,27.34,0,0,1-10.81-14.43,45.17,45.17,0,0,1-1.94-14.22,43.84,43.84,0,0,1,1.88-12.87l0-.11c1.51-7.36,3.91-12.83,7.32-16.72s9.39-8.21,19.87-8.21c9,0,16.74,2,22.85,5.9,8.32,5.33,12.9,14,12.9,24.43a28.4,28.4,0,0,1-4.29,14.56c-.52.88-1.06,1.71-1.63,2.5a21.22,21.22,0,0,1,.2,2.91,16.17,16.17,0,0,1-8.58,14.32,21.7,21.7,0,0,1-10.69,2.69,18.82,18.82,0,0,1-5.83-.95c-1,.54-2.29,1.19-4.13,2.11a12.41,12.41,0,0,1-5.26,1.29Zm-4.67-22.57-.16.08Zm5.7-9.81.91.27.18-.33-1-.36C283.68,145.68,283.65,145.82,283.63,146Zm2.66-2.86,3.44,2.34,6.9-4.6a7.05,7.05,0,0,0-4.4-1.72,9.15,9.15,0,0,0-7.21,3.34,7.06,7.06,0,0,0-.72,1.2l1.08,1.07Zm-.73-10.54-.1.18c.26-.12.52-.23.79-.33A4.55,4.55,0,0,0,285.56,132.56Z"/><path class="cls-24" d="M327.18,164.27a21.83,21.83,0,0,1-17.89-8.81,26.46,26.46,0,0,1-5.11-15.94,29,29,0,0,1-3.33-3.7,24.93,24.93,0,0,1-4.89-15,23.75,23.75,0,0,1,5.86-15.71,21.55,21.55,0,0,1,16.59-7.79,21.15,21.15,0,0,1,9,2,29.71,29.71,0,0,1,16.86-4.89c9,0,16.22,5.77,19.37,15.43l.31,1,.64,4.39v2.29c0,1.83-.36,3.82-1.49,8.17l-.31,1.22-.91,1.82a20.14,20.14,0,0,1-3.51,5.5,33,33,0,0,1-7,5.86c-.26,6.41-2.13,11.78-5.58,16C342.74,159.8,337,164.27,327.18,164.27Z"/><path class="cls-24" d="M83,174.38a22.65,22.65,0,0,1-9.41-2.16,20.42,20.42,0,0,1-9.12,2.16,20.78,20.78,0,0,1-18.19-10,29.17,29.17,0,0,1-4.07-15.66,52.08,52.08,0,0,1,3-16,61.61,61.61,0,0,1,8.22-16.82c6.81-9.38,14.21-11.34,19.23-11.34a26.94,26.94,0,0,1,13,3.52l.07,0a24.94,24.94,0,0,1,12.59-3.46c5.83,0,16.61,2.14,23.2,16.42a50.91,50.91,0,0,1,4.56,21.55c0,7.88-1.48,14-4.51,18.63-2.54,3.88-8.6,10.34-20.9,10.34a19.58,19.58,0,0,1-6-1A19.57,19.57,0,0,1,83,174.38Zm-7.59-34.16,7,9.48q1-1,1.62-1.65l6.91-7.19,8.28,5.56a18.31,18.31,0,0,0,2.31,1.37l.35,0a20.12,20.12,0,0,0,.51-5.16A27.07,27.07,0,0,0,100,131a8.41,8.41,0,0,0-1.65-2.62c-.49.09-1.91.77-4,3.18l-3.54,4H77.08l-2.48-6.52-.21-.12c-.27-.15-.51-.26-.72-.36a15,15,0,0,0-1,1.23,38.41,38.41,0,0,0-4.89,10.3A32.21,32.21,0,0,0,66,148.34Z"/><path class="cls-24" d="M135.17,182.36a21.84,21.84,0,0,1-17.9-8.8,26.54,26.54,0,0,1-5.1-15.94,29,29,0,0,1-3.33-3.7,24.93,24.93,0,0,1-4.89-15,23.7,23.7,0,0,1,5.86-15.71,21.57,21.57,0,0,1,16.59-7.79,21.15,21.15,0,0,1,9,2,29.71,29.71,0,0,1,16.86-4.89c9,0,16.22,5.77,19.37,15.43l.31,1,.64,4.39v2.28c0,1.84-.36,3.8-1.46,8.08a12.45,12.45,0,0,1-.95,2.52l-.3.62a20.19,20.19,0,0,1-3.51,5.51,32.78,32.78,0,0,1-7,5.85c-.25,6.4-2.12,11.77-5.56,16C150.73,177.91,145,182.36,135.17,182.36Z"/><path class="cls-24" d="M179.27,159.31a36.78,36.78,0,0,1-15.7-3.19c-8-3.79-12.62-10.65-12.62-18.83a17.15,17.15,0,0,1,2.53-8.9,29.89,29.89,0,0,1-2.16-9.93,27,27,0,0,1,12-22.79,37.16,37.16,0,0,1,21.42-6.2h0a29.27,29.27,0,0,1,12.81,3c10.29,5,11.4,13,11.4,16.28a20.83,20.83,0,0,1-1.13,7,24.86,24.86,0,0,1,3.34,12.44,29.9,29.9,0,0,1-9.8,22.16A31.74,31.74,0,0,1,179.27,159.31Zm-3.53-39.17c.4.42.83.86,1.3,1.32l9.64,9.64a5.51,5.51,0,0,0,.72-2.9,1.37,1.37,0,0,0-.29-.78,5.93,5.93,0,0,0-1.72-1.75l-10.18-7.07A13.92,13.92,0,0,0,175.74,120.14Z"/><path class="cls-24" d="M220.07,179.4c-8.59,0-15.65-3.83-19.88-10.78-2.73-4.51-4.15-10.16-4.22-16.81-7.43-4.79-8-11.35-7.9-14.05l.22-5.71.85-1.27c1.78-5.63,6.23-12.39,16.88-17a51.51,51.51,0,0,1,20.57-4.22,28.85,28.85,0,0,1,15,4c7,4.16,10.65,11,10,18.83a22.28,22.28,0,0,1-6.79,14.29c0,.65,0,1.28,0,1.9a38.16,38.16,0,0,1-4.15,18C236.28,174.85,229,179.4,220.07,179.4Zm-.37-28a18.6,18.6,0,0,0,.3,3.44,15.74,15.74,0,0,0,1.09-6.31c0-.23,0-.47,0-.71L220,149.36c0,.09,0,.18-.05.28C219.78,150.71,219.72,151.23,219.7,151.4Z"/><path class="cls-24" d="M261.88,159.31h-5.82c-5.92,0-25.23-2.3-25.23-31.9,0-10.62,2.52-19.3,7.47-25.8,4.21-5.53,12.28-12.14,26.76-12.14a30,30,0,0,1,8.9,1.08c7.1,2.22,11.47,8,11.47,15.13a17.59,17.59,0,0,1-.53,4.3,17.51,17.51,0,0,1,3.4,10.39,27.29,27.29,0,0,1-1.51,9.19c1.5,2.69,2.62,5.05,2.62,8.13a18.21,18.21,0,0,1-5.56,12.92,36.51,36.51,0,0,1-6.63,4.95l-.85.52-.93.37A37.12,37.12,0,0,1,261.88,159.31Zm-6.95-37.08c-.12.8-.22,1.66-.27,2.57l4.39-1.76Z"/><path class="cls-24" d="M291.65,170.43a19.84,19.84,0,0,1-11.3-3.2,27.41,27.41,0,0,1-10.81-14.44,45.35,45.35,0,0,1-1.94-14.21,43.84,43.84,0,0,1,1.88-12.87l0-.12c1.51-7.35,3.91-12.82,7.32-16.72,3.28-3.74,9.39-8.2,19.87-8.2,9.05,0,16.74,2,22.85,5.9,8.32,5.33,12.91,14,12.91,24.42a28.47,28.47,0,0,1-4.3,14.57c-.51.88-1.06,1.71-1.62,2.5a22.7,22.7,0,0,1,.19,2.91,16.16,16.16,0,0,1-8.57,14.31A21.62,21.62,0,0,1,307.47,168a18.91,18.91,0,0,1-5.84-.94c-1,.53-2.28,1.19-4.12,2.1a12.13,12.13,0,0,1-5.27,1.29ZM287,147.86l-.15.08Zm5.71-9.81.9.27.19-.33-1-.36C292.72,137.77,292.7,137.91,292.68,138.05Zm2.65-2.86,3.45,2.33,6.9-4.6a7.09,7.09,0,0,0-4.4-1.71,9.16,9.16,0,0,0-7.21,3.33,6,6,0,0,0-.72,1.21l1.07,1.07Zm-.73-10.54a1.81,1.81,0,0,1-.1.17l.79-.32A4.55,4.55,0,0,0,294.6,124.65Z"/><path class="cls-24" d="M336.23,156.35a21.83,21.83,0,0,1-17.9-8.8,26.42,26.42,0,0,1-5.1-16,27.62,27.62,0,0,1-3.33-3.69,24.88,24.88,0,0,1-4.9-15,23.75,23.75,0,0,1,5.86-15.71,21.55,21.55,0,0,1,16.59-7.79,21,21,0,0,1,9,2,29.7,29.7,0,0,1,16.85-4.89c9,0,16.22,5.76,19.37,15.42l.31,1,.64,4.39v2.29c0,1.84-.36,3.83-1.48,8.18l-.32,1.22-.91,1.82a20.25,20.25,0,0,1-3.5,5.5,33.32,33.32,0,0,1-7,5.86c-.25,6.4-2.12,11.77-5.57,16C351.79,151.89,346.05,156.35,336.23,156.35Z"/><path class="cls-25" d="M110.76,126c-2.92-6.34-7.07-9.74-12.42-9.52-10.53.45-10.73,4.94-13.09,12.47-.21-7.63-2.51-9-5.26-10.49a15.17,15.17,0,0,0-7.29-2.07q-5,0-9.61,6.42a49.37,49.37,0,0,0-6.56,13.56,41.25,41.25,0,0,0-2.45,12.33,17.55,17.55,0,0,0,2.26,9.37,9,9,0,0,0,8.13,4.43,8.69,8.69,0,0,0,5-1.57c1.91-1.58,4.17-7.25,4.1-13.22.07,5.23,2.33,12.34,4.21,13.32A11.49,11.49,0,0,0,83,162.51a7.74,7.74,0,0,0,5.45-2.1,15.72,15.72,0,0,0,4.22-10.68c2.16,6.82,6,10,8,10,5.15,0,8.79-1.65,11-4.94q2.6-4,2.59-12.16A39,39,0,0,0,110.76,126Z"/><path class="cls-25" d="M199.22,128.22a18,18,0,0,1-6.07,13.52,19.77,19.77,0,0,1-13.93,5.72,24.89,24.89,0,0,1-10.67-2.08c-3.85-1.81-6.71-4.63-5.78-8.07,1.22-4.5,6.95-6.6,11.23-7.84-1.46-.13-3.59.23-6.48-1.27a5.3,5.3,0,0,1-2.29-2.37,21.06,21.06,0,0,1-2.09-7.35,15,15,0,0,1,6.84-13,25.45,25.45,0,0,1,14.69-4.1,17.55,17.55,0,0,1,7.67,1.84q4.66,2.26,4.66,5.59a9.52,9.52,0,0,1-.33,2.64,4.38,4.38,0,0,1-2.27,2.73,30.41,30.41,0,0,1-9.7,2.31c2.63.11,10.13,1.68,12.49,4.78A11.19,11.19,0,0,1,199.22,128.22Z"/><path class="cls-25" d="M239.75,131.33a11,11,0,0,1-4.75,8.09c-1.08.8-2.68,1.76-2.68,1.76a47.26,47.26,0,0,1,.64,7.35A26.32,26.32,0,0,1,230.19,161q-3.47,6.51-10.12,6.52t-9.74-5.09q-2.51-4.12-2.5-11.19a24.46,24.46,0,0,1,.46-3.75,11,11,0,0,1,1-3.51l-.88-.05-.14-.09a11.58,11.58,0,0,1-5.22-1.62q-3.23-1.8-3.14-4l.18-2.45a1.1,1.1,0,0,1,0-.18q1.4-7,10.61-11a39.46,39.46,0,0,1,15.85-3.24,17,17,0,0,1,8.91,2.27Q240.17,126.48,239.75,131.33Z"/><path class="cls-25" d="M271.07,145.41a25.2,25.2,0,0,1-9.19,2h-5.82q-13.37,0-13.36-20,0-12,5-18.6,5.69-7.47,17.32-7.47a19.67,19.67,0,0,1,5.41.55q3.09,1,3.09,3.79a5.67,5.67,0,0,1-1.65,3.92,87.13,87.13,0,0,1-9.56,4.18c2.57-.21,4.3-1,11.12,1.37,2.33.81,3.06,3.22,3,5.22-.59,11.4-8.1,10.83-13.71,11.5,9.23-.26,11.81,2,12.45,2.38a4.86,4.86,0,0,1,1.67,1.87,7.55,7.55,0,0,1,.7,1.57,6.64,6.64,0,0,1-2.17,4.63A30.35,30.35,0,0,1,271.07,145.41Z"/><path class="cls-25" d="M320.59,131A16.68,16.68,0,0,1,318,139.5q-2.71,4.63-6.32,6.11a7.75,7.75,0,0,1,2.54,2.19,6,6,0,0,1,.69,3.17,4.41,4.41,0,0,1-2.54,4,9.83,9.83,0,0,1-4.85,1.15,6.79,6.79,0,0,1-1.39-.15,6.7,6.7,0,0,1-4.77-4.42l-1.9-5.41c-.26,8.38-.93,8.87-2.84,10.12-.11.11-1.49.82-2.68,1.43a7.06,7.06,0,0,1-4.84.6,6.25,6.25,0,0,1-2.05-.87,15.73,15.73,0,0,1-6.19-8.33,34.31,34.31,0,0,1-1.34-10.49,31.46,31.46,0,0,1,1.71-10.45l-.05-.14q1.62-7.86,4.63-11.29,3.64-4.15,10.94-4.16,10.17,0,16.45,4Q320.59,121.33,320.59,131Zm-16.13,8.25c0-.83-.6-2.08-1.8-3.74a3.65,3.65,0,0,0-1.29-.23q-3.51,0-4.8,3.7l-.1.09.1.14a2.32,2.32,0,0,0,.69,2,4.72,4.72,0,0,0,4,1.9,2.77,2.77,0,0,0,2.19-1.3A4.19,4.19,0,0,0,304.46,139.24Z"/><path class="cls-25" d="M160.72,135.58a31.64,31.64,0,0,1-1.09,5.12.49.49,0,0,1-.06.17l-.51,1a8.3,8.3,0,0,1-1.57,2.53q-3.75,4.2-11.05,6.92,1.11,1.58,1.11,5.31,0,6.41-2.91,10-3.18,3.87-9.47,3.88a10,10,0,0,1-8.41-4.07,15,15,0,0,1-2.72-9.18,18.24,18.24,0,0,1,.65-4.94,23.79,23.79,0,0,1-6.33-5.49,12.82,12.82,0,0,1-2.54-7.89,11.82,11.82,0,0,1,3-8,9.58,9.58,0,0,1,7.58-3.65c2.34,0,4.67.47,6.12,2.26,3.18,4,1.86,7.94,2,10.28,2.33-11.16,9.93-15.45,17.7-15.45q5.72,0,8.08,7.23l.37,2.54Z"/><path class="cls-25" d="M361.77,109.57a33.55,33.55,0,0,1-1.1,5.21l-.56,1.11a8.23,8.23,0,0,1-1.57,2.53q-3.74,4.2-11,6.92,1.11,1.57,1.11,5.3,0,6.42-2.91,10-3.19,3.87-9.47,3.87a9.92,9.92,0,0,1-8.41-4.06,14.89,14.89,0,0,1-2.73-9.18,18.64,18.64,0,0,1,.65-4.94,24.49,24.49,0,0,1-6.33-5.49,12.9,12.9,0,0,1-2.54-7.89,11.84,11.84,0,0,1,3-8,9.59,9.59,0,0,1,7.58-3.64,8.67,8.67,0,0,1,6.12,2.26c3.36,3.12,2.7,10.25,2.89,12.59.75-11.21,9.1-17.76,16.86-17.76q5.73,0,8.08,7.23l.37,2.53Z"/><polygon class="cls-2" points="280.31 48.78 284.66 52.83 286.51 45.46 280.31 48.78"/><polygon class="cls-2" points="299.05 46.35 303.23 47.97 305.88 42.58 299.05 46.35"/><polygon class="cls-2" points="330.29 48.91 333.69 51.01 336.15 46.45 330.29 48.91"/><polygon class="cls-2" points="340.78 77.24 336.87 76.26 335.65 81.29 340.78 77.24"/><polygon class="cls-2" points="303.08 76.33 298.13 73.05 296.91 78.08 303.08 76.33"/><polygon class="cls-2" points="203.15 39.8 207.49 42.27 209.31 34.96 203.15 39.8"/><polygon class="cls-2" points="223.63 32.95 231.98 32.32 233.83 24.96 223.63 32.95"/><path class="cls-2" d="M216.13,86.72a15.68,15.68,0,0,1-11.6-4.57c-2.88-2.92-5-7.57-6.56-14.22-5.51-24,6.08-30.41,13.48-32.11A14.32,14.32,0,0,1,222.77,38l.15.1a18.41,18.41,0,0,1,1.86-4.8,12.44,12.44,0,0,1,8.51-6.19c6.41-1.22,12.11.1,16.56,3.81,3.84,3.17,6.5,7.84,7.89,13.88a39.24,39.24,0,0,1,.72,6,28.3,28.3,0,0,0,.45,4.16h0c.26,1.12.3,2.23-.41,7l.12.5-.3,1.27c-1.63,7-2.62,9.35-3.3,10.66A16.69,16.69,0,0,1,243.6,83,14.63,14.63,0,0,1,231,80.51l-.4-.31A15.19,15.19,0,0,1,221.83,86,25.5,25.5,0,0,1,216.13,86.72Zm-1.47-40a3,3,0,0,0-.68.09c-2.63.6-8.8,2-5,18.56,1.4,6.09,3,8.19,3.59,8.81.47.48,1.88,1.91,6.72.8a4.12,4.12,0,0,0,2.43-1.88c.83-1.13.71-1.61.65-1.81l-.6-2.35,2.54-4.06,10.34-3.2,1.23,6.14c.53,2.62,1.59,3.42,1.93,3.68a3.44,3.44,0,0,0,3.25.49A5.41,5.41,0,0,0,245,69.16c.12-.22.77-1.62,2-6.73v0l.16-1.06c.42-2.75.55-3.95.59-4.44a43.4,43.4,0,0,1-.59-5.4,26.8,26.8,0,0,0-.45-4.16c-.82-3.56-2.19-6.16-4.09-7.72-1.17-1-3.17-2.17-7.17-1.41-.31.06-.55.14-.88.73a11.07,11.07,0,0,0-1.08,3.91l-1.2,8.44-2.43,1.36a22.78,22.78,0,0,0-2.39,1.47L219.84,60l-1.4-9.54a5.79,5.79,0,0,0-.13-.68,3.61,3.61,0,0,0-1.77-2.35A3.4,3.4,0,0,0,214.66,46.75Zm33.23,10.76Zm-.11-.91Z"/><path class="cls-2" d="M258.4,77.21A11,11,0,0,1,253,75.84,9.86,9.86,0,0,1,248.1,69a23,23,0,0,1,0-9.46,24.89,24.89,0,0,1,3.4-8.56,14.63,14.63,0,0,1,1.29-1.68,7.5,7.5,0,0,1,3.47-2.46l.28-.13a11.21,11.21,0,0,1,2.68-1,14.53,14.53,0,0,1,10.05,1.46A19.93,19.93,0,0,1,276,53a20.59,20.59,0,0,1,3.75,8,13.52,13.52,0,0,1-.4,7.42,10.12,10.12,0,0,1-6.6,6.6l-1.29.41-.5-.08a13.83,13.83,0,0,1-5.3-.26c-.24-.06-.48-.12-.71-.2a9.12,9.12,0,0,1-3.23,1.86l-.49.16-.5.06c-.41.06-1,.12-1.82.17h-.53Zm.76-15.4a6.36,6.36,0,0,0,0,.75l2-.13L260.9,61l-1.23-.89-.15.21c-.14.46-.25.93-.35,1.42ZM256.7,46.75l-.33.09Z"/><path class="cls-2" d="M286.07,83.5h-.35A19.23,19.23,0,0,1,278,81.6c-4.1-1.92-5.87-4.47-6.61-6.61-1.12-2.27-1.6-5.13-1.51-9a17.74,17.74,0,0,1,4.39-10.89,16.33,16.33,0,0,1,9-6l.36-.26,1.61-.09.84-.13a13.24,13.24,0,0,1,2.33-.18,13.7,13.7,0,0,1,8.49,2.82,11.17,11.17,0,0,1,4.06,9.31,11.47,11.47,0,0,1-2.87,7.33,9.17,9.17,0,0,1,.81,4,11.3,11.3,0,0,1-4.62,8.92A13.38,13.38,0,0,1,286.07,83.5Zm-4-12.53a7.35,7.35,0,0,0,.74.39,9,9,0,0,0,2.18.73l-3.36-7,4.83-2.58a13.78,13.78,0,0,0,2.88-1.83,1.17,1.17,0,0,0,.3-.36,3.44,3.44,0,0,0,0-.36,4.66,4.66,0,0,0-1.5-.23l-.4.06h0l-.19.14L286,60.1c-1.06.11-2.19,1.24-3,2.17a6.92,6.92,0,0,0-1.84,4,16,16,0,0,0,.15,2.94l.47.37Z"/><path class="cls-2" d="M312.32,83.89a12.41,12.41,0,0,1-4.77-1A10.71,10.71,0,0,1,302.08,78a10.54,10.54,0,0,1-5.11-.76c-5.78-2.44-7.51-6.36-8-9.22-.42-2.69.17-5.89,1.81-9.77,2.05-4.86,4.5-8.2,7.48-10.22a12.37,12.37,0,0,1,12.1-1,10.26,10.26,0,0,1,4.26,3.34l.38-.17a9.41,9.41,0,0,1,7.87,0,13,13,0,0,1,7.52,8.67,15.84,15.84,0,0,1-1.07,10.29,21.59,21.59,0,0,1-1.8,3.28,13,13,0,0,0-.93,1.61,11.23,11.23,0,0,1-2.6,3.41l-.16.36-1,.85a27.84,27.84,0,0,1-5.4,4A11.67,11.67,0,0,1,312.32,83.89Zm-.06-11.32h.06a.44.44,0,0,0,.14,0,24.49,24.49,0,0,0,2.36-1.87l.41-.41c.72-.73,1.13-1.16,1.35-1.4A25.06,25.06,0,0,1,318,66.33a14.24,14.24,0,0,0,.92-1.6,5.4,5.4,0,0,0,.54-3.07,1.2,1.2,0,0,0-.41-.67l-.32.31-4.11,4.27-2.77-.32a11.6,11.6,0,0,0-1.17-.1h-.37l4.58,1.55-2.6,5.7Zm4-3h0Zm-16-3.42a3.62,3.62,0,0,0,.7.44l.47-1.19h-.31l4.32-8.23a.84.84,0,0,0-.73.19c-.5.33-1.83,1.52-3.4,5.26A11.26,11.26,0,0,0,300.2,66.19Z"/><path class="cls-2" d="M328.57,83.91a11.2,11.2,0,0,1-6-1.81,12.92,12.92,0,0,1-5.43-5.92,9.33,9.33,0,0,1,.89-8.63,23.09,23.09,0,0,1,6-6.8,11,11,0,0,1,1.85-6.24,9.79,9.79,0,0,1,5.86-4.09,11.24,11.24,0,0,1,4.74-.41h.06l.3.07a8.08,8.08,0,0,1,1,.24l.19,0,1,.21a9.64,9.64,0,0,1,3.16,1.21,12.08,12.08,0,0,1,4.92,6.06,10,10,0,0,1-.77,9A10.31,10.31,0,0,1,341.53,71a15,15,0,0,1-2.39,6.36h0a28.43,28.43,0,0,1-1.81,2.43l-.29.35-.33.3a13.53,13.53,0,0,1-6.12,3.31A11,11,0,0,1,328.57,83.91Zm-.18-11.52.14.09.35-.26c.3-.37.58-.75.68-.9a7.59,7.59,0,0,0,.5-.92A12.73,12.73,0,0,0,328.39,72.39Z"/><path class="cls-2" d="M221.73,82.32a15.65,15.65,0,0,1-11.59-4.57c-2.88-2.91-5-7.56-6.57-14.21-5.51-24,6.09-30.41,13.49-32.11a14.32,14.32,0,0,1,11.32,2.16l.14.1a18.2,18.2,0,0,1,1.87-4.79,12.36,12.36,0,0,1,8.51-6.19c6.4-1.22,12.11.1,16.55,3.8,3.85,3.17,6.5,7.85,7.89,13.89a37.86,37.86,0,0,1,.72,6,26.1,26.1,0,0,0,.46,4.15v0c.26,1.11.3,2.22-.41,7l.12.49-.3,1.28c-1.63,7-2.63,9.35-3.31,10.66a16.71,16.71,0,0,1-11.41,8.63,14.69,14.69,0,0,1-12.65-2.53l-.39-.31a15.13,15.13,0,0,1-8.73,5.83A25,25,0,0,1,221.73,82.32Zm-1.46-40a2.88,2.88,0,0,0-.68.08c-2.63.61-8.8,2-5,18.56,1.4,6.09,3,8.19,3.59,8.81s1.89,1.92,6.72.81a4.16,4.16,0,0,0,2.44-1.89c.83-1.12.7-1.6.65-1.81l-.61-2.35,2.54-4.06,10.35-3.2,1.23,6.14c.53,2.62,1.58,3.42,1.93,3.68a3.43,3.43,0,0,0,3.25.49,5.41,5.41,0,0,0,3.93-2.86c.12-.22.76-1.61,2-6.72v0l.17-1.08c.42-2.74.55-4,.59-4.44a41.35,41.35,0,0,1-.59-5.4,28.51,28.51,0,0,0-.45-4.16c-.82-3.56-2.2-6.15-4.09-7.72-1.18-1-3.18-2.17-7.18-1.41-.3.06-.54.15-.88.73a11.24,11.24,0,0,0-1.07,3.91l-1.2,8.44-2.44,1.37a23,23,0,0,0-2.38,1.46l-7.65,5.89-1.39-9.55a5.9,5.9,0,0,0-.13-.66A3.59,3.59,0,0,0,222.15,43,3.34,3.34,0,0,0,220.27,42.36Zm33.11,9.85Z"/><path class="cls-2" d="M264,72.82a10.91,10.91,0,0,1-5.43-1.38,9.92,9.92,0,0,1-4.87-6.8,23.06,23.06,0,0,1,0-9.47,24.82,24.82,0,0,1,3.4-8.56,12.66,12.66,0,0,1,1.29-1.68,7.36,7.36,0,0,1,3.47-2.45l.27-.14a11.43,11.43,0,0,1,2.69-1,14.59,14.59,0,0,1,10.05,1.47,19.88,19.88,0,0,1,6.77,5.85,20.94,20.94,0,0,1,3.75,8,13.61,13.61,0,0,1-.4,7.42,10.13,10.13,0,0,1-6.6,6.61l-1.3.4-.49-.08a13.82,13.82,0,0,1-5.3-.25q-.36-.09-.72-.21a8.7,8.7,0,0,1-3.22,1.86l-.49.16-.51.07c-.4,0-1,.11-1.81.16l-.26,0Zm.77-15.41a4.69,4.69,0,0,0,0,.75l2.05-.13-.31-1.4-1.23-.9-.15.21a13.38,13.38,0,0,0-.35,1.42Zm6.29-2.35,0,0h0Zm-8.75-12.7-.34.08Z"/><path class="cls-2" d="M291.68,79.1h-.36a19.27,19.27,0,0,1-7.72-1.9c-4.1-1.91-5.87-4.47-6.6-6.61-1.12-2.26-1.6-5.13-1.52-9a17.82,17.82,0,0,1,4.4-10.89c3-3.68,6.5-5.77,10.35-6.23l1.42-.24a14.24,14.24,0,0,1,2.32-.18,13.67,13.67,0,0,1,8.5,2.83,11.18,11.18,0,0,1,4.06,9.31,11.51,11.51,0,0,1-2.87,7.33,9.25,9.25,0,0,1,.8,4,11.3,11.3,0,0,1-4.61,8.91A13.32,13.32,0,0,1,291.68,79.1Zm-4-12.53a7,7,0,0,0,.74.4,9.12,9.12,0,0,0,2.18.72l-3.36-7,4.83-2.59a13.32,13.32,0,0,0,2.88-1.83,1.33,1.33,0,0,0,.3-.35,2.93,2.93,0,0,0,0-.36,4.06,4.06,0,0,0-1.49-.23l-.4.05-1.21.21-.52.08c-1.07.1-2.2,1.23-3,2.16a6.9,6.9,0,0,0-1.85,4,15.58,15.58,0,0,0,.16,2.93l.46.37Zm5.54.69Z"/><path class="cls-2" d="M317.93,79.49a12.16,12.16,0,0,1-4.77-1,10.7,10.7,0,0,1-5.47-4.86,10.43,10.43,0,0,1-5.11-.77c-5.78-2.44-7.52-6.36-7.95-9.22-.42-2.68.17-5.88,1.81-9.76,2.05-4.86,4.49-8.21,7.47-10.23a12.35,12.35,0,0,1,12.1-1A10.07,10.07,0,0,1,320.28,46l.38-.18a9.35,9.35,0,0,1,7.86,0,13,13,0,0,1,7.53,8.66A15.88,15.88,0,0,1,335,64.73,22.29,22.29,0,0,1,333.17,68a13.6,13.6,0,0,0-.93,1.6A11,11,0,0,1,329.65,73l-.16.36-1,.86a26.51,26.51,0,0,1-5.4,4A11.5,11.5,0,0,1,317.93,79.49Zm-.06-11.31h.06a.35.35,0,0,0,.13-.05,23.76,23.76,0,0,0,2.37-1.86l.4-.41c.73-.73,1.13-1.16,1.35-1.41a27.16,27.16,0,0,1,1.46-2.52,11.48,11.48,0,0,0,.92-1.6,5.37,5.37,0,0,0,.54-3.07,1.2,1.2,0,0,0-.41-.67l-.31.32-4.11,4.26-2.78-.32c-.85-.09-1.17-.09-1.17-.09h-.39l4.6,1.55L317.94,68C317.91,68.07,317.89,68.13,317.87,68.18Zm4-3h0Zm-16-3.42a3.69,3.69,0,0,0,.71.45L307,61l.27-.11h-.4l4.11-8a.81.81,0,0,0-.73.18c-.5.34-1.83,1.53-3.41,5.26A12,12,0,0,0,305.8,61.79Z"/><path class="cls-2" d="M334.17,79.51a11.15,11.15,0,0,1-6-1.81,12.87,12.87,0,0,1-5.43-5.92,9.3,9.3,0,0,1,.89-8.63,22.76,22.76,0,0,1,6.05-6.79,10.91,10.91,0,0,1,1.85-6.25A9.75,9.75,0,0,1,337.41,46a13.85,13.85,0,0,1,5.75-.18l.49.11,1,.22a9.4,9.4,0,0,1,3.17,1.21,12.09,12.09,0,0,1,4.91,6,10,10,0,0,1-.77,9,10.21,10.21,0,0,1-4.86,4.09,15.23,15.23,0,0,1-2.39,6.37c-.52.83-1.43,2-1.8,2.43l-.29.34-.34.3a13.32,13.32,0,0,1-6.11,3.31A10.18,10.18,0,0,1,334.17,79.51ZM334,68l.13.09a2.08,2.08,0,0,0,.35-.26c.3-.37.59-.75.69-.9a8.31,8.31,0,0,0,.5-.92A12.19,12.19,0,0,0,334,68Zm1.17-1.07Z"/><path class="cls-10" d="M258.36,57.79s-2,8.16-2.75,9.61a11,11,0,0,1-7.67,5.73A9,9,0,0,1,240,71.64c-2.08-1.57-4.35-7.09-5-10.23l-2.61,1.53,1,2.57a7.57,7.57,0,0,1-1.56,6.56,9.85,9.85,0,0,1-5.73,4.06q-7.92,1.82-12-2.34-3.18-3.21-5.09-11.52Q204,40.22,218.32,36.93a8.64,8.64,0,0,1,6.94,1.38,9.27,9.27,0,0,1,4.17,5.8c.09.39.68,4.42.74,4.78.63-.49,1.41-.56,2.82-1.35.18-1.25.17-7.37.52-9.89a16.9,16.9,0,0,1,1.77-5.93A6.79,6.79,0,0,1,240,28.25q7.08-1.35,11.83,2.6,4.33,3.59,6,10.81a32.92,32.92,0,0,1,.59,5.1A60.84,60.84,0,0,1,258.36,57.79Z"/><path class="cls-10" d="M276.68,65.29h-.11a8.45,8.45,0,0,1-3.91,0,4,4,0,0,1-3-2.35,5.83,5.83,0,0,1-1.12.7c-.79,1.9-1.78,3-3,3.42-.33,0-.81.08-1.45.12a5.36,5.36,0,0,1-2.83-.65,4.38,4.38,0,0,1-2.11-3.08,17.39,17.39,0,0,1,0-7.15,19.29,19.29,0,0,1,2.63-6.65,10.8,10.8,0,0,1,.77-1,2.55,2.55,0,0,1,.87-.77,5.86,5.86,0,0,0,1.19-.51,5.78,5.78,0,0,1,1.31-.53,9,9,0,0,1,6.25.95A14.34,14.34,0,0,1,277.1,52a15.07,15.07,0,0,1,2.75,5.84,7.9,7.9,0,0,1-.21,4.38A4.51,4.51,0,0,1,276.68,65.29Zm-7.28-5.91a1.36,1.36,0,0,0,.45-.32,5.25,5.25,0,0,0,.37-.71,1.43,1.43,0,0,0,.18-.66,1,1,0,0,0,0-.29,3.43,3.43,0,0,1-.1-.33,1.56,1.56,0,0,0-.82-1.08,1.93,1.93,0,0,0-1.39-.16,3.12,3.12,0,0,0-.63.24,1.81,1.81,0,0,0-.67.92,2.17,2.17,0,0,0-.26,1.13,1.7,1.7,0,0,0,.35.68,2.39,2.39,0,0,0,.7.49A3.62,3.62,0,0,0,269.4,59.38Z"/><path class="cls-10" d="M292.23,63.38s2.11-1,5.31,1.2a3.11,3.11,0,0,1,1.27,2.81,5.58,5.58,0,0,1-2.37,4.53,7.82,7.82,0,0,1-5,1.53A13.68,13.68,0,0,1,286,72.09c-2.25-1.06-3.51-2.32-3.78-3.81l-.09-.07q-1.1-2.07-1-6.48a12.24,12.24,0,0,1,3.13-7.44c2.1-2.58,4.37-4,6.79-4.21,0,0,.74-.14,1.46-.25a10.31,10.31,0,0,1,1.34-.12,8.18,8.18,0,0,1,5.06,1.57,5.67,5.67,0,0,1,2,4.79,6,6,0,0,1-2.08,4.36C296.78,62.12,296.11,61.42,292.23,63.38Z"/><path class="cls-10" d="M327,67.41a17.5,17.5,0,0,1-2.18,2.42l-.06.14a26.93,26.93,0,0,1-4.22,3.22,6,6,0,0,1-5.23.09,4.92,4.92,0,0,1-3-3.19c-.42-1.35.81-5.14,1.54-6.73l-1.66-.14-.82,2.07a4.16,4.16,0,0,1-2.79,2.4,5.3,5.3,0,0,1-3.83,0c-2.72-1.14-4.24-2.77-4.56-4.86q-.37-2.43,1.43-6.71,4.8-11.37,12.18-8.26a4.79,4.79,0,0,1,2.63,2.83,5,5,0,0,1,0,3.89c-.08.2-1.67,2.83-1.76,3a18.63,18.63,0,0,1,2.22.12c.48-.5,2.45-3.68,3.41-4.68A9.16,9.16,0,0,1,323,50.93a3.68,3.68,0,0,1,3.19,0,7.38,7.38,0,0,1,4.4,4.93,10.33,10.33,0,0,1-.8,6.69A18.36,18.36,0,0,1,328.41,65,17.55,17.55,0,0,0,327,67.41Z"/><path class="cls-10" d="M339.14,60.78a9.06,9.06,0,0,1-3.47-3.23q-.92-1.9.67-4.44A4.32,4.32,0,0,1,339,51.46a8.65,8.65,0,0,1,3.21,0l1.37.3a3.83,3.83,0,0,1,1.3.46,6.36,6.36,0,0,1,2.62,3.25,4.35,4.35,0,0,1-.27,4,4.83,4.83,0,0,1-3.72,2.23A6.34,6.34,0,0,1,339.14,60.78Zm.81,9.15c-.32.51-1.07,1.45-1.31,1.75a1,1,0,0,1-.18.18,7.76,7.76,0,0,1-3.41,1.91,5.2,5.2,0,0,1-3.86-.86q-5-3.14-2.75-6.76,4.11-6.57,7.76-6.12a4.19,4.19,0,0,1,1.45.46c.77.39,1.21.61,1.33.69.21-.12,2.59,2.84,2.57,4.33A9.09,9.09,0,0,1,340,69.93Z"/><polygon class="cls-2" points="50.98 58.49 55.12 60.3 57.23 53.12 50.98 58.49"/><polygon class="cls-2" points="66.78 47.3 70.92 49.1 73.03 41.93 66.78 47.3"/><polygon class="cls-2" points="134.11 44.71 138.24 46.51 140.35 39.34 134.11 44.71"/><polygon class="cls-2" points="148.11 40.91 152.25 42.72 154.36 35.54 148.11 40.91"/><polygon class="cls-2" points="91.67 47.81 95.81 49.62 97.92 42.44 91.67 47.81"/><polygon class="cls-2" points="180.16 76.7 176.72 77.02 174.27 81.75 180.16 76.7"/><path class="cls-2" d="M64.91,95.1a12.72,12.72,0,0,1-6.76-1.91c-2.84-1.76-5.41-5-7.83-9.79C47.25,77.27,46,72.1,46.51,67.59A14.79,14.79,0,0,1,55.1,55.65a12,12,0,0,1,8.11-1,13.49,13.49,0,0,1,.47-2.39,10.68,10.68,0,0,1,5.88-6.91c6.13-2.79,11-1.62,14-.15,3.65,1.77,6.64,4.93,8.87,9.38a30.19,30.19,0,0,1,1.69,4.5,19.14,19.14,0,0,0,1,2.74h0c.5,1,.75,2,1.06,5.42l.2.4V69c.05,5.54-.28,7.58-.56,8.73A13.94,13.94,0,0,1,88.25,87a12.49,12.49,0,0,1-10,.79A12.67,12.67,0,0,1,72.86,93,17.8,17.8,0,0,1,64.91,95.1ZM60.48,65.67a.58.58,0,0,0-.32.09c-1.82.91-2.28,1.89-2.42,3.09-.17,1.54.16,4.44,2.69,9.49,2,4.09,3.41,5.08,3.67,5.23.92.58,2.71-.17,3.69-.66a2.12,2.12,0,0,0,.79-1.09,4.15,4.15,0,0,0,.13-.4l-1.07-2,1.5-4.48,8.77-5.23,2.64,5.67A3.21,3.21,0,0,0,81.9,77c.23.1.48.21,1.28-.19A2.64,2.64,0,0,0,84.82,75a28.37,28.37,0,0,0,.23-4.76L85,69.32c-.16-1.77-.26-2.66-.32-3.07a34.44,34.44,0,0,1-1.37-3.83,21,21,0,0,0-1-2.75,9,9,0,0,0-3.72-4.28c-.81-.4-2-.73-4.07.16a8.11,8.11,0,0,0,0,2.43l.69,7.07L73.13,67a14.24,14.24,0,0,0-1.34,1.35l-6.06,7.54-3.6-9c-.05-.12-.1-.24-.16-.36s-.23-.46-.94-.72A1.65,1.65,0,0,0,60.48,65.67ZM85,66.91Z"/><path class="cls-2" d="M98.42,80.54a12.11,12.11,0,0,1-4.71-.94,10.91,10.91,0,0,1-6.11-6.88,26.94,26.94,0,0,1-1.2-11,29.1,29.1,0,0,1,2.89-10.41,15.89,15.89,0,0,1,1.25-2,7.75,7.75,0,0,1,3.43-3l.44-.27a12.16,12.16,0,0,1,2.83-1.46A16.55,16.55,0,0,1,108.8,45a23,23,0,0,1,8.53,5.91,24.19,24.19,0,0,1,5.34,8.81,15.34,15.34,0,0,1,.46,8.39c-.83,3.66-4.13,6.4-5.51,7.41l-.71.51-.83.28a16.12,16.12,0,0,1-7.32.75,15,15,0,0,1-1.54-.31,9.65,9.65,0,0,1-3.72,2.93l-.47.21-.5.13q-.7.16-2.1.42l-.25,0A13.24,13.24,0,0,1,98.42,80.54Zm-.06-11.31h.25v0l-.32-.27-.06,0,.09.26A.46.46,0,0,0,98.36,69.23Zm12.4-3.39a3.77,3.77,0,0,0,.86-.08,5.62,5.62,0,0,0,.55-.57,4.22,4.22,0,0,0-.23-1.95,10.52,10.52,0,0,0-.51-1.27,7.41,7.41,0,0,1-.39,3C111,65.32,110.86,65.59,110.76,65.84Zm1.35-.29h0Zm-11.69-1.34a4.57,4.57,0,0,0,.41.57l.25,0,.53-.44-.41.42.8-.13.66-.57.11-.56-.9,1.09-1-2.88-.49-.29a2.7,2.7,0,0,0-.17.31A4.9,4.9,0,0,0,100.42,64.21Zm-.29-.62v0Zm3.44-.38v0h0Zm.62-.93.16.27L106.12,61a3.53,3.53,0,0,0-.49-.67l-.09-.08ZM98,56.8l-.09,0ZM94.33,46.11l-.24.09Z"/><path class="cls-2" d="M127,79.19a16.93,16.93,0,0,1-5.22-.86c-3.75-1.22-5.6-3.26-6.5-5.09A16.39,16.39,0,0,1,113,65.87a15.21,15.21,0,0,1,2.57-9.72,14,14,0,0,1,6.82-6l.26-.25,1.66-.36-.14,0,.67-.18a12,12,0,0,1,2-.41,11.89,11.89,0,0,1,7.68,1.56,10.5,10.5,0,0,1,3.31,14,8.37,8.37,0,0,1,.83,2.9,10.1,10.1,0,0,1-3.1,8.41,11.88,11.88,0,0,1-7.13,3.26A15.11,15.11,0,0,1,127,79.19Z"/><path class="cls-2" d="M142.06,74.85c-5.08,0-8-2.31-9.55-4.37s-2.67-5.25-3.1-9.43c-1.64-16.15,7.68-18.87,11.77-19.28a10.13,10.13,0,0,1,5.34.88c.08-.11.16-.23.25-.34a9.41,9.41,0,0,1,6.89-3.79,13,13,0,0,1,10.76,4,15.84,15.84,0,0,1,4,9.54,23.3,23.3,0,0,1,0,3.75,11.31,11.31,0,0,0,0,1.85,11.11,11.11,0,0,1-.65,4.23l0,.39-.45,1.23a27.38,27.38,0,0,1-2.81,6.12,11.63,11.63,0,0,1-8.61,5A10.75,10.75,0,0,1,148.76,73a10.44,10.44,0,0,1-4.85,1.78A17.17,17.17,0,0,1,142.06,74.85Zm13.1-11.15Zm-13.73-.21a3.82,3.82,0,0,0,.83,0l-.16-1.28-.26.15-.17-9.27a.83.83,0,0,0-.55.51c-.28.54-.87,2.22-.46,6.25A11.52,11.52,0,0,0,141.43,63.49Zm13.17-6.61.46,6.24c0,.07,0,.13,0,.18s.06,0,.06,0,0,0,.09-.1a20.91,20.91,0,0,0,1.18-2.77l.16-.56c.29-1,.43-1.56.51-1.88a27.65,27.65,0,0,1,.07-2.91,11.31,11.31,0,0,0,0-1.85,5.33,5.33,0,0,0-1-3,1.14,1.14,0,0,0-.68-.39c0,.12-.08.27-.13.43L153.82,56l-2.59,1c-.8.33-1.06.48-1.07.48l-.32.19Zm2.53,1.9v0h0Z"/><path class="cls-2" d="M168,83.75a13.19,13.19,0,0,1-1.83-.14,12.86,12.86,0,0,1-7.36-3.21,9.33,9.33,0,0,1-2.68-8.26,22.75,22.75,0,0,1,2.78-8.65,11,11,0,0,1-.83-6.46,9.77,9.77,0,0,1,3.7-6.11,11.12,11.12,0,0,1,4.19-2.3l0,0,.25-.05a9,9,0,0,1,1-.18l.17,0,1-.22a9.36,9.36,0,0,1,3.38-.17,12.08,12.08,0,0,1,6.94,3.54,10,10,0,0,1,3,8.58,10.29,10.29,0,0,1-2.79,5.7,15.1,15.1,0,0,1,.39,6.79h0a30.06,30.06,0,0,1-.67,3l-.12.44-.19.41a13.37,13.37,0,0,1-4.26,5.49A10.46,10.46,0,0,1,168,83.75Zm-.45-11.36.16,0a2.78,2.78,0,0,0,.22-.37c.12-.47.23-.93.26-1.11a10.41,10.41,0,0,0,.09-1A12.18,12.18,0,0,0,167.55,72.39Z"/><path class="cls-2" d="M70.12,90.61a12.66,12.66,0,0,1-6.75-1.91c-2.85-1.76-5.42-5-7.84-9.79C46.7,61.28,54.73,54,60.31,51.16a12,12,0,0,1,8.11-1,13.2,13.2,0,0,1,.47-2.38,10.7,10.7,0,0,1,5.88-6.92c6.13-2.79,11-1.62,14-.15,3.65,1.78,6.64,4.94,8.87,9.39a30,30,0,0,1,1.69,4.49,20.86,20.86,0,0,0,1,2.75c.5,1,.75,2,1.06,5.41l.2.4V64.5c0,5.53-.28,7.57-.56,8.73a13.93,13.93,0,0,1-7.54,9.24,12.45,12.45,0,0,1-10,.79,12.67,12.67,0,0,1-5.39,5.27A17.67,17.67,0,0,1,70.12,90.61ZM65.69,61.18a.68.68,0,0,0-.32.09c-1.44.72-4.82,2.42.27,12.58,2,4.09,3.42,5.08,3.67,5.24.92.57,2.71-.17,3.7-.67a2.08,2.08,0,0,0,.78-1.09,3.42,3.42,0,0,0,.13-.39l-1.07-2,1.5-4.48,8.77-5.24,2.64,5.68a3.14,3.14,0,0,0,1.36,1.65c.22.1.47.22,1.27-.19A2.65,2.65,0,0,0,90,70.49a28.37,28.37,0,0,0,.23-4.76l-.07-.89c-.15-1.78-.26-2.66-.32-3.08a34.44,34.44,0,0,1-1.37-3.83,18.39,18.39,0,0,0-1-2.74,8.94,8.94,0,0,0-3.72-4.29c-.81-.4-2-.72-4.07.16a8.11,8.11,0,0,0,0,2.43l.69,7.07-2,1.9A15,15,0,0,0,77,63.82l-6,7.53-3.6-9c0-.12-.1-.24-.16-.36s-.23-.46-.94-.71A1.73,1.73,0,0,0,65.69,61.18Zm24.49,1.24h0Z"/><path class="cls-2" d="M103.63,76.05a11.85,11.85,0,0,1-4.7-.94,10.9,10.9,0,0,1-6.12-6.88,27.12,27.12,0,0,1-1.2-11A29.1,29.1,0,0,1,94.5,46.83a16.6,16.6,0,0,1,1.25-2,7.75,7.75,0,0,1,3.43-3l.44-.27A12.77,12.77,0,0,1,102.45,40a16.61,16.61,0,0,1,11.56.44,23.14,23.14,0,0,1,8.54,5.91,24.2,24.2,0,0,1,5.33,8.82,15.33,15.33,0,0,1,.46,8.39c-.83,3.66-4.13,6.39-5.51,7.4l-.71.51-.83.28a16,16,0,0,1-7.32.75,12.72,12.72,0,0,1-1.54-.31,9.77,9.77,0,0,1-3.72,2.94l-.47.21-.5.12c-.46.11-1.16.26-2.1.42l-.25,0A15,15,0,0,1,103.63,76.05Zm-.06-11.3h.25v0l-.32-.26-.06,0,.09.27ZM116,61.36a5.19,5.19,0,0,0,.86-.08,6.84,6.84,0,0,0,.55-.58,4.18,4.18,0,0,0-.23-1.94,9.9,9.9,0,0,0-.51-1.27,7.48,7.48,0,0,1-.38,3C116.16,60.83,116.07,61.1,116,61.36Zm1.35-.3h0Zm-11.69-1.33a3.28,3.28,0,0,0,.43.57l.21,0,.55-.46-.42.44.8-.14.67-.58L108,59l-.9,1.09-1-2.86-.51-.3a2.86,2.86,0,0,0-.16.31A4.9,4.9,0,0,0,105.63,59.73Zm-.29-.62v0Zm3.44-.38h0Zm.62-.94.15.27,1.78-1.55a3.89,3.89,0,0,0-.49-.67l-.09-.08ZM99.54,41.62l-.24.09Z"/><path class="cls-2" d="M132.19,74.7a16.93,16.93,0,0,1-5.22-.86c-3.75-1.21-5.6-3.26-6.5-5.09a16.27,16.27,0,0,1-2.21-7.37,15.17,15.17,0,0,1,2.56-9.72c2.17-3.45,4.92-5.6,8.19-6.41l1.09-.33a12.26,12.26,0,0,1,2-.41,12,12,0,0,1,7.69,1.56,10.5,10.5,0,0,1,3.31,14,8.42,8.42,0,0,1,.83,2.91,10.08,10.08,0,0,1-3.1,8.41,11.93,11.93,0,0,1-7.13,3.25C133.2,74.67,132.69,74.7,132.19,74.7Z"/><path class="cls-2" d="M147.27,70.36c-5.08,0-8-2.31-9.55-4.37s-2.67-5.24-3.1-9.43C133,40.41,142.3,37.7,146.39,37.28a10.13,10.13,0,0,1,5.34.88l.25-.33A9.37,9.37,0,0,1,158.87,34a13,13,0,0,1,10.76,4,15.84,15.84,0,0,1,4,9.55,22.06,22.06,0,0,1,0,3.74,11.27,11.27,0,0,0,0,1.85,11.16,11.16,0,0,1-.65,4.24l0,.39L172.53,59a27.45,27.45,0,0,1-2.81,6.11,11.63,11.63,0,0,1-8.61,5A10.69,10.69,0,0,1,154,68.48a10.44,10.44,0,0,1-4.85,1.78A17.17,17.17,0,0,1,147.27,70.36ZM146.64,59a3.21,3.21,0,0,0,.83,0l-.16-1.27-.27.15-.16-9.28a.85.85,0,0,0-.55.51c-.28.54-.87,2.22-.46,6.25A11.43,11.43,0,0,0,146.64,59Zm13.17-6.61.46,6.25c0,.06,0,.12,0,.17l.06,0a.6.6,0,0,0,.1-.11,25.68,25.68,0,0,0,1.18-2.77l.15-.56c.29-1,.44-1.56.51-1.88a27.65,27.65,0,0,1,.07-2.91,11.31,11.31,0,0,0,0-1.85,5.36,5.36,0,0,0-1-3,1.19,1.19,0,0,0-.68-.39c0,.13-.08.27-.12.43L159,51.51l-2.59,1.06c-.8.32-1.06.47-1.07.47l-.32.19Zm2.53,1.9v0h0Z"/><path class="cls-2" d="M173.21,79.26a13.13,13.13,0,0,1-1.83-.13c-8.45-1.22-10.69-6.94-10-11.47A22.87,22.87,0,0,1,164.12,59a11,11,0,0,1-.83-6.46,9.77,9.77,0,0,1,3.7-6.11,11.13,11.13,0,0,1,4.16-2.29l0,0,.27,0a7.32,7.32,0,0,1,1-.19l.17,0,1-.21a9.38,9.38,0,0,1,3.38-.18A12.06,12.06,0,0,1,184,47a10,10,0,0,1,3,8.57,10.32,10.32,0,0,1-2.79,5.71,15.4,15.4,0,0,1,.39,6.79h0c-.14,1-.52,2.38-.67,2.94l-.12.44-.19.41a13.47,13.47,0,0,1-4.26,5.5A10.53,10.53,0,0,1,173.21,79.26Zm-.45-11.36.16,0a3,3,0,0,0,.22-.38c.12-.47.23-.93.26-1.11a10,10,0,0,0,.09-1A12.39,12.39,0,0,0,172.76,67.9Z"/><path class="cls-10" d="M95.24,59.9a25.05,25.05,0,0,1,.58,4.46l.09.18a36.26,36.26,0,0,1-.4,7.33,8.25,8.25,0,0,1-4.59,5.55,6.8,6.8,0,0,1-6,.32c-1.8-.78-4.37-4.07-5.39-6.26L77.75,72.6,79,74.42a5.7,5.7,0,0,1,0,5.07,7.39,7.39,0,0,1-3.47,4q-5.46,2.73-9.2.42-2.88-1.79-5.76-7.52Q53,61.17,62.84,56.22A6.51,6.51,0,0,1,68.16,56a7,7,0,0,1,4.07,3.5c.14.27,1.32,3.07,1.42,3.32.38-.47.89-.77,1.78-1.6-.09-1-1.17-5.26-1.36-7.17a12.49,12.49,0,0,1,.24-4.65A5.1,5.1,0,0,1,77.15,46q4.93-2.25,9.11-.2,3.81,1.84,6.31,6.84a24.54,24.54,0,0,1,1.33,3.62A24.77,24.77,0,0,0,95.24,59.9Z"/><path class="cls-10" d="M119.5,66.41a10.43,10.43,0,0,1-4.76.51,4.91,4.91,0,0,1-3.91-2.47,7.77,7.77,0,0,1-1.27,1q-1.08,3.61-3.15,4.54c-.39.09-1,.21-1.75.34a6.63,6.63,0,0,1-3.52-.42,5.36,5.36,0,0,1-3-3.47,21.18,21.18,0,0,1-.93-8.69,23.7,23.7,0,0,1,2.33-8.43,11.16,11.16,0,0,1,.81-1.28c.43-.64.75-1,1-1.06a7.69,7.69,0,0,0,1.38-.77,7.16,7.16,0,0,1,1.52-.82,11,11,0,0,1,7.71.33,17.46,17.46,0,0,1,6.46,4.5A18.57,18.57,0,0,1,122.52,57a9.78,9.78,0,0,1,.31,5.34C122.38,64.32,119.5,66.41,119.5,66.41ZM110,60.19a1.63,1.63,0,0,0,.5-.46,5.08,5.08,0,0,0,.36-.9A1.9,1.9,0,0,0,111,58c0-.08-.08-.19-.15-.34a3,3,0,0,1-.16-.34,1.92,1.92,0,0,0-1.1-1.25,2.39,2.39,0,0,0-1.71,0,4.76,4.76,0,0,0-.74.38,2.3,2.3,0,0,0-.68,1.21A2.49,2.49,0,0,0,106.3,59a1.91,1.91,0,0,0,.52.77,2.75,2.75,0,0,0,.9.51A4.52,4.52,0,0,0,110,60.19Z"/><path class="cls-10" d="M133.5,61.56h0c3.28-.94,2.9-.57,3.54-.12a2.82,2.82,0,0,1,1.27,2.09,4.39,4.39,0,0,1-1.42,3.78A6.15,6.15,0,0,1,133.12,69a10.74,10.74,0,0,1-4.41-.54q-2.81-.9-3.33-2.61l-.08,0a10.85,10.85,0,0,1-1.42-5,9.63,9.63,0,0,1,1.72-6.14q2.1-3.35,4.92-4s.57-.19,1.12-.34a5.57,5.57,0,0,1,1-.22,6.39,6.39,0,0,1,4.13.73,4.45,4.45,0,0,1,2,3.57,4.78,4.78,0,0,1-1.2,3.62A10.85,10.85,0,0,1,133.5,61.56Z"/><path class="cls-10" d="M167.21,56.91a53.54,53.54,0,0,1-2.14,5,6,6,0,0,1-4.54,2.59,4.92,4.92,0,0,1-4.18-1.35c-1-1-1.67-5.21-1.8-6.95l-1.6.73.26,2.46a4.11,4.11,0,0,1-1.28,3.44,5.32,5.32,0,0,1-3.38,1.81q-4.41.45-6.34-2.08c-1-1.3-1.65-3.49-2-6.57Q139,43.72,147,42.9a4.71,4.71,0,0,1,3.66,1.22,5,5,0,0,1,1.86,3.42c0,.22,0,2.63,0,2.83a11,11,0,0,1,1.71-.95c.18-.67.6-3.76,1-5.1a9.13,9.13,0,0,1,1.36-3.09,3.7,3.7,0,0,1,2.79-1.55,7.42,7.42,0,0,1,6.23,2.21A10.39,10.39,0,0,1,168,48.14a19.09,19.09,0,0,1,0,2.8A32.75,32.75,0,0,1,167.21,56.91Z"/><path class="cls-10" d="M174.54,59.22a9,9,0,0,1-4.47-1.54c-1.08-.93-1.47-2.37-1.19-4.33a4.45,4.45,0,0,1,1.74-2.59,4.55,4.55,0,0,1,2.87-1.29l0,0,1.37-.28a3.79,3.79,0,0,1,1.37-.1A6.33,6.33,0,0,1,180,51a4.36,4.36,0,0,1,1.39,3.81,4.81,4.81,0,0,1-2.49,3.55A6.45,6.45,0,0,1,174.54,59.22Zm4.45,8c-.08.6-.39,1.76-.49,2.14a.92.92,0,0,1-.09.23,7.75,7.75,0,0,1-2.34,3.13,5.21,5.21,0,0,1-3.88.77q-5.87-.84-5.26-5.07,1.11-7.66,4.63-8.74a4.2,4.2,0,0,1,1.5-.16q1.31.06,1.5.09a.73.73,0,0,1,.74-.24,6.06,6.06,0,0,1,3.36,3.16A9,9,0,0,1,179,67.26Z"/></g></g></svg>