<svg xmlns="http://www.w3.org/2000/svg" xmlns:xlink="http://www.w3.org/1999/xlink" viewBox="0 0 394 352.83"><defs><style>.cls-1{fill:#470928;}.cls-2{fill:url(#Dégradé_sans_nom_17);}.cls-3{fill:#ee4e8a;}.cls-4{fill:url(#Dégradé_sans_nom_17-2);}.cls-5{fill:url(#Dégradé_sans_nom_17-3);}.cls-6{fill:url(#Dégradé_sans_nom_17-4);}.cls-7{fill:url(#Dégradé_sans_nom_17-5);}.cls-8{fill:url(#Dégradé_sans_nom_17-6);}.cls-9{fill:url(#Dégradé_sans_nom_17-7);}.cls-10{fill:url(#Dégradé_sans_nom_2);}.cls-11{fill:url(#Dégradé_sans_nom_2-2);}.cls-12{fill:url(#Dégradé_sans_nom_2-3);}.cls-13{fill:url(#Dégradé_sans_nom_2-4);}.cls-14{fill:url(#Dégradé_sans_nom_2-5);}.cls-15{fill:#f69e9f;}.cls-16{fill:url(#Dégradé_sans_nom_2-6);}.cls-17{fill:url(#Dégradé_sans_nom_2-7);}.cls-18{fill:url(#Dégradé_sans_nom_2-8);}.cls-19{fill:url(#Dégradé_sans_nom_2-9);}.cls-20{fill:url(#Dégradé_sans_nom_2-10);}.cls-21{fill:#33061b;}.cls-22{fill:url(#Dégradé_sans_nom_17-8);}.cls-23{fill:url(#Dégradé_sans_nom_2-11);}.cls-24{fill:url(#Dégradé_sans_nom_2-12);}.cls-25{fill:url(#Dégradé_sans_nom_2-13);}.cls-26{fill:url(#Dégradé_sans_nom_17-9);}</style><linearGradient id="Dégradé_sans_nom_17" x1="41.55" y1="138.53" x2="43.66" y2="194.04" gradientUnits="userSpaceOnUse"><stop offset="0.13" stop-color="#ef96b9"/><stop offset="0.13" stop-color="#ef89b1"/><stop offset="0.15" stop-color="#ef73a2"/><stop offset="0.17" stop-color="#ee6297"/><stop offset="0.19" stop-color="#ee5790"/><stop offset="0.23" stop-color="#ee508b"/><stop offset="0.32" stop-color="#ee4e8a"/><stop offset="0.32" stop-color="#ea4c87"/><stop offset="0.36" stop-color="#d44578"/><stop offset="0.4" stop-color="#c33e6d"/><stop offset="0.45" stop-color="#b83a65"/><stop offset="0.52" stop-color="#b13860"/><stop offset="0.72" stop-color="#af375f"/></linearGradient><linearGradient id="Dégradé_sans_nom_17-2" x1="100.72" y1="138.97" x2="103.25" y2="189.51" xlink:href="#Dégradé_sans_nom_17"/><linearGradient id="Dégradé_sans_nom_17-3" x1="149.48" y1="140.31" x2="153.09" y2="187.37" xlink:href="#Dégradé_sans_nom_17"/><linearGradient id="Dégradé_sans_nom_17-4" x1="202.6" y1="136.84" x2="205.14" y2="186.98" xlink:href="#Dégradé_sans_nom_17"/><linearGradient id="Dégradé_sans_nom_17-5" x1="253.03" y1="140.82" x2="253.65" y2="181.3" xlink:href="#Dégradé_sans_nom_17"/><linearGradient id="Dégradé_sans_nom_17-6" x1="300.43" y1="141.44" x2="302.97" y2="189.18" xlink:href="#Dégradé_sans_nom_17"/><linearGradient id="Dégradé_sans_nom_17-7" x1="353.14" y1="137.99" x2="357.95" y2="188.38" xlink:href="#Dégradé_sans_nom_17"/><linearGradient id="Dégradé_sans_nom_2" x1="178.06" y1="68.72" x2="181.21" y2="105.76" gradientUnits="userSpaceOnUse"><stop offset="0.13" stop-color="#e7c8c8"/><stop offset="0.14" stop-color="#e9c3c3"/><stop offset="0.17" stop-color="#efb2b3"/><stop offset="0.21" stop-color="#f3a7a7"/><stop offset="0.27" stop-color="#f5a0a1"/><stop offset="0.44" stop-color="#f69e9f"/><stop offset="0.44" stop-color="#f69b9c"/><stop offset="0.47" stop-color="#f38a8e"/><stop offset="0.51" stop-color="#f17f84"/><stop offset="0.57" stop-color="#f0787e"/><stop offset="0.72" stop-color="#f0767c"/></linearGradient><linearGradient id="Dégradé_sans_nom_2-2" x1="146.12" y1="70.69" x2="150.74" y2="107.89" xlink:href="#Dégradé_sans_nom_2"/><linearGradient id="Dégradé_sans_nom_2-3" x1="105.25" y1="70.91" x2="110.2" y2="105.67" xlink:href="#Dégradé_sans_nom_2"/><linearGradient id="Dégradé_sans_nom_2-4" x1="64.44" y1="73.07" x2="66.03" y2="115.61" xlink:href="#Dégradé_sans_nom_2"/><linearGradient id="Dégradé_sans_nom_2-5" x1="16.91" y1="68.56" x2="25.22" y2="105.11" xlink:href="#Dégradé_sans_nom_2"/><linearGradient id="Dégradé_sans_nom_2-6" x1="223.56" y1="67.45" x2="231.88" y2="103.99" xlink:href="#Dégradé_sans_nom_2"/><linearGradient id="Dégradé_sans_nom_2-7" x1="271.09" y1="71.96" x2="272.68" y2="114.5" xlink:href="#Dégradé_sans_nom_2"/><linearGradient id="Dégradé_sans_nom_2-8" x1="311.9" y1="69.79" x2="316.86" y2="104.55" xlink:href="#Dégradé_sans_nom_2"/><linearGradient id="Dégradé_sans_nom_2-9" x1="352.77" y1="69.58" x2="357.39" y2="106.78" xlink:href="#Dégradé_sans_nom_2"/><linearGradient id="Dégradé_sans_nom_2-10" x1="384.71" y1="67.6" x2="387.87" y2="104.64" xlink:href="#Dégradé_sans_nom_2"/><linearGradient id="Dégradé_sans_nom_17-8" x1="200.33" y1="312.27" x2="201.86" y2="348.37" xlink:href="#Dégradé_sans_nom_17"/><linearGradient id="Dégradé_sans_nom_2-11" x1="161.52" y1="302.71" x2="161.06" y2="334.11" xlink:href="#Dégradé_sans_nom_2"/><linearGradient id="Dégradé_sans_nom_2-12" x1="280.06" y1="313.47" x2="279.6" y2="344.84" xlink:href="#Dégradé_sans_nom_2"/><linearGradient id="Dégradé_sans_nom_2-13" x1="317.4" y1="313.47" x2="316.95" y2="344.84" xlink:href="#Dégradé_sans_nom_2"/><linearGradient id="Dégradé_sans_nom_17-9" x1="355.65" y1="308.9" x2="357.16" y2="344.54" xlink:href="#Dégradé_sans_nom_17"/></defs><title>hhm_vf_1</title><g id="Calque_2" data-name="Calque 2"><g id="Calque_7" data-name="Calque 7"><path class="cls-1" d="M375.37,67.31A6.82,6.82,0,0,0,373.83,65a7.6,7.6,0,0,0-13.08,5.48v.45a90.19,90.19,0,0,1,4.79,14V74.1a2.52,2.52,0,0,1,2.81-2.81,2.65,2.65,0,0,1,2.09.72h0a2.73,2.73,0,0,1,.71,2.09v31a3.77,3.77,0,0,1-.12,1,5.46,5.46,0,0,1-2.69.65h-.08c0,2-.07,4-.21,6l.29,0a7.42,7.42,0,0,0,5.5-2.16,7,7,0,0,0,1.52-2.34,12.43,12.43,0,0,1-.4-3.16V70.46A12.47,12.47,0,0,1,375.37,67.31Zm-7-.81A7.61,7.61,0,0,0,363.69,68a4.38,4.38,0,0,1,.87-1.29,5.77,5.77,0,0,1,7.58,0A4.71,4.71,0,0,1,373,68,7.7,7.7,0,0,0,368.35,66.5Z"/><path class="cls-1" d="M385,112.61c.11-2,.17-4,.16-6a5.51,5.51,0,0,1-1.72-.55,4.48,4.48,0,0,1-.1-1V87.18a106.88,106.88,0,0,0-3.81-14.53v29h0v3.41a12.65,12.65,0,0,1-.41,3.18,6.84,6.84,0,0,0,1.54,2.36h0A7.17,7.17,0,0,0,385,112.61Z"/><path class="cls-1" d="M187.7,63.51a11,11,0,0,1,3.24,8.06v14a89.91,89.91,0,0,1,167.24-20,10.69,10.69,0,0,1,2.15-3.11,11,11,0,0,1,8-3.18,11.33,11.33,0,0,1,6.57,2c-.22-.47-.44-.94-.67-1.41A106.83,106.83,0,0,0,182,60.61,10.8,10.8,0,0,1,187.7,63.51Z"/><path class="cls-1" d="M179.57,113.82a7.68,7.68,0,0,0,5.61-2.1,7.47,7.47,0,0,0,2.17-5.56v-3.64h0V71.57a7.39,7.39,0,0,0-2.17-5.5,7.51,7.51,0,0,0-4.72-2c-.34.78-.69,1.55-1,2.34h.12a5.34,5.34,0,0,1,3.93,1.42,4.3,4.3,0,0,1,.92,1.32,8,8,0,0,0-4.85-1.5c-.21,0-.41,0-.62,0a107.4,107.4,0,0,0-6.06,21.88v16.62a12.73,12.73,0,0,1-.4,3.19A6.8,6.8,0,0,0,174,111.7,7.5,7.5,0,0,0,179.57,113.82Zm-2.87-38.6a2.7,2.7,0,0,1,.72-2.1,2.79,2.79,0,0,1,2.15-.71,2.93,2.93,0,0,1,2.26.73,2.66,2.66,0,0,1,.72,2.08v30.94a4.29,4.29,0,0,1-.1,1,6,6,0,0,1-2.88.66,5.73,5.73,0,0,1-2.77-.64,4.48,4.48,0,0,1-.1-1Z"/><path class="cls-1" d="M372.66,130.08a12.74,12.74,0,0,1,8.93,3.72l.09.1a107.77,107.77,0,0,0,3.09-17.68,10.88,10.88,0,0,1-6.63-3.09,9.67,9.67,0,0,1-.89-1,10.77,10.77,0,0,1-.83,1,11,11,0,0,1-8.07,3.24l-.59,0a90.74,90.74,0,0,1-3.59,17.3A12.24,12.24,0,0,1,372.66,130.08Z"/><path class="cls-1" d="M138.44,201.87a33.43,33.43,0,0,1-11-4.81l0,0,0,0a12.75,12.75,0,0,1-3.69-4.16,12,12,0,0,1-1.31-5.57v-3.88a12.27,12.27,0,0,1,2.79-7.83,10.88,10.88,0,0,1,4.24-3.22,17.33,17.33,0,0,1-3.24-4.05,19.59,19.59,0,0,1-2.3-6.81l-9.59,11.09v17.36a12.93,12.93,0,0,1-4,9.82,14.39,14.39,0,0,1-18.72,0,12.87,12.87,0,0,1-4.06-9.86v-3.48h0V172.55l-1.92-2.25-8.52,3.41v16.93a12.47,12.47,0,0,1-3.52,9.05,12.43,12.43,0,0,1-21.3-9.05V190a13.28,13.28,0,0,1-2.59,2.46,12.54,12.54,0,0,1-14.16,0A14,14,0,0,1,33.82,191l-.87.35a12.13,12.13,0,0,1-12.46,11.88,12.9,12.9,0,0,1-2-.16,32.33,32.33,0,0,0,41,47.13l81.28-47.8C140,202.23,139.22,202.06,138.44,201.87Z"/><path class="cls-1" d="M340.18,189.92v-3.48h0V172.55l-.17-.21a89.56,89.56,0,0,1-9.42,7.74l.1.13,0,0,0,0a13.36,13.36,0,0,1,2.44,7.37v3.9a11.35,11.35,0,0,1-4.34,8.69,13.49,13.49,0,0,1-8.71,3.07,13.66,13.66,0,0,1-6.39-1.57,14,14,0,0,1-5.06-4.58l-3.12-4.56c-2.55.82-5.11,1.49-7.69,2.07a12.35,12.35,0,0,1-2.84,4.63,13,13,0,0,1-9.58,3.76,13.3,13.3,0,0,1-9.07-3.26c-.05,0-.1.1-.16.14a13.83,13.83,0,0,1-9,2.8H239.42a12.09,12.09,0,0,1-12.81-12.81v-9.45a90.09,90.09,0,0,1-10.26-8.39v17.84a14.44,14.44,0,0,1-.47,3.66,107.39,107.39,0,0,0,56.18,20c1.7.1,6.66.19,7.45.18a107.16,107.16,0,0,0,61.13-20.06A15.53,15.53,0,0,1,340.18,189.92Z"/><path class="cls-1" d="M189.43,158.1h-5.32a16.16,16.16,0,0,1-6-1c-.15.2-.29.41-.45.62a11.08,11.08,0,0,1-3.37,2.85,18.68,18.68,0,0,1,4.52,5.08c.27.46.52.94.75,1.42l9.45-1.46.39.58Z"/><path class="cls-1" d="M175,133.41c2.25-1.89,5.32-2.85,9.11-2.85h7.45a89.87,89.87,0,0,1-3-17.3,9.76,9.76,0,0,1-.9,1,11.32,11.32,0,0,1-8.13,3.13,11.14,11.14,0,0,1-7.82-2.94,106.23,106.23,0,0,0,3.11,19.06Z"/><path class="cls-1" d="M73.46,147v-3.59a9.6,9.6,0,0,0-2.6-6.88,8.92,8.92,0,0,0-6.7-2.74c-2.61,0-6.27,1.06-8.88,6.11L42.72,163.63,30.07,139.84a12.16,12.16,0,0,0-3.71-4.4,9,9,0,0,0-5.31-1.68,9.06,9.06,0,0,0-6.73,2.72,9.5,9.5,0,0,0-2.65,6.9v43.67h0v3.59a8.74,8.74,0,0,0,2.53,6.53,8.63,8.63,0,0,0,6.29,2.45,8.69,8.69,0,0,0,6.39-2.51,8.8,8.8,0,0,0,2.5-6.47V176.79L33.94,185a12.48,12.48,0,0,0,3.62,4.48,8.93,8.93,0,0,0,10,0A12.45,12.45,0,0,0,51.17,185l4.65-8.56v10.57h0v3.59a8.74,8.74,0,0,0,2.53,6.53,9.35,9.35,0,0,0,12.64,0,8.85,8.85,0,0,0,2.47-6.51V147Zm-57,43.67V147a4.81,4.81,0,0,1,1.28-3.54,4.33,4.33,0,0,1,3.31-1.29,4.3,4.3,0,0,1,2.55.81,7.49,7.49,0,0,1,2.24,2.74l16.89,31.76,16.81-31.79c1.63-3.15,3.42-3.52,4.62-3.52a4.18,4.18,0,0,1,3.24,1.28A4.85,4.85,0,0,1,68.66,147v43.67a5.24,5.24,0,0,1-.35,2,6.68,6.68,0,0,1-3.67,1,6.58,6.58,0,0,1-3.67-1,5.11,5.11,0,0,1-.36-2v-33L47,182.77c-.21.4-.42.75-.61,1l-.17.14A6.57,6.57,0,0,1,39,184c-.06,0-.11-.1-.16-.14q-.3-.47-.63-1.08L24.59,158.25v32.39a5,5,0,0,1-.36,2,6.61,6.61,0,0,1-3.74,1,6.63,6.63,0,0,1-3.68-1A5.31,5.31,0,0,1,16.46,190.64Zm47.7-54.49a6.57,6.57,0,0,1,5,2,6.24,6.24,0,0,1,.89,1.17,9,9,0,0,0-5.86-2,8.9,8.9,0,0,0-5.89,2.2A7,7,0,0,1,64.16,136.15Zm-43.11,0A6.68,6.68,0,0,1,25,137.4a8.73,8.73,0,0,1,2.21,2.31,10.7,10.7,0,0,0-.83-.68,9.08,9.08,0,0,0-5.31-1.68,9.11,9.11,0,0,0-5.94,2,6.57,6.57,0,0,1,5.94-3.22Z"/><path class="cls-1" d="M129.08,144.58a8.58,8.58,0,0,0-2.67-8.19,9.07,9.07,0,0,0-6.44-2.71,8.74,8.74,0,0,0-6.7,3.23l-12.4,14.71L88.49,136.94a8.77,8.77,0,0,0-6.73-3.26,9,9,0,0,0-6.39,2.67,8.6,8.6,0,0,0-2.83,6.39,8.72,8.72,0,0,0,.19,1.77A8.78,8.78,0,0,0,75,152.38l16.13,18.84v15.11h0v3.59a9.25,9.25,0,0,0,2.87,7.2,10.08,10.08,0,0,0,7,2.5,9.81,9.81,0,0,0,6.88-2.52,9.32,9.32,0,0,0,2.82-7.18v-18.7l16.29-18.85a9.07,9.07,0,0,0,2.33-6A8.48,8.48,0,0,0,129.08,144.58Zm-28.21,18.07,16-19a3.93,3.93,0,0,1,3.08-1.59,4.34,4.34,0,0,1,3.12,1.38,4,4,0,0,1,1.39,3,4.38,4.38,0,0,1-1.18,2.85l-17.44,20.18v20.48a6.12,6.12,0,0,1-.44,2.42,7.77,7.77,0,0,1-4.47,1.29,7.94,7.94,0,0,1-4.64-1.34,5.94,5.94,0,0,1-.43-2.37V169.45l-17.3-20.21a4.32,4.32,0,0,1-1.24-2.91,3.87,3.87,0,0,1,1.35-2.93,4.26,4.26,0,0,1,3.07-1.34,4,4,0,0,1,3.07,1.56ZM120,136.07a6.75,6.75,0,0,1,4.78,2.05,7.51,7.51,0,0,1,1.12,1.39,8.91,8.91,0,0,0-5.9-2.24,8.53,8.53,0,0,0-5.92,2.43l1-1.22A6.31,6.31,0,0,1,120,136.07Zm-38.21,0a6.33,6.33,0,0,1,4.9,2.41l1,1.21a8.52,8.52,0,0,0-5.91-2.42,8.86,8.86,0,0,0-5.84,2.19A6.73,6.73,0,0,1,77,138.08,6.64,6.64,0,0,1,81.76,136.07Z"/><path class="cls-1" d="M177.91,179.44v-3.19c0-.07,0-.13,0-.2a16.63,16.63,0,0,0-2.18-8.6,17.94,17.94,0,0,0-7.19-6.4,50.89,50.89,0,0,0-12.74-4.28A47.27,47.27,0,0,1,149,155c-.57-.22-1-.42-1.35-.59l.08-.06a10.06,10.06,0,0,1,5.31-1.2,21.27,21.27,0,0,1,4.95.54,16.39,16.39,0,0,1,3.84,1.39c1.2.64,1.93,1,2.18,1.18a14.25,14.25,0,0,0,3,1.47,8.52,8.52,0,0,0,2.66.4,6.48,6.48,0,0,0,5.2-2.67,8.87,8.87,0,0,0,1.93-5.67,9.69,9.69,0,0,0-.17-1.82,10.21,10.21,0,0,0,.17-1.77,8.49,8.49,0,0,0-.87-3.95,8.86,8.86,0,0,0-2.77-3.05,28.77,28.77,0,0,0-9.11-4.38A41.33,41.33,0,0,0,153,133.44,31.74,31.74,0,0,0,140,136a22.74,22.74,0,0,0-9.35,7.32,17.78,17.78,0,0,0-3.51,10.59h0v4h0a17.61,17.61,0,0,0,2.1,8.63,17.09,17.09,0,0,0,7.29,6.44,52.37,52.37,0,0,0,13.07,4.24,35.3,35.3,0,0,1,7.47,2.07,13.46,13.46,0,0,1-5.64.91,28.29,28.29,0,0,1-6.77-.74,23.83,23.83,0,0,1-5.9-2.39,15.48,15.48,0,0,0-2.86-1.41,8.92,8.92,0,0,0-2.77-.44,6.62,6.62,0,0,0-5.22,2.64,8.74,8.74,0,0,0-2,5.6v3.84a8.47,8.47,0,0,0,.87,3.87,9.66,9.66,0,0,0,2.7,3,29.83,29.83,0,0,0,9.82,4.25,50.86,50.86,0,0,0,12.52,1.48,34.66,34.66,0,0,0,13.31-2.39,21.41,21.41,0,0,0,9.33-7.06,17.81,17.81,0,0,0,3.43-10.77C177.92,179.57,177.91,179.51,177.91,179.44ZM141,138.2a29.28,29.28,0,0,1,12-2.37,38.59,38.59,0,0,1,10.44,1.29,26,26,0,0,1,8.34,4,6.68,6.68,0,0,1,2,2.12l-.59-.47a29,29,0,0,0-9.11-4.38A41.33,41.33,0,0,0,153,137a31.91,31.91,0,0,0-13,2.57,24.06,24.06,0,0,0-7.12,4.76A20.44,20.44,0,0,1,141,138.2Zm-11.75,41.94a8.14,8.14,0,0,1,.55-.8,4.26,4.26,0,0,1,3.37-1.77,6.14,6.14,0,0,1,2,.33,12.34,12.34,0,0,1,2.41,1.2,26,26,0,0,0,6.54,2.65,30.51,30.51,0,0,0,7.34.8c3.16,0,5.55-.46,7.18-1.4a2.11,2.11,0,0,1-1.18,1.51c-.87.5-2.61,1.09-6,1.09a28.87,28.87,0,0,1-6.78-.73,23.41,23.41,0,0,1-5.86-2.37,14.42,14.42,0,0,0-2.9-1.43,8.64,8.64,0,0,0-2.77-.45A6.39,6.39,0,0,0,129.22,180.14Zm41.4,7.44a.1.1,0,0,1,0,0,20.08,20.08,0,0,1-6.33,4,32.14,32.14,0,0,1-12.4,2.21,48.29,48.29,0,0,1-11.92-1.4,27.5,27.5,0,0,1-9-3.88,4.72,4.72,0,0,1-.2-1.48,4,4,0,0,1,.91-2.66,1.87,1.87,0,0,1,1.51-.88,3.94,3.94,0,0,1,1.25.19,10.94,10.94,0,0,1,2,1,28.62,28.62,0,0,0,7.15,2.89,33.11,33.11,0,0,0,7.92.87c3.61,0,6.35-.56,8.37-1.72a6.85,6.85,0,0,0,3.65-6.21,5.67,5.67,0,0,0-2.62-4.68,4.56,4.56,0,0,0-2.06-2.09q-2.29-1.32-8.71-2.61a50.43,50.43,0,0,1-12.44-4,18.43,18.43,0,0,1-3.93-2.64c-.1-.15-.2-.3-.29-.45a14,14,0,0,1,1.09-14.38,18,18,0,0,1,7.43-5.76,27,27,0,0,1,11-2.17,36.64,36.64,0,0,1,9.79,1.2,23.81,23.81,0,0,1,7.59,3.65,4.26,4.26,0,0,1,1.32,1.36,3.76,3.76,0,0,1,.34,1.75,4.42,4.42,0,0,1-.36,1.78,3.74,3.74,0,0,1-2,.57,6.25,6.25,0,0,1-1.93-.28,12.87,12.87,0,0,1-2.49-1.25c-.27-.16-1-.57-2.29-1.24a18.19,18.19,0,0,0-4.41-1.61,23.83,23.83,0,0,0-5.5-.6,12.16,12.16,0,0,0-6.58,1.57,5.4,5.4,0,0,0-2,2.09,6.93,6.93,0,0,0-2.88,5.64,5.93,5.93,0,0,0,1.52,4.1,10.69,10.69,0,0,0,4.19,2.51,49.84,49.84,0,0,0,7.5,2,46.26,46.26,0,0,1,11.5,3.82,13.2,13.2,0,0,1,5.33,4.61,12,12,0,0,1,1.51,6.16A12.94,12.94,0,0,1,170.62,187.58Zm-2.07-22.93a50.31,50.31,0,0,0-12.77-4.29,45.16,45.16,0,0,1-6.77-1.78,6.33,6.33,0,0,1-2.38-1.27,1.11,1.11,0,0,1-.25-.86v0a15.92,15.92,0,0,0,1.77.81,48.8,48.8,0,0,0,7.15,1.88,48,48,0,0,1,12.12,4.06,16.39,16.39,0,0,1,5.78,4.75A21.86,21.86,0,0,0,168.55,164.65Z"/><path class="cls-1" d="M230.91,144.29a11.3,11.3,0,0,0,.14-1.79,7.82,7.82,0,0,0-2.58-6.34c-1.61-1.35-3.83-2-6.8-2H184.11c-2.93,0-5.21.67-6.8,2a7.85,7.85,0,0,0-2.58,6.34,11.52,11.52,0,0,0,.14,1.8,11.3,11.3,0,0,0-.14,1.79,8,8,0,0,0,2.55,6.35,10.23,10.23,0,0,0,6.83,2.07H193v31.82h0v3.58a9.29,9.29,0,0,0,2.78,7,10.83,10.83,0,0,0,14.16,0,9.29,9.29,0,0,0,2.78-7V154.51h8.92a10.21,10.21,0,0,0,6.83-2.07,8,8,0,0,0,2.56-6.35A11.5,11.5,0,0,0,230.91,144.29ZM208,149.71v40.21a5.5,5.5,0,0,1-.45,2.29,8.62,8.62,0,0,1-9.23,0,5.34,5.34,0,0,1-.46-2.29V149.71h-2.39v-1.19H184.11a9.24,9.24,0,0,1-4.41-.92,5.8,5.8,0,0,1-.18-1.51c0-1.93.65-2.48.87-2.66a6,6,0,0,1,3.72-.88h37.56a6,6,0,0,1,3.72.88c.22.18.87.73.87,2.66a5.4,5.4,0,0,1-.18,1.51,9.21,9.21,0,0,1-4.41.92H210.36v1.19Zm-23.85-13.15h37.56a8.08,8.08,0,0,1,5.26,1.44,4.33,4.33,0,0,1,1.06,1.4,10.7,10.7,0,0,0-6.32-1.65H184.11a10.75,10.75,0,0,0-6.35,1.71,4.18,4.18,0,0,1,1.09-1.46A8.08,8.08,0,0,1,184.11,136.56Z"/><path class="cls-1" d="M267.2,179.35H249.37V176h16.22a10.39,10.39,0,0,0,6.74-2A7.36,7.36,0,0,0,275,168.3h0v-3.89c0-2.43-.91-8.1-9.38-8.1H249.37v-2.37H267.2c8.47,0,9.38-5.71,9.38-8.17a8.66,8.66,0,0,0-.18-1.76,9.46,9.46,0,0,0,.18-1.84,7.39,7.39,0,0,0-2.65-6,10.34,10.34,0,0,0-6.73-2H239.43a8.52,8.52,0,0,0-9.22,9.22V147h0v42.95a8.54,8.54,0,0,0,9.22,9.22H267.2a10.34,10.34,0,0,0,6.73-2,7.42,7.42,0,0,0,2.65-6,9.36,9.36,0,0,0-.18-1.83,8.66,8.66,0,0,0,.18-1.76C276.58,185.07,275.67,179.35,267.2,179.35Zm-1.61-20.64c3.31,0,5.42,1,6.38,2.9a10.68,10.68,0,0,0-6.38-1.7H249.37v-1.2Zm-31.22-20.39a6.82,6.82,0,0,1,5.06-1.76H267.2a8.12,8.12,0,0,1,5.22,1.44,4.59,4.59,0,0,1,1.18,1.52,10.61,10.61,0,0,0-6.4-1.77H239.42a9.6,9.6,0,0,0-5.93,1.77A5.54,5.54,0,0,1,234.37,138.32Zm37.29,53.86a8.94,8.94,0,0,1-4.46,1H239.43a7.7,7.7,0,0,1-4.06-1,6.12,6.12,0,0,1-.37-2.25V147a3.82,3.82,0,0,1,4.42-4.42H267.2a6,6,0,0,1,3.7.9,2.68,2.68,0,0,1,.89,2.32,5.52,5.52,0,0,1-.12,1.23,9.07,9.07,0,0,1-4.47.95H247v1.2h-2.4V164.7h21c4.59,0,4.59,2,4.59,3.31a4.56,4.56,0,0,1-.12,1.06,9.1,9.1,0,0,1-4.47,1H247v1.2h-2.4v16.51H267.2c4.23,0,4.59,1.67,4.59,3.38A3.93,3.93,0,0,1,271.66,192.18ZM267.2,183H249.37v-1.2H267.2c3.29,0,5.39,1,6.36,2.9A10.65,10.65,0,0,0,267.2,183Z"/><path class="cls-1" d="M329.58,187.64a9.83,9.83,0,0,0-1.84-5.37l-5-7.19a23.53,23.53,0,0,0-1.83-2.29,17.67,17.67,0,0,0,3.19-3.1,19.35,19.35,0,0,0,4.05-12.36c0-.11,0-.21,0-.32v-2.95c0-.11,0-.21,0-.33,0-6.32-2-11.26-6-14.7s-9.61-5-17-5H285a8.54,8.54,0,0,0-9.22,9.22v42.95h0v3.59a9.17,9.17,0,0,0,9.7,9.7,9.37,9.37,0,0,0,7-2.69,9.58,9.58,0,0,0,2.62-7v-12h2.82a3.13,3.13,0,0,1,1.67.4,6,6,0,0,1,1.65,1.68l10.43,15.25a10.37,10.37,0,0,0,3.76,3.42,10.27,10.27,0,0,0,11.17-1.1,7.73,7.73,0,0,0,3-6Zm-49.67-49.48a6.81,6.81,0,0,1,5-1.77h20.15q10.27,0,15.45,4.46a13.43,13.43,0,0,1,2.2,2.39c-.21-.21-.41-.42-.63-.61-3.89-3.34-9.61-5-17-5H285a9.58,9.58,0,0,0-5.93,1.77A5.23,5.23,0,0,1,279.91,138.16Zm20.91,34.4a5.49,5.49,0,0,0-2.93-.76h-5.22V173h-2.4v16.77a6,6,0,0,1-.5,2.54,8.56,8.56,0,0,1-8.74-.06,5.8,5.8,0,0,1-.49-2.48V146.81a3.82,3.82,0,0,1,4.42-4.42h20.15c6.23,0,10.9,1.3,13.89,3.87s4.35,6.14,4.35,11.07a14.59,14.59,0,0,1-2.72,9,18,18,0,0,1-8.37,4.29,12.2,12.2,0,0,1,2,.49,20.41,20.41,0,0,1-2.54.77L302.49,174A7.06,7.06,0,0,0,300.82,172.56Zm19.24,3a14.17,14.17,0,0,0-1.4-1.23l.24-.15C319.29,174.55,319.67,175,320.06,175.52Zm4.55,16.77a7.82,7.82,0,0,1-8.1.54,7.51,7.51,0,0,1-1.17-.79l-10.19-14.9a13.26,13.26,0,0,0-1.57-1.85l8.32,1.27a8.42,8.42,0,0,1,3.61,1.36,14.41,14.41,0,0,1,3.29,3.5l4.95,7.1a5.23,5.23,0,0,1,1,2.76A3,3,0,0,1,324.61,192.29Z"/><path class="cls-1" d="M314.33,157.81c0-3.15-1-5.51-3.1-7l-.08-.05a4.78,4.78,0,0,0-1.34-1.61q-2.13-1.58-7-1.57H292.51v1.2h-2.4v18h12.67c3.82,0,6.57-.65,8.43-2C312.63,163.71,314.33,161.68,314.33,157.81Zm-19.42-4.27h7.87c3.58,0,5.05.69,5.61,1.1a2.49,2.49,0,0,1,.9,1.34,2.3,2.3,0,0,1-.88,1.26c-.56.41-2,1.08-5.63,1.08h-7.87Zm13.5,7.3h0c-.56.4-2,1.08-5.63,1.08h-7.87v-1.2h7.87a13.68,13.68,0,0,0,6.53-1.22A2.39,2.39,0,0,1,308.41,160.84Z"/><path class="cls-1" d="M382,146.19V143c0-.07,0-.14,0-.2a8.69,8.69,0,0,0-2.86-6.43,9.07,9.07,0,0,0-6.44-2.71,8.78,8.78,0,0,0-6.71,3.23l-12.39,14.71-12.38-14.68a8.78,8.78,0,0,0-6.73-3.26,9,9,0,0,0-6.4,2.67,8.62,8.62,0,0,0-2.82,6.39,8.72,8.72,0,0,0,.19,1.77,9.06,9.06,0,0,0-.19,1.82,9,9,0,0,0,2.42,6l16.12,18.84v15.11h0v3.59a9.25,9.25,0,0,0,2.87,7.2,10.08,10.08,0,0,0,7,2.5,9.81,9.81,0,0,0,6.88-2.52,9.32,9.32,0,0,0,2.82-7.18v-18.7l16.29-18.85a9.07,9.07,0,0,0,2.33-6C382,146.34,382,146.27,382,146.19Zm-52.24-8.11a6.68,6.68,0,0,1,4.74-2,6.33,6.33,0,0,1,4.9,2.41l1,1.21a8.52,8.52,0,0,0-5.91-2.42,8.86,8.86,0,0,0-5.84,2.19A7,7,0,0,1,329.71,138.08ZM376,149.26l-17.44,20.18v20.48a5.94,5.94,0,0,1-.45,2.42,7.72,7.72,0,0,1-4.46,1.29,7.92,7.92,0,0,1-4.64-1.34,5.94,5.94,0,0,1-.43-2.37V169.45l-17.3-20.21a4.34,4.34,0,0,1-1.25-2.91,3.88,3.88,0,0,1,1.36-2.93,4.26,4.26,0,0,1,3.07-1.34,4,4,0,0,1,3.07,1.56l16,19,16-19a3.93,3.93,0,0,1,3.08-1.59,4.31,4.31,0,0,1,3.11,1.38,4,4,0,0,1,1.4,3A4.38,4.38,0,0,1,376,149.26Zm-3.33-12a8.53,8.53,0,0,0-5.92,2.43l1-1.22a6.35,6.35,0,0,1,4.9-2.41,6.75,6.75,0,0,1,4.78,2.05,7.94,7.94,0,0,1,1.12,1.39A9,9,0,0,0,372.66,137.27Z"/><path class="cls-2" d="M64.64,192.88a5.55,5.55,0,0,1-4.09-1.55A5.64,5.64,0,0,1,59,187.05v-23.6a.75.75,0,0,0-.57-.73.55.55,0,0,0-.18,0,.74.74,0,0,0-.66.39L48.4,180a9.79,9.79,0,0,1-2.66,3.4,5.85,5.85,0,0,1-6.36,0,9.89,9.89,0,0,1-2.66-3.4l-9.08-16.38a.72.72,0,0,0-.65-.39l-.19,0a.76.76,0,0,0-.56.73v23.12a5.66,5.66,0,0,1-1.59,4.24,5.58,5.58,0,0,1-4.16,1.59,5.59,5.59,0,0,1-4.1-1.55,5.68,5.68,0,0,1-1.58-4.28V143.38a6.34,6.34,0,0,1,1.76-4.69,5.94,5.94,0,0,1,4.48-1.79,5.92,5.92,0,0,1,3.5,1.11,9.2,9.2,0,0,1,2.74,3.3L42.06,169.1a.75.75,0,0,0,.66.39h0a.75.75,0,0,0,.66-.39l14.69-27.78c1.54-3,3.53-4.42,6.09-4.42a5.85,5.85,0,0,1,4.43,1.78,6.44,6.44,0,0,1,1.72,4.7v43.67a5.74,5.74,0,0,1-1.55,4.28A5.53,5.53,0,0,1,64.64,192.88Z"/><path class="cls-3" d="M64.16,137.65a5.11,5.11,0,0,1,3.89,1.55,5.71,5.71,0,0,1,1.51,4.18v43.67a5,5,0,0,1-1.33,3.75,4.78,4.78,0,0,1-3.59,1.33,4.85,4.85,0,0,1-3.57-1.34,4.94,4.94,0,0,1-1.35-3.74v-23.6A1.51,1.51,0,0,0,58.58,162a1.47,1.47,0,0,0-.36,0,1.49,1.49,0,0,0-1.32.78L47.74,179.6a9,9,0,0,1-2.44,3.13,5,5,0,0,1-5.48,0,9,9,0,0,1-2.45-3.15L28.3,163.2a1.51,1.51,0,0,0-1.31-.77,1.24,1.24,0,0,0-.38,0,1.49,1.49,0,0,0-1.12,1.45v23.12a5,5,0,0,1-1.37,3.71,4.87,4.87,0,0,1-3.63,1.37,4.85,4.85,0,0,1-3.57-1.34,5,5,0,0,1-1.36-3.74V143.38a5.68,5.68,0,0,1,1.54-4.17,5.24,5.24,0,0,1,3.95-1.56,5.19,5.19,0,0,1,3.07,1,8.45,8.45,0,0,1,2.51,3L41.4,169.45a1.49,1.49,0,0,0,1.32.79h0a1.5,1.5,0,0,0,1.33-.79l14.69-27.79c1.4-2.7,3.17-4,5.42-4m0-1.5q-4.26,0-6.75,4.82L42.72,168.74,28,141a9.67,9.67,0,0,0-3-3.57,6.68,6.68,0,0,0-3.93-1.25,6.71,6.71,0,0,0-5,2,7.15,7.15,0,0,0-2,5.22v43.67a6.42,6.42,0,0,0,1.81,4.81,6.31,6.31,0,0,0,4.62,1.77,6.32,6.32,0,0,0,4.69-1.81A6.42,6.42,0,0,0,27,187.05V163.93l9.07,16.37A10.36,10.36,0,0,0,39,184a6.57,6.57,0,0,0,7.22,0,10.36,10.36,0,0,0,2.89-3.66l9.16-16.85v23.6a6.42,6.42,0,0,0,1.8,4.81,7,7,0,0,0,9.27,0,6.48,6.48,0,0,0,1.77-4.81V143.38a7.21,7.21,0,0,0-1.93-5.22,6.57,6.57,0,0,0-5-2Z"/><path class="cls-4" d="M101,192.88a6.94,6.94,0,0,1-4.88-1.69,6.16,6.16,0,0,1-1.84-4.86V166.74a.74.74,0,0,0-.18-.49l-16.7-19.51a5.88,5.88,0,0,1-1.66-4,5.51,5.51,0,0,1,1.86-4.12,5.85,5.85,0,0,1,4.21-1.8A5.56,5.56,0,0,1,86.09,139l14.2,16.85a.78.78,0,0,0,.58.27.74.74,0,0,0,.57-.27L115.65,139a5.56,5.56,0,0,1,4.32-2.14,6,6,0,0,1,4.26,1.84,5.58,5.58,0,0,1,1.9,4.16,6,6,0,0,1-1.59,3.93l-16.85,19.5a.73.73,0,0,0-.19.49v19.59a6.24,6.24,0,0,1-1.8,4.86A6.66,6.66,0,0,1,101,192.88Z"/><path class="cls-3" d="M120,137.57a5.26,5.26,0,0,1,3.74,1.63,4.88,4.88,0,0,1,1.67,3.62,5.23,5.23,0,0,1-1.4,3.43l-16.86,19.51a1.48,1.48,0,0,0-.37,1v19.59a5.54,5.54,0,0,1-1.56,4.31,6,6,0,0,1-4.24,1.49,6.19,6.19,0,0,1-4.37-1.5,5.44,5.44,0,0,1-1.6-4.3V166.74a1.47,1.47,0,0,0-.36-1L77.91,146.24a5.17,5.17,0,0,1-1.47-3.5,4.77,4.77,0,0,1,1.63-3.58,5.16,5.16,0,0,1,3.69-1.59,4.82,4.82,0,0,1,3.75,1.88l14.21,16.86a1.51,1.51,0,0,0,2.3,0l14.19-16.85a4.83,4.83,0,0,1,3.76-1.89m0-1.5a6.31,6.31,0,0,0-4.89,2.41l-14.21,16.86L86.66,138.48a6.33,6.33,0,0,0-4.9-2.41,6.64,6.64,0,0,0-4.73,2,6.25,6.25,0,0,0-2.09,4.66,6.63,6.63,0,0,0,1.85,4.49l16.69,19.51v19.59a6.91,6.91,0,0,0,2.09,5.41,7.7,7.7,0,0,0,5.38,1.89,7.46,7.46,0,0,0,5.26-1.89,7,7,0,0,0,2-5.41V166.74l16.86-19.51a6.72,6.72,0,0,0,1.77-4.41,6.35,6.35,0,0,0-2.13-4.7,6.75,6.75,0,0,0-4.78-2.05Z"/><path class="cls-5" d="M139.93,192.47a27.47,27.47,0,0,1-9-3.9,6.82,6.82,0,0,1-2-2.16,6.14,6.14,0,0,1-.6-2.89,6.41,6.41,0,0,1,1.44-4.18,4.25,4.25,0,0,1,3.37-1.76,6.13,6.13,0,0,1,2,.32,12.34,12.34,0,0,1,2.41,1.2,26,26,0,0,0,6.54,2.65,30.51,30.51,0,0,0,7.34.8q4.74,0,7.19-1.4a4.51,4.51,0,0,0,2.45-4.14c0-1.23-.77-2.28-2.29-3.17s-4.43-1.75-8.71-2.61a50.43,50.43,0,0,1-12.44-4,14.65,14.65,0,0,1-6.3-5.5,15.19,15.19,0,0,1-1.81-7.67,15.45,15.45,0,0,1,3.05-9.31A20.32,20.32,0,0,1,141,138.2a29.28,29.28,0,0,1,12-2.37,38.59,38.59,0,0,1,10.44,1.29,26,26,0,0,1,8.34,4,6.46,6.46,0,0,1,2.05,2.21,6.16,6.16,0,0,1,.6,2.85,6.52,6.52,0,0,1-1.4,4.17,4.16,4.16,0,0,1-3.33,1.77,6.25,6.25,0,0,1-1.93-.28,12.87,12.87,0,0,1-2.49-1.25c-.27-.16-1-.57-2.29-1.24a18.19,18.19,0,0,0-4.41-1.61,23.83,23.83,0,0,0-5.5-.6,12.16,12.16,0,0,0-6.58,1.57,4.71,4.71,0,0,0-2.49,4.13,3.53,3.53,0,0,0,.88,2.49,9.05,9.05,0,0,0,3.29,1.89,48.8,48.8,0,0,0,7.15,1.88,48,48,0,0,1,12.12,4.06,15.49,15.49,0,0,1,6.26,5.5,14.24,14.24,0,0,1,1.85,7.38,15.4,15.4,0,0,1-3,9.35,18.93,18.93,0,0,1-8.31,6.26,32.14,32.14,0,0,1-12.4,2.21A48.29,48.29,0,0,1,139.93,192.47Z"/><path class="cls-3" d="M153,137.63a37,37,0,0,1,9.95,1.22,24.36,24.36,0,0,1,7.78,3.74,4.63,4.63,0,0,1,1.5,1.57,4.41,4.41,0,0,1,.41,2,4.7,4.7,0,0,1-1,3.05,2.33,2.33,0,0,1-1.92,1.09,4.36,4.36,0,0,1-1.39-.2,11,11,0,0,1-2.11-1.07c-.2-.12-.65-.37-2.36-1.29A20.66,20.66,0,0,0,159,146a25.82,25.82,0,0,0-5.92-.65,13.94,13.94,0,0,0-7.54,1.85,6.48,6.48,0,0,0-3.33,5.65,5.28,5.28,0,0,0,1.36,3.7,10.26,10.26,0,0,0,4,2.35,48,48,0,0,0,7.4,2,46.56,46.56,0,0,1,11.66,3.88,13.72,13.72,0,0,1,5.56,4.83,12.57,12.57,0,0,1,1.6,6.47,13.57,13.57,0,0,1-2.62,8.29,17.34,17.34,0,0,1-7.55,5.66,30.5,30.5,0,0,1-11.71,2.07,46.34,46.34,0,0,1-11.48-1.35,25.58,25.58,0,0,1-8.41-3.6,5.16,5.16,0,0,1-1.45-1.56,4.38,4.38,0,0,1-.39-2,4.6,4.6,0,0,1,1-3,2.46,2.46,0,0,1,2-1.11,4.62,4.62,0,0,1,1.44.23,10.81,10.81,0,0,1,2,1l.06,0a28.08,28.08,0,0,0,7,2.82,32.42,32.42,0,0,0,7.77.86c3.51,0,6.16-.54,8.08-1.64a6.28,6.28,0,0,0,3.35-5.7c0-1.31-.55-3.2-3.18-4.72-1.71-1-4.74-1.91-9.24-2.81a49.33,49.33,0,0,1-12-3.86,13,13,0,0,1-5.56-4.79,14.56,14.56,0,0,1,1.13-15,18.77,18.77,0,0,1,7.67-6A27.61,27.61,0,0,1,153,137.63m0-1.8a29.28,29.28,0,0,0-12,2.37,20.32,20.32,0,0,0-8.39,6.54,15.45,15.45,0,0,0-3.05,9.31,15.19,15.19,0,0,0,1.81,7.67,14.65,14.65,0,0,0,6.3,5.5,50.43,50.43,0,0,0,12.44,4q6.42,1.29,8.71,2.61c1.52.89,2.29,1.94,2.29,3.17a4.51,4.51,0,0,1-2.45,4.14q-2.44,1.4-7.19,1.4a30.51,30.51,0,0,1-7.34-.8,26,26,0,0,1-6.54-2.65,12.34,12.34,0,0,0-2.41-1.2,6.13,6.13,0,0,0-2-.32,4.25,4.25,0,0,0-3.37,1.76,6.41,6.41,0,0,0-1.44,4.18,6.14,6.14,0,0,0,.6,2.89,6.82,6.82,0,0,0,2,2.16,27.47,27.47,0,0,0,9,3.9,48.29,48.29,0,0,0,11.92,1.4,32.14,32.14,0,0,0,12.4-2.21,18.93,18.93,0,0,0,8.31-6.26,15.4,15.4,0,0,0,3-9.35,14.24,14.24,0,0,0-1.85-7.38,15.49,15.49,0,0,0-6.26-5.5,48,48,0,0,0-12.12-4.06,48.8,48.8,0,0,1-7.15-1.88,9.05,9.05,0,0,1-3.29-1.89,3.53,3.53,0,0,1-.88-2.49,4.71,4.71,0,0,1,2.49-4.13,12.16,12.16,0,0,1,6.58-1.57,23.83,23.83,0,0,1,5.5.6,18.19,18.19,0,0,1,4.41,1.61c1.26.67,2,1.08,2.29,1.24a12.87,12.87,0,0,0,2.49,1.25,6.25,6.25,0,0,0,1.93.28,4.16,4.16,0,0,0,3.33-1.77,6.52,6.52,0,0,0,1.4-4.17,6.16,6.16,0,0,0-.6-2.85,6.46,6.46,0,0,0-2.05-2.21,26,26,0,0,0-8.34-4A38.59,38.59,0,0,0,153,135.83Z"/><path class="cls-6" d="M202.89,192.8A6.72,6.72,0,0,1,198,191a6.16,6.16,0,0,1-1.81-4.71V148.52a.75.75,0,0,0-.75-.75H184.11a7.21,7.21,0,0,1-4.77-1.31,4.89,4.89,0,0,1-1.47-4,4.79,4.79,0,0,1,1.46-3.92,7.37,7.37,0,0,1,4.78-1.27h37.56a7.37,7.37,0,0,1,4.78,1.27,4.79,4.79,0,0,1,1.46,3.92,4.89,4.89,0,0,1-1.47,4,7.21,7.21,0,0,1-4.77,1.31H210.36a.74.74,0,0,0-.75.75v37.81a6.17,6.17,0,0,1-1.82,4.71A6.72,6.72,0,0,1,202.89,192.8Z"/><path class="cls-3" d="M221.67,138.06a6.71,6.71,0,0,1,4.3,1.09,4.11,4.11,0,0,1,1.19,3.35,4.2,4.2,0,0,1-1.21,3.39,6.51,6.51,0,0,1-4.28,1.13H210.36a1.5,1.5,0,0,0-1.5,1.5v37.81a5.45,5.45,0,0,1-1.59,4.17,7,7,0,0,1-8.76,0,5.44,5.44,0,0,1-1.58-4.17V148.52a1.5,1.5,0,0,0-1.5-1.5H184.11a6.51,6.51,0,0,1-4.28-1.13,4.2,4.2,0,0,1-1.21-3.39,4.11,4.11,0,0,1,1.19-3.35,6.71,6.71,0,0,1,4.3-1.09h37.56m0-1.5H184.11a8.08,8.08,0,0,0-5.26,1.44,5.54,5.54,0,0,0-1.73,4.5,5.66,5.66,0,0,0,1.73,4.53,7.9,7.9,0,0,0,5.26,1.49h11.32v37.81a7,7,0,0,0,2,5.25,8.44,8.44,0,0,0,10.84,0,7,7,0,0,0,2.05-5.25V148.52h11.31a7.9,7.9,0,0,0,5.26-1.49,5.66,5.66,0,0,0,1.73-4.53,5.54,5.54,0,0,0-1.73-4.5,8.08,8.08,0,0,0-5.26-1.44Z"/><path class="cls-7" d="M239.42,192.4a5.44,5.44,0,0,1-6.07-6.07v-43a6.09,6.09,0,0,1,1.55-4.53,6.17,6.17,0,0,1,4.52-1.54H267.2a7.39,7.39,0,0,1,4.74,1.27,4.32,4.32,0,0,1,1.49,3.59c0,2.16-.64,5-6.23,5H247a.76.76,0,0,0-.75.75v10.76a.76.76,0,0,0,.75.75h18.62c5.59,0,6.24,2.83,6.24,4.95a4.33,4.33,0,0,1-1.49,3.59,7.42,7.42,0,0,1-4.75,1.28H247a.76.76,0,0,0-.75.75v11.72a.76.76,0,0,0,.75.75H267.2c5.59,0,6.23,2.87,6.23,5a4.3,4.3,0,0,1-1.49,3.59,7.39,7.39,0,0,1-4.74,1.28Z"/><path class="cls-3" d="M267.2,138.06a6.76,6.76,0,0,1,4.27,1.1,3.63,3.63,0,0,1,1.21,3c0,2.12-.65,4.28-5.48,4.28H247a1.5,1.5,0,0,0-1.5,1.5v10.76a1.5,1.5,0,0,0,1.5,1.5h18.62c4.84,0,5.49,2.12,5.49,4.2a3.62,3.62,0,0,1-1.22,3,6.7,6.7,0,0,1-4.27,1.11H247a1.5,1.5,0,0,0-1.5,1.5v11.72a1.5,1.5,0,0,0,1.5,1.5H267.2c4.83,0,5.48,2.16,5.48,4.28a3.62,3.62,0,0,1-1.21,3,6.7,6.7,0,0,1-4.27,1.11H239.43a4.7,4.7,0,0,1-5.33-5.32v-43a4.69,4.69,0,0,1,5.33-5.32H267.2m0-1.5H239.43a6.16,6.16,0,0,0-6.83,6.82v43a6.17,6.17,0,0,0,6.83,6.82H267.2a8.06,8.06,0,0,0,5.22-1.45,5.09,5.09,0,0,0,1.76-4.17q0-5.78-7-5.78H247V170h18.62a8.06,8.06,0,0,0,5.22-1.45,5.06,5.06,0,0,0,1.77-4.17q0-5.7-7-5.7H247V148H267.2q7,0,7-5.78a5.1,5.1,0,0,0-1.76-4.17,8.12,8.12,0,0,0-5.22-1.44Z"/><path class="cls-8" d="M320.12,193a7,7,0,0,1-3.26-.8,7.36,7.36,0,0,1-2.62-2.4L303.8,174.5a9.16,9.16,0,0,0-2.59-2.58,6.25,6.25,0,0,0-3.32-.87h-5.22a.75.75,0,0,0-.75.75v14.37a6.54,6.54,0,0,1-1.71,4.81,6.33,6.33,0,0,1-4.77,1.74,6.05,6.05,0,0,1-6.55-6.55V143.22a5.44,5.44,0,0,1,6.07-6.08h20.15c6.64,0,11.67,1.44,15,4.28s4.91,7,4.91,12.31a16.28,16.28,0,0,1-3.37,10.41,16.65,16.65,0,0,1-9.54,5.72.75.75,0,0,0,.06,1.47,10.09,10.09,0,0,1,4.3,1.64,15.79,15.79,0,0,1,3.71,3.91l5,7.14a6.82,6.82,0,0,1,1.31,3.67,4.57,4.57,0,0,1-1.85,3.71A6.84,6.84,0,0,1,320.12,193ZM292.51,146.8a.75.75,0,0,0-.75.75v13.17a.75.75,0,0,0,.75.75h10.27c3.46,0,5.9-.55,7.47-1.67s2.44-3,2.44-5.58-.82-4.52-2.44-5.71-4-1.71-7.47-1.71Z"/><path class="cls-3" d="M305.11,137.89c6.45,0,11.32,1.38,14.48,4.1s4.65,6.54,4.65,11.74a15.42,15.42,0,0,1-3.2,10,16,16,0,0,1-9.13,5.45,1.5,1.5,0,0,0-1.15,1.52,1.49,1.49,0,0,0,1.27,1.42,9.59,9.59,0,0,1,4,1.52,15.14,15.14,0,0,1,3.52,3.72l4.95,7.12a6,6,0,0,1,1.2,3.26,3.81,3.81,0,0,1-1.57,3.13,6.4,6.4,0,0,1-6.91.68,6.52,6.52,0,0,1-2.35-2.17l-10.45-15.27a9.85,9.85,0,0,0-2.81-2.78,7,7,0,0,0-3.71-1h-5.22a1.5,1.5,0,0,0-1.5,1.5v14.37a5.8,5.8,0,0,1-1.5,4.28,5.6,5.6,0,0,1-4.23,1.52,5.31,5.31,0,0,1-5.8-5.8V143.22a4.7,4.7,0,0,1,5.32-5.33h20.15m-12.6,24.33h10.27c3.62,0,6.21-.59,7.9-1.81s2.76-3.39,2.76-6.19-.93-5-2.74-6.31-4.29-1.86-7.92-1.86H292.51a1.5,1.5,0,0,0-1.5,1.5v13.17a1.5,1.5,0,0,0,1.5,1.5m12.6-25.83H285a6.17,6.17,0,0,0-6.82,6.83v42.95a6.8,6.8,0,0,0,7.3,7.3,7.08,7.08,0,0,0,5.3-2,7.27,7.27,0,0,0,1.93-5.33V171.8h5.22a5.49,5.49,0,0,1,2.93.76,8.31,8.31,0,0,1,2.37,2.37l10.43,15.25a8,8,0,0,0,2.89,2.65,7.65,7.65,0,0,0,3.61.88,7.56,7.56,0,0,0,4.94-1.73,5.31,5.31,0,0,0,2.13-4.29,7.41,7.41,0,0,0-1.45-4.09l-5-7.15a16.57,16.57,0,0,0-3.9-4.09,10.85,10.85,0,0,0-4.61-1.77,17.3,17.3,0,0,0,9.95-6,16.92,16.92,0,0,0,3.53-10.88q0-8.43-5.18-12.88t-15.45-4.46Zm-12.6,24.33V147.55h10.27q4.91,0,7,1.57t2.13,5.1q0,3.45-2.13,5t-7,1.53Z"/><path class="cls-9" d="M353.64,192.88a6.92,6.92,0,0,1-4.88-1.69,6.16,6.16,0,0,1-1.84-4.86V166.74a.74.74,0,0,0-.18-.49L330,146.74a5.88,5.88,0,0,1-1.66-4,5.5,5.5,0,0,1,1.85-4.12,5.89,5.89,0,0,1,4.22-1.8,5.56,5.56,0,0,1,4.33,2.15L353,155.82a.78.78,0,0,0,.58.27.74.74,0,0,0,.57-.27L368.34,139a5.53,5.53,0,0,1,4.32-2.15,6,6,0,0,1,4.26,1.84,5.61,5.61,0,0,1,1.9,4.16,6,6,0,0,1-1.59,3.93l-16.85,19.5a.73.73,0,0,0-.19.49v19.59a6.24,6.24,0,0,1-1.8,4.86A6.68,6.68,0,0,1,353.64,192.88Z"/><path class="cls-3" d="M372.66,137.57a5.26,5.26,0,0,1,3.74,1.63,4.88,4.88,0,0,1,1.67,3.62,5.25,5.25,0,0,1-1.41,3.43l-16.85,19.51a1.48,1.48,0,0,0-.37,1v19.59a5.54,5.54,0,0,1-1.56,4.31,6,6,0,0,1-4.24,1.49,6.23,6.23,0,0,1-4.38-1.5,5.47,5.47,0,0,1-1.59-4.3V166.74a1.52,1.52,0,0,0-.36-1L330.6,146.24a5.17,5.17,0,0,1-1.47-3.5,4.8,4.8,0,0,1,1.62-3.58,5.18,5.18,0,0,1,3.7-1.59,4.82,4.82,0,0,1,3.75,1.88l14.21,16.86a1.5,1.5,0,0,0,2.29,0l14.2-16.85a4.83,4.83,0,0,1,3.76-1.89m0-1.5a6.35,6.35,0,0,0-4.9,2.41l-14.2,16.86-14.21-16.86a6.33,6.33,0,0,0-4.9-2.41,6.68,6.68,0,0,0-4.74,2,6.28,6.28,0,0,0-2.08,4.66,6.66,6.66,0,0,0,1.84,4.49l16.7,19.51v19.59a6.91,6.91,0,0,0,2.09,5.41,7.7,7.7,0,0,0,5.38,1.89,7.42,7.42,0,0,0,5.25-1.89,7,7,0,0,0,2.05-5.41V166.74l16.86-19.51a6.72,6.72,0,0,0,1.77-4.41,6.35,6.35,0,0,0-2.13-4.7,6.75,6.75,0,0,0-4.78-2.05Z"/><path class="cls-1" d="M42.28,71.57A7.27,7.27,0,0,0,34.67,64a7.27,7.27,0,0,0-7.6,7.6v8.54H15.2V71.57a7.47,7.47,0,0,0-2.11-5.48A7.46,7.46,0,0,0,7.6,64a7.48,7.48,0,0,0-5.48,2.12A7.44,7.44,0,0,0,0,71.57v3.65H0v30.94a7.48,7.48,0,0,0,2.12,5.54,7.44,7.44,0,0,0,5.48,2.12,7.42,7.42,0,0,0,5.5-2.16,7.53,7.53,0,0,0,2.1-5.5v-3.63h0V97H27.07v5.53h0v3.63a7.52,7.52,0,0,0,2.12,5.54,7.42,7.42,0,0,0,5.48,2.12,7.38,7.38,0,0,0,5.5-2.16,7.53,7.53,0,0,0,2.1-5.5v-3.64h0ZM12.81,91V92.2h-2.4v14a3.79,3.79,0,0,1-.12,1,5.46,5.46,0,0,1-2.69.64,5.54,5.54,0,0,1-2.71-.64,4.41,4.41,0,0,1-.1-1V75.22a2.7,2.7,0,0,1,.72-2.1,2.73,2.73,0,0,1,2.09-.71,2.74,2.74,0,0,1,2.1.71,2.74,2.74,0,0,1,.71,2.1V88.55H31.86V75.22a2.7,2.7,0,0,1,.72-2.1,2.73,2.73,0,0,1,2.09-.71,2.5,2.5,0,0,1,2.81,2.81v30.94a4.35,4.35,0,0,1-.11,1,6,6,0,0,1-5.4,0,3.84,3.84,0,0,1-.11-1v-14H29.47V91ZM34.67,66.37a5.1,5.1,0,0,1,3.79,1.42,4.5,4.5,0,0,1,.88,1.28,7.64,7.64,0,0,0-4.67-1.46A7.61,7.61,0,0,0,30,69.07a4.46,4.46,0,0,1,.87-1.28A5.11,5.11,0,0,1,34.67,66.37Zm-7.6,16.14v1.24H15.2V82.51ZM7.6,66.37a5.1,5.1,0,0,1,3.79,1.42,4.71,4.71,0,0,1,.88,1.28A7.64,7.64,0,0,0,7.6,67.61a7.61,7.61,0,0,0-4.66,1.46,4.46,4.46,0,0,1,.87-1.28A5.11,5.11,0,0,1,7.6,66.37Z"/><path class="cls-1" d="M89.24,106.8v-5.18h-.16a7.3,7.3,0,0,0-.59-1.74L73.21,68.5A7.65,7.65,0,0,0,70,65.06a9,9,0,0,0-4.41-1.15,8.82,8.82,0,0,0-4.45,1.16,7.72,7.72,0,0,0-3.2,3.44L42.64,99.85a7.41,7.41,0,0,0-.76,3.19,6.39,6.39,0,0,0,.26,1.81,6.85,6.85,0,0,0-.26,1.83,6.47,6.47,0,0,0,2.45,5.08,7.76,7.76,0,0,0,5.09,1.89,6.89,6.89,0,0,0,3.71-1.05,7,7,0,0,0,2.7-3.13l2-4.44H73.49l2,4.44a7,7,0,0,0,2.63,3.11,6.83,6.83,0,0,0,3.71,1.07,7.59,7.59,0,0,0,5.08-1.92,6.55,6.55,0,0,0,2.35-4.92h0ZM62.29,67.15a6.73,6.73,0,0,1,6.51,0,5.29,5.29,0,0,1,2.13,2.19,7,7,0,0,0-1-.64,9.15,9.15,0,0,0-8.86,0,7.22,7.22,0,0,0-.91.61A5.39,5.39,0,0,1,62.29,67.15ZM84.44,106.9a5.11,5.11,0,0,1-2.63.71,4.41,4.41,0,0,1-2.17-.56l-3-6.81h-1L75.05,99H56.31l-.57,1.25h-1L51.67,107a4.6,4.6,0,0,1-2.25.58,5.3,5.3,0,0,1-2.74-.75c0-.06,0-.12,0-.18a2.63,2.63,0,0,1,.28-1.09L62.23,74.23a2.93,2.93,0,0,1,1.25-1.35,4.28,4.28,0,0,1,4.15,0,2.94,2.94,0,0,1,1.27,1.36l15.26,31.33a2.69,2.69,0,0,1,.29,1.11C84.45,106.75,84.44,106.83,84.44,106.9Z"/><path class="cls-1" d="M56.19,97.05h19L65.68,75.9Zm11.57-4.79H63.59L64.15,91h3Zm-2.53-3.65.45-1,.45,1Z"/><path class="cls-1" d="M110.1,80.56a10.93,10.93,0,0,1,3,.43,14.46,14.46,0,0,1,3.22,1.46,10.52,10.52,0,0,0,2.05,1,6.69,6.69,0,0,0,2.4.42,5.47,5.47,0,0,0,4.32-2.13,7.09,7.09,0,0,0,1.55-4.54h0V73.67h0s0,0,0-.07a6.7,6.7,0,0,0-.72-3.21,6.84,6.84,0,0,0-2.15-2.33,26,26,0,0,0-26.17-1.47,19.9,19.9,0,0,0-8.07,8.26A25.65,25.65,0,0,0,86.76,87c0,.09,0,.18,0,.28h0v3.58h0a25.67,25.67,0,0,0,2.79,12,20,20,0,0,0,8.07,8.26,26,26,0,0,0,26.17-1.47,6.79,6.79,0,0,0,2.17-2.39,6.86,6.86,0,0,0,.7-3.15s0-.08,0-.13v-3.38s0-.09,0-.13A7,7,0,0,0,125.12,96a5.47,5.47,0,0,0-4.32-2.13,6,6,0,0,0-2.27.4c-.47.19-1.11.49-2,.94-1.59.72-2.9,1.26-3.88,1.59a8.08,8.08,0,0,1-2.59.42c-2.7,0-4.6-.72-5.81-2.21-1.08-1.33-1.71-3.39-1.91-6.11a10.91,10.91,0,0,1,1.91-6.08C105.5,81.29,107.4,80.56,110.1,80.56ZM98.79,68.68A23.66,23.66,0,0,1,122.42,70a4.55,4.55,0,0,1,1.42,1.51c0,.08.06.19.1.29l-.15-.12a26,26,0,0,0-26.16-1.46,20,20,0,0,0-4.41,3.31A17.38,17.38,0,0,1,98.79,68.68ZM110.1,99.57a10.33,10.33,0,0,0,3.36-.55c1.07-.36,2.46-.93,4.16-1.7.81-.43,1.41-.72,1.79-.87a3.65,3.65,0,0,1,1.39-.23,3.08,3.08,0,0,1,2.46,1.24,4.25,4.25,0,0,1,.56.94,5.27,5.27,0,0,0-3-.94,6.13,6.13,0,0,0-2.28.41c-.46.18-1.1.49-2,.93-1.6.73-2.9,1.26-3.89,1.6a8,8,0,0,1-2.58.42c-2.7,0-4.6-.73-5.81-2.21a6,6,0,0,1-.59-.92A10.11,10.11,0,0,0,110.1,99.57Zm-7.66-21.95a6.83,6.83,0,0,0-.62.87,11.44,11.44,0,0,0-1.25,1.26c-2,2.49-3,6.17-3,10.91s1,8.44,3.06,11,5.35,4,9.52,4a12.76,12.76,0,0,0,4.12-.68c1.16-.39,2.6-1,4.39-1.79l.12-.06a16.63,16.63,0,0,1,1.57-.76,1.29,1.29,0,0,1,.5-.06c.13,0,.31,0,.6.35a2.28,2.28,0,0,1,.48,1.53,3,3,0,0,1,0,.31A22.06,22.06,0,0,1,109.52,108a21.77,21.77,0,0,1-10.73-2.55A17.71,17.71,0,0,1,95,102.59a16.43,16.43,0,0,1-1.21-2,21.12,21.12,0,0,1-2.23-10,21,21,0,0,1,2.23-9.92A15.08,15.08,0,0,1,100,74.42,21.28,21.28,0,0,1,121,75.61a2.19,2.19,0,0,1,.68.68,2,2,0,0,1,.16.95,2.87,2.87,0,0,1,0,.44,3,3,0,0,1-1,.2,4.48,4.48,0,0,1-1.56-.26,9.06,9.06,0,0,1-1.62-.84,16,16,0,0,0-3.82-1.73,13.08,13.08,0,0,0-3.7-.53C106.67,74.52,104.11,75.56,102.44,77.62Z"/><path class="cls-1" d="M169.3,71.57a7.61,7.61,0,1,0-15.21,0v8.54H142.23V71.57a7.61,7.61,0,1,0-15.21,0v3.65h0v30.94a7.52,7.52,0,0,0,2.12,5.54,8.13,8.13,0,0,0,11,0,7.57,7.57,0,0,0,2.1-5.5v-3.63h0V97h11.86v5.53h0v3.63a7.26,7.26,0,0,0,7.6,7.66,7.38,7.38,0,0,0,5.5-2.16,7.57,7.57,0,0,0,2.1-5.5v-3.64h0ZM139.83,91V92.2h-2.4v14a4.35,4.35,0,0,1-.11,1,6,6,0,0,1-5.4,0,4.41,4.41,0,0,1-.1-1V75.22a2.7,2.7,0,0,1,.71-2.1,3.45,3.45,0,0,1,4.19,0,2.7,2.7,0,0,1,.71,2.1V88.55h21.46V75.22a3,3,0,0,1,4.9-2.1,2.7,2.7,0,0,1,.72,2.1v30.94a3.79,3.79,0,0,1-.12,1,5.46,5.46,0,0,1-2.69.64,5.54,5.54,0,0,1-2.71-.64,4.41,4.41,0,0,1-.1-1v-14h-2.4V91ZM161.7,66.37a5.11,5.11,0,0,1,3.79,1.42,4.46,4.46,0,0,1,.87,1.28,8.18,8.18,0,0,0-9.33,0,4.5,4.5,0,0,1,.88-1.28A5.1,5.1,0,0,1,161.7,66.37Zm-7.6,16.14v1.24H142.23V82.51ZM134.63,66.37a5.08,5.08,0,0,1,3.78,1.42,4.3,4.3,0,0,1,.88,1.28,8.18,8.18,0,0,0-9.33,0,4.5,4.5,0,0,1,.88-1.28A5.08,5.08,0,0,1,134.63,66.37Z"/><path class="cls-1" d="M187.35,71.57a7.39,7.39,0,0,0-2.17-5.5,7.72,7.72,0,0,0-5.61-2.1A7.52,7.52,0,0,0,174,66.09a7.44,7.44,0,0,0-2.12,5.48v31h0v3.63a7.27,7.27,0,0,0,7.66,7.66,7.68,7.68,0,0,0,5.61-2.1,7.47,7.47,0,0,0,2.17-5.56v-3.64h0ZM176.7,106.16V75.22a2.7,2.7,0,0,1,.72-2.1,2.79,2.79,0,0,1,2.15-.71,2.93,2.93,0,0,1,2.26.73,2.66,2.66,0,0,1,.72,2.08v30.94a4.29,4.29,0,0,1-.1,1,6,6,0,0,1-2.88.66,5.73,5.73,0,0,1-2.77-.64A4.48,4.48,0,0,1,176.7,106.16Zm2.87-39.79a5.34,5.34,0,0,1,3.93,1.42,4.3,4.3,0,0,1,.92,1.32,8,8,0,0,0-4.85-1.5,7.78,7.78,0,0,0-4.73,1.46,4.71,4.71,0,0,1,.88-1.28A5.19,5.19,0,0,1,179.57,66.37Z"/><path class="cls-10" d="M175.72,106.45a5.19,5.19,0,0,1-1.41-3.84V71.66a5.15,5.15,0,0,1,1.41-3.79,5.23,5.23,0,0,1,3.85-1.41,5.38,5.38,0,0,1,3.93,1.41A5.06,5.06,0,0,1,185,71.66v31a5.1,5.1,0,0,1-1.45,3.84,5.34,5.34,0,0,1-3.93,1.42A5.19,5.19,0,0,1,175.72,106.45Z"/><path class="cls-11" d="M165.49,67.87a5.15,5.15,0,0,1,1.41,3.79v31a5.25,5.25,0,0,1-1.41,3.82,5.74,5.74,0,0,1-7.58,0,5.16,5.16,0,0,1-1.42-3.84V91H139.83v11.57a5.22,5.22,0,0,1-1.42,3.82,5.72,5.72,0,0,1-7.57,0,5.16,5.16,0,0,1-1.42-3.84V71.66a5.21,5.21,0,1,1,10.41,0V82.59h16.66V71.66a5.37,5.37,0,0,1,9-3.79Z"/><path class="cls-12" d="M98.79,105.5a17.54,17.54,0,0,1-7.11-7.29,23.31,23.31,0,0,1-2.52-11.1,23.19,23.19,0,0,1,2.52-11,17.54,17.54,0,0,1,7.11-7.29,21.77,21.77,0,0,1,10.73-2.55,22,22,0,0,1,12.9,3.88,3.83,3.83,0,0,1,1.85,3.59,4.67,4.67,0,0,1-1,3A3.09,3.09,0,0,1,120.8,78a4.48,4.48,0,0,1-1.56-.26,10.6,10.6,0,0,1-1.62-.84,16.49,16.49,0,0,0-3.82-1.74,13.07,13.07,0,0,0-3.7-.52c-3.43,0-6,1-7.66,3.1s-2.52,5.19-2.52,9.4.84,7.39,2.52,9.45,4.23,3.1,7.66,3.1a10.61,10.61,0,0,0,3.36-.55c1.07-.37,2.46-.94,4.16-1.71.81-.42,1.41-.71,1.79-.87a3.85,3.85,0,0,1,1.39-.23,3.09,3.09,0,0,1,2.46,1.25,4.67,4.67,0,0,1,1,3,4.45,4.45,0,0,1-.43,2.06,4.33,4.33,0,0,1-1.42,1.53,22,22,0,0,1-12.9,3.88A21.77,21.77,0,0,1,98.79,105.5Z"/><path class="cls-13" d="M86.85,103.13a4.13,4.13,0,0,1-1.54,3.24,5.15,5.15,0,0,1-3.5,1.33,4.38,4.38,0,0,1-2.42-.7,4.58,4.58,0,0,1-1.74-2.08l-2.6-5.84H56.31l-2.67,5.84a4.53,4.53,0,0,1-4.22,2.78,5.35,5.35,0,0,1-3.55-1.33,4.07,4.07,0,0,1-1.6-3.24,5.05,5.05,0,0,1,.52-2.14L60.07,69.64a5.38,5.38,0,0,1,2.22-2.4,6.73,6.73,0,0,1,6.51,0,5.41,5.41,0,0,1,2.26,2.4L86.33,101A5.05,5.05,0,0,1,86.85,103.13Zm-27-12H71.46L65.68,78.2Z"/><path class="cls-14" d="M38.46,67.87a5.11,5.11,0,0,1,1.42,3.79v31a5.22,5.22,0,0,1-1.42,3.82,5.07,5.07,0,0,1-3.79,1.44,5.11,5.11,0,0,1-3.79-1.42,5.19,5.19,0,0,1-1.41-3.84V91H12.81v11.57a5.26,5.26,0,0,1-1.42,3.82,5.07,5.07,0,0,1-3.79,1.44,5.11,5.11,0,0,1-3.79-1.42,5.19,5.19,0,0,1-1.41-3.84V71.66a5.15,5.15,0,0,1,1.41-3.79A5.15,5.15,0,0,1,7.6,66.46a5.13,5.13,0,0,1,3.79,1.41,5.15,5.15,0,0,1,1.42,3.79V82.59H29.47V71.66a5.36,5.36,0,0,1,9-3.79Z"/><path class="cls-15" d="M179.57,67.65a4.16,4.16,0,0,1,3.09,1.08,3.85,3.85,0,0,1,1.09,2.93v31a3.94,3.94,0,0,1-1.09,3,4.19,4.19,0,0,1-3.09,1.07,3.7,3.7,0,0,1-4.07-4.06V71.66a3.94,3.94,0,0,1,1.07-2.94,4,4,0,0,1,3-1.07m0-1.19a5.23,5.23,0,0,0-3.85,1.41,5.15,5.15,0,0,0-1.41,3.79v31a4.88,4.88,0,0,0,5.26,5.26,5.34,5.34,0,0,0,3.93-1.42,5.1,5.1,0,0,0,1.45-3.84V71.66a5.06,5.06,0,0,0-1.45-3.79,5.38,5.38,0,0,0-3.93-1.41Z"/><path class="cls-15" d="M161.7,67.65a3.69,3.69,0,0,1,4,4v31a4,4,0,0,1-1.07,3,3.89,3.89,0,0,1-2.93,1.08,4,4,0,0,1-2.95-1.06,4.05,4.05,0,0,1-1.06-3V89.84H138.63v12.77a4.06,4.06,0,0,1-1.07,3,3.89,3.89,0,0,1-2.93,1.08,4,4,0,0,1-2.95-1.06,4.05,4.05,0,0,1-1.06-3V71.66a4,4,0,1,1,8,0V83.79h19.06V71.66a3.7,3.7,0,0,1,4-4m0-1.19a4.87,4.87,0,0,0-5.21,5.2V82.59H139.83V71.66a5.21,5.21,0,1,0-10.41,0v31a5.16,5.16,0,0,0,1.42,3.84,5.72,5.72,0,0,0,7.57,0,5.22,5.22,0,0,0,1.42-3.82V91h16.66v11.57a5.16,5.16,0,0,0,1.42,3.84,5.74,5.74,0,0,0,7.58,0,5.25,5.25,0,0,0,1.41-3.82V71.66a4.86,4.86,0,0,0-5.2-5.2Z"/><path class="cls-15" d="M109.52,67.42a20.84,20.84,0,0,1,12.21,3.66,3.33,3.33,0,0,1,1,1.09,3.19,3.19,0,0,1,.29,1.52,3.47,3.47,0,0,1-.74,2.28,1.91,1.91,0,0,1-1.53.8,3.1,3.1,0,0,1-1.14-.19,7.85,7.85,0,0,1-1.42-.74,18.22,18.22,0,0,0-4.1-1.86,14.39,14.39,0,0,0-4-.57c-3.79,0-6.68,1.19-8.59,3.54s-2.79,5.69-2.79,10.16.94,7.94,2.79,10.21,4.8,3.54,8.59,3.54a11.55,11.55,0,0,0,3.74-.62,45.62,45.62,0,0,0,4.28-1.75h0l0,0a17,17,0,0,1,1.68-.81,2.5,2.5,0,0,1,.94-.15,1.91,1.91,0,0,1,1.53.8,3.47,3.47,0,0,1,.74,2.28,3.3,3.3,0,0,1-.3,1.51,3.22,3.22,0,0,1-1,1.1,22.4,22.4,0,0,1-22.36,1.26,16.43,16.43,0,0,1-6.64-6.8,22.36,22.36,0,0,1-2.37-10.54,22.24,22.24,0,0,1,2.37-10.49,16.43,16.43,0,0,1,6.64-6.8,20.72,20.72,0,0,1,10.15-2.4m0-1.2a21.77,21.77,0,0,0-10.73,2.55,17.54,17.54,0,0,0-7.11,7.29,23.19,23.19,0,0,0-2.52,11,23.31,23.31,0,0,0,2.52,11.1,17.54,17.54,0,0,0,7.11,7.29,21.77,21.77,0,0,0,10.73,2.55,22,22,0,0,0,12.9-3.88,4.33,4.33,0,0,0,1.42-1.53,4.45,4.45,0,0,0,.43-2.06,4.67,4.67,0,0,0-1-3,3.09,3.09,0,0,0-2.46-1.25,3.85,3.85,0,0,0-1.39.23c-.38.16-1,.45-1.79.87-1.7.77-3.09,1.34-4.16,1.71a10.61,10.61,0,0,1-3.36.55c-3.43,0-6-1-7.66-3.1s-2.52-5.21-2.52-9.45.84-7.34,2.52-9.4,4.23-3.1,7.66-3.1a13.07,13.07,0,0,1,3.7.52,16.49,16.49,0,0,1,3.82,1.74,10.6,10.6,0,0,0,1.62.84,4.48,4.48,0,0,0,1.56.26,3.09,3.09,0,0,0,2.46-1.25,4.67,4.67,0,0,0,1-3,3.83,3.83,0,0,0-1.85-3.59,22,22,0,0,0-12.9-3.88Z"/><path class="cls-15" d="M65.56,67.6a5.35,5.35,0,0,1,2.66.68A4.16,4.16,0,0,1,70,70.16L85.24,101.5a3.84,3.84,0,0,1,.41,1.63,2.93,2.93,0,0,1-1.12,2.33,4,4,0,0,1-2.72,1A3.3,3.3,0,0,1,80,106a3.47,3.47,0,0,1-1.27-1.56l-2.61-5.84-.31-.71H55.53l-.32.7-2.65,5.84A3.42,3.42,0,0,1,51.25,106a3.36,3.36,0,0,1-1.83.52,4.2,4.2,0,0,1-2.79-1,2.88,2.88,0,0,1-1.16-2.32,3.9,3.9,0,0,1,.4-1.62L61.14,70.16a4.18,4.18,0,0,1,1.74-1.88,5.29,5.29,0,0,1,2.68-.68M58,92.3H73.31l-.76-1.69-5.78-12.9-1.09-2.44-1.1,2.44L58.8,90.61,58,92.3m7.52-25.9a6.53,6.53,0,0,0-3.27.84,5.38,5.38,0,0,0-2.22,2.4L44.79,101a5.05,5.05,0,0,0-.52,2.14,4.07,4.07,0,0,0,1.6,3.24,5.35,5.35,0,0,0,3.55,1.33,4.53,4.53,0,0,0,4.22-2.78l2.67-5.84H75.05l2.6,5.84A4.58,4.58,0,0,0,79.39,107a4.38,4.38,0,0,0,2.42.7,5.15,5.15,0,0,0,3.5-1.33,4.13,4.13,0,0,0,1.54-3.24,5.05,5.05,0,0,0-.52-2.14L71.06,69.64a5.41,5.41,0,0,0-2.26-2.4,6.52,6.52,0,0,0-3.24-.84ZM59.89,91.1l5.79-12.9,5.78,12.9Z"/><path class="cls-15" d="M34.67,67.65a3.7,3.7,0,0,1,4,4v31a4,4,0,0,1-1.07,3,3.9,3.9,0,0,1-2.94,1.08,4,4,0,0,1-2.94-1.06,4,4,0,0,1-1.06-3V89.84H11.61v12.77a4.06,4.06,0,0,1-1.07,3,3.9,3.9,0,0,1-2.94,1.08,4,4,0,0,1-2.94-1.06,4,4,0,0,1-1.07-3V71.66a3.94,3.94,0,0,1,1.07-2.94A3.94,3.94,0,0,1,7.6,67.65a3.92,3.92,0,0,1,2.94,1.07,3.94,3.94,0,0,1,1.07,2.94V83.79H30.67V71.66a3.69,3.69,0,0,1,4-4m0-1.19a4.86,4.86,0,0,0-5.2,5.2V82.59H12.81V71.66a5.15,5.15,0,0,0-1.42-3.79A5.13,5.13,0,0,0,7.6,66.46a5.15,5.15,0,0,0-3.79,1.41A5.15,5.15,0,0,0,2.4,71.66v31a5.19,5.19,0,0,0,1.41,3.84,5.11,5.11,0,0,0,3.79,1.42,5.07,5.07,0,0,0,3.79-1.44,5.26,5.26,0,0,0,1.42-3.82V91H29.47v11.57a5.19,5.19,0,0,0,1.41,3.84,5.11,5.11,0,0,0,3.79,1.42,5.07,5.07,0,0,0,3.79-1.44,5.22,5.22,0,0,0,1.42-3.82V71.66a4.87,4.87,0,0,0-5.21-5.2Z"/><path class="cls-1" d="M248.93,70.46a7.6,7.6,0,1,0-15.2,0V79H221.86V74.1h0V70.46a7.61,7.61,0,1,0-15.21,0V74.1h0v31a7.56,7.56,0,0,0,2.12,5.54,8.11,8.11,0,0,0,11,0,7.56,7.56,0,0,0,2.1-5.49V95.88h11.87v9.17a7.26,7.26,0,0,0,7.6,7.66,7.42,7.42,0,0,0,5.5-2.16,7.58,7.58,0,0,0,2.1-5.5v-3.64h0ZM219.46,89.84v1.24h-2.39v14a3.77,3.77,0,0,1-.12,1,5.49,5.49,0,0,1-2.69.65,5.65,5.65,0,0,1-2.71-.64,4.48,4.48,0,0,1-.1-1V74.1a2.82,2.82,0,1,1,5.62,0V87.43h21.45V74.1a2.73,2.73,0,0,1,.71-2.09,3.41,3.41,0,0,1,4.19,0h0a2.69,2.69,0,0,1,.72,2.09v31a3.77,3.77,0,0,1-.12,1,5.49,5.49,0,0,1-2.69.65,5.65,5.65,0,0,1-2.71-.64,4.48,4.48,0,0,1-.1-1v-14h-2.4V89.84Zm21.87-24.59a5.15,5.15,0,0,1,3.79,1.42A4.46,4.46,0,0,1,246,68a8.21,8.21,0,0,0-9.33,0,4.61,4.61,0,0,1,.88-1.29A5.14,5.14,0,0,1,241.33,65.25Zm-7.6,16.14v1.25H221.86V81.39ZM214.26,65.25a5.15,5.15,0,0,1,3.79,1.42,4.46,4.46,0,0,1,.87,1.28,8.23,8.23,0,0,0-9.33,0,4.5,4.5,0,0,1,.88-1.28A5.12,5.12,0,0,1,214.26,65.25Z"/><path class="cls-1" d="M262.85,95.94h19l-9.49-21.16Zm11.56-4.8h-4.16l.56-1.24h3Zm-2.53-3.64.45-1,.45,1Z"/><path class="cls-1" d="M295.89,105.49V102s0-.05,0-.08,0-.07,0-.11V100.5h-.15a8.51,8.51,0,0,0-.59-1.74L279.86,67.39a7.67,7.67,0,0,0-3.24-3.45,9.14,9.14,0,0,0-8.86,0,7.7,7.7,0,0,0-3.2,3.45L249.29,98.74a7.52,7.52,0,0,0-.76,3.19,6.39,6.39,0,0,0,.27,1.81,6.81,6.81,0,0,0-.27,1.83,6.49,6.49,0,0,0,2.45,5.08,7.79,7.79,0,0,0,5.1,1.89,6.92,6.92,0,0,0,6.4-4.18l2-4.44h15.65l2,4.44a7,7,0,0,0,2.63,3.11,6.8,6.8,0,0,0,3.71,1.07,7.56,7.56,0,0,0,5.07-1.92,6.51,6.51,0,0,0,2.35-4.92h0v0s0-.07,0-.11S295.89,105.52,295.89,105.49ZM269,66a6.78,6.78,0,0,1,6.5,0,5.37,5.37,0,0,1,2.14,2.19,10.84,10.84,0,0,0-1-.64,9.2,9.2,0,0,0-8.86,0,9.7,9.7,0,0,0-.91.62A5.38,5.38,0,0,1,269,66Zm22.14,39.76a5.08,5.08,0,0,1-2.62.71,4.46,4.46,0,0,1-2.17-.56l-3-6.81h-1l-.56-1.25H263l-.57,1.25h-1l-3.1,6.78a4.49,4.49,0,0,1-2.24.59,5.25,5.25,0,0,1-2.74-.75,1.1,1.1,0,0,1,0-.18,2.63,2.63,0,0,1,.28-1.09l15.28-31.36a3,3,0,0,1,1.25-1.36,4.33,4.33,0,0,1,4.16,0,3,3,0,0,1,1.27,1.36l15.26,31.32a2.74,2.74,0,0,1,.29,1.12A1.64,1.64,0,0,1,291.09,105.79Z"/><path class="cls-1" d="M316.75,79.45a11,11,0,0,1,3,.42A14,14,0,0,1,323,81.34a11.77,11.77,0,0,0,2.05,1,6.7,6.7,0,0,0,2.41.41,5.42,5.42,0,0,0,4.31-2.12,7,7,0,0,0,1.55-4.54h0V72.55h0v-.07a6.82,6.82,0,0,0-.71-3.21,6.93,6.93,0,0,0-2.15-2.33,24.48,24.48,0,0,0-14.28-4.31,24.23,24.23,0,0,0-11.89,2.84,20,20,0,0,0-8.08,8.26,25.79,25.79,0,0,0-2.79,12.17c0,.16,0,.31,0,.47h0V90h0a25.65,25.65,0,0,0,2.78,11.83,20,20,0,0,0,8.07,8.26,26,26,0,0,0,26.18-1.47,6.84,6.84,0,0,0,2.16-2.39,6.74,6.74,0,0,0,.7-3.15s0-.09,0-.13V99.52s0-.09,0-.14a7,7,0,0,0-1.55-4.55,5.42,5.42,0,0,0-4.31-2.12,6.06,6.06,0,0,0-2.28.4c-.46.18-1.1.49-2,.94-1.59.72-2.89,1.25-3.88,1.59a8.08,8.08,0,0,1-2.59.42c-2.69,0-4.59-.72-5.8-2.21a10.68,10.68,0,0,1,0-12.19C312.16,80.17,314.06,79.45,316.75,79.45Zm-11.3-11.88a23.57,23.57,0,0,1,23.62,1.33,4.43,4.43,0,0,1,1.42,1.5,1.66,1.66,0,0,1,.1.29l-.14-.11a26,26,0,0,0-26.17-1.47,20,20,0,0,0-4.41,3.31A17.39,17.39,0,0,1,305.45,67.57Zm11.3,30.89a10.56,10.56,0,0,0,3.36-.55c1.08-.37,2.47-.94,4.16-1.71q1.22-.63,1.8-.87a3.81,3.81,0,0,1,1.39-.23,3.06,3.06,0,0,1,2.45,1.25,3.87,3.87,0,0,1,.57.93,5.28,5.28,0,0,0-3-.93,6.15,6.15,0,0,0-2.29.4c-.45.19-1.09.49-1.95.94-1.58.72-2.89,1.25-3.88,1.59a7.77,7.77,0,0,1-2.59.42c-2.69,0-4.59-.72-5.8-2.21a6,6,0,0,1-.6-.91A10.15,10.15,0,0,0,316.75,98.46Zm-7.66-22a9.25,9.25,0,0,0-.62.88,9.86,9.86,0,0,0-1.24,1.26c-2.05,2.52-3.05,6.09-3.05,10.91s1,8.44,3.05,11,5.35,4,9.52,4a12.77,12.77,0,0,0,4.13-.68c1.15-.39,2.63-1,4.39-1.8l.12,0c1-.51,1.39-.7,1.56-.77a1.54,1.54,0,0,1,.51-.06c.12,0,.3,0,.59.36a2.21,2.21,0,0,1,.48,1.53c0,.11,0,.2,0,.3a22.08,22.08,0,0,1-12.33,3.51,21.74,21.74,0,0,1-10.73-2.54,17.25,17.25,0,0,1-3.8-2.83,15.05,15.05,0,0,1-1.2-1.94,21.06,21.06,0,0,1-2.24-10,20.94,20.94,0,0,1,2.24-9.93,15,15,0,0,1,6.16-6.31,21.2,21.2,0,0,1,21.08,1.19,2.16,2.16,0,0,1,.69.67,2.26,2.26,0,0,1,.15,1,2.74,2.74,0,0,1,0,.43,2.75,2.75,0,0,1-1,.21,4.35,4.35,0,0,1-1.57-.27,9.62,9.62,0,0,1-1.62-.83,16.62,16.62,0,0,0-3.81-1.74,13.14,13.14,0,0,0-3.71-.52Q311.61,73.41,309.09,76.5Z"/><path class="cls-1" d="M376,70.46a7.6,7.6,0,1,0-15.2,0V79H348.88V74.1h0V70.46a7.6,7.6,0,1,0-15.2,0V74.1h0v31a7.52,7.52,0,0,0,2.12,5.54,8.1,8.1,0,0,0,11,0,7.52,7.52,0,0,0,2.1-5.49V95.88h11.87v5.53h0v3.64a7.5,7.5,0,0,0,2.12,5.54,8.11,8.11,0,0,0,11,0,7.58,7.58,0,0,0,2.1-5.5v-3.64h0ZM346.49,89.84v1.24h-2.4v14a3.77,3.77,0,0,1-.12,1,5.46,5.46,0,0,1-2.69.65,5.65,5.65,0,0,1-2.71-.64,4.48,4.48,0,0,1-.1-1V74.1a2.69,2.69,0,0,1,.72-2.09,3.39,3.39,0,0,1,4.18,0,2.69,2.69,0,0,1,.72,2.09V87.43h21.45V74.1a2.52,2.52,0,0,1,2.81-2.81,2.65,2.65,0,0,1,2.09.72h0a2.73,2.73,0,0,1,.71,2.09v31a3.77,3.77,0,0,1-.12,1,5.46,5.46,0,0,1-2.69.65,5.65,5.65,0,0,1-2.71-.64,4.48,4.48,0,0,1-.1-1v-14h-2.39V89.84Zm21.86-24.59a5.15,5.15,0,0,1,3.79,1.42A4.71,4.71,0,0,1,373,68a7.7,7.7,0,0,0-4.67-1.45A7.61,7.61,0,0,0,363.69,68a4.38,4.38,0,0,1,.87-1.29A5.15,5.15,0,0,1,368.35,65.25Zm-7.6,16.14v1.25H348.88V81.39ZM341.28,65.25a5.15,5.15,0,0,1,3.79,1.42A4.71,4.71,0,0,1,346,68a8.25,8.25,0,0,0-9.34,0,4.71,4.71,0,0,1,.88-1.28A5.15,5.15,0,0,1,341.28,65.25Z"/><path class="cls-1" d="M394,70.46a7.39,7.39,0,0,0-2.17-5.5,7.68,7.68,0,0,0-5.61-2.1,7.27,7.27,0,0,0-7.66,7.6v31h0v3.64a7.54,7.54,0,0,0,2.12,5.54h0a7.52,7.52,0,0,0,5.54,2.12,7.72,7.72,0,0,0,5.61-2.1,7.47,7.47,0,0,0,2.17-5.56v-3.63h0Zm-10.64,34.59V74.1a2.73,2.73,0,0,1,.71-2.09,2.77,2.77,0,0,1,2.15-.72,2.86,2.86,0,0,1,2.26.74,2.63,2.63,0,0,1,.73,2.07v31a4.14,4.14,0,0,1-.11,1,6.4,6.4,0,0,1-5.64,0A4.48,4.48,0,0,1,383.36,105.05Zm2.86-39.8a5.42,5.42,0,0,1,3.94,1.42,4.87,4.87,0,0,1,.92,1.33,7.94,7.94,0,0,0-4.86-1.5A7.75,7.75,0,0,0,381.5,68a4.35,4.35,0,0,1,.88-1.29A5.19,5.19,0,0,1,386.22,65.25Z"/><path class="cls-16" d="M245.12,66.76a5.13,5.13,0,0,1,1.41,3.79v30.94a5.22,5.22,0,0,1-1.41,3.82,5.72,5.72,0,0,1-7.58,0,5.18,5.18,0,0,1-1.42-3.85V89.92H219.46v11.57a5.22,5.22,0,0,1-1.41,3.82,5.72,5.72,0,0,1-7.58,0,5.18,5.18,0,0,1-1.42-3.85V70.55a5.21,5.21,0,1,1,10.41,0V81.48h16.66V70.55a5.36,5.36,0,0,1,9-3.79Z"/><path class="cls-17" d="M293.5,102a4.12,4.12,0,0,1-1.53,3.24,5.17,5.17,0,0,1-3.5,1.33,4.47,4.47,0,0,1-2.43-.69,4.67,4.67,0,0,1-1.73-2.08L281.7,98H263l-2.66,5.84a4.53,4.53,0,0,1-4.22,2.77,5.4,5.4,0,0,1-3.56-1.33,4.06,4.06,0,0,1-1.59-3.24,5,5,0,0,1,.52-2.14l15.27-31.35a5.35,5.35,0,0,1,2.23-2.4,6.71,6.71,0,0,1,6.5,0,5.3,5.3,0,0,1,2.26,2.4L293,99.87A5,5,0,0,1,293.5,102ZM266.55,90h11.56l-5.78-12.9Z"/><path class="cls-18" d="M305.45,104.39a17.56,17.56,0,0,1-7.12-7.29A23.35,23.35,0,0,1,295.81,86a23.25,23.25,0,0,1,2.52-11,17.56,17.56,0,0,1,7.12-7.29A23.64,23.64,0,0,1,329.07,69a4.55,4.55,0,0,1,1.42,1.51,4.37,4.37,0,0,1,.44,2.08,4.63,4.63,0,0,1-1,3,3,3,0,0,1-2.45,1.24,4.35,4.35,0,0,1-1.57-.26,9.06,9.06,0,0,1-1.62-.84A16.14,16.14,0,0,0,320.46,74a13.14,13.14,0,0,0-3.71-.52q-5.14,0-7.66,3.09T306.57,86c0,4.24.84,7.4,2.52,9.46s4.23,3.09,7.66,3.09a10.29,10.29,0,0,0,3.36-.55,44.62,44.62,0,0,0,4.16-1.7,18.56,18.56,0,0,1,1.8-.87,3.81,3.81,0,0,1,1.39-.23,3,3,0,0,1,2.45,1.24,4.63,4.63,0,0,1,1,3,4,4,0,0,1-1.86,3.59,23.64,23.64,0,0,1-23.62,1.33Z"/><path class="cls-19" d="M372.14,66.76a5.14,5.14,0,0,1,1.42,3.79v30.94a5.23,5.23,0,0,1-1.42,3.82,5.06,5.06,0,0,1-3.79,1.45,5.11,5.11,0,0,1-3.79-1.42,5.21,5.21,0,0,1-1.41-3.85V89.92H346.49v11.57a5.23,5.23,0,0,1-1.42,3.82,5.06,5.06,0,0,1-3.79,1.45,5.11,5.11,0,0,1-3.79-1.42,5.22,5.22,0,0,1-1.42-3.85V70.55a5.21,5.21,0,1,1,10.42,0V81.48h16.66V70.55a5.36,5.36,0,0,1,9-3.79Z"/><path class="cls-20" d="M382.38,105.34a5.18,5.18,0,0,1-1.42-3.85V70.55a5.1,5.1,0,0,1,1.42-3.79,5.16,5.16,0,0,1,3.84-1.42,5.38,5.38,0,0,1,3.94,1.42,5.07,5.07,0,0,1,1.44,3.79v30.94a5.15,5.15,0,0,1-1.44,3.85,5.38,5.38,0,0,1-3.94,1.42A5.16,5.16,0,0,1,382.38,105.34Z"/><path class="cls-15" d="M386.22,66.54a4.22,4.22,0,0,1,3.1,1.07,3.91,3.91,0,0,1,1.09,2.94v30.94a4,4,0,0,1-1.09,3,4.18,4.18,0,0,1-3.1,1.08,3.7,3.7,0,0,1-4.06-4.07V70.55a4,4,0,0,1,1.06-2.94,4,4,0,0,1,3-1.07m0-1.2a5.16,5.16,0,0,0-3.84,1.42A5.1,5.1,0,0,0,381,70.55v30.94a4.9,4.9,0,0,0,5.26,5.27,5.38,5.38,0,0,0,3.94-1.42,5.15,5.15,0,0,0,1.44-3.85V70.55a5.07,5.07,0,0,0-1.44-3.79,5.38,5.38,0,0,0-3.94-1.42Z"/><path class="cls-15" d="M368.35,66.54a3.7,3.7,0,0,1,4,4v30.94a4,4,0,0,1-1.08,3,3.87,3.87,0,0,1-2.93,1.09,3.94,3.94,0,0,1-2.94-1.07,4,4,0,0,1-1.07-3V88.73h-19v12.76a4,4,0,0,1-1.08,3,3.87,3.87,0,0,1-2.93,1.09,3.94,3.94,0,0,1-2.94-1.07,4,4,0,0,1-1.07-3V70.55a4,4,0,1,1,8,0V82.68h19V70.55a3.7,3.7,0,0,1,4-4m0-1.2a4.87,4.87,0,0,0-5.2,5.21V81.48H346.49V70.55a5.21,5.21,0,1,0-10.42,0v30.94a5.22,5.22,0,0,0,1.42,3.85,5.11,5.11,0,0,0,3.79,1.42,5.06,5.06,0,0,0,3.79-1.45,5.23,5.23,0,0,0,1.42-3.82V89.92h16.66v11.57a5.21,5.21,0,0,0,1.41,3.85,5.11,5.11,0,0,0,3.79,1.42,5.06,5.06,0,0,0,3.79-1.45,5.23,5.23,0,0,0,1.42-3.82V70.55a4.89,4.89,0,0,0-5.21-5.21Z"/><path class="cls-15" d="M316.18,66.31A20.9,20.9,0,0,1,328.38,70a3.48,3.48,0,0,1,1.06,1.09,3.37,3.37,0,0,1,.29,1.52,3.46,3.46,0,0,1-.75,2.28,1.87,1.87,0,0,1-1.52.8,3.35,3.35,0,0,1-1.15-.18,9,9,0,0,1-1.42-.74,17.42,17.42,0,0,0-4.1-1.86,14.39,14.39,0,0,0-4-.57c-3.79,0-6.68,1.19-8.59,3.54s-2.78,5.69-2.78,10.15.93,7.94,2.78,10.21,4.8,3.54,8.59,3.54a11.45,11.45,0,0,0,3.74-.61c1.12-.38,2.55-1,4.28-1.75l0,0h0c.95-.5,1.44-.72,1.68-.82a2.76,2.76,0,0,1,.95-.14,1.87,1.87,0,0,1,1.52.8,3.46,3.46,0,0,1,.75,2.28,3.25,3.25,0,0,1-.3,1.5,3.14,3.14,0,0,1-1,1.1A22.44,22.44,0,0,1,306,103.34a16.48,16.48,0,0,1-6.64-6.8A22.28,22.28,0,0,1,297,86a22.11,22.11,0,0,1,2.38-10.48A16.45,16.45,0,0,1,306,68.7a20.69,20.69,0,0,1,10.15-2.39m0-1.2a21.85,21.85,0,0,0-10.73,2.54,17.56,17.56,0,0,0-7.12,7.29,23.25,23.25,0,0,0-2.52,11,23.35,23.35,0,0,0,2.52,11.11,17.56,17.56,0,0,0,7.12,7.29,23.64,23.64,0,0,0,23.62-1.33,4,4,0,0,0,1.86-3.59,4.63,4.63,0,0,0-1-3,3,3,0,0,0-2.45-1.24,3.78,3.78,0,0,0-1.39.23,18.56,18.56,0,0,0-1.8.87,44.62,44.62,0,0,1-4.16,1.7,10.29,10.29,0,0,1-3.36.55q-5.14,0-7.66-3.09c-1.68-2.06-2.52-5.22-2.52-9.46s.84-7.33,2.52-9.4,4.23-3.09,7.66-3.09a13.14,13.14,0,0,1,3.71.52,16.14,16.14,0,0,1,3.81,1.73,9.06,9.06,0,0,0,1.62.84,4.35,4.35,0,0,0,1.57.26,3,3,0,0,0,2.45-1.24,4.63,4.63,0,0,0,1-3,4.37,4.37,0,0,0-.44-2.08A4.55,4.55,0,0,0,329.07,69a22,22,0,0,0-12.89-3.87Z"/><path class="cls-15" d="M272.22,66.48a5.35,5.35,0,0,1,2.65.69,4.06,4.06,0,0,1,1.76,1.88l15.27,31.34a3.78,3.78,0,0,1,.4,1.62,2.92,2.92,0,0,1-1.12,2.34,4,4,0,0,1-2.71,1,3.28,3.28,0,0,1-1.79-.51,3.42,3.42,0,0,1-1.28-1.56l-2.6-5.84-.32-.71H262.19l-.32.7-2.66,5.84a3.45,3.45,0,0,1-1.3,1.56,3.41,3.41,0,0,1-1.83.52,4.18,4.18,0,0,1-2.79-1.06,2.86,2.86,0,0,1-1.16-2.32,3.67,3.67,0,0,1,.4-1.61L267.8,69a4.17,4.17,0,0,1,1.74-1.88,5.26,5.26,0,0,1,2.68-.68m-7.52,24.7H280l-.76-1.69-5.79-12.9-1.09-2.43-1.09,2.43-5.79,12.9-.75,1.69m7.52-25.9a6.47,6.47,0,0,0-3.27.84,5.35,5.35,0,0,0-2.23,2.4L251.45,99.87a5,5,0,0,0-.52,2.14,4.06,4.06,0,0,0,1.59,3.24,5.4,5.4,0,0,0,3.56,1.33,4.53,4.53,0,0,0,4.22-2.77L263,98H281.7l2.61,5.84a4.67,4.67,0,0,0,1.73,2.08,4.47,4.47,0,0,0,2.43.69,5.17,5.17,0,0,0,3.5-1.33A4.12,4.12,0,0,0,293.5,102a5,5,0,0,0-.52-2.14L277.71,68.52a5.3,5.3,0,0,0-2.26-2.4,6.51,6.51,0,0,0-3.23-.84ZM266.55,90l5.78-12.9L278.11,90Z"/><path class="cls-15" d="M241.33,66.54a3.69,3.69,0,0,1,4,4v30.94a4,4,0,0,1-1.07,3,4.53,4.53,0,0,1-5.87,0,4,4,0,0,1-1.07-3V88.73H218.26v12.76a4,4,0,0,1-1.07,3,3.9,3.9,0,0,1-2.93,1.09,3.94,3.94,0,0,1-2.95-1.07,4,4,0,0,1-1.06-3V70.55a4,4,0,1,1,8,0V82.68h19.06V70.55a3.7,3.7,0,0,1,4-4m0-1.2a4.89,4.89,0,0,0-5.21,5.21V81.48H219.46V70.55a5.21,5.21,0,1,0-10.41,0v30.94a5.18,5.18,0,0,0,1.42,3.85,5.72,5.72,0,0,0,7.58,0,5.22,5.22,0,0,0,1.41-3.82V89.92h16.66v11.57a5.18,5.18,0,0,0,1.42,3.85,5.72,5.72,0,0,0,7.58,0,5.22,5.22,0,0,0,1.41-3.82V70.55a4.87,4.87,0,0,0-5.2-5.21Z"/><path class="cls-1" d="M100,322.18v-2.06a5.5,5.5,0,0,0-1.48-3.93,5.12,5.12,0,0,0-3.84-1.57c-1.49,0-3.58.61-5.08,3.5l-7.19,13.59L75.13,318.1A7,7,0,0,0,73,315.58a5.43,5.43,0,0,0-6.89.6,5.41,5.41,0,0,0-1.52,3.94v25h0v2.05a5,5,0,0,0,1.45,3.74,5,5,0,0,0,3.6,1.4,5,5,0,0,0,3.66-1.43,5.06,5.06,0,0,0,1.43-3.71v-7.92L77.35,344a7.21,7.21,0,0,0,2.07,2.56,5.09,5.09,0,0,0,5.72,0A7,7,0,0,0,87.21,344l2.66-4.9v6.05h0v2.05a5,5,0,0,0,1.45,3.74,5.35,5.35,0,0,0,7.23,0,5.05,5.05,0,0,0,1.41-3.73v-25Zm-32.62,25v-25a2.7,2.7,0,0,1,.74-2,2.68,2.68,0,0,1,3.35-.28,4.29,4.29,0,0,1,1.28,1.57l9.67,18.18L92,321.43c.93-1.8,2-2,2.64-2a2.4,2.4,0,0,1,1.86.73,2.8,2.8,0,0,1,.72,2v25a3.09,3.09,0,0,1-.2,1.16,4.24,4.24,0,0,1-4.21,0,3,3,0,0,1-.2-1.14v-18.9l-7.82,14.4a5.31,5.31,0,0,1-.35.6l-.09.08a3.75,3.75,0,0,1-4.13,0,.87.87,0,0,1-.1-.08c-.11-.18-.23-.38-.36-.62l-7.76-14v18.53a2.7,2.7,0,0,1-.21,1.12,3.76,3.76,0,0,1-2.14.59,3.79,3.79,0,0,1-2.1-.57A3,3,0,0,1,67.34,347.17ZM94.64,316a3.78,3.78,0,0,1,2.85,1.15,3.7,3.7,0,0,1,.51.67,5.19,5.19,0,0,0-3.36-1.13,5,5,0,0,0-3.36,1.25A4,4,0,0,1,94.64,316ZM70,316a3.83,3.83,0,0,1,2.25.71A5.17,5.17,0,0,1,73.49,318a5.71,5.71,0,0,0-.48-.38,5.18,5.18,0,0,0-3-1,5.26,5.26,0,0,0-3.4,1.15,3.52,3.52,0,0,1,.53-.69A3.84,3.84,0,0,1,70,316Z"/><path class="cls-21" d="M71,325.59v-.83l.46.84a21.43,21.43,0,0,0,2.27-.09L72,322.18a18.12,18.12,0,0,1-3.6-.32,3,3,0,0,0,0,.32v3.15A21.42,21.42,0,0,0,71,325.59Z"/><path class="cls-3" d="M97.49,317.14a4.14,4.14,0,0,1,1.1,3v25a3.72,3.72,0,0,1-1,2.75,3.57,3.57,0,0,1-2.66,1,3.6,3.6,0,0,1-2.65-1,3.7,3.7,0,0,1-1-2.75V331.61L86,341.26a6,6,0,0,1-1.65,2.09,3.75,3.75,0,0,1-4.13,0,5.9,5.9,0,0,1-1.66-2.09l-5.19-9.37v13.23a3.73,3.73,0,0,1-1,2.73,3.64,3.64,0,0,1-2.69,1,3.6,3.6,0,0,1-2.64-1,3.66,3.66,0,0,1-1-2.75v-25a4.07,4.07,0,0,1,1.13-3,4.05,4.05,0,0,1,5.12-.44,5.65,5.65,0,0,1,1.7,2.05l8.45,15.89,8.41-15.89Q92.21,316,94.64,316A3.78,3.78,0,0,1,97.49,317.14Z"/><path class="cls-1" d="M80.45,308.77a2.64,2.64,0,0,1,.92,2.17,2.73,2.73,0,0,1-.91,2.22,3.58,3.58,0,0,1-2.35.7H68.29A2.94,2.94,0,0,1,66.1,313a2.9,2.9,0,0,1-.82-2.11,3.85,3.85,0,0,1,1.16-2.73l5.71-6a4.47,4.47,0,0,0,1.52-2.78.93.93,0,0,0-.23-.72,1.35,1.35,0,0,0-.87-.24,3.35,3.35,0,0,0-1.13.18,14.38,14.38,0,0,0-1.42.61l-.53.27-.37.21a5.51,5.51,0,0,1-.72.33,2.73,2.73,0,0,1-.8.13,2.29,2.29,0,0,1-1.87-1,3.23,3.23,0,0,1-.64-2,3.27,3.27,0,0,1,.25-1.36,2.75,2.75,0,0,1,1-1.07,11.78,11.78,0,0,1,6.46-2,9.61,9.61,0,0,1,3.87.74,6.1,6.1,0,0,1,2.72,2.21,5.86,5.86,0,0,1,1,3.32,7.71,7.71,0,0,1-.75,3.41,13.27,13.27,0,0,1-2.42,3.27l-2.28,2.33h3.21A3.55,3.55,0,0,1,80.45,308.77Z"/><path class="cls-1" d="M63.27,299.3a7.71,7.71,0,1,0-15.41,0V308h-12V303h0V299.3a7.37,7.37,0,0,0-7.71-7.7,7.37,7.37,0,0,0-7.7,7.7V303h0v31.35A7.63,7.63,0,0,0,22.58,340a7.55,7.55,0,0,0,5.55,2.14,7.5,7.5,0,0,0,5.58-2.19,7.67,7.67,0,0,0,2.13-5.57v-9.29h12v9.29A7.63,7.63,0,0,0,50,340a7.55,7.55,0,0,0,5.55,2.14,7.46,7.46,0,0,0,5.57-2.19,7.62,7.62,0,0,0,2.13-5.57v-3.68h0ZM33.41,318.94v1.26H31v14.15a3.94,3.94,0,0,1-.12,1,5.6,5.6,0,0,1-2.73.66,5.66,5.66,0,0,1-2.74-.65,4.62,4.62,0,0,1-.11-1V303a2.55,2.55,0,0,1,2.85-2.85A2.55,2.55,0,0,1,31,303v13.5H52.72V303a2.53,2.53,0,0,1,2.84-2.85,2.72,2.72,0,0,1,2.12.72h0a2.74,2.74,0,0,1,.73,2.13v31.35a3.94,3.94,0,0,1-.12,1,5.6,5.6,0,0,1-2.73.66,5.66,5.66,0,0,1-2.74-.65,4.68,4.68,0,0,1-.1-1V320.2H50.29v-1.26ZM55.56,294a5.19,5.19,0,0,1,3.84,1.44,4.49,4.49,0,0,1,.89,1.3,8.3,8.3,0,0,0-9.46,0,4.49,4.49,0,0,1,.89-1.3A5.19,5.19,0,0,1,55.56,294Zm-7.7,16.35v1.26h-12v-1.26ZM28.13,294A5.19,5.19,0,0,1,32,295.47a4.49,4.49,0,0,1,.89,1.3,7.69,7.69,0,0,0-4.73-1.48,7.71,7.71,0,0,0-4.73,1.48,4.49,4.49,0,0,1,.89-1.3A5.19,5.19,0,0,1,28.13,294Z"/><path class="cls-15" d="M55.56,335.58a4.63,4.63,0,0,1-3.48-1.29,4.71,4.71,0,0,1-1.29-3.54V318.53H32.91v12.22a4.78,4.78,0,0,1-1.3,3.52,4.61,4.61,0,0,1-3.48,1.31,4.63,4.63,0,0,1-3.48-1.29,4.71,4.71,0,0,1-1.29-3.54V299.39a4.45,4.45,0,0,1,4.77-4.77,4.45,4.45,0,0,1,4.78,4.77V311H50.79V299.39a4.78,4.78,0,1,1,9.55,0v31.36a4.78,4.78,0,0,1-1.3,3.52A4.61,4.61,0,0,1,55.56,335.58Z"/><path class="cls-15" d="M55.56,295.12a4,4,0,0,1,4.28,4.27v31.36a4.32,4.32,0,0,1-1.15,3.17,4.83,4.83,0,0,1-6.26,0,4.27,4.27,0,0,1-1.14-3.19V318H32.41v12.72a4.32,4.32,0,0,1-1.15,3.17,4.16,4.16,0,0,1-3.13,1.16A4.19,4.19,0,0,1,25,333.94a4.27,4.27,0,0,1-1.14-3.19V299.39a3.94,3.94,0,0,1,4.27-4.27,4,4,0,0,1,4.28,4.27v12.08H51.29V299.39a3.94,3.94,0,0,1,4.27-4.27m0-1a4.93,4.93,0,0,0-5.27,5.27v11.08H33.41V299.39a4.94,4.94,0,0,0-5.28-5.27,4.93,4.93,0,0,0-5.27,5.27v31.36a5.3,5.3,0,0,0,1.43,3.9,5.22,5.22,0,0,0,3.84,1.43A5.16,5.16,0,0,0,32,334.62a5.29,5.29,0,0,0,1.44-3.87V319H50.29v11.72a5.3,5.3,0,0,0,1.43,3.9,5.22,5.22,0,0,0,3.84,1.43,5.16,5.16,0,0,0,3.84-1.46,5.29,5.29,0,0,0,1.44-3.87V299.39a4.94,4.94,0,0,0-5.28-5.27Z"/><path class="cls-15" d="M55.56,295.33a3.74,3.74,0,0,1,4.06,4.06v31.36a4.07,4.07,0,0,1-1.09,3,3.92,3.92,0,0,1-3,1.1,4,4,0,0,1-3-1.08,4.07,4.07,0,0,1-1.08-3V317.81H32.19v12.94a4.07,4.07,0,0,1-1.09,3,3.92,3.92,0,0,1-3,1.1,4,4,0,0,1-3-1.08,4.07,4.07,0,0,1-1.08-3V299.39a3.74,3.74,0,0,1,4.06-4.06,3.74,3.74,0,0,1,4.06,4.06v12.29H51.5V299.39a3.74,3.74,0,0,1,4.06-4.06m0-1.21a4.93,4.93,0,0,0-5.27,5.27v11.08H33.41V299.39a4.94,4.94,0,0,0-5.28-5.27,4.93,4.93,0,0,0-5.27,5.27v31.36a5.3,5.3,0,0,0,1.43,3.9,5.22,5.22,0,0,0,3.84,1.43A5.16,5.16,0,0,0,32,334.62a5.29,5.29,0,0,0,1.44-3.87V319H50.29v11.72a5.3,5.3,0,0,0,1.43,3.9,5.22,5.22,0,0,0,3.84,1.43,5.16,5.16,0,0,0,3.84-1.46,5.29,5.29,0,0,0,1.44-3.87V299.39a4.94,4.94,0,0,0-5.28-5.27Z"/><path class="cls-21" d="M221.21,318.55v-2.33a6.25,6.25,0,0,0-1.69-4.48,5.83,5.83,0,0,0-4.36-1.78c-1.7,0-4.08.69-5.78,4L201.2,329.4,193,313.92a8,8,0,0,0-2.41-2.87,6.19,6.19,0,0,0-7.84.68,6.16,6.16,0,0,0-1.73,4.49v28.42h0V347a5.72,5.72,0,0,0,1.65,4.25,6.06,6.06,0,0,0,8.25,0,5.7,5.7,0,0,0,1.64-4.21v-9l3,5.35a8.2,8.2,0,0,0,2.36,2.92,5.85,5.85,0,0,0,6.51,0,8.05,8.05,0,0,0,2.34-2.9l3-5.58v6.88h0V347a5.55,5.55,0,0,0,5.74,5.85,5.62,5.62,0,0,0,4.13-1.61,5.75,5.75,0,0,0,1.61-4.24V318.56ZM184.11,347V318.56a3.15,3.15,0,0,1,.84-2.31,3.07,3.07,0,0,1,3.81-.31,4.92,4.92,0,0,1,1.46,1.78l11,20.68,10.94-20.69c1.06-2.06,2.23-2.29,3-2.29a2.74,2.74,0,0,1,2.11.82,3.21,3.21,0,0,1,.82,2.32V347a3.45,3.45,0,0,1-.23,1.31,4.37,4.37,0,0,1-2.39.64,4.26,4.26,0,0,1-2.39-.66,3.34,3.34,0,0,1-.23-1.29v-21.5L204,341.86c-.14.26-.27.48-.4.68l-.11.09a4.24,4.24,0,0,1-4.7,0l-.1-.09c-.13-.2-.27-.43-.42-.7l-8.82-15.94V347a3.32,3.32,0,0,1-.24,1.28,4.39,4.39,0,0,1-2.44.67,4.29,4.29,0,0,1-2.39-.66A3.54,3.54,0,0,1,184.11,347Zm31-35.46a4.13,4.13,0,0,1,3.81,2.07,6.06,6.06,0,0,0-7.64.13A4.52,4.52,0,0,1,215.16,311.52Zm-28.06,0a4.35,4.35,0,0,1,2.56.81,5.74,5.74,0,0,1,1.44,1.5c-.18-.15-.35-.31-.54-.44a6.21,6.21,0,0,0-7.33.22,4.57,4.57,0,0,1,.6-.79A4.4,4.4,0,0,1,187.1,311.52Z"/><path class="cls-21" d="M188.27,322.43v-.94l.52.95a22.34,22.34,0,0,0,2.59-.1l-2-3.78a20.89,20.89,0,0,1-4.09-.37c0,.12,0,.23,0,.37v3.58A23.56,23.56,0,0,0,188.27,322.43Z"/><path class="cls-22" d="M215.47,348.43a3.63,3.63,0,0,1-2.66-1,3.72,3.72,0,0,1-1-2.78V329.28a.49.49,0,0,0-.38-.48l-.12,0a.51.51,0,0,0-.44.26l-6,11a6.13,6.13,0,0,1-1.73,2.21,3.73,3.73,0,0,1-4.12,0,6.28,6.28,0,0,1-1.73-2.2l-5.91-10.67a.51.51,0,0,0-.43-.26l-.13,0a.5.5,0,0,0-.37.48v15.05a3.73,3.73,0,0,1-1,2.76,3.66,3.66,0,0,1-2.71,1,3.59,3.59,0,0,1-2.65-1,3.68,3.68,0,0,1-1-2.78V316.22a4.16,4.16,0,0,1,1.14-3.05A3.88,3.88,0,0,1,187.1,312a3.76,3.76,0,0,1,2.27.72,5.8,5.8,0,0,1,1.78,2.14L200.76,333a.5.5,0,0,0,.45.27h0a.5.5,0,0,0,.44-.27l9.56-18.07c1-1.94,2.29-2.87,3.95-2.87a3.78,3.78,0,0,1,2.88,1.15,4.18,4.18,0,0,1,1.11,3.05v28.42a3.73,3.73,0,0,1-1,2.78A3.6,3.6,0,0,1,215.47,348.43Z"/><path class="cls-3" d="M215.16,312.52a3.26,3.26,0,0,1,2.51,1,3.67,3.67,0,0,1,1,2.7v28.42a3.25,3.25,0,0,1-.86,2.43,3.08,3.08,0,0,1-2.32.86,3.15,3.15,0,0,1-2.31-.87,3.21,3.21,0,0,1-.87-2.42V329.28a1,1,0,0,0-.75-1l-.25,0a1,1,0,0,0-.88.52l-6,11a6,6,0,0,1-1.58,2,3.27,3.27,0,0,1-3.54,0,6.06,6.06,0,0,1-1.59-2.05l-5.9-10.66a1,1,0,0,0-.87-.52.69.69,0,0,0-.25,0,1,1,0,0,0-.75,1v15.05a3.19,3.19,0,0,1-.89,2.4,3.51,3.51,0,0,1-4.65,0,3.2,3.2,0,0,1-.88-2.42V316.22a3.68,3.68,0,0,1,1-2.7,3.4,3.4,0,0,1,2.55-1,3.32,3.32,0,0,1,2,.62,5.46,5.46,0,0,1,1.63,2l9.61,18.08a1,1,0,0,0,.89.53h0a1,1,0,0,0,.88-.53l9.57-18.09c.9-1.74,2-2.59,3.5-2.59m0-1q-2.78,0-4.39,3.13l-9.56,18.08-9.62-18.08a6.33,6.33,0,0,0-1.93-2.32,4.35,4.35,0,0,0-2.56-.81,4.4,4.4,0,0,0-3.27,1.3,4.67,4.67,0,0,0-1.28,3.4v28.42a4.21,4.21,0,0,0,1.18,3.14,4.52,4.52,0,0,0,6.06,0,4.22,4.22,0,0,0,1.18-3.11V329.59l5.9,10.66a6.7,6.7,0,0,0,1.88,2.38,4.24,4.24,0,0,0,4.7,0,6.7,6.7,0,0,0,1.88-2.38l6-11v15.36a4.17,4.17,0,0,0,1.18,3.14,4.53,4.53,0,0,0,6,0,4.23,4.23,0,0,0,1.15-3.14V316.22a4.74,4.74,0,0,0-1.25-3.4,4.3,4.3,0,0,0-3.24-1.3Z"/><path class="cls-21" d="M166.3,332a6.36,6.36,0,0,0,1.54,4.36l2.5-3.88a3.53,3.53,0,0,1,0-.48V320.35h-2V319.3h-1.37a2.82,2.82,0,0,0-1.35.95L162,324.36h4.34V332Z"/><path class="cls-21" d="M169.44,319.21h2v11.58l2.43-3.77V311.81a20.53,20.53,0,0,1-2.43-3.27v6.33c.2.2.37.42.58.62l-.58.76v2.18H169.8l-.36.47Z"/><path class="cls-21" d="M175,313v7.58l1.91-1.37a21.73,21.73,0,0,0,2.1,1.06v-4.36a18.71,18.71,0,0,1-2.33-1.49C176.11,314,175.55,313.47,175,313Z"/><path class="cls-21" d="M203.93,278.41a24.49,24.49,0,0,0-38.77,24.46,7.33,7.33,0,0,1,2.11-5.2,6.72,6.72,0,0,1,1.3-1,20.63,20.63,0,1,1,27.52,20.71l1.84,3.46c.32-.12.64-.24.95-.38s1.38-.65,1.54-.73a24.51,24.51,0,0,0,3.51-41.3Z"/><path class="cls-21" d="M154.6,336.65a6.38,6.38,0,0,0,1.76-4.61V330.7l-6.82,7.72c.15,0,.29,0,.45,0A6.21,6.21,0,0,0,154.6,336.65Z"/><path class="cls-21" d="M165.16,332V325.5H161l-3.45,3.91V332a7.45,7.45,0,0,1-2.09,5.4A7.3,7.3,0,0,1,150,339.6a9,9,0,0,1-1.4-.11l-1.27,1.45a7.42,7.42,0,0,0,11.83,8.95l8-12.48A7.41,7.41,0,0,1,165.16,332Z"/><path class="cls-21" d="M168.07,298.48a6.21,6.21,0,0,0-1.77,4.59v3.69a24.53,24.53,0,0,0,4,6.86v-7.26a20.71,20.71,0,0,1-1.77-8.26A4.12,4.12,0,0,0,168.07,298.48Z"/><path class="cls-21" d="M196.37,303.39a2.65,2.65,0,0,1,.92,2.18,2.71,2.71,0,0,1-.91,2.21,3.53,3.53,0,0,1-2.35.71H184.2a3,3,0,0,1-2.19-.86,2.9,2.9,0,0,1-.83-2.11,3.84,3.84,0,0,1,1.18-2.74l5.7-5.95a4.44,4.44,0,0,0,1.52-2.78c0-.51-.17-.67-.23-.72a1.25,1.25,0,0,0-.86-.24,3.41,3.41,0,0,0-1.14.18,12.26,12.26,0,0,0-1.41.61l-.54.27-.37.2a4.56,4.56,0,0,1-.72.34,2.72,2.72,0,0,1-.8.12,2.27,2.27,0,0,1-1.87-1,3.49,3.49,0,0,1-.39-3.35,2.7,2.7,0,0,1,1-1.08,12,12,0,0,1,6.47-2,9.61,9.61,0,0,1,3.87.74,6.17,6.17,0,0,1,2.72,2.21,5.87,5.87,0,0,1,1,3.33,7.75,7.75,0,0,1-.75,3.41,13.58,13.58,0,0,1-2.42,3.26l-2.28,2.34H194A3.53,3.53,0,0,1,196.37,303.39Z"/><path class="cls-21" d="M179,303.07a6.37,6.37,0,1,0-12.73,0v7.15h-9.94v-4.1h0v-3.05a6.37,6.37,0,1,0-12.74,0v3.05h0V332a6.07,6.07,0,0,0,6.37,6.42,6.21,6.21,0,0,0,4.61-1.81,6.38,6.38,0,0,0,1.76-4.61v-7.68h9.94V332a6.07,6.07,0,0,0,6.37,6.42,6.2,6.2,0,0,0,4.6-1.81A6.32,6.32,0,0,0,179,332v-3h0ZM154.35,319.3v1.05h-2V332a3.17,3.17,0,0,1-.1.82,4.59,4.59,0,0,1-2.25.54,4.76,4.76,0,0,1-2.27-.53,3.83,3.83,0,0,1-.09-.83V306.12a2.11,2.11,0,0,1,2.36-2.35,2.1,2.1,0,0,1,2.35,2.35v11.17h18V306.12a2.23,2.23,0,0,1,.6-1.75,2.87,2.87,0,0,1,3.51,0h0a2.23,2.23,0,0,1,.6,1.75V332a3.17,3.17,0,0,1-.1.82,4.61,4.61,0,0,1-2.26.54,4.74,4.74,0,0,1-2.26-.53,3.29,3.29,0,0,1-.09-.83V320.35h-2V319.3Zm18.31-20.59a4.26,4.26,0,0,1,3.18,1.19,3.91,3.91,0,0,1,.73,1.07,6.86,6.86,0,0,0-7.81,0,3.7,3.7,0,0,1,.73-1.07A4.25,4.25,0,0,1,172.66,298.71Zm-6.36,13.52v1h-9.94v-1ZM150,298.71a4.25,4.25,0,0,1,3.17,1.19,3.94,3.94,0,0,1,.74,1.07,6.88,6.88,0,0,0-7.82,0,3.91,3.91,0,0,1,.73-1.07A4.28,4.28,0,0,1,150,298.71Z"/><path class="cls-23" d="M175.84,300a4.29,4.29,0,0,1,1.18,3.17v25.93a4.35,4.35,0,0,1-1.18,3.19,4.24,4.24,0,0,1-3.18,1.21,4.29,4.29,0,0,1-3.17-1.18,4.36,4.36,0,0,1-1.19-3.22v-9.7h-14v9.7a4.36,4.36,0,0,1-1.19,3.19,4.23,4.23,0,0,1-3.17,1.21,4.31,4.31,0,0,1-3.18-1.18,4.36,4.36,0,0,1-1.18-3.22V303.14a4.36,4.36,0,1,1,8.72,0v9.16h14v-9.16a4.49,4.49,0,0,1,7.54-3.17Z"/><path class="cls-15" d="M172.66,299.79a3.08,3.08,0,0,1,3.36,3.35v25.93a3.36,3.36,0,0,1-.9,2.49,3.26,3.26,0,0,1-2.46.91,3.3,3.3,0,0,1-2.46-.89,3.36,3.36,0,0,1-.89-2.51v-10.7h-16v10.7a3.36,3.36,0,0,1-.91,2.49,3.25,3.25,0,0,1-2.45.91,3.31,3.31,0,0,1-2.47-.89,3.36,3.36,0,0,1-.89-2.51V303.14a3.36,3.36,0,1,1,6.72,0V313.3h16V303.14a3.08,3.08,0,0,1,3.35-3.35m0-1a4.09,4.09,0,0,0-4.36,4.36v9.16h-14v-9.16a4.36,4.36,0,1,0-8.72,0v25.93a4.36,4.36,0,0,0,1.18,3.22,4.31,4.31,0,0,0,3.18,1.18,4.23,4.23,0,0,0,3.17-1.21,4.36,4.36,0,0,0,1.19-3.19v-9.7h14v9.7a4.36,4.36,0,0,0,1.19,3.22,4.29,4.29,0,0,0,3.17,1.18,4.24,4.24,0,0,0,3.18-1.21,4.35,4.35,0,0,0,1.18-3.19V303.14a4.08,4.08,0,0,0-4.36-4.36Z"/><path class="cls-21" d="M297.56,313.83a6.37,6.37,0,1,0-12.73,0V321H274.9v-4.1h0v-3a6.37,6.37,0,1,0-12.73,0v3h0v25.91a6.07,6.07,0,0,0,6.36,6.41,6.21,6.21,0,0,0,4.61-1.81,6.31,6.31,0,0,0,1.76-4.6V335.1h9.93v7.68a6.09,6.09,0,0,0,6.37,6.41,6.2,6.2,0,0,0,4.6-1.81,6.31,6.31,0,0,0,1.76-4.6v-3h0Zm-24.67,16.22v1h-2v11.69a3.67,3.67,0,0,1-.1.82,4.75,4.75,0,0,1-2.26.54,4.63,4.63,0,0,1-2.26-.54,3.73,3.73,0,0,1-.09-.82V316.87a2.49,2.49,0,0,1,4.11-1.75,2.29,2.29,0,0,1,.6,1.75V328h17.95V316.87a2.29,2.29,0,0,1,.6-1.75,2.87,2.87,0,0,1,3.51,0h0a2.29,2.29,0,0,1,.6,1.75v25.91a3.67,3.67,0,0,1-.1.82,4.71,4.71,0,0,1-2.25.54,4.65,4.65,0,0,1-2.27-.54,3.73,3.73,0,0,1-.09-.82V331.09h-2v-1Zm18.31-20.58a4.29,4.29,0,0,1,3.17,1.18,4,4,0,0,1,.73,1.08,6.86,6.86,0,0,0-7.81,0,4,4,0,0,1,.73-1.08A4.29,4.29,0,0,1,291.2,309.47ZM284.83,323v1H274.9v-1Zm-16.3-13.51a4.29,4.29,0,0,1,3.18,1.18,4,4,0,0,1,.73,1.08,6.86,6.86,0,0,0-7.81,0,4,4,0,0,1,.73-1.08A4.29,4.29,0,0,1,268.53,309.47Z"/><path class="cls-24" d="M294.37,310.73a4.27,4.27,0,0,1,1.18,3.17v25.9a4.37,4.37,0,0,1-1.18,3.2,4.23,4.23,0,0,1-3.17,1.21,4.09,4.09,0,0,1-4.36-4.41v-9.68H272.89v9.68a4.37,4.37,0,0,1-1.18,3.2,4.24,4.24,0,0,1-3.18,1.21,4.29,4.29,0,0,1-3.17-1.19,4.34,4.34,0,0,1-1.18-3.22V313.9a4.36,4.36,0,1,1,8.71,0v9.15h13.95V313.9a4.49,4.49,0,0,1,7.53-3.17Z"/><path class="cls-15" d="M291.2,310.54a3.1,3.1,0,0,1,3.35,3.36v25.9a3.38,3.38,0,0,1-.9,2.5,3.25,3.25,0,0,1-2.45.91,3.32,3.32,0,0,1-2.47-.9,3.36,3.36,0,0,1-.89-2.51V329.12H271.89V339.8a3.38,3.38,0,0,1-.9,2.5,3.26,3.26,0,0,1-2.46.91,3.31,3.31,0,0,1-2.46-.9,3.36,3.36,0,0,1-.89-2.51V313.9a3.49,3.49,0,0,1,5.82-2.47,3.33,3.33,0,0,1,.89,2.47v10.15h15.95V313.9a3.1,3.1,0,0,1,3.36-3.36m0-1a4.08,4.08,0,0,0-4.36,4.36v9.15H272.89V313.9a4.36,4.36,0,1,0-8.71,0v25.9a4.34,4.34,0,0,0,1.18,3.22,4.29,4.29,0,0,0,3.17,1.19,4.24,4.24,0,0,0,3.18-1.21,4.37,4.37,0,0,0,1.18-3.2v-9.68h13.95v9.68a4.09,4.09,0,0,0,4.36,4.41,4.23,4.23,0,0,0,3.17-1.21,4.37,4.37,0,0,0,1.18-3.2V313.9a4.08,4.08,0,0,0-4.35-4.36Z"/><path class="cls-21" d="M334.9,313.83a6.36,6.36,0,1,0-12.72,0V321h-9.94v-4.1h0v-3a6.36,6.36,0,1,0-12.72,0v3h0v25.91a6.07,6.07,0,0,0,6.36,6.41,6.17,6.17,0,0,0,4.6-1.81,6.31,6.31,0,0,0,1.76-4.6V335.1h9.94v7.68a6.07,6.07,0,0,0,6.36,6.41,6.17,6.17,0,0,0,4.6-1.81,6.31,6.31,0,0,0,1.76-4.6v-3h0Zm-24.66,16.22v1h-2v11.69a3.17,3.17,0,0,1-.1.82,5,5,0,0,1-4.52,0,3.79,3.79,0,0,1-.08-.82V316.87a2.36,2.36,0,1,1,4.7,0V328h18V316.87a2.1,2.1,0,0,1,2.35-2.35,2.22,2.22,0,0,1,1.75.6h0a2.25,2.25,0,0,1,.6,1.75v25.91a3.17,3.17,0,0,1-.1.82,5,5,0,0,1-4.52,0,3.79,3.79,0,0,1-.08-.82V331.09h-2v-1Zm18.3-20.58a4.29,4.29,0,0,1,3.17,1.18,4,4,0,0,1,.74,1.08,6.88,6.88,0,0,0-7.82,0,4,4,0,0,1,.74-1.08A4.29,4.29,0,0,1,328.54,309.47ZM322.18,323v1h-9.94v-1Zm-16.3-13.51a4.29,4.29,0,0,1,3.17,1.18,4,4,0,0,1,.74,1.08,6.88,6.88,0,0,0-7.82,0,4,4,0,0,1,.74-1.08A4.29,4.29,0,0,1,305.88,309.47Z"/><path class="cls-25" d="M331.71,310.73a4.28,4.28,0,0,1,1.19,3.17v25.9a4.38,4.38,0,0,1-1.19,3.2,4.23,4.23,0,0,1-3.17,1.21,4.29,4.29,0,0,1-3.17-1.19,4.35,4.35,0,0,1-1.19-3.22v-9.68H310.24v9.68a4.38,4.38,0,0,1-1.19,3.2,4.23,4.23,0,0,1-3.17,1.21,4.29,4.29,0,0,1-3.17-1.19,4.35,4.35,0,0,1-1.19-3.22V313.9a4.36,4.36,0,1,1,8.72,0v9.15h13.94V313.9a4.49,4.49,0,0,1,7.53-3.17Z"/><path class="cls-15" d="M328.54,310.54a3.25,3.25,0,0,1,2.46.9,3.29,3.29,0,0,1,.9,2.46v25.9a3.42,3.42,0,0,1-.9,2.5,3.8,3.8,0,0,1-4.92,0,3.36,3.36,0,0,1-.89-2.51V329.12h-16V339.8a3.42,3.42,0,0,1-.89,2.5,3.8,3.8,0,0,1-4.92,0,3.36,3.36,0,0,1-.89-2.51V313.9a3.29,3.29,0,0,1,.89-2.46,3.25,3.25,0,0,1,2.46-.9,3.29,3.29,0,0,1,2.46.89,3.33,3.33,0,0,1,.89,2.47v10.15h16V313.9a3.29,3.29,0,0,1,.89-2.46,3.25,3.25,0,0,1,2.46-.9m0-1a4.09,4.09,0,0,0-4.36,4.36v9.15H310.24V313.9a4.36,4.36,0,1,0-8.72,0v25.9a4.35,4.35,0,0,0,1.19,3.22,4.29,4.29,0,0,0,3.17,1.19,4.23,4.23,0,0,0,3.17-1.21,4.38,4.38,0,0,0,1.19-3.2v-9.68h13.94v9.68a4.35,4.35,0,0,0,1.19,3.22,4.29,4.29,0,0,0,3.17,1.19,4.23,4.23,0,0,0,3.17-1.21,4.38,4.38,0,0,0,1.19-3.2V313.9a4.09,4.09,0,0,0-4.36-4.36Z"/><path class="cls-21" d="M376.27,315.1v-2.3a6.17,6.17,0,0,0-1.67-4.42,5.76,5.76,0,0,0-4.31-1.76c-1.68,0-4,.68-5.7,3.92l-8.08,15.27-8.13-15.28A7.68,7.68,0,0,0,346,307.7a6.1,6.1,0,0,0-7.74.67,6.08,6.08,0,0,0-1.7,4.43v28.06h0v2.31a5.67,5.67,0,0,0,1.62,4.2,5.71,5.71,0,0,0,9.76-4.2v-8.9l2.93,5.29a8.07,8.07,0,0,0,2.33,2.88,5.76,5.76,0,0,0,6.43,0,8,8,0,0,0,2.31-2.87l3-5.5v6.79h0v2.31a5.64,5.64,0,0,0,1.63,4.2,6,6,0,0,0,8.12,0,5.69,5.69,0,0,0,1.59-4.18V315.11Zm-36.63,28.07V315.11a3.11,3.11,0,0,1,.82-2.28,2.82,2.82,0,0,1,2.13-.83,2.76,2.76,0,0,1,1.64.52,4.78,4.78,0,0,1,1.43,1.76l10.86,20.41,10.8-20.42c1.05-2,2.2-2.27,3-2.27a2.71,2.71,0,0,1,2.09.82,3.17,3.17,0,0,1,.81,2.29v28.06a3.5,3.5,0,0,1-.23,1.29,4.29,4.29,0,0,1-2.36.63,4.24,4.24,0,0,1-2.36-.65,3.24,3.24,0,0,1-.23-1.27V321.94l-8.78,16.17a7.51,7.51,0,0,1-.39.67.87.87,0,0,1-.11.09,4.19,4.19,0,0,1-4.64,0l-.1-.08c-.13-.2-.27-.43-.41-.7l-8.72-15.73v20.81a3.22,3.22,0,0,1-.23,1.26,4.65,4.65,0,0,1-4.76,0A3.24,3.24,0,0,1,339.64,343.17Zm30.65-35a4.27,4.27,0,0,1,3.2,1.28,4.57,4.57,0,0,1,.57.76,5.82,5.82,0,0,0-3.77-1.27,5.7,5.7,0,0,0-3.78,1.4A4.46,4.46,0,0,1,370.29,308.16Zm-27.7,0a4.26,4.26,0,0,1,2.52.79,5.63,5.63,0,0,1,1.42,1.49A5.52,5.52,0,0,0,346,310a6.12,6.12,0,0,0-7.23.21,4.44,4.44,0,0,1,.59-.78A4.35,4.35,0,0,1,342.59,308.16Z"/><path class="cls-26" d="M370.6,344.59a3.54,3.54,0,0,1-2.62-1,3.63,3.63,0,0,1-1-2.74V325.69a.5.5,0,0,0-.38-.48l-.12,0a.5.5,0,0,0-.44.27l-5.88,10.83a6.26,6.26,0,0,1-1.71,2.18,3.73,3.73,0,0,1-4.06,0,6.26,6.26,0,0,1-1.71-2.18l-5.83-10.53a.51.51,0,0,0-.44-.26l-.12,0a.51.51,0,0,0-.38.48v14.86a3.66,3.66,0,0,1-1,2.72,4,4,0,0,1-5.28,0,3.63,3.63,0,0,1-1-2.74V312.8a4.11,4.11,0,0,1,1.12-3,4.09,4.09,0,0,1,5.11-.43,6,6,0,0,1,1.75,2.12l9.49,17.85a.5.5,0,0,0,.44.27h0a.5.5,0,0,0,.44-.27l9.44-17.85c1-1.9,2.25-2.82,3.89-2.82a3.76,3.76,0,0,1,2.84,1.13,4.12,4.12,0,0,1,1.1,3v28.06a3.68,3.68,0,0,1-1,2.74A3.53,3.53,0,0,1,370.6,344.59Z"/><path class="cls-3" d="M370.29,309.16a3.27,3.27,0,0,1,2.48,1,3.66,3.66,0,0,1,1,2.66v28.06a3.2,3.2,0,0,1-.85,2.39,3,3,0,0,1-2.28.84,3,3,0,0,1-3.13-3.23V325.69a1,1,0,0,0-.75-1,1.07,1.07,0,0,0-.25,0,1,1,0,0,0-.88.53l-5.88,10.84a5.73,5.73,0,0,1-1.56,2,3.22,3.22,0,0,1-3.48,0,5.76,5.76,0,0,1-1.56-2l-5.83-10.52a1,1,0,0,0-.88-.52.77.77,0,0,0-.25,0,1,1,0,0,0-.75,1v14.86a3.16,3.16,0,0,1-.86,2.36,3.48,3.48,0,0,1-4.58,0,3.14,3.14,0,0,1-.86-2.38V312.8a3.61,3.61,0,0,1,1-2.66,3.58,3.58,0,0,1,4.46-.37,5.29,5.29,0,0,1,1.6,2l9.49,17.85a1,1,0,0,0,.89.53h0a1,1,0,0,0,.88-.53l9.44-17.86c.89-1.72,2-2.55,3.45-2.55m0-1c-1.82,0-3.27,1-4.33,3.09l-9.44,17.85L347,311.25a6.2,6.2,0,0,0-1.91-2.3,4.26,4.26,0,0,0-2.52-.79,4.37,4.37,0,0,0-3.23,1.28,4.6,4.6,0,0,0-1.26,3.36v28.06a4.16,4.16,0,0,0,1.16,3.1,4.48,4.48,0,0,0,6,0,4.12,4.12,0,0,0,1.16-3.07V326l5.83,10.53a6.69,6.69,0,0,0,1.86,2.34,4.19,4.19,0,0,0,4.64,0,6.47,6.47,0,0,0,1.86-2.34l5.88-10.84v15.17a4.16,4.16,0,0,0,1.16,3.1,4.49,4.49,0,0,0,6,0,4.18,4.18,0,0,0,1.14-3.1V312.8a4.67,4.67,0,0,0-1.24-3.36,4.27,4.27,0,0,0-3.2-1.28Z"/></g></g></svg>