<svg xmlns="http://www.w3.org/2000/svg" viewBox="0 0 312.8 306.78"><title>innabyss</title><g id="Calque_2" data-name="Calque 2"><g id="Calque_1-2" data-name="Calque 1"><path d="M119.91,211.9h72.71a1.21,1.21,0,0,1,1.21,1.21v58.28a1,1,0,0,0,1.95.54L312.4,75.78a2.86,2.86,0,0,0-1.81-4.24c-11.21-2.68-16.51-7.22-37.74-7.22-30.07,0-28.19,9.11-56.4,9.11s-27-9.11-56.38-9.11-28.21,9.11-56.4,9.11-27.82-9.11-56.38-9.11c-24,0-27.58,6.41-44.75,8.48A2.86,2.86,0,0,0,.41,77.1L116.75,272a1,1,0,0,0,2-.54V213.11A1.21,1.21,0,0,1,119.91,211.9Z"/><path d="M130.79,50.31l1-.31-.06.31Z"/><rect x="134.34" y="231.05" width="16.32" height="16.32" rx="1.32" ry="1.32"/><rect x="161.88" y="231.05" width="16.32" height="16.32" rx="1.32" ry="1.32"/><rect x="134.34" y="290.47" width="16.32" height="16.32" rx="1.32" ry="1.32"/><rect x="161.88" y="290.47" width="16.32" height="16.32" rx="1.32" ry="1.32"/><rect x="134.34" y="260.76" width="16.32" height="16.32" rx="1.32" ry="1.32"/><rect x="161.88" y="260.76" width="16.32" height="16.32" rx="1.32" ry="1.32"/><path d="M1.54.69V62.63H12.7V.69Z"/><path d="M45.2.69V36L30.13.69H22.26V61.36A70.47,70.47,0,0,1,31.89,59V25.62l13.2,32.26,2.2,0c2.64,0,5,.08,7.23.22V.69Z"/><path d="M86.87.69V36L71.8.69H63.93V59.24a78.33,78.33,0,0,1,9.64,2.52V25.62l15.14,37H96.2V.69Z"/><path d="M145.52.69H133.43L121.05,62.63h10.63l.06-.31,2.46-14H145l1.76,10.31A98.2,98.2,0,0,1,157,57.89ZM135.35,41.14l4.2-26,4.21,26Z"/><path d="M197.86,37a11.75,11.75,0,0,0-3.59-5.08,12.8,12.8,0,0,0-6.07-2.56,11,11,0,0,0,5-2.11,9.78,9.78,0,0,0,3-4.23,17.88,17.88,0,0,0,1-6.43,20,20,0,0,0-1.29-7.72A11.66,11.66,0,0,0,192.21,4a15.35,15.35,0,0,0-5.74-2.55A33.25,33.25,0,0,0,179,.69H163.8V57.92A75.1,75.1,0,0,1,187.43,62a12.91,12.91,0,0,0,1.8-.52,13.77,13.77,0,0,0,5.42-3.4,14.39,14.39,0,0,0,3.3-5.66,25.53,25.53,0,0,0,1.1-7.83A21.31,21.31,0,0,0,197.86,37ZM175.11,8.57h2.22a20.33,20.33,0,0,1,5.66.65,5.6,5.6,0,0,1,3.33,2.44,9.73,9.73,0,0,1,1.11,5.09,15.72,15.72,0,0,1-.73,5.2A5.45,5.45,0,0,1,184.14,25a11.11,11.11,0,0,1-5.21,1h-3.82Zm11.25,43.62c-1.22,1.66-3.55,2.49-7,2.49h-4.29V33.81H179A10.94,10.94,0,0,1,184.4,35a6.49,6.49,0,0,1,2.91,3.48,17.47,17.47,0,0,1,.89,6.08C188.2,48,187.58,50.53,186.36,52.19Z"/><path d="M227.27.69l-7.19,24.54L212.43.69H201.87L214.42,39V62.63H225.2V39L237.59.69Z"/><path d="M271.12,37.82a32,32,0,0,0-6.54-7.53l-7.72-6.81a19.68,19.68,0,0,1-3.75-4.17,9.45,9.45,0,0,1-1.3-5.16,6.27,6.27,0,0,1,1.34-4.09A4.69,4.69,0,0,1,257,8.41a4.91,4.91,0,0,1,3.7,1.31,7.18,7.18,0,0,1,1.76,3.59,33.89,33.89,0,0,1,.66,5.2l9.63-1.69a32.45,32.45,0,0,0-1.07-6.38,16.94,16.94,0,0,0-2.56-5.38,11.49,11.49,0,0,0-4.63-3.72A17.42,17.42,0,0,0,257.24,0q-7.43,0-11.69,4c-2.86,2.65-4.29,6.43-4.29,11.31a17.51,17.51,0,0,0,2,8.61,23.39,23.39,0,0,0,5.24,6.31l7.8,6.88a29.13,29.13,0,0,1,4.89,5.2A11.21,11.21,0,0,1,263,48.94a7.13,7.13,0,0,1-1.15,4.17,4.41,4.41,0,0,1-3.9,1.65,5.32,5.32,0,0,1-3.94-1.5A9.23,9.23,0,0,1,251.77,49a30.34,30.34,0,0,1-.87-6.36l-9.72,1.92a27.44,27.44,0,0,0,2.15,10.32A13.7,13.7,0,0,0,248.48,61c5.35-1.6,11.73-2.94,22.24-3.09a15.23,15.23,0,0,0,1.17-1.75,15.78,15.78,0,0,0,1.95-7.87A19.23,19.23,0,0,0,271.12,37.82Z"/><path d="M308.28,37.82a31.73,31.73,0,0,0-6.54-7.53L294,23.48a19.89,19.89,0,0,1-3.74-4.17,9.36,9.36,0,0,1-1.3-5.16,6.26,6.26,0,0,1,1.33-4.09,4.7,4.7,0,0,1,3.87-1.65,4.93,4.93,0,0,1,3.71,1.31,7.18,7.18,0,0,1,1.75,3.59,32.69,32.69,0,0,1,.66,5.2l9.63-1.69a31.72,31.72,0,0,0-1.07-6.38,16.52,16.52,0,0,0-2.56-5.38,11.49,11.49,0,0,0-4.63-3.72A17.42,17.42,0,0,0,294.4,0Q287,0,282.71,4c-2.86,2.65-4.29,6.43-4.29,11.31a17.51,17.51,0,0,0,1.95,8.61,23.58,23.58,0,0,0,5.24,6.31l7.81,6.88a29.5,29.5,0,0,1,4.89,5.2,11.28,11.28,0,0,1,1.83,6.65A7.06,7.06,0,0,1,299,53.11a4.4,4.4,0,0,1-3.9,1.65,5.32,5.32,0,0,1-3.94-1.5A9.33,9.33,0,0,1,288.93,49a31,31,0,0,1-.87-6.36l-9.72,1.92a27.64,27.64,0,0,0,2.15,10.32,14.07,14.07,0,0,0,2.06,3.32h0a73.89,73.89,0,0,1,19.15,4.18,13.3,13.3,0,0,0,1.91-.88,14.09,14.09,0,0,0,5.43-5.4A15.58,15.58,0,0,0,311,48.26,19.23,19.23,0,0,0,308.28,37.82Z"/></g></g></svg>