<svg xmlns="http://www.w3.org/2000/svg" xmlns:xlink="http://www.w3.org/1999/xlink" viewBox="0 0 400 400"><defs><style>.cls-1{fill:url(#Dégradé_sans_nom_36);}.cls-2{fill:#fff;}.cls-3{fill:#666;}.cls-4{fill:#999;}.cls-5{fill:#b3b3b3;}</style><radialGradient id="Dégradé_sans_nom_36" cx="367.06" cy="-34.89" r="373.38" gradientTransform="matrix(1.19, 0, 0, 1.17, -37.55, 43.37)" gradientUnits="userSpaceOnUse"><stop offset="0" stop-color="#141c2b"/><stop offset="1" stop-color="#0e121e"/></radialGradient></defs><title>marchedenuit</title><g id="Calque_2" data-name="Calque 2"><g id="Calque_1-2" data-name="Calque 1"><rect class="cls-1" width="400" height="400"/><path class="cls-2" d="M201.72,176.68a.89.89,0,0,1-.89-.87.88.88,0,0,1,.86-.91,31.26,31.26,0,0,0,12.68-3,.89.89,0,1,1,.76,1.61,33.18,33.18,0,0,1-13.39,3.17Z"/><path class="cls-2" d="M201.72,181.32a.89.89,0,0,1,0-1.78A35.89,35.89,0,0,0,223,172a.89.89,0,1,1,1.09,1.41,37.69,37.69,0,0,1-22.37,7.91Z"/><path class="cls-2" d="M201.72,186a.89.89,0,0,1,0-1.78,40.5,40.5,0,0,0,24.37-8.68.89.89,0,0,1,1.1,1.4A42.31,42.31,0,0,1,201.73,186Z"/><path class="cls-2" d="M169.66,178.53a.9.9,0,0,1-.6-.23,48.3,48.3,0,0,1-4.77-5,.89.89,0,0,1,1.38-1.13,43.82,43.82,0,0,0,4.59,4.84.9.9,0,0,1,.06,1.26A.91.91,0,0,1,169.66,178.53Z"/><path class="cls-2" d="M201.72,190.59a.88.88,0,0,1-.89-.87.89.89,0,0,1,.87-.91,45.29,45.29,0,0,0,24.43-7.62.89.89,0,0,1,1.23.25.88.88,0,0,1-.24,1.23,47.13,47.13,0,0,1-25.39,7.92Z"/><path class="cls-2" d="M169.66,184.58a.93.93,0,0,1-.55-.18,52.25,52.25,0,0,1-10.69-11.18.9.9,0,0,1,.22-1.24.89.89,0,0,1,1.24.21A50.35,50.35,0,0,0,170.2,183a.89.89,0,0,1-.54,1.59Z"/><path class="cls-3" d="M240.93,175.86a.86.86,0,0,1-.55-.19.89.89,0,0,1-.15-1.25c.57-.72,1.13-1.47,1.67-2.23a.87.87,0,0,1,1.23-.21.89.89,0,0,1,.22,1.24c-.56.79-1.14,1.56-1.72,2.3A.91.91,0,0,1,240.93,175.86Z"/><path class="cls-2" d="M201.72,195.24a.89.89,0,0,1,0-1.78,50,50,0,0,0,24.47-6.82.89.89,0,0,1,1.22.32.88.88,0,0,1-.32,1.21,51.79,51.79,0,0,1-25.34,7.07Z"/><path class="cls-2" d="M240.93,182.89a.89.89,0,0,1-.64-1.5,55.51,55.51,0,0,0,7.14-9.16.89.89,0,0,1,1.51.94,56.2,56.2,0,0,1-7.37,9.45A.9.9,0,0,1,240.93,182.89Z"/><path class="cls-2" d="M169.66,190.31a.82.82,0,0,1-.5-.15,57.27,57.27,0,0,1-16.33-17,.89.89,0,0,1,1.51-.94,55.55,55.55,0,0,0,15.82,16.46.88.88,0,0,1,.23,1.23A.86.86,0,0,1,169.66,190.31Z"/><path class="cls-2" d="M201.72,199.88a.89.89,0,0,1,0-1.78,54,54,0,0,0,24.51-6.18.89.89,0,0,1,.83,1.57,55.93,55.93,0,0,1-25.31,6.39Z"/><path class="cls-2" d="M240.93,189.32a.89.89,0,0,1-.59-1.56,59.7,59.7,0,0,0,12.45-15.49.89.89,0,0,1,1.56.87,61.35,61.35,0,0,1-12.83,16A.89.89,0,0,1,240.93,189.32Z"/><path class="cls-3" d="M169.66,195.83a.84.84,0,0,1-.46-.13,61.49,61.49,0,0,1-21.77-22.56.89.89,0,1,1,1.55-.87,59.71,59.71,0,0,0,21.14,21.91.89.89,0,0,1,.3,1.22A.91.91,0,0,1,169.66,195.83Z"/><path class="cls-3" d="M201.72,204.52a.89.89,0,0,1,0-1.78,58.76,58.76,0,0,0,24.53-5.66.89.89,0,1,1,.76,1.61,60.62,60.62,0,0,1-25.27,5.83Z"/><path class="cls-2" d="M240.93,195.36a.89.89,0,0,1-.55-1.59A64.79,64.79,0,0,0,258,172.3a.88.88,0,0,1,1.19-.39.89.89,0,0,1,.39,1.2,66.5,66.5,0,0,1-18.14,22.06A.88.88,0,0,1,240.93,195.36Z"/><path class="cls-2" d="M201.72,209.16a.89.89,0,0,1,0-1.78,63.6,63.6,0,0,0,24.56-5.22.89.89,0,1,1,.71,1.63,65.42,65.42,0,0,1-25.25,5.37Z"/><path class="cls-2" d="M169.66,201.18a.81.81,0,0,1-.43-.11A66,66,0,0,1,144,176.46a.89.89,0,0,1,1.54-.89,64.2,64.2,0,0,0,24.57,23.94.89.89,0,0,1-.43,1.67Z"/><path class="cls-2" d="M201.72,213.8a.89.89,0,0,1,0-1.78,68.4,68.4,0,0,0,24.58-4.84.89.89,0,1,1,.66,1.65,70.18,70.18,0,0,1-25.22,5Z"/><path class="cls-2" d="M169.66,206.42a.93.93,0,0,1-.4-.09A71,71,0,0,1,144,185a.89.89,0,0,1,1.44-1,69.29,69.29,0,0,0,24.59,20.81.89.89,0,0,1-.4,1.68Z"/><path class="cls-3" d="M240.93,201.14a.89.89,0,0,1-.51-1.62,69.07,69.07,0,0,0,22.76-27.19.89.89,0,0,1,1.61.75A70.83,70.83,0,0,1,241.44,201,.86.86,0,0,1,240.93,201.14Z"/><path class="cls-2" d="M240.93,206.73a.89.89,0,0,1-.48-1.64,73.88,73.88,0,0,0,24.61-26.24.89.89,0,0,1,1.55.87,75.66,75.66,0,0,1-25.2,26.87A.86.86,0,0,1,240.93,206.73Z"/><path class="cls-4" d="M169.66,211.57a.84.84,0,0,1-.38-.08,75.81,75.81,0,0,1-25.2-19,.9.9,0,0,1,.09-1.26.89.89,0,0,1,1.25.09A74.08,74.08,0,0,0,170,209.88a.88.88,0,0,1,.43,1.18A.89.89,0,0,1,169.66,211.57Z"/><path class="cls-2" d="M201.72,218.44a.89.89,0,0,1,0-1.78,73.24,73.24,0,0,0,24.61-4.52.88.88,0,0,1,1.14.52.9.9,0,0,1-.53,1.15,75.11,75.11,0,0,1-25.2,4.63Z"/><path class="cls-2" d="M240.93,212.17a.9.9,0,0,1-.77-.43.89.89,0,0,1,.32-1.22,78.82,78.82,0,0,0,24.62-23,.89.89,0,1,1,1.47,1,80.7,80.7,0,0,1-25.19,23.47A.92.92,0,0,1,240.93,212.17Z"/><path class="cls-2" d="M201.61,223.08a.89.89,0,0,1,0-1.78,78.09,78.09,0,0,0,24.73-4.24.89.89,0,1,1,.58,1.68,79.59,79.59,0,0,1-25.29,4.34Z"/><path class="cls-3" d="M169.66,216.66a.94.94,0,0,1-.36-.08,79.59,79.59,0,0,1-25.18-17.23.89.89,0,0,1,0-1.26.88.88,0,0,1,1.25,0A77.84,77.84,0,0,0,170,215a.89.89,0,0,1,.46,1.17A.88.88,0,0,1,169.66,216.66Z"/><path class="cls-2" d="M130.45,179.72a.9.9,0,0,1-.8-.49c-1-2-2-4.1-2.8-6.19a.89.89,0,1,1,1.65-.67c.82,2,1.75,4.09,2.74,6.06a.89.89,0,0,1-.39,1.19A.85.85,0,0,1,130.45,179.72Z"/><path class="cls-2" d="M201,227.72a.88.88,0,0,1-.89-.88.9.9,0,0,1,.89-.9,82.57,82.57,0,0,0,25.24-4,.89.89,0,0,1,.54,1.7A84.16,84.16,0,0,1,201,227.72Z"/><path class="cls-2" d="M130.45,189.08a.89.89,0,0,1-.76-.41A84.41,84.41,0,0,1,121.87,173a.89.89,0,1,1,1.66-.63,82.43,82.43,0,0,0,7.66,15.32.88.88,0,0,1-.27,1.23A.81.81,0,0,1,130.45,189.08Z"/><path class="cls-3" d="M274.9,182.91a.87.87,0,0,1-.41-.11.9.9,0,0,1-.38-1.2,81.66,81.66,0,0,0,4.13-9.21.89.89,0,0,1,1.67.63,86.08,86.08,0,0,1-4.22,9.41A.9.9,0,0,1,274.9,182.91Z"/><path class="cls-2" d="M169.69,221.7a1,1,0,0,1-.33-.06,84.27,84.27,0,0,1-25.21-15.83.89.89,0,0,1,1.2-1.32A82.1,82.1,0,0,0,170,220a.9.9,0,0,1,.49,1.16A.89.89,0,0,1,169.69,221.7Z"/><path class="cls-2" d="M240.93,217.51a.87.87,0,0,1-.78-.46.89.89,0,0,1,.35-1.21,82.36,82.36,0,0,0,24.64-20.59.9.9,0,0,1,1.26-.13.89.89,0,0,1,.13,1.25,84.21,84.21,0,0,1-25.17,21A.86.86,0,0,1,240.93,217.51Z"/><path class="cls-3" d="M240.93,222.76a.87.87,0,0,1-.79-.48.89.89,0,0,1,.38-1.2,87,87,0,0,0,24.66-18.77.89.89,0,1,1,1.31,1.21,89,89,0,0,1-25.16,19.15A.93.93,0,0,1,240.93,222.76Z"/><path class="cls-2" d="M170.18,226.87a.85.85,0,0,1-.31-.06A88.8,88.8,0,0,1,144.18,212a.89.89,0,1,1,1.14-1.38,86.79,86.79,0,0,0,25.17,14.54.9.9,0,0,1,.53,1.15A.92.92,0,0,1,170.18,226.87Z"/><path class="cls-2" d="M274.9,192.1a.87.87,0,0,1-.48-.15.89.89,0,0,1-.26-1.23,87,87,0,0,0,9-18.31.89.89,0,0,1,1.68.59,88.68,88.68,0,0,1-9.2,18.69A.91.91,0,0,1,274.9,192.1Z"/><path class="cls-3" d="M130.45,197.21a.89.89,0,0,1-.72-.36A88.88,88.88,0,0,1,116.92,173a.89.89,0,0,1,.55-1.13.87.87,0,0,1,1.13.54,86.92,86.92,0,0,0,12.56,23.37A.9.9,0,0,1,131,197,.89.89,0,0,1,130.45,197.21Z"/><path class="cls-2" d="M200.89,232.37h-1.14a.89.89,0,0,1,0-1.78h1.11a87.56,87.56,0,0,0,25-3.63.89.89,0,1,1,.51,1.7A89,89,0,0,1,200.89,232.37Z"/><path class="cls-2" d="M278.34,195.31a.89.89,0,0,1-.74-1.38,91.52,91.52,0,0,0,10.47-21.51.89.89,0,0,1,1.69.57,93.09,93.09,0,0,1-10.68,21.92A.88.88,0,0,1,278.34,195.31Z"/><path class="cls-2" d="M171.54,232.26a.9.9,0,0,1-.28,0,93.34,93.34,0,0,1-27-14.31.89.89,0,1,1,1.08-1.41,91.59,91.59,0,0,0,26.53,14,.89.89,0,0,1-.28,1.73Z"/><path class="cls-2" d="M130.45,204.61a.88.88,0,0,1-.68-.32A93.1,93.1,0,0,1,112,173a.89.89,0,1,1,1.69-.57,91.32,91.32,0,0,0,17.42,30.72.9.9,0,0,1-.67,1.47Z"/><path class="cls-3" d="M200.89,237c-1.06,0-2.19,0-3.54-.07a.89.89,0,0,1,.07-1.78c1.33,0,2.43.07,3.47.07A92,92,0,0,0,225,232a.89.89,0,0,1,.47,1.71A93.88,93.88,0,0,1,200.89,237Z"/><path class="cls-4" d="M240.93,227.94a.89.89,0,0,1-.8-.51.88.88,0,0,1,.41-1.18,91.67,91.67,0,0,0,24.67-17.31.9.9,0,0,1,1.26,0,.89.89,0,0,1,0,1.26,93.73,93.73,0,0,1-25.15,17.63A.85.85,0,0,1,240.93,227.94Z"/><path class="cls-3" d="M130.44,211.52a.87.87,0,0,1-.64-.28A98.69,98.69,0,0,1,107.13,173a.89.89,0,0,1,1.69-.53A97,97,0,0,0,131.09,210a.9.9,0,0,1,0,1.26A.86.86,0,0,1,130.44,211.52Z"/><path class="cls-2" d="M174.8,238.11a.67.67,0,0,1-.24,0,97.69,97.69,0,0,1-30.22-14.31.89.89,0,0,1-.21-1.24.88.88,0,0,1,1.24-.21A96.07,96.07,0,0,0,175,236.36a.89.89,0,0,1-.24,1.75Z"/><path class="cls-2" d="M240.93,233.06a.89.89,0,0,1-.81-.53.88.88,0,0,1,.44-1.17,96.42,96.42,0,0,0,24.68-16.09.9.9,0,0,1,1.26.07.89.89,0,0,1-.07,1.26A98.29,98.29,0,0,1,241.29,233,.9.9,0,0,1,240.93,233.06Z"/><path class="cls-2" d="M200.89,241.64c-2.74,0-5.56-.12-8.38-.36a.89.89,0,1,1,.15-1.77c2.77.23,5.54.35,8.23.35a97,97,0,0,0,22.78-2.71.89.89,0,0,1,.42,1.73A98.94,98.94,0,0,1,200.89,241.64Z"/><path class="cls-4" d="M283.85,195.31a.9.9,0,0,1-.47-.13.89.89,0,0,1-.29-1.23A96.21,96.21,0,0,0,293,172.44a.89.89,0,0,1,1.7.53,97.88,97.88,0,0,1-10,21.92A.87.87,0,0,1,283.85,195.31Z"/><path class="cls-2" d="M240.93,238.12a.88.88,0,0,1-.82-.54.9.9,0,0,1,.47-1.17,101,101,0,0,0,24.69-15,.89.89,0,0,1,1.13,1.38,103.06,103.06,0,0,1-25.12,15.3A.87.87,0,0,1,240.93,238.12Z"/><path class="cls-2" d="M289.26,195.31a.89.89,0,0,1-.77-1.34,101.4,101.4,0,0,0,9.31-21.52.89.89,0,1,1,1.7.51,102.48,102.48,0,0,1-9.47,21.9A.9.9,0,0,1,289.26,195.31Z"/><path class="cls-2" d="M200.89,246.28A102.53,102.53,0,0,1,145,229.78a.89.89,0,0,1,1-1.49,100.78,100.78,0,0,0,54.95,16.21,102.33,102.33,0,0,0,20.75-2.13.89.89,0,1,1,.36,1.74A103.66,103.66,0,0,1,200.89,246.28Z"/><path class="cls-2" d="M130.44,218.07a.89.89,0,0,1-.61-.24,103.67,103.67,0,0,1-25.12-37.72.89.89,0,0,1,1.66-.64,101.92,101.92,0,0,0,24.69,37.07.9.9,0,0,1,0,1.26A.91.91,0,0,1,130.44,218.07Z"/><path class="cls-2" d="M130.44,224.36a.89.89,0,0,1-.58-.23,107.23,107.23,0,0,1-25.12-32.47.9.9,0,0,1,.4-1.2.89.89,0,0,1,1.19.4A105.84,105.84,0,0,0,131,222.8a.89.89,0,0,1-.59,1.56Z"/><path class="cls-2" d="M240.93,243.14a.89.89,0,0,1-.34-1.71,105.78,105.78,0,0,0,24.7-14.15.89.89,0,1,1,1.09,1.41,107.54,107.54,0,0,1-25.12,14.39A1,1,0,0,1,240.93,243.14Z"/><path class="cls-4" d="M200.89,250.92A107.55,107.55,0,0,1,146.27,236a.89.89,0,1,1,.91-1.53,105.72,105.72,0,0,0,53.71,14.63,107.35,107.35,0,0,0,17.71-1.48.89.89,0,1,1,.3,1.75A109,109,0,0,1,200.89,250.92Z"/><path class="cls-3" d="M294.58,195.31a1,1,0,0,1-.43-.11.89.89,0,0,1-.35-1.21,105.3,105.3,0,0,0,8.83-21.53.89.89,0,0,1,1.72.49,107.58,107.58,0,0,1-9,21.9A.9.9,0,0,1,294.58,195.31Z"/><path class="cls-3" d="M240.93,248.13a.87.87,0,0,1-.83-.57.89.89,0,0,1,.51-1.15A110,110,0,0,0,265.32,233a.89.89,0,0,1,1,1.45,112.3,112.3,0,0,1-25.11,13.58A.91.91,0,0,1,240.93,248.13Z"/><path class="cls-4" d="M130.44,230.44a.94.94,0,0,1-.56-.2,112.55,112.55,0,0,1-25.1-28.93.89.89,0,1,1,1.52-.92A110.49,110.49,0,0,0,131,228.86a.89.89,0,0,1,.12,1.25A.87.87,0,0,1,130.44,230.44Z"/><path class="cls-3" d="M200.89,255.56a112.58,112.58,0,0,1-52.36-12.94.89.89,0,0,1,.84-1.58,110.47,110.47,0,0,0,64.69,12,.89.89,0,0,1,.21,1.77A113.68,113.68,0,0,1,200.89,255.56Z"/><path class="cls-2" d="M299.83,195.31a.86.86,0,0,1-.41-.1A.9.9,0,0,1,299,194a110,110,0,0,0,8.4-21.54.89.89,0,0,1,1.72.47,112.29,112.29,0,0,1-8.54,21.89A.9.9,0,0,1,299.83,195.31Z"/><path class="cls-2" d="M200.89,260.2a116,116,0,0,1-48.27-10.4.9.9,0,0,1,.74-1.63,114.14,114.14,0,0,0,47.53,10.25c2,0,4-.05,6-.16a.9.9,0,0,1,.94.85.88.88,0,0,1-.84.93C204.94,260.15,202.9,260.2,200.89,260.2Z"/><path class="cls-2" d="M130.44,236.35a.94.94,0,0,1-.54-.18,117.3,117.3,0,0,1-25.09-26.3.89.89,0,0,1,1.46-1A115.33,115.33,0,0,0,131,234.75a.89.89,0,0,1,.16,1.25A.88.88,0,0,1,130.44,236.35Z"/><path class="cls-2" d="M301.09,202.64a.92.92,0,0,1-.45-.12.89.89,0,0,1-.32-1.22,114.54,114.54,0,0,0,11.93-28.82.88.88,0,0,1,1.08-.64.9.9,0,0,1,.64,1.09,116.45,116.45,0,0,1-12.11,29.27A.91.91,0,0,1,301.09,202.64Z"/><path class="cls-2" d="M240.93,253.1a.91.91,0,0,1-.84-.59.89.89,0,0,1,.53-1.14,115,115,0,0,0,24.72-12.68.89.89,0,0,1,1.23.24.88.88,0,0,1-.24,1.23A116.23,116.23,0,0,1,241.24,253,.89.89,0,0,1,240.93,253.1Z"/><path class="cls-2" d="M193,264.57h-.06a120.92,120.92,0,0,1-31.68-6.35.89.89,0,0,1,.58-1.68,119.46,119.46,0,0,0,31.22,6.26.89.89,0,0,1,.83.94A.89.89,0,0,1,193,264.57Z"/><path class="cls-2" d="M301.09,211.38a.85.85,0,0,1-.5-.16.88.88,0,0,1-.24-1.23A118.73,118.73,0,0,0,317,172.49a.89.89,0,1,1,1.73.43A120.83,120.83,0,0,1,301.83,211,.89.89,0,0,1,301.09,211.38Z"/><path class="cls-2" d="M130.44,242.13a.85.85,0,0,1-.52-.17,122.27,122.27,0,0,1-25.09-24.21.89.89,0,0,1,1.41-1.1A120,120,0,0,0,131,240.52a.89.89,0,0,1,.21,1.24A.91.91,0,0,1,130.44,242.13Z"/><path class="cls-2" d="M240.93,258a.89.89,0,0,1-.3-1.73,119.19,119.19,0,0,0,24.73-12.06.89.89,0,0,1,1,1.5A121.5,121.5,0,0,1,241.22,258,.93.93,0,0,1,240.93,258Z"/><path class="cls-2" d="M240.93,262.94a.9.9,0,0,1-.29-1.74,123.3,123.3,0,0,0,24.73-11.51.9.9,0,0,1,1.23.3.89.89,0,0,1-.3,1.22,125.79,125.79,0,0,1-25.09,11.68A.92.92,0,0,1,240.93,262.94Z"/><path class="cls-2" d="M301.09,219.38a.9.9,0,0,1-.54-.18.88.88,0,0,1-.17-1.24A123.23,123.23,0,0,0,321.8,172.5a.9.9,0,0,1,1.08-.66.88.88,0,0,1,.65,1.07A125,125,0,0,1,301.8,219,.88.88,0,0,1,301.09,219.38Z"/><path class="cls-2" d="M130.44,247.8a.87.87,0,0,1-.5-.16,126.51,126.51,0,0,1-44-52.22.88.88,0,0,1,.44-1.18.89.89,0,0,1,1.18.44A124.57,124.57,0,0,0,131,246.17a.89.89,0,0,1-.51,1.63Z"/><path class="cls-3" d="M250.53,264.28a.89.89,0,0,1-.34-1.71,128.4,128.4,0,0,0,15.2-7.5.89.89,0,1,1,.89,1.54,130.38,130.38,0,0,1-15.41,7.6A.83.83,0,0,1,250.53,264.28Z"/><path class="cls-2" d="M130.44,253.37a.87.87,0,0,1-.48-.15,131.25,131.25,0,0,1-53.7-70.15.89.89,0,0,1,.58-1.12.88.88,0,0,1,1.11.58,129.49,129.49,0,0,0,53,69.2.89.89,0,0,1-.49,1.64Z"/><path class="cls-3" d="M301.09,226.88a.94.94,0,0,1-.57-.2.9.9,0,0,1-.12-1.26,129.19,129.19,0,0,0,26.18-52.92.89.89,0,0,1,1.73.4,131.08,131.08,0,0,1-26.54,53.66A.88.88,0,0,1,301.09,226.88Z"/><path class="cls-2" d="M261.64,264.28a.9.9,0,0,1-.8-.49.89.89,0,0,1,.4-1.19c1.34-.68,2.74-1.43,4.17-2.21a.89.89,0,1,1,.86,1.55c-1.45.8-2.87,1.56-4.23,2.24A.85.85,0,0,1,261.64,264.28Z"/><path class="cls-2" d="M130.44,258.85a.84.84,0,0,1-.46-.13,136.27,136.27,0,0,1-61.1-85,.89.89,0,0,1,1.74-.4,134.44,134.44,0,0,0,60.29,83.92.89.89,0,0,1-.47,1.65Z"/><path class="cls-4" d="M301.09,234a.92.92,0,0,1-.6-.23.89.89,0,0,1-.06-1.25,133.66,133.66,0,0,0,30.89-60,.89.89,0,0,1,1.07-.67.88.88,0,0,1,.67,1.06,135.34,135.34,0,0,1-31.31,60.78A.87.87,0,0,1,301.09,234Z"/><path class="cls-3" d="M130.44,264.26a1,1,0,0,1-.45-.12,140.42,140.42,0,0,1-66-91.25.89.89,0,1,1,1.74-.37,138.65,138.65,0,0,0,65.2,90.09.88.88,0,0,1,.31,1.21A.86.86,0,0,1,130.44,264.26Z"/><path class="cls-2" d="M330.38,195.31a1,1,0,0,1-.33-.06.9.9,0,0,1-.5-1.16,137.3,137.3,0,0,0,6.52-21.57.89.89,0,1,1,1.74.37,139.91,139.91,0,0,1-6.6,21.86A.9.9,0,0,1,330.38,195.31Z"/><path class="cls-2" d="M301.09,240.79a.88.88,0,0,1-.62-.25.9.9,0,0,1,0-1.26A138.29,138.29,0,0,0,325.19,204a.9.9,0,0,1,1.19-.41.88.88,0,0,1,.41,1.19,140.1,140.1,0,0,1-25.06,35.78A.9.9,0,0,1,301.09,240.79Z"/><path class="cls-2" d="M301.09,247.36a.89.89,0,0,1-.62-1.53,143.42,143.42,0,0,0,24.75-32,.89.89,0,0,1,1.55.87,145.19,145.19,0,0,1-25.06,32.39A.88.88,0,0,1,301.09,247.36Z"/><path class="cls-2" d="M335.35,195.31a.87.87,0,0,1-.32-.06.9.9,0,0,1-.52-1.15,142.74,142.74,0,0,0,6.31-21.58.89.89,0,0,1,1.74.36,143.29,143.29,0,0,1-6.38,21.85A.9.9,0,0,1,335.35,195.31Z"/><path class="cls-4" d="M121.71,264.28a.88.88,0,0,1-.49-.15,144.82,144.82,0,0,1-62-91.25.89.89,0,1,1,1.74-.36,144,144,0,0,0,61.25,90.13.89.89,0,0,1,.26,1.23A.91.91,0,0,1,121.71,264.28Z"/><path class="cls-2" d="M301.09,253.74a.87.87,0,0,1-.66-.29.89.89,0,0,1,.06-1.25,148.41,148.41,0,0,0,24.75-29.41.9.9,0,0,1,1.23-.27.88.88,0,0,1,.27,1.23,150,150,0,0,1-25.05,29.76A.87.87,0,0,1,301.09,253.74Z"/><path class="cls-5" d="M74.63,222.32a.9.9,0,0,1-.76-.42,147.94,147.94,0,0,1-19.39-49,.89.89,0,1,1,1.74-.35A146.38,146.38,0,0,0,75.38,221a.89.89,0,0,1-.28,1.22A.92.92,0,0,1,74.63,222.32Z"/><path class="cls-2" d="M340.31,195.31a.85.85,0,0,1-.31-.06.89.89,0,0,1-.53-1.14,146.32,146.32,0,0,0,6.08-21.58.89.89,0,1,1,1.75.35,149.53,149.53,0,0,1-6.16,21.84A.89.89,0,0,1,340.31,195.31Z"/><path class="cls-4" d="M301.09,260a.85.85,0,0,1-.67-.31.87.87,0,0,1,.09-1.25,153.47,153.47,0,0,0,24.76-27.34.89.89,0,1,1,1.45,1,154.87,154.87,0,0,1-25.05,27.66A.86.86,0,0,1,301.09,260Z"/><path class="cls-2" d="M74.63,230.8a.89.89,0,0,1-.74-.39,152.37,152.37,0,0,1-24.14-57.54.89.89,0,0,1,1.75-.34,150.61,150.61,0,0,0,23.86,56.88.87.87,0,0,1-.23,1.23A.85.85,0,0,1,74.63,230.8Z"/><path class="cls-3" d="M345.23,195.31a1,1,0,0,1-.3-.05.9.9,0,0,1-.54-1.14,151.36,151.36,0,0,0,5.88-21.59.9.9,0,0,1,1.05-.7.89.89,0,0,1,.7,1,154,154,0,0,1-5.95,21.85A.89.89,0,0,1,345.23,195.31Z"/><path class="cls-2" d="M350.15,195.31a1,1,0,0,1-.29-.05.89.89,0,0,1-.55-1.13c.64-1.88,1.26-3.82,1.89-5.93a.89.89,0,1,1,1.7.51c-.63,2.13-1.26,4.1-1.91,6A.89.89,0,0,1,350.15,195.31Z"/><path class="cls-2" d="M74.63,238.77a.89.89,0,0,1-.71-.36,157.66,157.66,0,0,1-25.05-49.7.9.9,0,0,1,.6-1.11.88.88,0,0,1,1.1.6,156,156,0,0,0,24.77,49.14.9.9,0,0,1-.71,1.43Z"/><path class="cls-3" d="M303.17,264.28a.89.89,0,0,1-.58-1.57,157.85,157.85,0,0,0,22.7-23.88.89.89,0,1,1,1.41,1.09,160,160,0,0,1-23,24.15A.89.89,0,0,1,303.17,264.28Z"/><path class="cls-2" d="M310.19,264.28a.91.91,0,0,1-.66-.29.9.9,0,0,1,.06-1.26,163.05,163.05,0,0,0,15.72-16.47.88.88,0,0,1,1.25-.12.89.89,0,0,1,.12,1.25,164.58,164.58,0,0,1-15.89,16.66A.9.9,0,0,1,310.19,264.28Z"/><path class="cls-2" d="M74.63,246.3a.9.9,0,0,1-.69-.33,163,163,0,0,1-25-42.94.89.89,0,1,1,1.66-.65,161.13,161.13,0,0,0,24.77,42.47.89.89,0,0,1-.13,1.25A.91.91,0,0,1,74.63,246.3Z"/><path class="cls-2" d="M317,264.28a.87.87,0,0,1-.64-.27.9.9,0,0,1,0-1.26c3.09-3,6.11-6.15,9-9.4a.89.89,0,0,1,1.33,1.18c-2.9,3.28-6,6.48-9.08,9.5A.89.89,0,0,1,317,264.28Z"/><path class="cls-2" d="M74.63,253.54a.88.88,0,0,1-.67-.31,167.7,167.7,0,0,1-25-38.47.89.89,0,1,1,1.61-.75A166.15,166.15,0,0,0,75.3,252.06a.9.9,0,0,1-.09,1.26A.91.91,0,0,1,74.63,253.54Z"/><path class="cls-2" d="M323.53,264.28a.88.88,0,0,1-.62-.25.89.89,0,0,1,0-1.26c.82-.84,1.64-1.69,2.45-2.55a.88.88,0,0,1,1.25,0,.89.89,0,0,1,0,1.26c-.81.87-1.64,1.72-2.47,2.57A.89.89,0,0,1,323.53,264.28Z"/><path class="cls-3" d="M74.63,260.48a.9.9,0,0,1-.66-.28,173.45,173.45,0,0,1-25-35.08.89.89,0,1,1,1.56-.85A171.5,171.5,0,0,0,75.28,259a.89.89,0,0,1,0,1.26A.87.87,0,0,1,74.63,260.48Z"/><path class="cls-4" d="M71.83,264.28a.9.9,0,0,1-.66-.28A178.65,178.65,0,0,1,49,234.51a.89.89,0,1,1,1.52-.91,176,176,0,0,0,22,29.18.9.9,0,0,1,0,1.26A.88.88,0,0,1,71.83,264.28Z"/><path class="cls-2" d="M65.56,264.28a.89.89,0,0,1-.67-.3A183.61,183.61,0,0,1,49,243.24a.9.9,0,0,1,.25-1.24.89.89,0,0,1,1.23.26A182.18,182.18,0,0,0,66.22,262.8a.88.88,0,0,1-.66,1.48Z"/><path class="cls-2" d="M59.41,264.28a.88.88,0,0,1-.67-.31C55.28,259.9,52,255.7,49,251.48a.88.88,0,0,1,.2-1.24.91.91,0,0,1,1.25.21c3,4.18,6.22,8.34,9.64,12.36a.89.89,0,0,1-.1,1.26A.9.9,0,0,1,59.41,264.28Z"/><path class="cls-2" d="M53.38,264.28a.87.87,0,0,1-.69-.33c-1.21-1.47-2.44-3-3.68-4.65a.9.9,0,0,1,.17-1.25.89.89,0,0,1,1.25.17c1.22,1.59,2.44,3.15,3.64,4.61a.89.89,0,0,1-.13,1.25A.86.86,0,0,1,53.38,264.28Z"/><path class="cls-2" d="M49.72,163.53v-21.8h2.15v19.9H64.46v1.9Z"/><path class="cls-2" d="M81.29,163.84a5.56,5.56,0,0,1-2.1-.39,5,5,0,0,1-1.69-1.06A4.77,4.77,0,0,1,76,158.86a3.9,3.9,0,0,1,.49-1.93,4.7,4.7,0,0,1,1.38-1.54,6.93,6.93,0,0,1,2.12-1,10,10,0,0,1,2.71-.35,14.1,14.1,0,0,1,2.48.22,10.25,10.25,0,0,1,2.24.61v-1.44a4.64,4.64,0,0,0-1.19-3.37,4.4,4.4,0,0,0-3.32-1.24,7,7,0,0,0-2.52.49,12.41,12.41,0,0,0-2.61,1.41L77,149.34a10.85,10.85,0,0,1,6-2.09,6.47,6.47,0,0,1,4.73,1.69,6.25,6.25,0,0,1,1.72,4.67v7.22c0,.57.26.86.77.86v1.84a5.06,5.06,0,0,1-.8.09,1.78,1.78,0,0,1-1.24-.4,1.47,1.47,0,0,1-.48-1.1l-.06-1.26a7.25,7.25,0,0,1-2.78,2.21A8.57,8.57,0,0,1,81.29,163.84Zm.49-1.6a7.22,7.22,0,0,0,3-.61A4.93,4.93,0,0,0,86.85,160a2,2,0,0,0,.42-.6,1.51,1.51,0,0,0,.13-.6v-2.61a11.9,11.9,0,0,0-2.16-.61,11.62,11.62,0,0,0-2.29-.22,6.39,6.39,0,0,0-3.59.92A2.82,2.82,0,0,0,78,158.71a3.22,3.22,0,0,0,.29,1.38,3.33,3.33,0,0,0,.8,1.12,3.54,3.54,0,0,0,1.21.75A4,4,0,0,0,81.78,162.24Z"/><path class="cls-2" d="M145.79,163.53H143.7v-8.94a7.51,7.51,0,0,0-.89-4.11,3,3,0,0,0-2.64-1.32,4.43,4.43,0,0,0-1.74.34,5.21,5.21,0,0,0-1.5.95,6.48,6.48,0,0,0-1.22,1.46,7.12,7.12,0,0,0-.79,1.85v9.77h-2.09v-8.94a7.7,7.7,0,0,0-.86-4.14,3,3,0,0,0-2.64-1.29,4.71,4.71,0,0,0-3.23,1.26,7,7,0,0,0-2,3.31v9.8H122v-16h1.9v3.62a7.73,7.73,0,0,1,2.58-2.87,6.42,6.42,0,0,1,3.53-1,4.54,4.54,0,0,1,3.24,1.14,4.92,4.92,0,0,1,1.49,3c1.5-2.74,3.55-4.12,6.18-4.12a4.93,4.93,0,0,1,2.28.49,3.91,3.91,0,0,1,1.51,1.4,6.7,6.7,0,0,1,.83,2.18,14.53,14.53,0,0,1,.26,2.84Z"/><path class="cls-2" d="M164.31,163.84a5.62,5.62,0,0,1-2.11-.39,5.05,5.05,0,0,1-1.68-1.06,4.67,4.67,0,0,1-1.13-1.58,4.86,4.86,0,0,1-.4-1.95,3.91,3.91,0,0,1,.5-1.93,4.49,4.49,0,0,1,1.38-1.54,6.82,6.82,0,0,1,2.12-1,10,10,0,0,1,2.7-.35,14.13,14.13,0,0,1,2.49.22,10.41,10.41,0,0,1,2.24.61v-1.44a4.65,4.65,0,0,0-1.2-3.37,4.38,4.38,0,0,0-3.32-1.24,7,7,0,0,0-2.51.49,12.41,12.41,0,0,0-2.61,1.41l-.74-1.38a10.82,10.82,0,0,1,6-2.09,6.5,6.5,0,0,1,4.73,1.69,6.29,6.29,0,0,1,1.72,4.67v7.22c0,.57.25.86.77.86v1.84a5.18,5.18,0,0,1-.8.09,1.79,1.79,0,0,1-1.25-.4,1.5,1.5,0,0,1-.47-1.1l-.06-1.26a7.33,7.33,0,0,1-2.78,2.21A8.6,8.6,0,0,1,164.31,163.84Zm.49-1.6a7.2,7.2,0,0,0,3-.61,5,5,0,0,0,2.08-1.63,2,2,0,0,0,.41-.6,1.53,1.53,0,0,0,.14-.6v-2.61a12.24,12.24,0,0,0-2.17-.61,11.52,11.52,0,0,0-2.28-.22,6.41,6.41,0,0,0-3.6.92,2.82,2.82,0,0,0-1.38,2.43,3.38,3.38,0,0,0,.29,1.38,3.47,3.47,0,0,0,.8,1.12,3.64,3.64,0,0,0,1.21.75A4,4,0,0,0,164.8,162.24Z"/><path class="cls-2" d="M195.08,149.37a6.52,6.52,0,0,0-3.68,1.17,5.88,5.88,0,0,0-2.22,3v9.95H187.1v-16h2v3.84a7.31,7.31,0,0,1,2.4-2.89,5.58,5.58,0,0,1,3.22-1,2.1,2.1,0,0,1,.4,0Z"/><path class="cls-2" d="M206.05,155.48a8.72,8.72,0,0,1,.58-3.19,8.17,8.17,0,0,1,1.64-2.63,7.76,7.76,0,0,1,2.54-1.76,8,8,0,0,1,3.25-.65,7.49,7.49,0,0,1,4,1,6.57,6.57,0,0,1,2.55,2.78l-2,.65a4.85,4.85,0,0,0-1.89-1.92,5.59,5.59,0,0,0-5-.2,5.94,5.94,0,0,0-1.84,1.33,6.33,6.33,0,0,0-1.23,2,7.42,7.42,0,0,0,0,5.09,6.33,6.33,0,0,0,1.26,2.08,6.09,6.09,0,0,0,1.85,1.38A5.16,5.16,0,0,0,214,162a5.87,5.87,0,0,0,2.92-.82,4.86,4.86,0,0,0,1.1-.87,2.81,2.81,0,0,0,.65-1.05l2.06.62a5.37,5.37,0,0,1-1,1.58,6.71,6.71,0,0,1-1.52,1.26,7.45,7.45,0,0,1-1.93.83,8.46,8.46,0,0,1-2.2.29,7.79,7.79,0,0,1-3.22-.66,8,8,0,0,1-2.55-1.81,8.26,8.26,0,0,1-1.67-2.66A8.63,8.63,0,0,1,206.05,155.48Z"/><path class="cls-2" d="M247.54,163.53h-2.09v-8.94a7.15,7.15,0,0,0-.94-4.08,3.13,3.13,0,0,0-2.75-1.35,4.76,4.76,0,0,0-1.76.35,6.76,6.76,0,0,0-3,2.41,6.25,6.25,0,0,0-.85,1.81v9.8h-2.08V141.11h2.08v10a7.28,7.28,0,0,1,2.65-2.85,6.77,6.77,0,0,1,3.65-1.05,4.86,4.86,0,0,1,2.33.51,4.34,4.34,0,0,1,1.57,1.41,6.13,6.13,0,0,1,.89,2.18,12.93,12.93,0,0,1,.28,2.81Z"/><path class="cls-2" d="M269,163.84a7.68,7.68,0,0,1-3.21-.66,8,8,0,0,1-2.54-1.81,8.57,8.57,0,0,1-2.27-5.89,8.39,8.39,0,0,1,.6-3.17,8,8,0,0,1,1.66-2.61,7.77,7.77,0,0,1,5.72-2.45,7.68,7.68,0,0,1,3.21.66,7.59,7.59,0,0,1,2.51,1.8,8.52,8.52,0,0,1,2.21,5.74v.5a1.21,1.21,0,0,1,0,.33h-13.7a6.62,6.62,0,0,0,.6,2.38,6.55,6.55,0,0,0,1.3,1.89,6.14,6.14,0,0,0,1.83,1.25,5.61,5.61,0,0,0,2.2.44,5.76,5.76,0,0,0,1.53-.21,6.43,6.43,0,0,0,1.42-.59,5,5,0,0,0,1.16-.9,3.84,3.84,0,0,0,.8-1.19l1.81.5a5.23,5.23,0,0,1-1,1.61,7.24,7.24,0,0,1-1.57,1.26,7.81,7.81,0,0,1-2,.83A8.76,8.76,0,0,1,269,163.84Zm5.89-9.15a6.36,6.36,0,0,0-.6-2.35,6,6,0,0,0-1.29-1.83,5.72,5.72,0,0,0-1.81-1.2,5.56,5.56,0,0,0-2.19-.43,5.72,5.72,0,0,0-5.3,3.47,6.93,6.93,0,0,0-.57,2.34Z"/><path class="cls-2" d="M314.64,163.84a6.91,6.91,0,0,1-3.07-.69,7.71,7.71,0,0,1-2.42-1.83,8.34,8.34,0,0,1-1.59-2.63,8.83,8.83,0,0,1-.56-3.11,9.26,9.26,0,0,1,.55-3.21,8.47,8.47,0,0,1,1.52-2.66,7.08,7.08,0,0,1,2.3-1.8,6.54,6.54,0,0,1,2.94-.66,6.29,6.29,0,0,1,3.59,1.06,8.13,8.13,0,0,1,2.46,2.57v-9.77h2.08v19.72c0,.57.25.86.74.86v1.84a4.05,4.05,0,0,1-.74.09,2,2,0,0,1-1.29-.47,1.49,1.49,0,0,1-.55-1.15v-1.57a7,7,0,0,1-2.58,2.49A6.79,6.79,0,0,1,314.64,163.84Zm.46-1.84a5.14,5.14,0,0,0,1.65-.31,6.91,6.91,0,0,0,1.64-.85,5.41,5.41,0,0,0,1.31-1.26,3.55,3.55,0,0,0,.66-1.55v-4.94a5.88,5.88,0,0,0-.89-1.55,7.39,7.39,0,0,0-1.34-1.28,6.41,6.41,0,0,0-1.61-.86,5.16,5.16,0,0,0-1.69-.3,4.93,4.93,0,0,0-2.34.55,5.87,5.87,0,0,0-1.79,1.46,6.34,6.34,0,0,0-1.15,2.07,7.28,7.28,0,0,0-.4,2.4,6.51,6.51,0,0,0,.46,2.45,6.41,6.41,0,0,0,1.26,2.05,6,6,0,0,0,1.88,1.39A5.36,5.36,0,0,0,315.1,162Z"/><path class="cls-2" d="M344.16,163.84a7.68,7.68,0,0,1-3.21-.66,8.07,8.07,0,0,1-2.54-1.81,8.57,8.57,0,0,1-2.27-5.89,8.39,8.39,0,0,1,.6-3.17,8,8,0,0,1,1.66-2.61,7.9,7.9,0,0,1,2.53-1.79,8.11,8.11,0,0,1,6.41,0,7.66,7.66,0,0,1,2.5,1.8,8.4,8.4,0,0,1,2.21,5.74v.5a1.21,1.21,0,0,1,0,.33h-13.7a6.62,6.62,0,0,0,.6,2.38,6.38,6.38,0,0,0,1.31,1.89,6,6,0,0,0,1.82,1.25,5.61,5.61,0,0,0,2.2.44,5.89,5.89,0,0,0,1.54-.21,6.35,6.35,0,0,0,1.41-.59,5.07,5.07,0,0,0,1.17-.9,4,4,0,0,0,.79-1.19l1.82.5a5.45,5.45,0,0,1-1.05,1.61,7.43,7.43,0,0,1-1.56,1.26,7.88,7.88,0,0,1-2,.83A8.71,8.71,0,0,1,344.16,163.84Zm5.9-9.15a6.78,6.78,0,0,0-.6-2.35,6.42,6.42,0,0,0-1.29-1.83,5.88,5.88,0,0,0-1.82-1.2,5.52,5.52,0,0,0-2.19-.43,5.75,5.75,0,0,0-4,1.63,6,6,0,0,0-1.26,1.84,6.93,6.93,0,0,0-.57,2.34Z"/></g></g></svg>