<svg xmlns="http://www.w3.org/2000/svg" xmlns:xlink="http://www.w3.org/1999/xlink" viewBox="0 0 393.99 400"><defs><style>.cls-1{fill:url(#Dégradé_sans_nom_3);}.cls-2{fill:#fff;}.cls-3{fill:url(#Dégradé_sans_nom_3-2);}.cls-4{fill:#a20e3f;}.cls-5{fill:#e63e44;}.cls-6{fill:#f7804f;}</style><linearGradient id="Dégradé_sans_nom_3" x1="50.6" y1="188.88" x2="151.83" y2="13.55" gradientUnits="userSpaceOnUse"><stop offset="0" stop-color="#a20e3f"/><stop offset="0.08" stop-color="#ae1640"/><stop offset="0.37" stop-color="#d63343"/><stop offset="0.53" stop-color="#e63e44"/><stop offset="1" stop-color="#f7804f"/></linearGradient><linearGradient id="Dégradé_sans_nom_3-2" x1="255.2" y1="173.13" x2="354.42" y2="34.41" xlink:href="#Dégradé_sans_nom_3"/></defs><title>monLogo03</title><g id="Calque_2" data-name="Calque 2"><g id="Calque_11" data-name="Calque 11"><circle class="cls-1" cx="101.21" cy="101.21" r="101.21"/><path class="cls-2" d="M162.56,75.38h0l0,0A64.25,64.25,0,0,0,40,75.33a.14.14,0,0,0,0,.06h0a64,64,0,0,0-3,19.28v3.6h7.2v-3.6a57,57,0,0,1,2.53-16.82C48.44,74.11,66.41,67,101.27,67c35.25,0,52.77,7,54.52,10.9a57,57,0,0,1,2.53,16.82v3.6h7.2v-3.6A64.05,64.05,0,0,0,162.56,75.38ZM101.27,59.75c-18.31,0-37.55,2.14-49.59,6.75a57,57,0,0,1,99.11-.14C138.32,61.61,118.46,59.75,101.27,59.75Z"/><path class="cls-2" d="M165.4,104.16H36.91v7.19H158.2a57.06,57.06,0,0,1-88.52,43.92l-3-2-4,6,3,2a64.25,64.25,0,0,0,99.83-53.5v-3.59Z"/><circle class="cls-3" cx="304.53" cy="104.16" r="85.27"/><path class="cls-2" d="M304.6,29.45a67.07,67.07,0,0,0-58.26,33.93c14.15-5.42,36.75-7.93,58.26-7.93,20.2,0,43.52,2.19,58.17,7.76A67.07,67.07,0,0,0,304.6,29.45Z"/><path class="cls-2" d="M304.6,14.77A89.39,89.39,0,1,0,394,104.16,89.39,89.39,0,0,0,304.6,14.77Zm75.47,97.07A75.49,75.49,0,0,1,262.8,174.69l-3.52-2.34,4.69-7,3.52,2.34a67,67,0,0,0,104-51.58H229v-8.46H380.07Zm-8.45-11.14V96.47a66.77,66.77,0,0,0-3-19.75c-2.06-4.54-22.64-12.81-64-12.81-41,0-62.06,8.4-64,12.8a66.57,66.57,0,0,0-3,19.76v4.23h-8.45V96.47a75.39,75.39,0,0,1,3.47-22.65h0l0-.07a75.48,75.48,0,0,1,144,0,.14.14,0,0,0,0,.06h0a75.46,75.46,0,0,1,3.47,22.66v4.23Z"/><path class="cls-4" d="M100,351.12h0v0a32.5,32.5,0,0,0-62,0v0h0a32.43,32.43,0,0,0-1.5,9.75v1.82h3.64v-1.82a28.83,28.83,0,0,1,1.28-8.51c.86-1.89,10-5.51,27.58-5.51,17.83,0,26.69,3.56,27.58,5.51a28.88,28.88,0,0,1,1.28,8.51v1.82h3.64v-1.82A32.19,32.19,0,0,0,100,351.12Zm-31-7.9c-9.26,0-19,1.08-25.08,3.41A28.84,28.84,0,0,1,94,346.56C87.72,344.16,77.68,343.22,69,343.22Z"/><path class="cls-4" d="M101.42,365.68h-65v3.64H97.78A28.86,28.86,0,0,1,53,391.53l-1.51-1-2,3,1.51,1a32.5,32.5,0,0,0,50.5-27.06v-1.82Z"/><path class="cls-5" d="M183.64,350.34h0v0a32.5,32.5,0,0,0-62,0l0,0h0a32.07,32.07,0,0,0-1.5,9.75v1.82h3.64V360.1a28.83,28.83,0,0,1,1.28-8.51c.86-1.89,9.95-5.51,27.58-5.51,17.83,0,26.69,3.56,27.58,5.51a28.83,28.83,0,0,1,1.28,8.51v1.82h3.64V360.1A32.45,32.45,0,0,0,183.64,350.34Zm-31-7.9c-9.26,0-19,1.08-25.09,3.41a28.85,28.85,0,0,1,50.14-.07C171.38,343.38,161.34,342.44,152.64,342.44Z"/><path class="cls-5" d="M185.08,364.9h-65v3.64h61.36a28.86,28.86,0,0,1-44.78,22.21l-1.52-1-2,3,1.51,1a32.5,32.5,0,0,0,50.5-27.06V364.9Z"/><path class="cls-6" d="M269.18,350.34h0v0a32.5,32.5,0,0,0-62,0l0,0h0a32.38,32.38,0,0,0-1.5,9.75v1.82h3.64V360.1a28.83,28.83,0,0,1,1.28-8.51c.86-1.89,10-5.51,27.58-5.51,17.83,0,26.69,3.56,27.58,5.51A28.83,28.83,0,0,1,267,360.1v1.82h3.64V360.1A32.45,32.45,0,0,0,269.18,350.34Zm-31-7.9c-9.26,0-19,1.08-25.09,3.41a28.85,28.85,0,0,1,50.14-.07C256.92,343.38,246.88,342.44,238.18,342.44Z"/><path class="cls-6" d="M270.62,364.9h-65v3.64H267a28.86,28.86,0,0,1-44.78,22.21l-1.52-1-2,3,1.51,1a32.5,32.5,0,0,0,50.5-27.06V364.9Z"/><path d="M356.09,349.64h0v0a32.5,32.5,0,0,0-62,0v0h0a32.43,32.43,0,0,0-1.49,9.75v1.82h3.64v-1.82a28.88,28.88,0,0,1,1.28-8.51c.85-1.89,9.94-5.51,27.58-5.51,17.83,0,26.69,3.56,27.58,5.52a28.76,28.76,0,0,1,1.28,8.5v1.82h3.64v-1.82A32.38,32.38,0,0,0,356.09,349.64Zm-31-7.91c-9.27,0-19,1.08-25.09,3.41a28.84,28.84,0,0,1,50.13-.07C343.83,342.67,333.78,341.73,325.09,341.73Z"/><path d="M357.53,364.19h-65v3.64h61.36a28.87,28.87,0,0,1-44.78,22.22l-1.52-1-2,3,1.52,1A32.5,32.5,0,0,0,357.59,366v-1.82Z"/><circle class="cls-4" cx="68.95" cy="267.2" r="38.23"/><path class="cls-2" d="M92.13,257.44h0v0a24.27,24.27,0,0,0-46.29,0v0h0a24.37,24.37,0,0,0-1.12,7.29v1.36h2.72v-1.36a21.57,21.57,0,0,1,1-6.36c.64-1.41,7.43-4.12,20.6-4.12s19.93,2.66,20.59,4.12a21.57,21.57,0,0,1,1,6.36v1.36h2.72v-1.36A24.37,24.37,0,0,0,92.13,257.44ZM69,251.54c-6.92,0-14.19.8-18.74,2.54A21.54,21.54,0,0,1,87.68,254C83,252.24,75.47,251.54,69,251.54Z"/><path class="cls-2" d="M93.2,268.31H44.66V271H90.48A21.56,21.56,0,0,1,57,287.62l-1.13-.76-1.51,2.27,1.13.75a24.28,24.28,0,0,0,37.72-20.21v-1.36Z"/><circle class="cls-5" cx="152.59" cy="267.2" r="38.23"/><path class="cls-2" d="M175.76,257.44h0v0a24.28,24.28,0,0,0-46.3,0v0h0a24.06,24.06,0,0,0-1.12,7.29v1.36h2.72v-1.36a21.56,21.56,0,0,1,.95-6.36c.64-1.41,7.43-4.12,20.6-4.12s19.93,2.66,20.6,4.12a21.56,21.56,0,0,1,.95,6.36v1.36h2.72v-1.36A24.06,24.06,0,0,0,175.76,257.44Zm-23.15-5.9c-6.92,0-14.18.8-18.73,2.54a21.54,21.54,0,0,1,37.44-.05C166.61,252.24,159.11,251.54,152.61,251.54Z"/><path class="cls-2" d="M176.84,268.31H128.3V271h45.82a21.56,21.56,0,0,1-33.44,16.59l-1.14-.76-1.5,2.27,1.13.75a24.27,24.27,0,0,0,37.71-20.21v-1.36Z"/><circle class="cls-6" cx="237.78" cy="266.09" r="38.23"/><path class="cls-2" d="M261,256.33h0v0a24.28,24.28,0,0,0-46.3,0v0h0a24,24,0,0,0-1.12,7.28V265h2.72v-1.36a21.5,21.5,0,0,1,.95-6.35c.64-1.41,7.43-4.12,20.6-4.12s19.93,2.66,20.6,4.12a21.5,21.5,0,0,1,1,6.35V265h2.72v-1.36A24,24,0,0,0,261,256.33Zm-23.15-5.91c-6.92,0-14.18.81-18.74,2.55a21.55,21.55,0,0,1,37.45-.05C251.79,251.13,244.3,250.42,237.8,250.42Z"/><path class="cls-2" d="M262,267.2H213.49v2.72h45.82a21.56,21.56,0,0,1-33.44,16.59l-1.14-.76-1.5,2.26,1.13.76a24.27,24.27,0,0,0,37.71-20.21V267.2Z"/><circle cx="325.04" cy="266.09" r="38.23"/><path class="cls-2" d="M348.21,256.33h0v0a24.27,24.27,0,0,0-46.29,0v0h0a24.35,24.35,0,0,0-1.11,7.28V265h2.72v-1.36a21.5,21.5,0,0,1,.95-6.35c.64-1.41,7.43-4.12,20.6-4.12s19.93,2.66,20.59,4.12a21.5,21.5,0,0,1,1,6.35V265h2.72v-1.36A24,24,0,0,0,348.21,256.33Zm-23.15-5.91c-6.92,0-14.19.81-18.74,2.55a21.54,21.54,0,0,1,37.44-.05C339.05,251.13,331.55,250.42,325.06,250.42Z"/><path class="cls-2" d="M349.28,267.2H300.74v2.72h45.82a21.56,21.56,0,0,1-33.44,16.59l-1.13-.76L310.48,288l1.14.76a24.27,24.27,0,0,0,37.71-20.21V267.2Z"/></g></g></svg>