<svg xmlns="http://www.w3.org/2000/svg" viewBox="0 0 368.36 400"><defs><style>.cls-1{fill:#e0228e;}.cls-2{fill:#fff;}</style></defs><title>monLogo02_1</title><g id="Calque_2" data-name="Calque 2"><g id="Calque_3" data-name="Calque 3"><rect class="cls-1" x="93.41" width="176.36" height="176.36"/><path class="cls-2" d="M116.92,23.51v94.06h23.52V94.06h47v23.51h11.76L211,105.82V23.51Zm70.55,47h-47V47h47Z"/><rect class="cls-2" x="222.74" y="23.51" width="23.51" height="23.51"/><polygon class="cls-2" points="222.74 58.79 222.74 111.65 205.15 129.33 116.92 129.33 116.92 152.84 216.87 152.84 246.25 123.45 246.25 58.79 222.74 58.79"/><rect x="142.71" y="322.25" width="77.75" height="77.75"/><path class="cls-2" d="M153.08,332.61v41.47h10.37V363.72h20.73v10.36h5.18l5.19-5.18V332.61Zm31.1,20.74H163.45V343h20.73Z"/><rect class="cls-2" x="199.73" y="332.61" width="10.37" height="10.37"/><polygon class="cls-2" points="199.73 348.17 199.73 371.47 191.97 379.27 153.08 379.27 153.08 389.63 197.15 389.63 210.1 376.67 210.1 348.17 199.73 348.17"/><path class="cls-1" d="M135.46,235.18v41.47h10.37V266.28h20.74v10.37h5.18l5.18-5.19V235.18Zm31.11,20.73H145.83V245.54h20.74Z"/><rect class="cls-1" x="182.12" y="235.18" width="10.37" height="10.37"/><polygon class="cls-1" points="182.12 250.73 182.12 274.04 174.36 281.83 135.47 281.83 135.47 292.2 179.53 292.2 192.48 279.24 192.48 250.73 182.12 250.73"/><path class="cls-1" d="M114.73,214.44v98.49h98.49V214.44Zm88.12,88.12H125.1V224.81h77.75Z"/><path d="M20.73,235.18v41.47H31.1V266.28H51.84v10.37H57l5.18-5.19V235.18Zm31.11,20.73H31.1V245.54H51.84Z"/><rect x="67.39" y="235.18" width="10.37" height="10.37"/><polygon points="67.39 250.73 67.39 274.04 59.63 281.83 20.73 281.83 20.73 292.2 64.8 292.2 77.75 279.24 77.75 250.73 67.39 250.73"/><path d="M0,214.44v98.49H98.49V214.44Zm88.12,88.12H10.37V224.81H88.12Z"/><path class="cls-1" d="M311.34,243v41.47h10.37V274.05h20.73v10.37h5.19l5.18-5.18V243Zm31.1,20.74H321.71V253.32h20.73Z"/><rect class="cls-1" x="358" y="242.95" width="10.37" height="10.37"/><polygon class="cls-1" points="358 258.5 358 281.81 350.24 289.61 311.34 289.61 311.34 299.97 355.41 299.97 368.36 287.01 368.36 258.5 358 258.5"/><path d="M240,243v41.47h10.37V274.05h20.73v10.37h5.18l5.19-5.18V243Zm31.1,20.74H250.39V253.32h20.73Z"/><rect x="286.67" y="242.95" width="10.37" height="10.37"/><polygon points="286.67 258.5 286.67 281.81 278.92 289.61 240.02 289.61 240.02 299.97 284.08 299.97 297.04 287.01 297.04 258.5 286.67 258.5"/></g></g></svg>