<svg xmlns="http://www.w3.org/2000/svg" viewBox="0 0 1080 1080"><defs><style>.cls-1{fill:#fff;}.cls-2{fill:#424c51;}.cls-3{fill:#355459;}</style></defs><title>morning</title><g id="Calque_2" data-name="Calque 2"><g id="Calque_2-2" data-name="Calque 2"><rect class="cls-1" width="1080" height="1080"/></g><g id="Calque_1-2" data-name="Calque 1"><path class="cls-2" d="M178.62,469.9a44.6,44.6,0,0,1-.66,5.32,7.23,7.23,0,0,1-2.88,4.58,7.77,7.77,0,0,1-4,1.78,11.82,11.82,0,0,1-4.36-.23,15.06,15.06,0,0,1-4.07-1.62,9.83,9.83,0,0,1-3.1-2.74,140.63,140.63,0,0,1-9.24-12.78q-4.22-6.57-8.5-13.23l-12.41-18.77q-2.52-4-5.32-8.94T118.32,414l-.44,56.46v1.33a13.9,13.9,0,0,1-.81,4.66,9,9,0,0,1-2.74,3.91,8.61,8.61,0,0,1-3.84,1.63,9.66,9.66,0,0,1-6.13-.44,9.55,9.55,0,0,1-3.85-3.26,12.52,12.52,0,0,1-1.92-4.8,17.82,17.82,0,0,1-.22-5.39v-2.52l.3-11.52.14-21.44c.1-3.15.15-6.37.15-9.68V412.85q-.15-6.35.07-13.45t.52-13.3a14.18,14.18,0,0,1,1.63-5.77,6.2,6.2,0,0,1,3.1-3.54,9.91,9.91,0,0,1,4.21-1.33,13.5,13.5,0,0,1,4.51.14c.49.2,1,.43,1.48.67s1,.52,1.48.81,1,.79,1.4,1.19a10.7,10.7,0,0,1,1.26,1.33,13.8,13.8,0,0,1,1.33,1.55c.39.54.79,1.06,1.18,1.55s.59,1.13.89,1.62a12.36,12.36,0,0,0,1,1.48l1.63,2.37L158.82,442v-9.76q0-4.72-.08-9.68t-.22-10.27q0-6.21.08-13.3t.37-13.3a14.3,14.3,0,0,1,1.47-5.77,6.46,6.46,0,0,1,2.52-3.1,11,11,0,0,1,4-1.63,11.39,11.39,0,0,1,4.43,0,8.62,8.62,0,0,1,3.84,1.78,8.47,8.47,0,0,1,.89,1,5.91,5.91,0,0,1,.74,1.33,13.63,13.63,0,0,1,.89,3.4,18.2,18.2,0,0,1,.44,3.69q0,18.48.07,37.69t.23,37.69c0,1.38,0,2.74.14,4.07A27.51,27.51,0,0,1,178.62,469.9Z"/><path class="cls-2" d="M241.73,460.89a22.06,22.06,0,0,1,3.62-.6,7.73,7.73,0,0,1,3.4.45,5.66,5.66,0,0,1,2.59,2,6.5,6.5,0,0,1,1,3.92,7,7,0,0,1-.88,3.4,12.69,12.69,0,0,1-2.22,2.95,14.64,14.64,0,0,1-3,2.29,22,22,0,0,1-3.1,1.56,43.59,43.59,0,0,1-9.83,2.95,48.69,48.69,0,0,1-11.45.74,45.73,45.73,0,0,1-15.3-3.18,23,23,0,0,1-11.45-9.53,34.11,34.11,0,0,1-4.58-14.48,50.67,50.67,0,0,1,.73-15.08,34.47,34.47,0,0,1,5.55-14,31.44,31.44,0,0,1,9.38-8.64,30.47,30.47,0,0,1,14.93-4A36.31,36.31,0,0,1,237,414.92a31.55,31.55,0,0,1,9,6,24.58,24.58,0,0,1,6.06,9.08,15.71,15.71,0,0,1,1,3.26,33.29,33.29,0,0,1,.52,4.06,32.85,32.85,0,0,1,0,4.21,13.86,13.86,0,0,1-.74,3.7,11.65,11.65,0,0,1-2.22,4.14,8.21,8.21,0,0,1-3.4,2.21,18.57,18.57,0,0,1-4.95,1c-1.92.15-4.21.28-6.87.37-2.37.1-4.58.15-6.65.15s-4.19,0-6.36-.07l-6.72-.15q-3.48-.07-7.76-.22a7.55,7.55,0,0,0,.81,5.1,10.39,10.39,0,0,0,3.47,3.54,17.69,17.69,0,0,0,5,2.15,26.94,26.94,0,0,0,5.47.88,32.34,32.34,0,0,0,9.6-.81Q236.86,462.36,241.73,460.89Zm-6.35-28.68a18.53,18.53,0,0,0-5.91-4.73,11.41,11.41,0,0,0-5-1,18.44,18.44,0,0,0-4.95.81,13.67,13.67,0,0,0-7.24,4.44,10.87,10.87,0,0,0-1,1.4c-.5.74-1,1.51-1.41,2.29a10.8,10.8,0,0,0-1,2.22c-.2.69-.1,1,.3,1h29a11.25,11.25,0,0,0-.74-3.47A11.52,11.52,0,0,0,235.38,432.21Z"/><path class="cls-2" d="M351.69,414.62c.89,1.29,1.21,3.28,1,6a55.25,55.25,0,0,1-1.55,8.72c-.79,3.1-1.72,6.16-2.81,9.16s-2,5.5-2.66,7.47q-2.5,6.8-4.43,12.71t-4.58,13c-.59,1.39-1.16,2.76-1.7,4.14a18.66,18.66,0,0,1-1.92,3.7,9.9,9.9,0,0,1-2.66,2.66,6.65,6.65,0,0,1-3.77,1,6.08,6.08,0,0,1-4.36-1.77A14.69,14.69,0,0,1,319.1,477a40.71,40.71,0,0,1-2.14-5.61c-.59-2-1.08-3.7-1.48-5.17q-1.92-6.51-3.4-11.9t-2.66-9.68q-1.32,4.29-2.66,9.31t-3.4,11.38q-.58,2.22-1.47,5.39a42.27,42.27,0,0,1-2.15,6,17.64,17.64,0,0,1-3.1,4.8,4.9,4.9,0,0,1-4.36,1.7,8.68,8.68,0,0,1-6.13-2.88,25.31,25.31,0,0,1-4.44-6.58,63.16,63.16,0,0,1-3.18-8c-.88-2.75-1.62-5.17-2.21-7.24q-1.19-4-2.81-8.87c-1.09-3.25-2.14-6.58-3.18-10s-2-6.8-2.88-10.2a62.1,62.1,0,0,1-1.77-9.39,8.21,8.21,0,0,1,1.1-5.17,7.8,7.8,0,0,1,3.7-3.33,8.24,8.24,0,0,1,5-.37,8.56,8.56,0,0,1,4.95,3.55,16.25,16.25,0,0,1,2.15,3.7,40.13,40.13,0,0,1,1.7,4.8l1.48,5.25c.49,1.77,1,3.5,1.47,5.17q1.63,5.63,2.74,8.79l2.29,6.58c.69-2.26,1.4-4.46,2.14-6.58s1.65-5,2.74-8.79c.39-1.18.86-2.54,1.4-4.06s1.13-3,1.77-4.36a27.33,27.33,0,0,1,2.22-3.92,9.14,9.14,0,0,1,2.74-2.74q3.24-2.21,5.91-1.1a10.7,10.7,0,0,1,4.58,3.76,28.83,28.83,0,0,1,3.32,6.14c.94,2.32,1.7,4.41,2.3,6.28s1.13,3.67,1.62,5.1.94,2.73,1.33,3.92.76,2.31,1.11,3.39.71,2.22,1.11,3.4c.39-1.18.76-2.31,1.11-3.4s.71-2.21,1.1-3.39.84-2.49,1.34-3.92,1-3.13,1.62-5.1c.39-1.28.81-2.76,1.26-4.43s.91-3.38,1.4-5.1,1-3.38,1.55-5a18.6,18.6,0,0,1,1.85-4,9.26,9.26,0,0,1,6.5-4.07,8.41,8.41,0,0,1,3.92.52A7.26,7.26,0,0,1,351.69,414.62Z"/><path class="cls-3" d="M233.56,655.48q-.23,2.67-.67,5.56a20.48,20.48,0,0,1-1.55,5.33,9.45,9.45,0,0,1-2.89,4,9.3,9.3,0,0,1-5.78,2.45,12.13,12.13,0,0,1-6,.66,20.07,20.07,0,0,1-5.34-1.55,12.68,12.68,0,0,1-4.55-4.78,22.74,22.74,0,0,1-2.11-5.89,30.28,30.28,0,0,1-.67-6.45V631.25l-.22-34V588c0-1.11,0-2.36-.11-3.77s-.12-3.45-.12-6.12c0-.44,0-1.22.12-2.33s0-4.11-.34-9Q194.66,581.24,189,590a157.91,157.91,0,0,1-9.56,13.56,27.65,27.65,0,0,1-6.78,6.45,14,14,0,0,1-6,1.89,6.15,6.15,0,0,1-3.56-.67,19,19,0,0,1-3.44-2.22,38.14,38.14,0,0,1-3.11-2.78,17.9,17.9,0,0,1-2.34-2.78q-5.33-6.66-12-16a205.21,205.21,0,0,1-13.78-22.67q0,.23-.11,7.33t-.11,17.67q0,10.56-.11,22.67T127.87,635q-.11,10.46-.33,17.45t-.44,7a14.29,14.29,0,0,1-1.78,7,14.84,14.84,0,0,1-4.78,5.23,13.81,13.81,0,0,1-7,2.22,16.75,16.75,0,0,1-8.67-2.22,10.87,10.87,0,0,1-4.33-5.12,24.91,24.91,0,0,1-1.89-6.22q-.23-3.11-.34-6t-.11-6L98.42,631l.23-34.23V567q0-19.34,1.33-38a17.4,17.4,0,0,1,.56-4.55,26.48,26.48,0,0,1,1.44-4.12,12.77,12.77,0,0,1,4.67-5.33,13.61,13.61,0,0,1,7.11-2c1,0,2,0,3,.11s1.89.19,2.78.33a12.64,12.64,0,0,1,7.67,5.23,86,86,0,0,0,6.11,7.44A55.6,55.6,0,0,1,137.1,531c1.33,1.93,2.67,3.93,4,6s2.59,4.08,3.78,6,2.22,3.64,3.11,5.12q5.77,9.33,10.33,17.11t8.56,13.34a17.43,17.43,0,0,0,1.56-1.89q.88-1.22,1.89-2.67c.66-1,1.25-1.89,1.77-2.78s.93-1.63,1.23-2.22q2.22-3.56,4.44-7t4.78-7.34q2.55-3.88,5.34-8.55t6.55-10.67q1.56-2.67,4-6.45a62.89,62.89,0,0,1,5.56-7.33,41.5,41.5,0,0,1,6.56-6.11,11.59,11.59,0,0,1,7-2.56c1.18,0,2.22,0,3.11.11s1.78.19,2.67.33a8.68,8.68,0,0,1,5.11,2.45,12.83,12.83,0,0,1,2.67,3.78,27.66,27.66,0,0,1,1.11,4.89c.14,1,.25,2,.33,2.89s.11,1.77.11,2.66q0,12.46.22,24.68t.23,24.67q0,15.1.11,31.11t.11,31.12q0,3.12.22,6.67A56.23,56.23,0,0,1,233.56,655.48Z"/><path class="cls-3" d="M299.37,545.32a59.57,59.57,0,0,1,24.12-10.68c1.38-.28,2.76-.51,4.14-.71l-2.19-3.42a19.88,19.88,0,0,0-27.37-6l-12.21,7.82a19.88,19.88,0,0,0-6,27.38l2.73,4.26A68.53,68.53,0,0,1,299.37,545.32Z"/><path class="cls-3" d="M417.1,566.3l-6.88-12.76a19.87,19.87,0,0,0-26.85-8l-3,1.62.59.45a61.33,61.33,0,0,1,14,16l0,.05,0,0a64.28,64.28,0,0,1,7,18.06,86.64,86.64,0,0,1,2.13,14.11l4.92-2.66A19.87,19.87,0,0,0,417.1,566.3Z"/><path class="cls-3" d="M282.16,642.68l-6.57,6.68a10.27,10.27,0,0,0,14.64,14.4l6.55-6.66a58.62,58.62,0,0,1-8.09-6.75A67,67,0,0,1,282.16,642.68Z"/><path class="cls-3" d="M347,670.16l2.48,8.94a10.27,10.27,0,0,0,19.79-5.48l-2.48-9a57.15,57.15,0,0,1-14,4.7C350.92,669.72,349,670,347,670.16Z"/><path class="cls-3" d="M363.42,537.5c1.5.57,3,1.21,4.43,1.89a6.19,6.19,0,0,0,2.14-3.28,6.28,6.28,0,0,0-4.49-7.63l-16.64-4.31a6.24,6.24,0,0,0-7.06,9c.63,0,1.25,0,1.87.06A66.73,66.73,0,0,1,363.42,537.5Z"/><path class="cls-3" d="M398.07,600.44A76.45,76.45,0,0,0,396,583.11a58,58,0,0,0-6.35-16.31,54.92,54.92,0,0,0-12.54-14.35,59.21,59.21,0,0,0-15.87-9.13,60,60,0,0,0-17.91-3.84,72,72,0,0,0-15,.66l-.41.06c-1,.16-2.08.34-3.11.55a53.16,53.16,0,0,0-21.65,9.59q-1.2.88-2.37,1.86l-1.1,1c-.39.35-.79.69-1.17,1.05s-1,.95-1.45,1.44c-.25.25-.5.49-.74.75-.56.58-1.11,1.2-1.65,1.82l-.47.52c-.6.7-1.19,1.43-1.77,2.17l-.27.33c-.62.81-1.24,1.64-1.85,2.49l-.12.18c-.64.9-1.27,1.83-1.89,2.78l0,0c-1,1.52-1.95,3.09-2.89,4.75a66.92,66.92,0,0,0-8.64,26.71,61.67,61.67,0,0,0,2.8,26,54.57,54.57,0,0,0,7.88,15c.33.45.66.89,1,1.33l.81,1c.39.48.79,1,1.2,1.42l.71.81c.66.73,1.34,1.46,2.05,2.18s1.45,1.4,2.21,2.07c.27.25.55.48.82.72l1.49,1.22c.35.28.69.55,1.05.82s1,.71,1.46,1.05a61.67,61.67,0,0,0,17.19,8.31,70.41,70.41,0,0,0,17,3.75,63.18,63.18,0,0,0,14.11-.17l.18,0c1-.14,2.05-.29,3.06-.48a50.93,50.93,0,0,0,12.6-4.26,45.12,45.12,0,0,0,11.08-7.58,85.8,85.8,0,0,0,16.83-23.13A55.36,55.36,0,0,0,398.07,600.44ZM375,619.74a59.14,59.14,0,0,1-11.51,15.83,31.3,31.3,0,0,1-7.58,5.18,35,35,0,0,1-8.62,2.92,42.53,42.53,0,0,1-11.87.45,48.38,48.38,0,0,1-11.64-2.56,39.43,39.43,0,0,1-16.56-9.71,38.48,38.48,0,0,1-9.34-14.9A42.09,42.09,0,0,1,296,599.19a45.52,45.52,0,0,1,5.91-18.27q5.34-9.46,12.15-14.48a36.41,36.41,0,0,1,14.81-6.56,49.21,49.21,0,0,1,12.7-.87,40.57,40.57,0,0,1,23.11,8.87,37.91,37.91,0,0,1,8.58,9.82,39.64,39.64,0,0,1,4.34,11.16A52.35,52.35,0,0,1,379,600.71,37.9,37.9,0,0,1,375,619.74Z"/><path class="cls-2" d="M460.16,509.89a4.67,4.67,0,0,1-4.58-5.65,36.68,36.68,0,0,0-.84-18.71l-.06-.2a52.67,52.67,0,0,0-4.36-11.06,38.38,38.38,0,0,0-6.76-9.39,35.85,35.85,0,0,0-10.27-7,39.54,39.54,0,0,0-11.71-3.23,40.12,40.12,0,0,0-12.15.52,48.68,48.68,0,0,0-11.95,4,4.67,4.67,0,1,1-4.07-8.41A57.76,57.76,0,0,1,407.65,446a49.71,49.71,0,0,1,15-.63,48.74,48.74,0,0,1,14.48,4,45.38,45.38,0,0,1,13,8.87,47.84,47.84,0,0,1,8.49,11.73,61.43,61.43,0,0,1,5.1,12.94,45.8,45.8,0,0,1,1,23.32A4.67,4.67,0,0,1,460.16,509.89Z"/><path class="cls-2" d="M491.27,509.89a4.75,4.75,0,0,1-1-.1,4.68,4.68,0,0,1-3.59-5.55A61.28,61.28,0,0,0,485.28,473l-.06-.21A87,87,0,0,0,478,454.5a64.31,64.31,0,0,0-11.29-15.69,60.84,60.84,0,0,0-17.24-11.76A65.8,65.8,0,0,0,430,421.67a67.13,67.13,0,0,0-20.26.85A80.86,80.86,0,0,0,390,429.11a4.67,4.67,0,1,1-4.08-8.41,90.15,90.15,0,0,1,22.06-7.36,76.39,76.39,0,0,1,23.09-1,74.85,74.85,0,0,1,22.29,6.14,70,70,0,0,1,20,13.63,73.57,73.57,0,0,1,13,18,95.91,95.91,0,0,1,7.93,20.14,70.44,70.44,0,0,1,1.59,35.9A4.67,4.67,0,0,1,491.27,509.89Z"/><path class="cls-2" d="M523.88,505a4.67,4.67,0,0,1-4.58-5.65,84.79,84.79,0,0,0-1.95-43.31l-.06-.21a118.73,118.73,0,0,0-9.9-25.12,89.13,89.13,0,0,0-15.62-21.7,84.18,84.18,0,0,0-23.9-16.31,91.22,91.22,0,0,0-27-7.44,92.69,92.69,0,0,0-28,1.18,111.24,111.24,0,0,0-27.23,9.08,4.67,4.67,0,1,1-4.08-8.41,120.54,120.54,0,0,1,29.53-9.85A102.26,102.26,0,0,1,441.92,376a100.42,100.42,0,0,1,29.77,8.2,93.4,93.4,0,0,1,26.63,18.18,98.26,98.26,0,0,1,17.35,24,128.39,128.39,0,0,1,10.64,27,94,94,0,0,1,2.13,47.91A4.66,4.66,0,0,1,523.88,505Z"/><path class="cls-3" d="M438.5,572.25v-7.09c0-2.66.08-5.41.26-8.24s.47-5.58.9-8.25a30.87,30.87,0,0,1,1.93-7.08,11.34,11.34,0,0,1,6.44-6.31,23.14,23.14,0,0,1,9.53-1.42,16.91,16.91,0,0,1,8.5,1.81,11.79,11.79,0,0,1,4.64,4.76,18.35,18.35,0,0,1,1.93,6.7A75.75,75.75,0,0,1,473,555a18.93,18.93,0,0,1,6.31-6.7,42.23,42.23,0,0,1,8.12-4.12,46.32,46.32,0,0,1,7.47-2.19c2.23-.43,3.51-.65,3.86-.65a92.69,92.69,0,0,1,11.72-.25,45.88,45.88,0,0,1,11.72,2.32,48.19,48.19,0,0,1,8.51,4.25,36.88,36.88,0,0,1,7.72,6.31,18.72,18.72,0,0,1,4.51,7.85,12.21,12.21,0,0,1-1.16,8.89q-3.6,6.45-8,6.31a44.42,44.42,0,0,1-9.53-1.41,28.54,28.54,0,0,1-6.7-2.32,28.39,28.39,0,0,0-6.7-2.32,30.29,30.29,0,0,0-15.46,1.29,44.18,44.18,0,0,0-21.38,16.23v37.09q0,7-.13,14.43a47.19,47.19,0,0,1-2.06,13.53,20.46,20.46,0,0,1-6.44,9.78q-4.51,3.74-13,3.22a11.5,11.5,0,0,1-8.24-4.5,18.35,18.35,0,0,1-4.38-8.38q-.53-3.85-.77-9.27c-.18-3.61-.31-7.38-.39-11.34s-.13-7.94-.13-12V572.25Z"/><path class="cls-3" d="M564.21,571.47q0-5.91-.13-12.62a29.22,29.22,0,0,1,2.19-12.11,13.15,13.15,0,0,1,6.83-7.08,13.34,13.34,0,0,1,9.4-.9,15.48,15.48,0,0,1,7.22,2.83,12.33,12.33,0,0,1,3.73,4.77,19.21,19.21,0,0,1,1.42,6.18q.25,3.48.51,6.83a22.87,22.87,0,0,1,6.44-7.47,41.84,41.84,0,0,1,8-4.64,40.41,40.41,0,0,1,7.86-2.58,31.1,31.1,0,0,1,5.8-.77,48,48,0,0,1,19.45,4.25,43.35,43.35,0,0,1,16.1,12,38,38,0,0,1,5.54,9.66,54.8,54.8,0,0,1,2.83,10.43,94.93,94.93,0,0,1,1.16,10.95c.17,3.7.34,7.43.51,11.21a207.8,207.8,0,0,1,0,32.72c-.17,2.23-.25,4.81-.25,7.72a57.3,57.3,0,0,1-.65,8.63,23.8,23.8,0,0,1-2.32,7.48,7.57,7.57,0,0,1-5.54,4,22.05,22.05,0,0,1-8.88.64,11.29,11.29,0,0,1-5.54-2.44,11,11,0,0,1-3.09-4.64,49.38,49.38,0,0,1-1.81-6.44q-.51-2.84-.9-6.57t-.51-7.6q-.14-3.87-.26-7.6t-.13-6.83q0-4.89-.26-10.82t0-11.08q0-12.1-6.31-18.41t-17.13-5.29a26,26,0,0,0-14.43,6.57,17.56,17.56,0,0,0-5.92,14.3v6.18c0,1.9,0,3.78-.13,5.67s-.13,3.95-.13,6.18v25.38q0,9.4-2.32,15.33-2.07,6.18-6.95,8.5T574,662.67a11.86,11.86,0,0,1-4.5-4.25,23.24,23.24,0,0,1-2.58-5.8,30.64,30.64,0,0,1-1.16-6.31c-.17-2.14-.35-4.16-.52-6q-.76-8.5-.9-15.85t-.13-15.84Z"/><path class="cls-3" d="M722.9,612.41q0,7.22.13,16.23c.09,6,0,3.21-.13,8.53-.17,2.57-.43,5.37-.77,8.37a32.48,32.48,0,0,1-2.06,8.37,14.5,14.5,0,0,1-4.77,6.31c-2.15,1.64-5,2.37-8.63,2.19q-8-.51-11.46-6.95t-4-18c0-3.94-.52-8-.52-12.13q0-3.6-.13-8.76c-.09-3.43,0-6.95.13-10.56A67.43,67.43,0,0,1,692,595.54a22.29,22.29,0,0,1,3.35-8.37,11.71,11.71,0,0,1,5.15-3.22,21.28,21.28,0,0,1,7.08-1.16,20.62,20.62,0,0,1,7.22,1.29,9.94,9.94,0,0,1,5,3.6,11.81,11.81,0,0,1,1.55,4.38c.34,1.89.64,4,.9,6.31s.43,4.73.51,7.22S722.9,610.35,722.9,612.41Zm-9.79-52q-8,2.05-13.26-1.68t-6.57-11.21a15.93,15.93,0,0,1,.77-9.53,13.47,13.47,0,0,1,5.41-6.31,14,14,0,0,1,8.24-1.93,17.52,17.52,0,0,1,9.28,3.61,18.49,18.49,0,0,1,6.31,7.21,13.42,13.42,0,0,1,1.29,8,14.13,14.13,0,0,1-3.48,7.09A16.78,16.78,0,0,1,713.11,560.38Z"/><path class="cls-3" d="M748.66,571.47q0-5.91-.13-12.62a28.9,28.9,0,0,1,2.19-12.11,13.12,13.12,0,0,1,6.83-7.08,13.34,13.34,0,0,1,9.4-.9,15.48,15.48,0,0,1,7.21,2.83,12.27,12.27,0,0,1,3.74,4.77,19.21,19.21,0,0,1,1.41,6.18c.17,2.32.35,4.6.52,6.83a22.63,22.63,0,0,1,6.44-7.47,41.84,41.84,0,0,1,8-4.64,40.11,40.11,0,0,1,7.85-2.58,31.1,31.1,0,0,1,5.8-.77,48,48,0,0,1,19.45,4.25,43.27,43.27,0,0,1,16.1,12A38,38,0,0,1,849,569.8a53.37,53.37,0,0,1,2.83,10.43A92.77,92.77,0,0,1,853,591.18c.17,3.7.34,7.43.52,11.21a207.8,207.8,0,0,1,0,32.72c-.18,2.23-.26,4.81-.26,7.72a58.64,58.64,0,0,1-.64,8.63,24.06,24.06,0,0,1-2.32,7.48,7.59,7.59,0,0,1-5.54,4,22.11,22.11,0,0,1-8.89.64,11.33,11.33,0,0,1-5.54-2.44,11.06,11.06,0,0,1-3.09-4.64,47.92,47.92,0,0,1-1.8-6.44q-.52-2.84-.9-6.57t-.52-7.6c-.09-2.58-.17-5.11-.26-7.6s-.13-4.77-.13-6.83q0-4.89-.25-10.82t0-11.08q0-12.1-6.31-18.41t-17.14-5.29a26,26,0,0,0-14.42,6.57,17.6,17.6,0,0,0-5.93,14.3v6.18c0,1.9,0,3.78-.13,5.67s-.13,3.95-.13,6.18v25.38q0,9.4-2.31,15.33-2.07,6.18-7,8.5t-11.59-1.29a12,12,0,0,1-4.51-4.25,23.24,23.24,0,0,1-2.58-5.8,31.32,31.32,0,0,1-1.16-6.31q-.26-3.21-.51-6-.78-8.5-.9-15.85t-.13-15.84Z"/><path class="cls-3" d="M981.8,597.78q0,8.24-.39,17.77t-.9,17.78q0,7.73-.77,15.45a127.34,127.34,0,0,1-2.06,14.56,73.77,73.77,0,0,1-4.38,14.55A46.78,46.78,0,0,1,963.51,693a35.77,35.77,0,0,1-16,9.15,101.9,101.9,0,0,1-15.46,2.7,73.07,73.07,0,0,1-15.46-.38,61.77,61.77,0,0,1-11.59-3,60.62,60.62,0,0,1-11.59-5.54,44.83,44.83,0,0,1-9.53-7.86,24.46,24.46,0,0,1-5.67-10.18q-1.82-6.95-.13-12.1a13.34,13.34,0,0,1,5.28-7.48q3.6-2.31,8.5-.77t9.28,8a21.8,21.8,0,0,0,9,7.47,35.39,35.39,0,0,0,12.63,3.35,31.91,31.91,0,0,0,13-1.68,19.08,19.08,0,0,0,9.91-7.6c1.72-2.57,3-6.27,3.74-11.07a118.87,118.87,0,0,0,1.42-14.17,55.08,55.08,0,0,1-26.92,4,57,57,0,0,1-25-8.5,53.36,53.36,0,0,1-18-19.06q-6.83-12-5.79-27.18a76.09,76.09,0,0,1,5.54-24.73A43.45,43.45,0,0,1,896.53,547a50.54,50.54,0,0,1,20.35-8.11,130.08,130.08,0,0,1,21.9-1.93H951a38.9,38.9,0,0,1,11.21,1.54,24.63,24.63,0,0,1,9.27,5.16q4.13,3.6,6.19,10.56a82.05,82.05,0,0,1,3.73,21.38Q981.8,586.18,981.8,597.78Zm-49.72,21.38a23.89,23.89,0,0,0,5-.52,41.85,41.85,0,0,0,4.77-1.29,14.89,14.89,0,0,0,6.57-4.12,13.65,13.65,0,0,0,3-5.8,26.11,26.11,0,0,0,.64-7.08c-.08-2.57-.12-5.24-.12-8,0-2.22,0-4.72-.13-7.47a74,74,0,0,0-.65-7.85,32.42,32.42,0,0,0-1.54-6.57,5.57,5.57,0,0,0-3.09-3.61,44.11,44.11,0,0,0-8.25-1.42,57.38,57.38,0,0,0-9.27,0,38.33,38.33,0,0,0-8.89,1.81,19.81,19.81,0,0,0-13,12,32.14,32.14,0,0,0-2.45,10.3,36.11,36.11,0,0,0,.78,10.56,24.06,24.06,0,0,0,4.25,9.28,20.28,20.28,0,0,0,9.79,7.47A35.76,35.76,0,0,0,932.08,619.16Z"/><path class="cls-3" d="M348.12,598.06a10.25,10.25,0,0,0-1.13-2.9,9.49,9.49,0,0,0-2.23-2.55c-.13-.11-.27-.18-.4-.28L348,578.2a3.89,3.89,0,0,0-7.54-2l-3.65,14.09a13,13,0,0,0-1.38.18,9.49,9.49,0,0,0-3.86,1.71,13,13,0,0,0-4.53,7.44L313,608a7,7,0,0,0,7.12,12.09l14.05-8.27a12.85,12.85,0,0,0,3,.66,10.5,10.5,0,0,0,3.08-.12,8.79,8.79,0,0,0,2.25-.76,7.88,7.88,0,0,0,2-1.34,15.11,15.11,0,0,0,3-4.12,9.88,9.88,0,0,0,1.05-5A13.3,13.3,0,0,0,348.12,598.06Z"/></g></g></svg>