<svg xmlns="http://www.w3.org/2000/svg" xmlns:xlink="http://www.w3.org/1999/xlink" viewBox="0 0 283.41 377.7"><defs><style>.cls-1{fill:url(#Dégradé_sans_nom_12);}.cls-2{fill:#844984;}.cls-3{fill:#fff;}.cls-4{fill:#9f56a1;}</style><linearGradient id="Dégradé_sans_nom_12" x1="190.12" y1="158.06" x2="81.77" y2="49.71" gradientUnits="userSpaceOnUse"><stop offset="0" stop-color="#844984"/><stop offset="1" stop-color="#c16baf"/></linearGradient></defs><title>ondori_1</title><g id="Calque_2" data-name="Calque 2"><g id="Calque_5" data-name="Calque 5"><rect x="133.1" y="298.2" width="150.31" height="79.5"/></g><g id="Calque_4" data-name="Calque 4"><circle class="cls-1" cx="140.4" cy="108.35" r="108.35"/><path class="cls-2" d="M76.57,107.43A14.44,14.44,0,0,1,66.36,82.78,14.44,14.44,0,1,1,86.78,103.2,13.91,13.91,0,0,1,76.57,107.43Zm0-26.49a12,12,0,0,0-8.5,20.55,12,12,0,1,0,17-17A11.56,11.56,0,0,0,76.57,80.94Z"/><path class="cls-2" d="M117.64,107l0,0,0,0L99.17,83.22v23A1.25,1.25,0,0,1,98,107.43a1.23,1.23,0,0,1-1.21-1.21V79.7a1.12,1.12,0,0,1,.81-1.15,1.1,1.1,0,0,1,1.35.4l18.44,23.75v-23a1.21,1.21,0,0,1,1.19-1.21,1.19,1.19,0,0,1,.87.36,1.15,1.15,0,0,1,.34.85v26.6a.5.5,0,0,1,0,.12.44.44,0,0,1,0,.1.4.4,0,0,1,0,.12,1,1,0,0,0,0,.1.24.24,0,0,1-.06.11.64.64,0,0,1-.06.1l-.08.1-.08.08-.06,0,0,0-.06,0a.34.34,0,0,1-.12.06l-.08,0-.15,0-.08,0-.22,0-.24,0-.08,0-.16-.06-.08-.06-.14-.08-.08-.06-.06-.06Z"/><path class="cls-2" d="M127.3,107.43a1.14,1.14,0,0,1-.84-.34,1.19,1.19,0,0,1-.36-.87V79.74a1.19,1.19,0,0,1,.36-.87,1.12,1.12,0,0,1,.84-.36H134a14.41,14.41,0,0,1,10.19,24.61A13.88,13.88,0,0,1,134,107.35l-6.69.08Zm1.21-2.44,5.48-.08a12,12,0,1,0,0-24h-5.5Z"/><path class="cls-2" d="M166.48,107.43a14.44,14.44,0,0,1-10.21-24.65,14.44,14.44,0,1,1,20.42,20.42A13.91,13.91,0,0,1,166.48,107.43Zm0-26.49a12,12,0,0,0-8.5,20.55,12,12,0,1,0,8.5-20.55Z"/><path class="cls-2" d="M197,78.59a8.53,8.53,0,0,1,6,2.27,7.35,7.35,0,0,1,.45,10.54,8.32,8.32,0,0,1-5,2.62l5.74,11.7a1.09,1.09,0,0,1,.06.9,1.2,1.2,0,0,1-.6.69,1.18,1.18,0,0,1-.53.12,1.09,1.09,0,0,1-1.06-.67l-6.23-12.62h-6.72V106a1.2,1.2,0,0,1-.37.85,1.18,1.18,0,0,1-.84.34,1.16,1.16,0,0,1-1.19-1.19V79.78a1.15,1.15,0,0,1,.34-.85,1.18,1.18,0,0,1,.85-.34Zm6,7.77a4.89,4.89,0,0,0-1.77-3.8A6.17,6.17,0,0,0,197,81h-7.91V91.74h8.05a6.1,6.1,0,0,0,4.17-1.61A4.89,4.89,0,0,0,203,86.36Z"/><path class="cls-2" d="M212.7,106.22a1.23,1.23,0,0,1-1.21,1.21,1.25,1.25,0,0,1-1.21-1.21V79.84a1.25,1.25,0,0,1,1.21-1.21,1.23,1.23,0,0,1,1.21,1.21Z"/><path class="cls-2" d="M216.55,108.35H59.93a.25.25,0,0,0-.25.24v27.59a13,13,0,0,0,13,13H206.54a10.24,10.24,0,0,0,10.25-10.25V108.59A.24.24,0,0,0,216.55,108.35Z"/><polyline class="cls-2" points="61.91 105.7 59.74 108.44 62.13 109.54 61.91 105.7"/><polygon class="cls-3" points="105.69 131.87 119.74 131.87 112.72 114.93 105.69 131.87"/><path class="cls-3" d="M218.72,105.62H62.09a.24.24,0,0,0-.24.24v29.8a10.76,10.76,0,0,0,10.76,10.76h136.1A10.25,10.25,0,0,0,219,136.17V105.86A.24.24,0,0,0,218.72,105.62ZM95,140.65a1.27,1.27,0,0,1-.38.93,1.31,1.31,0,0,1-1,.4,1.33,1.33,0,0,1-1.33-1.33v-1.28a16,16,0,0,1-20-2.08,15.91,15.91,0,0,1,0-22.56,15.84,15.84,0,0,1,11.25-4.67,15.49,15.49,0,0,1,9.73,3.29,1.33,1.33,0,0,1,.52.89,1.26,1.26,0,0,1-.27,1,1.29,1.29,0,0,1-.89.51,1.34,1.34,0,0,1-1-.27,12.9,12.9,0,0,0-8.09-2.75A13.28,13.28,0,1,0,92.31,136v-9.43H81.15a1.35,1.35,0,0,1-1.36-1.33,1.22,1.22,0,0,1,.41-.93,1.28,1.28,0,0,1,1-.41H93.64a1.32,1.32,0,0,1,1,.41,1.27,1.27,0,0,1,.38.93Zm31.05.51a1.19,1.19,0,0,1-.71.71,1.26,1.26,0,0,1-.51.11,1.21,1.21,0,0,1-1.22-.82l-2.76-6.63H104.6l-2.75,6.63a1.22,1.22,0,0,1-1.23.82h-.26l-.25-.11a1.19,1.19,0,0,1-.71-.71,1.21,1.21,0,0,1,0-1l3.09-7.45v0l9-21.72a1.87,1.87,0,0,1,.12-.25l.08-.09.09-.11.11-.09.09-.06a1.14,1.14,0,0,1,.47-.2h.11l.16,0,.13,0H113a1.11,1.11,0,0,1,.49.2l.09.06a.38.38,0,0,0,.11.09.65.65,0,0,1,.09.11q.09.12.09.09c0,.09.08.17.11.25l9,21.72v0l3.09,7.45A1.21,1.21,0,0,1,126,141.16Zm35.95-.51a1.31,1.31,0,0,1-.4.95,1.29,1.29,0,0,1-.94.38,1.3,1.3,0,0,1-1.31-1.33V116.26L147.4,136l0,0v0l-.09.11-.08.09-.09.09a.35.35,0,0,0-.11.09c-.08,0-.09,0-.05,0l-.07,0a.33.33,0,0,1-.13.07l-.11.05-.13,0-.12,0a.27.27,0,0,1-.13,0,.3.3,0,0,1-.13,0l-.11,0-.14,0-.11-.05a.42.42,0,0,1-.13-.07h-.06l-.05,0-.11-.09-.09-.09-.09-.09-.09-.11v0l0,0-11.94-19.72v24.39a1.3,1.3,0,0,1-1.31,1.33,1.37,1.37,0,0,1-1-.38,1.32,1.32,0,0,1-.37-.95V111.5a1.19,1.19,0,0,1,1-1.26,1.21,1.21,0,0,1,1.49.6l13.25,21.89,13.25-21.89a1.21,1.21,0,0,1,1.49-.6,1.2,1.2,0,0,1,1,1.26Zm21.85-16a1.33,1.33,0,0,1,0,2.66h-12.2v12h16.31a1.29,1.29,0,0,1,.94.4,1.27,1.27,0,0,1,.4.94,1.37,1.37,0,0,1-1.34,1.33H170.29a1.37,1.37,0,0,1-1.33-1.33V111.39a1.21,1.21,0,0,1,.4-.93,1.17,1.17,0,0,1,.93-.4l17.65,0a1.29,1.29,0,0,1,.94.4,1.33,1.33,0,0,1-.94,2.27l-16.31,0v12Zm13-2.12q1.94,2.07,6.15,2.14h.14c3.55.06,6.24,1.05,8,3a6.92,6.92,0,0,1,2,5.33,8.77,8.77,0,0,1-3,6.36,9.76,9.76,0,0,1-6.82,2.6,13.35,13.35,0,0,1-6.27-1.44,7.88,7.88,0,0,1-4.18-5.07,1.31,1.31,0,0,1,.14-1,1.29,1.29,0,0,1,.82-.6,1.29,1.29,0,0,1,1.6.93,5.4,5.4,0,0,0,3.11,3.53,10.9,10.9,0,0,0,4.78,1,7.26,7.26,0,0,0,5-1.86,6.33,6.33,0,0,0,2.22-4.56,4.47,4.47,0,0,0-1.33-3.42q-1.94-2.07-6.16-2.14H203c-3.56,0-6.24-1-8.05-2.95a7.1,7.1,0,0,1-2-5.36,8.87,8.87,0,0,1,3-6.36,9.79,9.79,0,0,1,6.83-2.6,13.13,13.13,0,0,1,6.27,1.47,7.81,7.81,0,0,1,4.18,5,1.33,1.33,0,0,1-.14,1,1.23,1.23,0,0,1-.82.6,1.17,1.17,0,0,1-1-.13,1.23,1.23,0,0,1-.6-.8,5.35,5.35,0,0,0-3.11-3.51,10.79,10.79,0,0,0-4.78-1,7.26,7.26,0,0,0-5,1.86,6.34,6.34,0,0,0-2.23,4.58A4.45,4.45,0,0,0,196.86,122.57Z"/><path class="cls-3" d="M78.19,105.74A14.44,14.44,0,0,1,68,81.09a14.44,14.44,0,1,1,20.43,20.42A13.93,13.93,0,0,1,78.19,105.74Zm0-26.48a12,12,0,0,0,0,24.07,12,12,0,0,0,8.5-20.53A11.55,11.55,0,0,0,78.19,79.26Z"/><path class="cls-3" d="M119.26,105.32l0,0,0,0L100.79,81.53v23a1.21,1.21,0,0,1-2.41,0V78a1.2,1.2,0,0,1,2.15-.75L119,101V78a1.15,1.15,0,0,1,.34-.85,1.2,1.2,0,0,1,1.71,0,1.15,1.15,0,0,1,.35.85v26.61a.5.5,0,0,1,0,.12.58.58,0,0,1,0,.1s0,.09,0,.12a.23.23,0,0,0,0,.1.36.36,0,0,1-.07.1.37.37,0,0,1-.06.1.39.39,0,0,1-.08.1l-.08.08c-.06,0-.08.07-.06,0s0,0,0,0a.15.15,0,0,1-.06,0,.34.34,0,0,1-.12.06l-.08,0-.14,0a.17.17,0,0,1-.08,0,.9.9,0,0,1-.22,0,1,1,0,0,1-.24,0l-.08,0-.17-.06-.08-.06-.14-.08-.08-.06-.06-.06Z"/><path class="cls-3" d="M128.93,105.74a1.15,1.15,0,0,1-.85-.34,1.19,1.19,0,0,1-.36-.87V78.05a1.19,1.19,0,0,1,.36-.87,1.13,1.13,0,0,1,.85-.36h6.71a14.41,14.41,0,0,1,10.19,24.61,13.89,13.89,0,0,1-10.19,4.23l-6.69.08Zm1.21-2.43,5.48-.08a12,12,0,1,0,0-24h-5.5Z"/><path class="cls-3" d="M168.1,105.74a14.44,14.44,0,0,1-10.21-24.65,14.44,14.44,0,1,1,20.42,20.42A13.91,13.91,0,0,1,168.1,105.74Zm0-26.48a12,12,0,0,0,0,24.07,12,12,0,0,0,8.5-20.53A11.55,11.55,0,0,0,168.1,79.26Z"/><path class="cls-3" d="M198.6,76.9a8.49,8.49,0,0,1,6,2.28A7.33,7.33,0,0,1,205,89.71a8.24,8.24,0,0,1-5,2.62l5.74,11.7a1.2,1.2,0,0,1,.06.91,1.17,1.17,0,0,1-.61.68,1.14,1.14,0,0,1-.52.12,1.11,1.11,0,0,1-1.07-.66l-6.22-12.63h-6.73v11.9a1.19,1.19,0,0,1-1.21,1.19,1.17,1.17,0,0,1-.84-.34,1.19,1.19,0,0,1-.35-.85V78.09a1.15,1.15,0,0,1,.35-.85,1.21,1.21,0,0,1,.84-.34Zm6,7.78a4.92,4.92,0,0,0-1.77-3.81,6.2,6.2,0,0,0-4.27-1.59h-7.92V90.05h8.06a6.09,6.09,0,0,0,4.17-1.61A4.92,4.92,0,0,0,204.64,84.68Z"/><path class="cls-3" d="M214.33,104.53a1.1,1.1,0,0,1-.37.85,1.21,1.21,0,0,1-2.05-.85V78.15A1.2,1.2,0,0,1,214,77.3a1.1,1.1,0,0,1,.37.85Z"/><path class="cls-4" d="M88.88,249.93a12,12,0,1,1,8.46-3.51A11.51,11.51,0,0,1,88.88,249.93Zm0-21.94a10,10,0,1,0,7,2.94A9.55,9.55,0,0,0,88.88,228Z"/><path class="cls-4" d="M122.89,249.58v0l0,0-15.27-19.67v19.06a.94.94,0,0,1-.3.7.91.91,0,0,1-.7.3,1,1,0,0,1-1-1V227a.94.94,0,0,1,.67-1,.92.92,0,0,1,1.12.34L122.66,246V227a.93.93,0,0,1,.28-.7.94.94,0,0,1,.7-.31,1,1,0,0,1,.72.31.93.93,0,0,1,.28.7v22a.31.31,0,0,1,0,.1.51.51,0,0,1,0,.09l0,.1a.59.59,0,0,0,0,.08.14.14,0,0,1-.05.08.28.28,0,0,1,0,.09l-.06.08-.07.07,0,0,0,0,0,0-.1.05-.07,0-.12,0-.06,0-.19,0-.2,0-.06,0-.14,0-.06-.05-.12-.06-.07,0,0-.05Z"/><path class="cls-4" d="M130.9,249.93a1,1,0,0,1-.7-.29,1,1,0,0,1-.3-.71V227a1,1,0,0,1,.3-.72.92.92,0,0,1,.7-.3h5.55a11.95,11.95,0,1,1,0,23.89l-5.53.07Zm1-2,4.54-.07a9.93,9.93,0,1,0,0-19.85H131.9Z"/><path class="cls-4" d="M163.35,249.93a12,12,0,1,1,8.45-3.51A11.5,11.5,0,0,1,163.35,249.93Zm0-21.94a10,10,0,1,0,7,2.94A9.55,9.55,0,0,0,163.35,228Z"/><path class="cls-4" d="M188.6,226a7.07,7.07,0,0,1,4.94,1.88,6.08,6.08,0,0,1,.37,8.73,6.87,6.87,0,0,1-4.12,2.17l4.75,9.69a.93.93,0,0,1,.05.75,1,1,0,0,1-.5.57,1,1,0,0,1-.43.1.93.93,0,0,1-.89-.55l-5.15-10.46h-5.57v9.86a1,1,0,0,1-.3.7,1,1,0,0,1-.7.28,1,1,0,0,1-.7-.28,1,1,0,0,1-.29-.7V227a1,1,0,0,1,.29-.7,1,1,0,0,1,.7-.28Zm5,6.44a4.07,4.07,0,0,0-1.47-3.16A5.15,5.15,0,0,0,188.6,228h-6.55v8.92h6.67a5,5,0,0,0,3.45-1.33A4.07,4.07,0,0,0,193.61,232.48Z"/><path class="cls-4" d="M201.63,248.93a.94.94,0,0,1-.3.7,1,1,0,0,1-1.4,0,.94.94,0,0,1-.3-.7V227.07a1,1,0,0,1,2,0Z"/><path class="cls-4" d="M205.27,249.82H75.54a.2.2,0,0,0-.2.21v25.1a8.49,8.49,0,0,0,8.49,8.49H197a8.49,8.49,0,0,0,8.49-8.49V250A.2.2,0,0,0,205.27,249.82Z"/><path class="cls-3" d="M84,276.06A13.22,13.22,0,0,1,93.3,253.5a12.86,12.86,0,0,1,8,2.73,1.08,1.08,0,0,1,.43.73,1,1,0,0,1-.22.83,1,1,0,0,1-.74.42A1,1,0,0,1,100,258a10.71,10.71,0,0,0-6.7-2.28,11,11,0,0,0,0,22,10.64,10.64,0,0,0,7.4-2.85,1.11,1.11,0,0,1,.81-.3,1.13,1.13,0,0,1,.7,1.94,12.85,12.85,0,0,1-8.91,3.44A12.69,12.69,0,0,1,84,276.06Zm16.92,3.55a1,1,0,0,1-.31-.77V267.16H91.33a1.09,1.09,0,0,1-.79-.31,1,1,0,0,1-.34-.79,1,1,0,0,1,.34-.78,1.07,1.07,0,0,1,.79-.33h10.34a1.09,1.09,0,0,1,1.11,1.11v12.78a1.11,1.11,0,0,1-1.9.77Z"/><path class="cls-3" d="M107,279.85a1,1,0,0,1-.59-.59,1,1,0,0,1,0-.85l2.56-6.17h0l7.46-18a1.65,1.65,0,0,1,.09-.21l.07-.07.08-.09.09-.07.07-.06a1.11,1.11,0,0,1,.39-.17h.42a1,1,0,0,1,.41.17l.07.06s.08.07.1.07l.07.09c.05.06.07.09.07.07a1.65,1.65,0,0,1,.09.21l7.46,18h0l2.56,6.17a1,1,0,0,1,0,.85,1,1,0,0,1-.59.59,1,1,0,0,1-.42.09,1,1,0,0,1-1-.68l-2.29-5.49H110.75l-2.28,5.49a1,1,0,0,1-1,.68h-.23Zm16.26-8.29-5.82-14-5.82,14Z"/><path class="cls-3" d="M134.43,278.84a1.11,1.11,0,0,1-.31.79,1.09,1.09,0,0,1-.78.31,1.06,1.06,0,0,1-1.1-1.1V254.7a1.1,1.1,0,0,1,2-.55l11,18.13,11-18.13a1.1,1.1,0,0,1,2,.55v24.14a1.09,1.09,0,0,1-.33.79,1,1,0,0,1-.77.31,1.06,1.06,0,0,1-.77-.31,1.12,1.12,0,0,1-.32-.79v-20.2L146.2,275l0,0v0a.36.36,0,0,0-.08.09l-.07.07-.07.08-.1.07,0,0s0,0-.06,0l-.11.05-.09,0-.11,0h-.09a.23.23,0,0,1-.11,0,.2.2,0,0,1-.11,0h-.1l-.11,0-.09,0-.11-.05h0s0,0,0,0l0,0-.09-.07-.08-.08-.07-.07-.07-.09v0l0,0-9.89-16.33Z"/><path class="cls-3" d="M165.16,279.94a1,1,0,0,1-.77-.33,1,1,0,0,1-.34-.77V254.61a1,1,0,0,1,.34-.78,1,1,0,0,1,.77-.33l14.62,0a1,1,0,0,1,.77.33,1.06,1.06,0,0,1,.33.77,1.07,1.07,0,0,1-.33.79,1,1,0,0,1-.77.32l-13.52,0v9.91h10.11a1,1,0,0,1,.78.33,1,1,0,0,1,.33.77,1,1,0,0,1-.33.77,1,1,0,0,1-.78.34H166.26v9.9h13.52a1,1,0,0,1,.77.33,1.08,1.08,0,0,1,0,1.55,1,1,0,0,1-.77.33Z"/><path class="cls-3" d="M192.23,267.83q-4.42-.06-6.67-2.45a5.87,5.87,0,0,1-1.69-4.44,7.34,7.34,0,0,1,2.52-5.27,8.1,8.1,0,0,1,5.65-2.15,10.86,10.86,0,0,1,5.19,1.21,6.44,6.44,0,0,1,3.46,4.18,1.07,1.07,0,0,1-.79,1.33,1,1,0,0,1-.83-.11,1,1,0,0,1-.49-.66,4.4,4.4,0,0,0-2.58-2.91,8.8,8.8,0,0,0-4-.85,6,6,0,0,0-4.14,1.55,5.21,5.21,0,0,0-1.84,3.79,3.72,3.72,0,0,0,1.1,2.82q1.6,1.71,5.1,1.76a1.17,1.17,0,0,1,.78.34,1.14,1.14,0,0,1,.31.79,1.08,1.08,0,0,1-.33.75,1.1,1.1,0,0,1-.78.32Zm-4.87,10.91a6.52,6.52,0,0,1-3.46-4.19,1.15,1.15,0,0,1,.11-.83,1.08,1.08,0,0,1,.68-.5,1.1,1.1,0,0,1,.83.11,1.06,1.06,0,0,1,.5.66,4.45,4.45,0,0,0,2.58,2.93,9.07,9.07,0,0,0,4,.83,6,6,0,0,0,4.14-1.55,5.24,5.24,0,0,0,1.84-3.77,3.75,3.75,0,0,0-1.1-2.84q-1.6-1.71-5.1-1.76a1,1,0,0,1-.78-.34,1.11,1.11,0,0,1,.81-1.86c2.95.05,5.17.88,6.67,2.47a5.76,5.76,0,0,1,1.67,4.42,7.26,7.26,0,0,1-2.5,5.27,8.12,8.12,0,0,1-5.65,2.15A11,11,0,0,1,187.36,278.74Z"/><path d="M13.54,335.19a11.56,11.56,0,0,1-8.46-3.5,12,12,0,0,1,0-16.92,11.56,11.56,0,0,1,8.46-3.5,11.56,11.56,0,0,1,8.46,3.5,12,12,0,0,1,0,16.92A11.56,11.56,0,0,1,13.54,335.19Zm0-21.94a9.56,9.56,0,0,0-7,2.94,9.95,9.95,0,0,0,0,14.08,9.58,9.58,0,0,0,7,2.92,9.58,9.58,0,0,0,7-2.92,9.9,9.9,0,0,0,0-14.08A9.56,9.56,0,0,0,13.54,313.25Z"/><path d="M47.55,334.84v0h0L32.26,315.14v19.05a.92.92,0,0,1-.3.7.94.94,0,0,1-.7.3.91.91,0,0,1-.7-.3.92.92,0,0,1-.3-.7v-22A1,1,0,0,1,32,311.6l15.28,19.67v-19a1,1,0,0,1,1.7-.7,1,1,0,0,1,.29.7v22a.44.44,0,0,1,0,.1.31.31,0,0,1,0,.08.62.62,0,0,1,0,.1l0,.08-.05.09a.56.56,0,0,0,0,.08l-.07.08-.07.07s-.07.06,0,0,0,0,0,0l0,0-.1,0-.07,0-.11,0h-.07l-.18,0-.21,0H48l-.14-.05-.06-.05-.12-.07-.07-.05,0-.05Z"/><path d="M55.56,335.19a.94.94,0,0,1-.7-.28,1,1,0,0,1-.3-.72V312.25a1,1,0,0,1,.3-.71.9.9,0,0,1,.7-.31h5.56a11.95,11.95,0,0,1,0,23.89l-5.54.07Zm1-2,4.54-.07a9.93,9.93,0,1,0,0-19.85H56.56Z"/><path d="M88,335.19a11.95,11.95,0,1,1,8.46-3.5A11.54,11.54,0,0,1,88,335.19Zm0-21.94a10,10,0,1,0,7,2.94A9.55,9.55,0,0,0,88,313.25Z"/><path d="M113.26,311.3a7,7,0,0,1,4.94,1.89,6.07,6.07,0,0,1,.37,8.72,6.84,6.84,0,0,1-4.12,2.17l4.75,9.69a.9.9,0,0,1,0,.75.94.94,0,0,1-.5.57.91.91,0,0,1-.43.1.9.9,0,0,1-.88-.55l-5.16-10.46h-5.57V334a1,1,0,0,1-.3.7.94.94,0,0,1-.7.28,1,1,0,0,1-1-1V312.29a.93.93,0,0,1,.29-.7,1,1,0,0,1,.7-.29Zm5,6.44a4.07,4.07,0,0,0-1.47-3.15,5.11,5.11,0,0,0-3.54-1.32h-6.55v8.92h6.67a5,5,0,0,0,3.45-1.33A4.07,4.07,0,0,0,118.27,317.74Z"/><path d="M126.29,334.19a1,1,0,0,1-2,0V312.34a.91.91,0,0,1,.3-.7.95.95,0,0,1,1.4,0,.91.91,0,0,1,.3.7Z"/><path d="M129.93,335.09H.2a.2.2,0,0,0-.2.2v25.1a8.49,8.49,0,0,0,8.49,8.49H121.64a8.49,8.49,0,0,0,8.49-8.49v-25.1A.2.2,0,0,0,129.93,335.09Zm-102.49,29a1,1,0,0,1-.31.77,1.09,1.09,0,0,1-.79.33,1.11,1.11,0,0,1-.8-.33,1.07,1.07,0,0,1-.31-.77V363A12.79,12.79,0,0,1,18,365.2a12.69,12.69,0,0,1-9.34-3.88,13.19,13.19,0,0,1,0-18.69A12.72,12.72,0,0,1,18,338.76a12.84,12.84,0,0,1,8,2.73,1.1,1.1,0,0,1,.43.74,1,1,0,0,1-.22.82,1.05,1.05,0,0,1-.74.43,1.14,1.14,0,0,1-.81-.22A10.66,10.66,0,0,0,18,341a10.57,10.57,0,0,0-7.77,3.24,11,11,0,0,0,0,15.54A10.6,10.6,0,0,0,18,363a10.6,10.6,0,0,0,7.27-2.76v-7.79H16a1.1,1.1,0,0,1-.79-.32,1.07,1.07,0,0,1-.33-.79,1,1,0,0,1,.33-.77,1.07,1.07,0,0,1,.79-.33H26.34a1.09,1.09,0,0,1,.79.33,1,1,0,0,1,.31.77Zm25.72.42a1,1,0,0,1-.59.59,1.07,1.07,0,0,1-1.43-.59L48.85,359H35.41l-2.28,5.48a1,1,0,0,1-1,.68H31.9l-.21-.09a1,1,0,0,1-.58-.59,1,1,0,0,1,0-.84l2.55-6.17v0l7.46-18,.09-.2.08-.08.07-.09.09-.07.08-.06a1,1,0,0,1,.38-.16H42l.12,0,.11,0h.1a1,1,0,0,1,.4.16l.08.06c0,.05.07.07.09.07a.76.76,0,0,0,.07.09c.05.07.07.09.07.08l.1.2,7.45,18v0l2.56,6.17A1,1,0,0,1,53.16,364.52Zm29.78-.42a1.08,1.08,0,0,1-.34.79,1,1,0,0,1-.77.31,1.08,1.08,0,0,1-.77-.31,1.1,1.1,0,0,1-.32-.79V343.9l-9.88,16.33,0,0v0a.36.36,0,0,0-.08.09l-.07.08-.07.07a.35.35,0,0,0-.09.07l0,0s0,0-.06,0l-.11.05a.19.19,0,0,1-.09,0l-.11,0-.09,0-.11,0-.11,0-.09,0-.12,0-.09,0-.11-.05h0l0,0s0,0,0,0l-.09-.07-.08-.07-.07-.08a.35.35,0,0,0-.07-.09v0l0,0L59.09,343.9v20.2A1.06,1.06,0,0,1,58,365.2a1.11,1.11,0,0,1-.79-.31,1.09,1.09,0,0,1-.31-.79V340a1.1,1.1,0,0,1,2-.55l11,18.13,11-18.13a1,1,0,0,1,1.24-.5,1,1,0,0,1,.81,1ZM101,350.88a1.11,1.11,0,0,1,0,2.21H90.93V363h13.51a1.17,1.17,0,0,1,1.11,1.11,1,1,0,0,1-.34.77,1,1,0,0,1-.77.33H89.82a1.13,1.13,0,0,1-1.1-1.1V339.87a1,1,0,0,1,.33-.77,1,1,0,0,1,.77-.34l14.62,0a1,1,0,0,1,.77.33,1.08,1.08,0,0,1,.34.78,1.1,1.1,0,0,1-.34.79,1,1,0,0,1-.77.31l-13.51,0v9.91Zm10.79-1.75q1.61,1.71,5.1,1.77H117q4.43.08,6.67,2.46a5.8,5.8,0,0,1,1.68,4.42,7.31,7.31,0,0,1-2.51,5.27,8.05,8.05,0,0,1-5.65,2.15A11,11,0,0,1,112,364a6.48,6.48,0,0,1-3.46-4.2,1.07,1.07,0,0,1,.79-1.33,1.15,1.15,0,0,1,.83.11,1.08,1.08,0,0,1,.49.67,4.46,4.46,0,0,0,2.58,2.92,8.93,8.93,0,0,0,4,.83,6,6,0,0,0,4.14-1.54,5.24,5.24,0,0,0,1.84-3.78,3.72,3.72,0,0,0-1.1-2.83c-1.07-1.15-2.77-1.73-5.1-1.77h-.11c-3,0-5.17-.85-6.67-2.45a5.87,5.87,0,0,1-1.69-4.44,7.34,7.34,0,0,1,2.52-5.26,8.08,8.08,0,0,1,5.65-2.16,10.93,10.93,0,0,1,5.2,1.22,6.48,6.48,0,0,1,3.46,4.18,1.14,1.14,0,0,1-.11.83,1.1,1.1,0,0,1-.68.49,1,1,0,0,1-.83-.11,1,1,0,0,1-.5-.66,4.4,4.4,0,0,0-2.58-2.91,8.94,8.94,0,0,0-4-.85,6,6,0,0,0-4.14,1.55,5.27,5.27,0,0,0-1.84,3.79A3.71,3.71,0,0,0,111.82,349.13Z"/><polygon points="36.32 356.83 47.95 356.83 42.13 342.8 36.32 356.83"/><path class="cls-3" d="M156.22,333.1a12,12,0,1,1,8.46-3.51A11.5,11.5,0,0,1,156.22,333.1Zm0-21.94a10,10,0,1,0,7,2.94A9.55,9.55,0,0,0,156.22,311.16Z"/><path class="cls-3" d="M190.23,332.75l0,0v0L174.93,313V332.1a.94.94,0,0,1-.3.7.92.92,0,0,1-.7.3,1,1,0,0,1-1-1v-22a1,1,0,0,1,1.79-.62L190,329.18V310.13a1,1,0,0,1,1-1,1,1,0,0,1,.72.3,1,1,0,0,1,.28.71v22a.31.31,0,0,1,0,.1.51.51,0,0,1,0,.09l0,.1,0,.08a.14.14,0,0,1,0,.08.44.44,0,0,1-.05.09l-.06.08-.07.07-.05,0s0,0,0,0l0,0-.1.05-.07,0-.12,0-.06,0-.19,0-.2,0-.06,0-.14-.05-.06-.05-.12-.06s0,0-.07,0l-.05-.05Z"/><path class="cls-3" d="M198.24,333.1a1,1,0,0,1-.7-.29,1,1,0,0,1-.3-.71V310.16a1,1,0,0,1,.3-.72.92.92,0,0,1,.7-.3h5.55a11.95,11.95,0,1,1,0,23.89l-5.53.07Zm1-2,4.54-.07a9.93,9.93,0,1,0,0-19.85h-4.55Z"/><path class="cls-3" d="M230.69,333.1a12,12,0,1,1,8.45-3.51A11.5,11.5,0,0,1,230.69,333.1Zm0-21.94a10,10,0,1,0,7,2.94A9.55,9.55,0,0,0,230.69,311.16Z"/><path class="cls-3" d="M255.94,309.21a7.07,7.07,0,0,1,4.94,1.88,6.08,6.08,0,0,1,.37,8.73,6.87,6.87,0,0,1-4.12,2.17l4.75,9.69a.93.93,0,0,1,.05.75,1,1,0,0,1-.93.67.93.93,0,0,1-.89-.55L255,322.09h-5.57v9.85a1,1,0,0,1-.3.71,1,1,0,0,1-.7.28,1,1,0,0,1-1-1V310.19a1,1,0,0,1,.28-.7,1,1,0,0,1,.71-.28Zm5,6.44a4.07,4.07,0,0,0-1.47-3.16,5.15,5.15,0,0,0-3.54-1.31h-6.55v8.92h6.67a5,5,0,0,0,3.45-1.33A4.07,4.07,0,0,0,261,315.65Z"/><path class="cls-3" d="M269,332.1a.94.94,0,0,1-.3.7,1,1,0,0,1-1.4,0,.94.94,0,0,1-.3-.7V310.24a1,1,0,0,1,2,0Z"/><path class="cls-3" d="M272.61,333H142.88a.2.2,0,0,0-.2.21v25.1a8.49,8.49,0,0,0,8.49,8.49H264.32a8.49,8.49,0,0,0,8.49-8.49V333.2A.2.2,0,0,0,272.61,333ZM170.12,362a1.09,1.09,0,0,1-.31.77,1.11,1.11,0,0,1-.8.33,1.09,1.09,0,0,1-.79-.33,1,1,0,0,1-.31-.77v-1.1a13.21,13.21,0,1,1-7.27-24.24,12.86,12.86,0,0,1,8,2.73,1.08,1.08,0,0,1,.43.73,1,1,0,0,1-.23.83,1,1,0,0,1-.73.42,1,1,0,0,1-.81-.22,10.71,10.71,0,0,0-6.7-2.28,11,11,0,1,0,7.27,19.25v-7.8h-9.24a1.13,1.13,0,0,1-.8-.31,1.09,1.09,0,0,1-.33-.79,1,1,0,0,1,.33-.78,1.11,1.11,0,0,1,.8-.33H169a1.11,1.11,0,0,1,.8.33,1.1,1.1,0,0,1,.31.78Zm25.72.42a1,1,0,0,1-.59.59,1.09,1.09,0,0,1-1.44-.59l-2.28-5.49H178.09l-2.28,5.49a1,1,0,0,1-1,.68h-.23l-.2-.09a1,1,0,0,1-.59-.59,1,1,0,0,1,0-.85l2.56-6.17h0l7.46-18a1.65,1.65,0,0,1,.09-.21l.07-.07L184,337l.09-.07.07-.06a1.11,1.11,0,0,1,.39-.17H185a1,1,0,0,1,.41.17l.07.06.09.07s0,0,.08.09.07.09.07.07a1.65,1.65,0,0,1,.09.21l7.46,18h0l2.56,6.17A1,1,0,0,1,195.84,362.43Zm29.77-.42a1.09,1.09,0,0,1-.33.79,1,1,0,0,1-.77.31,1.1,1.1,0,0,1-.78-.31,1.15,1.15,0,0,1-.31-.79v-20.2l-9.89,16.33v0a.36.36,0,0,0-.08.09l-.07.07-.08.07-.09.08,0,0s0,0-.06,0l-.11.05-.09,0-.11,0h-.09a.23.23,0,0,1-.11,0,.25.25,0,0,1-.12,0h-.09l-.11,0-.09,0-.11-.05h0s0,0,0,0l0,0-.09-.08-.08-.07-.07-.07a.36.36,0,0,0-.08-.09v0l-9.89-16.33V362a1.15,1.15,0,0,1-.31.79,1.09,1.09,0,0,1-.78.31,1.06,1.06,0,0,1-1.1-1.1V337.87a1,1,0,0,1,.81-1.05,1,1,0,0,1,1.23.49l11,18.14,11-18.14a1,1,0,0,1,1.23-.49,1,1,0,0,1,.81,1.05Zm18.1-13.22a1,1,0,0,1,.78.33,1.06,1.06,0,0,1,0,1.54,1,1,0,0,1-.78.33H233.6v9.91h13.52a1.11,1.11,0,0,1,0,2.21H232.5a1.15,1.15,0,0,1-1.11-1.1V337.77a1,1,0,0,1,.34-.77,1,1,0,0,1,.77-.33l14.62,0a1,1,0,0,1,.77.33,1.06,1.06,0,0,1,.33.77,1.07,1.07,0,0,1-.33.79,1.06,1.06,0,0,1-.77.32l-13.52,0v9.91ZM254.5,347q1.61,1.71,5.1,1.76h.11c3,.05,5.17.88,6.67,2.47a5.76,5.76,0,0,1,1.67,4.42,7.28,7.28,0,0,1-2.5,5.27,8.12,8.12,0,0,1-5.65,2.15,11,11,0,0,1-5.2-1.2,6.51,6.51,0,0,1-3.46-4.19,1.15,1.15,0,0,1,.11-.83,1.08,1.08,0,0,1,.68-.5,1.1,1.1,0,0,1,.83.11,1.06,1.06,0,0,1,.5.66,4.45,4.45,0,0,0,2.58,2.93,9.07,9.07,0,0,0,4,.83,6,6,0,0,0,4.14-1.55,5.24,5.24,0,0,0,1.84-3.77,3.74,3.74,0,0,0-1.1-2.84q-1.61-1.71-5.1-1.77h-.12c-2.94,0-5.16-.85-6.66-2.44a5.87,5.87,0,0,1-1.69-4.44,7.29,7.29,0,0,1,2.52-5.27,8.1,8.1,0,0,1,5.65-2.15,10.86,10.86,0,0,1,5.19,1.21,6.42,6.42,0,0,1,3.46,4.18,1.07,1.07,0,0,1-.79,1.33,1,1,0,0,1-.83-.11,1,1,0,0,1-.49-.66,4.4,4.4,0,0,0-2.58-2.91,8.8,8.8,0,0,0-4-.85,6,6,0,0,0-4.14,1.55,5.21,5.21,0,0,0-1.84,3.79A3.74,3.74,0,0,0,254.5,347Z"/><polygon class="cls-3" points="178.99 354.73 190.63 354.73 184.81 340.7 178.99 354.73"/></g></g></svg>