<svg xmlns="http://www.w3.org/2000/svg" xmlns:xlink="http://www.w3.org/1999/xlink" viewBox="0 0 400 302.41"><defs><style>.cls-1{fill:#fff;}.cls-2{fill:#1a1a1a;}.cls-3{fill:url(#Dégradé_sans_nom_25);}</style><linearGradient id="Dégradé_sans_nom_25" x1="205.73" y1="194.32" x2="199.87" y2="161.07" gradientUnits="userSpaceOnUse"><stop offset="0" stop-color="#f0047f"/><stop offset="0.29" stop-color="#f14764"/><stop offset="0.95" stop-color="#f2ed21"/><stop offset="1" stop-color="#f2f91c"/></linearGradient></defs><title>paintomb</title><g id="Calque_2" data-name="Calque 2"><g id="Calque_2-2" data-name="Calque 2"><rect class="cls-1" y="100" width="400" height="202.41"/></g><g id="Calque_1-2" data-name="Calque 1"><path class="cls-2" d="M51.05,235.39H43.73v13h-9v-46H51.05c10.56,0,15.83,6.69,15.83,17q0,7.78-4,11.94T51.05,235.39Zm-7.32-7.71H51q6.73,0,6.73-8.38a11.68,11.68,0,0,0-1.63-5.92A6.31,6.31,0,0,0,51,210H43.73Z"/><path class="cls-2" d="M70.67,248.35l10-46H97.82l10,46h-9l-1.76-8H81.47l-1.77,8Zm17-38.57-4.51,22.67H95.34l-4.52-22.67Z"/><path class="cls-2" d="M116.2,248.35v-46h9v46Z"/><path class="cls-2" d="M137.33,248.35v-46h15.24l10.73,38.2H164V202.3h9v46H158.13L147,210.15h-.65v38.2Z"/><path class="cls-2" d="M260.28,242.82q-4.15,5.52-14.29,5.53t-14.29-5.53q-4.15-5.53-4.16-17.3T231.7,208q4.16-5.73,14.29-5.72T260.28,208q4.16,5.73,4.16,17.5T260.28,242.82Zm-21.52-5.76q1.94,3.44,7.23,3.44t7.23-3.44q1.92-3.44,1.93-11.51t-2-11.74c-1.3-2.44-3.7-3.67-7.19-3.67s-5.89,1.23-7.2,3.67-2,6.35-2,11.74S237.47,234.77,238.76,237.06Z"/><path class="cls-2" d="M274.57,248.35v-46H290l7.85,33.23,7.85-33.23H321v46h-9v-35.2h-1l-8.7,32.45h-9l-8.7-32.45h-1v35.2Z"/><path class="cls-2" d="M333.12,202.3h17.46a16.39,16.39,0,0,1,10.4,3.56q3.48,2.77,3.47,9a13.2,13.2,0,0,1-1.11,5.92,10.2,10.2,0,0,1-3.8,3.9,8.89,8.89,0,0,1,4.36,3.59,12.91,12.91,0,0,1,1.4,6.55q0,6.47-3.79,9.61a16.54,16.54,0,0,1-10.66,3.93H333.12Zm17,8.5h-8v10.6h8q5.1,0,5.1-5.3T350.13,210.8Zm.26,18.18h-8.24v10.86h8.24a6.73,6.73,0,0,0,4.35-1.17c.93-.79,1.4-2.23,1.4-4.32Q356.14,229,350.39,229Z"/><path class="cls-2" d="M177.63,191.77V201l19.84,0v47.4h9V201l19.83,0v-9.14Z"/><path class="cls-2" d="M326.39,154.06H72.4a37.7,37.7,0,0,0-37.7,37.71H364.09A37.7,37.7,0,0,0,326.39,154.06Z"/><path class="cls-3" d="M224.51,191h-45l-2.26-22.24a3.94,3.94,0,0,1,3.92-4.33h13.77l4.56,8.48,1-8.48h22.39a3.94,3.94,0,0,1,3.92,4.33Z"/><rect class="cls-2" width="200.6" height="100"/><path class="cls-1" d="M25.53,67.1H21.86v6.47H17.35v-23h8.18c5.27,0,7.91,3.34,7.91,8.49a8.26,8.26,0,0,1-2,6A7.87,7.87,0,0,1,25.53,67.1Zm-3.67-3.86h3.63q3.38,0,3.37-4.19a5.84,5.84,0,0,0-.82-3,3.14,3.14,0,0,0-2.55-1.67H21.86Z"/><path class="cls-1" d="M35.34,73.57l5-23h8.57l5,23H49.4l-.88-4H40.73l-.88,4Zm8.5-19.28L41.58,65.62h6.09L45.41,54.29Z"/><path class="cls-1" d="M58.1,73.57v-23h4.51v23Z"/><path class="cls-1" d="M68.66,73.57v-23h7.63l5.36,19.1H82V50.55h4.51v23H79.07l-5.56-19.1h-.33v19.1Z"/><path class="cls-1" d="M130.14,70.81c-1.38,1.84-3.77,2.76-7.15,2.76s-5.76-.92-7.14-2.76-2.08-4.73-2.08-8.65.69-6.84,2.08-8.75,3.76-2.86,7.14-2.86,5.77,1,7.15,2.86,2.08,4.82,2.08,8.75S131.53,69,130.14,70.81Zm-10.76-2.88c.64,1.14,1.85,1.72,3.61,1.72s3-.58,3.62-1.72,1-3.06,1-5.76a13,13,0,0,0-1-5.87,4.45,4.45,0,0,0-7.19,0,13,13,0,0,0-1,5.87C118.42,64.87,118.74,66.78,119.38,67.93Z"/><path class="cls-1" d="M137.29,73.57v-23H145l3.93,16.61,3.92-16.61h7.69v23H156V56h-.49L151.15,72.2h-4.51L142.29,56h-.49v17.6Z"/><path class="cls-1" d="M166.56,50.55h8.73a8.17,8.17,0,0,1,5.2,1.78,5.42,5.42,0,0,1,1.74,4.5,6.61,6.61,0,0,1-.56,3,5.08,5.08,0,0,1-1.9,1.94,4.53,4.53,0,0,1,2.18,1.8,6.41,6.41,0,0,1,.7,3.27,5.87,5.87,0,0,1-1.9,4.81,8.22,8.22,0,0,1-5.33,2h-8.86Zm8.5,4.25h-4v5.3h4c1.7,0,2.55-.89,2.55-2.65S176.79,54.8,175.06,54.8Zm.13,9.09h-4.12v5.43h4.12a3.38,3.38,0,0,0,2.18-.59,2.7,2.7,0,0,0,.7-2.16C178.07,64.78,177.11,63.89,175.19,63.89Z"/><path class="cls-1" d="M88.82,45.28v4.61l9.92,0v23.7h4.51V49.87l9.92,0V45.28Z"/><path class="cls-1" d="M163.19,26.43H36.2A18.85,18.85,0,0,0,17.35,45.28h164.7A18.85,18.85,0,0,0,163.19,26.43Z"/><path class="cls-2" d="M112.25,44.9H89.73L88.6,33.79a2,2,0,0,1,2-2.17h6.89l2.27,4.24.51-4.24h11.19a2,2,0,0,1,2,2.17Z"/><rect class="cls-1" x="200.6" y="0.3" width="199.4" height="99.7"/><path class="cls-2" d="M226.05,67.19H222.4v6.46h-4.5V50.71h8.15c5.26,0,7.89,3.33,7.89,8.46a8.19,8.19,0,0,1-2,6A7.84,7.84,0,0,1,226.05,67.19Zm-3.65-3.84H226q3.36,0,3.36-4.18a5.79,5.79,0,0,0-.82-3A3.13,3.13,0,0,0,226,54.56H222.4Z"/><path class="cls-2" d="M235.83,73.65l5-22.94h8.55l5,22.94h-4.5l-.88-4h-7.77l-.88,4Zm8.48-19.22-2.25,11.3h6.07l-2.25-11.3Z"/><path class="cls-2" d="M258.53,73.65v-23H263v23Z"/><path class="cls-2" d="M269.06,73.65v-23h7.6l5.35,19h.32v-19h4.5v23h-7.4l-5.54-19h-.33v19Z"/><path class="cls-2" d="M330.35,70.9q-2.07,2.75-7.12,2.75T316.1,70.9Q314,68.14,314,62.27t2.07-8.72q2.07-2.85,7.13-2.85t7.12,2.85q2.07,2.85,2.07,8.72T330.35,70.9ZM319.62,68c.65,1.14,1.85,1.71,3.61,1.71s3-.57,3.6-1.71,1-3.06,1-5.74a13,13,0,0,0-1-5.86,4.44,4.44,0,0,0-7.17,0,13.11,13.11,0,0,0-1,5.86Q318.66,66.31,319.62,68Z"/><path class="cls-2" d="M337.48,73.65v-23h7.66l3.91,16.56L353,50.7h7.66v23h-4.5V56.11h-.49L351.3,72.28h-4.5l-4.33-16.17H342V73.65Z"/><path class="cls-2" d="M366.66,50.7h8.71a8.18,8.18,0,0,1,5.18,1.77A5.43,5.43,0,0,1,382.28,57a6.59,6.59,0,0,1-.56,2.95,5,5,0,0,1-1.89,1.94A4.43,4.43,0,0,1,382,63.64a6.34,6.34,0,0,1,.7,3.26,5.86,5.86,0,0,1-1.89,4.79,8.18,8.18,0,0,1-5.31,2h-8.84Zm8.48,4.23h-4v5.29h4c1.7,0,2.54-.88,2.54-2.64S376.86,54.93,375.14,54.93Zm.13,9.07h-4.11v5.41h4.11a3.29,3.29,0,0,0,2.17-.59,2.71,2.71,0,0,0,.7-2.15C378.14,64.89,377.18,64,375.27,64Z"/><path class="cls-2" d="M289.15,45.45V50H299V73.65h4.5V50l9.89,0V45.45Z"/><path class="cls-2" d="M363.3,26.65H236.7a18.8,18.8,0,0,0-18.8,18.8H382.1A18.8,18.8,0,0,0,363.3,26.65Z"/><path class="cls-1" d="M312.52,45.07H290.06L288.94,34a2,2,0,0,1,1.95-2.17h6.87L300,36.05l.5-4.23h11.16A2,2,0,0,1,313.64,34Z"/></g></g></svg>