<svg xmlns="http://www.w3.org/2000/svg" viewBox="0 0 1488.05 1601.58"><defs><style>.cls-1,.cls-4{fill:#e63e44;}.cls-2{fill:#fff;}.cls-3{font-size:72px;font-family:JosefinSans-Bold, Josefin Sans;font-weight:700;}.cls-4,.cls-5{font-size:60px;font-family:JosefinSans-SemiBold, Josefin Sans;}.cls-6{letter-spacing:-0.12em;}.cls-7{letter-spacing:-0.02em;}.cls-8{letter-spacing:-0.02em;}.cls-9{letter-spacing:-0.01em;}.cls-10{letter-spacing:0em;}.cls-11{letter-spacing:-0.1em;}.cls-12{letter-spacing:-0.02em;}.cls-13{letter-spacing:0em;}.cls-14{letter-spacing:-0.03em;}.cls-15{letter-spacing:-0.12em;}</style></defs><title>parcour_1</title><g id="Calque_2" data-name="Calque 2"><g id="Calque_1-2" data-name="Calque 1"><polygon class="cls-1" points="141.84 745.94 141.84 67.33 141.84 67.33 97.58 0 53.33 67.33 53.33 745.94 141.84 834.45 1346.2 834.46 1346.2 1513.06 53.33 1513.06 53.33 1601.58 1346.2 1601.58 1434.72 1513.06 1434.72 834.46 1346.2 745.94 141.84 745.94"/><polygon class="cls-2" points="14.36 406.64 97.58 280.02 180.81 406.64 97.58 533.25 14.36 406.64"/><path class="cls-1" d="M97.58,301.87l68.87,104.77L97.58,511.41,28.72,406.64,97.58,301.87m0-43.7-20,30.51L8.66,393.45,0,406.64l8.66,13.18L77.53,524.59l20,30.51,20.06-30.51L186.5,419.82l8.67-13.18-8.67-13.19L117.64,288.68,97.58,258.17Z"/><polygon class="cls-2" points="1307.24 1173.76 1390.46 1047.14 1473.69 1173.76 1390.46 1300.38 1307.24 1173.76"/><path class="cls-1" d="M1390.46,1069l68.87,104.77-68.87,104.77-68.86-104.77L1390.46,1069m0-43.7-20,30.52-68.87,104.77-8.66,13.18,8.66,13.18,68.87,104.77,20,30.51,20.06-30.51,68.86-104.77,8.67-13.18-8.67-13.18-68.86-104.77-20.06-30.52Z"/><text class="cls-3" transform="translate(236.44 358.44)">DUT MMI<tspan class="cls-1" x="336.17" y="0"> </tspan><tspan class="cls-4"><tspan x="0" y="72">(Métiers du Multimédia et de l’Internet)</tspan></tspan><tspan class="cls-5"><tspan x="0" y="144">Saint-Dié-des-</tspan><tspan class="cls-6" x="385.43" y="144">V</tspan><tspan x="421.91" y="144">osges</tspan></tspan></text><text class="cls-3" transform="translate(70.01 1085.03)">L<tspan class="cls-7" x="46.15" y="0">y</tspan><tspan x="83.52" y="0">cée Ma</tspan><tspan class="cls-8" x="333.5" y="0">r</tspan><tspan x="361.58" y="0">gueritte Bac S/SVT/ISN</tspan><tspan class="cls-4"><tspan x="33.76" y="72">(Sciences et </tspan><tspan class="cls-9" x="380.98" y="72">V</tspan><tspan class="cls-10" x="424.06" y="72">ie de la </tspan><tspan class="cls-11" x="649.71" y="72">T</tspan><tspan x="678.45" y="72">er</tspan><tspan class="cls-12" x="733.83" y="72">r</tspan><tspan class="cls-13" x="756.09" y="72">e / In</tspan><tspan class="cls-14" x="903.57" y="72">f</tspan><tspan x="926.13" y="72">ormation </tspan><tspan x="455.67" y="144">et Science du Numérique)</tspan></tspan><tspan class="cls-5"><tspan class="cls-15" x="980.01" y="216">V</tspan><tspan x="1016.48" y="216">e</tspan><tspan class="cls-12" x="1048.46" y="216">r</tspan><tspan x="1070.73" y="216">dun</tspan></tspan></text></g></g></svg>