<svg xmlns="http://www.w3.org/2000/svg" xmlns:xlink="http://www.w3.org/1999/xlink" viewBox="0 0 399.25 399.25"><defs><style>.cls-1{fill:#fff;}.cls-2{fill:#1e1e1e;}.cls-3{fill:url(#Dégradé_sans_nom_60);}.cls-4{fill:url(#Dégradé_sans_nom_60-2);}</style><linearGradient id="Dégradé_sans_nom_60" x1="161.41" y1="128.81" x2="144.83" y2="75.64" gradientUnits="userSpaceOnUse"><stop offset="0" stop-color="#1e1e1e"/><stop offset="1"/></linearGradient><linearGradient id="Dégradé_sans_nom_60-2" x1="238.06" y1="139.66" x2="258.45" y2="90.99" xlink:href="#Dégradé_sans_nom_60"/></defs><title>rabbon_1</title><g id="Calque_2" data-name="Calque 2"><g id="Calque_1-2" data-name="Calque 1"><rect class="cls-1" width="399.25" height="399.25"/><circle class="cls-2" cx="199.92" cy="228.3" r="64.26"/><path class="cls-2" d="M198.13,174.87c-3.13-20.14-6.85-40.67-10.81-55.07-1.23-4.48-3.24-8.65-4.63-12.87-12.07-36.55-65.59-15.5-47.3,18.57,9.09,16.94,21.46,42.59,31.68,67.35C176.82,216.49,203.45,209.21,198.13,174.87Z"/><path class="cls-2" d="M200.63,182.32c2.82-16.28,6.11-32.4,9.62-44,1.2-4,5.83-12.53,7.18-16.28,23.89-66.39,62.82-7.48,48.14,15.08C255.66,152.35,242.2,178.8,231,203.5,221.39,224.81,195.12,214.22,200.63,182.32Z"/><circle cx="133.44" cy="43.27" r="12.2"/><circle cx="158.88" cy="63.32" r="18.49"/><path class="cls-1" d="M125.82,44.64a1.37,1.37,0,0,1-1.37-1.37,9,9,0,0,1,9-9,1.38,1.38,0,0,1,0,2.75,6.25,6.25,0,0,0-6.24,6.24A1.37,1.37,0,0,1,125.82,44.64Z"/><circle class="cls-3" cx="153.12" cy="102.23" r="27.84"/><path class="cls-1" d="M135.75,105.27a3,3,0,0,1-3-3,20.43,20.43,0,0,1,20.41-20.41,3,3,0,0,1,0,6.08,14.34,14.34,0,0,0-14.33,14.33A3,3,0,0,1,135.75,105.27Z"/><path class="cls-1" d="M147.35,65.41a2.09,2.09,0,0,1-2.09-2.09A13.64,13.64,0,0,1,158.88,49.7a2.09,2.09,0,1,1,0,4.17,9.45,9.45,0,0,0-9.44,9.45A2.09,2.09,0,0,1,147.35,65.41Z"/><circle cx="241.32" cy="84.83" r="17.52"/><path class="cls-1" d="M230.39,86.81a2,2,0,0,1-2-2,12.92,12.92,0,0,1,12.91-12.9,2,2,0,1,1,0,3.95,9,9,0,0,0-8.95,9A2,2,0,0,1,230.39,86.81Z"/><circle cx="266.46" cy="64.18" r="11.56"/><path class="cls-1" d="M259.24,65.48a1.3,1.3,0,0,1-1.3-1.3,8.53,8.53,0,0,1,8.52-8.52,1.31,1.31,0,0,1,0,2.61,5.92,5.92,0,0,0-5.91,5.91A1.31,1.31,0,0,1,259.24,65.48Z"/><circle class="cls-4" cx="247.8" cy="116.43" r="26.38"/><path class="cls-1" d="M231.34,116.43a2.88,2.88,0,0,1-2.88-2.88A19.37,19.37,0,0,1,247.8,94.21a2.88,2.88,0,0,1,0,5.76,13.59,13.59,0,0,0-13.58,13.58A2.88,2.88,0,0,1,231.34,116.43Z"/><path class="cls-1" d="M214,237.26c0,4.56-6.41,12-14.33,12s-14.34-7.4-14.34-12,6.42-4.54,14.34-4.54S214,232.7,214,237.26Z"/><path class="cls-1" d="M214.78,269.62c-10.22,0-17.62-14-17.62-23.36a2.52,2.52,0,0,1,5,0c0,7.66,6.34,18.32,12.58,18.32a12.51,12.51,0,0,0,12.47-12.53,2.52,2.52,0,1,1,5,0A17.56,17.56,0,0,1,214.78,269.62Z"/><path class="cls-1" d="M184.58,269.62c-9.56,0-17-7.72-17-17.57a2.52,2.52,0,0,1,5,0c0,7,5.27,12.53,12,12.53,6.24,0,12.58-10.66,12.58-18.32a2.52,2.52,0,0,1,5,0C202.2,255.66,194.8,269.62,184.58,269.62Z"/><path class="cls-2" d="M152.21,329.23a2.65,2.65,0,0,1-1.06,2.15,4,4,0,0,1-4.28.42,3.92,3.92,0,0,1-1.44-1.32l-5.22-7.63a4.19,4.19,0,0,0-1.19-1.19,2.76,2.76,0,0,0-1.46-.38H135v7.19a3.64,3.64,0,0,1-1,2.67,3.51,3.51,0,0,1-2.65,1,3.6,3.6,0,0,1-2.67-1,3.64,3.64,0,0,1-1-2.67V307a3.09,3.09,0,0,1,3.41-3.42h10.08c3.43,0,6,.75,7.73,2.23a8,8,0,0,1,2.59,6.45,8.48,8.48,0,0,1-1.77,5.44,8.66,8.66,0,0,1-5,3,5.37,5.37,0,0,1,2.3.88,8.22,8.22,0,0,1,1.95,2.05l2.49,3.58A3.72,3.72,0,0,1,152.21,329.23ZM143.52,315a2.86,2.86,0,0,0,1.07-2.49,3,3,0,0,0-1.07-2.55,6.06,6.06,0,0,0-3.51-.79h-5.14v6.59H140A6.17,6.17,0,0,0,143.52,315Z"/><path class="cls-2" d="M171.31,313.83q2.19,2.19,2.19,6.65v8.39a3.11,3.11,0,0,1-.91,2.39,3.46,3.46,0,0,1-2.51.86,3.31,3.31,0,0,1-2.3-.8,3,3,0,0,1-1-2.17,4.35,4.35,0,0,1-1.89,2.25,6,6,0,0,1-3.17.8,8.1,8.1,0,0,1-3.69-.82,6.41,6.41,0,0,1-2.59-2.29,6,6,0,0,1-.95-3.31,4.94,4.94,0,0,1,1.11-3.39,6.4,6.4,0,0,1,3.51-1.83,29.61,29.61,0,0,1,6.51-.56h1.08v-.48a2.72,2.72,0,0,0-.64-2,3,3,0,0,0-2.17-.63,16,16,0,0,0-4.82,1.13,5.07,5.07,0,0,1-1.56.32,2,2,0,0,1-1.61-.72,2.87,2.87,0,0,1-.6-1.89,2.66,2.66,0,0,1,.36-1.45,3.15,3.15,0,0,1,1.16-1,14,14,0,0,1,3.54-1.16,20.14,20.14,0,0,1,4.17-.45Q169.12,311.64,171.31,313.83Zm-5.52,12.57a3.8,3.8,0,0,0,.92-2.63v-.48h-.64a10.26,10.26,0,0,0-3.66.46,1.59,1.59,0,0,0-1.08,1.55,2.09,2.09,0,0,0,.58,1.52,2,2,0,0,0,1.51.61A3.07,3.07,0,0,0,165.79,326.4Z"/><path class="cls-2" d="M195.14,312.89a8.29,8.29,0,0,1,3.07,3.55,12.25,12.25,0,0,1,1.11,5.36,12.59,12.59,0,0,1-1.11,5.42,8.57,8.57,0,0,1-3.09,3.68,8,8,0,0,1-4.52,1.3,7.92,7.92,0,0,1-3.59-.8,5.73,5.73,0,0,1-2.47-2.21,3,3,0,0,1-1.06,2.15,3.77,3.77,0,0,1-2.47.78,3.54,3.54,0,0,1-2.55-.9,3.16,3.16,0,0,1-1-2.39V306.58a3,3,0,0,1,1-2.31,3.82,3.82,0,0,1,2.65-.9,3.73,3.73,0,0,1,2.53.84,2.87,2.87,0,0,1,1,2.25v8a6.19,6.19,0,0,1,2.47-2,7.91,7.91,0,0,1,3.47-.77A8.3,8.3,0,0,1,195.14,312.89Zm-3.89,12.67a6.06,6.06,0,0,0,1-3.76,5.68,5.68,0,0,0-1-3.57,3.4,3.4,0,0,0-2.83-1.25,3.5,3.5,0,0,0-2.9,1.27,5.71,5.71,0,0,0-1,3.63,5.91,5.91,0,0,0,1,3.7,3.8,3.8,0,0,0,5.71,0Z"/><path d="M232.11,330.94a9.11,9.11,0,0,1-3.81-3.59,10.74,10.74,0,0,1-1.35-5.47,10.61,10.61,0,0,1,1.35-5.44,9,9,0,0,1,3.79-3.55,13.83,13.83,0,0,1,11.49,0,9,9,0,0,1,3.79,3.55,10.61,10.61,0,0,1,1.35,5.44,10.74,10.74,0,0,1-1.35,5.47,9.06,9.06,0,0,1-3.79,3.59,13.68,13.68,0,0,1-11.47,0Zm9.54-9.06q0-5-3.81-5t-3.82,5q0,5,3.82,5T241.65,321.88Z"/><path d="M269.86,313.75c1.15,1.41,1.73,3.54,1.73,6.41v8.67a3.12,3.12,0,0,1-1,2.41,4.31,4.31,0,0,1-5.22,0,3.11,3.11,0,0,1-1-2.41v-8.35a4.16,4.16,0,0,0-.63-2.57,2.19,2.19,0,0,0-1.86-.81,3.31,3.31,0,0,0-2.55,1,3.89,3.89,0,0,0-.95,2.75v7.95a3.11,3.11,0,0,1-1,2.41,4.31,4.31,0,0,1-5.22,0,3.11,3.11,0,0,1-1-2.41V314.94a3,3,0,0,1,1-2.31,3.72,3.72,0,0,1,2.61-.91,3.42,3.42,0,0,1,2.43.85,2.89,2.89,0,0,1,.9,2.21,6.86,6.86,0,0,1,2.69-2.33,8.19,8.19,0,0,1,3.66-.81A6.43,6.43,0,0,1,269.86,313.75Z"/><path d="M161.79,352.58a2.64,2.64,0,0,1,.79,2v7a12,12,0,0,1-.3,3.07,3.17,3.17,0,0,1-1.09,1.67,7,7,0,0,1-2.35,1,24.58,24.58,0,0,1-3.47.62,30.44,30.44,0,0,1-3.56.22,17.33,17.33,0,0,1-8-1.74,12.23,12.23,0,0,1-5.2-5,15.88,15.88,0,0,1-1.81-7.77A15.7,15.7,0,0,1,138.6,346a12.42,12.42,0,0,1,5.14-5,16.37,16.37,0,0,1,7.79-1.77,17.69,17.69,0,0,1,5,.66,14.35,14.35,0,0,1,4.16,2,3.1,3.1,0,0,1,1,1.05,3,3,0,0,1,.3,1.44,3.28,3.28,0,0,1-.68,2.11,2,2,0,0,1-1.64.86,3.07,3.07,0,0,1-1.11-.18,7.27,7.27,0,0,1-1.18-.62,14.21,14.21,0,0,0-2.79-1.16,10.72,10.72,0,0,0-2.84-.37q-3.81,0-5.68,2.13c-1.24,1.42-1.87,3.6-1.87,6.55s.65,5.27,1.95,6.72,3.29,2.19,6,2.19a18.15,18.15,0,0,0,3.82-.4V356.9h-2.89a2.94,2.94,0,0,1-2.05-.66,2.4,2.4,0,0,1-.72-1.87,2.43,2.43,0,0,1,.72-1.87,2.94,2.94,0,0,1,2.05-.66h6.63A2.94,2.94,0,0,1,161.79,352.58Z"/><path d="M182.87,349.77q2.19,2.19,2.19,6.65v8.39a3.14,3.14,0,0,1-.9,2.39,3.46,3.46,0,0,1-2.51.86,3.32,3.32,0,0,1-2.31-.8,3,3,0,0,1-1-2.17,4.45,4.45,0,0,1-1.89,2.25,6,6,0,0,1-3.17.81,8.15,8.15,0,0,1-3.7-.83A6.47,6.47,0,0,1,167,365a6,6,0,0,1-.94-3.31,5,5,0,0,1,1.1-3.39,6.43,6.43,0,0,1,3.52-1.83,29.45,29.45,0,0,1,6.5-.56h1.09v-.48a2.72,2.72,0,0,0-.65-2,3,3,0,0,0-2.16-.62,15.86,15.86,0,0,0-4.82,1.12,5.07,5.07,0,0,1-1.57.32,2,2,0,0,1-1.61-.72,2.86,2.86,0,0,1-.6-1.89,2.66,2.66,0,0,1,.36-1.45,3.2,3.2,0,0,1,1.17-1,13.9,13.9,0,0,1,3.53-1.16,20.14,20.14,0,0,1,4.18-.44C179.16,347.59,181.42,348.31,182.87,349.77Zm-5.52,12.57a3.76,3.76,0,0,0,.93-2.63v-.48h-.65a10.16,10.16,0,0,0-3.65.46,1.59,1.59,0,0,0-1.08,1.55,2.09,2.09,0,0,0,.58,1.52,2,2,0,0,0,1.5.61A3,3,0,0,0,177.35,362.34Z"/><path d="M219.32,349.53q1.76,2,1.76,6.57v8.67a3,3,0,0,1-1,2.47,4.37,4.37,0,0,1-5.1,0,3,3,0,0,1-1-2.47v-8.83a3.42,3.42,0,0,0-.57-2.25,2,2,0,0,0-1.64-.64,2.78,2.78,0,0,0-2.25,1,4.19,4.19,0,0,0-.85,2.77v7.95a3,3,0,0,1-1,2.47,4.41,4.41,0,0,1-5.12,0,3,3,0,0,1-1-2.47v-8.83a3.49,3.49,0,0,0-.56-2.25,2.08,2.08,0,0,0-1.65-.64,2.73,2.73,0,0,0-2.23,1,4.24,4.24,0,0,0-.82,2.77v7.95a3,3,0,0,1-1,2.47,4.37,4.37,0,0,1-5.1,0,3,3,0,0,1-1-2.47V350.88a2.83,2.83,0,0,1,1.06-2.39,4,4,0,0,1,2.55-.82,3.65,3.65,0,0,1,2.35.74,2.68,2.68,0,0,1,1,2.15,6.72,6.72,0,0,1,6-3c2.86,0,4.78,1.16,5.74,3.49a7.4,7.4,0,0,1,2.69-2.55,7.7,7.7,0,0,1,3.82-.94A6.42,6.42,0,0,1,219.32,349.53Z"/><path d="M242.67,362.2a2.9,2.9,0,0,1,.58,1.89,2.65,2.65,0,0,1-1.57,2.45,15.35,15.35,0,0,1-3.23,1.14,14.28,14.28,0,0,1-3.43.47,12.49,12.49,0,0,1-5.74-1.25,8.82,8.82,0,0,1-3.78-3.57,10.94,10.94,0,0,1-1.32-5.47,11.09,11.09,0,0,1,1.26-5.32,9.12,9.12,0,0,1,3.53-3.65,10.1,10.1,0,0,1,5.12-1.3,9.57,9.57,0,0,1,4.86,1.2,8.2,8.2,0,0,1,3.24,3.41,11.17,11.17,0,0,1,1.14,5.18,2.18,2.18,0,0,1-.42,1.43,1.53,1.53,0,0,1-1.23.5h-10.6a4.41,4.41,0,0,0,1.25,2.77,4.22,4.22,0,0,0,2.85.85,7.21,7.21,0,0,0,1.85-.23,15.74,15.74,0,0,0,1.88-.62c.4-.16.8-.3,1.19-.42a3.62,3.62,0,0,1,1.06-.18A1.85,1.85,0,0,1,242.67,362.2Zm-10.62-8.89a4.31,4.31,0,0,0-1,2.63h6.31q-.24-3.54-3.06-3.54A2.9,2.9,0,0,0,232.05,353.31Z"/><path d="M249.84,367.74a9.88,9.88,0,0,1-3.26-1.28,2,2,0,0,1-.88-1,3.5,3.5,0,0,1-.32-1.53,2.71,2.71,0,0,1,.58-1.79,1.83,1.83,0,0,1,1.47-.7,4.46,4.46,0,0,1,1.12.14,10.44,10.44,0,0,1,1.29.46c.85.3,1.61.52,2.26.68a10.34,10.34,0,0,0,2.51.25,4,4,0,0,0,1.71-.31.92.92,0,0,0,.62-.86.83.83,0,0,0-.3-.68,3.19,3.19,0,0,0-1.14-.46c-.56-.15-1.52-.36-2.85-.63a11,11,0,0,1-5.16-2.06,4.93,4.93,0,0,1-1.59-3.92,5.33,5.33,0,0,1,1.14-3.33,7.63,7.63,0,0,1,3.16-2.33,11.48,11.48,0,0,1,4.49-.84,13.75,13.75,0,0,1,3.52.44,11.19,11.19,0,0,1,3,1.24,2.49,2.49,0,0,1,1.24,2.33,3,3,0,0,1-.6,1.89,1.81,1.81,0,0,1-1.48.76,6.07,6.07,0,0,1-2.49-.68,12.15,12.15,0,0,0-1.71-.66,6.09,6.09,0,0,0-1.75-.23,3.19,3.19,0,0,0-1.56.31.92.92,0,0,0-.56.86,1.11,1.11,0,0,0,.78,1,16.17,16.17,0,0,0,3.11.81,11.66,11.66,0,0,1,5.5,2.06,5,5,0,0,1,1.61,4,5.48,5.48,0,0,1-2.43,4.68,11,11,0,0,1-6.53,1.75A21.49,21.49,0,0,1,249.84,367.74Z"/><path d="M220,312.89a8.29,8.29,0,0,1,3.07,3.55,12.25,12.25,0,0,1,1.11,5.36,12.59,12.59,0,0,1-1.11,5.42,8.57,8.57,0,0,1-3.09,3.68,8,8,0,0,1-4.52,1.3,7.92,7.92,0,0,1-3.59-.8,5.68,5.68,0,0,1-2.47-2.21,3,3,0,0,1-1.06,2.15,3.78,3.78,0,0,1-2.48.78,3.5,3.5,0,0,1-2.54-.9,3.16,3.16,0,0,1-.95-2.39V306.58a3,3,0,0,1,1-2.31,3.8,3.8,0,0,1,2.65-.9,3.73,3.73,0,0,1,2.53.84,2.87,2.87,0,0,1,1,2.25v8a6.19,6.19,0,0,1,2.47-2,7.88,7.88,0,0,1,3.47-.77A8.3,8.3,0,0,1,220,312.89Zm-3.9,12.67a6.06,6.06,0,0,0,1-3.76,5.62,5.62,0,0,0-1-3.57,3.39,3.39,0,0,0-2.83-1.25,3.5,3.5,0,0,0-2.89,1.27,5.71,5.71,0,0,0-1,3.63,5.91,5.91,0,0,0,1,3.7,3.39,3.39,0,0,0,2.85,1.28A3.36,3.36,0,0,0,216.06,325.56Z"/></g></g></svg>