<svg xmlns="http://www.w3.org/2000/svg" xmlns:xlink="http://www.w3.org/1999/xlink" viewBox="0 0 88.28 170.85"><defs><style>.cls-1{fill:#1e1e1e;}.cls-2{fill:#fff;}.cls-3{fill:url(#Dégradé_sans_nom_60);}.cls-4{fill:url(#Dégradé_sans_nom_60-2);}</style><linearGradient id="Dégradé_sans_nom_60" x1="76.15" y1="37.44" x2="67.97" y2="11.2" gradientUnits="userSpaceOnUse"><stop offset="0" stop-color="#1e1e1e"/><stop offset="1"/></linearGradient><linearGradient id="Dégradé_sans_nom_60-2" x1="12.4" y1="46.94" x2="16.32" y2="19.74" xlink:href="#Dégradé_sans_nom_60"/></defs><title>rabbongames</title><g id="Calque_2" data-name="Calque 2"><g id="Calque_7" data-name="Calque 7"><path class="cls-1" d="M88.28,47.48c0-24.95-6-23.32-13.39-23.32S61.51,22.53,61.51,47.48c0,2.38.06,4.72.16,7a71,71,0,0,0-17.23-2,71,71,0,0,0-17.22,2c.1-2.28.16-4.62.16-7,0-13.91-1.87-4.12-4.79-12.41a8.05,8.05,0,0,1-6.39-3.19,8.07,8.07,0,0,1-6.67,3.53,7.68,7.68,0,0,1-1.93-.25,5.8,5.8,0,0,1,.46,2.25A5.77,5.77,0,0,1,3.18,43.1C2.31,36,.61,37.53.61,47.48A130.38,130.38,0,0,0,3,73.29,35,35,0,0,0,.61,86.54c0,24.2,18.64,36.95,42.85,36.95s44.82-12.75,44.82-36.95a35,35,0,0,0-2.4-13.25A130.38,130.38,0,0,0,88.28,47.48Z"/><path class="cls-2" d="M54.21,88.05c0,3-4.27,8-9.53,8s-9.54-4.92-9.54-8,4.27-3,9.54-3S54.21,85,54.21,88.05Z"/><path class="cls-2" d="M54.72,109.58C47.92,109.58,43,100.3,43,94a1.68,1.68,0,1,1,3.35,0c0,5.09,4.22,12.19,8.37,12.19A8.33,8.33,0,0,0,63,97.89a1.68,1.68,0,0,1,3.35,0A11.68,11.68,0,0,1,54.72,109.58Z"/><path class="cls-2" d="M34.63,109.58A11.39,11.39,0,0,1,23.3,97.89a1.68,1.68,0,0,1,3.35,0,8.08,8.08,0,0,0,8,8.34c4.15,0,8.37-7.1,8.37-12.19a1.68,1.68,0,1,1,3.35,0C46.35,100.3,41.43,109.58,34.63,109.58Z"/><circle cx="17.46" cy="21.8" r="9.13"/><path class="cls-2" d="M11.77,22.83a1,1,0,0,1-1-1,6.73,6.73,0,0,1,6.72-6.73,1,1,0,0,1,0,2.06A4.67,4.67,0,0,0,12.8,21.8,1,1,0,0,1,11.77,22.83Z"/><circle cx="10.74" cy="9.49" r="6.02"/><path class="cls-2" d="M7,10.17a.67.67,0,0,1-.68-.68,4.44,4.44,0,0,1,4.44-4.43.68.68,0,1,1,0,1.35A3.08,3.08,0,0,0,7.66,9.49.67.67,0,0,1,7,10.17Z"/><circle cx="62.7" cy="18.16" r="9.13"/><path class="cls-2" d="M57,19.19a1,1,0,0,1-1-1,6.73,6.73,0,0,1,6.72-6.72,1,1,0,0,1,0,2.06A4.66,4.66,0,0,0,58,18.16,1,1,0,0,1,57,19.19Z"/><circle cx="75.31" cy="6.02" r="6.02"/><path class="cls-2" d="M71.55,6.7A.68.68,0,0,1,70.87,6a4.44,4.44,0,0,1,4.44-4.43.68.68,0,1,1,0,1.35A3.08,3.08,0,0,0,72.23,6,.67.67,0,0,1,71.55,6.7Z"/><circle class="cls-3" cx="73.57" cy="29.16" r="13.74"/><circle class="cls-4" cx="13.74" cy="37.63" r="13.74"/><path class="cls-2" d="M65,30.66a1.5,1.5,0,0,1-1.5-1.5A10.08,10.08,0,0,1,73.57,19.09a1.5,1.5,0,0,1,0,3,7.08,7.08,0,0,0-7.07,7.07A1.5,1.5,0,0,1,65,30.66Z"/><path class="cls-2" d="M5.17,39.13a1.5,1.5,0,0,1-1.5-1.5A10.08,10.08,0,0,1,13.74,27.56a1.5,1.5,0,0,1,0,3,7.08,7.08,0,0,0-7.07,7.07A1.5,1.5,0,0,1,5.17,39.13Z"/><path class="cls-1" d="M16.19,147.57a1.59,1.59,0,0,1-.64,1.29,2.27,2.27,0,0,1-1.47.51,2.33,2.33,0,0,1-1.08-.26,2.42,2.42,0,0,1-.87-.79L9,143.76a2.49,2.49,0,0,0-.7-.71,1.67,1.67,0,0,0-.88-.23H5.87v4.3a2.15,2.15,0,0,1-.58,1.59,2.07,2.07,0,0,1-1.58.59,2.15,2.15,0,0,1-1.6-.59,2.15,2.15,0,0,1-.58-1.59V134.28a2,2,0,0,1,.52-1.51,2,2,0,0,1,1.52-.53h6a6.9,6.9,0,0,1,4.62,1.33,4.81,4.81,0,0,1,1.55,3.85,5,5,0,0,1-1.06,3.25,5.12,5.12,0,0,1-3,1.79,3.34,3.34,0,0,1,1.38.53,4.89,4.89,0,0,1,1.16,1.22l1.49,2.14A2.21,2.21,0,0,1,16.19,147.57ZM11,139.05a1.69,1.69,0,0,0,.64-1.49A1.75,1.75,0,0,0,11,136a3.62,3.62,0,0,0-2.1-.47H5.82v3.94H8.89A3.63,3.63,0,0,0,11,139.05Z"/><path class="cls-1" d="M27.6,138.37a5.4,5.4,0,0,1,1.31,4v5a1.85,1.85,0,0,1-.54,1.42,2.06,2.06,0,0,1-1.5.52,2,2,0,0,1-1.38-.48,1.79,1.79,0,0,1-.59-1.3,2.63,2.63,0,0,1-1.13,1.35,3.56,3.56,0,0,1-1.89.48,5,5,0,0,1-2.21-.49,3.9,3.9,0,0,1-1.55-1.37,3.65,3.65,0,0,1-.56-2,3,3,0,0,1,.66-2,3.87,3.87,0,0,1,2.1-1.09,17.4,17.4,0,0,1,3.89-.34h.64v-.28a1.62,1.62,0,0,0-.38-1.22,1.89,1.89,0,0,0-1.3-.37,9.53,9.53,0,0,0-2.88.67,2.84,2.84,0,0,1-.93.19,1.18,1.18,0,0,1-1-.43,1.7,1.7,0,0,1-.36-1.13,1.61,1.61,0,0,1,.21-.86,2,2,0,0,1,.7-.6,8.4,8.4,0,0,1,2.11-.7,12.72,12.72,0,0,1,2.5-.26A5.51,5.51,0,0,1,27.6,138.37Zm-3.3,7.51a2.25,2.25,0,0,0,.55-1.57V144h-.38a5.94,5.94,0,0,0-2.18.28.93.93,0,0,0-.65.92,1.22,1.22,0,0,0,.35.91,1.19,1.19,0,0,0,.9.36A1.81,1.81,0,0,0,24.3,145.88Z"/><path class="cls-1" d="M41.85,137.81a5,5,0,0,1,1.83,2.12,7.35,7.35,0,0,1,.66,3.2,7.56,7.56,0,0,1-.66,3.24,5.09,5.09,0,0,1-1.85,2.2,4.8,4.8,0,0,1-2.7.78,4.74,4.74,0,0,1-2.14-.48,3.47,3.47,0,0,1-1.48-1.32,1.79,1.79,0,0,1-.64,1.28,2.16,2.16,0,0,1-1.47.47,2.13,2.13,0,0,1-1.53-.54,1.9,1.9,0,0,1-.56-1.43V134a1.77,1.77,0,0,1,.6-1.38,2.28,2.28,0,0,1,1.58-.54,2.21,2.21,0,0,1,1.52.5,1.7,1.7,0,0,1,.57,1.34v4.78a3.67,3.67,0,0,1,1.48-1.22,4.62,4.62,0,0,1,2.07-.46A5,5,0,0,1,41.85,137.81Zm-2.33,7.57a3.63,3.63,0,0,0,.6-2.25,3.36,3.36,0,0,0-.59-2.13,2,2,0,0,0-1.69-.75,2.07,2.07,0,0,0-1.73.76,3.42,3.42,0,0,0-.6,2.17,3.53,3.53,0,0,0,.6,2.21,2.26,2.26,0,0,0,3.41,0Z"/><path d="M56.85,137.81a5,5,0,0,1,1.83,2.12,7.35,7.35,0,0,1,.66,3.2,7.56,7.56,0,0,1-.66,3.24,5.09,5.09,0,0,1-1.85,2.2,4.8,4.8,0,0,1-2.7.78,4.74,4.74,0,0,1-2.14-.48,3.47,3.47,0,0,1-1.48-1.32,1.79,1.79,0,0,1-.64,1.28,2.16,2.16,0,0,1-1.47.47,2.13,2.13,0,0,1-1.53-.54,1.9,1.9,0,0,1-.56-1.43V134a1.77,1.77,0,0,1,.6-1.38,2.28,2.28,0,0,1,1.58-.54,2.21,2.21,0,0,1,1.52.5,1.7,1.7,0,0,1,.57,1.34v4.78a3.67,3.67,0,0,1,1.48-1.22,4.62,4.62,0,0,1,2.07-.46A5,5,0,0,1,56.85,137.81Zm-2.33,7.57a3.63,3.63,0,0,0,.6-2.25,3.36,3.36,0,0,0-.59-2.13,2,2,0,0,0-1.69-.75,2.07,2.07,0,0,0-1.73.76,3.42,3.42,0,0,0-.6,2.17,3.53,3.53,0,0,0,.6,2.21,2.26,2.26,0,0,0,3.41,0Z"/><path d="M63.84,148.59a5.44,5.44,0,0,1-2.28-2.15,7,7,0,0,1,0-6.51,5.35,5.35,0,0,1,2.27-2.12,8.22,8.22,0,0,1,6.86,0A5.29,5.29,0,0,1,73,139.93a6.95,6.95,0,0,1,0,6.51,5.36,5.36,0,0,1-2.27,2.15,8.1,8.1,0,0,1-6.85,0Zm5.7-5.41c0-2-.76-3-2.28-3s-2.28,1-2.28,3,.76,3,2.28,3S69.54,145.16,69.54,143.18Z"/><path d="M86.8,138.32a6,6,0,0,1,1,3.83v5.18a1.83,1.83,0,0,1-.58,1.44,2.22,2.22,0,0,1-1.56.53,2.25,2.25,0,0,1-1.56-.53,1.86,1.86,0,0,1-.57-1.44v-5a2.55,2.55,0,0,0-.37-1.53,1.31,1.31,0,0,0-1.12-.49,2,2,0,0,0-1.52.62,2.31,2.31,0,0,0-.57,1.64v4.75a1.83,1.83,0,0,1-.58,1.44,2.55,2.55,0,0,1-3.11,0,1.83,1.83,0,0,1-.58-1.44V139a1.77,1.77,0,0,1,.6-1.38,2.24,2.24,0,0,1,1.56-.54,2.06,2.06,0,0,1,1.45.5,1.73,1.73,0,0,1,.54,1.32,4.08,4.08,0,0,1,1.61-1.39,4.91,4.91,0,0,1,2.18-.48A3.84,3.84,0,0,1,86.8,138.32Z"/><path d="M21.91,161.53a1.54,1.54,0,0,1,.47,1.19v4.17a7.15,7.15,0,0,1-.18,1.84,1.87,1.87,0,0,1-.65,1,4.3,4.3,0,0,1-1.4.62,15.91,15.91,0,0,1-2.08.37,18,18,0,0,1-2.12.13,10.29,10.29,0,0,1-4.79-1,7.32,7.32,0,0,1-3.11-3,10.42,10.42,0,0,1,0-9.24,7.39,7.39,0,0,1,3.08-3,9.7,9.7,0,0,1,4.65-1.06,10.3,10.3,0,0,1,3,.4,8.45,8.45,0,0,1,2.49,1.21,1.9,1.9,0,0,1,.59.62,1.87,1.87,0,0,1,.18.87,2,2,0,0,1-.41,1.26,1.22,1.22,0,0,1-1,.51,1.91,1.91,0,0,1-.66-.1,5.19,5.19,0,0,1-.7-.38,8,8,0,0,0-1.67-.69,6.11,6.11,0,0,0-1.69-.22,4.31,4.31,0,0,0-3.4,1.27,5.86,5.86,0,0,0-1.12,3.92,5.92,5.92,0,0,0,1.17,4,4.52,4.52,0,0,0,3.56,1.3,10.9,10.9,0,0,0,2.28-.24v-3.14H16.7a1.74,1.74,0,0,1-1.23-.4A1.41,1.41,0,0,1,15,162.6a1.45,1.45,0,0,1,.43-1.12,1.78,1.78,0,0,1,1.23-.39h3.95A1.73,1.73,0,0,1,21.91,161.53Z"/><path d="M34.51,159.85a5.37,5.37,0,0,1,1.31,4v5a1.89,1.89,0,0,1-.54,1.43,2.1,2.1,0,0,1-1.5.51,2,2,0,0,1-1.38-.48,1.82,1.82,0,0,1-.59-1.29,2.68,2.68,0,0,1-1.12,1.34,3.6,3.6,0,0,1-1.9.48,5,5,0,0,1-2.21-.49A4,4,0,0,1,25,169a3.61,3.61,0,0,1-.56-2,3,3,0,0,1,.66-2,3.87,3.87,0,0,1,2.1-1.09,18.09,18.09,0,0,1,3.89-.34h.65v-.28a1.64,1.64,0,0,0-.39-1.22,1.86,1.86,0,0,0-1.29-.37,9.72,9.72,0,0,0-2.88.67,2.89,2.89,0,0,1-.94.19,1.18,1.18,0,0,1-1-.43A1.67,1.67,0,0,1,25,161a1.54,1.54,0,0,1,.22-.87,1.89,1.89,0,0,1,.69-.6,8.16,8.16,0,0,1,2.11-.69,12,12,0,0,1,2.5-.27A5.51,5.51,0,0,1,34.51,159.85Zm-3.3,7.51a2.25,2.25,0,0,0,.56-1.57v-.29h-.39a5.94,5.94,0,0,0-2.18.28,1,1,0,0,0-.65.92,1.26,1.26,0,0,0,.35.91,1.19,1.19,0,0,0,.9.36A1.8,1.8,0,0,0,31.21,167.36Z"/><path d="M56.29,159.71a5.75,5.75,0,0,1,1.06,3.92v5.18a1.78,1.78,0,0,1-.61,1.48,2.62,2.62,0,0,1-3.05,0,1.78,1.78,0,0,1-.61-1.48v-5.28a2,2,0,0,0-.34-1.34,1.21,1.21,0,0,0-1-.38,1.71,1.71,0,0,0-1.35.59,2.57,2.57,0,0,0-.5,1.66v4.75a1.8,1.8,0,0,1-.6,1.48,2.63,2.63,0,0,1-3.06,0,1.78,1.78,0,0,1-.61-1.48v-5.28a2,2,0,0,0-.34-1.34,1.21,1.21,0,0,0-1-.38,1.64,1.64,0,0,0-1.33.59,2.57,2.57,0,0,0-.5,1.66v4.75a1.78,1.78,0,0,1-.61,1.48,2.33,2.33,0,0,1-1.52.49,2.36,2.36,0,0,1-1.53-.49,1.81,1.81,0,0,1-.61-1.48v-8.3a1.69,1.69,0,0,1,.64-1.43,2.39,2.39,0,0,1,1.52-.49,2.26,2.26,0,0,1,1.41.44,1.61,1.61,0,0,1,.58,1.29,4,4,0,0,1,3.6-1.78,3.36,3.36,0,0,1,3.44,2.09,4.32,4.32,0,0,1,1.6-1.52,4.59,4.59,0,0,1,2.28-.57A3.82,3.82,0,0,1,56.29,159.71Z"/><path d="M70.25,167.28a1.72,1.72,0,0,1,.35,1.12,1.58,1.58,0,0,1-.94,1.47,9.22,9.22,0,0,1-1.93.68,8.31,8.31,0,0,1-2,.28,7.54,7.54,0,0,1-3.43-.74A5.31,5.31,0,0,1,60,168a6.48,6.48,0,0,1-.79-3.26,6.61,6.61,0,0,1,.75-3.18,5.45,5.45,0,0,1,2.12-2.19,6,6,0,0,1,3.06-.78,5.7,5.7,0,0,1,2.9.72,4.87,4.87,0,0,1,1.93,2,6.59,6.59,0,0,1,.69,3.1,1.27,1.27,0,0,1-.26.85.89.89,0,0,1-.73.3H63.33a2.66,2.66,0,0,0,.74,1.66,2.54,2.54,0,0,0,1.7.5,4.33,4.33,0,0,0,1.11-.13c.33-.09.71-.21,1.13-.37.24-.1.47-.19.7-.26a2.28,2.28,0,0,1,.64-.1A1.09,1.09,0,0,1,70.25,167.28ZM63.9,162a2.68,2.68,0,0,0-.6,1.57h3.77c-.1-1.4-.7-2.11-1.82-2.11A1.77,1.77,0,0,0,63.9,162Z"/><path d="M74.53,170.59a6.11,6.11,0,0,1-1.94-.77,1.18,1.18,0,0,1-.53-.57,2.13,2.13,0,0,1-.19-.92,1.61,1.61,0,0,1,.35-1.06,1.08,1.08,0,0,1,.87-.42,2.49,2.49,0,0,1,.68.08,7,7,0,0,1,.76.28c.52.17,1,.31,1.36.4a6.2,6.2,0,0,0,1.5.15,2.39,2.39,0,0,0,1-.18.56.56,0,0,0,.37-.52.51.51,0,0,0-.18-.41,2.23,2.23,0,0,0-.68-.27c-.34-.09-.91-.21-1.71-.37a6.71,6.71,0,0,1-3.08-1.24,2.94,2.94,0,0,1-.95-2.34,3.15,3.15,0,0,1,.69-2,4.44,4.44,0,0,1,1.88-1.39,6.83,6.83,0,0,1,2.69-.51,8.17,8.17,0,0,1,2.1.27,6.55,6.55,0,0,1,1.81.74,1.48,1.48,0,0,1,.74,1.39,1.76,1.76,0,0,1-.36,1.13,1.09,1.09,0,0,1-.88.45,3.58,3.58,0,0,1-1.49-.4,8.41,8.41,0,0,0-1-.4,3.68,3.68,0,0,0-1-.13,2,2,0,0,0-.93.18.56.56,0,0,0-.34.52.68.68,0,0,0,.47.6,9.45,9.45,0,0,0,1.86.47,7.11,7.11,0,0,1,3.29,1.24,3,3,0,0,1,1,2.39,3.3,3.3,0,0,1-1.45,2.8,6.6,6.6,0,0,1-3.9,1A13.06,13.06,0,0,1,74.53,170.59Z"/></g></g></svg>