<svg xmlns="http://www.w3.org/2000/svg" viewBox="0 0 1080.11 1080.11"><defs><style>.cls-1{fill:#f8a552;}.cls-2{fill:#160f0e;}</style></defs><title>salon</title><g id="Calque_2" data-name="Calque 2"><g id="Calque_1-2" data-name="Calque 1"><rect class="cls-1" width="1080.11" height="1080.11"/><path class="cls-2" d="M204.93,465.46q-13.41-3.52-21.8-9.39L194,431.59A70.69,70.69,0,0,0,212.31,440a69.49,69.49,0,0,0,20.46,3.19q19.13,0,19.12-9.56,0-5-5.45-7.46T228.92,421a166.7,166.7,0,0,1-22.14-6.12,37.21,37.21,0,0,1-15.26-10.48q-6.37-7.21-6.37-19.46A33.71,33.71,0,0,1,191,365.59q5.88-8.64,17.53-13.67t28.6-5a101,101,0,0,1,22.8,2.6,70.17,70.17,0,0,1,19.79,7.63L269.5,381.78q-16.77-9.06-32.53-9.06-9.9,0-14.43,2.93T218,383.29q0,4.69,5.36,7t17.28,4.86a163.38,163.38,0,0,1,22.22,6.12,38.36,38.36,0,0,1,15.26,10.4q6.45,7.14,6.46,19.37a33,33,0,0,1-5.87,19.12q-5.88,8.55-17.61,13.67T232.61,469A108.5,108.5,0,0,1,204.93,465.46Z"/><path class="cls-2" d="M384,353.52a46.61,46.61,0,0,1,19.63,19.28q6.95,12.68,7,30.44v63.4H377.34v-26H331.55v26h-32.7v-63.4q0-17.78,7-30.44a46.58,46.58,0,0,1,19.62-19.28q12.66-6.63,29.27-6.63T384,353.52ZM377.34,415V400.39q0-12.92-6.21-19.45t-16.6-6.54q-10.56,0-16.77,6.54t-6.21,19.45V415Z"/><path class="cls-2" d="M433,349.24h33.2v91.07h56v26.33H433Z"/><path class="cls-2" d="M559.22,461.1a60,60,0,0,1,0-106.33q14.84-7.87,33.46-7.88t33.46,7.88a60,60,0,0,1,0,106.33Q611.29,469,592.68,469T559.22,461.1Zm49.56-23.81a30.2,30.2,0,0,0,11.4-11.83,38.66,38.66,0,0,0,0-35,30.24,30.24,0,0,0-11.4-11.82,33,33,0,0,0-32.2,0,30.26,30.26,0,0,0-11.41,11.82,38.74,38.74,0,0,0,0,35,30.22,30.22,0,0,0,11.41,11.83,33,33,0,0,0,32.2,0Z"/><path class="cls-2" d="M774.64,360.23q11.58,13.32,11.57,38v68.43H753V399.22q0-12.41-5.62-18.62t-15.68-6.2q-10.41,0-16.77,6.62t-6.38,19.87v65.75h-33.2V349.24h32.2v13.42q11.9-15.77,34.55-15.77Q763.07,346.89,774.64,360.23Z"/><path class="cls-2" d="M845.32,671.26s0,0,0,.08h0S845.32,671.29,845.32,671.26Z"/><path class="cls-2" d="M175,502v52.53h15.06V575H133.43v-20.4h15.2V502h-15.2v-20.4h56.66V502Z"/><path class="cls-2" d="M276.08,511a76,76,0,0,0-23.86-8.66V575h-26.4V502.31A72.88,72.88,0,0,0,202,511l-8.8-19.2a81.19,81.19,0,0,1,21.53-8.93,98.25,98.25,0,0,1,48.66,0,81.33,81.33,0,0,1,21.53,8.93Z"/><path class="cls-2" d="M329.54,502v52.53h15.07V575H288v-20.4h15.19V502H288v-20.4h56.66V502Z"/><path class="cls-2" d="M437.8,490.38Q447,501,447,520.57V575H420.6v-53.6q0-9.86-4.47-14.8t-12.46-4.93q-8.28,0-13.33,5.27t-5.07,15.8V575h-26.4V481.64h25.6v10.67q9.46-12.53,27.46-12.53Q428.6,479.78,437.8,490.38Z"/><path class="cls-2" d="M545.12,567.9a64.42,64.42,0,0,1-17.46,6.53,93.48,93.48,0,0,1-21.33,2.4q-14.94,0-25.4-3.6t-15.73-10a22.53,22.53,0,0,1-5.27-14.79,21.69,21.69,0,0,1,4-12.94A25.82,25.82,0,0,1,475,526.84a19.72,19.72,0,0,1-8.33-7.8,21.72,21.72,0,0,1-2.86-11,22.82,22.82,0,0,1,4.86-14.13q4.86-6.41,14.87-10.27t24.66-3.86a95.3,95.3,0,0,1,18.13,1.73,76.46,76.46,0,0,1,15.73,4.67l-7.2,19.73a62.68,62.68,0,0,0-25.59-5.47q-9.47,0-14.13,2.47c-3.12,1.64-4.67,3.93-4.67,6.86q0,8,11.6,8h26.4V537.9H500.33q-6.81,0-10.27,2.2a7.2,7.2,0,0,0-3.47,6.47q0,4.53,5.07,7.07t15.73,2.53a63,63,0,0,0,15.67-2.07,52.37,52.37,0,0,0,14.06-5.66Z"/><path class="cls-2" d="M596.45,550.17h-14.4V575h-26.4V481.64h42.67q12.66,0,22,4.2a33.93,33.93,0,0,1,14.73,48,32,32,0,0,1-13.53,11.8L641.64,575H613.38ZM609,506q-4.14-3.6-12.26-3.6H582.05v27.33h14.67q8.12,0,12.26-3.53t4.13-10.07Q613.11,509.65,609,506Z"/><path class="cls-2" d="M721.17,485a37.07,37.07,0,0,1,15.6,15.33q5.54,10.08,5.53,24.2V575H715.9V554.3H679.51V575h-26v-50.4q0-14.13,5.53-24.2A37.07,37.07,0,0,1,674.64,485a54.08,54.08,0,0,1,46.53,0ZM715.9,533.9V522.31q0-10.27-4.93-15.47t-13.2-5.2q-8.4,0-13.33,5.2t-4.93,15.47V533.9Z"/><path class="cls-2" d="M839.09,490.38q9.2,10.59,9.2,30.19V575h-26.4v-53.6q0-9.86-4.47-14.8T805,501.64q-8.26,0-13.33,5.27t-5.07,15.8V575h-26.4V481.64h25.6v10.67q9.47-12.53,27.46-12.53Q829.89,479.78,839.09,490.38Z"/><path class="cls-2" d="M937.88,511A76,76,0,0,0,914,502.31V575h-26.4V502.31A73,73,0,0,0,863.75,511L855,491.77a81.19,81.19,0,0,1,21.53-8.93,98.25,98.25,0,0,1,48.66,0,81.47,81.47,0,0,1,21.53,8.93Z"/><path class="cls-2" d="M915.43,575h-782V616.8A54.54,54.54,0,0,0,188,671.34H240.2a76.08,76.08,0,1,1,152.15,0h308a76.08,76.08,0,1,1,152.15,0h54.11a40,40,0,0,0,40-40v-25A31.25,31.25,0,0,0,915.43,575Z"/><circle class="cls-2" cx="316.28" cy="671.34" r="61.88" transform="translate(-388.68 903.22) rotate(-82.98)"/><circle class="cls-2" cx="776.47" cy="671.34" r="61.88" transform="translate(15.28 1359.96) rotate(-82.98)"/></g></g></svg>