<svg xmlns="http://www.w3.org/2000/svg" viewBox="0 0 1079.99 1079.99"><defs><style>.cls-1{fill:#edbf8e;}.cls-2{fill:#41aa54;}</style></defs><title>save</title><g id="Calque_2" data-name="Calque 2"><g id="Calque_2-2" data-name="Calque 2"><rect class="cls-1" width="1079.99" height="1079.99"/></g><g id="Calque_1-2" data-name="Calque 1"><path class="cls-2" d="M489.21,574.8c-44.63,0-44.63,44.12-44.63,79.57v69.87a9.71,9.71,0,0,0,19.41,0V664.07h50.45v60.17a9.71,9.71,0,0,0,19.41,0V654.37C533.85,618.92,533.85,574.8,489.21,574.8Zm0,19.41c20.86,0,24.68,16.22,25.17,50.46H464.05C464.54,610.43,468.36,594.21,489.21,594.21Z"/><path class="cls-2" d="M594,733.94c-39.33,0-44.63-75.54-44.63-149.44a9.7,9.7,0,1,1,19.4,0c0,120.65,19.32,130,25.23,130s25.23-9.38,25.23-130a9.71,9.71,0,0,1,19.41,0C638.65,658.4,633.35,733.94,594,733.94Z"/><path class="cls-2" d="M733.74,714.53c-40.89,0-60.16-2.49-60.16-25.23V664.07h25.23a9.7,9.7,0,0,0,0-19.4H673.58V619.44c0-22.74,19.27-25.23,60.16-25.23a9.71,9.71,0,1,0,0-19.41c-35.44,0-79.57,0-79.57,44.64V689.3c0,44.64,44.13,44.64,79.57,44.64a9.71,9.71,0,1,0,0-19.41Z"/><path class="cls-2" d="M384.48,644.67c-4.23-.06-25.29-1.53-25.29-25.23s21.06-25.18,25.23-25.23c23.68,0,25.17,21,25.23,25.28a9.7,9.7,0,0,0,19.4,0c0-18-11.88-44.64-44.63-44.64-17.95,0-44.64,11.89-44.64,44.64s26.69,44.63,44.58,44.63c4.22.06,25.29,1.53,25.29,25.23s-21.07,25.18-25.23,25.23H349.48c-58.11,0-60.12-54-60.16-60.16V593.13a44.7,44.7,0,0,0,34.93-43.56c0-21.24-30.53-66.52-36.65-75.38a9.7,9.7,0,0,0-16,0c-6.12,8.86-36.65,54.14-36.65,75.38a44.7,44.7,0,0,0,34.94,43.56v61.24c0,27.52,16.63,79.57,79.56,79.57h34.94c17.94,0,44.63-11.89,44.63-44.64S402.36,644.67,384.48,644.67Zm-130.09-95.1c0-9.15,13-33,25.23-52.27,12.26,19.3,25.23,43.12,25.23,52.27a25.23,25.23,0,0,1-50.46,0Z"/><path class="cls-2" d="M580.77,440.18a9.83,9.83,0,0,1-3.27-.57,210.28,210.28,0,0,0-118.34-6.87,9.7,9.7,0,0,1-4.39-18.9,229.57,229.57,0,0,1,129.28,7.5,9.7,9.7,0,0,1-3.28,18.84Z"/><path class="cls-2" d="M673.92,504.73a9.66,9.66,0,0,1-7.4-3.42,210.77,210.77,0,0,0-43-38.42,9.7,9.7,0,1,1,10.82-16.11,230.21,230.21,0,0,1,46.95,42,9.71,9.71,0,0,1-7.39,16Z"/><path class="cls-2" d="M822.72,352.74a9.69,9.69,0,0,1-8.93-5.9,99.63,99.63,0,0,0-14.94-24.48A9.71,9.71,0,0,1,813.8,310a119.15,119.15,0,0,1,17.84,29.24,9.71,9.71,0,0,1-8.92,13.52Z"/><path class="cls-2" d="M777.44,301.26a9.68,9.68,0,0,1-4.92-1.35,99.53,99.53,0,0,0-73.31-11A9.71,9.71,0,0,1,694.74,270a119.09,119.09,0,0,1,87.63,13.21,9.71,9.71,0,0,1-4.93,18.07Z"/><path class="cls-2" d="M879.94,385.77c0-87-70.79-157.79-157.79-157.79A157.33,157.33,0,0,0,703,229.15v0A92.67,92.67,0,1,0,580.2,316.76,156.35,156.35,0,0,0,572,337.28,306.8,306.8,0,0,0,272.89,438.49a9.7,9.7,0,1,0,14.79,12.56A287.41,287.41,0,1,1,223.92,687.6a290.34,290.34,0,0,1,0-101.39,9.71,9.71,0,0,0-19.11-3.41,309.82,309.82,0,0,0,0,108.2A306.65,306.65,0,1,0,792.86,526.84,157.66,157.66,0,0,0,879.94,385.77ZM537.09,229.12a73.26,73.26,0,0,1,146.52,0c0,1.22,0,2.44-.1,3.66A158.37,158.37,0,0,0,590,299.52,73.36,73.36,0,0,1,537.09,229.12Zm248.22,279.8A306.6,306.6,0,0,0,590.83,342a137.42,137.42,0,0,1,11.8-26.07c.18-.28.35-.56.51-.86a138.6,138.6,0,0,1,119-67.69c76.3,0,138.38,62.08,138.38,138.38A138.28,138.28,0,0,1,785.31,508.92Z"/><path class="cls-2" d="M654.5,238.82a9.7,9.7,0,0,1-9.7-9.7,34,34,0,0,0-3-14.12,9.7,9.7,0,0,1,17.68-8,53.27,53.27,0,0,1,4.76,22.12A9.7,9.7,0,0,1,654.5,238.82Z"/><path class="cls-2" d="M577.37,209.5a9.71,9.71,0,0,1-7.24-16.16,53.84,53.84,0,0,1,60.21-14.23,9.71,9.71,0,0,1-7.22,18,34.1,34.1,0,0,0-12.77-2.46,34.49,34.49,0,0,0-25.73,11.58A9.67,9.67,0,0,1,577.37,209.5Z"/></g></g></svg>