<svg xmlns="http://www.w3.org/2000/svg" viewBox="0 0 400 400"><defs><style>.cls-1{fill:#011627;}.cls-2{fill:#c7dfef;}.cls-3{fill:#ff8e0d;}</style></defs><title>ssb</title><g id="Calque_2" data-name="Calque 2"><g id="Calque_2-2" data-name="Calque 2"><rect class="cls-1" width="400" height="400"/></g><g id="Calque_3" data-name="Calque 3"><path class="cls-2" d="M104.82,156.17l-2.24,4.65a17.45,17.45,0,0,0-7.5-2.44c-1.54,0-2.58.57-2.58,1.71,0,4,12.39,1.74,12.39,10.21,0,4.69-4.15,7.17-9.38,7.17a17.47,17.47,0,0,1-10.72-3.75l2.32-4.59a14.62,14.62,0,0,0,8.47,3.52c1.88,0,3-.7,3-2,0-4.16-12.4-1.68-12.4-10,0-4.32,3.72-7.06,9.35-7.06A17.62,17.62,0,0,1,104.82,156.17Z"/><path class="cls-2" d="M129.24,167.42c0,6.2-4.12,10.12-10.68,10.12s-10.82-3.92-10.82-10.12v-13.6h6v13.6c0,3.19,2,5.13,4.89,5.13s4.72-1.94,4.72-5.13v-13.6h5.93Z"/><path class="cls-2" d="M143.74,153.82c6,0,9.45,3,9.45,8.18,0,5.49-3.45,8.67-9.45,8.67h-4.25v6.6h-6V153.82ZM139.49,166h3.95c2.61,0,4.12-1.3,4.12-3.78s-1.51-3.69-4.12-3.69h-3.95Z"/><path class="cls-2" d="M162.26,158.51v4.66h11.19v4.69H162.26v4.72H175v4.69H156.3V153.82h18.36v4.69Z"/><path class="cls-2" d="M189.53,170.67h-4.69v6.6h-6V153.82h10.49c6.19,0,9.74,3,9.74,8.18,0,3.58-1.5,6.16-4.25,7.53l4.92,7.74H193Zm-.17-4.69c2.58,0,4.08-1.3,4.08-3.78s-1.5-3.69-4.08-3.69h-4.52V166Z"/><path class="cls-2" d="M137.94,249.84h-6.85v9.64h-8.71V225.22H137.7c9.05,0,14.24,4.31,14.24,11.94,0,5.24-2.2,9-6.21,11l7.19,11.31H143ZM137.7,243c3.77,0,6-1.91,6-5.53s-2.2-5.39-6-5.39h-6.61V243Z"/><path class="cls-2" d="M192.61,242.3c0,10-7.93,17.57-18.55,17.57s-18.5-7.53-18.5-17.57,7.93-17.37,18.5-17.37S192.61,232.37,192.61,242.3Zm-28.14,0a10,10,0,0,0,9.69,10.23c5.29,0,9.49-4.45,9.49-10.23s-4.2-10.13-9.49-10.13A9.84,9.84,0,0,0,164.47,242.35Z"/><path class="cls-2" d="M211.94,232.22v27.26h-8.71V232.22H193v-7.05h29.27v7.05Z"/><path class="cls-2" d="M248.89,259.48V246.17H234.7v13.31H226V225.22h8.71v14.1h14.19v-14.1h8.71v34.26Z"/><path class="cls-2" d="M273.16,232.07v6.81h16.35v6.85H273.16v6.9h18.65v6.85H264.45V225.22h26.82v6.85Z"/><path class="cls-2" d="M313,249.84h-6.85v9.64h-8.71V225.22h15.32c9.05,0,14.24,4.31,14.24,11.94,0,5.24-2.2,9-6.22,11l7.2,11.31h-9.89Zm-.24-6.85c3.76,0,6-1.91,6-5.53s-2.21-5.39-6-5.39h-6.61V243Z"/><path class="cls-2" d="M359.54,228.65l-3.28,6.8c-3.62-2.11-8.17-3.57-11-3.57-2.25,0-3.77.83-3.77,2.49,0,5.92,18.11,2.55,18.11,14.93,0,6.85-6.07,10.47-13.7,10.47a25.52,25.52,0,0,1-15.66-5.48l3.37-6.7c3.53,3.08,8.81,5.14,12.38,5.14,2.75,0,4.46-1,4.46-3,0-6.07-18.11-2.45-18.11-14.58,0-6.32,5.43-10.33,13.65-10.33A25.7,25.7,0,0,1,359.54,228.65Z"/><path class="cls-2" d="M110.29,241.32a7.66,7.66,0,0,0,5.88-7.53c0-5.24-4.9-8.57-12.58-8.57H46.08c5.33,14.59,17.72,26.51,31.55,33.28V231.88H103.1c2.54,0,4.16,1.27,4.16,3.47s-1.62,3.57-4.16,3.57H92.55a5.16,5.16,0,0,0-5.16,5.16v15.4h16.79c8.07,0,13.16-3.67,13.16-9.49A8.44,8.44,0,0,0,110.29,241.32Zm-7.19,11.46h-7v-4.85a2.75,2.75,0,0,1,2.75-2.74h4.3c3.23,0,5.24,1.42,5.24,3.72C108.34,251.36,106.33,252.78,103.1,252.78Z"/><path class="cls-3" d="M132.17,203.66l-4.55,5v8.42h-8.71V182.85h8.71v14.83l13.12-14.83h10.08l-12.73,14.2,13.56,20.07H141.22Z"/><path class="cls-3" d="M155.46,217.12V182.85h8.72v34.27Z"/><path class="cls-3" d="M194.27,209.82v7.3H171V182.85h8.71v27Z"/><path class="cls-3" d="M221.68,209.82v7.3H198.43V182.85h8.71v27Z"/><path class="cls-3" d="M234.55,189.71v6.8H250.9v6.85H234.55v6.9H253.2v6.86H225.84V182.85h26.82v6.86Z"/><path class="cls-3" d="M273.56,182.85c10.76,0,18.2,7,18.2,17.14s-7.53,17.13-18.55,17.13H258.82V182.85Zm-6,27.32h6.21c5.34,0,9.15-4.12,9.15-10.14s-4-10.23-9.54-10.23h-5.82Z"/><path class="cls-3" d="M96.05,192c0-1.67,1.52-2.5,3.77-2.5,2.79,0,7.34,1.47,11,3.57l3.28-6.8a25.7,25.7,0,0,0-13.51-3.82c-8.22,0-13.65,4-13.65,10.33,0,12.14,18.11,8.52,18.11,14.59,0,2-1.71,3-4.46,3H77.44l.19-56.24A59.93,59.93,0,0,0,44,208c0,2.46-.07,7,.22,9.42h56.25c7.63,0,13.7-3.62,13.7-10.47C114.16,194.55,96.05,197.93,96.05,192Z"/></g></g></svg>