<svg xmlns="http://www.w3.org/2000/svg" xmlns:xlink="http://www.w3.org/1999/xlink" viewBox="0 0 1080.62 1081.17"><defs><style>.cls-1{fill:#041414;}.cls-2{fill:url(#Dégradé_sans_nom_6);}.cls-3{fill:url(#Dégradé_sans_nom_6-2);}</style><linearGradient id="Dégradé_sans_nom_6" x1="531.5" y1="826.06" x2="554.14" y2="567.27" gradientUnits="userSpaceOnUse"><stop offset="0" stop-color="#28560a"/><stop offset="0.08" stop-color="#2c600b"/><stop offset="0.5" stop-color="#439010"/><stop offset="0.82" stop-color="#51af14"/><stop offset="1" stop-color="#56ba15"/></linearGradient><linearGradient id="Dégradé_sans_nom_6-2" x1="529.82" y1="488.56" x2="551.61" y2="239.45" xlink:href="#Dégradé_sans_nom_6"/></defs><title>sstyle</title><g id="Calque_2" data-name="Calque 2"><g id="Calque_1-2" data-name="Calque 1"><rect class="cls-1" width="1080.62" height="1081.17"/><path class="cls-2" d="M735.69,719.77q-8.37-15-24.61-36.29-11.18-13.71-16.5-22.84t-5.33-16.75q0-12.67,9.14-30.95a73.73,73.73,0,0,0,5.58-13.2c1.35-4.39,2-7.61,2-9.64q0-5.58-5.58-8.12t-19.8-2.54q-30.45,0-40.09,22.33-15.22,35-24.61,55.32a330.05,330.05,0,0,1-18.52,35c-8.43,13.23-10,19.88-24.68,36.1a128.49,128.49,0,0,1-111.1,40.59C404,761.68,357.49,715.17,350.38,657.49a128.83,128.83,0,0,1,6.75-60.32c2.19-6-6.29-10-9.42-4.48a153.18,153.18,0,0,0-18.43,93c8,69.22,63.35,125.36,132.48,134.12a153.46,153.46,0,0,0,135.11-50.56c5.56-5.35,9.72-11.2,16-19.83a396,396,0,0,0,31.21-49.73q7.1,8.12,15.22,19a124.86,124.86,0,0,1,13.45,22.58,65.68,65.68,0,0,1,5.84,24.87q-4.58-.5-13.45-1.78a113.93,113.93,0,0,0-15.48-1.26q-18.78,0-28.42,9.64a31.22,31.22,0,0,0-9.65,22.84q0,15.23,14,27.4t40.35,12.18c15.22,0,59.94-7.18,79.32-34.14C767.43,770.21,738.92,725.54,735.69,719.77Z"/><path class="cls-3" d="M909.27,395.48a4,4,0,0,0-3.53-2.07A5.91,5.91,0,0,0,901.1,396q-6,7.74-10.57,11t-11.6,3.27q-9.81,0-13.93-7.91,20.46-5,29-13.49a27.79,27.79,0,0,0,8.51-20.37q0-10.14-6-16.07t-16-5.93a34.78,34.78,0,0,0-20,6,40.73,40.73,0,0,0-13.84,16.25,49.64,49.64,0,0,0-5,22.08,54.77,54.77,0,0,0,.48,7.18,61.71,61.71,0,0,1-7,6.49,19.9,19.9,0,0,1-12.38,4,9.3,9.3,0,0,1-7.22-3q-2.76-3-4-10A262.66,262.66,0,0,0,842.31,342q11.36-27,11.35-47.45,0-14.26-4.73-21.92T836,265q-14.61,0-25.18,19.26t-16,46.07q-5.41,26.81-5.41,47.78a109.68,109.68,0,0,0,.66,11.8l-.14.07q-12.55,8.25-25.79,18.22l4.47-27.68Q773,355.25,773,351a3.81,3.81,0,0,0-1.55-3.43q-1.54-1-5.49-1-5.68,0-8.51,2.23c-1.9,1.49-3.3,3.95-4.22,7.39a207.71,207.71,0,0,1-8.51,25.79q-4.38,10.49-8.25,15.64c-2.58,3.44-4.72,5.16-6.44,5.16q-3.62,0-3.61-6.54a69.28,69.28,0,0,1,1-10.57c.69-4.3,1.48-8.79,2.4-13.49q1-5.16,2.75-11.52a72.18,72.18,0,0,0,1.9-9.28,4.38,4.38,0,0,0-1.47-3.61q-1.46-1.2-5.24-1.2-6.71,0-9.8,2.23t-4.81,7.39a147.22,147.22,0,0,0-5.67,22.78,139.66,139.66,0,0,0-1.47,16.47,86.29,86.29,0,0,1-9.19,8.71,20.52,20.52,0,0,1-13.06,4.47q-9.12,0-13.33-7.22t-4.21-25.1q0-4.8.35-13.4h21Q707,362.82,707,351c0-2.17-.4-3.66-1.2-4.46a5.41,5.41,0,0,0-4-1.21H682.62Q705,325.51,705,298.87q0-9.63-4.13-16a12.85,12.85,0,0,0-11.34-6.36q-9.79,0-18.31,9.28t-14.52,24.93a166.31,166.31,0,0,0-8.94,34.55h-9.8q-7.74,0-7.74,9.63,0,4.13,1.81,6t7,1.9h6.7q-.51,7.73-.51,15.29c0,3.72.17,7.19.47,10.49a6.85,6.85,0,0,0-2.88,2.06Q631.4,404.76,623,408a46.86,46.86,0,0,0,.35-4.82,22.38,22.38,0,0,0-2.84-11.09,110.39,110.39,0,0,0-8.34-12.29,63.87,63.87,0,0,1-5.58-7.73,11.5,11.5,0,0,1-1.81-5.68q0-4.29,3.1-10.48a25.12,25.12,0,0,0,1.89-4.47,12.62,12.62,0,0,0,.69-3.27,2.89,2.89,0,0,0-1.89-2.75c-1.27-.57-3.5-.86-6.71-.86q-10.3,0-13.58,7.57-3.78,8.94-7.74,17.27t-6.87,13.33a212.34,212.34,0,0,1-12.59,17.13Q554.77,406,549.58,408c.22-2.07.34-3.67.34-4.82a22.38,22.38,0,0,0-2.84-11.09,110.39,110.39,0,0,0-8.34-12.29,63.87,63.87,0,0,1-5.58-7.73,11.5,11.5,0,0,1-1.81-5.68q0-4.29,3.1-10.48a25.12,25.12,0,0,0,1.89-4.47,12.62,12.62,0,0,0,.69-3.27,2.89,2.89,0,0,0-1.89-2.75c-1.27-.57-3.5-.86-6.71-.86q-10.3,0-13.58,7.57-3.78,8.94-7.74,17.27t-6.87,13.33c-1.39,2.17-3.12,4.65-5.07,7.34A30.66,30.66,0,0,0,491.52,379,152.71,152.71,0,0,0,479.94,362a88.24,88.24,0,0,1-7.75-10.74,15.86,15.86,0,0,1-2.51-7.87q0-6,4.3-14.55a35,35,0,0,0,2.62-6.21,17.43,17.43,0,0,0,1-4.53,4,4,0,0,0-2.63-3.82q-2.62-1.19-9.31-1.19-14.31,0-18.85,10.5-7.15,16.45-11.57,26A151.59,151.59,0,0,1,426.49,366c-1.66,2.6-3.71,5.56-6,8.69a39.11,39.11,0,0,0-4.09-11,193.27,193.27,0,0,0-14.84-21.89,113.49,113.49,0,0,1-10-13.77q-3.21-5.52-3.21-10.1,0-7.65,5.5-18.68a44.34,44.34,0,0,0,3.37-8,22.56,22.56,0,0,0,1.23-5.82,5.12,5.12,0,0,0-3.37-4.9Q391.8,279,383.23,279q-18.36,0-24.18,13.47-9.19,21.12-14.85,33.36A198.9,198.9,0,0,1,333,347c-5.08,8-6,12-14.88,21.77a77.58,77.58,0,0,1-130-79c1.32-3.62-3.8-6.06-5.68-2.7a92.39,92.39,0,0,0-11.12,56.12c4.81,41.75,38.21,75.61,79.91,80.89a92.55,92.55,0,0,0,81.5-30.5c3.35-3.23,5.86-6.75,9.65-11.95a240,240,0,0,0,18.82-30q4.29,4.89,9.18,11.48a74.75,74.75,0,0,1,8.12,13.62,39.58,39.58,0,0,1,3.52,15c-1.84-.2-4.55-.56-8.11-1.07a67.46,67.46,0,0,0-9.34-.77q-11.32,0-17.14,5.82a18.82,18.82,0,0,0-5.82,13.77q0,9.19,8.42,16.53t24.33,7.35a43.59,43.59,0,0,0,24.49-7,102.63,102.63,0,0,0,13-9.94c1.78-1.64,3.84-3.51,6-5.69A173.82,173.82,0,0,0,433.77,393a155.45,155.45,0,0,0,14.67-23.38q3.35,3.81,7.16,9a58.13,58.13,0,0,1,6.33,10.62,30.71,30.71,0,0,1,2.74,11.69q-2.15-.24-6.32-.84a53.66,53.66,0,0,0-7.28-.59q-8.83,0-13.36,4.53a14.65,14.65,0,0,0-4.54,10.74q0,7.15,6.57,12.88t19,5.73a34,34,0,0,0,19.1-5.49,93.48,93.48,0,0,0,11.08-7.95c1.59-1.38,3.25-3,5.17-5a124.56,124.56,0,0,0,11.43-12.72,111.38,111.38,0,0,0,10.57-16.85q2.41,2.76,5.16,6.45a43.13,43.13,0,0,1,4.56,7.65,22.1,22.1,0,0,1,2,8.42c-1-.11-2.55-.31-4.55-.6a38.9,38.9,0,0,0-5.25-.43q-6.36,0-9.62,3.27a10.57,10.57,0,0,0-3.27,7.73q0,5.16,4.73,9.29t13.67,4.12c6.3,0,11.26-1.72,17-3.47,7.53-2.3,13.44-4,18.66-6.58s10.68-7.42,16.41-14.53a13.42,13.42,0,0,0,1.33-2.06c.67-.81,1.38-1.59,2-2.41a111.38,111.38,0,0,0,10.57-16.85q2.41,2.76,5.16,6.45a43.13,43.13,0,0,1,4.56,7.65,22.1,22.1,0,0,1,2,8.42c-1-.11-2.55-.31-4.55-.6a38.9,38.9,0,0,0-5.25-.43q-6.36,0-9.62,3.27a10.57,10.57,0,0,0-3.27,7.73q0,5.16,4.73,9.29t13.67,4.12a53.29,53.29,0,0,0,17.43-2.64,137.9,137.9,0,0,0,18.24-7.41q7.82-3.87,16.41-14.53c.14-.18.24-.38.37-.57q7.89,21.33,30.92,21.37a35.48,35.48,0,0,0,20.11-5.84,68.52,68.52,0,0,0,7.86-6.18,25.45,25.45,0,0,0,2.54,4.89q4.89,7.13,12.63,7.13,6.87,0,13.07-6.45t9.62-18.82Q744.51,414,743.3,420.4l-.51,4q-18.4,14.08-28.45,25t-13.76,19.34a40.9,40.9,0,0,0-3.69,16.5q0,8.76,5.5,14.18t14.27,5.42q16.32,0,26.9-20.37t17.11-56l32.85-22.07a52.31,52.31,0,0,0,3.15,7.29q7.3,13.76,22.44,13.75a34.48,34.48,0,0,0,19.68-5.84,68.44,68.44,0,0,0,9.21-7.52,31.51,31.51,0,0,0,2.74,3.48q9.1,9.89,25.61,9.88,10.83,0,18.65-4.13a33.56,33.56,0,0,0,12.64-11.51,19.12,19.12,0,0,0,2.92-10.66A10.63,10.63,0,0,0,909.27,395.48ZM673.08,317.35a91.74,91.74,0,0,1,6-17.88q3.18-6.45,5.76-6.45,3.78,0,3.78,10.15,0,8.94-5.07,19.85a58.63,58.63,0,0,1-15.21,19.68A237.25,237.25,0,0,1,673.08,317.35Zm55.1,160.81q-5.34,10-9.63,10a4,4,0,0,1-3.7-1.89,9.31,9.31,0,0,1-1.11-4.81q0-6.89,5.93-16.08T738.83,445Q733.5,468.2,728.18,478.16ZM814.47,331.7a234.92,234.92,0,0,1,8.76-35.41q5-14.27,8.94-14.27,4.82,0,4.82,13.07,0,16.67-7.22,36.87a221.7,221.7,0,0,1-19.43,40.31A256.67,256.67,0,0,1,814.47,331.7Zm47.95,56.9q0-10.49,4.39-17.88t10.74-7.39a6.3,6.3,0,0,1,4.9,2,7.45,7.45,0,0,1,1.81,5.24q0,6.36-5.85,11.17t-16,7.22Z"/></g></g></svg>