<svg xmlns="http://www.w3.org/2000/svg" viewBox="0 0 400 400"><defs><style>.cls-1{fill:#fff;}</style></defs><title>tardigrad</title><g id="Calque_2" data-name="Calque 2"><g id="Calque_2-2" data-name="Calque 2"><rect class="cls-1" width="400" height="400"/></g><g id="Calque_1-2" data-name="Calque 1"><path d="M137.82,134.69h-8.76V99.56h-13.2v-8.8H151v8.8H137.82Z"/><path d="M189,134.69h-8.8V125.9H162.6v8.79h-8.76V108.34a17.1,17.1,0,0,1,1.38-6.84A18,18,0,0,1,159,95.91a17.68,17.68,0,0,1,5.58-3.77,17.67,17.67,0,0,1,13.69,0,17.66,17.66,0,0,1,9.36,9.36,17.1,17.1,0,0,1,1.38,6.84Zm-8.8-17.55v-8.8a8.39,8.39,0,0,0-.69-3.41,8.8,8.8,0,0,0-4.68-4.69,8.92,8.92,0,0,0-6.83,0,8.76,8.76,0,0,0-2.8,1.89,8.87,8.87,0,0,0-1.89,2.8,8.55,8.55,0,0,0-.69,3.41v8.8Z"/><path d="M205.39,134.69H196.6V90.76h17.58a17.68,17.68,0,0,1,15.15,8.74,17.91,17.91,0,0,1,1.78,4.19,17.74,17.74,0,0,1,.06,9.07,17.94,17.94,0,0,1-1.63,4.07,17.55,17.55,0,0,1-6,6.37l4.87,11.49h-9.34l-3.82-8.85-9.84.06Zm0-35.13v17.58h8.79a8.44,8.44,0,0,0,3.4-.69,8.83,8.83,0,0,0,4.67-4.69,8.8,8.8,0,0,0,0-6.83,9,9,0,0,0-1.88-2.8,8.82,8.82,0,0,0-2.79-1.89,8.43,8.43,0,0,0-3.4-.68Z"/><path d="M272.69,112.73a21.82,21.82,0,0,1-3,11.07,22.7,22.7,0,0,1-3.43,4.44,21.59,21.59,0,0,1-4.44,3.45,21.75,21.75,0,0,1-11.09,3H237.49V90.76h13.23a21.9,21.9,0,0,1,15.53,6.45,22.7,22.7,0,0,1,3.43,4.44,21.82,21.82,0,0,1,3,11.08Zm-8.8,0a12.89,12.89,0,0,0-1-5.12,13.23,13.23,0,0,0-7-7,12.65,12.65,0,0,0-5.13-1h-4.38V125.9h4.38a13.17,13.17,0,0,0,9.33-3.85,13.06,13.06,0,0,0,3.84-9.32Z"/><path d="M287.29,134.69H278.5V90.76h8.79Z"/><path d="M159.42,185.29a22.52,22.52,0,0,1-14.67,5.39,22.2,22.2,0,0,1-6-.81,22.6,22.6,0,0,1-5.41-2.3,23.19,23.19,0,0,1-4.59-3.55,22.24,22.24,0,0,1-3.56-4.59,23.18,23.18,0,0,1-2.28-5.44,22.38,22.38,0,0,1-.81-6,22.08,22.08,0,0,1,.81-6,23.06,23.06,0,0,1,2.28-5.4,22,22,0,0,1,3.56-4.6,22.66,22.66,0,0,1,10-5.82,22.2,22.2,0,0,1,6-.81,22.45,22.45,0,0,1,7.84,1.39,22.8,22.8,0,0,1,6.83,4l-4.6,7.66a14.69,14.69,0,0,0-4.59-3.17,13.74,13.74,0,0,0-10.89,0,14.42,14.42,0,0,0-4.43,3,14.24,14.24,0,0,0-3,4.41,13.45,13.45,0,0,0-1.1,5.41,13.68,13.68,0,0,0,1.1,5.45,14.5,14.5,0,0,0,3,4.44,14.28,14.28,0,0,0,4.43,3,13.69,13.69,0,0,0,8.62.71,15.11,15.11,0,0,0,3-1.11V168h8.49Z"/><path d="M175,189.73h-8.79V145.81h17.58a17.06,17.06,0,0,1,4.65.63,17.64,17.64,0,0,1,4.18,1.77,18.26,18.26,0,0,1,3.56,2.76,17.34,17.34,0,0,1,2.75,3.57,17.57,17.57,0,0,1,1.78,4.2,17.41,17.41,0,0,1,.06,9.06,18.47,18.47,0,0,1-1.62,4.08,17.55,17.55,0,0,1-2.59,3.55,17.89,17.89,0,0,1-3.43,2.82L198,189.73h-9.34l-3.83-8.85-9.83.06Zm0-35.13v17.58h8.79a8.47,8.47,0,0,0,3.4-.69,8.86,8.86,0,0,0,4.67-4.68,8.8,8.8,0,0,0,0-6.83,8.8,8.8,0,0,0-1.89-2.81,8.92,8.92,0,0,0-2.78-1.88,8.47,8.47,0,0,0-3.4-.69Z"/><path d="M241.72,189.73h-8.79v-8.79H215.35v8.79h-8.76V163.39a17.06,17.06,0,0,1,1.37-6.84,17.86,17.86,0,0,1,3.76-5.59,17.47,17.47,0,0,1,5.57-3.77,17.67,17.67,0,0,1,13.69,0,17.66,17.66,0,0,1,9.36,9.36,17.06,17.06,0,0,1,1.38,6.84Zm-8.79-17.55v-8.79a8.55,8.55,0,0,0-.69-3.41,8.8,8.8,0,0,0-1.89-2.81,8.9,8.9,0,0,0-2.8-1.88,8.8,8.8,0,0,0-6.83,0,9,9,0,0,0-2.8,1.88A8.8,8.8,0,0,0,216,160a8.55,8.55,0,0,0-.68,3.41v8.79Z"/><path d="M284.54,167.77a21.48,21.48,0,0,1-3,11.07,22.1,22.1,0,0,1-3.43,4.45,21.8,21.8,0,0,1-15.52,6.44H249.35V145.81h13.23a21.75,21.75,0,0,1,11.08,3,21.32,21.32,0,0,1,4.44,3.45,22,22,0,0,1,3.43,4.44,21.48,21.48,0,0,1,3,11.07Zm-8.79,0a12.85,12.85,0,0,0-1-5.11,13.11,13.11,0,0,0-2.82-4.19,13.53,13.53,0,0,0-4.19-2.83,12.89,12.89,0,0,0-5.13-1H258.2v26.34h4.38a13,13,0,0,0,5.13-1,13.33,13.33,0,0,0,4.19-2.82,13.15,13.15,0,0,0,2.82-4.2A13,13,0,0,0,275.75,167.77Z"/><path d="M261.71,259.73a28.09,28.09,0,0,1-17.64-6.21,28.13,28.13,0,0,1-35.26,0,28.14,28.14,0,0,1-35.27,0,28.09,28.09,0,0,1-17.64,6.21c-4.49,0-17.4,0-24.05-10.28h-6.91a7.6,7.6,0,0,1-7.58-7.59v-17a7.6,7.6,0,0,1,7.58-7.59h6.84a28.1,28.1,0,0,1,24.12-13.73H260.75c15.57,0,28.6,12.22,29.05,27.25a28.1,28.1,0,0,1-28.09,29Zm-17.64-21.48,4,4.75a17.79,17.79,0,0,0,31.45-11.92c-.29-9.51-8.7-17.24-18.74-17.24H155.9a17.79,17.79,0,0,0-16.26,10.65l-1.36,3.08h-10.6v11.56h10.6l1.36,3.08c1.48,3.35,4.66,7.2,16.26,7.2A17.71,17.71,0,0,0,169.57,243l4-4.75,4,4.75a17.78,17.78,0,0,0,27.34,0l4-4.75,4,4.75a17.78,17.78,0,0,0,27.34,0Z"/><path d="M50.42,316.7a10.12,10.12,0,0,1-1.19.95,7.9,7.9,0,0,1-2.73,1.29,5.4,5.4,0,0,1-1.49.2,8.29,8.29,0,0,1-3.12-.59,7.56,7.56,0,0,1-4.3-4.31,9.18,9.18,0,0,1-.63-3.48v-9.95h4.57v9.95a4.58,4.58,0,0,0,.28,1.62,3.65,3.65,0,0,0,.75,1.2,3.19,3.19,0,0,0,1.1.74,3.56,3.56,0,0,0,1.35.25,2.79,2.79,0,0,0,1.33-.33,3.57,3.57,0,0,0,1.11-.86,4.08,4.08,0,0,0,.73-1.22,3.75,3.75,0,0,0,.27-1.4v-9.95H53v18H51.93Z"/><path d="M61.12,318.8H56.53v-18h1.11l1.51,1.75A8.19,8.19,0,0,1,61.67,301a8.06,8.06,0,0,1,2.93-.54,7.71,7.71,0,0,1,3.1.63,8,8,0,0,1,4.28,4.3,7.85,7.85,0,0,1,.63,3.13V318.8H68V308.52a3.49,3.49,0,0,0-1-2.43,3.44,3.44,0,0,0-1.1-.74,3.25,3.25,0,0,0-1.32-.27,3.44,3.44,0,0,0-1.36.27,3.27,3.27,0,0,0-1.11.74,3.44,3.44,0,0,0-1,2.43Z"/><path d="M93.25,318.8h-1.1l-1.78-2.47a13.43,13.43,0,0,1-1.39,1.1,11.26,11.26,0,0,1-1.54.9,10.16,10.16,0,0,1-1.65.59,6.71,6.71,0,0,1-1.72.22,9.06,9.06,0,0,1-3.57-.71,9,9,0,0,1-2.92-2,9.06,9.06,0,0,1-2-3,10.28,10.28,0,0,1,0-7.56,9.25,9.25,0,0,1,2-3,9.11,9.11,0,0,1,6.49-2.72,9.14,9.14,0,0,1,1.25.1,6.87,6.87,0,0,1,1.26.33,5,5,0,0,1,1.15.6,3.42,3.42,0,0,1,.91.91v-8.4h4.61Zm-4.61-9.15a4.82,4.82,0,0,0-.37-1.83,5.35,5.35,0,0,0-1-1.56,4.85,4.85,0,0,0-1.45-1.09,4,4,0,0,0-1.77-.41,4.62,4.62,0,0,0-1.78.34,4.14,4.14,0,0,0-1.44,1,4.55,4.55,0,0,0-1,1.54,5.72,5.72,0,0,0-.35,2,5.07,5.07,0,0,0,1.32,3.44,4.56,4.56,0,0,0,1.44,1.06,4.17,4.17,0,0,0,1.78.39,4,4,0,0,0,1.77-.41,4.89,4.89,0,0,0,1.45-1.1,5.22,5.22,0,0,0,1-1.56A4.77,4.77,0,0,0,88.64,309.65Z"/><path d="M103.9,314.4a2.08,2.08,0,0,0,.54.11l.54,0a4.24,4.24,0,0,0,1.29-.19,4.42,4.42,0,0,0,1.17-.53,4.11,4.11,0,0,0,1-.84,4.2,4.2,0,0,0,.7-1.1l3.36,3.38a8.75,8.75,0,0,1-1.47,1.63,9,9,0,0,1-1.79,1.22,8.83,8.83,0,0,1-2,.77,9.37,9.37,0,0,1-2.19.26,9.06,9.06,0,0,1-8.47-5.67,9.88,9.88,0,0,1-.72-3.82,10.26,10.26,0,0,1,.72-3.9,8.83,8.83,0,0,1,4.9-4.94,9.23,9.23,0,0,1,3.57-.69,9,9,0,0,1,2.2.27,9.43,9.43,0,0,1,2,.77A9.53,9.53,0,0,1,111,302.4a8.89,8.89,0,0,1,1.48,1.64Zm2.36-9.46a3.93,3.93,0,0,0-.64-.15,6.4,6.4,0,0,0-.64,0,4.54,4.54,0,0,0-1.77.34,4.25,4.25,0,0,0-1.45,1,4.43,4.43,0,0,0-1,1.53,5.44,5.44,0,0,0-.36,2q0,.25,0,.57a5,5,0,0,0,.08.65q.06.31.15.63a2,2,0,0,0,.21.53Z"/><path d="M120.64,318.8h-4.59V305.38h-2.23v-4.57h2.23V300a7.85,7.85,0,0,1,.63-3.13,8.16,8.16,0,0,1,1.73-2.55,8.51,8.51,0,0,1,2.56-1.71,7.85,7.85,0,0,1,3.13-.63h3.44v4.57H124.1a3.59,3.59,0,0,0-1.37.26,3.47,3.47,0,0,0-1.1.73,3.55,3.55,0,0,0-.73,1.08,3.68,3.68,0,0,0-.26,1.38v.85h5.62v4.57h-5.62Z"/><path d="M135.25,314.4a2.08,2.08,0,0,0,.54.11l.54,0a4.29,4.29,0,0,0,1.29-.19,4.51,4.51,0,0,0,1.16-.53,4.15,4.15,0,0,0,1-.84,4.2,4.2,0,0,0,.7-1.1l3.36,3.38a9.51,9.51,0,0,1-1.47,1.63,9.06,9.06,0,0,1-1.8,1.22,8.58,8.58,0,0,1-2,.77,9.44,9.44,0,0,1-2.19.26,9.17,9.17,0,0,1-6.5-2.67,9.26,9.26,0,0,1-2-3,9.88,9.88,0,0,1-.72-3.82,10.26,10.26,0,0,1,.72-3.9,8.75,8.75,0,0,1,4.9-4.94,9.23,9.23,0,0,1,3.57-.69,9.08,9.08,0,0,1,2.2.27,9.84,9.84,0,0,1,2,.77,9.46,9.46,0,0,1,1.8,1.24,8.89,8.89,0,0,1,1.48,1.64Zm2.35-9.46a3.6,3.6,0,0,0-.63-.15c-.2,0-.42,0-.64,0a4.62,4.62,0,0,0-1.78.34,4.22,4.22,0,0,0-1.44,1,4.6,4.6,0,0,0-1,1.53,5.65,5.65,0,0,0-.35,2q0,.25,0,.57a5,5,0,0,0,.08.65c0,.21.08.42.14.63a2.35,2.35,0,0,0,.22.53Z"/><path d="M163.44,318.8h-1.11l-1.78-2.47a13.43,13.43,0,0,1-1.39,1.1,11.15,11.15,0,0,1-1.53.9,9.94,9.94,0,0,1-1.66.59,6.65,6.65,0,0,1-1.72.22,9.79,9.79,0,0,1-3.57-.64,8.55,8.55,0,0,1-2.92-1.85,8.68,8.68,0,0,1-2-3,10.5,10.5,0,0,1-.72-4,10.09,10.09,0,0,1,.72-3.86,9,9,0,0,1,4.9-5,9.24,9.24,0,0,1,3.57-.7,7.26,7.26,0,0,1,1.73.22,8.93,8.93,0,0,1,1.66.61,11.26,11.26,0,0,1,1.54.9,13.71,13.71,0,0,1,1.37,1.13l1.78-2.13h1.11Zm-4.62-9.15a4.81,4.81,0,0,0-.36-1.83,5.18,5.18,0,0,0-1-1.56,4.85,4.85,0,0,0-1.45-1.09,4,4,0,0,0-1.77-.41,4.92,4.92,0,0,0-1.77.32A4,4,0,0,0,151,306a4.34,4.34,0,0,0-1,1.53,5.78,5.78,0,0,0-.36,2.1,5.69,5.69,0,0,0,.36,2.09,4.38,4.38,0,0,0,1,1.54,4,4,0,0,0,1.45.94,4.92,4.92,0,0,0,1.77.32,4,4,0,0,0,1.77-.41,4.89,4.89,0,0,0,1.45-1.1,5.06,5.06,0,0,0,1-1.56A4.76,4.76,0,0,0,158.82,309.65Z"/><path d="M176,318.8a7.77,7.77,0,0,1-3.12-.63,7.93,7.93,0,0,1-2.56-1.73,7.77,7.77,0,0,1-1.73-2.56,7.6,7.6,0,0,1-.63-3.12v-5.35h-2.24v-4.56h2.24v-7.19h4.57v7.19h7v4.56h-7v5.35a3.57,3.57,0,0,0,.26,1.35,3.49,3.49,0,0,0,.74,1.1,3.88,3.88,0,0,0,1.11.75,3.47,3.47,0,0,0,1.36.27h3.48v4.57Z"/><path d="M189.16,314.4a2,2,0,0,0,.53.11l.54,0a4.35,4.35,0,0,0,1.3-.19,4.51,4.51,0,0,0,1.16-.53,4.36,4.36,0,0,0,1-.84,4.17,4.17,0,0,0,.69-1.1l3.36,3.38a8.75,8.75,0,0,1-1.47,1.63,9,9,0,0,1-1.79,1.22,8.83,8.83,0,0,1-2,.77,9.37,9.37,0,0,1-2.19.26,9.1,9.1,0,0,1-3.57-.71,9,9,0,0,1-2.92-2,9.1,9.1,0,0,1-2-3,9.71,9.71,0,0,1-.73-3.82,10.07,10.07,0,0,1,.73-3.9,8.77,8.77,0,0,1,4.89-4.94,9.27,9.27,0,0,1,3.57-.69,9,9,0,0,1,2.2.27,9.43,9.43,0,0,1,2,.77,9.22,9.22,0,0,1,1.81,1.24,8.89,8.89,0,0,1,1.48,1.64Zm2.35-9.46a3.83,3.83,0,0,0-.63-.15c-.21,0-.42,0-.65,0a4.57,4.57,0,0,0-1.77.34,4.25,4.25,0,0,0-1.45,1,4.58,4.58,0,0,0-1,1.53,5.44,5.44,0,0,0-.35,2c0,.17,0,.36,0,.57s.05.43.08.65.09.42.15.63a2.35,2.35,0,0,0,.22.53Z"/><path d="M217.31,318.8H216.2l-1.78-2.47a12.33,12.33,0,0,1-1.38,1.1,11.26,11.26,0,0,1-1.54.9,9.94,9.94,0,0,1-1.66.59,6.65,6.65,0,0,1-1.72.22,9,9,0,0,1-6.49-2.7,9,9,0,0,1-2-3,10.15,10.15,0,0,1,0-7.56,9.23,9.23,0,0,1,2-3,9.07,9.07,0,0,1,2.92-2,8.75,8.75,0,0,1,4.82-.63,6.67,6.67,0,0,1,1.26.33,5,5,0,0,1,1.15.6,3.16,3.16,0,0,1,.91.91v-8.4h4.62Zm-4.62-9.15a4.81,4.81,0,0,0-.36-1.83,5.35,5.35,0,0,0-1-1.56,5,5,0,0,0-1.45-1.09,4,4,0,0,0-1.78-.41,4.57,4.57,0,0,0-1.77.34,4.18,4.18,0,0,0-1.45,1,4.53,4.53,0,0,0-1,1.54,5.51,5.51,0,0,0-.35,2,5,5,0,0,0,.35,1.88,5.17,5.17,0,0,0,1,1.56,4.6,4.6,0,0,0,1.45,1.06,4.12,4.12,0,0,0,1.77.39,4,4,0,0,0,1.78-.41,5,5,0,0,0,1.45-1.1,5.22,5.22,0,0,0,1-1.56A4.76,4.76,0,0,0,212.69,309.65Z"/><path d="M248.44,309.65a10,10,0,0,1-.72,3.86,9,9,0,0,1-2,3,8.89,8.89,0,0,1-2.91,1.94,9.33,9.33,0,0,1-3.59.69,9.06,9.06,0,0,1-8.47-5.67,9.88,9.88,0,0,1-.72-3.82v-16h4.6v8.4a3.86,3.86,0,0,1,.91-.84,5,5,0,0,1,1.14-.61,6.74,6.74,0,0,1,1.26-.36,6.39,6.39,0,0,1,1.28-.13,9,9,0,0,1,3.59.72,8.87,8.87,0,0,1,2.91,2,9.52,9.52,0,0,1,2,3A9.87,9.87,0,0,1,248.44,309.65Zm-4.62,0a5.15,5.15,0,0,0-.36-1.94,5,5,0,0,0-1-1.56,4.53,4.53,0,0,0-1.46-1,4.22,4.22,0,0,0-1.77-.37,4,4,0,0,0-1.77.41,4.73,4.73,0,0,0-1.45,1.09,5.15,5.15,0,0,0-1,1.56,5,5,0,0,0-.35,1.83,5.3,5.3,0,0,0,.35,1.93,4.87,4.87,0,0,0,1,1.55,4.72,4.72,0,0,0,1.45,1,4.31,4.31,0,0,0,3.54,0,4.89,4.89,0,0,0,1.46-1,5,5,0,0,0,1.34-3.48Z"/><path d="M255.31,325.66V321l2.55,0a3.82,3.82,0,0,0,1.3-.22,4.35,4.35,0,0,0,1.15-.6,4.77,4.77,0,0,0,.93-.92,5,5,0,0,0,.66-1.15l-1.54.64a4.2,4.2,0,0,1-1.57.32,8.38,8.38,0,0,1-3.13-.59,7.82,7.82,0,0,1-2.56-1.67,7.72,7.72,0,0,1-1.73-2.64,9.18,9.18,0,0,1-.63-3.48v-9.95h4.57v9.95a4.53,4.53,0,0,0,.28,1.67,3.48,3.48,0,0,0,.74,1.19,3,3,0,0,0,1.1.71,3.85,3.85,0,0,0,1.36.24,2.82,2.82,0,0,0,1.33-.33,3.53,3.53,0,0,0,1.1-.86,4.11,4.11,0,0,0,.74-1.22,3.75,3.75,0,0,0,.27-1.4v-9.95h4.62v15.73a9.07,9.07,0,0,1-.74,3.56,9.25,9.25,0,0,1-2,2.9,9.46,9.46,0,0,1-2.92,2,8.85,8.85,0,0,1-3.56.72Z"/><path d="M297,318.8H280.46V294.71H297v4.83H285.28v4.82h7.91v4.82h-7.91V314H297Z"/><path d="M316.79,318.8h-1.11l-1.78-2.47a12.33,12.33,0,0,1-1.38,1.1,11.26,11.26,0,0,1-1.54.9,9.94,9.94,0,0,1-1.66.59,6.65,6.65,0,0,1-1.72.22,9.78,9.78,0,0,1-3.56-.64,8.59,8.59,0,0,1-2.93-1.85,8.8,8.8,0,0,1-2-3,10.5,10.5,0,0,1-.73-4,10.09,10.09,0,0,1,.73-3.86,9.19,9.19,0,0,1,2-3,9,9,0,0,1,2.93-2,9.22,9.22,0,0,1,3.56-.7,7.26,7.26,0,0,1,1.73.22A9.3,9.3,0,0,1,311,301a12.61,12.61,0,0,1,1.54.9A13.58,13.58,0,0,1,313.9,303l1.78-2.13h1.11Zm-4.62-9.15a4.81,4.81,0,0,0-.36-1.83,5.35,5.35,0,0,0-1-1.56,4.85,4.85,0,0,0-1.45-1.09,4,4,0,0,0-1.78-.41,5,5,0,0,0-1.77.32,4.13,4.13,0,0,0-1.45.94,4.64,4.64,0,0,0-1,1.53,6,6,0,0,0-.35,2.1,5.91,5.91,0,0,0,.35,2.09,4.69,4.69,0,0,0,1,1.54,4.13,4.13,0,0,0,1.45.94,5,5,0,0,0,1.77.32,4,4,0,0,0,1.78-.41,4.89,4.89,0,0,0,1.45-1.1,5.22,5.22,0,0,0,1-1.56A4.76,4.76,0,0,0,312.17,309.65Z"/><path d="M324.87,318.8h-4.58v-18h1.1l1.52,2.14a8,8,0,0,1,5.44-2.1h4v4.56h-4a3.66,3.66,0,0,0-1.36.27,3.43,3.43,0,0,0-1.11.74,3.54,3.54,0,0,0-.74,1.11,3.47,3.47,0,0,0-.27,1.36Z"/><path d="M343.55,318.8a7.77,7.77,0,0,1-3.12-.63,8.08,8.08,0,0,1-2.57-1.73,7.9,7.9,0,0,1-1.72-2.56,7.6,7.6,0,0,1-.63-3.12v-5.35h-2.24v-4.56h2.24v-7.19h4.56v7.19h7v4.56h-7v5.35a3.57,3.57,0,0,0,.27,1.35,3.49,3.49,0,0,0,.74,1.1,3.62,3.62,0,0,0,1.11.75,3.47,3.47,0,0,0,1.36.27H347v4.57Z"/><path d="M354.19,318.8H349.6V293.66h4.59v7.94a5.27,5.27,0,0,1,1.69-.88,6.34,6.34,0,0,1,1.78-.26,7.85,7.85,0,0,1,3.13.63,8,8,0,0,1,2.54,1.73,8.46,8.46,0,0,1,1.72,2.57,8,8,0,0,1,.63,3.13V318.8h-4.62V308.52h0a3.33,3.33,0,0,0-.27-1.33,3.49,3.49,0,0,0-.74-1.1,3.4,3.4,0,0,0-1.09-.74,3.29,3.29,0,0,0-1.33-.27,3.42,3.42,0,0,0-3.47,3.44Z"/></g></g></svg>