<svg xmlns="http://www.w3.org/2000/svg" viewBox="0 0 306 263.95"><defs><style>.cls-1{fill:#fff;}.cls-2{fill:#444;}.cls-3{fill:#cecece;}</style></defs><title>unikrubik</title><g id="Calque_2" data-name="Calque 2"><g id="Calque_1-2" data-name="Calque 1"><polygon class="cls-1" points="127.07 199.08 126.22 135.7 98.56 120.22 98.14 88.53 42.82 57.58 44.09 152.66 127.07 199.08"/><polygon class="cls-2" points="209.06 150.26 127.36 198.91 126.51 135.53 153.75 119.31 153.32 87.62 207.79 55.19 208.21 86.88 180.98 103.09 181.41 134.78 208.64 118.57 209.06 150.26"/><polygon class="cls-3" points="43.11 57.41 124.81 8.76 152.47 24.23 125.23 40.45 152.9 55.93 180.13 39.71 207.79 55.19 153.32 87.62 125.66 72.14 98.43 88.36 43.11 57.41"/><polygon class="cls-3" points="207.36 23.49 180.13 39.71 152.47 24.23 179.7 8.02 207.36 23.49"/><polygon class="cls-2" points="208.21 86.88 235.45 70.66 235.87 102.35 208.64 118.57 208.21 86.88"/><polygon class="cls-2" points="235.02 38.97 262.26 22.75 262.68 54.44 235.45 70.66 235.02 38.97"/><polygon class="cls-3" points="262.46 22.75 234.8 7.28 207.57 23.5 235.23 38.97 262.46 22.75"/><polygon class="cls-3" points="235.45 70.66 207.79 55.19 208.21 86.88 235.45 70.66"/><polygon class="cls-3" points="181.41 134.78 180.98 103.09 208.64 118.57 181.41 134.78"/><polygon class="cls-1" points="235.45 70.66 207.79 55.19 207.57 23.5 235.23 38.97 235.45 70.66"/><polygon class="cls-2" points="180.13 39.71 207.79 55.19 207.57 23.5 180.13 39.71"/><polygon class="cls-2" points="152.9 55.93 152.47 24.23 125.23 40.45 152.9 55.93"/><polygon class="cls-1" points="208.64 118.57 180.98 103.09 208.21 86.88 208.64 118.57"/><polygon class="cls-1" points="179.84 39.88 152.18 24.41 152.61 56.1 179.84 39.88"/><polygon class="cls-3" points="153.75 119.31 126.09 103.83 98.85 120.05 126.51 135.53 153.75 119.31"/><polygon class="cls-2" points="98.43 88.36 98.85 120.05 126.09 103.83 125.66 72.14 98.43 88.36"/><polygon class="cls-1" points="153.03 87.79 125.37 72.31 125.8 104.01 153.46 119.48 153.03 87.79"/><path d="M234.8,7.28l27.46,15.6.42,31.56L235.45,70.66l.42,31.69-27.23,16.22.43,31.69-81.71,48.65L44.1,152.66l-1-95.25,81.7-48.65,27.37,15.31L179.7,8,207.57,23.5h0L234.8,7.28M234.73,0l-3.15,1.87L207.46,16.24,182.76,2.52,179.63.78l-3.1,1.8L152.11,16.82,127.88,3.27,124.71,1.5l-3.12,1.85L39.89,52l-3.11,1.85,0,3.62,1,95.25,0,3.66,3.2,1.78,83.27,46.25,3.16,1.76,3.11-1.85,81.7-48.65,3.13-1.86,0-3.63L215,122.12l24.11-14.36,3.12-1.86,0-3.63-.38-28.06L265.9,59.85,269,58l0-3.63-.42-31.57-.05-3.61-3.13-1.78L237.91,1.81,234.73,0Z"/><path d="M161.79,218.5q7.59,0,11.78,3.26t4.19,9.71q0,8.22-6.74,11.33l7,13.47a1.36,1.36,0,0,1,.17.63,1.19,1.19,0,0,1-.36.87,1.26,1.26,0,0,1-.55.31l-3.19,1.79a1.19,1.19,0,0,1-.88.37h-7.7a2.31,2.31,0,0,1-1.53-.43,3.4,3.4,0,0,1-.85-1.1l-6.28-12.12h-1.48v10a1.47,1.47,0,0,1-.45,1.08,1.49,1.49,0,0,1-.67.37l-3.07,1.73a1.47,1.47,0,0,1-1.07.45h-7.42a1.47,1.47,0,0,1-1.08-.45,1.51,1.51,0,0,1-.45-1.08V222.13a1.47,1.47,0,0,1,.45-1.08,1.56,1.56,0,0,1,.66-.37l3.08-1.73a1.47,1.47,0,0,1,1.07-.45h15.35m-6.4,17.16h6.4a10.74,10.74,0,0,0,1.3-.07,4.33,4.33,0,0,0,.46-2q0-4.2-5.5-4.2h-2.66v6.29m6.4-20.3H146.44a4.6,4.6,0,0,0-2.89,1L141,217.8a4.43,4.43,0,0,0-1.59,1,4.65,4.65,0,0,0-1.38,3.31v36.58a4.68,4.68,0,0,0,4.68,4.67h7.42a4.58,4.58,0,0,0,2.89-1l2.54-1.42a4.57,4.57,0,0,0,1.6-1,4.61,4.61,0,0,0,1.38-3.26l1.82,3.51a6.35,6.35,0,0,0,1.63,2.07,5.34,5.34,0,0,0,3.54,1.15h7.7a4.34,4.34,0,0,0,2.69-.92l2.68-1.5a4.36,4.36,0,0,0,2.76-4.06,4.54,4.54,0,0,0-.5-2L175.18,244c3.76-2.8,5.73-7.06,5.73-12.51s-1.82-9.41-5.41-12.2c-3.35-2.6-8-3.91-13.71-3.91Z"/><path d="M211.4,228.7a1.47,1.47,0,0,1,1.07.45,1.44,1.44,0,0,1,.46,1.07v26.39a1.44,1.44,0,0,1-.46,1.08,1.41,1.41,0,0,1-.66.37l-3.07,1.73a1.47,1.47,0,0,1-1.08.45h-6.57a1.55,1.55,0,0,1-1.53-1.53V258a6.32,6.32,0,0,1-.93.29,9.62,9.62,0,0,1-2.1,1.51,10.75,10.75,0,0,1-4.95,1q-5.67,0-8.84-3.23t-3.17-9.69V232.32a1.48,1.48,0,0,1,.46-1.08,1.5,1.5,0,0,1,.66-.37l3.07-1.72a1.47,1.47,0,0,1,1.08-.45H192a1.54,1.54,0,0,1,1.53,1.52v14.33a6.19,6.19,0,0,0,1.14,4,4.22,4.22,0,0,0,3.51,1.41h.21a7.32,7.32,0,0,0,.64-3.27V232.32a1.51,1.51,0,0,1,.45-1.08,1.48,1.48,0,0,1,.67-.37l3.07-1.72a1.47,1.47,0,0,1,1.07-.45h7.14m0-3.15h-7.14a4.69,4.69,0,0,0-2.9,1L198.82,228a4.39,4.39,0,0,0-1.6,1,4.59,4.59,0,0,0-.6.72,4.6,4.6,0,0,0-1.35-2.83,4.65,4.65,0,0,0-3.3-1.37h-7.13a4.67,4.67,0,0,0-2.9,1L179.4,228a4.49,4.49,0,0,0-1.6,1,4.67,4.67,0,0,0-1.37,3.3v15.57c0,5.14,1.37,9.14,4.07,11.89S187,264,191.58,264a13.64,13.64,0,0,0,6.41-1.32l.32-.17a4.57,4.57,0,0,0,2.78.92h6.57a4.63,4.63,0,0,0,2.9-1l2.54-1.43a4.49,4.49,0,0,0,1.6-1,4.6,4.6,0,0,0,1.37-3.3V230.22a4.69,4.69,0,0,0-4.67-4.67Z"/><path d="M228.16,217.94a1.51,1.51,0,0,1,1.08.45,1.47,1.47,0,0,1,.45,1.07v11.37a7,7,0,0,1,.88-.26,9.9,9.9,0,0,1,2-1.42,9.66,9.66,0,0,1,4.76-1,12.49,12.49,0,0,1,8.94,3.31q3.51,3.31,3.74,9.71c0,.38.06,1.14.06,2.27s0,1.94-.06,2.32q-.22,6.4-3.77,9.69a11.86,11.86,0,0,1-4.27,2.55,14.18,14.18,0,0,1-12.2,2.34,7,7,0,0,1-2.32-1.16c-.14-.11-.27-.25-.41-.37l-1.77,1a1.51,1.51,0,0,1-1.08.45h-6.85a1.47,1.47,0,0,1-1.08-.45,1.51,1.51,0,0,1-.45-1.08V221.56a1.51,1.51,0,0,1,.45-1.08,1.56,1.56,0,0,1,.66-.37l3.08-1.72a1.47,1.47,0,0,1,1.07-.45h7.14m6.57,32a4.39,4.39,0,0,0,.53,0,6.15,6.15,0,0,0,.83-2.79c.07-.75.11-1.28.11-1.59s0-.83-.11-1.58a5.86,5.86,0,0,0-1.39-3.57A4.75,4.75,0,0,0,231,239c-.16,0-.29,0-.45,0a5.7,5.7,0,0,0-.85,2.4,16.4,16.4,0,0,0,0,4,5.89,5.89,0,0,0,1.5,3.23,4.6,4.6,0,0,0,3.54,1.3m-6.57-35.14H221a4.64,4.64,0,0,0-2.89,1l-2.55,1.43a4.65,4.65,0,0,0-3,4.33v37.15a4.68,4.68,0,0,0,4.68,4.67h6.85a4.62,4.62,0,0,0,2.69-.85,11.92,11.92,0,0,0,1.93.79,17.48,17.48,0,0,0,14.72-2.56,15,15,0,0,0,4.85-3c3-2.75,4.57-6.72,4.77-11.79,0-.34.06-1,.06-2.52s0-2.12-.06-2.47c-.19-5.06-1.78-9-4.72-11.8a15.64,15.64,0,0,0-11.1-4.17,14.54,14.54,0,0,0-4.45.63v-6.15a4.68,4.68,0,0,0-4.67-4.67ZM232.81,245q-.09-.91-.09-1.59c0-.11,0-.22,0-.34a4,4,0,0,1,.22,1.09c.1,1,.11,1.3.11,1.34s0,.11,0,.3a3.58,3.58,0,0,1-.23-.8Z"/><path d="M264.06,216.8a1.44,1.44,0,0,1,1.08.46,1.47,1.47,0,0,1,.45,1.07v5.72a1.47,1.47,0,0,1-.45,1.08,1.59,1.59,0,0,1-.67.37l-3.07,1.72a1.44,1.44,0,0,1-1.08.46h-7.13a1.44,1.44,0,0,1-1.08-.46,1.47,1.47,0,0,1-.45-1.07v-5.72a1.47,1.47,0,0,1,.45-1.08,1.59,1.59,0,0,1,.67-.37l3.07-1.72a1.44,1.44,0,0,1,1.08-.46h7.13m0-3.14h-7.13a4.61,4.61,0,0,0-2.9,1l-2.54,1.43a4.49,4.49,0,0,0-1.6,1,4.62,4.62,0,0,0-1.38,3.3v5.72a4.69,4.69,0,0,0,4.68,4.67h7.13a4.59,4.59,0,0,0,2.9-1l2.55-1.43a4.46,4.46,0,0,0,1.59-1,4.62,4.62,0,0,0,1.38-3.3v-5.72a4.69,4.69,0,0,0-4.68-4.67Z"/><path d="M264.06,228.7a1.54,1.54,0,0,1,1.53,1.52v26.39a1.47,1.47,0,0,1-.45,1.08,1.49,1.49,0,0,1-.67.37l-3.07,1.73a1.47,1.47,0,0,1-1.08.45h-7.13a1.47,1.47,0,0,1-1.08-.45,1.51,1.51,0,0,1-.45-1.08V232.32a1.51,1.51,0,0,1,.45-1.08,1.59,1.59,0,0,1,.67-.37l3.07-1.72a1.47,1.47,0,0,1,1.08-.45h7.13m0-3.15h-7.13a4.65,4.65,0,0,0-2.9,1L251.49,228a4.34,4.34,0,0,0-1.61,1,4.63,4.63,0,0,0-1.37,3.29v26.39a4.68,4.68,0,0,0,4.68,4.67h7.13a4.59,4.59,0,0,0,2.9-1l2.55-1.42a4.69,4.69,0,0,0,3-4.34V230.22a4.69,4.69,0,0,0-4.68-4.67Z"/><path d="M280.2,217.94a1.51,1.51,0,0,1,1.08.45,1.47,1.47,0,0,1,.45,1.07v16.37l3.74-4.08a3.59,3.59,0,0,1,.76-.57h0l3.81-2.13a2.89,2.89,0,0,1,1.38-.35h8.33a1.3,1.3,0,0,1,1,.39,1.35,1.35,0,0,1,.4,1,1.07,1.07,0,0,1-.12.51,2.46,2.46,0,0,1-.51.63L290.39,242.4l11.9,13.31a1.76,1.76,0,0,1,.56,1.07,1.34,1.34,0,0,1-.39,1,1.39,1.39,0,0,1-.58.32l-3.16,1.77a1.28,1.28,0,0,1-1,.4h-8.44a2.93,2.93,0,0,1-2.32-1l-5.27-5.93v3.26a1.47,1.47,0,0,1-.45,1.08s-.09.05-.13.09h0l-.18.1a2.09,2.09,0,0,1-.29.16l-3.16,1.74a1.47,1.47,0,0,1-1.08.45h-7.13a1.47,1.47,0,0,1-1.08-.45,1.51,1.51,0,0,1-.45-1.08V221.56a1.51,1.51,0,0,1,.45-1.08,1.56,1.56,0,0,1,.66-.37l3.08-1.72a1.47,1.47,0,0,1,1.07-.45h7.14m0-3.15h-7.14a4.64,4.64,0,0,0-2.89,1l-2.55,1.43a4.65,4.65,0,0,0-3,4.33v37.15a4.68,4.68,0,0,0,4.68,4.67h7.13a4.63,4.63,0,0,0,2.89-1l2.74-1.51a4.08,4.08,0,0,0,.5-.27l.09-.05.83-.46,1.14,1.27a6,6,0,0,0,4.67,2h8.44a4.45,4.45,0,0,0,2.77-.95l2.65-1.48a4.39,4.39,0,0,0,1.5-1,4.48,4.48,0,0,0,1.32-3.19,4.79,4.79,0,0,0-1.38-3.19l-10-11.18,8.15-9.07a5.3,5.3,0,0,0,1-1.38,4.25,4.25,0,0,0,.44-1.91,4.49,4.49,0,0,0-4.5-4.5h-8.33a6.12,6.12,0,0,0-2.87.73l-3.66,2v-8.86a4.69,4.69,0,0,0-4.68-4.67Z"/><path d="M34,221a1.47,1.47,0,0,1,.45,1.08v22.59a16.8,16.8,0,0,1-2.15,8.72,13.91,13.91,0,0,1-6,5.5,20.69,20.69,0,0,1-9,1.87,20.78,20.78,0,0,1-9.09-1.87,13.69,13.69,0,0,1-6-5.5A17,17,0,0,1,0,244.71V222.12A1.47,1.47,0,0,1,.45,221a1.49,1.49,0,0,1,1.08-.45H9A1.47,1.47,0,0,1,10,221a1.44,1.44,0,0,1,.46,1.08v22.37a7.68,7.68,0,0,0,1.72,5.35,6.46,6.46,0,0,0,5,1.89,6.46,6.46,0,0,0,5-1.89A7.68,7.68,0,0,0,24,244.49V222.12a1.48,1.48,0,0,1,.46-1.08,1.47,1.47,0,0,1,1.07-.45H32.9A1.47,1.47,0,0,1,34,221Z"/><path d="M71,259.78a1.47,1.47,0,0,1-1.07.45H62.8a1.55,1.55,0,0,1-1.53-1.53V244.37a5.9,5.9,0,0,0-1.21-3.93A4.57,4.57,0,0,0,56.35,239a4.59,4.59,0,0,0-3.66,1.42,5.88,5.88,0,0,0-1.21,4V258.7a1.5,1.5,0,0,1-.46,1.08,1.47,1.47,0,0,1-1.07.45H42.81a1.55,1.55,0,0,1-1.53-1.53V232.31a1.55,1.55,0,0,1,1.53-1.53h6.85a1.47,1.47,0,0,1,1.08.45,1.51,1.51,0,0,1,.45,1.08v1.3c1.78-2.26,4.44-3.4,8-3.4q5.72,0,9,3.23t3.29,9.69V258.7A1.46,1.46,0,0,1,71,259.78Z"/><path d="M87.49,227.21a1.44,1.44,0,0,1-1.07.46H79.28a1.57,1.57,0,0,1-1.53-1.53v-5.72a1.44,1.44,0,0,1,.46-1.08,1.47,1.47,0,0,1,1.07-.45h7.14a1.47,1.47,0,0,1,1.07.45,1.48,1.48,0,0,1,.46,1.08v5.72A1.48,1.48,0,0,1,87.49,227.21Zm0,32.57a1.47,1.47,0,0,1-1.07.45H79.28a1.55,1.55,0,0,1-1.53-1.53V232.31a1.55,1.55,0,0,1,1.53-1.53h7.14a1.47,1.47,0,0,1,1.07.45,1.52,1.52,0,0,1,.46,1.08V258.7A1.5,1.5,0,0,1,87.49,259.78Z"/><path d="M111.56,231.74a3,3,0,0,1,2.21-1h8.33a1.35,1.35,0,0,1,1.35,1.36,1.06,1.06,0,0,1-.11.51,2.71,2.71,0,0,1-.51.62l-10.08,11.22,11.89,13.3a1.78,1.78,0,0,1,.57,1.08,1.37,1.37,0,0,1-1.36,1.36h-8.44a2.94,2.94,0,0,1-2.32-1l-9-10.14v9.57a1.5,1.5,0,0,1-.46,1.08,1.47,1.47,0,0,1-1.07.45H95.42a1.55,1.55,0,0,1-1.53-1.53V221.55A1.55,1.55,0,0,1,95.42,220h7.14a1.47,1.47,0,0,1,1.07.45,1.52,1.52,0,0,1,.46,1.08V239.9Z"/><path class="cls-2" d="M169.83,223.84q4.2,3.25,4.19,9.72,0,8.2-6.73,11.32l7,13.48a1.45,1.45,0,0,1,.17.62,1.22,1.22,0,0,1-.37.88,1.19,1.19,0,0,1-.88.37h-7.7a2.31,2.31,0,0,1-1.53-.43,3.4,3.4,0,0,1-.85-1.1l-6.28-12.12h-5.22V258.7a1.49,1.49,0,0,1-.45,1.08,1.47,1.47,0,0,1-1.07.45h-7.42a1.47,1.47,0,0,1-1.08-.45,1.49,1.49,0,0,1-.45-1.08V222.12a1.54,1.54,0,0,1,1.53-1.53h15.34Q165.64,220.59,169.83,223.84Zm-11.78,13.91q5.5,0,5.5-4.19c0-2.8-1.83-4.19-5.5-4.19h-6.4v8.38Z"/><path class="cls-2" d="M180,231.23a1.47,1.47,0,0,1,1.07-.45h7.14a1.55,1.55,0,0,1,1.53,1.53v14.33a6.14,6.14,0,0,0,1.13,4,4.2,4.2,0,0,0,3.51,1.42q4.59,0,4.59-5.38V232.31a1.51,1.51,0,0,1,.45-1.08,1.47,1.47,0,0,1,1.08-.45h7.13a1.47,1.47,0,0,1,1.08.45,1.51,1.51,0,0,1,.45,1.08V258.7a1.49,1.49,0,0,1-.45,1.08,1.47,1.47,0,0,1-1.08.45h-6.57a1.55,1.55,0,0,1-1.53-1.53v-1.3a9.4,9.4,0,0,1-3,2.43,10.75,10.75,0,0,1-4.95,1q-5.67,0-8.84-3.23t-3.17-9.69V232.31A1.48,1.48,0,0,1,180,231.23Z"/><path class="cls-2" d="M246.28,245.5c0,1.18,0,1.95-.05,2.33q-.24,6.39-3.77,9.68a14.1,14.1,0,0,1-12.74,2.8,6.77,6.77,0,0,1-2.32-1.16,13.05,13.05,0,0,1-1.73-1.75v1.3a1.49,1.49,0,0,1-.45,1.08,1.51,1.51,0,0,1-1.08.45h-6.85a1.47,1.47,0,0,1-1.08-.45,1.49,1.49,0,0,1-.45-1.08V221.55a1.51,1.51,0,0,1,.45-1.08,1.47,1.47,0,0,1,1.08-.45h7.13a1.47,1.47,0,0,1,1.08.45,1.51,1.51,0,0,1,.45,1.08v12.06a9,9,0,0,1,2.83-2.38,9.69,9.69,0,0,1,4.76-1,12.51,12.51,0,0,1,9,3.32q3.51,3.32,3.74,9.71C246.26,243.62,246.28,244.37,246.28,245.5Zm-18.86-5.18a5.55,5.55,0,0,0-1.47,3.2c-.07.76-.11,1.42-.11,2s0,1.23.11,2a5.89,5.89,0,0,0,1.5,3.23A4.64,4.64,0,0,0,231,252a4.75,4.75,0,0,0,3.71-1.36,5.86,5.86,0,0,0,1.39-3.57c.07-.75.11-1.28.11-1.59s0-.83-.11-1.58a5.86,5.86,0,0,0-1.39-3.57A4.75,4.75,0,0,0,231,239,4.68,4.68,0,0,0,227.42,240.32Z"/><path class="cls-2" d="M261.4,227.21a1.44,1.44,0,0,1-1.08.46h-7.13a1.44,1.44,0,0,1-1.08-.46,1.47,1.47,0,0,1-.45-1.07v-5.72a1.54,1.54,0,0,1,1.53-1.53h7.13a1.54,1.54,0,0,1,1.53,1.53v5.72A1.47,1.47,0,0,1,261.4,227.21Zm0,32.57a1.47,1.47,0,0,1-1.08.45h-7.13a1.47,1.47,0,0,1-1.08-.45,1.49,1.49,0,0,1-.45-1.08V232.31a1.51,1.51,0,0,1,.45-1.08,1.47,1.47,0,0,1,1.08-.45h7.13a1.47,1.47,0,0,1,1.08.45,1.51,1.51,0,0,1,.45,1.08V258.7A1.49,1.49,0,0,1,261.4,259.78Z"/><path class="cls-2" d="M285.47,231.74a3,3,0,0,1,2.21-1H296a1.37,1.37,0,0,1,1.36,1.36,1.19,1.19,0,0,1-.11.51,3,3,0,0,1-.51.62l-10.08,11.22,11.89,13.3a1.78,1.78,0,0,1,.57,1.08,1.31,1.31,0,0,1-.4,1,1.28,1.28,0,0,1-1,.4h-8.44a2.93,2.93,0,0,1-2.32-1l-9-10.14v9.57a1.49,1.49,0,0,1-.45,1.08,1.47,1.47,0,0,1-1.08.45h-7.13a1.47,1.47,0,0,1-1.08-.45,1.49,1.49,0,0,1-.45-1.08V221.55a1.51,1.51,0,0,1,.45-1.08,1.47,1.47,0,0,1,1.08-.45h7.13a1.47,1.47,0,0,1,1.08.45,1.51,1.51,0,0,1,.45,1.08V239.9Z"/><polygon class="cls-2" points="145.37 218.94 141.63 221.04 145.59 222.38 145.37 218.94"/><polygon class="cls-2" points="183.76 229.14 180.03 231.24 183.76 232.72 183.76 229.14"/><polygon class="cls-2" points="154.94 257.68 151.2 259.78 150.15 256.92 154.94 257.68"/><polygon class="cls-2" points="174.11 259.86 177.84 257.76 174.99 256.2 171.32 258.35 174.11 259.86"/><polygon class="cls-2" points="228.95 257.68 225.22 259.78 223.78 256.65 228.95 257.68"/><polygon class="cls-2" points="199.45 231.24 203.19 229.14 204.73 230.89 200.49 232.55 199.45 231.24"/><polygon class="cls-2" points="216.21 220.47 219.95 218.38 221.1 219.62 217.99 221.62 216.21 220.47"/><polygon class="cls-2" points="252.11 219.34 255.85 217.25 256.76 218.89 254.21 219.34 252.11 219.34"/><polygon class="cls-2" points="265.14 225.12 261.4 227.21 260.49 226.41 261.93 223.8 265.14 225.12"/><polygon class="cls-2" points="268.25 220.47 271.99 218.38 273.09 220.11 270.67 221.39 268.25 220.47"/><polygon class="cls-2" points="252.11 231.24 255.85 229.14 256.76 231 253.54 231.98 252.11 231.24"/><polygon class="cls-2" points="265.14 257.68 261.4 259.78 259.8 258.7 262.47 256.26 265.14 257.68"/><polygon class="cls-2" points="277.54 259.78 281.17 257.78 279.36 256.26 276.24 258.7 277.54 259.78"/><polygon class="cls-2" points="298.72 259.83 302.46 257.74 297.77 257.03 298.72 259.83"/><polygon class="cls-2" points="286.22 231.17 290.03 229.03 290.62 232.94 286.22 231.17"/><polyline class="cls-2" points="212.47 257.68 208.74 259.78 208.3 256.2 212.47 257.68"/><path class="cls-1" d="M173.57,221.75q4.19,3.25,4.19,9.71,0,8.22-6.74,11.33l7,13.47a1.36,1.36,0,0,1,.17.63,1.25,1.25,0,0,1-1.24,1.24h-7.7a2.37,2.37,0,0,1-1.53-.42,3.22,3.22,0,0,1-.85-1.11l-6.29-12.11h-5.21V256.6a1.47,1.47,0,0,1-.45,1.08,1.49,1.49,0,0,1-1.08.45h-7.42a1.47,1.47,0,0,1-1.07-.45,1.44,1.44,0,0,1-.46-1.08V220a1.57,1.57,0,0,1,1.53-1.53h15.35Q169.38,218.49,173.57,221.75Zm-11.78,13.9q5.49,0,5.49-4.19t-5.49-4.19h-6.4v8.38Z"/><path class="cls-1" d="M183.76,229.14a1.47,1.47,0,0,1,1.08-.45H192a1.54,1.54,0,0,1,1.53,1.52v14.33a6.19,6.19,0,0,0,1.14,4,4.22,4.22,0,0,0,3.51,1.41q4.57,0,4.58-5.38V230.21a1.44,1.44,0,0,1,.46-1.07,1.47,1.47,0,0,1,1.07-.45h7.14a1.47,1.47,0,0,1,1.07.45,1.44,1.44,0,0,1,.46,1.07V256.6a1.44,1.44,0,0,1-.46,1.08,1.47,1.47,0,0,1-1.07.45h-6.57a1.54,1.54,0,0,1-1.53-1.53v-1.3a9.42,9.42,0,0,1-3,2.44,10.8,10.8,0,0,1-5,1q-5.66,0-8.83-3.23t-3.17-9.68V230.21A1.47,1.47,0,0,1,183.76,229.14Z"/><path class="cls-1" d="M250,243.41c0,1.17,0,1.94-.06,2.32q-.22,6.41-3.77,9.69a12.57,12.57,0,0,1-8.91,3.28,12.82,12.82,0,0,1-3.83-.48,7.05,7.05,0,0,1-2.32-1.16,14.51,14.51,0,0,1-1.73-1.76v1.3a1.54,1.54,0,0,1-1.52,1.53H221a1.47,1.47,0,0,1-1.07-.45,1.44,1.44,0,0,1-.46-1.08V219.46a1.44,1.44,0,0,1,.46-1.08,1.47,1.47,0,0,1,1.07-.45h7.14a1.51,1.51,0,0,1,1.08.45,1.47,1.47,0,0,1,.45,1.08v12.06a8.89,8.89,0,0,1,2.83-2.38,9.66,9.66,0,0,1,4.76-1,12.49,12.49,0,0,1,8.94,3.31q3.51,3.31,3.74,9.71C250,241.52,250,242.28,250,243.41Zm-18.86-5.18a5.52,5.52,0,0,0-1.47,3.2,16.4,16.4,0,0,0,0,4,5.85,5.85,0,0,0,1.5,3.23,4.6,4.6,0,0,0,3.54,1.3,4.73,4.73,0,0,0,3.71-1.36,5.8,5.8,0,0,0,1.38-3.56q.12-1.14.12-1.59t-.12-1.59a5.8,5.8,0,0,0-1.38-3.56,4.73,4.73,0,0,0-3.71-1.36A4.64,4.64,0,0,0,231.16,238.23Z"/><path class="cls-1" d="M265.14,225.12a1.47,1.47,0,0,1-1.08.45h-7.13A1.54,1.54,0,0,1,255.4,224v-5.72a1.47,1.47,0,0,1,.45-1.07,1.48,1.48,0,0,1,1.08-.46h7.13a1.48,1.48,0,0,1,1.08.46,1.47,1.47,0,0,1,.45,1.07V224A1.47,1.47,0,0,1,265.14,225.12Zm0,32.56a1.47,1.47,0,0,1-1.08.45h-7.13a1.54,1.54,0,0,1-1.53-1.53V230.21a1.54,1.54,0,0,1,1.53-1.52h7.13a1.54,1.54,0,0,1,1.53,1.52V256.6A1.47,1.47,0,0,1,265.14,257.68Z"/><path class="cls-1" d="M289.21,229.65a3,3,0,0,1,2.2-1h8.33a1.3,1.3,0,0,1,1,.39,1.35,1.35,0,0,1,.4,1,1.07,1.07,0,0,1-.12.51,2.46,2.46,0,0,1-.51.63l-10.08,11.21,11.9,13.31a1.76,1.76,0,0,1,.56,1.07,1.33,1.33,0,0,1-1.36,1.36h-8.44a2.94,2.94,0,0,1-2.32-1l-9-10.14v9.57a1.47,1.47,0,0,1-.45,1.08,1.51,1.51,0,0,1-1.08.45h-7.14a1.54,1.54,0,0,1-1.52-1.53V219.46a1.54,1.54,0,0,1,1.52-1.53h7.14a1.51,1.51,0,0,1,1.08.45,1.47,1.47,0,0,1,.45,1.08V237.8Z"/><rect x="174.09" y="242.14" width="3.39" height="4.89"/><rect x="231.19" y="242.14" width="3.39" height="4.89"/></g></g></svg>