<svg xmlns="http://www.w3.org/2000/svg" viewBox="0 0 143.26 256.62"><defs><style>.cls-1{fill:#a20e3f;}.cls-2{fill:#fff;}</style></defs><title>mylogo_3</title><g id="Calque_2" data-name="Calque 2"><g id="Calque_2-2" data-name="Calque 2"><path class="cls-1" d="M105,55.11H45.1L75,5.5Zm-40.41-11H85.48L75,26.82Z"/><path class="cls-1" d="M110.72,65.29H39.35L22,93.39l3.39,5.49h86.33L74.88,158.2,58.31,131.41H75.07l6.8-11H38.52l36.34,58.76,53.23-85.77ZM38.36,87.85l7.13-11.53h59.09l7.13,11.53Z"/><polygon class="cls-1" points="45.1 55.11 41.75 49.61 50.88 46.61 52.01 52.55 45.1 55.11"/><polygon class="cls-1" points="81.87 120.38 78.52 114.88 72.48 118.88 75.03 122.72 81.87 120.38"/><path class="cls-2" d="M101.69,49.61H41.75L71.67,0Zm-40.41-11H82.13L71.69,21.33Z"/><path class="cls-2" d="M107.37,59.79H36L18.62,87.89,22,93.39h86.34L71.53,152.7,55,125.91H71.71l6.81-11H35.17l36.34,58.76,53.23-85.76ZM35,82.36l7.14-11.54h59.08l7.14,11.54Z"/><path class="cls-1" d="M17.88,217.51H9.66l-2,4.85H2.82L14,196.58h.27l11.19,25.78H19.81Zm-1.61-4.11-2.4-6-2.49,6Z"/><path class="cls-1" d="M42.45,222.36l-5.22-7.88H34v7.88H29.07v-24.8h7.52c3.08,0,5.47.74,7.16,2.24a7.72,7.72,0,0,1,2.55,6.12,9.8,9.8,0,0,1-1,4.29,7.12,7.12,0,0,1-3,3.15l5.76,9ZM34,209.76h3.47a3.47,3.47,0,0,0,2.9-1.16,4,4,0,0,0,.91-2.51,4.82,4.82,0,0,0-.77-2.58,3.28,3.28,0,0,0-3-1.23H34Z"/><path class="cls-1" d="M66.72,197.56v4.72h-6v20.08H55.8V202.28H50v-4.72Z"/><path class="cls-1" d="M92.3,222.36H87.42V212.29H76.33v10.07H71.44v-24.8h4.89v10H87.42v-10H92.3Z"/><path class="cls-1" d="M103.8,215.45a5.48,5.48,0,0,0,1.88,1.76,5,5,0,0,0,2.53.67,5.4,5.4,0,0,0,2.67-.67,5.29,5.29,0,0,0,1.9-1.76,4.1,4.1,0,0,0,.69-2.25V197.56h4.82V213.3a8.83,8.83,0,0,1-1.35,4.8,9.29,9.29,0,0,1-3.66,3.34,10.92,10.92,0,0,1-5.07,1.19,10.81,10.81,0,0,1-5-1.19,9.21,9.21,0,0,1-3.63-3.34,9,9,0,0,1-1.33-4.8V197.56h4.89V213.2A4,4,0,0,0,103.8,215.45Z"/><path class="cls-1" d="M137.57,222.36l-5.23-7.88h-3.26v7.88h-4.89v-24.8h7.51c3.08,0,5.47.74,7.17,2.24a7.74,7.74,0,0,1,2.54,6.12,9.8,9.8,0,0,1-1,4.29,7.07,7.07,0,0,1-2.95,3.15l5.76,9Zm-8.49-12.6h3.47a3.48,3.48,0,0,0,2.9-1.16,4.06,4.06,0,0,0,.91-2.51,4.74,4.74,0,0,0-.78-2.58,3.28,3.28,0,0,0-3-1.23h-3.5Z"/><path class="cls-1" d="M9.83,252.59a7.29,7.29,0,0,1-2.92,2.93,9.66,9.66,0,0,1-4.36,1.1v-3.91C5.4,252.57,6.82,251,6.82,248V232h4v16.11A9.3,9.3,0,0,1,9.83,252.59Z"/><path class="cls-1" d="M30.07,232v3.88H20.16v4.35h8.77v3.89H20.16v4.41H30.45v3.88H16.14V232Z"/><path class="cls-1" d="M44.71,248.39H37.94l-1.66,4h-4l9.21-21.22h.22L51,252.38H46.29ZM43.38,245l-2-5-2,5Z"/><path class="cls-1" d="M72.31,232v21.24H72.2l-14.29-12.9L58,252.38H53.92V231.16h.17l14.25,13.09L68.26,232Z"/><path class="cls-1" d="M96,232v21.24h-.11l-14.29-12.9.09,12.07H77.58V231.16h.17L92,244.25,91.92,232Z"/><path class="cls-1" d="M101.39,237a10.68,10.68,0,0,1,3.8-3.84,10.19,10.19,0,0,1,10.41,0,10.81,10.81,0,0,1,3.82,3.84,10.19,10.19,0,0,1,0,10.41,10.57,10.57,0,0,1-3.82,3.78,10.39,10.39,0,0,1-10.42,0,10.48,10.48,0,0,1-3.79-3.78,10.38,10.38,0,0,1,0-10.41Zm3.61,8.46a6.41,6.41,0,0,0,2.3,2.38,6.18,6.18,0,0,0,3.23.87,5.87,5.87,0,0,0,3.14-.87,6.29,6.29,0,0,0,2.22-2.36,6.87,6.87,0,0,0,.8-3.29,6.69,6.69,0,0,0-.83-3.33,6.36,6.36,0,0,0-2.26-2.37,6.23,6.23,0,0,0-6.35,0,6.2,6.2,0,0,0-2.26,2.37,6.7,6.7,0,0,0-.84,3.33A6.59,6.59,0,0,0,105,245.47Z"/><path class="cls-1" d="M143.26,232v21.24h-.11l-14.28-12.9.08,12.07h-4.08V231.16H125l14.26,13.09L139.21,232Z"/><path class="cls-2" d="M15.33,213.61H7.11l-2,4.86H.27l11.19-25.79h.27l11.19,25.79H17.25Zm-1.61-4.11-2.4-6-2.49,6Z"/><path class="cls-2" d="M39.9,218.47l-5.22-7.89H31.41v7.89H26.52V193.66H34c3.08,0,5.46.75,7.16,2.24A7.75,7.75,0,0,1,43.75,202a9.84,9.84,0,0,1-1,4.3,7.23,7.23,0,0,1-2.95,3.15l5.76,9Zm-8.49-12.61h3.47a3.47,3.47,0,0,0,2.9-1.16,4,4,0,0,0,.91-2.51,4.74,4.74,0,0,0-.78-2.58c-.51-.82-1.51-1.23-3-1.23H31.41Z"/><path class="cls-2" d="M64.17,193.66v4.72h-6v20.09H53.25V198.38h-5.8v-4.72Z"/><path class="cls-2" d="M89.75,218.47H84.87V208.39H73.78v10.08H68.89V193.66h4.89v10H84.87v-10h4.88Z"/><path class="cls-2" d="M101.25,211.56a5.45,5.45,0,0,0,1.88,1.75,5,5,0,0,0,2.53.67,5.4,5.4,0,0,0,2.67-.67,5.26,5.26,0,0,0,1.9-1.75,4.13,4.13,0,0,0,.69-2.26V193.66h4.82V209.4a8.78,8.78,0,0,1-1.35,4.8,9.29,9.29,0,0,1-3.66,3.34,10.8,10.8,0,0,1-5.07,1.2,10.69,10.69,0,0,1-5-1.2A9.21,9.21,0,0,1,97,214.2a8.93,8.93,0,0,1-1.33-4.8V193.66h4.89V209.3A4.07,4.07,0,0,0,101.25,211.56Z"/><path class="cls-2" d="M135,218.47l-5.23-7.89h-3.26v7.89h-4.89V193.66h7.51q4.62,0,7.17,2.24a7.77,7.77,0,0,1,2.54,6.12,9.84,9.84,0,0,1-1,4.3,7.17,7.17,0,0,1-3,3.15l5.76,9Zm-8.49-12.61H130a3.48,3.48,0,0,0,2.9-1.16,4,4,0,0,0,.91-2.51,4.74,4.74,0,0,0-.78-2.58,3.28,3.28,0,0,0-3-1.23h-3.5Z"/><path class="cls-2" d="M7.28,248.69a7.19,7.19,0,0,1-2.93,2.93A9.75,9.75,0,0,1,0,252.73v-3.91q4.28-.23,4.27-4.72v-16H8.32v16.11A9.3,9.3,0,0,1,7.28,248.69Z"/><path class="cls-2" d="M27.52,228.07V232H17.61v4.36h8.77v3.88H17.61v4.41H27.9v3.88H13.59V228.07Z"/><path class="cls-2" d="M42.16,244.49H35.39l-1.66,4h-4L39,227.26h.22l9.21,21.22H43.74Zm-1.33-3.38-2-5-2,5Z"/><path class="cls-2" d="M69.76,228.07v21.25h-.11l-14.29-12.9.09,12.06H51.37V227.26h.17l14.25,13.1-.08-12.29Z"/><path class="cls-2" d="M93.42,228.07v21.25h-.11L79,236.42l.09,12.06H75V227.26h.17l14.25,13.1-.08-12.29Z"/><path class="cls-2" d="M98.84,233.12a10.7,10.7,0,0,1,3.8-3.85,10.25,10.25,0,0,1,10.41,0,10.84,10.84,0,0,1,3.82,3.85,10.17,10.17,0,0,1,0,10.4,10.57,10.57,0,0,1-3.82,3.78,10.33,10.33,0,0,1-10.42,0,10.48,10.48,0,0,1-3.79-3.78,10.36,10.36,0,0,1,0-10.4Zm3.61,8.46a6.31,6.31,0,0,0,2.3,2.37,6.18,6.18,0,0,0,3.23.87,5.87,5.87,0,0,0,3.14-.87,6.22,6.22,0,0,0,2.22-2.36,6.84,6.84,0,0,0,.8-3.29,6.73,6.73,0,0,0-.83-3.32,6.46,6.46,0,0,0-2.26-2.38,6.23,6.23,0,0,0-6.35,0,6.3,6.3,0,0,0-2.26,2.38,6.87,6.87,0,0,0,0,6.6Z"/><path class="cls-2" d="M140.71,228.07v21.25h-.11l-14.28-12.9.08,12.06h-4.08V227.26h.17l14.26,13.1-.09-12.29Z"/></g></g></svg>