<svg xmlns="http://www.w3.org/2000/svg" viewBox="0 0 108.55 46.32"><defs><style>.cls-1{fill:#fff;}</style></defs><title>nomseul</title><g id="Calque_2" data-name="Calque 2"><g id="PLAN_4" data-name="PLAN 4"><g id="Calque_103" data-name="Calque 103"><g id="Calque_102" data-name="Calque 102"><g id="Calque_161" data-name="Calque 161"><path class="cls-1" d="M11.83,16.15H5.48L3.92,19.89H.21L8.84,0h.21l8.63,19.89H13.31ZM10.58,13,8.73,8.32,6.81,13Z"/><path class="cls-1" d="M30.78,19.89l-4-6.08H24.23v6.08H20.46V.75h5.8a8.1,8.1,0,0,1,5.52,1.73,6,6,0,0,1,2,4.72A7.51,7.51,0,0,1,33,10.52,5.49,5.49,0,0,1,30.73,13l4.45,6.94Zm-6.55-9.72h2.68a2.64,2.64,0,0,0,2.23-.9,3.08,3.08,0,0,0,.71-1.94,3.7,3.7,0,0,0-.6-2,2.54,2.54,0,0,0-2.32-1h-2.7Z"/><path class="cls-1" d="M49.5.75V4.39H44.85v15.5H41.08V4.39H36.61V.75Z"/><path class="cls-1" d="M69.24,19.89H65.47V12.12H56.91v7.77H53.14V.75h3.77V8.48h8.56V.75h3.77Z"/><path class="cls-1" d="M78.1,14.56a4.22,4.22,0,0,0,1.46,1.35,3.85,3.85,0,0,0,2,.52,4.11,4.11,0,0,0,2-.52A3.92,3.92,0,0,0,85,14.56a3.17,3.17,0,0,0,.54-1.74V.75h3.71V12.9a6.75,6.75,0,0,1-1,3.7,7.07,7.07,0,0,1-2.82,2.57,8.66,8.66,0,0,1-7.81,0,7.08,7.08,0,0,1-2.8-2.57,6.91,6.91,0,0,1-1-3.7V.75h3.77V12.82A3.17,3.17,0,0,0,78.1,14.56Z"/><path class="cls-1" d="M104.16,19.89l-4-6.08H97.6v6.08H93.83V.75h5.8a8.11,8.11,0,0,1,5.53,1.73,6,6,0,0,1,2,4.72,7.64,7.64,0,0,1-.74,3.32A5.51,5.51,0,0,1,104.1,13l4.45,6.94ZM97.6,10.17h2.68a2.67,2.67,0,0,0,2.24-.9,3.07,3.07,0,0,0,.7-1.94,3.7,3.7,0,0,0-.6-2,2.53,2.53,0,0,0-2.31-1H97.6Z"/><path class="cls-1" d="M5.62,43.21a5.63,5.63,0,0,1-2.26,2.25A7.4,7.4,0,0,1,0,46.32v-3c2.2-.11,3.29-1.32,3.29-3.64V27.3H6.42V39.73A7.21,7.21,0,0,1,5.62,43.21Z"/><path class="cls-1" d="M21.23,27.3v3H13.59v3.36h6.76v3H13.59v3.4h7.94v3h-11V27.3Z"/><path class="cls-1" d="M32.52,40H27.3L26,43H23l7.1-16.36h.17L37.34,43h-3.6Zm-1-2.61L30,33.52l-1.59,3.83Z"/><path class="cls-1" d="M53.81,27.3V43.69h-.08l-11-9.95.06,9.3H39.63V26.68h.13l11,10.1-.06-9.48Z"/><path class="cls-1" d="M72.07,27.3V43.69H72L61,33.74,61,43H57.88V26.68H58l11,10.1-.07-9.48Z"/><path class="cls-1" d="M76.25,31.19a8.15,8.15,0,0,1,2.93-3,7.8,7.8,0,0,1,8,0,8.31,8.31,0,0,1,3,3,7.77,7.77,0,0,1,1.1,4,7.69,7.69,0,0,1-1.1,4,8.31,8.31,0,0,1-3,2.93,8,8,0,0,1-8,0,8.12,8.12,0,0,1-2.92-2.93,7.76,7.76,0,0,1-1.08-4A7.85,7.85,0,0,1,76.25,31.19ZM79,37.72a5,5,0,0,0,1.78,1.83,4.74,4.74,0,0,0,2.49.67,4.53,4.53,0,0,0,2.42-.67,4.75,4.75,0,0,0,1.71-1.82,5.28,5.28,0,0,0,.62-2.54,5.19,5.19,0,0,0-.64-2.57,4.88,4.88,0,0,0-1.75-1.83,4.58,4.58,0,0,0-2.45-.67,4.63,4.63,0,0,0-2.45.67A4.94,4.94,0,0,0,79,32.62a5.19,5.19,0,0,0-.64,2.57A5.1,5.1,0,0,0,79,37.72Z"/><path class="cls-1" d="M108.55,27.3V43.69h-.09l-11-9.95.07,9.3H94.36V26.68h.13l11,10.1-.07-9.48Z"/></g></g></g></g></g></svg>