<svg xmlns="http://www.w3.org/2000/svg" viewBox="0 0 312.5 312.5"><defs><style>.cls-1{fill:#231e1b;}.cls-2{fill:#e9e5c6;}.cls-3{fill:#b1875a;}</style></defs><title>tsa_01</title><g id="Calque_2" data-name="Calque 2"><g id="Calque_1-2" data-name="Calque 1"><path class="cls-1" d="M276,312.5H36.46L0,276V36.46L36.46,0H276L312.5,36.46V276Z"/></g><g id="Calque_7" data-name="Calque 7"><path class="cls-2" d="M97.78,161.69l1.09.43c1,.34,1.93.6,2.68.78a23.76,23.76,0,0,0,2.4.46,9.85,9.85,0,0,0,2.34.07,4.49,4.49,0,0,0,1.28-.34,3.61,3.61,0,0,0,1.07-.7,3.15,3.15,0,0,0,.71-1,1.92,1.92,0,0,0,.15-1.16,3.77,3.77,0,0,0-.15-.82,1.54,1.54,0,0,0-.4-.65,4.8,4.8,0,0,0-.93-.71c-.41-.26-1-.59-1.72-1L102.55,155a21.34,21.34,0,0,1-2.57-1.65,9.67,9.67,0,0,1-1.78-1.7,7.64,7.64,0,0,1-1.12-2,9.81,9.81,0,0,1-.22-6,8.44,8.44,0,0,1,1.6-3,8.58,8.58,0,0,1,2.69-2.17,9.56,9.56,0,0,1,3.53-1.06,20.93,20.93,0,0,1,4,.07c1.61.15,3.35.36,5.21.64l.51.08.49,4.77-.94-.31c-1-.27-1.76-.47-2.44-.63s-1.4-.27-2.17-.37a8.14,8.14,0,0,0-2-.07,3.73,3.73,0,0,0-2.23,1,2.36,2.36,0,0,0-.73,2.14,3.55,3.55,0,0,0,.17.84,1.69,1.69,0,0,0,.42.64,5.41,5.41,0,0,0,.86.66c.37.24.86.52,1.48.85l4.36,2.33a18.43,18.43,0,0,1,2.37,1.49,9.23,9.23,0,0,1,1.68,1.61,6.65,6.65,0,0,1,1.07,1.91,9.43,9.43,0,0,1,.52,2.36,9,9,0,0,1-.38,3.77,9.27,9.27,0,0,1-4.68,5.46,10.53,10.53,0,0,1-3.82,1.1,23.69,23.69,0,0,1-3.64,0,38.28,38.28,0,0,1-5-.69l-1.4-.27Z"/><path class="cls-2" d="M129.57,159a1.18,1.18,0,0,0,.47.72,1.92,1.92,0,0,0,.94.25,13.27,13.27,0,0,0,1.64,0,3.3,3.3,0,0,0,.58,0c.16,0,.41-.09.73-.18l.73-.16.41,3.87a13.59,13.59,0,0,1-1.28.51l-1.65.63v0l-1.41.48c-.38.12-.71.22-1,.29s-.58.14-.85.19-.58.1-.91.14a5.18,5.18,0,0,1-6.39-5l-1.44-13.92-2.31.24-.4-3.88,6.28-6.48,3.42-.35.5,4.86,5.07-.53.5,4.78-5.07.53,1.21,11.61A8.21,8.21,0,0,0,129.57,159Z"/><path class="cls-2" d="M150.7,158.11a12.35,12.35,0,0,0,1.58-.25c.53-.11,1.24-.29,2.13-.55l.65-.19,1,3.93-1.41.48-2.41.87a28.62,28.62,0,0,1-3.2,1,19.27,19.27,0,0,1-2.56.43,10.23,10.23,0,0,1-4.25-.39,9.22,9.22,0,0,1-3.43-2,10.78,10.78,0,0,1-2.44-3.42,14.54,14.54,0,0,1-1.2-4.57,17.46,17.46,0,0,1,.23-5.4,12.18,12.18,0,0,1,1.81-4.39,10.08,10.08,0,0,1,3.23-3,10.75,10.75,0,0,1,4.49-1.43,10.23,10.23,0,0,1,3.73.26,7.38,7.38,0,0,1,3.09,1.66,14,14,0,0,1,1.29,1.24,5.24,5.24,0,0,1,.94,1.42,9.91,9.91,0,0,1,.64,1.93,23,23,0,0,1,.43,2.77l.15,1.44-12,2.57a7.62,7.62,0,0,0,2.63,4.52A7,7,0,0,0,150.7,158.11Zm-3.59-11a14.69,14.69,0,0,0-.35-2.13,4.51,4.51,0,0,0-.5-1.26,1.32,1.32,0,0,0-.69-.57,2.09,2.09,0,0,0-.88-.08,1.94,1.94,0,0,0-1.7,1.28,9.25,9.25,0,0,0-.22,4.29l0,.17,4.38-1.08Z"/><path class="cls-2" d="M158.68,143.54l-.57-3.48,1.46-.77v0c.72-.3,1.38-.56,2-.77l1.62-.61a21.77,21.77,0,0,1,2.57-.76,19.81,19.81,0,0,1,2.35-.41,7.9,7.9,0,0,1,5.22,1v0A4.36,4.36,0,0,1,175,139.7a9.17,9.17,0,0,1,.76,3l1.81,17.51-7.49.78-.14-1.32a5.43,5.43,0,0,0-.91.51h0a14.13,14.13,0,0,1-2.1,1.22,6.06,6.06,0,0,1-6.69-1.13,7.58,7.58,0,0,1-1.58-2.17,8,8,0,0,1-.79-2.75,9.9,9.9,0,0,1,.17-3.18,7.46,7.46,0,0,1,1.25-2.8,8.11,8.11,0,0,1,2.4-2.16,10.39,10.39,0,0,1,3.57-1.29h0l3.22-.66-.22-2.14a2.33,2.33,0,0,0-.89-1.91,3.18,3.18,0,0,0-1.8-.36,8.56,8.56,0,0,0-1.91.45c-.7.24-1.35.5-1.94.77s-1.32.61-2.16,1Zm9.44,5.85a3.35,3.35,0,0,0-2.19,1.77,5.14,5.14,0,0,0-.4,2.62,2.85,2.85,0,0,0,.94,2,3.42,3.42,0,0,0,2.24.49l.45,0a1.17,1.17,0,0,0,.4-.13l-.72-6.92Z"/><path class="cls-2" d="M178.74,136.55l7.86-2,.24,2.27a29.28,29.28,0,0,1,3.3-1.84,8.36,8.36,0,0,1,2.59-.73,5.07,5.07,0,0,1,2.48.24,7.76,7.76,0,0,1,2.32,1.47,17.37,17.37,0,0,1,7.11-3,7.68,7.68,0,0,1,2.59.17,6.47,6.47,0,0,1,2.28,1.08,5.91,5.91,0,0,1,2,2.5,14.45,14.45,0,0,1,.89,4L214,156.45l-8,.83-1.5-14.5a11.55,11.55,0,0,0-.37-2.1,2.58,2.58,0,0,0-.64-1.19,2,2,0,0,0-1.11-.48,10.16,10.16,0,0,0-1.74-.07,2.6,2.6,0,0,0-.58,0,3.24,3.24,0,0,0-.52.15,11.75,11.75,0,0,1,.3,1.64l1.76,17-8,.83-1.5-14.42a16.11,16.11,0,0,0-.36-2.21,2.69,2.69,0,0,0-.6-1.21,1.71,1.71,0,0,0-1-.47,12.12,12.12,0,0,0-1.69,0,2.33,2.33,0,0,0-.66.07l-.53.13L189.15,159l-8,.83Z"/><path class="cls-2" d="M116.73,202.78l4.84-24.39,7-.73,9.19,22.94-7.17.74-2.76-8-4.86.51-1.06,8.38Zm10-12.41c-.16-.43-.36-1-.62-1.71l-.75-2.11c-.25-.69-.55-1.55-.9-2.55l-1,6.7Z"/><path class="cls-2" d="M146,199.74l-6.4.66-1.94-18.68,6.3-1.62.2,1.94.64-.66a6.46,6.46,0,0,1,1.5-1.06,4.47,4.47,0,0,1,1.55-.36,4.85,4.85,0,0,1,.85,0,3.46,3.46,0,0,1,.9.17l.35.1.63,6.14-6.11-1.4Z"/><path class="cls-2" d="M160.92,193.24a.94.94,0,0,0,.37.58,1.65,1.65,0,0,0,.76.2,10,10,0,0,0,1.31,0,1.71,1.71,0,0,0,.47,0c.13,0,.32-.07.58-.14l.59-.13.32,3.1c-.55.24-.89.37-1,.41l-1.32.5v0l-1.13.38a7.43,7.43,0,0,1-.81.23l-.69.16-.72.11a4.14,4.14,0,0,1-5.12-4l-1.16-11.16-1.85.19-.32-3.1,5-5.19,2.74-.29.41,3.9,4.06-.42.4,3.83-4.07.42,1,9.31A6.69,6.69,0,0,0,160.92,193.24Z"/><path class="cls-2" d="M172.68,173.48a2.41,2.41,0,0,1-.66,2.31,4,4,0,0,1-2.61.93,4.46,4.46,0,0,1-2.89-.33A3.1,3.1,0,0,1,166,172a4.16,4.16,0,0,1,2.6-.93,4.51,4.51,0,0,1,2.89.31A2.31,2.31,0,0,1,172.68,173.48Zm-6.3,5.19,6.31-1.52,2,19.61-6.41.67Z"/><path class="cls-2" d="M177.25,191.83l.77.35c.72.26,1.34.45,1.85.58s1.06.23,1.63.31a6.48,6.48,0,0,0,1.56.06,4.53,4.53,0,0,0,.9-.21,2.71,2.71,0,0,0,.75-.42,1.72,1.72,0,0,0,.5-.55.92.92,0,0,0,.1-.63,2.22,2.22,0,0,0-.11-.54,1.09,1.09,0,0,0-.33-.45,5.38,5.38,0,0,0-.75-.53c-.34-.2-.8-.46-1.39-.78l-2.29-1.23a12.4,12.4,0,0,1-1.75-1.07,6.86,6.86,0,0,1-1.2-1.12,4.42,4.42,0,0,1-.73-1.28,6.41,6.41,0,0,1-.35-1.55,5.66,5.66,0,0,1,.24-2.41,5.13,5.13,0,0,1,1.13-2,5.69,5.69,0,0,1,1.91-1.35,8.23,8.23,0,0,1,2.57-.67l1-.08a10.21,10.21,0,0,1,1.13,0l1.46.06c.55,0,1.18.09,1.9.17l1.22.14.37,3.3-.75-.22c-.69-.17-1.27-.3-1.76-.39s-1-.15-1.56-.22a7.2,7.2,0,0,0-1.45,0,2.27,2.27,0,0,0-1.28.52,1.1,1.1,0,0,0-.42,1.09,3,3,0,0,0,.08.51.9.9,0,0,0,.24.39,2.94,2.94,0,0,0,.56.39c.25.15.61.34,1.08.58v0l2.36,1.19a17.41,17.41,0,0,1,1.92,1.14,6.53,6.53,0,0,1,1.31,1.16,4.93,4.93,0,0,1,.79,1.34,6.45,6.45,0,0,1,.36,1.61,6.26,6.26,0,0,1-.24,2.61,5.87,5.87,0,0,1-1.22,2.15,6.18,6.18,0,0,1-2,1.49,7.91,7.91,0,0,1-2.69.73,17.5,17.5,0,0,1-2.9,0c-1.19-.09-2.45-.23-3.79-.43l-.4-.06Z"/><path class="cls-2" d="M200.27,189.15a.91.91,0,0,0,.37.58,1.53,1.53,0,0,0,.76.21,12.31,12.31,0,0,0,1.32,0,3.13,3.13,0,0,0,.46,0l.59-.15.58-.13.32,3.11c-.55.23-.89.37-1,.4l-1.32.51v0c-.45.16-.83.29-1.13.38s-.57.18-.81.24l-.69.15a6.12,6.12,0,0,1-.72.11,4.14,4.14,0,0,1-5.12-4l-1.16-11.16-1.85.19-.32-3.1,5-5.2,2.74-.28.41,3.89,4.06-.42.4,3.83-4.06.42,1,9.31A6.51,6.51,0,0,0,200.27,189.15Z"/><path class="cls-3" d="M135.7,112.7l-3.9,2.49-.44-4.2,12.54-1.3.44,4.2L140,112.25l1.39,13.37-4.33.44Z"/><path class="cls-3" d="M146.79,125.06,145,107.67l4.13-1.13.66,6.34.37-.21.42-.24.68-.37a4.19,4.19,0,0,1,.55-.24l.5-.15a3.74,3.74,0,0,1,.52-.09,2.93,2.93,0,0,1,2.65.92,5.53,5.53,0,0,1,1.21,3.19l.86,8.25-4.2.44-.79-7.62a11.09,11.09,0,0,0-.18-1.19,1.33,1.33,0,0,0-.3-.62.84.84,0,0,0-.54-.23,7.68,7.68,0,0,0-.88,0,1.87,1.87,0,0,0-.34,0l-.33.08,1,9.81Z"/><path class="cls-3" d="M166.75,120.4a8.38,8.38,0,0,0,.83-.13c.28-.06.65-.15,1.12-.29l.34-.1.54,2.07-.74.25-1.27.46a14.85,14.85,0,0,1-1.68.52,10.58,10.58,0,0,1-1.35.23,5.29,5.29,0,0,1-2.23-.2,4.85,4.85,0,0,1-1.8-1.07,5.35,5.35,0,0,1-1.28-1.79,7.69,7.69,0,0,1-.64-2.41,9.42,9.42,0,0,1,.12-2.83,6.48,6.48,0,0,1,1-2.31,5.38,5.38,0,0,1,1.69-1.6,5.61,5.61,0,0,1,2.36-.75,5.35,5.35,0,0,1,2,.14,3.87,3.87,0,0,1,1.62.87,8.61,8.61,0,0,1,.68.65,2.63,2.63,0,0,1,.49.75,5.18,5.18,0,0,1,.34,1,12.55,12.55,0,0,1,.23,1.46l.07.75-6.29,1.36a4,4,0,0,0,1.38,2.37A3.68,3.68,0,0,0,166.75,120.4Zm-1.89-5.78a9.08,9.08,0,0,0-.18-1.12,2.63,2.63,0,0,0-.27-.66.73.73,0,0,0-.36-.3,1.15,1.15,0,0,0-.46,0,1,1,0,0,0-.9.67,5,5,0,0,0-.11,2.26v.09l2.3-.57Z"/><path class="cls-3" d="M163.67,49.61a1.53,1.53,0,0,1,1.52,1.53l1.59,11.55A91.23,91.23,0,0,1,179,65.1l6-10.35a1.52,1.52,0,0,1,1.41-.94,1.46,1.46,0,0,1,.58.11l15.81,6.55a1.53,1.53,0,0,1,.82,2l-3,11.56a90.74,90.74,0,0,1,10.51,7l9.36-7.1a1.51,1.51,0,0,1,1.08-.45,1.52,1.52,0,0,1,1.08.45L234.76,86a1.52,1.52,0,0,1,0,2.16l-7.07,9.33a92.49,92.49,0,0,1,6.86,10.18l11.49-3a1.49,1.49,0,0,1,.58-.11,1.52,1.52,0,0,1,1.41.94l6.55,15.8a1.54,1.54,0,0,1-.83,2l-10.13,5.93a90.24,90.24,0,0,1,2.54,12.59l11.59,1.6a1.52,1.52,0,0,1,1.52,1.52v17.11a1.52,1.52,0,0,1-1.52,1.52l-11.56,1.59a90.83,90.83,0,0,1-2.37,12.1l10,5.87a1.53,1.53,0,0,1,.83,2L248.13,201a1.53,1.53,0,0,1-1.41.94,1.43,1.43,0,0,1-.58-.12L235,198.86a91.68,91.68,0,0,1-7.13,10.7l7.1,9.36a1.54,1.54,0,0,1,0,2.16l-12.1,12.09a1.49,1.49,0,0,1-1.08.45,1.52,1.52,0,0,1-1.08-.45l-9.33-7.07a91.05,91.05,0,0,1-10.36,7l2.91,11.09a1.54,1.54,0,0,1-.83,2l-15.8,6.55a1.51,1.51,0,0,1-.58.12,1.54,1.54,0,0,1-1.42-.95l-5.74-9.81A92,92,0,0,1,167,244.57l-1.6,11.59a1.53,1.53,0,0,1-1.52,1.53H146.81a1.53,1.53,0,0,1-1.52-1.53l-1.59-11.55a91.83,91.83,0,0,1-12.5-2.48L125.44,252a1.53,1.53,0,0,1-1.42.94,1.7,1.7,0,0,1-.58-.11l-15.8-6.55a1.53,1.53,0,0,1-.83-2l2.9-11.05a91.06,91.06,0,0,1-10.38-6.94L90,233.35a1.52,1.52,0,0,1-2.16,0L75.72,221.26a1.52,1.52,0,0,1,0-2.16l7.07-9.33a93.07,93.07,0,0,1-7.16-10.69L64.44,202a1.51,1.51,0,0,1-.58.12,1.55,1.55,0,0,1-1.42-.94l-6.54-15.8a1.54,1.54,0,0,1,.82-2l10-5.85a91,91,0,0,1-2.4-12.09l-11.59-1.59a1.54,1.54,0,0,1-1.53-1.53V145.22a1.53,1.53,0,0,1,1.53-1.52l11.55-1.59a91.45,91.45,0,0,1,2.44-12.35l-10.09-5.91a1.53,1.53,0,0,1-.83-2l6.55-15.81a1.53,1.53,0,0,1,1.41-.94,1.47,1.47,0,0,1,.58.12l11.31,3a92.24,92.24,0,0,1,7-10.45l-7.09-9.36a1.52,1.52,0,0,1,0-2.16L87.63,74.13a1.52,1.52,0,0,1,1.08-.45,1.51,1.51,0,0,1,1.08.45l9.33,7.07a92.08,92.08,0,0,1,10.5-7l-3-11.59a1.53,1.53,0,0,1,.83-2L123.21,54a1.51,1.51,0,0,1,.58-.12,1.55,1.55,0,0,1,1.42.94l6,10.32a91.12,91.12,0,0,1,12.2-2.43L145,51.14a1.54,1.54,0,0,1,1.53-1.53h17.11m-8.43,185.72a81.68,81.68,0,1,0-81.68-81.68,81.77,81.77,0,0,0,81.68,81.68m8.43-189.72H146.56a5.53,5.53,0,0,0-5.51,5.18l-1.16,8.41q-3.37.55-6.71,1.34L128.76,53a5.52,5.52,0,0,0-5-3.09,5.44,5.44,0,0,0-2.11.42l-15.8,6.55a5.45,5.45,0,0,0-3,3,5.52,5.52,0,0,0-.13,3.9l2.23,8.5c-2,1.23-3.95,2.55-5.86,3.93l-6.77-5.13a5.52,5.52,0,0,0-7.56.24L72.71,83.39A5.52,5.52,0,0,0,72.47,91l5.16,6.81q-2.05,2.83-3.88,5.79l-8.21-2.15a5.63,5.63,0,0,0-1.78-.29,5.52,5.52,0,0,0-5.11,3.41l-6.54,15.8a5.54,5.54,0,0,0,2.66,7.08l7.34,4.29q-.81,3.42-1.36,6.87l-8.37,1.15a5.53,5.53,0,0,0-5.18,5.51v17.11a5.53,5.53,0,0,0,5.17,5.51L60.79,169c.36,2.21.8,4.42,1.32,6.61l-7.24,4.23a5.55,5.55,0,0,0-2.67,7.08l6.55,15.8a5.51,5.51,0,0,0,5.11,3.41,5.67,5.67,0,0,0,1.78-.29l8.09-2.12c1.27,2.05,2.62,4.07,4,6l-5.14,6.78a5.53,5.53,0,0,0,.25,7.55L85,236.18a5.52,5.52,0,0,0,7.56.24l6.81-5.16q2.81,2,5.73,3.84l-2.09,8a5.55,5.55,0,0,0,3.12,6.89l15.8,6.54a5.53,5.53,0,0,0,7.08-2.67l4.14-7.07c2.32.55,4.67,1,7,1.39l1.16,8.38a5.53,5.53,0,0,0,5.51,5.17h17.11a5.53,5.53,0,0,0,5.51-5.17l1.16-8.42c2.35-.38,4.69-.86,7-1.41l4.12,7a5.5,5.5,0,0,0,7.08,2.66l15.8-6.54a5.55,5.55,0,0,0,3.12-6.89l-2.1-8c1.95-1.21,3.86-2.5,5.72-3.85l6.78,5.14a5.52,5.52,0,0,0,7.55-.25l12.1-12.09a5.55,5.55,0,0,0,.24-7.56l-5.16-6.81c1.42-2,2.77-4,4-6l8.06,2.11a5.37,5.37,0,0,0,1.78.3,5.52,5.52,0,0,0,5.11-3.41l6.54-15.81a5.53,5.53,0,0,0-2.66-7.07l-7.28-4.26c.51-2.19.94-4.4,1.3-6.61l8.37-1.15a5.52,5.52,0,0,0,5.17-5.51V145a5.52,5.52,0,0,0-5.17-5.51l-8.41-1.16c-.39-2.38-.87-4.76-1.44-7.12l7.36-4.3a5.56,5.56,0,0,0,2.66-2.85,5.49,5.49,0,0,0,0-4.23L251.73,104a5.51,5.51,0,0,0-5.11-3.41,5.36,5.36,0,0,0-1.78.29l-8.41,2.2c-1.18-1.88-2.42-3.73-3.73-5.53l5.13-6.78a5.52,5.52,0,0,0-.24-7.55L225.5,71.12a5.52,5.52,0,0,0-7.56-.24L211.13,76c-1.91-1.38-3.87-2.69-5.86-3.92l2.21-8.46a5.47,5.47,0,0,0-.12-3.9,5.54,5.54,0,0,0-3-3l-15.8-6.54a5.54,5.54,0,0,0-7.08,2.66l-4.44,7.59q-3.35-.78-6.72-1.32l-1.15-8.37a5.53,5.53,0,0,0-5.51-5.18Zm-8.43,185.72a77.78,77.78,0,1,1,54.9-22.78,77.77,77.77,0,0,1-54.9,22.78Z"/><path class="cls-3" d="M257.75,143.45l-11.59-1.6a90.24,90.24,0,0,0-2.54-12.59l10.13-5.93a1.54,1.54,0,0,0,.83-2L248,105.53a1.52,1.52,0,0,0-2-.83l-11.49,3a92.49,92.49,0,0,0-6.86-10.18l7.07-9.33a1.52,1.52,0,0,0,0-2.16L222.67,74a1.54,1.54,0,0,0-2.16,0l-9.36,7.1a90.74,90.74,0,0,0-10.51-7l3-11.56a1.53,1.53,0,0,0-.82-2L187,53.92a1.53,1.53,0,0,0-2,.83L179,65.1a91.23,91.23,0,0,0-12.21-2.41l-1.59-11.55a1.53,1.53,0,0,0-1.52-1.53H146.56A1.54,1.54,0,0,0,145,51.14l-1.59,11.59a91.12,91.12,0,0,0-12.2,2.43l-6-10.32a1.54,1.54,0,0,0-2-.82l-15.8,6.54a1.53,1.53,0,0,0-.83,2l3,11.59a92.08,92.08,0,0,0-10.5,7l-9.33-7.07a1.52,1.52,0,0,0-2.16,0L75.54,86.22a1.52,1.52,0,0,0,0,2.16l7.09,9.36a92.24,92.24,0,0,0-7,10.45l-11.31-3a1.52,1.52,0,0,0-2,.82L55.8,121.86a1.53,1.53,0,0,0,.83,2l10.09,5.91a91.45,91.45,0,0,0-2.44,12.35L52.73,143.7a1.53,1.53,0,0,0-1.53,1.52v17.11a1.54,1.54,0,0,0,1.53,1.53l11.59,1.59a91,91,0,0,0,2.4,12.09l-10,5.85a1.54,1.54,0,0,0-.82,2l6.54,15.8a1.53,1.53,0,0,0,2,.82l11.19-2.93a93.07,93.07,0,0,0,7.16,10.69l-7.07,9.33a1.52,1.52,0,0,0,0,2.16l12.09,12.09a1.52,1.52,0,0,0,2.16,0l9.36-7.09a91.06,91.06,0,0,0,10.38,6.94l-2.9,11.05a1.53,1.53,0,0,0,.83,2l15.8,6.55a1.53,1.53,0,0,0,2-.83l5.76-9.84a91.83,91.83,0,0,0,12.5,2.48l1.59,11.55a1.53,1.53,0,0,0,1.52,1.53h17.11a1.53,1.53,0,0,0,1.52-1.53l1.6-11.59a92,92,0,0,0,12.49-2.51l5.74,9.81a1.53,1.53,0,0,0,2,.83l15.8-6.55a1.54,1.54,0,0,0,.83-2L201,233.07a91.05,91.05,0,0,0,10.36-7l9.33,7.07a1.52,1.52,0,0,0,2.16,0l12.1-12.09a1.54,1.54,0,0,0,0-2.16l-7.1-9.36a91.68,91.68,0,0,0,7.13-10.7l11.17,2.92a1.53,1.53,0,0,0,2-.82l6.55-15.81a1.53,1.53,0,0,0-.83-2l-10-5.87a90.83,90.83,0,0,0,2.37-12.1l11.56-1.59a1.52,1.52,0,0,0,1.52-1.52V145A1.52,1.52,0,0,0,257.75,143.45ZM155.24,235.33a81.68,81.68,0,1,1,81.68-81.68A81.77,81.77,0,0,1,155.24,235.33Z"/><path class="cls-1" d="M163.67,49.61a1.53,1.53,0,0,1,1.52,1.53l1.59,11.55A91.23,91.23,0,0,1,179,65.1l6-10.35a1.52,1.52,0,0,1,1.41-.94,1.46,1.46,0,0,1,.58.11l15.81,6.55a1.53,1.53,0,0,1,.82,2l-3,11.56a90.74,90.74,0,0,1,10.51,7l9.36-7.1a1.51,1.51,0,0,1,1.08-.45,1.52,1.52,0,0,1,1.08.45L234.76,86a1.52,1.52,0,0,1,0,2.16l-7.07,9.33a92.49,92.49,0,0,1,6.86,10.18l11.49-3a1.49,1.49,0,0,1,.58-.11,1.52,1.52,0,0,1,1.41.94l6.55,15.8a1.54,1.54,0,0,1-.83,2l-10.13,5.93a90.24,90.24,0,0,1,2.54,12.59l11.59,1.6a1.52,1.52,0,0,1,1.52,1.52v17.11a1.52,1.52,0,0,1-1.52,1.52l-11.56,1.59a90.83,90.83,0,0,1-2.37,12.1l10,5.87a1.53,1.53,0,0,1,.83,2L248.13,201a1.53,1.53,0,0,1-1.41.94,1.43,1.43,0,0,1-.58-.12L235,198.86a91.68,91.68,0,0,1-7.13,10.7l7.1,9.36a1.54,1.54,0,0,1,0,2.16l-12.1,12.09a1.49,1.49,0,0,1-1.08.45,1.52,1.52,0,0,1-1.08-.45l-9.33-7.07a91.05,91.05,0,0,1-10.36,7l2.91,11.09a1.54,1.54,0,0,1-.83,2l-15.8,6.55a1.51,1.51,0,0,1-.58.12,1.54,1.54,0,0,1-1.42-.95l-5.74-9.81A92,92,0,0,1,167,244.57l-1.6,11.59a1.53,1.53,0,0,1-1.52,1.53H146.81a1.53,1.53,0,0,1-1.52-1.53l-1.59-11.55a91.83,91.83,0,0,1-12.5-2.48L125.44,252a1.53,1.53,0,0,1-1.42.94,1.7,1.7,0,0,1-.58-.11l-15.8-6.55a1.53,1.53,0,0,1-.83-2l2.9-11.05a91.06,91.06,0,0,1-10.38-6.94L90,233.35a1.52,1.52,0,0,1-2.16,0L75.72,221.26a1.52,1.52,0,0,1,0-2.16l7.07-9.33a93.07,93.07,0,0,1-7.16-10.69L64.44,202a1.51,1.51,0,0,1-.58.12,1.55,1.55,0,0,1-1.42-.94l-6.54-15.8a1.54,1.54,0,0,1,.82-2l10-5.85a91,91,0,0,1-2.4-12.09l-11.59-1.59a1.54,1.54,0,0,1-1.53-1.53V145.22a1.53,1.53,0,0,1,1.53-1.52l11.55-1.59a91.45,91.45,0,0,1,2.44-12.35l-10.09-5.91a1.53,1.53,0,0,1-.83-2l6.55-15.81a1.53,1.53,0,0,1,1.41-.94,1.47,1.47,0,0,1,.58.12l11.31,3a92.24,92.24,0,0,1,7-10.45l-7.09-9.36a1.52,1.52,0,0,1,0-2.16L87.63,74.13a1.52,1.52,0,0,1,1.08-.45,1.51,1.51,0,0,1,1.08.45l9.33,7.07a92.08,92.08,0,0,1,10.5-7l-3-11.59a1.53,1.53,0,0,1,.83-2L123.21,54a1.51,1.51,0,0,1,.58-.12,1.55,1.55,0,0,1,1.42.94l6,10.32a91.12,91.12,0,0,1,12.2-2.43L145,51.14a1.54,1.54,0,0,1,1.53-1.53h17.11m-8.43,185.72a81.68,81.68,0,1,0-81.68-81.68,81.77,81.77,0,0,0,81.68,81.68m8.43-187.72H146.56A3.53,3.53,0,0,0,143,51l-1.37,10c-3.17.47-6.34,1.1-9.47,1.89L127,53.93a3.52,3.52,0,0,0-3.2-2,3.45,3.45,0,0,0-1.34.27l-15.81,6.55a3.44,3.44,0,0,0-1.9,1.9,3.51,3.51,0,0,0-.06,2.55l2.62,10a95.82,95.82,0,0,0-8.18,5.5l-8-6.09a3.53,3.53,0,0,0-4.87.11l-12.1,12.1A3.53,3.53,0,0,0,74,89.68l6.11,8.06a95,95,0,0,0-5.43,8.13L65,103.32a3.43,3.43,0,0,0-1.19-.21,3.51,3.51,0,0,0-3.26,2.18L54,121.09a3.53,3.53,0,0,0,1.76,4.54l8.7,5.09a93.83,93.83,0,0,0-1.91,9.61l-9.93,1.37a3.54,3.54,0,0,0-3.37,3.52v17.11a3.53,3.53,0,0,0,3.37,3.52l10,1.37a94.43,94.43,0,0,0,1.86,9.36l-8.59,5a3.53,3.53,0,0,0-1.76,4.54L60.6,202a3.49,3.49,0,0,0,3.26,2.18,3.43,3.43,0,0,0,1.19-.21l9.62-2.52a93.22,93.22,0,0,0,5.61,8.37l-6.09,8a3.54,3.54,0,0,0,.11,4.87l12.1,12.1a3.53,3.53,0,0,0,4.87.11l8.06-6.11a92.69,92.69,0,0,0,8.06,5.39l-2.48,9.48a3.53,3.53,0,0,0,2,4.46l15.8,6.54a3.45,3.45,0,0,0,1.34.27,3.52,3.52,0,0,0,3.2-2l4.94-8.43a93.56,93.56,0,0,0,9.76,1.94l1.37,9.93a3.54,3.54,0,0,0,3.52,3.37h17.11a3.54,3.54,0,0,0,3.52-3.37l1.37-10a93.69,93.69,0,0,0,9.76-2l4.92,8.41a3.52,3.52,0,0,0,3.2,2,3.64,3.64,0,0,0,1.34-.27l15.8-6.55a3.52,3.52,0,0,0,2-4.45L203.31,234a93.63,93.63,0,0,0,8.05-5.42l8,6.09a3.53,3.53,0,0,0,4.87-.11l12.09-12.1a3.47,3.47,0,0,0,1-2.49,3.52,3.52,0,0,0-.91-2.38l-6.12-8.06a93.16,93.16,0,0,0,5.59-8.38l9.58,2.51a3.53,3.53,0,0,0,4.46-2l6.54-15.8a3.52,3.52,0,0,0-1.75-4.54l-8.63-5A94.3,94.3,0,0,0,248,167l9.94-1.37a3.53,3.53,0,0,0,3.36-3.52V145a3.53,3.53,0,0,0-3.36-3.52l-10-1.37a92.75,92.75,0,0,0-2-9.87l8.73-5.1a3.54,3.54,0,0,0,1.76-4.54l-6.55-15.81a3.52,3.52,0,0,0-3.26-2.17,3.67,3.67,0,0,0-1.19.2l-9.93,2.6a91.62,91.62,0,0,0-5.3-7.86l6.09-8a3.54,3.54,0,0,0-.11-4.87l-12.1-12.09a3.48,3.48,0,0,0-2.49-1,3.53,3.53,0,0,0-2.38.92l-8.06,6.12A95.74,95.74,0,0,0,203,73.06l2.61-10a3.53,3.53,0,0,0-2-4.45l-15.8-6.55a3.64,3.64,0,0,0-1.35-.26,3.51,3.51,0,0,0-3.19,2l-5.24,9a90.84,90.84,0,0,0-9.46-1.86L167.19,51a3.54,3.54,0,0,0-3.52-3.37Zm-8.43,185.72A79.77,79.77,0,1,1,211.55,210a79.18,79.18,0,0,1-56.31,23.36Z"/><path class="cls-1" d="M116.26,56.9l-4.38,4.5a5.23,5.23,0,0,0-1.45,3.19l-.81,9.56L105,63.66l1.15-3.74Z"/><path class="cls-1" d="M82.2,79.18,79.88,85a5.22,5.22,0,0,0-.12,3.51l2.91,9.14-8.26-7.93L74,85.83Z"/><path class="cls-1" d="M59.26,112.8l.09,6.27a5.21,5.21,0,0,0,1.23,3.29l6.18,7.33L56.1,125.53l-1.83-3.46Z"/><path class="cls-1" d="M50.93,152.64l2.49,5.76A5.24,5.24,0,0,0,55.81,161l8.52,4.41-11.44.23-3-2.5Z"/><path class="cls-1" d="M58.49,192.63,63,197a5.19,5.19,0,0,0,3.19,1.46l9.56.81-10.49,4.6-3.74-1.15Z"/><path class="cls-1" d="M80.77,226.69,86.6,229a5.2,5.2,0,0,0,3.5.12l9.15-2.91-7.93,8.26-3.9.37Z"/><path class="cls-1" d="M114.39,249.63l6.27-.09a5.21,5.21,0,0,0,3.29-1.23l7.33-6.18-4.16,10.66-3.46,1.83Z"/><path class="cls-1" d="M154.23,258l5.76-2.49a5.22,5.22,0,0,0,2.56-2.39l4.41-8.52L167.2,256l-2.5,3Z"/><path class="cls-1" d="M194.22,250.4l4.37-4.5a5.19,5.19,0,0,0,1.46-3.19l.81-9.56,4.59,10.49-1.14,3.74Z"/><path class="cls-1" d="M228.28,228.12l2.32-5.83a5.26,5.26,0,0,0,.12-3.5l-2.91-9.15,8.26,7.93.37,3.9Z"/><path class="cls-1" d="M251.22,194.5l-.09-6.27a5.21,5.21,0,0,0-1.23-3.29l-6.19-7.33,10.67,4.16,1.83,3.46Z"/><path class="cls-1" d="M259.54,154.66l-2.48-5.76a5.18,5.18,0,0,0-2.39-2.56l-8.52-4.41,11.44-.24,3,2.5Z"/><path class="cls-1" d="M252,114.67l-4.5-4.37a5.19,5.19,0,0,0-3.19-1.46l-9.56-.81,10.48-4.59,3.75,1.14Z"/><path class="cls-1" d="M229.71,80.61l-5.83-2.32a5.29,5.29,0,0,0-3.51-.12l-9.14,2.91,7.93-8.26,3.9-.37Z"/><path class="cls-1" d="M196.09,57.67l-6.28.09A5.2,5.2,0,0,0,186.53,59l-7.33,6.18,4.16-10.66,3.46-1.83Z"/><path class="cls-1" d="M156.25,49.35l-5.76,2.48a5.24,5.24,0,0,0-2.57,2.39l-4.41,8.52-.23-11.44,2.49-3Z"/><path class="cls-1" d="M73.56,153.65s-8.39,78.83,84,81.68c0,0-34.14,3-59.51-24.68C71.55,181.77,73.56,153.65,73.56,153.65Z"/></g></g></svg>