<svg xmlns="http://www.w3.org/2000/svg" viewBox="0 0 289.33 220.67"><defs><style>.cls-1{fill:#c6aa7c;}.cls-2,.cls-4{fill:#1a1c16;}.cls-3{fill:none;}.cls-4{fill-rule:evenodd;}</style></defs><title>tsa_02</title><g id="Calque_2" data-name="Calque 2"><g id="Calque_1-2" data-name="Calque 1"><path class="cls-1" d="M261.71,220.67H27.63A27.63,27.63,0,0,0,0,193V27.63A27.63,27.63,0,0,0,27.63,0H261.71a27.63,27.63,0,0,0,27.62,27.63V193A27.63,27.63,0,0,0,261.71,220.67Z"/><path class="cls-2" d="M27.83,117.52l.9.47c.86.39,1.61.69,2.25.92a20.3,20.3,0,0,0,2,.61,8.33,8.33,0,0,0,2,.27,3.66,3.66,0,0,0,1.13-.18,3.54,3.54,0,0,0,1-.5,2.73,2.73,0,0,0,.7-.78,1.7,1.7,0,0,0,.24-1,3.73,3.73,0,0,0-.06-.72,1.38,1.38,0,0,0-.28-.59,4.67,4.67,0,0,0-.74-.7c-.34-.27-.81-.6-1.41-1l-3.06-2.12a21.06,21.06,0,0,1-2.07-1.66,8.59,8.59,0,0,1-1.38-1.64,6.45,6.45,0,0,1-.8-1.78,8.22,8.22,0,0,1-.25-2.05,8,8,0,0,1,.6-3.13,7.32,7.32,0,0,1,1.65-2.49,7.9,7.9,0,0,1,2.52-1.64A8.41,8.41,0,0,1,36,97.22a18.65,18.65,0,0,1,3.44.41c1.38.28,2.86.62,4.45,1l.43.11v4.17l-.79-.36c-.8-.31-1.48-.56-2.05-.75s-1.19-.37-1.84-.52a7.29,7.29,0,0,0-1.73-.24,3.19,3.19,0,0,0-2,.67,2,2,0,0,0-.82,1.78,3.21,3.21,0,0,0,.07.74,1.57,1.57,0,0,0,.3.59,5,5,0,0,0,.69.65c.3.24.7.53,1.2.86l3.57,2.42a16.11,16.11,0,0,1,1.91,1.49,8.49,8.49,0,0,1,1.31,1.55,5.87,5.87,0,0,1,.76,1.74,9,9,0,0,1,.23,2.09,7.71,7.71,0,0,1-.67,3.22,8.21,8.21,0,0,1-1.81,2.6,8.38,8.38,0,0,1-2.72,1.71,9.46,9.46,0,0,1-3.4.61,20.76,20.76,0,0,1-3.15-.29,32.39,32.39,0,0,1-4.3-1l-1.19-.36Z"/><path class="cls-2" d="M55.55,118.08a1,1,0,0,0,.34.67,1.76,1.76,0,0,0,.79.3,10.65,10.65,0,0,0,1.42.13,3.05,3.05,0,0,0,.51,0c.14,0,.36,0,.64-.09l.65-.07v3.38a11.35,11.35,0,0,1-1.15.32l-1.48.4v0l-1.26.28c-.33.08-.63.13-.9.17l-.75.09c-.24,0-.51,0-.79,0a4.49,4.49,0,0,1-5.08-4.89V106.69h-2V103.3l6-5h3v4.25H59.9v4.18H55.47v10.15A7.82,7.82,0,0,0,55.55,118.08Z"/><path class="cls-2" d="M73.91,119.18a13,13,0,0,0,1.38-.07c.47,0,1.1-.15,1.89-.29l.58-.11.54,3.49-1.26.29-2.16.54a26.3,26.3,0,0,1-2.86.58,19.14,19.14,0,0,1-2.25.14,8.86,8.86,0,0,1-3.64-.72,8,8,0,0,1-2.79-2,9.3,9.3,0,0,1-1.8-3.17,12.46,12.46,0,0,1-.63-4.07,15.26,15.26,0,0,1,.68-4.64,10.53,10.53,0,0,1,2-3.64,9,9,0,0,1,3.06-2.34,9.39,9.39,0,0,1,4-.82,9,9,0,0,1,3.2.55,6.49,6.49,0,0,1,2.52,1.71,14.28,14.28,0,0,1,1,1.19,4.73,4.73,0,0,1,.69,1.32,9,9,0,0,1,.37,1.72,18.51,18.51,0,0,1,.13,2.43v1.26L68,113.64a6.58,6.58,0,0,0,1.87,4.14A6.16,6.16,0,0,0,73.91,119.18Zm-2.13-9.83a11.93,11.93,0,0,0-.11-1.87,3.66,3.66,0,0,0-.32-1.13,1.09,1.09,0,0,0-.54-.56,1.81,1.81,0,0,0-.76-.15,1.69,1.69,0,0,0-1.58,1,8.15,8.15,0,0,0-.58,3.69v.14l3.89-.54Z"/><path class="cls-2" d="M82.11,107.3l-.18-3.06,1.34-.54v0c.64-.2,1.24-.36,1.78-.49s1-.26,1.46-.38a18.74,18.74,0,0,1,2.28-.43,16.32,16.32,0,0,1,2.07-.14,6.94,6.94,0,0,1,4.43,1.33v0a3.86,3.86,0,0,1,1.31,1.79,7.85,7.85,0,0,1,.38,2.68v15.3H90.43v-1.15a4.34,4.34,0,0,0-.83.36h0a13.58,13.58,0,0,1-1.93.86,5.31,5.31,0,0,1-1.67.25,5.22,5.22,0,0,1-2.25-.48A5.35,5.35,0,0,1,82,121.92a6.9,6.9,0,0,1-1.6-4.47,8.48,8.48,0,0,1,.43-2.73,6.5,6.5,0,0,1,1.33-2.31,7,7,0,0,1,2.27-1.65,9,9,0,0,1,3.21-.8h0l2.84-.28V107.8a2,2,0,0,0-.59-1.72,2.7,2.7,0,0,0-1.53-.47,7.78,7.78,0,0,0-1.69.21c-.63.15-1.21.31-1.75.49s-1.19.41-2,.7Zm7.64,5.9a2.94,2.94,0,0,0-2.06,1.34,4.43,4.43,0,0,0-.57,2.23,2.42,2.42,0,0,0,.63,1.78,2.94,2.94,0,0,0,1.89.63H90a.92.92,0,0,0,.36-.07v-6Z"/><path class="cls-2" d="M100.08,103.05l7-1v2a26.74,26.74,0,0,1,3-1.3,7.36,7.36,0,0,1,2.3-.39,4.31,4.31,0,0,1,2.12.43,6.72,6.72,0,0,1,1.88,1.47,15,15,0,0,1,6.4-1.9,6.58,6.58,0,0,1,2.24.37,5.64,5.64,0,0,1,1.87,1.14,5.31,5.31,0,0,1,1.46,2.34,12.71,12.71,0,0,1,.41,3.53v13.75h-7V110.76a11.36,11.36,0,0,0-.13-1.86,2.16,2.16,0,0,0-.45-1.08,1.73,1.73,0,0,0-.92-.52,9.36,9.36,0,0,0-1.49-.22,2.21,2.21,0,0,0-.51,0,2.07,2.07,0,0,0-.46.09,9,9,0,0,1,.1,1.44v14.83h-7v-12.6a14.06,14.06,0,0,0-.11-2,2.24,2.24,0,0,0-.41-1.09,1.5,1.5,0,0,0-.87-.51,11.54,11.54,0,0,0-1.45-.2,2.76,2.76,0,0,0-.58,0l-.47.08v16.27h-7Z"/><path class="cls-2" d="M142.74,123.43l7.95-25.78h7.64l7.34,25.78h-7.81l-2.09-8.93h-5.29l-2.09,8.93Zm12.17-12.28c-.12-.48-.28-1.11-.47-1.91s-.39-1.57-.58-2.35-.42-1.74-.68-2.87l-1.8,7.13Z"/><path class="cls-2" d="M174.71,123.43h-7V103.05l7-1v2.12l.75-.65a7,7,0,0,1,1.75-1,4.56,4.56,0,0,1,1.71-.21,5.49,5.49,0,0,1,.91.07,4,4,0,0,1,1,.29l.36.14v6.7l-6.44-2.2Z"/><path class="cls-2" d="M191.48,118.08a1.05,1.05,0,0,0,.34.67,1.81,1.81,0,0,0,.79.3,10.83,10.83,0,0,0,1.43.13,3,3,0,0,0,.5,0l.65-.09.65-.07v3.38a12,12,0,0,1-1.16.32l-1.47.4v0l-1.26.28c-.34.08-.64.13-.9.17l-.76.09c-.24,0-.5,0-.79,0a4.84,4.84,0,0,1-3.74-1.24,4.89,4.89,0,0,1-1.34-3.65V106.69h-2V103.3l6-5h3v4.25h4.43v4.18h-4.43v10.15A8,8,0,0,0,191.48,118.08Z"/><path class="cls-2" d="M206.38,98.08a2.61,2.61,0,0,1-1,2.42,4.26,4.26,0,0,1-2.91.72,4.8,4.8,0,0,1-3.08-.69,3.37,3.37,0,0,1-.06-4.79,4.64,4.64,0,0,1,2.92-.72,4.88,4.88,0,0,1,3.08.67A2.47,2.47,0,0,1,206.38,98.08ZM199,103l7-.94v21.39h-7Z"/><path class="cls-2" d="M209.26,118.39l.8.47a18.54,18.54,0,0,0,1.92.82c.54.2,1.12.37,1.73.53a7.09,7.09,0,0,0,1.67.23,3.76,3.76,0,0,0,1-.13,2.89,2.89,0,0,0,.86-.36,1.82,1.82,0,0,0,.59-.54.88.88,0,0,0,.18-.66,2.58,2.58,0,0,0,0-.6,1.34,1.34,0,0,0-.31-.52,5.42,5.42,0,0,0-.75-.66q-.51-.39-1.41-1l-2.34-1.59a12.82,12.82,0,0,1-1.76-1.35,7.15,7.15,0,0,1-1.17-1.35,4.67,4.67,0,0,1-.65-1.46,6.92,6.92,0,0,1-.2-1.71,6.38,6.38,0,0,1,.52-2.57,5.75,5.75,0,0,1,1.44-2,6.39,6.39,0,0,1,2.22-1.24,8.86,8.86,0,0,1,2.84-.43h1.08c.36,0,.77,0,1.23.11l1.56.24q.88.14,2,.39l1.29.29,0,3.6-.79-.32c-.72-.27-1.34-.47-1.86-.62s-1.06-.28-1.65-.41a7.41,7.41,0,0,0-1.57-.2,2.49,2.49,0,0,0-1.44.42,1.19,1.19,0,0,0-.57,1.13,4.5,4.5,0,0,0,0,.56.94.94,0,0,0,.22.45,3.17,3.17,0,0,0,.55.48c.26.18.62.43,1.1.74v0l2.41,1.55A17.68,17.68,0,0,1,222,112.2a7.16,7.16,0,0,1,1.28,1.4,5.29,5.29,0,0,1,.7,1.53,7.05,7.05,0,0,1,.22,1.78,6.92,6.92,0,0,1-.56,2.79,6.46,6.46,0,0,1-1.55,2.18,7,7,0,0,1-2.36,1.39,9,9,0,0,1-3,.48,18.25,18.25,0,0,1-3.13-.34c-1.27-.23-2.62-.52-4-.88l-.43-.11Z"/><path class="cls-2" d="M234.39,118.08a1.05,1.05,0,0,0,.34.67,1.81,1.81,0,0,0,.8.3,10.49,10.49,0,0,0,1.42.13,3,3,0,0,0,.5,0c.15,0,.36,0,.65-.09l.65-.07v3.38c-.63.19-1,.3-1.15.32l-1.48.4v0l-1.26.28c-.34.08-.64.13-.9.17l-.76.09c-.24,0-.5,0-.79,0a4.49,4.49,0,0,1-5.07-4.89V106.69h-2V103.3h2.06l2.7-6.46,4.11,0,.13,5.63h4.43v4.18h-4.43v10.15A8,8,0,0,0,234.39,118.08Z"/><path class="cls-2" d="M239.72,118.39l.79.47a19.56,19.56,0,0,0,1.93.82,17.69,17.69,0,0,0,1.73.53,7.09,7.09,0,0,0,1.67.23,3.64,3.64,0,0,0,1-.13,3,3,0,0,0,.87-.36,1.93,1.93,0,0,0,.59-.54,1,1,0,0,0,.18-.66,3.28,3.28,0,0,0-.05-.6,1.34,1.34,0,0,0-.31-.52,5,5,0,0,0-.76-.66c-.33-.26-.8-.59-1.4-1l-2.34-1.59a12.36,12.36,0,0,1-1.77-1.35,7.15,7.15,0,0,1-1.17-1.35,4.64,4.64,0,0,1-.64-1.46,6.47,6.47,0,0,1-.2-1.71,6.21,6.21,0,0,1,.52-2.57,5.75,5.75,0,0,1,1.44-2,6.35,6.35,0,0,1,2.21-1.24,9,9,0,0,1,2.85-.43h1.08c.36,0,.77,0,1.22.11s1,.14,1.57.24,1.26.22,2,.39l1.3.29,0,3.6-.79-.32c-.72-.27-1.33-.47-1.85-.62s-1.07-.28-1.66-.41a7.4,7.4,0,0,0-1.56-.2,2.45,2.45,0,0,0-1.44.42,1.21,1.21,0,0,0-.58,1.13,3.06,3.06,0,0,0,0,.56.92.92,0,0,0,.21.45,3.3,3.3,0,0,0,.56.48c.25.18.62.43,1.1.74v0l2.41,1.55a16.59,16.59,0,0,1,1.94,1.44,6.86,6.86,0,0,1,1.28,1.4,5.06,5.06,0,0,1,.71,1.53,7.07,7.07,0,0,1,.21,1.78,6.92,6.92,0,0,1-.56,2.79,6.33,6.33,0,0,1-1.55,2.18,7,7,0,0,1-2.35,1.39,9,9,0,0,1-3,.48,18.15,18.15,0,0,1-3.13-.34c-1.28-.23-2.62-.52-4-.88l-.43-.11Z"/><path class="cls-2" d="M31.45,76.44l-4.56,2.28V74.06h13.9v4.66l-4.54-2.28V91.25h-4.8Z"/><path class="cls-2" d="M42.2,91.25V72l4.66-.77v7l.43-.19.48-.22.79-.32a5.27,5.27,0,0,1,.64-.21c.2,0,.39-.08.56-.1a3.52,3.52,0,0,1,.58,0,3.19,3.19,0,0,1,2.8,1.31,6.11,6.11,0,0,1,1,3.63v9.15H49.45V82.8a11.25,11.25,0,0,0-.06-1.32,1.41,1.41,0,0,0-.26-.72,1,1,0,0,0-.57-.31,7.75,7.75,0,0,0-1-.12,1.15,1.15,0,0,0-.37,0l-.37,0V91.25Z"/><path class="cls-2" d="M64.62,88.42c.3,0,.61,0,.92,0s.74-.1,1.26-.19l.39-.08.36,2.33-.84.19L65.27,91a17.07,17.07,0,0,1-1.91.39,12.58,12.58,0,0,1-1.5.09A5.87,5.87,0,0,1,59.44,91a5.33,5.33,0,0,1-1.86-1.36,6.29,6.29,0,0,1-1.2-2.12A8.28,8.28,0,0,1,56,84.79a10.12,10.12,0,0,1,.45-3.09,7.08,7.08,0,0,1,1.31-2.43,6,6,0,0,1,2-1.56,6.23,6.23,0,0,1,2.68-.55,5.92,5.92,0,0,1,2.13.37,4.26,4.26,0,0,1,1.68,1.14,8.83,8.83,0,0,1,.67.79,3,3,0,0,1,.46.88,5.63,5.63,0,0,1,.25,1.15,12.27,12.27,0,0,1,.09,1.62V84l-7.06.77a4.41,4.41,0,0,0,1.25,2.76A4.12,4.12,0,0,0,64.62,88.42ZM63.2,81.86a8.38,8.38,0,0,0-.07-1.24,2.71,2.71,0,0,0-.21-.76.81.81,0,0,0-.36-.37,1.19,1.19,0,0,0-.51-.1A1.12,1.12,0,0,0,61,80a5.33,5.33,0,0,0-.39,2.46v.09l2.59-.36Z"/><rect class="cls-2" x="218.72" y="66.54" width="5.38" height="11.56" transform="translate(442.82 144.65) rotate(180)"/><rect class="cls-2" x="208.44" y="76.82" width="5.38" height="11.56" transform="translate(128.52 293.73) rotate(-90)"/><rect class="cls-2" x="223.17" y="68.64" width="7.33" height="7.38" transform="translate(453.67 144.65) rotate(180)"/><path class="cls-2" d="M206.07,77.39v2.53h10.12v-1.2a1.33,1.33,0,0,1,1.34-1.33h1.19V67.26h-2.53A10.12,10.12,0,0,0,206.07,77.39Z"/><rect class="cls-2" x="230.5" y="66.45" width="5.38" height="11.56"/><rect class="cls-2" x="240.78" y="56.17" width="5.38" height="11.56" transform="translate(305.42 -181.52) rotate(90)"/><path class="cls-2" d="M248.53,67.17V64.64H238.41v1.19a1.34,1.34,0,0,1-1.34,1.34h-1.2V77.29h2.54A10.12,10.12,0,0,0,248.53,67.17Z"/><rect class="cls-2" x="27.83" y="131.17" width="226.83" height="7"/><rect class="cls-2" x="76.84" y="84.5" width="177.82" height="7"/><path class="cls-2" d="M94.83,186.49a50.77,50.77,0,0,1-50.72-50.72v-2.5H145.55v2.5A50.77,50.77,0,0,1,94.83,186.49ZM49.17,138.27a45.73,45.73,0,0,0,91.32,0Z"/><polygon class="cls-2" points="37.79 138.5 37.79 134.67 45.77 134.71 45.77 139.99 37.79 138.5"/><polygon class="cls-2" points="43.59 160.02 40.69 153.01 47.5 148.58 51.54 158.34 43.59 160.02"/><polygon class="cls-2" points="57.2 177.68 51.83 172.32 56.42 165.62 63.9 173.09 57.2 177.68"/><polygon class="cls-2" points="76.52 188.79 69.51 185.89 71.19 177.94 80.95 181.99 76.52 188.79"/><polygon class="cls-2" points="98.62 191.67 91.04 191.67 89.55 183.68 100.11 183.68 98.62 191.67"/><polygon class="cls-2" points="120.14 185.86 113.14 188.76 108.7 181.96 118.47 177.91 120.14 185.86"/><polygon class="cls-2" points="137.81 172.26 132.44 177.63 125.74 173.03 133.21 165.56 137.81 172.26"/><polygon class="cls-2" points="148.92 152.94 146.01 159.95 138.06 158.27 142.11 148.5 148.92 152.94"/><polygon class="cls-2" points="151.79 134.63 151.79 138.42 143.8 139.91 143.8 134.67 151.79 134.63"/><line class="cls-3" x1="94.79" y1="161.83" x2="94.79" y2="130.83"/><rect class="cls-2" x="92.33" y="165.13" width="5" height="18.86"/><rect class="cls-2" x="102.7" y="131.47" width="5" height="29.34" transform="translate(-72.52 117.19) rotate(-45)"/><rect class="cls-2" x="69.38" y="143.81" width="29.81" height="5" transform="translate(-78.77 102.45) rotate(-45)"/><path class="cls-2" d="M108.27,135.73a13.48,13.48,0,1,1-27,0Z"/><ellipse class="cls-2" cx="236.51" cy="34.93" rx="9.21" ry="8.92"/><ellipse class="cls-2" cx="225.05" cy="31.51" rx="7.14" ry="5.5"/><circle class="cls-2" cx="211.8" cy="30.7" r="12.52"/><path class="cls-2" d="M247.85,49.17,245.7,34.3l-45.56-4.11V33.9c0,3.53,7.53,9,10.22,9.21L222,44.45a19.55,19.55,0,0,1,4.53,1.08l8.82,3.24a16,16,0,0,1,3.08,1.52h0a2.29,2.29,0,0,1,1.06,2v.1c0,5.94,1.9,10.75,4.23,10.75.69,0,1.49-1,2.24-2.43A18.64,18.64,0,0,0,247.85,49.17Z"/><path class="cls-2" d="M167.89,178.36a16.19,16.19,0,1,1,16.05-18.54h0a16.21,16.21,0,0,1-13.67,18.37A17.32,17.32,0,0,1,167.89,178.36ZM168,151a11.45,11.45,0,0,0-1.65.12,11.19,11.19,0,0,0,3.25,22.14A11.21,11.21,0,0,0,179,160.55h0A11.18,11.18,0,0,0,168,151Z"/><polygon class="cls-2" points="162.81 142.33 167.14 141.7 169.01 149.56 163.27 150.4 162.81 142.33"/><polygon class="cls-2" points="150.28 151.76 152.89 148.25 159.77 152.49 156.31 157.13 150.28 151.76"/><polygon class="cls-2" points="148.09 167.29 147.45 162.96 155.31 161.09 156.15 166.82 148.09 167.29"/><polygon class="cls-2" points="157.52 179.81 154 177.2 158.24 170.32 162.89 173.78 157.52 179.81"/><polygon class="cls-2" points="173.04 182.01 168.71 182.64 166.84 174.78 172.58 173.94 173.04 182.01"/><polygon class="cls-2" points="185.57 172.58 182.96 176.09 176.08 171.85 179.54 167.2 185.57 172.58"/><polygon class="cls-2" points="187.76 157.05 188.4 161.38 180.54 163.25 179.7 157.51 187.76 157.05"/><polygon class="cls-2" points="178.33 144.52 181.84 147.13 177.61 154.01 172.96 150.55 178.33 144.52"/><rect class="cls-2" x="173.31" y="159.28" width="8.2" height="3" transform="matrix(0.99, -0.15, 0.15, 0.99, -21.46, 27.46)"/><rect class="cls-2" x="165.03" y="148.58" width="3" height="8.2" transform="translate(-20.38 25.77) rotate(-8.34)"/><rect class="cls-2" x="154.34" y="162.06" width="8.2" height="3" transform="matrix(0.99, -0.15, 0.15, 0.99, -22.06, 24.73)"/><rect class="cls-2" x="167.81" y="167.55" width="3" height="8.2" transform="translate(-23.1 26.37) rotate(-8.34)"/><path class="cls-2" d="M167.91,169.66a7.49,7.49,0,0,1-1.07-14.9A7.49,7.49,0,0,1,169,169.58,8.26,8.26,0,0,1,167.91,169.66Zm0-11a2.92,2.92,0,0,0-.51,0,3.49,3.49,0,1,0,1,6.9,3.5,3.5,0,0,0,2.95-4,3.52,3.52,0,0,0-1.37-2.29A3.49,3.49,0,0,0,167.93,158.68Z"/><path class="cls-2" d="M94.79,168.12A32.43,32.43,0,0,1,62.4,135.73v-2.5h64.78v2.5A32.43,32.43,0,0,1,94.79,168.12ZM67.51,138.23a27.39,27.39,0,0,0,54.56,0Z"/><polygon class="cls-2" points="224.65 172.72 211.75 172.72 211.75 179.19 224.65 179.19 224.65 172.72 224.65 172.72"/><polygon class="cls-2" points="239.48 161.23 230.35 170.36 234.93 174.93 244.06 165.81 239.48 161.23 239.48 161.23"/><polygon class="cls-2" points="248.31 142.62 241.84 142.62 241.84 155.53 248.31 155.53 248.31 142.62 248.31 142.62"/><polygon class="cls-2" points="194.56 142.62 188.08 142.62 188.08 155.53 194.56 155.53 194.56 142.62 194.56 142.62"/><polygon class="cls-2" points="196.92 161.23 192.34 165.81 201.47 174.93 206.04 170.36 196.92 161.23 196.92 161.23"/><path class="cls-2" d="M225.74,137.27a14.1,14.1,0,1,1-15.08,0H195a26,26,0,1,0,46.39,0Z"/><path class="cls-2" d="M144.63,120.79h-8.06a.39.39,0,0,1-.27-.11.36.36,0,0,1-.11-.26V105H125.61v-.75h11a.36.36,0,0,1,.26.11.39.39,0,0,1,.11.27V120h7.69Z"/><path class="cls-2" d="M135.38,108.58v7.92a1.2,1.2,0,0,0,2.4,0v-7.92a1.2,1.2,0,0,0-2.4,0Z"/><rect class="cls-2" x="134.13" y="46.69" width="5.71" height="20.02"/><rect class="cls-2" x="112.96" y="62.07" width="5.71" height="20.02" transform="matrix(0.31, -0.95, 0.95, 0.31, 11.47, 159.95)"/><rect class="cls-2" x="148.15" y="69.23" width="20.02" height="5.71" transform="translate(-14.53 52.38) rotate(-17.99)"/><polygon class="cls-2" points="148.88 45.23 125.19 45.23 128.17 36.25 145.9 36.25 148.88 45.23"/><polygon class="cls-2" points="121.55 46.7 104.79 63.45 100.55 54.99 113.08 42.46 121.55 46.7"/><polygon class="cls-2" points="103.26 67.07 103.26 90.76 94.27 87.78 94.27 70.06 103.26 67.07"/><polygon class="cls-2" points="170.72 90.86 170.72 67.17 179.7 70.15 179.7 87.87 170.72 90.86"/><polygon class="cls-2" points="169.25 63.52 152.5 46.77 160.96 42.53 173.49 55.06 169.25 63.52"/><path class="cls-4" d="M132.17,89.17a11.29,11.29,0,1,1,9.54,0h9.73a17.71,17.71,0,1,0-28.9,0Z"/><path class="cls-2" d="M107.71,89.17a31,31,0,1,1,58.55,0h6a36.74,36.74,0,1,0-70.57,0Z"/></g></g></svg>