<svg xmlns="http://www.w3.org/2000/svg" viewBox="0 0 251.97 355.36"><defs><style>.cls-1{fill:#fff;}.cls-2{fill:#333;}.cls-3{fill:#1a1a1a;}.cls-4{font-size:20.5px;}.cls-4,.cls-5{fill:#e5e5e5;font-family:ArmWrestler-Bold, ArmWrestler;font-weight:700;}.cls-5{font-size:13px;}</style></defs><title>tsa_03</title><g id="Calque_2" data-name="Calque 2"><g id="Calque_13" data-name="Calque 13"><path d="M132.14,278.42a98.92,98.92,0,1,1,98.92-98.92A99,99,0,0,1,132.14,278.42Zm0-184.58a85.66,85.66,0,1,0,85.65,85.66A85.75,85.75,0,0,0,132.14,93.84Z"/><g id="Calque_14" data-name="Calque 14"><path d="M234.66,213.71l-6,14.43c-.78,1.89-2.58,3-4.14,2.55l-13.87-3.91L221,201.94l12.57,7C235,209.77,235.45,211.82,234.66,213.71Z"/><path d="M240,171.87v15.61c0,2.05-1.23,3.76-2.85,4l-14.3,1.69V166.23l14.3,1.69C238.72,168.11,240,169.82,240,171.87Z"/><path d="M228.83,131.19l6,14.43c.79,1.89.3,3.94-1.12,4.73l-12.57,7-10.29-24.84,13.86-3.92C226.25,128.19,228,129.3,228.83,131.19Z"/><path d="M166.35,77l14.43,6c1.89.79,3,2.58,2.55,4.15L179.42,101,154.58,90.66l7-12.57C162.41,76.67,164.46,76.19,166.35,77Z"/><path d="M83.83,82.81l14.43-6c1.89-.78,3.94-.3,4.73,1.12l7,12.57L85.19,100.81,81.27,87C80.83,85.38,81.94,83.59,83.83,82.81Z"/><path d="M50.5,108.65l11-11c1.44-1.45,3.52-1.78,4.8-.78l11.31,8.93-19,19-8.92-11.31C48.72,112.18,49.06,110.1,50.5,108.65Z"/><path d="M29.61,145.28l6-14.42c.79-1.89,2.58-3,4.14-2.56l13.87,3.92L43.3,157.06l-12.57-7C29.31,149.23,28.82,147.17,29.61,145.28Z"/><path d="M24.32,187.12V171.51c0-2,1.23-3.76,2.85-3.95l14.31-1.69v26.89l-14.31-1.69C25.55,190.88,24.32,189.17,24.32,187.12Z"/><path d="M35.44,227.8l-6-14.42c-.78-1.89-.3-3.95,1.12-4.74l12.57-7,10.29,24.84-13.86,3.92C38,230.8,36.23,229.69,35.44,227.8Z"/></g><g id="Calque_15" data-name="Calque 15"><path d="M154.88,267.18l-84-83.25,6.51-6.5L78,178l-.62.62a.75.75,0,0,0,0,1.06l.72.71a.74.74,0,0,0,1,0l.62-.62,1.11,1.1-.62.62a.75.75,0,0,0,0,1.06l.71.71a.75.75,0,0,0,1.06,0l.62-.62,1.1,1.11-.62.62a.74.74,0,0,0,0,1.05l.71.72a.75.75,0,0,0,1.06,0l.69-.69a5.39,5.39,0,0,0,7.51-7.51l1-.95a.74.74,0,0,0,0-1.06l-.71-.72a.75.75,0,0,0-1.06,0l-.89.9L90.24,175l.9-.9a.75.75,0,0,0,0-1.06l-.71-.71a.75.75,0,0,0-1.06,0l-.9.9-1.1-1.11.9-.89a.75.75,0,0,0,0-1.06l-.72-.71a.74.74,0,0,0-1,0l-.9.89-.55-.55,2.8-2.8c2-2-1.9-9.26-8.78-16.15S65,140,62.92,142.06l-1.68,1.68L40.43,123.8a9.88,9.88,0,0,0-11.77,0c-6.48,4.37-11,13.57-11.63,16.23s-2.76,11-1.84,12.61a4.77,4.77,0,0,0,2.57,2L20,152.41l.6.6a.57.57,0,0,0,.82,0,.59.59,0,0,0,0-.83l-.59-.59.72-.72.64.63a.59.59,0,0,0,.83,0,.57.57,0,0,0,0-.82L22.4,150l.93-.92.63.64a.59.59,0,0,0,.83-.83l-.63-.63.92-.92.63.63a.57.57,0,0,0,.82,0,.59.59,0,0,0,0-.83l-.62-.62.92-.92.62.62a.59.59,0,1,0,.83-.83l-.62-.62.92-.91.62.61a.59.59,0,0,0,.83,0,.57.57,0,0,0,0-.82l-.62-.62.92-.92.62.62a.59.59,0,1,0,.83-.83l-.6-.6a7,7,0,0,1,9.33.18l12,11-2.7,2.71L43,149.8a1.94,1.94,0,0,0-2.67.24l-1.26,1.45-.51-.44a.61.61,0,0,0-.83.07.6.6,0,0,0,.07.83l.5.42-.85,1-.49-.41a.59.59,0,0,0-.83.07.59.59,0,0,0,.07.82l.48.41-.85,1-.47-.39a.58.58,0,1,0-.75.89l.45.38-.86,1-.44-.37a.58.58,0,0,0-.82.07.59.59,0,0,0,.07.83l.43.36-.86,1-.41-.35a.59.59,0,0,0-.83.07.58.58,0,0,0,.07.82l.41.34-.86,1-.39-.34a.59.59,0,1,0-.76.9l.38.32-.66.77-.42-.36a.61.61,0,0,0-.83.07.59.59,0,0,0,.07.83l.41.35c-1,1.15-1.66,1.91-1.74,2-.42.5,2.89,4.18,6.11,3.17a5.78,5.78,0,0,1,5.61,1.56L51,182.4a8,8,0,0,1-1.89,3.07l0,0a2.65,2.65,0,0,0,0,3.78l8.25,8.25,4.14-4.13,83.25,84a7.22,7.22,0,0,0,10.18,0h0A7.22,7.22,0,0,0,154.88,267.18Z"/><path class="cls-1" d="M34.6,121.86a9.88,9.88,0,0,1,5.83,1.94l20.81,19.94,1.68-1.68a2.14,2.14,0,0,1,1.56-.54c3,0,8.93,3.67,14.59,9.32C86,157.73,89.88,165,87.85,167l-2.8,2.8.55.55.9-.89a.74.74,0,0,1,1,0l.72.71a.75.75,0,0,1,0,1.06l-.9.89,1.1,1.11.9-.9a.73.73,0,0,1,.53-.22.74.74,0,0,1,.53.22l.71.71a.75.75,0,0,1,0,1.06l-.9.9,1.11,1.1.89-.9a.77.77,0,0,1,.53-.21.76.76,0,0,1,.53.21l.71.72A.74.74,0,0,1,94,177l-1,.95a5.43,5.43,0,0,1-.61,6.91,5.41,5.41,0,0,1-6.9.6l-.69.69a.75.75,0,0,1-.53.22.79.79,0,0,1-.53-.22l-.71-.72a.74.74,0,0,1,0-1.05l.62-.62-1.1-1.11-.62.62a.75.75,0,0,1-1.06,0l-.71-.71a.75.75,0,0,1,0-1.06l.62-.62-1.11-1.1-.62.62a.74.74,0,0,1-1,0l-.72-.71a.75.75,0,0,1,0-1.06L78,178l-.55-.55-6.51,6.5,84,83.25a7.22,7.22,0,0,1,0,10.18h0a7.22,7.22,0,0,1-10.18,0l-83.25-84-4.14,4.13-8.25-8.25a2.65,2.65,0,0,1,0-3.78l0,0A8,8,0,0,0,51,182.4L38.73,170.11a6.13,6.13,0,0,0-4.1-1.8,4.94,4.94,0,0,0-1.51.24,3.82,3.82,0,0,1-1.15.17c-2.81,0-5.33-2.9-5-3.34.08-.11.74-.87,1.74-2l-.41-.34a.59.59,0,0,1-.07-.83.61.61,0,0,1,.83-.07l.42.36.66-.77-.38-.32a.61.61,0,0,1-.07-.83.62.62,0,0,1,.45-.2.58.58,0,0,1,.38.13l.39.34.86-1-.41-.34a.58.58,0,0,1-.07-.82.58.58,0,0,1,.45-.21.62.62,0,0,1,.38.14l.41.35.86-1-.43-.36a.59.59,0,0,1,.38-1,.57.57,0,0,1,.37.14l.44.37.86-1-.45-.38a.58.58,0,0,1,.37-1,.54.54,0,0,1,.38.14l.47.39.85-1-.48-.41a.59.59,0,0,1,.76-.89l.49.41.85-1-.5-.42a.6.6,0,0,1-.07-.83.61.61,0,0,1,.83-.07l.51.44L40.32,150a1.93,1.93,0,0,1,1.46-.67,1.91,1.91,0,0,1,1.21.43l6.77,5.43,2.7-2.71-12-11a7,7,0,0,0-9.33-.18l.6.6a.6.6,0,0,1,0,.83.63.63,0,0,1-.42.17.58.58,0,0,1-.41-.17l-.62-.62-.92.92.62.62a.57.57,0,0,1,0,.82.58.58,0,0,1-.42.17.54.54,0,0,1-.41-.17l-.62-.61-.92.91.62.62a.59.59,0,0,1,0,.83.54.54,0,0,1-.41.17.58.58,0,0,1-.42-.17l-.62-.62-.92.92.62.62a.58.58,0,1,1-.82.83l-.63-.63-.92.92.63.63a.6.6,0,0,1,0,.83.63.63,0,0,1-.42.17.58.58,0,0,1-.41-.17l-.63-.64-.93.92.64.64a.57.57,0,0,1,0,.82.59.59,0,0,1-.42.18.55.55,0,0,1-.41-.18l-.64-.63-.72.72.59.59a.58.58,0,1,1-.82.83l-.6-.6-2.26,2.25a4.77,4.77,0,0,1-2.57-2c-.92-1.57,1.19-9.94,1.84-12.61s5.15-11.86,11.63-16.23a10.46,10.46,0,0,1,5.94-1.94m0-2.65h0a13.12,13.12,0,0,0-7.42,2.39c-7.17,4.83-11.95,14.57-12.73,17.81l-.13.51C11.93,149.78,12,152.39,12.9,154a7.49,7.49,0,0,0,4.15,3.24l1.49.41,1.09-1.09.78-.77a3.18,3.18,0,0,0,.62.06,3.21,3.21,0,0,0,2.29-1,3,3,0,0,0,.6-.82,3.18,3.18,0,0,0,1-.68,3.08,3.08,0,0,0,.7-1,3.25,3.25,0,0,0,1.05-.71,3.13,3.13,0,0,0,.7-1,3.22,3.22,0,0,0,1.75-1.75,3.33,3.33,0,0,0,1.05-.7,3.27,3.27,0,0,0,.7-1,3.29,3.29,0,0,0,1-.7,3.1,3.1,0,0,0,.71-1,3.13,3.13,0,0,0,1-.7,3.19,3.19,0,0,0,1-2.18,4.43,4.43,0,0,1,1.15-.15,4.34,4.34,0,0,1,3,1.16l3.57,3.28a4.19,4.19,0,0,0-.5,0,4.57,4.57,0,0,0-3.44,1.55h-.17a3.22,3.22,0,0,0-2.47,1.15,3.07,3.07,0,0,0-.61,1.1,3.17,3.17,0,0,0-1.6,1.89,3.19,3.19,0,0,0-1.6,1.88,3.11,3.11,0,0,0-1,.79,3.16,3.16,0,0,0-.62,1.1,3.19,3.19,0,0,0-1,.78,3.24,3.24,0,0,0-.61,1.1,3.14,3.14,0,0,0-1,.79,3.38,3.38,0,0,0-.53.87,3.08,3.08,0,0,0-.93.76,3.19,3.19,0,0,0-.73,2.57l-.57.66a3,3,0,0,0-.29,3.22A8.88,8.88,0,0,0,32,171.38a6.45,6.45,0,0,0,2-.3,2.23,2.23,0,0,1,.71-.11,3.51,3.51,0,0,1,2.17,1l.05,0h0l11,10.95a5.91,5.91,0,0,1-.56.66,5.37,5.37,0,0,0-1.61,3.81,5.26,5.26,0,0,0,1.55,3.74l8.25,8.25,1.87,1.87,1.88-1.87,2.25-2.25,81.37,82.08a9.85,9.85,0,1,0,13.94-13.92L74.66,183.93l1.6-1.6a3.36,3.36,0,0,0,1.26.74,3.4,3.4,0,0,0,.82,1.34l.71.71a3.4,3.4,0,0,0,1.34.82,3.38,3.38,0,0,0,.83,1.34l.71.71a3.39,3.39,0,0,0,4,.6,8,8,0,0,0,10.32-10.17,3.42,3.42,0,0,0-.36-4.39l-.71-.71a3.47,3.47,0,0,0-1.34-.83,3.44,3.44,0,0,0-.82-1.33l-.72-.72a3.37,3.37,0,0,0-1.33-.82,3.49,3.49,0,0,0-.78-1.29c1.43-2,1.08-4.94-1.06-8.86A48,48,0,0,0,80.94,149c-4.88-4.88-11.77-10.1-16.46-10.1A4.72,4.72,0,0,0,61.21,140L42.27,121.88l-.07-.06-.08-.07a12.44,12.44,0,0,0-7.52-2.54Z"/><path d="M109.4,267.18l84-83.25-6.51-6.5-.55.55.62.62a.75.75,0,0,1,0,1.06l-.71.71a.75.75,0,0,1-1.06,0l-.62-.62-1.11,1.1.62.62a.75.75,0,0,1,0,1.06l-.71.71a.75.75,0,0,1-1.06,0l-.62-.62-1.1,1.11.62.62a.74.74,0,0,1,0,1.05l-.71.72a.75.75,0,0,1-1.06,0l-.68-.69a5.39,5.39,0,0,1-7.51-7.51l-1-.95a.75.75,0,0,1,0-1.06l.71-.72a.75.75,0,0,1,1.06,0l.89.9L174,175l-.9-.9a.75.75,0,0,1,0-1.06l.71-.71a.75.75,0,0,1,1.06,0l.9.9,1.1-1.11-.89-.89a.74.74,0,0,1,0-1.06l.71-.71a.75.75,0,0,1,1.06,0l.89.89.55-.55-2.8-2.8c-2-2,1.9-9.26,8.78-16.15s14.11-10.81,16.15-8.78l1.68,1.68,20.81-19.94a9.89,9.89,0,0,1,11.77,0c6.48,4.37,11,13.57,11.64,16.23s2.76,11,1.84,12.61a4.77,4.77,0,0,1-2.58,2l-2.26-2.25-.6.6a.57.57,0,0,1-.82,0,.59.59,0,0,1,0-.83l.59-.59-.72-.72-.64.63a.59.59,0,0,1-.83,0,.59.59,0,0,1,0-.82l.64-.64-.92-.92-.64.64a.59.59,0,0,1-.82,0,.59.59,0,0,1,0-.83l.63-.63-.93-.92-.62.63a.59.59,0,0,1-.83-.83l.62-.62-.92-.92-.62.62a.59.59,0,0,1-.83-.83l.62-.62-.92-.91-.62.61a.59.59,0,0,1-.83,0,.59.59,0,0,1,0-.82l.62-.62-.92-.92-.62.62a.59.59,0,0,1-.82,0,.59.59,0,0,1,0-.83l.59-.6a7,7,0,0,0-9.33.18l-11.95,11,2.7,2.71,6.77-5.43A1.94,1.94,0,0,1,224,150l1.26,1.45.51-.44a.61.61,0,0,1,.83.07.59.59,0,0,1-.07.83l-.5.42.85,1,.49-.41a.59.59,0,0,1,.83.07.59.59,0,0,1-.07.82l-.48.41.86,1,.46-.39a.58.58,0,0,1,.82.06.6.6,0,0,1-.06.83l-.46.38.86,1,.44-.37a.58.58,0,0,1,.82.07.59.59,0,0,1-.07.83l-.42.36.85,1,.41-.35a.59.59,0,0,1,.83.07.58.58,0,0,1-.07.82l-.4.34.85,1,.39-.34a.59.59,0,1,1,.76.9l-.38.32.66.77.43-.36a.59.59,0,0,1,.82.07.59.59,0,0,1-.07.83l-.41.35,1.75,2c.41.5-2.9,4.18-6.12,3.17a5.78,5.78,0,0,0-5.61,1.56L213.25,182.4a8,8,0,0,0,1.89,3.07l0,0a2.65,2.65,0,0,1,.05,3.78L207,197.52l-4.13-4.13-83.26,84a7.21,7.21,0,0,1-10.17,0h0A7.22,7.22,0,0,1,109.4,267.18Z"/><path class="cls-1" d="M229.68,121.86a10.45,10.45,0,0,1,5.93,1.94c6.48,4.37,11,13.57,11.64,16.23s2.76,11,1.84,12.61a4.77,4.77,0,0,1-2.58,2l-2.26-2.25-.6.6a.58.58,0,0,1-.82-.83l.59-.59-.72-.72-.64.63a.55.55,0,0,1-.41.18.59.59,0,0,1-.42-1l.64-.64-.92-.92-.64.64a.58.58,0,0,1-.82-.83l.63-.63-.93-.92-.62.63a.63.63,0,0,1-.42.17.59.59,0,0,1-.41-1l.62-.62-.92-.92-.62.62a.58.58,0,0,1-.42.17.54.54,0,0,1-.41-.17.59.59,0,0,1,0-.83l.62-.62-.92-.91-.62.61a.54.54,0,0,1-.41.17.58.58,0,0,1-.42-.17.59.59,0,0,1,0-.82l.62-.62-.92-.92-.62.62a.58.58,0,1,1-.82-.83l.59-.6a7,7,0,0,0-9.33.18l-11.95,11,2.7,2.71,6.77-5.43A1.92,1.92,0,0,1,224,150l1.26,1.45.51-.44a.61.61,0,0,1,.83.07.59.59,0,0,1-.07.83l-.5.42.85,1,.49-.41a.62.62,0,0,1,.38-.14.58.58,0,0,1,.45.21.59.59,0,0,1-.07.82l-.48.41.86,1,.46-.39a.54.54,0,0,1,.38-.14.59.59,0,0,1,.44.2.6.6,0,0,1-.06.83l-.46.38.86,1,.44-.37a.59.59,0,0,1,.37-.14.57.57,0,0,1,.45.21.59.59,0,0,1-.07.83l-.42.36.85,1,.41-.35a.62.62,0,0,1,.38-.14.58.58,0,0,1,.45.21.58.58,0,0,1-.07.82l-.4.34.85,1,.39-.34a.59.59,0,1,1,.76.9l-.38.32.66.77.43-.36a.58.58,0,0,1,.37-.13.58.58,0,0,1,.38,1l-.41.34,1.75,2c.36.44-2.16,3.34-5,3.34a3.82,3.82,0,0,1-1.15-.17,4.94,4.94,0,0,0-1.51-.24,6.13,6.13,0,0,0-4.1,1.8L213.25,182.4a8,8,0,0,0,1.89,3.07l0,0a2.65,2.65,0,0,1,.05,3.78L207,197.52l-4.13-4.13-83.26,84a7.21,7.21,0,0,1-10.17,0h0a7.22,7.22,0,0,1,0-10.18l84-83.25-6.51-6.5-.55.55.62.62a.75.75,0,0,1,0,1.06l-.71.71a.79.79,0,0,1-.53.22.75.75,0,0,1-.53-.22l-.62-.62-1.11,1.1.62.62a.75.75,0,0,1,0,1.06l-.71.71a.73.73,0,0,1-.53.22.74.74,0,0,1-.53-.22l-.62-.62-1.1,1.11.62.62a.74.74,0,0,1,0,1.05l-.71.72a.79.79,0,0,1-.53.22.77.77,0,0,1-.53-.22l-.68-.69a5.39,5.39,0,0,1-7.51-7.51l-1-.95a.75.75,0,0,1,0-1.06l.71-.72a.76.76,0,0,1,.53-.21.77.77,0,0,1,.53.21l.89.9L174,175l-.9-.9a.75.75,0,0,1,0-1.06l.71-.71a.74.74,0,0,1,.53-.22.73.73,0,0,1,.53.22l.9.9,1.1-1.11-.89-.89a.74.74,0,0,1,0-1.06l.71-.71a.73.73,0,0,1,.53-.22.74.74,0,0,1,.53.22l.89.89.55-.55-2.8-2.8c-2-2,1.9-9.26,8.78-16.15,5.66-5.65,11.55-9.32,14.59-9.32a2.14,2.14,0,0,1,1.56.54l1.68,1.68,20.81-19.94a9.89,9.89,0,0,1,5.84-1.94m0-2.65a12.45,12.45,0,0,0-7.53,2.54l-.08.07-.07.06L203.06,140a4.72,4.72,0,0,0-3.27-1.16c-4.69,0-11.58,5.22-16.46,10.1a48.34,48.34,0,0,0-8.19,10.5c-2.13,3.92-2.49,6.89-1,8.86a3.27,3.27,0,0,0-.78,1.29,3.33,3.33,0,0,0-1.34.82l-.71.72a3.35,3.35,0,0,0-.83,1.33,3.55,3.55,0,0,0-1.34.83l-.71.71a3.42,3.42,0,0,0-.36,4.39,8.06,8.06,0,0,0,10.32,10.17,3.39,3.39,0,0,0,4-.6l.72-.71a3.47,3.47,0,0,0,.82-1.34,3.4,3.4,0,0,0,1.34-.82l.71-.71a3.4,3.4,0,0,0,.82-1.34,3.36,3.36,0,0,0,1.26-.74l1.6,1.6L107.53,265.3a9.85,9.85,0,1,0,13.92,13.94l81.38-82.09,2.25,2.25,1.88,1.87,1.87-1.87,8.25-8.25a5.26,5.26,0,0,0,1.55-3.74,5.36,5.36,0,0,0-1.6-3.8,4.42,4.42,0,0,1-.56-.67L227.41,172l.06-.06h0a3.5,3.5,0,0,1,2.16-.95,2.19,2.19,0,0,1,.71.11,6.45,6.45,0,0,0,2,.3,8.87,8.87,0,0,0,7.31-4.46,3,3,0,0,0-.29-3.22s-.08-.11-.56-.66a28.84,28.84,0,0,0-2.2-4.2,3.14,3.14,0,0,0-1-.79,3.22,3.22,0,0,0-1.59-1.88,3.3,3.3,0,0,0-.61-1.1,3.26,3.26,0,0,0-1-.79,3.19,3.19,0,0,0-1.6-1.88,3.19,3.19,0,0,0-.61-1.11,3.34,3.34,0,0,0-1-.78,3.25,3.25,0,0,0-.62-1.1,3.21,3.21,0,0,0-2.47-1.15h-.17a4.57,4.57,0,0,0-3.44-1.55,4,4,0,0,0-.49,0l3.56-3.28a4.34,4.34,0,0,1,3-1.16,4.43,4.43,0,0,1,1.15.15,3.19,3.19,0,0,0,1,2.18,3.07,3.07,0,0,0,1,.7,3.07,3.07,0,0,0,.7,1,3.29,3.29,0,0,0,1,.7,3.22,3.22,0,0,0,1.75,1.75,3.22,3.22,0,0,0,1.75,1.75,3.29,3.29,0,0,0,.7,1,3.36,3.36,0,0,0,1,.71,3.23,3.23,0,0,0,.7,1,3.3,3.3,0,0,0,1,.68,3.26,3.26,0,0,0,2.89,1.77,3.36,3.36,0,0,0,.63-.06l.77.77,1.09,1.09,1.49-.41a7.45,7.45,0,0,0,4.15-3.24c.94-1.59,1-4.2-1.42-14l-.13-.52c-.78-3.24-5.56-13-12.73-17.81a13.12,13.12,0,0,0-7.41-2.39Z"/><polygon points="123.57 236.14 146 258.38 133.75 268.71 127.4 259.92 117.84 250.27 123.57 236.14"/></g><g id="Calque_17" data-name="Calque 17"><path class="cls-1" d="M186.9,251a83.9,83.9,0,0,1-109.53,0H39.85v56.42H220V251Z"/><path d="M139.76,287.31H124.15c-2.05,0-3.76-1.23-4-2.84l-1.69-14.31H145.4l-1.69,14.31C143.52,286.08,141.81,287.31,139.76,287.31Z"/><path d="M180.44,276.19l-14.42,6c-1.89.79-4,.3-4.74-1.12l-7-12.57,24.84-10.29L183,272.05C183.44,273.61,182.33,275.4,180.44,276.19Z"/><path d="M213.77,250.34l-11,11c-1.45,1.45-3.53,1.79-4.81.78l-11.31-8.92,19-19,8.92,11.32C215.55,246.81,215.21,248.89,213.77,250.34Z"/><path d="M63,259.43l-11-11c-1.44-1.45-1.78-3.53-.77-4.81l8.92-11.31,19,19L67.8,260.2C66.52,261.21,64.44,260.87,63,259.43Z"/><path d="M96.19,286.62l-14.43-6c-1.89-.78-3-2.58-2.55-4.14l3.91-13.87L108,272.92l-7,12.58C100.13,286.91,98.08,287.4,96.19,286.62Z"/><path d="M196,236.14a85.53,85.53,0,0,1-128.07,0H51a98.83,98.83,0,0,0,161.85,0Z"/></g><rect x="155.32" y="278.24" width="14.58" height="18.42"/><g id="Calque_23" data-name="Calque 23"><path d="M250.69,276.86l.77-21-8-.29a42.58,42.58,0,0,0-4.19-11.28l5.84-5.43L230.8,223.42,225,228.86a42.05,42.05,0,0,0-8.36-4.16L197.9,242.08a23,23,0,0,1,9,.13,23,23,0,1,1-27.07,16.61L163.53,274l-.12-.27a1.23,1.23,0,0,0-1.52-.71l-6.33,2.08a49.54,49.54,0,0,0-5-7.41l4.34-5a1.24,1.24,0,0,0-.06-1.68L150,256.12a1.25,1.25,0,0,0-1.68-.06l-5.07,4.35a49.7,49.7,0,0,0-7.42-5l2.07-6.31a1.24,1.24,0,0,0-.7-1.53L130.84,245a1.25,1.25,0,0,0-1.58.59l-3,6a48.69,48.69,0,0,0-8.76-1.73l-.5-6.63a1.24,1.24,0,0,0-1.23-1.14h-6.88a1.23,1.23,0,0,0-1.23,1.14l-.5,6.65a48.73,48.73,0,0,0-8.76,1.76l-3-5.94a1.24,1.24,0,0,0-1.58-.58l-6.35,2.63a1.24,1.24,0,0,0-.7,1.53l2.08,6.33a49,49,0,0,0-7.41,5l-5.05-4.34a1.24,1.24,0,0,0-1.68.07l-2.88,2.88-2.93.17a30,30,0,0,0-7-11.69l5-8.16-6.84-5.08-6.37,7.15a30,30,0,0,0-13.2-3.33l-2.22-9.32-8.43,1.23.55,9.56a30.41,30.41,0,0,0-11.69,7l-8.15-5L5.5,248.45l7.15,6.38A30.18,30.18,0,0,0,9.32,268L0,270.25l1.23,8.42,9.57-.55a30.23,30.23,0,0,0,7,11.68l-5,8.17,6.84,5.09L26,295.9a30.52,30.52,0,0,0,13.19,3.34l2.22,9.32,8.43-1.24-.55-9.56A30.11,30.11,0,0,0,56,294.6a1.22,1.22,0,0,0-.27.74v6.87a1.24,1.24,0,0,0,1.15,1.24l6.65.5a48.89,48.89,0,0,0,1.75,8.76l-5.93,3a1.24,1.24,0,0,0-.58,1.58l2.63,6.35a1.22,1.22,0,0,0,1.52.7l6.33-2.07a49.54,49.54,0,0,0,5,7.41l-4.34,5a1.25,1.25,0,0,0,.06,1.68l4.87,4.86a1.22,1.22,0,0,0,1.67.07L81.57,337a49.7,49.7,0,0,0,7.42,5l-2.07,6.31a1.23,1.23,0,0,0,.7,1.52L94,352.4a1.24,1.24,0,0,0,1.57-.59l3-5.95a48.69,48.69,0,0,0,8.76,1.73l.5,6.63a1.24,1.24,0,0,0,1.23,1.14h6.88a1.23,1.23,0,0,0,1.23-1.14l.5-6.65a48.73,48.73,0,0,0,8.76-1.76l3,5.93a1.24,1.24,0,0,0,1.58.59l6.35-2.63a1.24,1.24,0,0,0,.7-1.53L136,341.84a49.22,49.22,0,0,0,7.41-5l5.05,4.33a1.22,1.22,0,0,0,1.68-.06l4.86-4.86a1.22,1.22,0,0,0,.06-1.68l-4.35-5.06a49.6,49.6,0,0,0,5-7.43l6.3,2.07a1.24,1.24,0,0,0,1.53-.7l2.63-6.35a1.25,1.25,0,0,0-.58-1.58l-5.95-3a49,49,0,0,0,1.73-8.77l6.62-.5a1.23,1.23,0,0,0,1.15-1.23v-.78l4.11,4.43,5.84-5.43a42.24,42.24,0,0,0,10.95,5l-.29,8,21,.77.29-8a42.09,42.09,0,0,0,11.29-4.19l5.42,5.84,15.42-14.32-5.43-5.84a42.57,42.57,0,0,0,5-10.95ZM70.37,269.4l3.14-.75a47.51,47.51,0,0,0-3.6,5.34A31.87,31.87,0,0,0,70.37,269.4ZM39.89,246a22.7,22.7,0,0,1,21.84,16.6l-9.17,1.34a13.64,13.64,0,0,0-11.75-8.75L39.47,246ZM17.12,269.09a22.67,22.67,0,0,1,16.57-22.26L35,256a13.56,13.56,0,0,0-8.74,11.75Zm.83,5.78,9.18-1.34a13.62,13.62,0,0,0,11.75,8.75l1.35,9.17A22.81,22.81,0,0,1,18,274.87Zm23,1.52A7.76,7.76,0,0,1,38.72,261a8.71,8.71,0,0,1,1.13-.08A7.76,7.76,0,0,1,41,276.39Zm5,14.22-1.35-9.19a13.62,13.62,0,0,0,8.74-11.74l9.19-1.35a22.51,22.51,0,0,1-.47,4.88,1.24,1.24,0,0,0-.79.7L59.5,280.1A22.73,22.73,0,0,1,46,290.61Zm17.49,3-6.62.5a1,1,0,0,0-.18,0,30,30,0,0,0,4.23-3.38l2.72,1.68C63.6,292.83,63.54,293.22,63.5,293.61Zm12.85,5.08a5.88,5.88,0,1,1,5.88,5.88A5.88,5.88,0,0,1,76.35,298.69Zm18.87,25.49a5.88,5.88,0,1,1,0-8.31A5.87,5.87,0,0,1,95.22,324.18Zm0-42.67a5.88,5.88,0,1,1,0-8.32A5.88,5.88,0,0,1,95.22,281.51Zm17.19-18.88a5.88,5.88,0,1,1-5.88,5.88A5.88,5.88,0,0,1,112.41,262.63Zm0,72.11a5.88,5.88,0,1,1,5.87-5.87A5.87,5.87,0,0,1,112.41,334.74Zm0-24.7a11.36,11.36,0,1,1,11.35-11.35A11.35,11.35,0,0,1,112.41,310Zm17.18-36.85a5.88,5.88,0,1,1,0,8.32A5.88,5.88,0,0,1,129.59,273.19Zm8.31,51a5.88,5.88,0,1,1,0-8.31A5.87,5.87,0,0,1,137.9,324.18Zm4.68-19.61a5.88,5.88,0,1,1,5.88-5.88A5.87,5.87,0,0,1,142.58,304.57Zm21-21.95c.36.75.73,1.49,1.13,2.22l-4.18,3.88c-.28-1.37-.62-2.72-1-4.05Zm-2.31,10.81c0-.22-.05-.43-.08-.64l.64.68Z"/></g><path class="cls-1" d="M163.53,101.17s.37-21,.47-25.41,2.23-3,2.23-3-.82,26.41-.75,28.43-1.95,0-1.95,0"/><path class="cls-1" d="M100.74,101.27s-.37-18.79-.47-22.74S98,75.83,98,75.83s.82,23.63.75,25.44,1.95,0,1.95,0"/><g id="Calque_18" data-name="Calque 18"><path d="M115.52,145.91a6.32,6.32,0,1,1-6.32,6.32,6.33,6.33,0,0,1,6.32-6.32m0-4a10.3,10.3,0,1,0,10.3,10.3,10.3,10.3,0,0,0-10.3-10.3Z"/><path d="M107.49,199h-2v-1.48c0-9,0-18.39,1.7-24,1.39-4.43.51-9-.35-13.48a42.39,42.39,0,0,1-1-7.82h2a41.25,41.25,0,0,0,1,7.45c.91,4.69,1.84,9.53.3,14.44-1.62,5.32-1.62,14.52-1.61,23.42Z"/><path d="M98.94,148.48v2.32s-5-1.78-3.54,4.36,2.93,8.74,2.93,8.74v2.54s-4.69-8.57-4.69-14.2.44-6.58,1.65-6.25A8.22,8.22,0,0,1,98.94,148.48Z"/><path d="M98.61,160.36c.08.14.17,1.6,0,1.44s-2.21-3.72-1.6-6.64A27.56,27.56,0,0,0,98.61,160.36Z"/><path d="M165.33,148.48v2.32s5-1.78,3.54,4.36-2.93,8.74-2.93,8.74v2.54s4.69-8.57,4.69-14.2-.44-6.58-1.65-6.25A8.22,8.22,0,0,0,165.33,148.48Z"/><path d="M165.66,160.36c-.08.14-.16,1.6,0,1.44s2.21-3.72,1.6-6.64A27.56,27.56,0,0,1,165.66,160.36Z"/><path d="M165.18,64.72l.12-.19a.61.61,0,0,0,.07-.14,1.63,1.63,0,0,0,.09-.19s0-.09,0-.13l.06-.21h0v0a1.73,1.73,0,0,0,0-.32c0-3.76-11.32-6.8-33.45-6.8s-33.46,3-33.46,6.8a1.73,1.73,0,0,0,0,.32v0h0l.06.21s0,.08,0,.13l.09.19s0,.1.07.14l.12.19a.71.71,0,0,1,.1.14l.16.18.13.15.19.17.17.14c.06.06.14.11.21.17l.2.15.25.16.23.14.28.16.26.14.32.15.29.14.34.14.33.14.37.14.37.13.39.14.41.13.42.13.44.12.45.13.47.12.49.12.5.11.51.12.54.11.54.11.57.1.57.1.61.1.6.1.64.1.63.08.67.09.66.09.71.08.68.08.75.07.7.07.79.07.73.06.83.07.75,0,.88.06.76,0,.93,0,.78,0,1,.05.78,0,1.06,0,.77,0,1.15,0,.74,0,1.38,0h5.18l1.37,0,.74,0,1.15,0,.77,0,1.06,0,.78,0,1-.05.77,0,.93,0,.76,0,.88-.06.75,0,.83-.07.73-.06.79-.07.7-.07.75-.07.68-.08.71-.08.66-.09.68-.09.62-.08.64-.1.6-.1.61-.1.57-.1.57-.1.55-.11.53-.11.51-.12.5-.11.49-.12.47-.12.46-.13.43-.12.43-.13.4-.13.39-.14.37-.13.37-.14.33-.14.34-.14.3-.14.31-.15.26-.14.28-.16.23-.14.25-.16.2-.15.22-.17.16-.14.19-.17.13-.15.16-.18A.71.71,0,0,1,165.18,64.72Z"/><path d="M163.32,109.5c.22-18.45,1.27-33.88,1.86-41.28a24,24,0,0,1-7.45,2.69c-6.11,1.35-15,2.06-25.59,2.06s-19.49-.71-25.6-2.06a24,24,0,0,1-7.45-2.69c.59,7.4,1.64,22.83,1.86,41.28-14,.54-23.19,2.21-23.19,7.23,0,4.63,7.75,11.11,19.91,15.88.33,2.24.83,5.56,1.24,7.83.67,3.73,0,23.46,0,23.46l.09,0c-.6,10.21,1.17,23.91,2.1,26.56,1.16,3.32.83,3.81,2.66,18.4s28.35,17.58,28.35,17.58,26.52-3,28.35-17.58,1.49-15.08,2.65-18.4c.93-2.65,2.7-16.35,2.1-26.56l.09,0s-.64-19.73,0-23.46c.41-2.27.9-5.59,1.23-7.83,12.16-4.77,19.91-11.25,19.91-15.88C186.51,111.71,177.34,110,163.32,109.5Zm-55.81,14a31.88,31.88,0,0,0,7.81,3.09,69.08,69.08,0,0,0,16.82,1.77A68.51,68.51,0,0,0,149,126.57a31.72,31.72,0,0,0,7.81-3.09,25,25,0,0,0,6.52-5.42,21.74,21.74,0,0,1-6,6.24,29.27,29.27,0,0,1-7.9,3.76,48.22,48.22,0,0,1-8.56,1.78c-2.89.34-5.79.44-8.68.49s-5.8-.15-8.69-.49a47.35,47.35,0,0,1-8.56-1.78,29.27,29.27,0,0,1-7.9-3.76,21.74,21.74,0,0,1-6-6.24A25,25,0,0,0,107.51,123.48Zm32.58,71.18c-3.15,0-5-1.83-8-1.83s-4.81,1.83-8,1.83a7.93,7.93,0,0,1-5.31-2.33s7-4,9.2-4.39,4.07-1.74,4.07-2.07c0,.33,1.9,1.66,4.06,2.07s9.2,4.39,9.2,4.39A7.93,7.93,0,0,1,140.09,194.66Zm23.19-38.48c-.14,3.16-.95,9.25-.95,9.26-2.34,8.7-6.54,21-11.29,19.93,0,.06-.69.92-1.58,2-7.71-8.92-14-8.07-14-8.07a12.16,12.16,0,0,1-3.31,1.82,12.11,12.11,0,0,1-3.32-1.82s-6.29-.85-14,8.07c-.89-1.1-1.57-2-1.57-2-4.76,1.08-9-11.23-11.3-19.93,0,0-.81-6.1-1-9.26-.1-2.42,1.75-15.55,2.61-21.5a97.48,97.48,0,0,0,57.07,0C161.53,140.63,163.38,153.76,163.28,156.18Z"/></g><g id="Calque_16" data-name="Calque 16"><path class="cls-2" d="M196.87,287.17a125.59,125.59,0,0,0-133.89,0V239.28c4.17-2.93,30-19.94,67-19.94s62.77,17,66.94,19.94Z"/><path class="cls-3" d="M129.93,220.84c35,0,59.86,15.43,65.44,19.23V284.4a127.61,127.61,0,0,0-130.89,0V240.07c5.57-3.8,30.39-19.23,65.45-19.23m0-3c-41.25,0-68.45,20.67-68.45,20.67V290s27.2-20.67,68.45-20.67S198.37,290,198.37,290v-51.5s-27.19-20.67-68.44-20.67Z"/><path d="M63,292l-4-2v-51.5l1-2c1.14-.86,28.35-21.18,70-21.18s68.82,20.32,70,21.18l1,2V290l-4,2c-.26-.2-27.08-20.16-66.93-20.16S63.25,291.8,63,292Zm66.94-25.16a126.12,126.12,0,0,1,65.94,18.46V239.8c-5.18-3.55-30.37-19.46-65.94-19.46s-60.76,15.9-66,19.46v45.5A126.13,126.13,0,0,1,129.93,266.84Z"/><text class="cls-4" transform="matrix(0.94, -0.35, 0.35, 0.94, 73.91, 270.17)">S</text><text class="cls-4" transform="translate(83.88 266.45) rotate(-18.16)">t</text><text class="cls-4" transform="matrix(0.96, -0.27, 0.27, 0.96, 91.33, 263.96)">e</text><text class="cls-4" transform="translate(101.87 261) rotate(-11.88)">a</text><text class="cls-4" transform="translate(111.12 258.62) rotate(-5.5)">m</text><text class="cls-4" transform="matrix(1, 0.04, -0.04, 1, 131.45, 257.18)"> </text><text class="cls-4" transform="translate(135.74 257.21) rotate(6.1)">a</text><text class="cls-4" transform="translate(145.57 258.24) rotate(10.08)">r</text><text class="cls-4" transform="translate(154.78 259.9) rotate(13.53)">t</text><text class="cls-4" transform="matrix(0.96, 0.28, -0.28, 0.96, 162.44, 261.75)">i</text><text class="cls-4" transform="translate(169.08 263.66) rotate(19.13)">s</text><text class="cls-4" transform="translate(177.69 266.65) rotate(22.21)">t</text><text class="cls-5" transform="translate(73.4 250.32) rotate(-20.58)">T</text><text class="cls-5" transform="translate(80.33 247.71) rotate(-18.48)">h</text><text class="cls-5" transform="translate(88.04 245.13) rotate(-16.54)">e</text><path class="cls-1" d="M184.8,247c-30.22-12-55.44-17.32-87.75-6.82l-.31-.95c32.59-10.6,58-5.24,88.43,6.84Z"/></g><path d="M248,73.5,223.62,41.2,204.54,54l14.55,24.46A3.23,3.23,0,0,1,218,82.91l-30.61,18.22L203.6,125.3l40.87-30.85h0A14.62,14.62,0,0,0,248,73.5Z"/><rect x="200.82" y="42.23" width="31.81" height="19" transform="translate(8.88 132) rotate(-34.54)"/><path d="M203,35.29c-2,7.21-11.73,2.16-25-1.46s-25.06-4.45-23.09-11.65,21.81-13,35.09-9.34S205,28.08,203,35.29Z"/><path d="M154,0c17.21-.51,31.44,8.33,31.78,19.76s-14,17-31.16,17.5-30.83-4.21-31.17-15.64S136.75.53,154,0Z"/><path d="M212.47,32.23c-6.56-7.1-15-10-18.86-6.4a6.76,6.76,0,0,0-1.88,5.38l-44.1-8.3a7.46,7.46,0,0,0-8.51,4.8,7.29,7.29,0,0,0,5.56,9.43s20.63,0,28.12,1.41a150.1,150.1,0,0,1,21.79,5.59,24,24,0,0,1,7.19,4c5.88,4.8,12.37,6.36,15.61,3.36C221.24,48,219,39.33,212.47,32.23Z"/></g></g></svg>