<svg xmlns="http://www.w3.org/2000/svg" viewBox="0 0 307.5 264.73"><defs><style>.cls-1{fill:#252726;}.cls-2,.cls-3{fill:#956c1f;}.cls-3,.cls-4{fill-rule:evenodd;}.cls-4,.cls-5{fill:#e5e2a6;}</style></defs><title>tsa_final_1</title><g id="Calque_2" data-name="Calque 2"><g id="Calque_6" data-name="Calque 6"><path class="cls-1" d="M287.25,264.73h-267L0,244.48V20.25L20.25,0h267L307.5,20.25V244.48Z"/></g><g id="Calque_5" data-name="Calque 5"><path class="cls-2" d="M141.64,40.08l-3.34,1.31a24.28,24.28,0,0,0-3.48-3.61l1.43-3.29a1.18,1.18,0,0,0-.61-1.54l-11.2-4.87a1.17,1.17,0,0,0-1.54.61L121.47,32a24.73,24.73,0,0,0-5-.09l-1.31-3.33a1.18,1.18,0,0,0-1.53-.66l-11.35,4.47a1.18,1.18,0,0,0-.67,1.52l1.32,3.34a24.85,24.85,0,0,0-3.62,3.48L96,39.27a1.19,1.19,0,0,0-1.55.61l-4.87,11.2a1.18,1.18,0,0,0,.61,1.54l3.29,1.43a24.73,24.73,0,0,0-.09,5l-3.33,1.31a1.19,1.19,0,0,0-.67,1.53l4.48,11.35a1.17,1.17,0,0,0,1.52.67l3.33-1.31a25.92,25.92,0,0,0,3.49,3.61l-1.43,3.28a1.18,1.18,0,0,0,.61,1.55l11.19,4.87a1.19,1.19,0,0,0,1.55-.61L115.57,82a24.73,24.73,0,0,0,5,.09l1.31,3.33a1.18,1.18,0,0,0,1.52.67l11.36-4.48a1.16,1.16,0,0,0,.66-1.52l-1.31-3.33a24.86,24.86,0,0,0,3.61-3.49L141,74.73a1.16,1.16,0,0,0,1.54-.61l4.87-11.19a1.17,1.17,0,0,0-.61-1.55L143.55,60a24.73,24.73,0,0,0,.09-5L147,53.62a1.17,1.17,0,0,0,.66-1.52l-4.47-11.36A1.16,1.16,0,0,0,141.64,40.08Zm-17.78,4.2a3.74,3.74,0,1,1,.6,5.26A3.75,3.75,0,0,1,123.86,44.28Zm-4,26.45a3.75,3.75,0,1,1,4.85,2.11A3.75,3.75,0,0,1,119.9,70.73ZM115,48.13a3.74,3.74,0,1,1,2.11-4.85A3.75,3.75,0,0,1,115,48.13Zm-1.85,21.59a3.74,3.74,0,1,1-.6-5.26A3.74,3.74,0,0,1,113.18,69.72Zm-4.09-14.13a3.74,3.74,0,1,1-3.15-4.25A3.75,3.75,0,0,1,109.09,55.59ZM128,58.41a3.74,3.74,0,1,1,3.15,4.26A3.75,3.75,0,0,1,128,58.41Z"/><path class="cls-2" d="M233.14,64.17l-2.23-.2a19.7,19.7,0,0,0-1.13-2.62l1.39-1.75a.54.54,0,0,0-.07-.65l-4-4.86a.53.53,0,0,0-.63-.18l-2,1.05a19.93,19.93,0,0,0-2.37-1.58l.21-2.24a.52.52,0,0,0-.41-.5l-6-1.87a.53.53,0,0,0-.63.19l-1.09,1.95c-.6,0-1.21-.07-1.83-.07l-.94-2a.53.53,0,0,0-.61-.24L204.57,50a.54.54,0,0,0-.45.47l0,2.24a20.16,20.16,0,0,0-2.49,1.4l-1.89-1.2a.54.54,0,0,0-.64.14l-4.41,4.53a.55.55,0,0,0-.11.65l1.25,1.86a20.14,20.14,0,0,0-1.32,2.52l-2.25,0a.53.53,0,0,0-.46.46l-1.23,6.2a.54.54,0,0,0,.26.61l2,.87a19.62,19.62,0,0,0,.27,2.84l-1.86,1.25a.53.53,0,0,0-.14.64l2.35,5.86a.53.53,0,0,0,.54.37l2.21-.38a20.15,20.15,0,0,0,1.77,2.23l-.89,2.06a.54.54,0,0,0,.24.61l5.16,3.64a.53.53,0,0,0,.66,0l1.64-1.53a19.93,19.93,0,0,0,2.7.91l.38,2.21a.52.52,0,0,0,.53.39l6.31.24a.54.54,0,0,0,.56-.34l.54-2.18q.45-.07.9-.18a19.08,19.08,0,0,0,1.87-.52l1.52,1.64a.52.52,0,0,0,.65,0l5.43-3.24a.53.53,0,0,0,.28-.59l-.73-2.13a20,20,0,0,0,1.92-2.09l2.19.55a.52.52,0,0,0,.56-.32l2.79-5.68a.51.51,0,0,0-.09-.64l-1.77-1.39a19.87,19.87,0,0,0,.49-2.81l2.12-.71a.55.55,0,0,0,.3-.59l-.75-6.27A.55.55,0,0,0,233.14,64.17Zm-28.6,6.11-5.41,1.23a13.4,13.4,0,0,1,8.58-13.64L209,63.28A8,8,0,0,0,204.54,70.28Zm15-3.41a8,8,0,0,0-7-4.41l-1.23-5.41A13.4,13.4,0,0,1,225,65.63Zm-8-.61a4.22,4.22,0,1,1-3.18,5A4.23,4.23,0,0,1,211.52,66.26Zm5.68,16.62L216,77.47a8,8,0,0,0,4.4-7l5.41-1.23A13.4,13.4,0,0,1,217.2,82.88ZM200,75.12l5.41-1.23a8,8,0,0,0,7,4.4l1.23,5.41A13.4,13.4,0,0,1,200,75.12Z"/><path class="cls-2" d="M81.24,67.12l-.89-.45a9.09,9.09,0,0,0,0-1.28l.87-.49a.25.25,0,0,0,.08-.29l-.86-2.68a.25.25,0,0,0-.23-.19l-1,.11a9.73,9.73,0,0,0-.72-1.05l.46-.89a.23.23,0,0,0-.09-.28l-2.19-1.79a.24.24,0,0,0-.29,0l-.78.63a7,7,0,0,0-.74-.34l0-1a.26.26,0,0,0-.21-.2l-2.79-.45a.25.25,0,0,0-.27.13l-.36.93a8.68,8.68,0,0,0-1.26.16l-.59-.81a.23.23,0,0,0-.29,0L66.43,58a.24.24,0,0,0-.15.25l.2,1a9.46,9.46,0,0,0-1,.83l-.93-.37a.25.25,0,0,0-.27.12l-1.54,2.36a.22.22,0,0,0,0,.29l.7.71a9.56,9.56,0,0,0-.36,1.22l-1,.21a.24.24,0,0,0-.16.24v2.82a.24.24,0,0,0,.16.25l1,.21a8.94,8.94,0,0,0,.36,1.22l-.71.7a.24.24,0,0,0,0,.3l1.53,2.37a.23.23,0,0,0,.27.11l.94-.36a8.4,8.4,0,0,0,1,.83l-.21,1a.23.23,0,0,0,.15.25L69,75.64a.24.24,0,0,0,.29,0l.58-.81.41.07a8.39,8.39,0,0,0,.86.1l.35.93a.25.25,0,0,0,.27.13l2.79-.44a.22.22,0,0,0,.21-.2l.06-1a8.58,8.58,0,0,0,1.15-.54l.81.59a.23.23,0,0,0,.29,0l2.1-1.88a.24.24,0,0,0,.07-.29l-.5-.87a8.48,8.48,0,0,0,.67-1.08l1,.06a.24.24,0,0,0,.22-.19l.74-2.73A.24.24,0,0,0,81.24,67.12ZM68.37,64.87l-2.45-.39a6,6,0,0,1,5.84-4.22l-.39,2.45A3.54,3.54,0,0,0,68.37,64.87ZM75.16,66A3.55,3.55,0,0,0,73,63l.39-2.45a6,6,0,0,1,4.22,5.84Zm-3.23-1.6a1.89,1.89,0,1,1-2.16,1.57A1.9,1.9,0,0,1,71.93,64.37Zm-.42,7.84.39-2.45a3.55,3.55,0,0,0,3-2.16l2.45.39A6,6,0,0,1,71.51,72.21Zm-5.85-6.1,2.45.4a3.54,3.54,0,0,0,2.16,3L69.88,72A6,6,0,0,1,65.66,66.11Z"/><path class="cls-2" d="M58.22,76l-1,1a18.56,18.56,0,0,0-2.42-1.78l.66-1.3a.48.48,0,0,0-.21-.63l-1.56-.79a.46.46,0,0,0-.63.2L52.38,74A18.06,18.06,0,0,0,49.52,73l.23-1.44a.47.47,0,0,0-.39-.54l-1.73-.27a.47.47,0,0,0-.54.39l-.22,1.42a18.91,18.91,0,0,0-3,0l-.23-1.44a.46.46,0,0,0-.54-.39L41.36,71a.47.47,0,0,0-.39.54L41.2,73a18.5,18.5,0,0,0-2.88.91l-.66-1.29a.47.47,0,0,0-.63-.21l-1.56.8a.46.46,0,0,0-.2.63l.65,1.28a18,18,0,0,0-2.45,1.76l-1-1a.47.47,0,0,0-.66,0l-1.24,1.24a.47.47,0,0,0,0,.66l1,1a18.08,18.08,0,0,0-1.79,2.43l-1.29-.66a.48.48,0,0,0-.64.2l-.79,1.56a.47.47,0,0,0,.21.64l1.28.65a17.44,17.44,0,0,0-.95,2.86l-1.43-.23a.49.49,0,0,0-.55.39l-.27,1.73a.47.47,0,0,0,.39.54l1.43.23a18.9,18.9,0,0,0,0,3l-1.44.22a.47.47,0,0,0-.39.54l.27,1.73a.47.47,0,0,0,.54.39l1.43-.22a18.69,18.69,0,0,0,.9,2.87l-1.29.66a.47.47,0,0,0-.2.63l.79,1.56a.48.48,0,0,0,.63.21l1.28-.65a17.94,17.94,0,0,0,1.76,2.44l-1,1a.48.48,0,0,0,0,.67l1.24,1.23a.46.46,0,0,0,.67,0l1-1a18,18,0,0,0,2.43,1.78l-.66,1.29a.48.48,0,0,0,.21.64l1.56.79a.47.47,0,0,0,.63-.2l.65-1.28a18.4,18.4,0,0,0,2.86.94l-.22,1.44a.46.46,0,0,0,.39.54l1.72.27a.47.47,0,0,0,.54-.39l.23-1.43a17.8,17.8,0,0,0,3,0l.23,1.44a.47.47,0,0,0,.54.39l1.72-.27a.47.47,0,0,0,.4-.54l-.23-1.42a19.14,19.14,0,0,0,2.87-.91l.66,1.29a.48.48,0,0,0,.64.21l1.55-.8a.46.46,0,0,0,.21-.63l-.65-1.28a18.68,18.68,0,0,0,2.45-1.76l1,1a.48.48,0,0,0,.67,0L60,104.32a.48.48,0,0,0,0-.67l-1-1a18.08,18.08,0,0,0,1.79-2.43l1.29.66a.46.46,0,0,0,.63-.21l.8-1.55a.48.48,0,0,0-.21-.64L62,97.82a18.44,18.44,0,0,0,1-2.86l1.43.23a.47.47,0,0,0,.54-.39l.28-1.73a.47.47,0,0,0-.4-.54l-1.42-.23a17.79,17.79,0,0,0,0-3l1.45-.23a.47.47,0,0,0,.39-.54l-.28-1.72a.46.46,0,0,0-.54-.39L63,86.63a17.38,17.38,0,0,0-.91-2.87l1.29-.66a.46.46,0,0,0,.21-.63l-.79-1.56a.48.48,0,0,0-.64-.21l-1.27.65a17.94,17.94,0,0,0-1.76-2.44l1-1a.46.46,0,0,0,0-.67L58.89,76A.46.46,0,0,0,58.22,76Zm-2.94,24.74a14.13,14.13,0,0,1-10.56,4.14L46.5,98.2a7.57,7.57,0,0,0,6.26-6.26l6.66-1.79A14.11,14.11,0,0,1,55.28,100.72Zm-22-17.58L38.14,88a7.62,7.62,0,0,0,1.73,8.06c.18.18.37.34.56.5l-1.79,6.66a14.39,14.39,0,0,1-3.41-2.52A14.18,14.18,0,0,1,33.26,83.14Zm9.85,9.7a3,3,0,1,1,4.3,0A3,3,0,0,1,43.11,92.84ZM55.28,80.67a13.93,13.93,0,0,1,2.52,3.41l-6.66,1.78a6.37,6.37,0,0,0-.5-.55,7.62,7.62,0,0,0-8.06-1.74L37.71,78.7A14.17,14.17,0,0,1,55.28,80.67Z"/><path class="cls-3" d="M273.88,87.35l-1.37.5a8.83,8.83,0,0,0-.67-1l-.11-.15.93-1.11a.17.17,0,0,0,0-.21l-.91-1a.16.16,0,0,0-.21,0l-1.19.84a12.24,12.24,0,0,0-1.05-.88l.62-1.32a.17.17,0,0,0-.06-.2l-1.14-.72a.15.15,0,0,0-.2,0l-.94,1.13c-.4-.21-.82-.4-1.24-.57l.26-1.44a.16.16,0,0,0-.11-.18l-1.28-.4a.16.16,0,0,0-.2.08l-.61,1.34a10.17,10.17,0,0,0-1.34-.24l-.13-1.46a.16.16,0,0,0-.15-.15l-1.34-.05a.15.15,0,0,0-.16.13L261,81.78c-.46,0-.91.06-1.36.12l-.5-1.37a.15.15,0,0,0-.18-.1l-1.31.29a.16.16,0,0,0-.13.17l.14,1.45a11.68,11.68,0,0,0-1.29.47l-.83-1.19a.16.16,0,0,0-.21-.05l-1.19.62a.16.16,0,0,0-.07.2l.5,1.36-.28.18c-.29.19-.57.4-.84.61l-1.11-.94a.15.15,0,0,0-.21,0l-1,.91a.15.15,0,0,0,0,.21l.84,1.18a12.24,12.24,0,0,0-.88,1l-1.32-.61a.15.15,0,0,0-.2.06l-.72,1.13a.16.16,0,0,0,0,.21l1.11.93c-.21.4-.4.82-.57,1.24L248,89.67a.15.15,0,0,0-.18.11l-.4,1.28a.15.15,0,0,0,.08.19l1.32.61a11.88,11.88,0,0,0-.23,1.35l-1.45.12a.15.15,0,0,0-.14.15L247,94.83a.15.15,0,0,0,.13.16l1.43.24c0,.46.06.92.12,1.37l-1.36.49a.17.17,0,0,0-.1.19l.29,1.31a.15.15,0,0,0,.17.12l1.45-.13a13.38,13.38,0,0,0,.47,1.29l-1.19.83a.15.15,0,0,0-.05.2l.62,1.19a.18.18,0,0,0,.2.08l1.36-.51c.21.33.43.66.67,1l.12.14-.93,1.12a.14.14,0,0,0,0,.2l.91,1a.17.17,0,0,0,.21,0l1.18-.84a12.56,12.56,0,0,0,1.06.87l-.62,1.32a.16.16,0,0,0,.06.2l1.14.72a.15.15,0,0,0,.2,0l.93-1.12a11.63,11.63,0,0,0,1.25.56l-.26,1.45a.16.16,0,0,0,.11.18l1.28.4a.15.15,0,0,0,.19-.09l.62-1.33a12.1,12.1,0,0,0,1.34.23l.12,1.46a.17.17,0,0,0,.16.15l1.34.06a.16.16,0,0,0,.16-.14l.25-1.44c.45,0,.91-.06,1.36-.12l.5,1.37a.16.16,0,0,0,.18.11l1.31-.3a.17.17,0,0,0,.13-.17l-.14-1.44c.44-.14.86-.3,1.29-.48l.83,1.19a.15.15,0,0,0,.2,0l1.19-.62a.16.16,0,0,0,.08-.19l-.51-1.37.29-.17c.29-.2.56-.4.83-.62l1.12.94a.15.15,0,0,0,.21,0l1-.91a.17.17,0,0,0,0-.2L271,103.6c.31-.34.61-.69.88-1l1.31.61a.16.16,0,0,0,.2,0l.72-1.14a.16.16,0,0,0,0-.21l-1.12-.92a11.78,11.78,0,0,0,.58-1.25l1.43.26a.17.17,0,0,0,.18-.11l.4-1.29a.16.16,0,0,0-.09-.19l-1.31-.6a12.69,12.69,0,0,0,.23-1.35l1.45-.13A.15.15,0,0,0,276,96l.06-1.34a.18.18,0,0,0-.13-.17l-1.43-.24a12.69,12.69,0,0,0-.13-1.37l1.37-.49a.18.18,0,0,0,.1-.19l-.3-1.31a.16.16,0,0,0-.17-.12l-1.44.13a12.31,12.31,0,0,0-.47-1.28l1.19-.83a.19.19,0,0,0,.05-.21l-.63-1.19A.15.15,0,0,0,273.88,87.35Zm-4.12.14a.3.3,0,0,1-.06.45l-2,1.41a8.27,8.27,0,0,0-10.28-1.69l-1.44-2a.3.3,0,0,1,.09-.44A11,11,0,0,1,269.76,87.49Zm-11.74,1a7.26,7.26,0,0,1,8.88,1.46l-2.51,1.79a.41.41,0,0,1-.49,0,3.91,3.91,0,0,0-3.66-.61.39.39,0,0,1-.46-.15Zm7.15,5a.39.39,0,0,1,.15-.46l2.52-1.8a7.25,7.25,0,0,1-1.47,9l-1.83-2.56a.4.4,0,0,1,0-.49A3.92,3.92,0,0,0,265.17,93.49Zm-10.93-7a.3.3,0,0,1,.45,0l1.45,2a8.25,8.25,0,0,0-1.77,10.27l-2,1.41a.32.32,0,0,1-.45-.1A11,11,0,0,1,254.24,86.51Zm10.82,14.62a7.24,7.24,0,0,1-8.95-1.55l2.52-1.79a.4.4,0,0,1,.49,0,3.87,3.87,0,0,0,3.65.61.43.43,0,0,1,.47.15ZM257.85,96a.39.39,0,0,1-.15.46l-2.51,1.79a7.26,7.26,0,0,1,1.53-8.86l1.76,2.47a.42.42,0,0,1,0,.49A3.87,3.87,0,0,0,257.85,96Zm-4.59,6a.31.31,0,0,1,.05-.45l2-1.41A8.27,8.27,0,0,0,265.65,102l1.37,1.93a.3.3,0,0,1-.09.44A11,11,0,0,1,253.26,102Zm9.11-5a2.51,2.51,0,0,1-2.43-.41,2.46,2.46,0,0,1,.71-4.21,2.46,2.46,0,0,1,1.72,4.62Zm6.41,5.94a.32.32,0,0,1-.46-.06L267,101a8.24,8.24,0,0,0,1.7-10.37l2-1.41a.32.32,0,0,1,.45.1A11,11,0,0,1,268.78,103Z"/><path class="cls-2" d="M263.62,163.72S207.69,149.55,154,149.55c-61,0-109.62,14.17-109.62,14.17V157S93.09,142.79,154,142.79c52.93,0,109.61,14.17,109.61,14.17Z"/><path class="cls-3" d="M176.77,147.52c-3.11-.32-6.13-.62-9-.89a15,15,0,0,1,.86,3.25q4.29.18,8.55.47A24.08,24.08,0,0,0,176.77,147.52Z"/><path class="cls-3" d="M239.7,164l-8.26-2.78c.08-.7.13-1.4.19-2.1-3.72-.65-7.69-1.32-11.86-2a65.67,65.67,0,0,1-1.35,9.14,1.85,1.85,0,0,1-2.39,1.33L202.16,163a48.67,48.67,0,0,0,1.07-8.16c-2-.24-4-.48-6-.7a42.12,42.12,0,0,1-.83,6.94l-17.53-5.85a2.46,2.46,0,0,1-1.68-2.41c0-.16,0-.32,0-.49q-4.2-.27-8.44-.47c0,.33,0,.67,0,1a14.77,14.77,0,0,1-22.93,11.45,15,15,0,0,1-6.61-12.51c-2.85.1-5.66.24-8.43.39a23.32,23.32,0,0,0,9.94,18.84,2.44,2.44,0,0,1,.91,2.79l-6,17.92a43.52,43.52,0,0,1-25.17-37.91c-2,.21-4,.42-6,.65a49.51,49.51,0,0,0,29.23,43L129.25,211a1.85,1.85,0,0,1-2.5,1.11,66.13,66.13,0,0,1-38.54-55.39c-7.94,1.22-15,2.51-21.06,3.73l.08,1.24a1,1,0,0,0,.89.89l8.74.55a77.67,77.67,0,0,0,1.63,8L70.58,175a1,1,0,0,0-.48,1.16l2.59,7.64a1,1,0,0,0,1.09.63l8.64-1.75A79.31,79.31,0,0,0,86,190l-6.64,5.78a1,1,0,0,0-.17,1.24l4.48,6.71a1,1,0,0,0,1.22.33l7.88-3.92a78.69,78.69,0,0,0,5.37,6.18l-4.9,7.28a1,1,0,0,0,.16,1.25l6.06,5.32a1,1,0,0,0,1.26,0l6.54-5.77a78.34,78.34,0,0,0,6.84,4.58l-2.84,8.24a1,1,0,0,0,.48,1.16L119,232a1,1,0,0,0,1.22-.33L125,224.4c.61.25,1.22.51,1.85.74,2,.73,4,1.35,5.93,1.91l-.6,8.7a.94.94,0,0,0,.76,1l7.91,1.58a.94.94,0,0,0,1.09-.63l2.78-8.25A78.23,78.23,0,0,0,153,230l1.66,8.54a1,1,0,0,0,1,.77l8.05-.52a1,1,0,0,0,.89-.89l.55-8.7a76.24,76.24,0,0,0,8.07-1.6l3.82,7.83a.94.94,0,0,0,1.16.48l7.64-2.58a1,1,0,0,0,.63-1.09l-1.72-8.55a77.54,77.54,0,0,0,7.38-3.62l5.72,6.56a.93.93,0,0,0,1.24.17l6.72-4.48a1,1,0,0,0,.32-1.21l-3.87-7.79a79.75,79.75,0,0,0,6.2-5.43l7.21,4.86a1,1,0,0,0,1.25-.16l5.32-6.06a1,1,0,0,0,0-1.26l-5.75-6.52A78.41,78.41,0,0,0,221,191.9l8.23,2.83a1,1,0,0,0,1.17-.48L234,187a1,1,0,0,0-.33-1.22L226.41,181c.87-2.18,1.67-4.4,2.35-6.7.11-.36.19-.72.3-1.09l8.7.61a1,1,0,0,0,1-.77l1.57-7.91A1,1,0,0,0,239.7,164Zm-88.94,12.86a2.44,2.44,0,0,1,2.4-1.68,23.31,23.31,0,0,0,19.9-9.94,2.46,2.46,0,0,1,2.79-.91l17.62,5.89a43.5,43.5,0,0,1-48.7,24.56Zm63.34,2.38a66.09,66.09,0,0,1-74.42,37.15,1.85,1.85,0,0,1-1.33-2.39l4.51-13.5a49.51,49.51,0,0,0,56.32-28.38L213,176.76A1.86,1.86,0,0,1,214.1,179.27Z"/><path class="cls-4" d="M238.76,159.81,235,158.54c-5-.9-10.4-1.83-16.22-2.73a62.18,62.18,0,0,1-1.06,6.27,1.83,1.83,0,0,1-2.37,1.32l-13.71-4.59a50.3,50.3,0,0,0,.85-5.25c-1.94-.24-3.91-.47-5.89-.69q-.22,2-.63,4L179,151.27c-3.53-.25-7.09-.46-10.66-.61a14.6,14.6,0,0,1-22.45,9.45,14.83,14.83,0,0,1-6.27-9.52q-4.26.16-8.4.39a23.05,23.05,0,0,0,9.63,15.78,2.41,2.41,0,0,1,.9,2.75l-5.92,17.73a43.05,43.05,0,0,1-24.7-34.67c-2,.2-4,.42-5.89.64A49,49,0,0,0,134,192.9l-4.46,13.34a1.82,1.82,0,0,1-2.47,1.1,65.35,65.35,0,0,1-37.85-52c-6.72,1-12.85,2.08-18.26,3.13l6.77.42a75.94,75.94,0,0,0,1.61,7.94l-7.82,3.82a1,1,0,0,0-.48,1.15l2.56,7.56a1,1,0,0,0,1.08.62l8.55-1.73a80,80,0,0,0,3.56,7.26l-6.57,5.72a.93.93,0,0,0-.16,1.23l4.42,6.64a1,1,0,0,0,1.21.32l7.79-3.87a78.88,78.88,0,0,0,5.32,6.11l-4.85,7.2a.94.94,0,0,0,.16,1.23l6,5.26a.93.93,0,0,0,1.25,0l6.46-5.7a76.72,76.72,0,0,0,6.77,4.53l-2.81,8.15a.94.94,0,0,0,.48,1.15l7.15,3.53a.94.94,0,0,0,1.2-.32l4.78-7.19c.61.25,1.21.5,1.83.73,1.94.72,3.9,1.33,5.86,1.89l-.59,8.61a.94.94,0,0,0,.75,1l7.83,1.56a.94.94,0,0,0,1.07-.63l2.75-8.16A74,74,0,0,0,153,225l1.65,8.45a.93.93,0,0,0,1,.76l8-.51a.94.94,0,0,0,.88-.88l.54-8.6a76.8,76.8,0,0,0,8-1.59l3.78,7.75a.94.94,0,0,0,1.14.48l7.56-2.56a.94.94,0,0,0,.62-1.08l-1.7-8.45a77.11,77.11,0,0,0,7.3-3.59l5.65,6.5a1,1,0,0,0,1.24.16l6.63-4.43a.93.93,0,0,0,.33-1.2l-3.83-7.7a79.83,79.83,0,0,0,6.13-5.37L215,208a.94.94,0,0,0,1.23-.16l5.27-6a.94.94,0,0,0,0-1.24l-5.69-6.45a78.89,78.89,0,0,0,4.52-6.77l8.14,2.8a.94.94,0,0,0,1.15-.48l3.54-7.15a.93.93,0,0,0-.33-1.2l-7.18-4.78c.86-2.15,1.65-4.35,2.33-6.62.1-.36.19-.72.29-1.07l8.6.59a.93.93,0,0,0,1-.75l1.56-7.83A.93.93,0,0,0,238.76,159.81Zm-88,12.71a2.42,2.42,0,0,1,2.38-1.66A23,23,0,0,0,172.85,161a2.43,2.43,0,0,1,2.76-.9L193,166a43,43,0,0,1-48.17,24.3Zm62.65,2.35a65.38,65.38,0,0,1-73.6,36.75,1.84,1.84,0,0,1-1.32-2.37L143,195.9a49,49,0,0,0,55.7-28.07l13.66,4.57A1.83,1.83,0,0,1,213.44,174.87Z"/><path class="cls-1" d="M139.66,150.59a14.83,14.83,0,0,0,6.27,9.52,14.44,14.44,0,0,0,8.06,2.47,14.63,14.63,0,0,0,14.39-11.92c3.57.15,7.13.36,10.66.61L196,156.92q.4-2,.63-4c2,.22,3.95.45,5.89.69a50.3,50.3,0,0,1-.85,5.25l13.71,4.59a2,2,0,0,0,.59.09,1.82,1.82,0,0,0,1.78-1.41,62.18,62.18,0,0,0,1.06-6.27c5.82.9,11.27,1.83,16.22,2.73l3.77,1.27a.93.93,0,0,1,.62,1.07l-1.56,7.83a1,1,0,0,1-.92.76h-.07l-8.6-.59c-.1.35-.19.71-.29,1.07-.68,2.27-1.47,4.47-2.33,6.62l7.18,4.78a.93.93,0,0,1,.33,1.2l-3.54,7.15a.94.94,0,0,1-.84.53,1.12,1.12,0,0,1-.31-.05l-8.14-2.8a78.89,78.89,0,0,1-4.52,6.77l5.69,6.45a.94.94,0,0,1,0,1.24l-5.27,6A.94.94,0,0,1,215,208l-7.13-4.81a79.83,79.83,0,0,1-6.13,5.37l3.83,7.7a.93.93,0,0,1-.33,1.2l-6.63,4.43a.91.91,0,0,1-.52.16,1,1,0,0,1-.72-.32l-5.65-6.5a77.11,77.11,0,0,1-7.3,3.59l1.7,8.45a.94.94,0,0,1-.62,1.08l-7.56,2.56a1,1,0,0,1-.3,0,.94.94,0,0,1-.84-.53L173,222.67a76.8,76.8,0,0,1-8,1.59l-.54,8.6a.94.94,0,0,1-.88.88l-8,.51h-.06a.92.92,0,0,1-.92-.76L153,225a74,74,0,0,1-8.12-.54l-2.75,8.16a.94.94,0,0,1-.89.65l-.18,0-7.83-1.56a.94.94,0,0,1-.75-1l.59-8.61c-2-.56-3.92-1.17-5.86-1.89-.62-.23-1.22-.48-1.83-.73l-4.78,7.19a.94.94,0,0,1-.78.42.9.9,0,0,1-.42-.1l-7.15-3.53a.94.94,0,0,1-.48-1.15l2.81-8.15a76.72,76.72,0,0,1-6.77-4.53l-6.46,5.7a.93.93,0,0,1-1.25,0l-6-5.26a.94.94,0,0,1-.16-1.23l4.85-7.2a78.88,78.88,0,0,1-5.32-6.11l-7.79,3.87a.92.92,0,0,1-.42.1,1,1,0,0,1-.79-.42L80,192.47a.93.93,0,0,1,.16-1.23l6.57-5.72a80,80,0,0,1-3.56-7.26L74.66,180l-.19,0a1,1,0,0,1-.89-.64L71,171.81a1,1,0,0,1,.48-1.15l7.82-3.82a75.94,75.94,0,0,1-1.61-7.94l-6.77-.42c5.41-1,11.54-2.12,18.26-3.13a65.35,65.35,0,0,0,37.85,52,1.75,1.75,0,0,0,.73.16,1.85,1.85,0,0,0,1.74-1.26L134,192.9a49,49,0,0,1-28.7-39.69c1.93-.22,3.89-.44,5.89-.64a43.05,43.05,0,0,0,24.7,34.67l5.92-17.73a2.41,2.41,0,0,0-.9-2.75A23.05,23.05,0,0,1,131.26,151q4.14-.22,8.4-.39M154,170.87h-.91a2.43,2.43,0,0,0-2.29,1.66l-5.92,17.73A43,43,0,0,0,193,166l-17.43-5.82a2.36,2.36,0,0,0-.78-.13,2.42,2.42,0,0,0-2,1A23,23,0,0,1,154,170.87m-.14,26.27A48.15,48.15,0,0,1,143,195.9l-4.46,13.35a1.84,1.84,0,0,0,1.32,2.37,65.3,65.3,0,0,0,73.6-36.75,1.83,1.83,0,0,0-1.1-2.47l-13.66-4.57a49,49,0,0,1-44.83,29.31m-14.19-47.3h0c-2.76.1-5.59.23-8.41.39a.77.77,0,0,0-.54.27.75.75,0,0,0-.16.58,23.81,23.81,0,0,0,9.94,16.29,1.68,1.68,0,0,1,.62,1.9l-5.66,16.93a42.41,42.41,0,0,1-23.5-33.71.76.76,0,0,0-.75-.67h-.08c-2,.2-3.93.42-5.9.64a.76.76,0,0,0-.66.83,49.8,49.8,0,0,0,28.52,40L128.81,206a1.11,1.11,0,0,1-1,.75,1,1,0,0,1-.42-.09,64.86,64.86,0,0,1-37.42-51.4.74.74,0,0,0-.74-.66h-.11c-6.14.93-12.29,2-18.29,3.14a.75.75,0,0,0,.1,1.48l6.16.39c.35,2.23.81,4.52,1.38,6.83L71.17,170a1.7,1.7,0,0,0-.86,2.06l2.56,7.56a1.71,1.71,0,0,0,1.6,1.15,2,2,0,0,0,.34,0l8-1.6c1,2.17,2,4.27,3.06,6.24l-6.11,5.31a1.7,1.7,0,0,0-.3,2.22l4.43,6.64a1.7,1.7,0,0,0,1.41.75,1.63,1.63,0,0,0,.75-.18l7.25-3.6c1.45,1.82,3,3.58,4.57,5.25l-4.51,6.7a1.69,1.69,0,0,0,.28,2.21l6,5.27a1.71,1.71,0,0,0,1.12.42,1.63,1.63,0,0,0,1.11-.43l6-5.29c1.82,1.34,3.77,2.64,5.82,3.89L111,222.09a1.7,1.7,0,0,0,.85,2.07l7.16,3.53a1.63,1.63,0,0,0,.75.18,1.69,1.69,0,0,0,1.41-.76l4.43-6.67h0c.42.17.85.35,1.28.51,1.62.6,3.33,1.15,5.33,1.73l-.55,8a1.68,1.68,0,0,0,1.35,1.77l7.83,1.56a1.24,1.24,0,0,0,.33,0,1.69,1.69,0,0,0,1.6-1.16l2.56-7.59c2.31.26,4.66.42,7,.47l1.53,7.86a1.69,1.69,0,0,0,1.66,1.36h.11l8-.52a1.68,1.68,0,0,0,1.58-1.58l.5-8c2.32-.35,4.62-.81,6.87-1.36l3.51,7.2a1.71,1.71,0,0,0,1.52.95,1.61,1.61,0,0,0,.54-.09l7.56-2.56a1.71,1.71,0,0,0,1.12-1.94l-1.59-7.85c2.17-.95,4.28-2,6.29-3.09l5.25,6a1.69,1.69,0,0,0,1.28.58,1.72,1.72,0,0,0,.93-.28l6.64-4.43a1.7,1.7,0,0,0,.58-2.16l-3.56-7.16q2.7-2.16,5.27-4.62l6.63,4.47a1.69,1.69,0,0,0,2.22-.29l5.26-6a1.7,1.7,0,0,0,0-2.24l-5.29-6c1.37-1.87,2.68-3.82,3.89-5.83l7.57,2.61a1.71,1.71,0,0,0,.55.09,1.68,1.68,0,0,0,1.52-.95l3.53-7.15a1.7,1.7,0,0,0-.58-2.16l-6.68-4.43c.84-2.16,1.54-4.16,2.13-6.12.05-.17.09-.34.13-.5l8,.55h.12a1.71,1.71,0,0,0,1.66-1.37l1.56-7.82A1.7,1.7,0,0,0,239,159.1l-3.77-1.27-.1,0c-5.41-1-10.87-1.9-16.25-2.73h-.11a.75.75,0,0,0-.45.16.72.72,0,0,0-.29.5c-.27,2.2-.61,4.23-1.05,6.2a1.08,1.08,0,0,1-1,.82,1,1,0,0,1-.35-.06l-13.08-4.37a46.17,46.17,0,0,0,.72-4.67.73.73,0,0,0-.65-.82c-1.91-.24-3.89-.47-5.9-.69h-.08a.73.73,0,0,0-.47.17.75.75,0,0,0-.28.51c-.11,1-.27,2.11-.46,3.14l-16.1-5.38-.18,0c-3.6-.25-7.2-.46-10.69-.61h0a.75.75,0,0,0-.74.61,13.81,13.81,0,0,1-21.29,9,14.08,14.08,0,0,1-6-9,.76.76,0,0,0-.73-.61ZM154,171.62a23.75,23.75,0,0,0,19.48-10.16,1.67,1.67,0,0,1,1.36-.71,1.61,1.61,0,0,1,.54.09L192,166.4a42.28,42.28,0,0,1-38.14,24.06,41.5,41.5,0,0,1-8-.78l5.65-16.92a1.67,1.67,0,0,1,1.58-1.15H154Zm-.14,26.27a49.65,49.65,0,0,0,45.24-29.13l13,4.35a1.15,1.15,0,0,1,.66.6,1,1,0,0,1,0,.85A64.65,64.65,0,0,1,154,212.42a63.74,63.74,0,0,1-14-1.54,1,1,0,0,1-.68-.51,1.13,1.13,0,0,1-.09-.88l4.25-12.71a49,49,0,0,0,10.37,1.11Z"/><path class="cls-5" d="M263.62,161.88S207.69,147.71,154,147.71c-61,0-109.62,14.17-109.62,14.17v-6.76S93.09,141,154,141c52.93,0,109.61,14.17,109.61,14.17Z"/><path class="cls-1" d="M154,141c52.93,0,109.61,14.17,109.61,14.17v6.76S207.69,147.71,154,147.71c-61,0-109.62,14.17-109.62,14.17v-6.76S93.09,141,154,141m0-.75c-60.33,0-109.34,14.06-109.83,14.2l-.54.16v8.32l1-.28c.49-.14,49.18-14.14,109.41-14.14,53,0,108.87,14,109.43,14.15l.93.24v-8.31l-.56-.14c-.57-.15-57.38-14.2-109.8-14.2Z"/><rect class="cls-2" x="109.88" y="61.94" width="88.25" height="38.5" rx="6.38" ry="6.38"/><path class="cls-1" d="M191.76,61.94a6.39,6.39,0,0,1,6.37,6.37V94.06a6.4,6.4,0,0,1-6.37,6.38h-75.5a6.4,6.4,0,0,1-6.38-6.38V68.31a6.4,6.4,0,0,1,6.38-6.37h75.5m0-1h-75.5a7.39,7.39,0,0,0-7.38,7.37V94.06a7.39,7.39,0,0,0,7.38,7.38h75.5a7.39,7.39,0,0,0,7.37-7.38V68.31a7.38,7.38,0,0,0-7.37-7.37Z"/><path class="cls-2" d="M196.53,90.56c0,3.51-1.75,6.38-3.89,6.38H114.92c-2.14,0-3.89-2.87-3.89-6.38"/><path class="cls-5" d="M196.53,90.56A8,8,0,0,1,194.7,96a3.27,3.27,0,0,1-1.23.83A4.4,4.4,0,0,1,192,97l-2.94,0-11.76,0-23.51.08-23.52-.08-11.76,0-2.94,0a4.4,4.4,0,0,1-1.48-.16,3.43,3.43,0,0,1-1.23-.83A8,8,0,0,1,111,90.56,7.94,7.94,0,0,0,112.94,96a3.12,3.12,0,0,0,1.19.78,4.27,4.27,0,0,0,1.43.12l2.94,0,11.76,0,23.52-.08,23.51.08,11.76,0,2.94,0a4.22,4.22,0,0,0,1.43-.12,3.08,3.08,0,0,0,1.2-.78A7.94,7.94,0,0,0,196.53,90.56Z"/><path class="cls-2" d="M111,71.81c0-3.5,1.75-6.37,3.89-6.37h77.72c2.14,0,3.89,2.87,3.89,6.37"/><path class="cls-5" d="M111,71.81a8,8,0,0,1,1.82-5.47,3.43,3.43,0,0,1,1.23-.83,4.4,4.4,0,0,1,1.48-.16l2.94,0,11.76,0,23.52-.08,23.51.08,11.76,0,2.94,0a4.4,4.4,0,0,1,1.48.16,3.39,3.39,0,0,1,1.24.83,8,8,0,0,1,1.82,5.47,7.93,7.93,0,0,0-1.91-5.38,3.08,3.08,0,0,0-1.2-.78,4.22,4.22,0,0,0-1.43-.12l-2.94,0-11.76,0-23.51.08-23.52-.08-11.76,0-2.94,0a4.27,4.27,0,0,0-1.43.12,3.12,3.12,0,0,0-1.19.78A7.93,7.93,0,0,0,111,71.81Z"/><path class="cls-5" d="M140.53,77.1l-4,2.21v-4.5h12.19v4.5l-4-2.21V91.42h-4.21Z"/><path class="cls-5" d="M150,91.42V72.79l4.09-.75v6.8l.38-.18.42-.21.69-.31a3.81,3.81,0,0,1,.56-.2c.17,0,.34-.08.49-.11a4.12,4.12,0,0,1,.51,0,2.71,2.71,0,0,1,2.45,1.26,6.32,6.32,0,0,1,.85,3.52v8.84h-4.08V83.25c0-.54,0-1,0-1.27a1.48,1.48,0,0,0-.23-.7.88.88,0,0,0-.5-.3,6,6,0,0,0-.84-.12,1.82,1.82,0,0,0-.33,0l-.32,0V91.42Z"/><path class="cls-5" d="M169.63,88.68a7.57,7.57,0,0,0,.81,0,11.14,11.14,0,0,0,1.1-.19l.34-.07.31,2.25-.73.19-1.27.35a14.31,14.31,0,0,1-1.67.37,9.76,9.76,0,0,1-1.32.09,4.61,4.61,0,0,1-3.75-1.78,6.32,6.32,0,0,1-1.06-2,9,9,0,0,1-.36-2.62,10.5,10.5,0,0,1,.4-3,6.87,6.87,0,0,1,1.14-2.35,5.38,5.38,0,0,1,1.79-1.51,5.17,5.17,0,0,1,2.35-.53,4.79,4.79,0,0,1,1.87.36,3.81,3.81,0,0,1,1.48,1.1c.22.27.42.52.59.77a3.26,3.26,0,0,1,.4.84,6.17,6.17,0,0,1,.22,1.12,13.87,13.87,0,0,1,.07,1.57v.81l-6.19.74a4.46,4.46,0,0,0,1.1,2.67A3.38,3.38,0,0,0,169.63,88.68Zm-1.25-6.33a9.79,9.79,0,0,0-.06-1.21,2.32,2.32,0,0,0-.19-.73.71.71,0,0,0-.31-.36,1.06,1.06,0,0,0-.45-.09,1,1,0,0,0-.92.61,5.62,5.62,0,0,0-.34,2.38v.1l2.27-.35Z"/><path class="cls-1" d="M138.77,75.17l-4.41,2.2v-4.5H147.8v4.5l-4.39-2.2V89.49h-4.64Z"/><path class="cls-2" d="M147.8,72.87v4.5l-4.39-2.2V89.49h-4.64V75.17l-4.41,2.2v-4.5H147.8m.75-.75H133.61v6.47L134.7,78,138,76.38V90.24h6.14V76.38l3.3,1.66,1.09.55V72.12Z"/><path class="cls-1" d="M149.17,89.49V70.85l4.5-.74v6.8l.42-.19.46-.21.77-.31a6.16,6.16,0,0,1,.61-.2c.2,0,.38-.08.55-.1a4.58,4.58,0,0,1,.55,0,3.11,3.11,0,0,1,2.71,1.27,5.91,5.91,0,0,1,.94,3.52v8.84h-4.5V81.32a10.61,10.61,0,0,0-.06-1.28,1.3,1.3,0,0,0-.26-.69.92.92,0,0,0-.54-.31c-.24,0-.54-.08-.93-.11a1.09,1.09,0,0,0-.36,0l-.36,0V89.49Z"/><path class="cls-2" d="M153.67,70.11v6.8l.42-.19.46-.21.77-.31a6.16,6.16,0,0,1,.61-.2c.2,0,.38-.08.55-.1a4.58,4.58,0,0,1,.55,0h.07a3.09,3.09,0,0,1,2.64,1.27,5.91,5.91,0,0,1,.94,3.52v8.84h-4.5V81.32a10.61,10.61,0,0,0-.06-1.28,1.3,1.3,0,0,0-.26-.69.92.92,0,0,0-.54-.31c-.24,0-.54-.08-.93-.11H154l-.36,0V89.49h-4.5V70.85l4.5-.74m.75-.89-.87.15-4.5.74-.63.1v20h6V79.68a6.29,6.29,0,0,1,.75.1.23.23,0,0,1,.12,0,.74.74,0,0,1,.08.3,9.22,9.22,0,0,1,.06,1.19v8.92h6V80.65a6.57,6.57,0,0,0-1.09-4,3.78,3.78,0,0,0-3.24-1.58H157a4.37,4.37,0,0,0-.64,0,5.07,5.07,0,0,0-.62.11,7.33,7.33,0,0,0-.72.23l-.62.26V69.22Z"/><path class="cls-1" d="M170.84,86.75c.3,0,.6,0,.9,0s.7-.09,1.21-.18l.38-.07.34,2.25-.81.18-1.39.35a15,15,0,0,1-1.85.37,10.1,10.1,0,0,1-1.45.1,5.72,5.72,0,0,1-2.34-.47,5.13,5.13,0,0,1-1.8-1.32,6,6,0,0,1-1.16-2,8.11,8.11,0,0,1-.41-2.63,9.52,9.52,0,0,1,.45-3,6.75,6.75,0,0,1,1.26-2.34,5.68,5.68,0,0,1,2-1.51,6,6,0,0,1,2.59-.54,5.85,5.85,0,0,1,2.07.36,4.12,4.12,0,0,1,1.62,1.11,7.14,7.14,0,0,1,.65.76,3,3,0,0,1,.44.85,6.09,6.09,0,0,1,.25,1.11,13.72,13.72,0,0,1,.08,1.57v.81l-6.83.75a4.28,4.28,0,0,0,1.21,2.66A3.89,3.89,0,0,0,170.84,86.75Zm-1.37-6.34a7.89,7.89,0,0,0-.07-1.2,2,2,0,0,0-.21-.73.71.71,0,0,0-.34-.36,1.07,1.07,0,0,0-.49-.1,1.1,1.1,0,0,0-1,.62A5.19,5.19,0,0,0,167,81v.09l2.5-.35Z"/><path class="cls-2" d="M168.73,75.86a5.85,5.85,0,0,1,2.07.36,4.12,4.12,0,0,1,1.62,1.11,7.14,7.14,0,0,1,.65.76,3,3,0,0,1,.44.85,6.09,6.09,0,0,1,.25,1.11,13.72,13.72,0,0,1,.08,1.57v.81l-6.83.75a4.28,4.28,0,0,0,1.21,2.66,3.89,3.89,0,0,0,2.62.91c.3,0,.6,0,.9,0s.7-.09,1.21-.18l.38-.07.34,2.25-.81.18-1.39.35a15,15,0,0,1-1.85.37,10.1,10.1,0,0,1-1.45.1,5.72,5.72,0,0,1-2.34-.47,5.13,5.13,0,0,1-1.8-1.32,6,6,0,0,1-1.16-2,8.11,8.11,0,0,1-.41-2.63,9.52,9.52,0,0,1,.45-3,6.75,6.75,0,0,1,1.26-2.34,5.68,5.68,0,0,1,2-1.51,6,6,0,0,1,2.59-.54M167,81.11l2.5-.35v-.35a7.89,7.89,0,0,0-.07-1.2,2,2,0,0,0-.21-.73.71.71,0,0,0-.34-.36,1.07,1.07,0,0,0-.49-.1h-.05a1.09,1.09,0,0,0-1,.62A5.19,5.19,0,0,0,167,81v.09m1.76-6a6.84,6.84,0,0,0-2.9.61,6.32,6.32,0,0,0-2.23,1.7,7.75,7.75,0,0,0-1.41,2.6,10.45,10.45,0,0,0-.48,3.22,9,9,0,0,0,.45,2.87,6.63,6.63,0,0,0,1.31,2.29,5.73,5.73,0,0,0,2.06,1.52,6.48,6.48,0,0,0,2.64.53,13.59,13.59,0,0,0,1.55-.1,18.27,18.27,0,0,0,1.93-.39l1.39-.35.8-.18.68-.16-.1-.69-.35-2.25-.12-.76-.76.14-.37.07c-.48.09-.88.15-1.16.18s-.55,0-.82,0a3.23,3.23,0,0,1-2.12-.71,3.06,3.06,0,0,1-.81-1.46l6-.65.67-.08V81.62A13.15,13.15,0,0,0,174.5,80a6,6,0,0,0-.28-1.26,3.81,3.81,0,0,0-.55-1.06c-.2-.26-.43-.54-.7-.83a4.87,4.87,0,0,0-1.91-1.29,6.56,6.56,0,0,0-2.33-.41Zm-1,5.14A2.75,2.75,0,0,1,168,79c.14-.25.25-.25.32-.25a.69.69,0,0,1,.2,0l0,0a1.56,1.56,0,0,1,.13.5,7.12,7.12,0,0,1,.06.79l-1,.14Z"/><polygon class="cls-5" points="118.8 69.64 118.57 69.26 116.46 69.3 115.45 71.15 115.68 71.54 118.8 69.64"/><polygon class="cls-5" points="119.66 71.06 119.43 70.67 116.31 72.57 116.54 72.95 118.65 72.91 119.66 71.06"/><polygon class="cls-5" points="190.51 90.19 190.07 90.09 188.63 91.63 189.25 93.65 189.69 93.75 190.51 90.19"/><polygon class="cls-5" points="192.12 90.57 191.68 90.46 190.86 94.02 191.3 94.12 192.74 92.58 192.12 90.57"/><polygon class="cls-5" points="188.98 69.11 188.6 69.37 188.78 71.47 190.68 72.37 191.06 72.12 188.98 69.11"/><polygon class="cls-5" points="190.34 68.17 189.97 68.43 192.04 71.43 192.42 71.17 192.24 69.07 190.34 68.17"/><polygon class="cls-5" points="115.59 91.14 115.22 91.39 115.39 93.49 117.3 94.39 117.67 94.14 115.59 91.14"/><polygon class="cls-5" points="116.95 90.19 116.58 90.45 118.66 93.45 119.03 93.19 118.86 91.09 116.95 90.19"/><path class="cls-2" d="M49.2,141.48l.93.23c.88.16,1.63.28,2.27.35s1.3.1,2,.11a8.62,8.62,0,0,0,1.91-.2,3.66,3.66,0,0,0,1-.42,3.13,3.13,0,0,0,.8-.68,2.54,2.54,0,0,0,.47-.87,1.57,1.57,0,0,0,0-1,5,5,0,0,0-.21-.65,1.35,1.35,0,0,0-.4-.48,4.46,4.46,0,0,0-.83-.48c-.37-.17-.88-.37-1.52-.61l-3.28-1.27a19.61,19.61,0,0,1-2.27-1.06,8,8,0,0,1-1.63-1.2,6.09,6.09,0,0,1-1.13-1.46,7.18,7.18,0,0,1-.68-1.83,7.66,7.66,0,0,1-.15-3,7.08,7.08,0,0,1,1-2.65,7.37,7.37,0,0,1,2-2.07A7.87,7.87,0,0,1,52.15,121a17.92,17.92,0,0,1,3.25-.39c1.33-.05,2.76-.06,4.31,0h.42l.93,3.83-.81-.15c-.8-.11-1.48-.19-2-.24S57,124,56.4,124a7.13,7.13,0,0,0-1.64.17,3,3,0,0,0-1.7,1.06,2,2,0,0,0-.37,1.82,3.59,3.59,0,0,0,.23.66,1.35,1.35,0,0,0,.42.48,4,4,0,0,0,.77.44c.33.15.76.33,1.3.53l3.81,1.42a15.12,15.12,0,0,1,2.08.94,8,8,0,0,1,1.55,1.13,5.44,5.44,0,0,1,1.08,1.44,8.28,8.28,0,0,1,.68,1.86,7.45,7.45,0,0,1,.11,3.11,7.57,7.57,0,0,1-1.1,2.78A7.8,7.8,0,0,1,61.51,144a8.81,8.81,0,0,1-3,1.31,18.56,18.56,0,0,1-3,.44,32.16,32.16,0,0,1-4.18,0l-1.17-.07Z"/><path class="cls-2" d="M74.84,136.28a1,1,0,0,0,.43.55,1.64,1.64,0,0,0,.79.15,12.74,12.74,0,0,0,1.34-.14,2.89,2.89,0,0,0,.48-.07l.58-.2.59-.19.6,3.14c-.54.29-.88.46-1,.51l-1.29.63v0l-1.12.5c-.29.12-.56.23-.8.31l-.69.22c-.21.06-.46.12-.72.17a4.25,4.25,0,0,1-5.59-3.63L66.26,127l-1.87.36-.61-3.14,4.67-5.75,2.77-.54.76,3.94,4.11-.79.75,3.87-4.11.8,1.82,9.41A7.1,7.1,0,0,0,74.84,136.28Z"/><path class="cls-2" d="M92.08,134.49c.42-.07.85-.15,1.28-.26s1-.29,1.73-.54l.52-.18,1,3.19-1.13.45-2,.8a25,25,0,0,1-2.59.94,19.32,19.32,0,0,1-2.08.45,8.47,8.47,0,0,1-3.5-.17,7.61,7.61,0,0,1-2.89-1.53,8.73,8.73,0,0,1-2.12-2.71,11.62,11.62,0,0,1-1.16-3.71,14.31,14.31,0,0,1,0-4.43,9.92,9.92,0,0,1,1.33-3.67A8.55,8.55,0,0,1,83,120.5a9,9,0,0,1,3.64-1.33,8.51,8.51,0,0,1,3.07.08,6.06,6.06,0,0,1,2.59,1.24c.41.33.78.65,1.11,1a4.62,4.62,0,0,1,.82,1.14,8.38,8.38,0,0,1,.59,1.56,17.57,17.57,0,0,1,.46,2.25l.17,1.18-9.72,2.55a6.21,6.21,0,0,0,2.32,3.6A5.79,5.79,0,0,0,92.08,134.49Zm-3.35-8.89a12,12,0,0,0-.37-1.73,3.08,3.08,0,0,0-.46-1,1.07,1.07,0,0,0-.58-.45,1.71,1.71,0,0,0-.72,0,1.58,1.58,0,0,0-1.35,1.11,7.61,7.61,0,0,0,0,3.53l0,.13,3.56-1Z"/><path class="cls-2" d="M98.51,122.26l-.46-2.86,1.2-.63v0c.59-.24,1.14-.45,1.63-.63s.94-.34,1.33-.49a18.36,18.36,0,0,1,2.11-.63,15.63,15.63,0,0,1,1.93-.33,6.59,6.59,0,0,1,4.29.82v0a3.68,3.68,0,0,1,1.41,1.55,7.68,7.68,0,0,1,.61,2.49L114,136l-6.16.63-.11-1.08a4.88,4.88,0,0,0-.74.42h0a12.36,12.36,0,0,1-1.73,1,5.12,5.12,0,0,1-1.55.4,4.84,4.84,0,0,1-2.16-.24,5.1,5.1,0,0,1-1.79-1.1,6.51,6.51,0,0,1-1.93-4,7.83,7.83,0,0,1,.14-2.61,6.21,6.21,0,0,1,1-2.3,6.64,6.64,0,0,1,2-1.77,8.45,8.45,0,0,1,2.93-1.05h0l2.64-.55-.18-1.75a1.9,1.9,0,0,0-.72-1.57,2.58,2.58,0,0,0-1.48-.29,7.43,7.43,0,0,0-1.57.36c-.58.2-1.11.41-1.6.63s-1.08.5-1.77.85Zm7.75,4.81a2.74,2.74,0,0,0-1.8,1.45,4.12,4.12,0,0,0-.33,2.15,2.34,2.34,0,0,0,.76,1.62,2.79,2.79,0,0,0,1.84.41l.37,0a1,1,0,0,0,.33-.1l-.58-5.69Z"/><path class="cls-2" d="M115.68,116.32l6.54-1.31.09,1.87a24.29,24.29,0,0,1,2.79-1.36,7,7,0,0,1,2.16-.49,4.29,4.29,0,0,1,2,.31,6.29,6.29,0,0,1,1.84,1.31,14.17,14.17,0,0,1,5.95-2.1,6,6,0,0,1,2.13.25,5.28,5.28,0,0,1,1.82,1,4.93,4.93,0,0,1,1.48,2.14,12,12,0,0,1,.56,3.31l.64,13-6.59.33-.59-12a10.87,10.87,0,0,0-.21-1.74,2.17,2.17,0,0,0-.47-1,1.71,1.71,0,0,0-.89-.45,10,10,0,0,0-1.42-.13,2.49,2.49,0,0,0-.48,0,2.63,2.63,0,0,0-.43.1,8.91,8.91,0,0,1,.16,1.36l.7,14-6.59.33-.59-11.89a13.42,13.42,0,0,0-.19-1.83,2.11,2.11,0,0,0-.44-1,1.43,1.43,0,0,0-.84-.44,11.08,11.08,0,0,0-1.39-.12,2.15,2.15,0,0,0-.54,0l-.44.09.76,15.35-6.58.33Z"/><path class="cls-2" d="M156.49,134.07l8-24.18,7.21.16,6.42,24.48-7.38-.15L169,125.9l-5-.1-2.15,8.39Zm11.73-11.34c-.1-.46-.24-1.06-.4-1.82s-.33-1.49-.5-2.23S167,117,166.73,116l-1.84,6.7Z"/><path class="cls-2" d="M186.45,135.08l-6.59-.39L181,115.48l6.64-.59-.12,2,.75-.57a6.94,6.94,0,0,1,1.7-.82,4.75,4.75,0,0,1,1.63-.11,6.14,6.14,0,0,1,.86.12,4,4,0,0,1,.88.33l.33.16-.37,6.31-6-2.44Z"/><path class="cls-2" d="M202.52,131.26a1,1,0,0,0,.26.66,1.61,1.61,0,0,0,.72.35,11.09,11.09,0,0,0,1.33.25l.47.06.62,0h.61l-.29,3.18c-.6.12-1,.19-1.11.2l-1.42.25v0c-.49.07-.89.13-1.21.16s-.61.07-.86.08l-.72,0a6.75,6.75,0,0,1-.75,0,4.24,4.24,0,0,1-4.35-5l1.05-11.44-1.9-.18.29-3.18,6.09-4.22,2.81.26-.37,4L208,117l-.36,3.93-4.17-.38-.87,9.55A7.15,7.15,0,0,0,202.52,131.26Z"/><path class="cls-2" d="M211.3,117.82l6.66-.08-2.43,20L209,137Zm7.48-3.75a2.46,2.46,0,0,1-1.19,2.15,4,4,0,0,1-2.81.34,4.54,4.54,0,0,1-2.81-1,3.17,3.17,0,0,1,.49-4.49,4.27,4.27,0,0,1,2.82-.35,4.62,4.62,0,0,1,2.81,1A2.34,2.34,0,0,1,218.78,114.07Z"/><path class="cls-2" d="M219.13,133.39l.67.55a15.32,15.32,0,0,0,1.68,1.05,17,17,0,0,0,1.54.74,5.91,5.91,0,0,0,1.52.46,3.78,3.78,0,0,0,1,0,2.93,2.93,0,0,0,.86-.21,2,2,0,0,0,.63-.42.91.91,0,0,0,.26-.59,2.41,2.41,0,0,0,0-.57,1.21,1.21,0,0,0-.21-.53,4.67,4.67,0,0,0-.61-.73c-.28-.28-.67-.66-1.17-1.13l-1.95-1.81a13.32,13.32,0,0,1-1.45-1.52,7.33,7.33,0,0,1-.9-1.43,4.65,4.65,0,0,1-.39-1.46,6.41,6.41,0,0,1,.06-1.62,6.15,6.15,0,0,1,.86-2.33,5.57,5.57,0,0,1,1.64-1.64,5.89,5.89,0,0,1,2.24-.83,8.28,8.28,0,0,1,2.72,0l1,.17a11.55,11.55,0,0,1,1.13.28c.42.12.89.27,1.43.45s1.15.39,1.84.66l1.17.46-.49,3.36-.69-.42q-1-.53-1.65-.84c-.46-.21-1-.41-1.48-.62a6.46,6.46,0,0,0-1.43-.41,2.37,2.37,0,0,0-1.41.17,1.17,1.17,0,0,0-.7,1,3.61,3.61,0,0,0-.05.52.88.88,0,0,0,.14.45,2.71,2.71,0,0,0,.45.54c.21.2.51.49.92.85v0l2,1.8a17.16,17.16,0,0,1,1.6,1.62,6.47,6.47,0,0,1,1,1.5,4.61,4.61,0,0,1,.43,1.53,6.48,6.48,0,0,1-.05,1.69,6.58,6.58,0,0,1-.93,2.52,5.86,5.86,0,0,1-1.76,1.81,6.36,6.36,0,0,1-2.4,1,8.3,8.3,0,0,1-2.86,0,17.19,17.19,0,0,1-2.87-.77c-1.16-.4-2.37-.87-3.64-1.41l-.39-.16Z"/><path class="cls-2" d="M242.55,137.08a.91.91,0,0,0,.2.68,1.58,1.58,0,0,0,.67.43,10.43,10.43,0,0,0,1.3.38,2.41,2.41,0,0,0,.46.1c.14,0,.34,0,.62,0l.61,0-.61,3.14c-.62.06-1,.09-1.13.09l-1.44.1v0l-1.22,0c-.33,0-.62,0-.87,0l-.71,0c-.23,0-.48-.06-.75-.11a4.61,4.61,0,0,1-3.24-1.83,4.66,4.66,0,0,1-.57-3.63l2.21-11.28-1.87-.36.62-3.14,6.48-3.58,2.77.54-.77,3.94,4.1.8-.75,3.88-4.11-.81-1.84,9.41A7.42,7.42,0,0,0,242.55,137.08Z"/><path class="cls-2" d="M247.4,138.3l.62.6a18.62,18.62,0,0,0,1.58,1.19c.46.3,1,.58,1.47.86a6.47,6.47,0,0,0,1.49.59,3.71,3.71,0,0,0,.94.1,2.74,2.74,0,0,0,.87-.14,1.61,1.61,0,0,0,.66-.36.87.87,0,0,0,.32-.57,2.67,2.67,0,0,0,.08-.56,1.11,1.11,0,0,0-.17-.54,4.27,4.27,0,0,0-.54-.78c-.25-.31-.61-.72-1.07-1.22l-1.8-2a13.51,13.51,0,0,1-1.32-1.63,6.68,6.68,0,0,1-.77-1.5,4.72,4.72,0,0,1-.27-1.48,6.27,6.27,0,0,1,.2-1.61,6,6,0,0,1,1.05-2.25,5.36,5.36,0,0,1,1.76-1.5,6.08,6.08,0,0,1,2.31-.65,8.44,8.44,0,0,1,2.7.24l1,.25c.33.1.7.22,1.1.38s.87.34,1.39.56,1.11.49,1.78.81l1.12.56-.76,3.31-.66-.47c-.6-.41-1.12-.73-1.57-1s-.91-.49-1.42-.75a7.52,7.52,0,0,0-1.4-.53,2.4,2.4,0,0,0-1.41.06,1.15,1.15,0,0,0-.78.92,3,3,0,0,0-.09.52.79.79,0,0,0,.1.46,2.51,2.51,0,0,0,.4.57c.19.22.47.53.84.92v0l1.87,2a17.75,17.75,0,0,1,1.46,1.75,6.87,6.87,0,0,1,.86,1.58,5,5,0,0,1,.31,1.56,6.8,6.8,0,0,1-.2,1.68,6.44,6.44,0,0,1-1.13,2.44,5.9,5.9,0,0,1-1.91,1.65,6.31,6.31,0,0,1-2.47.75,8.24,8.24,0,0,1-2.85-.22,16.64,16.64,0,0,1-2.8-1c-1.12-.49-2.29-1.06-3.51-1.7l-.37-.2Z"/><path class="cls-5" d="M74.67,134.11a1,1,0,0,0,.44.56,1.6,1.6,0,0,0,.79.14,10.69,10.69,0,0,0,1.34-.14,2,2,0,0,0,.47-.07c.13,0,.33-.1.58-.2l.59-.18.61,3.13c-.55.29-.88.46-1,.51l-1.3.63v0l-1.12.49c-.3.13-.57.23-.81.31l-.68.22c-.22.06-.46.12-.73.17a4.55,4.55,0,0,1-3.69-.48,4.62,4.62,0,0,1-1.89-3.15l-2.18-11.28-1.87.36L63.61,122l4.68-5.75,2.77-.53.76,3.94,4.1-.8.75,3.88-4.11.79L74.38,133A8.36,8.36,0,0,0,74.67,134.11Z"/><path class="cls-1" d="M71.06,115.75l.76,3.94,4.1-.8.75,3.88-4.11.79L74.38,133a8.36,8.36,0,0,0,.29,1.14,1,1,0,0,0,.44.56,1.63,1.63,0,0,0,.73.14h.06a10.69,10.69,0,0,0,1.34-.14,2,2,0,0,0,.47-.07c.13,0,.33-.1.58-.2l.59-.18.61,3.13c-.55.29-.88.46-1,.51l-1.3.63v0l-1.12.49c-.3.13-.57.23-.81.31l-.68.22c-.22.06-.46.12-.73.17a6,6,0,0,1-1.41.17,3.92,3.92,0,0,1-2.28-.65,4.62,4.62,0,0,1-1.89-3.15l-2.18-11.28-1.87.36L63.61,122l4.68-5.75,2.77-.53m.59-.88-.74.14-2.77.54-.26,0-.18.21L63,121.56l-.22.27.07.34.6,3.14.14.74.74-.14,1.13-.22,2,10.54a5.39,5.39,0,0,0,2.21,3.64,4.8,4.8,0,0,0,2.7.77,7.42,7.42,0,0,0,1.57-.18c.27-.05.54-.12.78-.19l.71-.23c.26-.09.55-.2.86-.33l1.14-.5L78,139v0l.76-.37c.13-.05.38-.17,1.06-.53l.49-.26-.11-.55-.6-3.14-.16-.82-.8.25-.59.18-.56.2-.32,0h-.07a10.9,10.9,0,0,1-1.24.13h0c-.3,0-.4,0-.42-.06s0,0-.08-.15a6.65,6.65,0,0,1-.26-1l-1.68-8.68,3.37-.65.74-.14-.14-.74-.75-3.87-.14-.74-.74.15-3.37.65-.62-3.21-.14-.73Z"/><path class="cls-5" d="M91.91,132.32a11.79,11.79,0,0,0,1.29-.26c.43-.11,1-.29,1.72-.53l.53-.18,1,3.18L95.3,135l-1.94.8a22.89,22.89,0,0,1-2.6.94,16.78,16.78,0,0,1-2.08.45,8.25,8.25,0,0,1-3.49-.17,7.51,7.51,0,0,1-2.9-1.53,8.8,8.8,0,0,1-2.12-2.7A12,12,0,0,1,79,129.05a14.29,14.29,0,0,1,0-4.43A10.09,10.09,0,0,1,80.33,121a8.33,8.33,0,0,1,2.54-2.61A8.77,8.77,0,0,1,86.5,117a8.51,8.51,0,0,1,3.07.07,6,6,0,0,1,2.59,1.25,12.42,12.42,0,0,1,1.11,1,4.32,4.32,0,0,1,.82,1.13,8.63,8.63,0,0,1,.6,1.56,18.52,18.52,0,0,1,.45,2.25l.18,1.18L85.59,128a6.28,6.28,0,0,0,2.33,3.61A5.75,5.75,0,0,0,91.91,132.32Zm-3.35-8.88a13.63,13.63,0,0,0-.36-1.74,3.7,3.7,0,0,0-.46-1,1.12,1.12,0,0,0-.59-.45,1.7,1.7,0,0,0-.72,0,1.63,1.63,0,0,0-1.35,1.12,7.6,7.6,0,0,0,0,3.52l0,.14,3.55-1Z"/><path class="cls-1" d="M87.87,116.9a8,8,0,0,1,1.7.18,6,6,0,0,1,2.59,1.25,12.42,12.42,0,0,1,1.11,1,4.32,4.32,0,0,1,.82,1.13,8.63,8.63,0,0,1,.6,1.56,18.52,18.52,0,0,1,.45,2.25l.18,1.18L85.59,128a6.28,6.28,0,0,0,2.33,3.61,5.22,5.22,0,0,0,3,.81,9.38,9.38,0,0,0,1-.07,11.79,11.79,0,0,0,1.29-.26c.43-.11,1-.29,1.72-.53l.53-.18,1,3.18L95.3,135l-1.94.8a22.89,22.89,0,0,1-2.6.94,16.78,16.78,0,0,1-2.08.45,9.78,9.78,0,0,1-1.41.11,7.69,7.69,0,0,1-5-1.81,8.8,8.8,0,0,1-2.12-2.7A12,12,0,0,1,79,129.05a14.29,14.29,0,0,1,0-4.43A10.09,10.09,0,0,1,80.33,121a8.33,8.33,0,0,1,2.54-2.61A8.77,8.77,0,0,1,86.5,117a9.14,9.14,0,0,1,1.37-.11M85.08,125l3.55-1-.07-.5a13.63,13.63,0,0,0-.36-1.74,3.7,3.7,0,0,0-.46-1,1.12,1.12,0,0,0-.59-.45,1.7,1.7,0,0,0-.41,0l-.31,0a1.63,1.63,0,0,0-1.35,1.12,7.6,7.6,0,0,0,0,3.52l0,.14m2.79-8.84a10.76,10.76,0,0,0-1.48.11,9.79,9.79,0,0,0-3.94,1.45,9.13,9.13,0,0,0-2.75,2.85,10.59,10.59,0,0,0-1.43,3.94,15.16,15.16,0,0,0,0,4.66,12.79,12.79,0,0,0,1.23,4,9.55,9.55,0,0,0,2.31,2.94A8.33,8.33,0,0,0,85,137.73a8.54,8.54,0,0,0,2.28.3,10,10,0,0,0,1.52-.12,17,17,0,0,0,2.18-.47,25.36,25.36,0,0,0,2.67-1l2-.81,1.12-.44.65-.25-.21-.67-1-3.19-.23-.74-.73.26-.52.18c-.7.24-1.26.41-1.67.51a10,10,0,0,1-1.21.25,7.11,7.11,0,0,1-.92.06,4.5,4.5,0,0,1-2.55-.69,5,5,0,0,1-1.77-2.46l9-2.35.65-.17-.1-.66-.18-1.18a17.78,17.78,0,0,0-.47-2.34,10.06,10.06,0,0,0-.65-1.71,5.4,5.4,0,0,0-1-1.32q-.51-.49-1.17-1a6.75,6.75,0,0,0-2.9-1.39,8.83,8.83,0,0,0-1.86-.2ZM85.7,124a5.47,5.47,0,0,1,.08-2.42.85.85,0,0,1,.73-.64,1,1,0,0,1,.23,0,.78.78,0,0,1,.22,0s.09,0,.17.16a3.09,3.09,0,0,1,.35.79,12.71,12.71,0,0,1,.32,1.49l-2.1.61Z"/><path class="cls-5" d="M98.35,120.09l-.47-2.85,1.2-.64v0q.89-.37,1.62-.63c.5-.18.94-.34,1.34-.5a17,17,0,0,1,4-1,6.56,6.56,0,0,1,4.29.82v0a3.58,3.58,0,0,1,1.4,1.54,7.73,7.73,0,0,1,.62,2.49l1.47,14.37-6.15.63-.11-1.08a5,5,0,0,0-.75.42h0a11.82,11.82,0,0,1-1.73,1,5,5,0,0,1-1.55.4,4.86,4.86,0,0,1-3.94-1.34,6.25,6.25,0,0,1-1.3-1.78,6.55,6.55,0,0,1-.64-2.26,8.1,8.1,0,0,1,.14-2.61,6.17,6.17,0,0,1,1-2.29,6.8,6.8,0,0,1,2-1.78,8.8,8.8,0,0,1,2.94-1.05h0l2.65-.54-.18-1.76a2,2,0,0,0-.73-1.57,2.56,2.56,0,0,0-1.48-.29,6.92,6.92,0,0,0-1.57.37,17,17,0,0,0-1.59.62c-.49.22-1.09.51-1.78.85Zm7.74,4.82a2.73,2.73,0,0,0-1.8,1.44,4.15,4.15,0,0,0-.33,2.16,2.3,2.3,0,0,0,.77,1.61,2.76,2.76,0,0,0,1.83.41l.37,0a.83.83,0,0,0,.34-.1l-.59-5.68Z"/><path class="cls-1" d="M107.05,114.5a6.11,6.11,0,0,1,3.32.87v0a3.58,3.58,0,0,1,1.4,1.54,7.73,7.73,0,0,1,.62,2.49l1.47,14.37-6.15.63-.11-1.08a5,5,0,0,0-.75.42h0a11.82,11.82,0,0,1-1.73,1,5,5,0,0,1-1.55.4,5.25,5.25,0,0,1-.56,0,4.76,4.76,0,0,1-1.6-.27,4.84,4.84,0,0,1-1.78-1.1,6.25,6.25,0,0,1-1.3-1.78,6.55,6.55,0,0,1-.64-2.26,8.1,8.1,0,0,1,.14-2.61,6.17,6.17,0,0,1,1-2.29,6.8,6.8,0,0,1,2-1.78,8.8,8.8,0,0,1,2.94-1.05h0l2.65-.54-.18-1.76a2,2,0,0,0-.73-1.57,2.42,2.42,0,0,0-1.24-.3H104a6.92,6.92,0,0,0-1.57.37,17,17,0,0,0-1.59.62c-.49.22-1.09.51-1.78.85l-.68.34-.47-2.85,1.2-.64v0q.89-.37,1.62-.63c.5-.18.94-.34,1.34-.5a17,17,0,0,1,4-1c.34,0,.66,0,1,0m-.75,16h.26l.37,0a.83.83,0,0,0,.34-.1l-.59-5.68-.59.2a2.73,2.73,0,0,0-1.8,1.44,4.15,4.15,0,0,0-.33,2.16,2.3,2.3,0,0,0,.77,1.61,2.51,2.51,0,0,0,1.57.42m.75-16.79c-.33,0-.68,0-1,0a17.22,17.22,0,0,0-2,.35,18.75,18.75,0,0,0-2.2.66c-.4.16-.84.32-1.33.49l-.73.27v-.12l-1,.49-1.2.63-.47.26.08.53.47,2.85.16,1,.91-.46.69-.34c.67-.33,1.26-.62,1.74-.83s1-.42,1.53-.6a6.2,6.2,0,0,1,1.4-.33h.17a1.68,1.68,0,0,1,.86.2c.07,0,.28.22.36,1l.11,1.08-2,.41h0a9.56,9.56,0,0,0-3.14,1.14,7.62,7.62,0,0,0-2.19,2A7,7,0,0,0,97.08,127a9,9,0,0,0-.16,2.85,7.51,7.51,0,0,0,.72,2.51,7,7,0,0,0,1.45,2A5.55,5.55,0,0,0,103,136l.64,0a6,6,0,0,0,1.78-.46,11.93,11.93,0,0,0,1.57-.89l.07.69.74-.08,6.16-.63.75-.08-.08-.74-1.48-14.38a8.44,8.44,0,0,0-.68-2.73,4.28,4.28,0,0,0-1.37-1.65h0l-.32-.23a6.82,6.82,0,0,0-3.72-1Zm-.75,16a1.84,1.84,0,0,1-1.12-.27,1.73,1.73,0,0,1-.47-1.11,3.35,3.35,0,0,1,.26-1.75,1.87,1.87,0,0,1,1.06-.93l.42,4Z"/><path class="cls-5" d="M115.51,114.16l6.54-1.31.1,1.86a24.36,24.36,0,0,1,2.79-1.36,6.58,6.58,0,0,1,2.15-.48,4.11,4.11,0,0,1,2,.31,6.34,6.34,0,0,1,1.83,1.3,14.2,14.2,0,0,1,6-2.1,6.21,6.21,0,0,1,2.12.25,5.36,5.36,0,0,1,1.82,1,4.9,4.9,0,0,1,1.48,2.14,11.61,11.61,0,0,1,.56,3.31l.64,13-6.58.33-.6-12a10,10,0,0,0-.2-1.75,2,2,0,0,0-.48-1,1.55,1.55,0,0,0-.89-.45,9.84,9.84,0,0,0-1.42-.14,2.36,2.36,0,0,0-.47,0,1.89,1.89,0,0,0-.44.11,8.56,8.56,0,0,1,.17,1.35l.69,14-6.59.33L126.13,121a12,12,0,0,0-.19-1.83,2.2,2.2,0,0,0-.44-1,1.42,1.42,0,0,0-.84-.44,10.89,10.89,0,0,0-1.38-.12,2.23,2.23,0,0,0-.55,0l-.44.09.77,15.35-6.59.33Z"/><path class="cls-1" d="M137.25,112.37a6.18,6.18,0,0,1,1.78.26,5.36,5.36,0,0,1,1.82,1,4.9,4.9,0,0,1,1.48,2.14,11.61,11.61,0,0,1,.56,3.31l.64,13-6.58.33-.6-12a10,10,0,0,0-.2-1.75,2,2,0,0,0-.48-1,1.55,1.55,0,0,0-.89-.45,9.84,9.84,0,0,0-1.42-.14h-.47a1.89,1.89,0,0,0-.44.11,8.56,8.56,0,0,1,.17,1.35l.69,14-6.59.33L126.13,121a12,12,0,0,0-.19-1.83,2.2,2.2,0,0,0-.44-1,1.42,1.42,0,0,0-.84-.44,10.89,10.89,0,0,0-1.38-.12h-.18a1.9,1.9,0,0,0-.37,0l-.44.09.77,15.35-6.59.33-1-19.22,6.54-1.31.1,1.86a24.36,24.36,0,0,1,2.79-1.36,6.58,6.58,0,0,1,2.15-.48l.41,0a4,4,0,0,1,1.62.33,6.34,6.34,0,0,1,1.83,1.3,14.2,14.2,0,0,1,6-2.1h.34m0-.75h-.38a14.18,14.18,0,0,0-5.81,1.93,6.85,6.85,0,0,0-1.64-1.07,4.71,4.71,0,0,0-1.92-.39l-.47,0a7.76,7.76,0,0,0-2.36.53,18,18,0,0,0-1.83.84l0-.68,0-.87-.85.17-6.54,1.31-.64.13,0,.64,1,19.23,0,.74.75,0,6.58-.33.75,0,0-.75-.73-14.68h.16a11.33,11.33,0,0,1,1.29.11.66.66,0,0,1,.41.2,1.51,1.51,0,0,1,.27.66,13.4,13.4,0,0,1,.18,1.72l.59,11.89,0,.74.75,0,6.59-.33.75,0,0-.75-.69-14c0-.23,0-.46-.06-.68a9.84,9.84,0,0,1,1.33.12,1,1,0,0,1,.49.23,1.51,1.51,0,0,1,.29.65,9.63,9.63,0,0,1,.18,1.61l.6,12,0,.75.75,0,6.59-.33.75,0,0-.75-.64-13a12.44,12.44,0,0,0-.6-3.52,5.66,5.66,0,0,0-1.71-2.46,6,6,0,0,0-2.08-1.12,6.63,6.63,0,0,0-2-.3Z"/><path class="cls-5" d="M156.32,131.91l8-24.18,7.2.15L178,132.37l-7.37-.16-1.8-8.47-5-.11L161.65,132Zm11.73-11.35c-.1-.46-.24-1.06-.4-1.81s-.33-1.5-.5-2.24l-.59-2.72-1.84,6.7Z"/><path class="cls-1" d="M164.35,107.73l7.2.15L178,132.37l-7.37-.16-1.8-8.47-5-.11L161.65,132l-5.33-.11,8-24.18m3.7,12.83c-.1-.46-.24-1.06-.4-1.81s-.33-1.5-.5-2.24l-.59-2.72-1.84,6.7,3.33.07M163.81,107l-.18.52-8,24.18-.32,1,1,0,5.34.11h.59l.15-.57,2-7.82,3.81.08,1.67,7.89.12.59h.6l7.37.16,1,0-.25-1-6.42-24.49-.15-.55h-.56l-7.21-.15Zm1.89,12.79.78-2.83c.14.66.29,1.32.44,2l.19.88-1.41,0Z"/><path class="cls-5" d="M186.28,132.91l-6.59-.39,1.15-19.21,6.65-.59-.12,2,.75-.57a6.69,6.69,0,0,1,1.7-.81,4.23,4.23,0,0,1,1.62-.11,6.14,6.14,0,0,1,.86.12,3.77,3.77,0,0,1,.88.32l.34.16-.38,6.31-5.95-2.43Z"/><path class="cls-1" d="M187.49,112.72l-.12,2,.75-.57a6.69,6.69,0,0,1,1.7-.81,4,4,0,0,1,1.07-.14l.55,0a6.14,6.14,0,0,1,.86.12,3.77,3.77,0,0,1,.88.32l.34.16-.38,6.31-5.95-2.43-.91,15.2-6.59-.39,1.15-19.21,6.65-.59m.8-.82-.87.07-6.64.59-.65.06,0,.64L179,132.47l0,.75.75.05,6.58.39.75.05L187,133l.84-14.16,5,2,1,.39.07-1,.38-6.32,0-.5-.46-.22-.34-.16a4.33,4.33,0,0,0-1-.37,5.16,5.16,0,0,0-1-.14,5.88,5.88,0,0,0-.6,0,4.65,4.65,0,0,0-1.27.16,6.14,6.14,0,0,0-1.41.62l0-.47.06-.86Z"/><path class="cls-5" d="M202.35,129.1a1,1,0,0,0,.27.65,1.62,1.62,0,0,0,.71.36c.33.08.77.16,1.33.24a2.23,2.23,0,0,0,.47.06l.62,0h.62l-.3,3.18q-.9.19-1.11.21l-1.42.24v0l-1.21.16c-.32,0-.61.06-.86.07l-.72,0-.75,0a4.25,4.25,0,0,1-4.35-5l1-11.45-1.9-.17.29-3.19,6.09-4.22,2.81.26-.36,4,4.16.38-.36,3.93-4.16-.39-.88,9.55A8.64,8.64,0,0,0,202.35,129.1Z"/><path class="cls-1" d="M201.18,110.19l2.81.26-.36,4,4.16.38-.36,3.93-4.16-.39-.88,9.55a8.64,8.64,0,0,0,0,1.18,1,1,0,0,0,.27.65,1.62,1.62,0,0,0,.71.36c.33.08.77.16,1.33.24a2.23,2.23,0,0,0,.47.06h0l.59,0h.62l-.3,3.18q-.9.19-1.11.21l-1.42.24v0l-1.21.16c-.32,0-.61.06-.86.07l-.72,0h0l-.71,0a4.25,4.25,0,0,1-4.35-5l1-11.45-1.9-.17.29-3.19,6.09-4.22m-.2-.77-.22.16-6.09,4.22-.29.2,0,.35-.3,3.18-.06.75.74.06,1.15.11-1,10.7a5,5,0,0,0,5,5.86l.76,0,.79,0c.27,0,.58,0,.92-.08l1.22-.16.59-.09v-.05l.82-.14c.14,0,.41-.06,1.17-.21l.54-.12,0-.55.29-3.18.08-.84-.84,0h-.61l-.58,0a1.85,1.85,0,0,1-.34,0h-.06a8.25,8.25,0,0,1-1.23-.22.84.84,0,0,1-.39-.17h0a.36.36,0,0,1,0-.17,7,7,0,0,1,0-1l.8-8.8,3.42.31.75.07.07-.75.36-3.92.07-.75-.75-.07-3.42-.31.3-3.25.07-.75-.75-.07-2.81-.25-.27,0Z"/><path class="cls-5" d="M211.14,115.65l6.65-.08-2.43,20.05-6.55-.79Zm7.47-3.75a2.46,2.46,0,0,1-1.18,2.15,4,4,0,0,1-2.82.35,4.56,4.56,0,0,1-2.81-1,3.2,3.2,0,0,1,.5-4.5,4.23,4.23,0,0,1,2.81-.34,4.62,4.62,0,0,1,2.81,1A2.34,2.34,0,0,1,218.61,111.9Z"/><path class="cls-1" d="M214.11,108.48a5.89,5.89,0,0,1,1,.09,4.62,4.62,0,0,1,2.81,1,2.34,2.34,0,0,1,.69,2.36,2.46,2.46,0,0,1-1.18,2.15,3.41,3.41,0,0,1-1.78.45,6.51,6.51,0,0,1-1-.1,4.56,4.56,0,0,1-2.81-1,3.2,3.2,0,0,1,.5-4.5,3.57,3.57,0,0,1,1.81-.43m3.68,7.09-2.43,20.05-6.55-.79,2.33-19.18,6.65-.08m-3.68-7.84h0a4.37,4.37,0,0,0-2.18.53,3.9,3.9,0,0,0-.63,5.7,4.42,4.42,0,0,0,1.7.92l-1.87,0h-.66l-.08.65-2.32,19.18-.09.74.74.09,6.55.79.75.09.09-.74,2.43-20.05.1-.85h-1.06l.23-.12a3.21,3.21,0,0,0,1.55-2.71,3.06,3.06,0,0,0-.94-3,5.28,5.28,0,0,0-3.22-1.16,7,7,0,0,0-1.09-.09Z"/><path class="cls-5" d="M219,131.22l.67.55c.65.45,1.21.8,1.68,1.06s1,.5,1.54.74a7.05,7.05,0,0,0,1.53.46,3.69,3.69,0,0,0,.94,0,2.93,2.93,0,0,0,.86-.21,1.83,1.83,0,0,0,.63-.42.93.93,0,0,0,.27-.59,2.88,2.88,0,0,0,0-.56,1.16,1.16,0,0,0-.21-.53,4.67,4.67,0,0,0-.61-.74c-.28-.28-.66-.66-1.16-1.12l-2-1.82a13.37,13.37,0,0,1-1.45-1.52,6.81,6.81,0,0,1-.89-1.43,4.42,4.42,0,0,1-.4-1.45,6.54,6.54,0,0,1,.07-1.63,5.73,5.73,0,0,1,.86-2.32,5.21,5.21,0,0,1,1.63-1.64,5.84,5.84,0,0,1,2.25-.84,8.5,8.5,0,0,1,2.71,0l1,.17c.33.07.71.16,1.12.28s.9.27,1.43.45,1.15.4,1.84.66l1.17.46-.49,3.36-.69-.41c-.64-.35-1.18-.63-1.64-.84s-1-.42-1.49-.63a6.46,6.46,0,0,0-1.43-.41,2.38,2.38,0,0,0-1.41.18,1.14,1.14,0,0,0-.7,1,3.74,3.74,0,0,0,0,.53.88.88,0,0,0,.14.45,2.69,2.69,0,0,0,.45.53c.21.21.52.49.92.85v0l2,1.8a18.72,18.72,0,0,1,1.61,1.62,7.23,7.23,0,0,1,1,1.5,4.77,4.77,0,0,1,.44,1.53,7,7,0,0,1-.06,1.69,6.56,6.56,0,0,1-.93,2.53,6,6,0,0,1-1.76,1.81,6.53,6.53,0,0,1-2.4,1,8.55,8.55,0,0,1-2.86,0,17.37,17.37,0,0,1-2.87-.78c-1.15-.4-2.37-.86-3.64-1.41l-.38-.16Z"/><path class="cls-1" d="M226.52,117.13a8.86,8.86,0,0,1,1.43.11l1,.17c.33.07.71.16,1.12.28s.9.27,1.43.45,1.15.4,1.84.66l1.17.46-.49,3.36-.69-.41c-.64-.35-1.18-.63-1.64-.84s-1-.42-1.49-.63a6.46,6.46,0,0,0-1.43-.41,3.28,3.28,0,0,0-.43,0,2.17,2.17,0,0,0-1,.22,1.14,1.14,0,0,0-.7,1,3.74,3.74,0,0,0,0,.53.88.88,0,0,0,.14.45,2.69,2.69,0,0,0,.45.53c.21.21.52.49.92.85v0l2,1.8a18.72,18.72,0,0,1,1.61,1.62,7.23,7.23,0,0,1,1,1.5,4.77,4.77,0,0,1,.44,1.53,7,7,0,0,1-.06,1.69,6.56,6.56,0,0,1-.93,2.53,6,6,0,0,1-1.76,1.81,6.53,6.53,0,0,1-2.4,1,8.57,8.57,0,0,1-1.44.13,10,10,0,0,1-1.42-.11,17.37,17.37,0,0,1-2.87-.78c-1.15-.4-2.37-.86-3.64-1.41l-.38-.16.68-3.75.67.55c.65.45,1.21.8,1.68,1.06s1,.5,1.54.74a7.05,7.05,0,0,0,1.53.46,3.64,3.64,0,0,0,.57,0,2.3,2.3,0,0,0,.37,0,2.93,2.93,0,0,0,.86-.21,1.83,1.83,0,0,0,.63-.42.93.93,0,0,0,.27-.59,2.88,2.88,0,0,0,0-.56,1.16,1.16,0,0,0-.21-.53,4.67,4.67,0,0,0-.61-.74c-.28-.28-.66-.66-1.16-1.12l-2-1.82a13.37,13.37,0,0,1-1.45-1.52,6.81,6.81,0,0,1-.89-1.43,4.42,4.42,0,0,1-.4-1.45,6.54,6.54,0,0,1,.07-1.63,5.73,5.73,0,0,1,.86-2.32,5.21,5.21,0,0,1,1.63-1.64,5.84,5.84,0,0,1,2.25-.84,7.63,7.63,0,0,1,1.28-.1m0-.75a8.14,8.14,0,0,0-1.41.11,6.82,6.82,0,0,0-2.53,1,6.19,6.19,0,0,0-1.85,1.86,6.67,6.67,0,0,0-1,2.62,7.44,7.44,0,0,0-.06,1.81,5.42,5.42,0,0,0,.45,1.7,8.18,8.18,0,0,0,1,1.58,13.35,13.35,0,0,0,1.54,1.61l1.94,1.81c.51.46.88.83,1.15,1.1a4.17,4.17,0,0,1,.51.61.63.63,0,0,1,.09.19,1.24,1.24,0,0,1,0,.39v.07a.2.2,0,0,1-.06.11,1.09,1.09,0,0,1-.38.25,2.5,2.5,0,0,1-.64.16H225a3.55,3.55,0,0,1-.46,0,6.56,6.56,0,0,1-1.35-.41c-.52-.23-1-.47-1.47-.71a17.87,17.87,0,0,1-1.58-1l-.65-.54-1-.81-.23,1.26-.69,3.74-.11.6.56.23.38.16c1.28.55,2.52,1,3.69,1.43a17.87,17.87,0,0,0,3,.81,10.05,10.05,0,0,0,1.53.12,8.22,8.22,0,0,0,1.58-.15,7.18,7.18,0,0,0,2.68-1.06,6.85,6.85,0,0,0,2-2,7.35,7.35,0,0,0,1-2.81,7.16,7.16,0,0,0,.06-1.89,5.4,5.4,0,0,0-.5-1.77,7.51,7.51,0,0,0-1.09-1.66,17.7,17.7,0,0,0-1.68-1.7l-1.75-1.55-.27-.28c-.39-.35-.69-.62-.89-.82a2.14,2.14,0,0,1-.34-.39s0-.06,0-.06a3.73,3.73,0,0,1,0-.41.46.46,0,0,1,.28-.42,1.62,1.62,0,0,1,1-.11,6.25,6.25,0,0,1,1.28.37c.51.2,1,.41,1.45.61s1,.48,1.58.81l.67.41,1,.58.16-1.12.49-3.36.09-.59-.56-.22-1.17-.46c-.72-.28-1.34-.5-1.88-.67L230.3,117c-.44-.13-.85-.22-1.2-.29l-1-.18a10.41,10.41,0,0,0-1.55-.12Z"/><path class="cls-5" d="M242.38,134.92a1,1,0,0,0,.2.68,1.56,1.56,0,0,0,.68.42,10.19,10.19,0,0,0,1.29.38,2.42,2.42,0,0,0,.47.11l.61,0,.62.05-.62,3.14c-.61.06-1,.09-1.13.09l-1.44.1v0l-1.22,0c-.33,0-.61,0-.87,0l-.71-.06a5.31,5.31,0,0,1-.74-.11,4.58,4.58,0,0,1-3.25-1.83,4.66,4.66,0,0,1-.57-3.63l2.21-11.27-1.87-.37.62-3.14,6.49-3.58,2.76.55-.77,3.93,4.11.81-.76,3.87-4.11-.81-1.84,9.41A8.76,8.76,0,0,0,242.38,134.92Z"/><path class="cls-1" d="M243.15,116l2.76.55-.77,3.93,4.11.81-.76,3.87-4.11-.81-1.84,9.41a8.76,8.76,0,0,0-.16,1.17,1,1,0,0,0,.2.68,1.56,1.56,0,0,0,.68.42,10.19,10.19,0,0,0,1.29.38,2.42,2.42,0,0,0,.47.11l.61,0,.62.05-.62,3.14c-.57.06-.94.09-1.1.09h0l-1.44.1v0l-1.22,0H241l-.71-.06a5.31,5.31,0,0,1-.74-.11,4.58,4.58,0,0,1-3.25-1.83,4.66,4.66,0,0,1-.57-3.63l2.21-11.27-1.87-.37.62-3.14,6.49-3.58m-.13-.78-.24.13-6.48,3.58-.31.17-.07.34-.61,3.14-.15.73.74.15,1.13.22L235,134.21a5,5,0,0,0,4.42,6.34,6,6,0,0,0,.8.12l.74.06h.92l1.24,0,.6,0v-.05l.83-.06h0c.13,0,.38,0,1.18-.09l.55-.06.11-.55.61-3.13.16-.82-.83-.07-.62-.06a3.89,3.89,0,0,1-.59,0,1.11,1.11,0,0,1-.31-.07h-.07a8.66,8.66,0,0,1-1.19-.35.87.87,0,0,1-.38-.21h0a.44.44,0,0,1,0-.17,7.31,7.31,0,0,1,.15-1l1.7-8.68,3.36.66.74.15.15-.74.75-3.87.15-.73-.74-.15-3.37-.66.63-3.2.15-.73-.74-.15-2.77-.54-.27-.05Z"/><path class="cls-5" d="M247.23,136.13l.62.61a17.73,17.73,0,0,0,3.06,2,6.18,6.18,0,0,0,1.48.58,3.72,3.72,0,0,0,.94.11,3,3,0,0,0,.87-.14,1.88,1.88,0,0,0,.67-.37.9.9,0,0,0,.31-.57,2.59,2.59,0,0,0,.08-.55,1.23,1.23,0,0,0-.16-.55,5.27,5.27,0,0,0-.55-.78c-.25-.31-.61-.71-1.07-1.22l-1.79-2a12.48,12.48,0,0,1-1.32-1.64,6.74,6.74,0,0,1-.78-1.5,4.67,4.67,0,0,1-.27-1.48,6.75,6.75,0,0,1,.2-1.61,6,6,0,0,1,1-2.25,5.36,5.36,0,0,1,1.76-1.5,5.9,5.9,0,0,1,2.31-.64,8.23,8.23,0,0,1,2.71.23l1,.26a10.17,10.17,0,0,1,1.1.37c.41.16.87.34,1.39.56s1.11.49,1.78.82l1.12.55-.76,3.31-.66-.47c-.6-.4-1.12-.73-1.56-1s-.92-.5-1.43-.75a7,7,0,0,0-1.39-.53,2.35,2.35,0,0,0-1.42.06,1.16,1.16,0,0,0-.78.91,3,3,0,0,0-.09.52.88.88,0,0,0,.1.46,2.88,2.88,0,0,0,.4.57c.19.22.48.53.85.92v0l1.87,2a17.76,17.76,0,0,1,1.46,1.76,6.46,6.46,0,0,1,.86,1.57,4.47,4.47,0,0,1,.31,1.56,6.31,6.31,0,0,1-.2,1.68,6.44,6.44,0,0,1-1.13,2.44,6.05,6.05,0,0,1-1.91,1.66,6.47,6.47,0,0,1-2.47.74,8.23,8.23,0,0,1-2.85-.21,17.58,17.58,0,0,1-2.8-1c-1.12-.49-2.28-1.06-3.5-1.71l-.38-.19Z"/><path class="cls-1" d="M255.27,122.68a9.11,9.11,0,0,1,2.08.26l1,.26a10.17,10.17,0,0,1,1.1.37c.41.16.87.34,1.39.56s1.11.49,1.78.82l1.12.55-.76,3.31-.66-.47c-.6-.4-1.12-.73-1.56-1s-.92-.5-1.43-.75a7,7,0,0,0-1.39-.53,2.39,2.39,0,0,0-.64-.08,2.07,2.07,0,0,0-.78.14,1.16,1.16,0,0,0-.78.91,3,3,0,0,0-.09.52.88.88,0,0,0,.1.46,2.88,2.88,0,0,0,.4.57c.19.22.48.53.85.92v0l1.87,2a17.76,17.76,0,0,1,1.46,1.76,6.46,6.46,0,0,1,.86,1.57,4.47,4.47,0,0,1,.31,1.56,6.31,6.31,0,0,1-.2,1.68,6.44,6.44,0,0,1-1.13,2.44,6.05,6.05,0,0,1-1.91,1.66,6.47,6.47,0,0,1-2.47.74,6.79,6.79,0,0,1-.78,0,8.86,8.86,0,0,1-2.07-.25,17.58,17.58,0,0,1-2.8-1c-1.12-.49-2.28-1.06-3.5-1.71l-.38-.19,1-3.68.62.61a17.73,17.73,0,0,0,3.06,2,6.18,6.18,0,0,0,1.48.58,3.72,3.72,0,0,0,.88.11h.06a3,3,0,0,0,.87-.14,1.88,1.88,0,0,0,.67-.37.9.9,0,0,0,.31-.57,2.59,2.59,0,0,0,.08-.55,1.23,1.23,0,0,0-.16-.55,5.27,5.27,0,0,0-.55-.78c-.25-.31-.61-.71-1.07-1.22l-1.79-2a12.48,12.48,0,0,1-1.32-1.64,6.74,6.74,0,0,1-.78-1.5,4.67,4.67,0,0,1-.27-1.48,6.75,6.75,0,0,1,.2-1.61,6,6,0,0,1,1-2.25,5.36,5.36,0,0,1,1.76-1.5,5.9,5.9,0,0,1,2.31-.64q.31,0,.63,0m0-.75q-.36,0-.69,0a6.83,6.83,0,0,0-2.6.73,6.14,6.14,0,0,0-2,1.7,6.57,6.57,0,0,0-1.19,2.53,7.31,7.31,0,0,0-.22,1.8,5.14,5.14,0,0,0,.32,1.73,7.69,7.69,0,0,0,.85,1.66,14.18,14.18,0,0,0,1.4,1.73l1.79,2c.46.51.8.9,1,1.2a3.52,3.52,0,0,1,.46.65.69.69,0,0,1,.08.2,1.81,1.81,0,0,1-.06.38v.07a.17.17,0,0,1-.07.11,1.16,1.16,0,0,1-.4.22,2.6,2.6,0,0,1-.65.1h0a2.74,2.74,0,0,1-.7-.09,5.39,5.39,0,0,1-1.31-.52,15.42,15.42,0,0,1-1.41-.82c-.43-.28-.93-.66-1.5-1.12l-.6-.59-.91-.89-.33,1.23-1,3.68-.16.58.54.28.37.2c1.23.65,2.42,1.23,3.55,1.72a18.59,18.59,0,0,0,2.92,1.06,9.87,9.87,0,0,0,2.25.27,8.12,8.12,0,0,0,.86,0,7.19,7.19,0,0,0,2.75-.84,6.68,6.68,0,0,0,2.15-1.86,7.7,7.7,0,0,0,1.48-4.59,5.69,5.69,0,0,0-.35-1.8,8,8,0,0,0-1-1.75,18.08,18.08,0,0,0-1.52-1.83l-1.62-1.69-.25-.3c-.36-.38-.63-.68-.82-.9a1.79,1.79,0,0,1-.3-.41.14.14,0,0,1,0-.07,2.6,2.6,0,0,1,.07-.4.44.44,0,0,1,.31-.39,1.54,1.54,0,0,1,.52-.09,1.88,1.88,0,0,1,.46.06,5.57,5.57,0,0,1,1.24.47c.5.25,1,.49,1.39.73s.93.55,1.52.94l.63.46.91.66.26-1.1.77-3.31.13-.58-.54-.26-1.12-.56c-.68-.33-1.3-.61-1.82-.83l-1.41-.57a11.31,11.31,0,0,0-1.16-.39q-.51-.15-1-.27a10,10,0,0,0-2.25-.28Z"/><path class="cls-5" d="M64.44,133.77a7.74,7.74,0,0,0-.68-1.87,5.39,5.39,0,0,0-1.08-1.43,7.37,7.37,0,0,0-1.55-1.13,14.57,14.57,0,0,0-2.08-1L55.24,127c-.54-.2-1-.37-1.3-.53a4.28,4.28,0,0,1-.77-.44,1.32,1.32,0,0,1-.41-.48,2.65,2.65,0,0,1-.23-.66,1.93,1.93,0,0,1,.36-1.82,3.07,3.07,0,0,1,1.7-1.06,7.8,7.8,0,0,1,1.64-.17c.63,0,1.23,0,1.8.08s1.26.12,2,.23l.81.16L60,118.44h-.42c-1.54,0-3,0-4.31,0H55l-.17-1.44a.28.28,0,0,0-.32-.25l-2,.24a.28.28,0,0,0-.25.31l.17,1.43-.39.08c-.22,0-.42.12-.62.18l-.71-1.32a.28.28,0,0,0-.38-.11l-1.78.95a.27.27,0,0,0-.11.38l.68,1.29a6.39,6.39,0,0,0-.68.59L47.16,120a.28.28,0,0,0-.39.07l-1.17,1.64a.29.29,0,0,0,.07.4l1.21.86a7.77,7.77,0,0,0-.31.8l-1.52-.18a.28.28,0,0,0-.32.25l-.24,2a.29.29,0,0,0,.25.32l1.49.17a8.78,8.78,0,0,0,.1.88l-1.46.49a.28.28,0,0,0-.18.36l.64,1.91a.28.28,0,0,0,.36.18l1.44-.48,0,0a5.86,5.86,0,0,0,1.12,1.46,8.08,8.08,0,0,0,1.64,1.2,18.16,18.16,0,0,0,2.27,1.06l3.28,1.27c.64.24,1.14.44,1.51.61a4.15,4.15,0,0,1,.83.48,1.35,1.35,0,0,1,.4.48,3.31,3.31,0,0,1,.21.65,1.57,1.57,0,0,1,0,1,2.31,2.31,0,0,1-.47.87,3.08,3.08,0,0,1-.79.68,3.43,3.43,0,0,1-1,.42,8,8,0,0,1-1.91.2c-.7,0-1.36,0-2-.11s-1.39-.18-2.27-.34l-.93-.23,1,4.19,1.17.07a29,29,0,0,0,4.18,0,20.27,20.27,0,0,0,3-.43,9.06,9.06,0,0,0,3-1.32,7.84,7.84,0,0,0,2.12-2.18,7.73,7.73,0,0,0,1.09-2.78A7.4,7.4,0,0,0,64.44,133.77Z"/><path class="cls-1" d="M54.49,116.81a.29.29,0,0,1,.29.25L55,118.5h.28c.94,0,1.94-.06,3-.06H60l.93,3.84-.81-.16c-.79-.11-1.48-.19-2-.23s-1.16-.08-1.78-.08h0a7.8,7.8,0,0,0-1.64.17,3.07,3.07,0,0,0-1.7,1.06,1.93,1.93,0,0,0-.36,1.82,2.65,2.65,0,0,0,.23.66,1.32,1.32,0,0,0,.41.48,4.28,4.28,0,0,0,.77.44c.33.16.76.33,1.3.53l3.81,1.42a14.57,14.57,0,0,1,2.08,1,7.37,7.37,0,0,1,1.55,1.13,5.39,5.39,0,0,1,1.08,1.43,7.74,7.74,0,0,1,.68,1.87,7.4,7.4,0,0,1,.11,3.1,7.73,7.73,0,0,1-1.09,2.78,7.84,7.84,0,0,1-2.12,2.18,9.06,9.06,0,0,1-3,1.32,20.27,20.27,0,0,1-3,.43c-.57,0-1.21.07-1.9.07s-1.46,0-2.28-.07l-1.17-.07-1-4.19.93.23c.88.16,1.64.27,2.27.34s1.3.1,2,.11h.08a8,8,0,0,0,1.83-.2,3.43,3.43,0,0,0,1-.42,3.08,3.08,0,0,0,.79-.68,2.31,2.31,0,0,0,.47-.87,1.57,1.57,0,0,0,0-1,3.31,3.31,0,0,0-.21-.65,1.35,1.35,0,0,0-.4-.48,4.15,4.15,0,0,0-.83-.48c-.37-.17-.87-.37-1.51-.61l-3.28-1.27a18.16,18.16,0,0,1-2.27-1.06,8.08,8.08,0,0,1-1.64-1.2,5.86,5.86,0,0,1-1.12-1.46l0,0-1.44.48H45.6a.28.28,0,0,1-.27-.19L44.69,128a.28.28,0,0,1,.18-.36l1.46-.49a8.78,8.78,0,0,1-.1-.88l-1.49-.17a.29.29,0,0,1-.25-.32l.24-2a.28.28,0,0,1,.28-.25h0l1.52.18a7.77,7.77,0,0,1,.31-.8l-1.21-.86a.29.29,0,0,1-.07-.4L46.77,120a.27.27,0,0,1,.23-.12.24.24,0,0,1,.16,0l1.23.87a6.39,6.39,0,0,1,.68-.59L48.39,119a.27.27,0,0,1,.11-.38l1.78-.95a.22.22,0,0,1,.13,0,.29.29,0,0,1,.25.15l.71,1.32c.2-.06.4-.13.62-.18l.39-.08-.17-1.43a.28.28,0,0,1,.25-.31l2-.24h0m0-.5H54.4l-2,.24a.79.79,0,0,0-.69.87l.12,1-.21,0-.52-1a.77.77,0,0,0-.69-.42.79.79,0,0,0-.37.1l-1.77.95a.75.75,0,0,0-.38.46.78.78,0,0,0,.06.6l.49.92-.09.07-.9-.63a.8.8,0,0,0-.45-.14.77.77,0,0,0-.64.33l-1.17,1.64a.78.78,0,0,0,.19,1.09l.89.63,0,.09-1.12-.14H45a.8.8,0,0,0-.78.69l-.23,2a.77.77,0,0,0,.68.87l1.09.13v.09l-1.07.35a.79.79,0,0,0-.49,1l.63,1.91a.79.79,0,0,0,.75.53.67.67,0,0,0,.24,0l1.06-.35a5.92,5.92,0,0,0,1,1.25,8,8,0,0,0,1.73,1.27A18.36,18.36,0,0,0,52,133.84l3.29,1.27c.63.24,1.12.44,1.48.61a4,4,0,0,1,.73.41.83.83,0,0,1,.25.3,2.46,2.46,0,0,1,.18.56,1.09,1.09,0,0,1,0,.69,2.07,2.07,0,0,1-.38.7,2.78,2.78,0,0,1-.68.58,2.88,2.88,0,0,1-.85.35,7,7,0,0,1-1.72.19h-.07c-.69,0-1.34,0-2-.11s-1.36-.18-2.23-.33l-.9-.23-.8-.19.2.8,1,4.19.09.36.37,0,1.17.07c.83,0,1.6.07,2.31.07s1.36,0,1.94-.07a18.47,18.47,0,0,0,3-.45,9.23,9.23,0,0,0,3.16-1.39A8.07,8.07,0,0,0,65,137a7.89,7.89,0,0,0-.11-3.31,8.68,8.68,0,0,0-.72-2A6.28,6.28,0,0,0,63,130.1a8.76,8.76,0,0,0-1.65-1.2,17,17,0,0,0-2.16-1l-3.8-1.42c-.53-.19-1-.36-1.27-.51a4.28,4.28,0,0,1-.68-.39,1,1,0,0,1-.27-.3,3,3,0,0,1-.19-.56,1.42,1.42,0,0,1,.27-1.38,2.55,2.55,0,0,1,1.43-.89,7.23,7.23,0,0,1,1.52-.16h0c.63,0,1.21,0,1.76.07s1.24.13,2,.24l.78.15.76.14-.18-.75-.93-3.83-.09-.38H58.22c-1,0-1.94,0-2.83,0l-.12-1a.79.79,0,0,0-.78-.69Z"/><path class="cls-2" d="M62.71,136.88a5.46,5.46,0,0,0-.08-2.27,7.2,7.2,0,0,0-.51-1.41,3.59,3.59,0,0,0-.69-.91,6.21,6.21,0,0,0-1.15-.84,13.64,13.64,0,0,0-1.81-.81l-3.8-1.42c-.59-.22-1.07-.41-1.45-.59a5.92,5.92,0,0,1-1.14-.67,3.31,3.31,0,0,1-1-1.16,4.52,4.52,0,0,1-.38-1.06,3.92,3.92,0,0,1,.74-3.58,5.18,5.18,0,0,1,1-.94,6.1,6.1,0,0,0-1.93.89,5.31,5.31,0,0,0-1.42,1.5,5,5,0,0,0-.69,1.9,5.68,5.68,0,0,0,.12,2.23,5.27,5.27,0,0,0,.5,1.34,3.66,3.66,0,0,0,.75,1A5.74,5.74,0,0,0,51,131a16.27,16.27,0,0,0,2,.94l3.26,1.27c.67.25,1.21.47,1.62.65a6.55,6.55,0,0,1,1.27.75,3.43,3.43,0,0,1,1,1.21,7,7,0,0,1,.32.95,3.59,3.59,0,0,1,0,2.08,4.78,4.78,0,0,1-.84,1.55,5.33,5.33,0,0,1-1.29,1.11l-.11.07a6.8,6.8,0,0,0,2.11-1,5.59,5.59,0,0,0,2.39-3.68Z"/><path class="cls-2" d="M57.36,141.89l.89-.54a4.9,4.9,0,0,0,1.26-1.08,4.33,4.33,0,0,0,.82-1.5,3.56,3.56,0,0,0,0-2,6.09,6.09,0,0,0-.32-.92,3.09,3.09,0,0,0-.92-1.17,5.41,5.41,0,0,0-1.24-.73c-.41-.19-.94-.4-1.61-.66L53,132a16.39,16.39,0,0,1-2-.95,6.39,6.39,0,0,1-1.26-.91,3.91,3.91,0,0,1-.78-1,5.93,5.93,0,0,1-.51-1.37,5.73,5.73,0,0,1-.12-2.28,5.07,5.07,0,0,1,.7-1.94A5.33,5.33,0,0,1,50.45,122a6,6,0,0,1,2-.91l.66-.17-.56.39a4.92,4.92,0,0,0-1,.92,3.81,3.81,0,0,0-.72,3.47,4.74,4.74,0,0,0,.37,1,3.18,3.18,0,0,0,.95,1.12,6.13,6.13,0,0,0,1.11.66c.38.17.85.36,1.44.58l3.81,1.42a12.54,12.54,0,0,1,1.82.83,5.67,5.67,0,0,1,1.18.85,3.64,3.64,0,0,1,.71.94,6.37,6.37,0,0,1,.52,1.44,5.58,5.58,0,0,1,.08,2.33h0A5.73,5.73,0,0,1,62,139a5.81,5.81,0,0,1-1.62,1.66,6.94,6.94,0,0,1-2.15,1Zm-5.49-20.35a5.22,5.22,0,0,0-1.28.68,5,5,0,0,0-1.38,1.46,4.78,4.78,0,0,0-.68,1.85,5.81,5.81,0,0,0,.12,2.18,5.42,5.42,0,0,0,.49,1.31,3.84,3.84,0,0,0,.73.94,5.81,5.81,0,0,0,1.21.88,15.88,15.88,0,0,0,2,.94L56.35,133c.68.25,1.21.47,1.63.66a6.65,6.65,0,0,1,1.28.76,3.49,3.49,0,0,1,1,1.26,6.09,6.09,0,0,1,.33,1,3.75,3.75,0,0,1,0,2.15,4.73,4.73,0,0,1-.86,1.59,5.3,5.3,0,0,1-.72.7,5.82,5.82,0,0,0,1.26-.67,5.5,5.5,0,0,0,1.54-1.58,5.3,5.3,0,0,0,.79-2h0a5.07,5.07,0,0,0-.08-2.22,5.85,5.85,0,0,0-.49-1.38,3.6,3.6,0,0,0-.67-.88,5.68,5.68,0,0,0-1.13-.82,12.58,12.58,0,0,0-1.78-.81l-3.81-1.42c-.59-.21-1.07-.41-1.45-.59a5.93,5.93,0,0,1-1.17-.68,3.51,3.51,0,0,1-1-1.2,4.78,4.78,0,0,1-.39-1.09,4,4,0,0,1,.76-3.68A5.35,5.35,0,0,1,51.87,121.54Z"/><path class="cls-2" d="M76.06,137.18H76a3.5,3.5,0,0,1-1.66-.37,2.93,2.93,0,0,1-1.38-1.64,9.23,9.23,0,0,1-.38-1.45l-1.81-9.41-.37-1.91h0l-.38-2-.38-2-.09,0-3.63,4.46.05.26,1.87-.36.38,2,2.18,11.29a2.55,2.55,0,0,0,1,1.86,2.06,2.06,0,0,0,1.17.32,4.58,4.58,0,0,0,1-.12h.06a4.72,4.72,0,0,0,.53-.12l.62-.2c.19-.07.42-.15.66-.26l.49-.21.31-.16Z"/><path class="cls-2" d="M72.56,138.39a2.23,2.23,0,0,1-1.24-.33,2.71,2.71,0,0,1-1.09-1.95L67.7,123l-1.87.36-.08-.44,0,0,3.66-4.49.26-.05,1.15,6,1.82,9.41a9.49,9.49,0,0,0,.36,1.43,2.84,2.84,0,0,0,1.33,1.57,3.4,3.4,0,0,0,1.6.36h.24l.56,0-.81.42-.49.22-.67.26-.62.2-.55.13h-.05A4.77,4.77,0,0,1,72.56,138.39Zm-4.66-15.7.4,2.09,2.18,11.28a2.45,2.45,0,0,0,1,1.79,2.63,2.63,0,0,0,2.05.17h0l.56-.13.61-.2c.18-.06.4-.14.65-.25l.32-.14a3.4,3.4,0,0,1-1.43-.38,3,3,0,0,1-1.45-1.71,9.4,9.4,0,0,1-.38-1.46l-2.91-15.08L66,123l0,.07Z"/><path class="cls-2" d="M87.39,135.65a7.24,7.24,0,0,0,1.12-.09,15.08,15.08,0,0,0,1.84-.39c.36-.1.79-.25,1.28-.43l-.62,0a7.28,7.28,0,0,1-4.07-1.14,8.2,8.2,0,0,1-3.14-4.71l-.39-2-.18-1.22,0-.14a9,9,0,0,1,.14-4.56h0a6.38,6.38,0,0,0-1.19,1.43,8,8,0,0,0-1,2.94,12.17,12.17,0,0,0,0,3.81,9.66,9.66,0,0,0,.95,3.09,6.82,6.82,0,0,0,1.64,2.1,5.49,5.49,0,0,0,2.13,1.13A6,6,0,0,0,87.39,135.65Z"/><path class="cls-2" d="M87.39,135.78a5.85,5.85,0,0,1-1.58-.21,5.66,5.66,0,0,1-2.18-1.15A7.07,7.07,0,0,1,82,132.28a10.26,10.26,0,0,1-1-3.13,12.74,12.74,0,0,1,0-3.85,8.3,8.3,0,0,1,1.07-3,6.67,6.67,0,0,1,1.22-1.46l.43-.38-.23.53a8.87,8.87,0,0,0-.14,4.5l.2,1.36.39,2A8.09,8.09,0,0,0,87,133.51a7.35,7.35,0,0,0,4.62,1.11l.84-.06-.79.3c-.49.18-.92.33-1.29.43a15.29,15.29,0,0,1-1.85.4A7.49,7.49,0,0,1,87.39,135.78Zm-4.31-14.39a6.1,6.1,0,0,0-.81,1,7.87,7.87,0,0,0-1,2.9,12.22,12.22,0,0,0,0,3.77,9.67,9.67,0,0,0,.94,3,6.88,6.88,0,0,0,1.61,2.07,5.46,5.46,0,0,0,2.09,1.1,6.27,6.27,0,0,0,2.61.11,14.39,14.39,0,0,0,1.82-.39c.17-.05.35-.1.54-.17a7.19,7.19,0,0,1-4-1.16A8.29,8.29,0,0,1,83.68,129l-.4-2-.2-1.36A10.51,10.51,0,0,1,83.08,121.39Z"/><path class="cls-2" d="M89,119.36a3.54,3.54,0,0,1,.47.53,5.42,5.42,0,0,1,.76,1.6,14.5,14.5,0,0,1,.42,2l.08.5.13.9,2.32-.6a13.27,13.27,0,0,0-.3-1.42,7,7,0,0,0-.45-1.18,2.54,2.54,0,0,0-.45-.63,10.22,10.22,0,0,0-.94-.82,4,4,0,0,0-1.78-.86Z"/><path class="cls-2" d="M90.77,125.08l-.23-1.55a14.28,14.28,0,0,0-.42-2,5.22,5.22,0,0,0-.74-1.57,3.73,3.73,0,0,0-.45-.51l-.32-.29.42.08.27.05a4.27,4.27,0,0,1,1.83.88c.36.29.68.57,1,.83a2.53,2.53,0,0,1,.47.66,6.84,6.84,0,0,1,.46,1.21c.11.39.21.87.31,1.42l0,.12Zm-1.39-5.52.2.25a5.56,5.56,0,0,1,.78,1.64,16.7,16.7,0,0,1,.43,2l.19,1.27,2.07-.55c-.09-.5-.18-.93-.28-1.28a6.29,6.29,0,0,0-.44-1.16,2.1,2.1,0,0,0-.43-.6,11.74,11.74,0,0,0-.93-.81A3.94,3.94,0,0,0,89.38,119.56Z"/><path class="cls-2" d="M105.35,132.82a4,4,0,0,1-1.71-.74,4.17,4.17,0,0,1-1.53-2.94v0a6.09,6.09,0,0,1,.49-3.17,4.22,4.22,0,0,1,1-1.36,6.44,6.44,0,0,0-1.57.65,4.75,4.75,0,0,0-1.38,1.23,4.16,4.16,0,0,0-.7,1.56,6.15,6.15,0,0,0-.1,2,4.46,4.46,0,0,0,.44,1.57,4.34,4.34,0,0,0,.88,1.23,3.09,3.09,0,0,0,1.08.66,2.83,2.83,0,0,0,.93.15,2.17,2.17,0,0,0,.36,0,3,3,0,0,0,.94-.23C104.61,133.24,104.9,133.09,105.35,132.82Z"/><path class="cls-2" d="M103.12,133.71a2.88,2.88,0,0,1-1-.16,3.05,3.05,0,0,1-1.11-.69,4.38,4.38,0,0,1-.91-1.26,4.48,4.48,0,0,1-.46-1.62,6.4,6.4,0,0,1,.11-2,4.14,4.14,0,0,1,.72-1.6,4.64,4.64,0,0,1,1.42-1.27,6.52,6.52,0,0,1,1.6-.66l.47-.12-.35.34a4.13,4.13,0,0,0-.93,1.31,6,6,0,0,0-.48,3.1v.06a4.11,4.11,0,0,0,1.48,2.85,3.9,3.9,0,0,0,1.66.71l.32.06-.28.17a7.36,7.36,0,0,1-.94.52,3.28,3.28,0,0,1-1,.25Zm0-8.89a5.78,5.78,0,0,0-1.09.49,4.56,4.56,0,0,0-1.35,1.21A4.13,4.13,0,0,0,100,128a6.17,6.17,0,0,0-.1,1.93,4.51,4.51,0,0,0,.43,1.53,4.43,4.43,0,0,0,.86,1.19,2.78,2.78,0,0,0,2.26.76,2.76,2.76,0,0,0,.91-.23c.13-.06.34-.16.65-.34a4,4,0,0,1-1.46-.69,4.34,4.34,0,0,1-1.58-3v0a6.38,6.38,0,0,1,.49-3.26A4.42,4.42,0,0,1,103.13,124.82Z"/><path class="cls-2" d="M108.47,121.7l.07.7h0l.26,2.48.58,5.68,0,.22.22,1.84,2.17-.22L110.53,120a5.61,5.61,0,0,0-.43-1.83,1.64,1.64,0,0,0-.65-.71l-.42-.26a4.52,4.52,0,0,0-1.85-.35l-.52,0a3.83,3.83,0,0,1,1.63,3Z"/><path class="cls-2" d="M109.52,132.76l-.26-2.19L108.17,120a3.7,3.7,0,0,0-1.58-3l-.33-.2.39,0a4.84,4.84,0,0,1,2.43.34l.44.27a1.8,1.8,0,0,1,.7.75,6,6,0,0,1,.44,1.87l1.28,12.51Zm-.92-11.07.93,9.08.21,1.72,1.93-.2L110.41,120a5.51,5.51,0,0,0-.42-1.79,1.46,1.46,0,0,0-.61-.65l-.41-.26A4.25,4.25,0,0,0,107,117a4.13,4.13,0,0,1,1.39,2.93Z"/><path class="cls-2" d="M124.75,116.05l.38.06a3.45,3.45,0,0,1,2,1.07,4.12,4.12,0,0,1,.91,1.95,16.1,16.1,0,0,1,.23,2.13l.49,9.89,2.59-.13-.59-12a3.83,3.83,0,0,0-.13-1,8.14,8.14,0,0,0-.94-1.71,2.93,2.93,0,0,0-1.24-.91,2.1,2.1,0,0,0-.82-.15h-.3a4.74,4.74,0,0,0-1.53.35C125.49,115.7,125.14,115.86,124.75,116.05Z"/><path class="cls-2" d="M128.63,131.28v-.13l-.49-9.89a14.28,14.28,0,0,0-.22-2.1,4,4,0,0,0-.89-1.9,3.24,3.24,0,0,0-1.91-1l-.38-.06-.42,0,.38-.18c.4-.19.75-.35,1-.47a5.36,5.36,0,0,1,1.57-.36h.06a2.33,2.33,0,0,1,1.12.16,3,3,0,0,1,1.29.94,8.43,8.43,0,0,1,1,1.75,3.83,3.83,0,0,1,.13,1V119l.6,12.12ZM125.17,116a3.53,3.53,0,0,1,2,1.1,4.22,4.22,0,0,1,.94,2,14.72,14.72,0,0,1,.23,2.14l.49,9.76,2.34-.11-.59-12a3.23,3.23,0,0,0-.12-.88,8.26,8.26,0,0,0-.92-1.68,2.92,2.92,0,0,0-1.19-.87,2.12,2.12,0,0,0-1-.13h0a5.1,5.1,0,0,0-1.52.34Z"/><polygon class="cls-2" points="121.09 131.53 120.42 118.17 120.34 116.44 120.34 116.44 120.3 115.64 117.72 116.15 118.49 131.66 121.09 131.53"/><path class="cls-2" d="M118.38,131.79v-.13l-.78-15.61,2.82-.56.06,1.08h0l.75,15.08Zm-.53-15.54.76,15.27,2.35-.11-.76-15.09h0l0-.53Z"/><path class="cls-2" d="M135.28,115.63a3.53,3.53,0,0,1,2,1,4,4,0,0,1,1,1.92,12.73,12.73,0,0,1,.26,2.09l.49,10,2.59-.13-.54-11a10.27,10.27,0,0,0-.44-2.74,3,3,0,0,0-.89-1.28,3.27,3.27,0,0,0-1.12-.6,3.91,3.91,0,0,0-1.2-.17h-.24a8.69,8.69,0,0,0-2.85.75A8.73,8.73,0,0,1,135.28,115.63Z"/><path class="cls-2" d="M138.85,130.77v-.13l-.5-9.95a11.71,11.71,0,0,0-.25-2.08,4,4,0,0,0-.94-1.86,3.44,3.44,0,0,0-1.91-1h0a8.35,8.35,0,0,0-1-.13l-.52,0,.48-.2a8.87,8.87,0,0,1,2.9-.75,4.24,4.24,0,0,1,1.48.17,3.52,3.52,0,0,1,1.16.62,3.11,3.11,0,0,1,.92,1.34,10.07,10.07,0,0,1,.45,2.77l.55,11.1Zm-4-15.35.5.08h0a3.69,3.69,0,0,1,2,1.08,4.09,4.09,0,0,1,1,2,12,12,0,0,1,.26,2.12l.49,9.83,2.34-.12-.54-10.85a9.67,9.67,0,0,0-.43-2.7,2.94,2.94,0,0,0-.85-1.23,3.11,3.11,0,0,0-1.08-.57,3.74,3.74,0,0,0-1.39-.16A7.83,7.83,0,0,0,134.8,115.42Z"/><path class="cls-2" d="M172.35,130.62l3.14.06-5.36-20.46-2.24,0,.76,3.58c.22,1.07.42,2,.58,2.7s.33,1.49.5,2.24.3,1.35.4,1.8l.37,1.65.39,1.56Z"/><path class="cls-2" d="M175.65,130.81l-3.4-.07-1.49-7h0s-.29-1.16-.38-1.55-.37-1.65-.37-1.65c-.11-.45-.24-1-.4-1.8s-.34-1.5-.5-2.25-.36-1.63-.58-2.69l-.8-3.73,2.49,0,0,.09Zm-3.2-.32,2.88.07L170,110.34l-2,0,.73,3.43c.22,1.06.42,2,.58,2.69s.33,1.49.5,2.24.3,1.35.4,1.8c0,0,.28,1.24.38,1.66s.38,1.55.38,1.55Z"/><path class="cls-2" d="M164.86,113.27l-5.66,17.07,1,0s1.27-5.15,1.75-6.85c.11-.39.37-1.15.48-1.54s.45-1.64.45-1.64l1.84-6.69Z"/><path class="cls-2" d="M160.33,130.49l-1.3,0,.05-.16,5.66-17.07.24.07L163,120.37h0s-.33,1.23-.45,1.64c-.05.18-.14.44-.22.71s-.2.62-.26.82c-.48,1.68-1.74,6.8-1.75,6.85Zm-1-.27h.77c.18-.71,1.29-5.2,1.73-6.76l.26-.83c.08-.26.17-.52.22-.7.12-.41.45-1.64.45-1.64l.67-2.43Z"/><polygon class="cls-2" points="181.94 131.02 184.53 131.17 185.32 117.96 185.48 115.29 182.86 115.52 181.94 131.02"/><path class="cls-2" d="M184.64,131.3l-2.84-.17V131l.93-15.6,2.87-.26Zm-2.57-.4,2.34.14.93-15.61-2.36.21Z"/><path class="cls-2" d="M191.55,115.61h-.18l-.35,0a2.17,2.17,0,0,0-.55.07,4.57,4.57,0,0,0-1.09.54l-.51.38,2.57,1Z"/><path class="cls-2" d="M191.55,117.79l-2.93-1.2.68-.51a4.47,4.47,0,0,1,1.14-.56,2.6,2.6,0,0,1,.95,0h.3Zm-2.43-1.26,2.2.89.1-1.7h-.06a2.52,2.52,0,0,0-.85,0,4.4,4.4,0,0,0-1.07.52Z"/><path class="cls-2" d="M202.22,132.59l.52-.07.35-.07-.15,0a3.53,3.53,0,0,1-1.58-.84,3,3,0,0,1-.88-2,10.19,10.19,0,0,1,.05-1.5l.87-9.55.18-2h0l.18-1.93.18-2h-.09l-4.72,3.28,0,.26,1.9.18-.18,2-1,11.44a2.29,2.29,0,0,0,2.48,2.87h.06l.53,0,.66,0Z"/><path class="cls-2" d="M200.84,132.79l-.54,0-.05-.12v.12a2.42,2.42,0,0,1-2.6-3l1.22-13.31-1.89-.18,0-.44,4.81-3.33.26,0-.39,4.25h0l-1,11.35a8.6,8.6,0,0,0,0,1.48,2.8,2.8,0,0,0,.83,1.88,3.56,3.56,0,0,0,1.53.81l.15,0,.55.13-.91.18-.53.07-.72.06Zm-3.6-16.74,1.89.17-.19,2.12-1.05,11.44a2.44,2.44,0,0,0,.45,2c.13.16.55.66,1.92.74h0l.54,0,.67,0,.7-.06h0l.34,0a3.64,3.64,0,0,1-1.27-.76,3,3,0,0,1-.91-2,9,9,0,0,1,0-1.51l1.08-11.72h0l.32-3.57L197.24,116Z"/><path class="cls-2" d="M214.87,112.77H215l.11,0a3.49,3.49,0,0,0,.68.07,1.59,1.59,0,0,0,.76-.16c.08,0,.19-.11.21-.54V112l0-.14c.08-.38,0-.44,0-.48a2.8,2.8,0,0,0-1.62-.48H215l-.09,0a5.74,5.74,0,0,0-.68,0,1.67,1.67,0,0,0-.84.17c-.05,0-.14.08-.16.48v.13l0,.13c-.08.4,0,.47,0,.52A2.69,2.69,0,0,0,214.87,112.77Z"/><path class="cls-2" d="M215.78,113a4.73,4.73,0,0,1-.71-.07l-.21,0a2.82,2.82,0,0,1-1.68-.52c-.11-.1-.17-.24-.1-.63l0-.13v-.12c0-.41.12-.52.23-.58a2.55,2.55,0,0,1,1.6-.13l.18,0a2.94,2.94,0,0,1,1.69.51c.11.1.16.23.09.61l0,.13v.12c0,.45-.15.56-.27.63A1.63,1.63,0,0,1,215.78,113Zm-.91-.35.25,0a2.1,2.1,0,0,0,1.35-.08c.05,0,.13-.08.15-.44V112l0-.15c0-.21,0-.33,0-.37a2.74,2.74,0,0,0-1.55-.45l-.2,0a2.36,2.36,0,0,0-1.44.1c-.07,0-.09.22-.1.37v.14l0,.15c-.06.33,0,.37,0,.4a2.6,2.6,0,0,0,1.52.45Z"/><polygon class="cls-2" points="213.04 118 211.17 133.45 213.74 133.77 215.66 117.97 213.04 118"/><path class="cls-2" d="M213.85,133.91l-2.82-.35v-.12l1.89-15.56,2.87,0,0,.14Zm-2.55-.56,2.33.28,1.88-15.53-2.36,0Z"/><path class="cls-2" d="M231.06,130a5.17,5.17,0,0,0-.7-1,17.16,17.16,0,0,0-1.42-1.43l-2-1.79-.8-.77-.18-.17a4.69,4.69,0,0,1-.77-.94,2.81,2.81,0,0,1-.42-1.48,4.62,4.62,0,0,1,.07-.79,3.06,3.06,0,0,1,1.09-2,1.18,1.18,0,0,0-.21,0,4,4,0,0,0-1.51.55,3.41,3.41,0,0,0-1,1,3.93,3.93,0,0,0-.56,1.54,4.45,4.45,0,0,0,0,1.13,2.57,2.57,0,0,0,.22.81,4.86,4.86,0,0,0,.64,1,11,11,0,0,0,1.23,1.28l2,1.84c.54.5.94.89,1.24,1.19a7.13,7.13,0,0,1,.86,1.05,3.12,3.12,0,0,1,.52,1.46,4.38,4.38,0,0,1,0,.94,2.86,2.86,0,0,1-.82,1.76,3.24,3.24,0,0,1-.64.52h.06a4.68,4.68,0,0,0,1.67-.66,4,4,0,0,0,1.17-1.21,4.36,4.36,0,0,0,.64-1.76,4.27,4.27,0,0,0,0-1.17A2.7,2.7,0,0,0,231.06,130Z"/><path class="cls-2" d="M227.16,135.94l.5-.33a3.44,3.44,0,0,0,.62-.51,2.73,2.73,0,0,0,.79-1.68,5,5,0,0,0,0-.93,3.14,3.14,0,0,0-.5-1.39,6.37,6.37,0,0,0-.85-1c-.3-.3-.7-.69-1.23-1.19l-2-1.84a11,11,0,0,1-1.23-1.29,5,5,0,0,1-.66-1,2.39,2.39,0,0,1-.23-.86,4.16,4.16,0,0,1,0-1.15,3.87,3.87,0,0,1,.58-1.6,3.42,3.42,0,0,1,1.06-1.08,4.27,4.27,0,0,1,1.55-.57l.22,0,.42,0-.32.27a3,3,0,0,0-1.05,2,5.63,5.63,0,0,0-.06.77,2.7,2.7,0,0,0,.4,1.42,4.79,4.79,0,0,0,.75.91l.18.17.8.78,2,1.77a15.93,15.93,0,0,1,1.43,1.45,5.06,5.06,0,0,1,.72,1.08h0a2.72,2.72,0,0,1,.27.94,5.13,5.13,0,0,1-.7,3,4,4,0,0,1-1.21,1.25,4.7,4.7,0,0,1-1.72.68Zm-1.63-16.2a3.7,3.7,0,0,0-1.27.49,3.26,3.26,0,0,0-1,1,3.74,3.74,0,0,0-.55,1.5,4.71,4.71,0,0,0-.05,1.1,2.59,2.59,0,0,0,.21.77,5.44,5.44,0,0,0,.63,1,10.64,10.64,0,0,0,1.21,1.25l2,1.84c.54.51.94.9,1.24,1.2a6.84,6.84,0,0,1,.88,1.07,3.41,3.41,0,0,1,.54,1.52,4.58,4.58,0,0,1-.05,1,3,3,0,0,1-.85,1.84l-.19.18a4.23,4.23,0,0,0,1.12-.51,3.9,3.9,0,0,0,1.14-1.18,4.52,4.52,0,0,0,.62-1.71,4.47,4.47,0,0,0,0-1.14,2.65,2.65,0,0,0-.24-.85h0a5.14,5.14,0,0,0-.69-1,14.34,14.34,0,0,0-1.41-1.42l-2-1.78-.8-.78-.19-.18a4.54,4.54,0,0,1-.78-.95,2.92,2.92,0,0,1-.44-1.55,6.19,6.19,0,0,1,.06-.81A3.23,3.23,0,0,1,225.53,119.74Z"/><path class="cls-2" d="M241.18,137.26a2.9,2.9,0,0,1-.67-2,9.18,9.18,0,0,1,.19-1.48l1.85-9.41.38-2h0l.38-1.91.38-2-.09,0-5,2.78,0,.26,1.87.36-.39,2-2.21,11.28a2.58,2.58,0,0,0,.26,2.12c.13.19.51.75,1.92,1H240l.54.09.65,0,.47,0h.77l.35,0-.14,0A3.55,3.55,0,0,1,241.18,137.26Z"/><path class="cls-2" d="M241.7,138.49h-.49l-.65,0c-.17,0-.36,0-.56-.08l0-.14,0,.13c-1.46-.24-1.87-.84-2-1a2.63,2.63,0,0,1-.28-2.21L240.24,122l-1.87-.37.09-.43,5.12-2.83.26,0-1.17,6-1.84,9.41a10.33,10.33,0,0,0-.2,1.46,2.79,2.79,0,0,0,.64,2h0a3.52,3.52,0,0,0,1.44,1l.68.24-.92.09h-.77Zm-3-17.08,1.87.36-.41,2.09-2.21,11.28a2.47,2.47,0,0,0,.24,2c.12.17.48.71,1.84.93h0a5,5,0,0,0,.56.08l.64,0h1.05a3.51,3.51,0,0,1-1.19-.89h0a3.06,3.06,0,0,1-.7-2.12,10.77,10.77,0,0,1,.2-1.5l2.95-15.07-4.85,2.68Z"/><path class="cls-2" d="M258.8,134.81a17.82,17.82,0,0,0-1.29-1.55l-1.86-1.94-.74-.84-.16-.19a4.84,4.84,0,0,1-.69-1,2.9,2.9,0,0,1-.3-1.52,6.33,6.33,0,0,1,.13-.78,3.14,3.14,0,0,1,1.26-1.94h-.21a3.9,3.9,0,0,0-1.55.43,3.22,3.22,0,0,0-1.11,1,3.8,3.8,0,0,0-.69,1.49,4.28,4.28,0,0,0-.14,1.12,2.39,2.39,0,0,0,.15.83,5,5,0,0,0,.56,1.07,10.78,10.78,0,0,0,1.11,1.37l1.82,2c.49.54.86,1,1.13,1.29a6.65,6.65,0,0,1,.77,1.12,3.16,3.16,0,0,1,.4,1.51,4.08,4.08,0,0,1-.12.92,2.93,2.93,0,0,1-1,1.69,4.05,4.05,0,0,1-.68.46h.05a4.67,4.67,0,0,0,1.72-.51,4.06,4.06,0,0,0,1.27-1.11,4.5,4.5,0,0,0,.78-1.7,4.69,4.69,0,0,0,.15-1.17,2.94,2.94,0,0,0-.18-.91A5.05,5.05,0,0,0,258.8,134.81Z"/><path class="cls-2" d="M255,141.5l.53-.29a3,3,0,0,0,.65-.45,2.82,2.82,0,0,0,.93-1.61,4.58,4.58,0,0,0,.11-.91,3,3,0,0,0-.38-1.44,6.28,6.28,0,0,0-.76-1.1c-.27-.33-.64-.75-1.13-1.29l-1.81-2a11.31,11.31,0,0,1-1.13-1.38,5.52,5.52,0,0,1-.57-1.1,2.9,2.9,0,0,1-.16-.87,5,5,0,0,1,.15-1.15,4.12,4.12,0,0,1,.71-1.54,3.44,3.44,0,0,1,1.15-1,4,4,0,0,1,1.6-.44l.21,0h.42l-.34.24A3,3,0,0,0,254,127a4.59,4.59,0,0,0-.13.77,2.72,2.72,0,0,0,.28,1.44,4.35,4.35,0,0,0,.67,1l.9,1,1.86,1.94a15.27,15.27,0,0,1,1.3,1.56h0a4.69,4.69,0,0,1,.63,1.14,2.92,2.92,0,0,1,.19,1,4.42,4.42,0,0,1-.15,1.2,4.56,4.56,0,0,1-.8,1.74,4.09,4.09,0,0,1-1.31,1.15,4.69,4.69,0,0,1-1.77.52Zm-.28-16.28a3.72,3.72,0,0,0-1.31.39,3.42,3.42,0,0,0-1.07.91,3.88,3.88,0,0,0-.67,1.45,5.09,5.09,0,0,0-.14,1.09,2.4,2.4,0,0,0,.15.79,5,5,0,0,0,.54,1,10.74,10.74,0,0,0,1.1,1.35l1.82,2c.49.54.86,1,1.14,1.3a6.5,6.5,0,0,1,.78,1.15,3.12,3.12,0,0,1,.41,1.56,4.25,4.25,0,0,1-.12.95,3,3,0,0,1-1,1.75l-.2.16a3.8,3.8,0,0,0,2.38-1.49,4.25,4.25,0,0,0,.76-1.65,4.3,4.3,0,0,0,.14-1.13,2.74,2.74,0,0,0-.17-.88,5.13,5.13,0,0,0-.6-1.07h0a15,15,0,0,0-1.29-1.54l-1.85-1.94-.91-1a5.08,5.08,0,0,1-.7-1,2.93,2.93,0,0,1-.31-1.58,6.62,6.62,0,0,1,.13-.8A3.24,3.24,0,0,1,254.76,125.22Z"/><path class="cls-5" d="M62.58,136.51a5.3,5.3,0,0,0-.08-2.27,5.78,5.78,0,0,0-.51-1.41,3.09,3.09,0,0,0-.69-.91,5.18,5.18,0,0,0-1.15-.84,13.42,13.42,0,0,0-1.8-.82l-3.81-1.42c-.59-.21-1.06-.41-1.45-.58a6.87,6.87,0,0,1-1.14-.67,3.4,3.4,0,0,1-1-1.16,5.12,5.12,0,0,1-.38-1.07,4,4,0,0,1,.74-3.57,5.17,5.17,0,0,1,1-.94,5.55,5.55,0,0,0-1.92.89,5,5,0,0,0-1.42,1.5,4.87,4.87,0,0,0-.69,1.9,5.67,5.67,0,0,0,.11,2.23,5.87,5.87,0,0,0,.5,1.33,4.17,4.17,0,0,0,.76,1,6.41,6.41,0,0,0,1.23.9,16.27,16.27,0,0,0,2,.94l3.27,1.26c.67.25,1.2.47,1.62.66a5.73,5.73,0,0,1,1.26.75,3.22,3.22,0,0,1,1,1.21,4.79,4.79,0,0,1,.32.95,3.51,3.51,0,0,1,0,2.08,4.3,4.3,0,0,1-.84,1.54,5.18,5.18,0,0,1-1.29,1.12l-.11.06a6.52,6.52,0,0,0,2.12-1,5.75,5.75,0,0,0,1.57-1.62A5.46,5.46,0,0,0,62.58,136.51Z"/><path class="cls-5" d="M75.94,136.81h-.1a3.5,3.5,0,0,1-1.66-.37,2.93,2.93,0,0,1-1.39-1.65,9.21,9.21,0,0,1-.37-1.44l-1.82-9.41L70.23,122h0l-.38-2-.38-2-.09,0-3.63,4.46,0,.26,1.87-.36.38,2,2.18,11.28a2.58,2.58,0,0,0,1,1.87,2.07,2.07,0,0,0,1.18.31,4.42,4.42,0,0,0,1-.12h.06a5.38,5.38,0,0,0,.54-.13c.19-.06.4-.12.61-.2s.42-.15.67-.25l.48-.21.32-.17Z"/><path class="cls-5" d="M87.27,135.28a7.34,7.34,0,0,0,1.12-.09,15.34,15.34,0,0,0,1.83-.39c.37-.11.8-.25,1.28-.43l-.62,0a7.2,7.2,0,0,1-4.07-1.15,8.19,8.19,0,0,1-3.14-4.7l-.39-2-.18-1.23,0-.13a9.1,9.1,0,0,1,.14-4.56v0A6.65,6.65,0,0,0,82,122a8.19,8.19,0,0,0-1,3,12.48,12.48,0,0,0,0,3.81,9.94,9.94,0,0,0,1,3.08A6.84,6.84,0,0,0,83.58,134a5.64,5.64,0,0,0,2.14,1.12A5.53,5.53,0,0,0,87.27,135.28Z"/><path class="cls-5" d="M88.88,119a3.44,3.44,0,0,1,.47.52,5.36,5.36,0,0,1,.76,1.61,14.48,14.48,0,0,1,.43,2l.07.51.14.9,2.32-.61c-.1-.55-.2-1-.31-1.41a6.27,6.27,0,0,0-.44-1.18,2.33,2.33,0,0,0-.46-.63,10.22,10.22,0,0,0-.94-.82,4,4,0,0,0-1.77-.86Z"/><path class="cls-5" d="M105.22,132.44a4,4,0,0,1-1.71-.73,4.21,4.21,0,0,1-1.53-2.94v-.06a6.21,6.21,0,0,1,.49-3.17,4.25,4.25,0,0,1,1-1.35,6.12,6.12,0,0,0-1.57.64,4.82,4.82,0,0,0-1.39,1.24,4.16,4.16,0,0,0-.7,1.56,6.12,6.12,0,0,0-.1,2,4.46,4.46,0,0,0,.44,1.57,4.18,4.18,0,0,0,.89,1.22,2.83,2.83,0,0,0,1.07.66,2.6,2.6,0,0,0,.93.16l.36,0a3.24,3.24,0,0,0,.94-.24A6.47,6.47,0,0,0,105.22,132.44Z"/><path class="cls-5" d="M108.35,121.32l.07.7h0l.25,2.48.59,5.69,0,.22.22,1.84,2.18-.22-1.27-12.39a5.77,5.77,0,0,0-.43-1.83,1.64,1.64,0,0,0-.66-.7l-.41-.26a4.44,4.44,0,0,0-1.86-.35,4.7,4.7,0,0,0-.52,0,3.79,3.79,0,0,1,1.64,3Z"/><path class="cls-5" d="M124.62,115.68l.38,0a3.42,3.42,0,0,1,2,1.07,4.06,4.06,0,0,1,.91,2,14.41,14.41,0,0,1,.23,2.12l.49,9.89,2.6-.13-.6-12a3.91,3.91,0,0,0-.13-1,8.58,8.58,0,0,0-.93-1.71,3,3,0,0,0-1.25-.9,1.89,1.89,0,0,0-.81-.16h-.31a5.05,5.05,0,0,0-1.53.34C125.36,115.33,125,115.49,124.62,115.68Z"/><polygon class="cls-5" points="120.96 131.15 120.3 117.8 120.21 116.07 120.21 116.07 120.17 115.26 117.6 115.78 118.37 131.28 120.96 131.15"/><path class="cls-5" d="M135.15,115.25a3.62,3.62,0,0,1,2,1,4.08,4.08,0,0,1,1,1.92,13,13,0,0,1,.25,2.1l.49,9.95,2.6-.12-.55-11a9.5,9.5,0,0,0-.44-2.73,2.84,2.84,0,0,0-.89-1.29,3.27,3.27,0,0,0-1.12-.6,4.17,4.17,0,0,0-1.19-.17H137a9,9,0,0,0-2.86.74C134.52,115.15,134.85,115.2,135.15,115.25Z"/><path class="cls-5" d="M172.22,130.24l3.14.07L170,109.85l-2.24,0,.76,3.58c.23,1.06.42,2,.58,2.69s.34,1.49.5,2.25.3,1.34.4,1.8c0,0,.28,1.24.38,1.65s.38,1.55.38,1.55Z"/><path class="cls-5" d="M164.74,112.9,159.07,130l1,0s1.27-5.15,1.76-6.85c.11-.39.36-1.15.47-1.54s.45-1.64.45-1.64l1.85-6.7Z"/><polygon class="cls-5" points="181.81 130.64 184.4 130.8 185.19 117.59 185.35 114.92 182.74 115.15 181.81 130.64"/><path class="cls-5" d="M191.43,115.23h-.18l-.36,0a2.12,2.12,0,0,0-.54.06,4.81,4.81,0,0,0-1.1.54l-.5.38,2.56,1Z"/><path class="cls-5" d="M202.09,132.21l.53-.07.34-.06-.15,0a3.6,3.6,0,0,1-1.58-.85,2.88,2.88,0,0,1-.87-2,8.72,8.72,0,0,1,0-1.49l.87-9.55.19-2h0l.18-1.94.18-2h-.1L197,115.53l0,.26,1.89.17-.18,2-1.05,11.45a2.57,2.57,0,0,0,.48,2.08,2.52,2.52,0,0,0,2,.78h.06l.53,0,.67,0Z"/><path class="cls-5" d="M214.74,112.4h.12l.11,0a4.36,4.36,0,0,0,.68.07,1.5,1.5,0,0,0,.76-.17c.07,0,.18-.11.2-.53v-.14l0-.13c.07-.38,0-.45-.05-.49a2.85,2.85,0,0,0-1.62-.48h-.09l-.1,0a4.18,4.18,0,0,0-.68-.06,1.81,1.81,0,0,0-.84.17s-.14.08-.16.48v.14l0,.13c-.08.4,0,.47.06.52A2.8,2.8,0,0,0,214.74,112.4Z"/><polygon class="cls-5" points="212.91 117.63 211.04 133.08 213.62 133.39 215.53 117.6 212.91 117.63"/><path class="cls-5" d="M230.93,129.64a4.78,4.78,0,0,0-.7-1,17.13,17.13,0,0,0-1.42-1.44l-2-1.78-.8-.77-.19-.18a4.94,4.94,0,0,1-.76-.93,2.83,2.83,0,0,1-.43-1.48,5.91,5.91,0,0,1,.07-.79,3.13,3.13,0,0,1,1.09-2l-.21,0a3.93,3.93,0,0,0-1.5.55,3.41,3.41,0,0,0-1,1,4,4,0,0,0-.57,1.55,4.92,4.92,0,0,0-.05,1.13,2.64,2.64,0,0,0,.22.81,5.53,5.53,0,0,0,.65,1,10.1,10.1,0,0,0,1.22,1.27l2,1.84c.54.51.94.89,1.23,1.2a6.24,6.24,0,0,1,.87,1,3.23,3.23,0,0,1,.52,1.45,4.4,4.4,0,0,1-.05.94,2.9,2.9,0,0,1-.81,1.77,4,4,0,0,1-.64.52h0a4.42,4.42,0,0,0,1.67-.65,4,4,0,0,0,1.18-1.22,4.46,4.46,0,0,0,.63-1.75,4.37,4.37,0,0,0,.05-1.18A2.73,2.73,0,0,0,230.93,129.64Z"/><path class="cls-5" d="M241.05,136.89a3,3,0,0,1-.67-2,10.36,10.36,0,0,1,.2-1.48l1.84-9.41.39-2h0l.37-1.91.39-2h-.1l-5,2.77-.05.26,1.87.37-.39,2-2.21,11.28a2.29,2.29,0,0,0,2.18,3.1h.06a4.05,4.05,0,0,0,.55.08l.64,0h1.24l.36,0-.15-.06A3.5,3.5,0,0,1,241.05,136.89Z"/><path class="cls-5" d="M258.68,134.44a16.44,16.44,0,0,0-1.3-1.55L255.52,131l-.73-.84-.17-.19a4.84,4.84,0,0,1-.69-1,2.84,2.84,0,0,1-.29-1.52,4.87,4.87,0,0,1,.13-.78,3.15,3.15,0,0,1,1.25-1.94h-.21a4,4,0,0,0-1.54.42,3.49,3.49,0,0,0-1.12.95,4.07,4.07,0,0,0-.69,1.5,5.27,5.27,0,0,0-.14,1.12,3,3,0,0,0,.15.83,5,5,0,0,0,.56,1.06,11,11,0,0,0,1.11,1.38l1.82,2c.5.55.87,1,1.13,1.3a6.77,6.77,0,0,1,.78,1.12,3.14,3.14,0,0,1,.39,1.5,4.16,4.16,0,0,1-.12.93,2.93,2.93,0,0,1-1,1.68,3.29,3.29,0,0,1-.68.47h.06a4.55,4.55,0,0,0,1.72-.52,4,4,0,0,0,1.27-1.11,4.58,4.58,0,0,0,.78-1.7,4.52,4.52,0,0,0,.14-1.16,2.89,2.89,0,0,0-.18-.91A5.17,5.17,0,0,0,258.68,134.44Z"/><path class="cls-2" d="M103.35,92.24H99.54a13.76,13.76,0,0,0-.33-1.72l3.51-1.46a.41.41,0,0,0,.22-.54l-1.12-2.7a.41.41,0,0,0-.38-.26.41.41,0,0,0-.16,0l-3.52,1.46a13.2,13.2,0,0,0-1-1.46l2.69-2.69a.42.42,0,0,0,0-.59l-2.07-2.06a.39.39,0,0,0-.29-.13.39.39,0,0,0-.3.13l-2.69,2.69a13.28,13.28,0,0,0-1.46-1l1.46-3.51a.4.4,0,0,0-.23-.54l-2.7-1.12a.39.39,0,0,0-.54.22L89.2,80.52a13.76,13.76,0,0,0-1.72-.33V76.38a.41.41,0,0,0-.41-.41H84.14a.41.41,0,0,0-.41.41v3.81a13.77,13.77,0,0,0-1.72.34L80.55,77a.41.41,0,0,0-.38-.26.45.45,0,0,0-.16,0l-2.7,1.12a.42.42,0,0,0-.23.54L78.54,82a14.22,14.22,0,0,0-1.46,1l-2.69-2.69a.42.42,0,0,0-.29-.12.44.44,0,0,0-.3.12l-2.06,2.07a.41.41,0,0,0,0,.59l2.69,2.69a13.28,13.28,0,0,0-1,1.46L69.94,85.6a.45.45,0,0,0-.16,0,.41.41,0,0,0-.38.26l-1.12,2.7a.41.41,0,0,0,.22.54L72,90.53a15.84,15.84,0,0,0-.33,1.72H67.87a.41.41,0,0,0-.41.41v2.93a.41.41,0,0,0,.41.42h3.81A14.14,14.14,0,0,0,72,97.73l-3.51,1.45a.41.41,0,0,0-.23.54l1.12,2.7a.41.41,0,0,0,.39.26.4.4,0,0,0,.15,0l3.52-1.46a13.2,13.2,0,0,0,1,1.46l-2.69,2.69a.42.42,0,0,0,0,.59L73.81,108a.42.42,0,0,0,.3.12.42.42,0,0,0,.29-.12l2.69-2.69a16.07,16.07,0,0,0,1.46,1l-1.46,3.51a.44.44,0,0,0,.23.55l2.7,1.12a.45.45,0,0,0,.16,0,.41.41,0,0,0,.38-.26L82,107.72a13.77,13.77,0,0,0,1.72.34v3.8a.42.42,0,0,0,.42.42h2.92a.42.42,0,0,0,.42-.42v-3.81a12.46,12.46,0,0,0,1.72-.34l1.45,3.52a.42.42,0,0,0,.54.22l2.71-1.12a.41.41,0,0,0,.22-.54l-1.46-3.52a13.2,13.2,0,0,0,1.46-1L96.83,108a.42.42,0,0,0,.29.12.42.42,0,0,0,.3-.12l2.07-2.07a.42.42,0,0,0,0-.59l-2.69-2.69a14.79,14.79,0,0,0,1-1.46l3.51,1.46.16,0a.42.42,0,0,0,.39-.26l1.12-2.7a.42.42,0,0,0-.23-.54l-3.51-1.46A13.77,13.77,0,0,0,99.55,96h3.8a.41.41,0,0,0,.42-.41V92.65A.41.41,0,0,0,103.35,92.24ZM92.46,94.12a6.85,6.85,0,1,1-6.85-6.85A6.85,6.85,0,0,1,92.46,94.12Z"/><path class="cls-2" d="M250.77,71h-1.49a5.1,5.1,0,0,0-.13-.68l1.37-.56a.18.18,0,0,0,.09-.22l-.44-1a.14.14,0,0,0-.15-.1H250l-1.37.57a5.72,5.72,0,0,0-.39-.57l1.06-1a.17.17,0,0,0,0-.23l-.81-.81a.18.18,0,0,0-.12,0,.16.16,0,0,0-.11,0l-1.06,1a4.35,4.35,0,0,0-.57-.38l.57-1.38a.16.16,0,0,0-.08-.21L246,65H246a.15.15,0,0,0-.15.1l-.57,1.38a5.12,5.12,0,0,0-.68-.14V64.82a.17.17,0,0,0-.16-.17h-1.14a.17.17,0,0,0-.16.17V66.3c-.23,0-.46.08-.68.14l-.57-1.38a.15.15,0,0,0-.15-.1l-.06,0-1.06.43a.16.16,0,0,0-.08.22l.57,1.37a5.65,5.65,0,0,0-.57.38l-1.06-1a.16.16,0,0,0-.11,0,.21.21,0,0,0-.12,0l-.8.81a.15.15,0,0,0,0,.23l1.05,1a4.35,4.35,0,0,0-.38.57l-1.38-.57h-.06a.18.18,0,0,0-.15.1l-.44,1.06a.17.17,0,0,0,.09.21l1.37.57c0,.22-.1.44-.13.67H236.9a.17.17,0,0,0-.17.16v1.15a.17.17,0,0,0,.17.16h1.48a5,5,0,0,0,.14.67l-1.38.57a.17.17,0,0,0-.09.21l.44,1.06a.18.18,0,0,0,.15.1h.07l1.37-.57a5.65,5.65,0,0,0,.38.57l-1.05,1a.17.17,0,0,0,0,.23l.81.81a.16.16,0,0,0,.11,0,.18.18,0,0,0,.12,0l1.05-1.05a5.65,5.65,0,0,0,.57.38l-.57,1.37a.18.18,0,0,0,.09.22l1.06.43.06,0a.18.18,0,0,0,.15-.1l.57-1.38a5,5,0,0,0,.67.13v1.49a.16.16,0,0,0,.16.16h1.15a.16.16,0,0,0,.16-.16V77.2a5,5,0,0,0,.67-.13l.57,1.37a.16.16,0,0,0,.15.1H246l1.06-.44a.17.17,0,0,0,.09-.21l-.57-1.37c.2-.12.39-.25.57-.38l1.05,1.05a.16.16,0,0,0,.12,0,.15.15,0,0,0,.11,0l.81-.81a.17.17,0,0,0,0-.23l-1-1c.14-.19.26-.38.38-.57l1.37.57H250a.15.15,0,0,0,.15-.1l.44-1.06a.15.15,0,0,0-.09-.21l-1.37-.57a5.28,5.28,0,0,0,.13-.67h1.49a.17.17,0,0,0,.16-.17V71.18A.16.16,0,0,0,250.77,71Zm-4.26.73a2.68,2.68,0,1,1-2.68-2.67A2.68,2.68,0,0,1,246.51,71.75Z"/><path class="cls-2" d="M245.22,102.82l-2.3-.74q0-.33,0-.66c0-.21,0-.43,0-.65l2.3-.74a.79.79,0,0,0,.51-1l-1-3a.8.8,0,0,0-.75-.55,1.09,1.09,0,0,0-.25,0l-2.3.75a8.77,8.77,0,0,0-.76-1l1.42-2a.78.78,0,0,0-.18-1.1l-2.59-1.89a.79.79,0,0,0-.46-.15.76.76,0,0,0-.64.33l-1.42,1.95a9,9,0,0,0-1.24-.4V89.53a.8.8,0,0,0-.79-.79h-3.21a.79.79,0,0,0-.79.79V92a8.55,8.55,0,0,0-1.24.4l-1.42-1.95a.79.79,0,0,0-.64-.33.82.82,0,0,0-.47.15l-2.59,1.89a.78.78,0,0,0-.17,1.1l1.42,2a8.85,8.85,0,0,0-.77,1l-2.3-.75a1,1,0,0,0-.24,0,.8.8,0,0,0-.76.55l-1,3a.8.8,0,0,0,.51,1l2.3.74c0,.22,0,.44,0,.65s0,.44,0,.66l-2.3.74a.8.8,0,0,0-.51,1l1,3.05a.8.8,0,0,0,.76.55,1,1,0,0,0,.24,0l2.3-.75a8.85,8.85,0,0,0,.77,1.05l-1.42,2a.78.78,0,0,0,.17,1.1l2.59,1.89a.82.82,0,0,0,.47.15.79.79,0,0,0,.64-.33l1.42-2a8.55,8.55,0,0,0,1.24.4v2.42a.79.79,0,0,0,.79.79h3.21a.8.8,0,0,0,.79-.79V110.9a9,9,0,0,0,1.24-.4l1.42,2a.76.76,0,0,0,.64.33.79.79,0,0,0,.46-.15l2.59-1.89a.78.78,0,0,0,.18-1.1l-1.42-2a8.77,8.77,0,0,0,.76-1.05l2.3.75a1.09,1.09,0,0,0,.25,0,.8.8,0,0,0,.75-.55l1-3.05A.79.79,0,0,0,245.22,102.82Zm-12.05.46a1.86,1.86,0,1,1,1.86-1.86A1.86,1.86,0,0,1,233.17,103.28Z"/></g></g></svg>